<svg width="16" height="16" viewBox="0 0 16 16" fill="none" xmlns="http://www.w3.org/2000/svg">
<path d="M11.1943 8.6983C11.343 8.55597 11.5768 8.55597 11.7255 8.6983L14.5474 11.4C14.7012 11.5472 14.707 11.7917 14.5603 11.9461C14.4137 12.1005 14.1701 12.1064 14.0163 11.9591L13.9612 11.9063V13.6137C13.9612 13.827 13.7889 14 13.5764 14H12.2295V12.326H10.6903V14H9.34346C9.13094 14 8.95865 13.827 8.95865 13.6137V11.9063L8.90355 11.9591C8.74975 12.1064 8.50617 12.1005 8.3595 11.9461C8.21282 11.7917 8.2186 11.5472 8.37241 11.4L11.1943 8.6983Z" fill="#EB4C60"/>
<path fill-rule="evenodd" clip-rule="evenodd" d="M2.96203 2C2.43071 2 2 2.45402 2 3.01408V12.8169C2 13.377 2.43071 13.831 2.96203 13.831H8.01225C8.00199 13.7607 7.99664 13.6882 7.99664 13.6137V12.9115C7.88256 12.8472 7.77557 12.7646 7.6797 12.6637C7.14248 12.0981 7.16657 11.1845 7.72562 10.6493L10.5476 7.94761C10.7631 7.74122 11.0274 7.62114 11.2996 7.58737V3.01408C11.2996 2.45402 10.8689 2 10.3376 2H2.96203ZM4.40506 4.78873C4.18368 4.78873 4.00422 4.97791 4.00422 5.21127C4.00422 5.44463 4.18368 5.6338 4.40506 5.6338H8.89451C9.1159 5.6338 9.29536 5.44463 9.29536 5.21127C9.29536 4.97791 9.1159 4.78873 8.89451 4.78873H4.40506ZM4.00422 7.23944C4.00422 7.00608 4.18368 6.8169 4.40506 6.8169H6.32911C6.55049 6.8169 6.72996 7.00608 6.72996 7.23944C6.72996 7.4728 6.55049 7.66197 6.32911 7.66197H4.40506C4.18368 7.66197 4.00422 7.4728 4.00422 7.23944ZM4.40506 8.84507C4.18368 8.84507 4.00422 9.03425 4.00422 9.26761C4.00422 9.50097 4.18368 9.69014 4.40506 9.69014H6.32911C6.55049 9.69014 6.72996 9.50097 6.72996 9.26761C6.72996 9.03425 6.55049 8.84507 6.32911 8.84507H4.40506Z" fill="#EB4C60"/>
</svg>
