<svg width="24" height="24" viewBox="0 0 24 24" fill="none" xmlns="http://www.w3.org/2000/svg">
<path d="M9 14.25H4.5C4.05 14.25 3.75 14.55 3.75 15C3.75 15.45 4.05 15.75 4.5 15.75H7.2L3.225 19.725C2.925 20.025 2.925 20.475 3.225 20.775C3.525 21.075 3.975 21.075 4.275 20.775L8.25 16.8V19.5C8.25 19.95 8.55 20.25 9 20.25C9.45 20.25 9.75 19.95 9.75 19.5V15C9.75 14.55 9.45 14.25 9 14.25Z" fill="#fff"/>
<path d="M16.8 15.75H19.5C19.95 15.75 20.25 15.45 20.25 15C20.25 14.55 19.95 14.25 19.5 14.25H15C14.55 14.25 14.25 14.55 14.25 15V19.5C14.25 19.95 14.55 20.25 15 20.25C15.45 20.25 15.75 19.95 15.75 19.5V16.8L19.725 20.775C20.025 21.075 20.475 21.075 20.775 20.775C21.075 20.475 21.075 20.025 20.775 19.725L16.8 15.75Z" fill="#fff"/>
<path d="M15 9.75H19.5C19.95 9.75 20.25 9.45 20.25 9C20.25 8.55 19.95 8.25 19.5 8.25H16.8L20.775 4.275C21.075 3.975 21.075 3.525 20.775 3.225C20.475 2.925 20.025 2.925 19.725 3.225L15.75 7.2V4.5C15.75 4.05 15.45 3.75 15 3.75C14.55 3.75 14.25 4.05 14.25 4.5V9C14.25 9.45 14.55 9.75 15 9.75Z" fill="#fff"/>
<path d="M9 3.75C8.55 3.75 8.25 4.05 8.25 4.5V7.2L4.275 3.225C3.975 2.925 3.525 2.925 3.225 3.225C2.925 3.525 2.925 3.975 3.225 4.275L7.2 8.25H4.5C4.05 8.25 3.75 8.55 3.75 9C3.75 9.45 4.05 9.75 4.5 9.75H9C9.45 9.75 9.75 9.45 9.75 9V4.5C9.75 4.05 9.45 3.75 9 3.75Z" fill="#fff"/>
</svg>
