<svg width="21" height="22" viewBox="0 0 21 22" fill="none" xmlns="http://www.w3.org/2000/svg">
<path d="M19.8392 0.766251H15.1517C14.9528 0.766251 14.7621 0.845268 14.6214 0.98592C14.4808 1.12657 14.4017 1.31734 14.4017 1.51625C14.4017 1.71516 14.4808 1.90593 14.6214 2.04658C14.7621 2.18723 14.9528 2.26625 15.1517 2.26625H19.0892V6.20375C19.0892 6.40266 19.1683 6.59343 19.3089 6.73408C19.4496 6.87473 19.6403 6.95375 19.8392 6.95375C20.0381 6.95375 20.2289 6.87473 20.3696 6.73408C20.5102 6.59343 20.5892 6.40266 20.5892 6.20375V1.51625C20.5892 1.31734 20.5102 1.12657 20.3696 0.98592C20.2289 0.845268 20.0381 0.766251 19.8392 0.766251Z" fill="white"/>
<path d="M5.5592 0.766251H0.871704C0.672792 0.766251 0.482026 0.845268 0.341374 0.98592C0.200722 1.12657 0.121704 1.31734 0.121704 1.51625V6.20375C0.121704 6.40266 0.200722 6.59343 0.341374 6.73408C0.482026 6.87473 0.672792 6.95375 0.871704 6.95375C1.07062 6.95375 1.26138 6.87473 1.40203 6.73408C1.54269 6.59343 1.6217 6.40266 1.6217 6.20375V2.26625H5.5592C5.75812 2.26625 5.94888 2.18723 6.08953 2.04658C6.23019 1.90593 6.3092 1.71516 6.3092 1.51625C6.3092 1.31734 6.23019 1.12657 6.08953 0.98592C5.94888 0.845268 5.75812 0.766251 5.5592 0.766251Z" fill="white"/>
<path d="M5.5592 19.7337H1.6217V15.7962C1.6217 15.5973 1.54269 15.4066 1.40203 15.2659C1.26138 15.1253 1.07062 15.0462 0.871704 15.0462C0.672792 15.0462 0.482026 15.1253 0.341374 15.2659C0.200722 15.4066 0.121704 15.5973 0.121704 15.7962V20.4837C0.121704 20.6827 0.200722 20.8734 0.341374 21.0141C0.482026 21.1547 0.672792 21.2337 0.871704 21.2337H5.5592C5.75812 21.2337 5.94888 21.1547 6.08953 21.0141C6.23019 20.8734 6.3092 20.6827 6.3092 20.4837C6.3092 20.2848 6.23019 20.0941 6.08953 19.9534C5.94888 19.8128 5.75812 19.7337 5.5592 19.7337Z" fill="white"/>
<path d="M19.8392 15.0462C19.6403 15.0462 19.4496 15.1253 19.3089 15.2659C19.1683 15.4066 19.0892 15.5973 19.0892 15.7962V19.7337H15.1517C14.9528 19.7337 14.7621 19.8128 14.6214 19.9534C14.4808 20.0941 14.4017 20.2848 14.4017 20.4837C14.4017 20.6827 14.4808 20.8734 14.6214 21.0141C14.7621 21.1547 14.9528 21.2337 15.1517 21.2337H19.8392C20.0381 21.2337 20.2289 21.1547 20.3696 21.0141C20.5102 20.8734 20.5892 20.6827 20.5892 20.4837V15.7962C20.5892 15.5973 20.5102 15.4066 20.3696 15.2659C20.2289 15.1253 20.0381 15.0462 19.8392 15.0462Z" fill="white"/>
</svg>
