<svg width="50" height="50" viewBox="0 0 50 50" fill="none" xmlns="http://www.w3.org/2000/svg">
<g clip-path="url(#clip0_23715_50582)">
<path d="M21.3938 45.9495C21.3938 46.3811 21.0442 46.7307 20.6125 46.7307H14.7629C11.5969 46.7307 9.02072 44.1575 9.02072 40.9954V37.3215L7.07443 39.2678C6.76877 39.5725 6.27463 39.5725 5.96994 39.2678C5.66525 38.9631 5.66525 38.468 5.96994 38.1633L9.25022 34.884C9.5549 34.5793 10.049 34.5793 10.3547 34.884L13.6379 38.1633C13.9436 38.468 13.9436 38.9631 13.6389 39.2678C13.4865 39.4202 13.2863 39.4973 13.0862 39.4973C12.886 39.4973 12.6867 39.4211 12.5344 39.2688L10.5852 37.3215V40.9973C10.5852 43.2981 12.4602 45.1702 14.7649 45.1702H20.6145C21.0442 45.1682 21.3938 45.5178 21.3938 45.9495ZM30.4035 4.83228H36.2502C38.5549 4.83228 40.4299 6.70435 40.4299 9.00513V12.6809L38.4826 10.7366C38.177 10.4319 37.6828 10.4319 37.3781 10.7375C37.0735 11.0432 37.0735 11.5374 37.3791 11.842L40.6594 15.1184C40.8117 15.2708 41.0119 15.3469 41.2112 15.3469C41.4104 15.3469 41.6106 15.2708 41.7629 15.1184L45.0432 11.842C45.3488 11.5374 45.3488 11.0422 45.0442 10.7375C44.7395 10.4319 44.2444 10.4319 43.9397 10.7366L41.9924 12.6809V9.00513C41.9924 5.84204 39.4162 3.26978 36.2502 3.26978H30.4035C29.9719 3.26978 29.6223 3.61938 29.6223 4.05103C29.6223 4.48267 29.9719 4.83228 30.4035 4.83228ZM26.4836 13.2043L24.4602 15.9749C24.3069 16.1838 24.0696 16.2952 23.8283 16.2952C23.6692 16.2952 23.508 16.2463 23.3684 16.1448L22.7297 15.6799V26.5784C22.7297 27.01 22.3801 27.3596 21.9485 27.3596H4.68479C4.25315 27.3596 3.90354 27.01 3.90354 26.5784V15.6819L3.26779 16.1448C2.92014 16.3987 2.43186 16.3225 2.17697 15.9749L0.150606 13.2043C0.0285355 13.0374 -0.0222458 12.8274 0.00900423 12.6223C0.0412308 12.4172 0.153535 12.2336 0.320528 12.1116L12.8576 2.97192C13.1321 2.77173 13.5041 2.77173 13.7785 2.97192L26.3127 12.1116C26.4807 12.2336 26.592 12.4172 26.6242 12.6223C26.6565 12.8274 26.6057 13.0364 26.4836 13.2043ZM15.5295 25.7961V18.1194H11.1076V25.7961H15.5295ZM21.1682 14.5403L13.3186 8.8186L5.46604 14.5422V25.7961H9.54514V17.3381C9.54514 16.9065 9.89475 16.5569 10.3264 16.5569H16.3108C16.7424 16.5569 17.092 16.9065 17.092 17.3381V25.7961H21.1682V14.5403ZM24.761 12.9133L13.3186 4.56958L1.87424 12.9133L2.97775 14.4221L12.8586 7.22095C13.133 7.02075 13.5051 7.02075 13.7785 7.22095L23.6584 14.4221L24.761 12.9133ZM50.0002 34.9104C50.0002 41.6751 44.4904 47.179 37.717 47.179C30.9436 47.179 25.4338 41.6751 25.4338 34.9104C25.4338 28.1458 30.9436 22.6418 37.717 22.6418C44.4904 22.6418 50.0002 28.1458 50.0002 34.9104ZM48.4377 34.9104C48.4377 29.0071 43.6281 24.2043 37.717 24.2043C31.8059 24.2043 26.9963 29.0071 26.9963 34.9104C26.9963 40.8137 31.8059 45.6165 37.717 45.6165C43.6281 45.6165 48.4377 40.8137 48.4377 34.9104ZM47.5256 34.9104C47.5256 40.3127 43.1252 44.7073 37.717 44.7073C32.3088 44.7073 27.9084 40.3127 27.9084 34.9104C27.9084 29.5081 32.3088 25.1135 37.717 25.1135C43.1252 25.1135 47.5256 29.5081 47.5256 34.9104ZM45.9631 34.9104C45.9631 30.3704 42.2639 26.676 37.717 26.676C33.1701 26.676 29.4709 30.3704 29.4709 34.9104C29.4709 39.4504 33.1701 43.1448 37.717 43.1448C42.2639 43.1448 45.9631 39.4504 45.9631 34.9104ZM37.7258 34.1292C36.7287 34.1184 36.1115 33.7122 36.1145 33.0686C36.1174 32.4514 36.6975 31.7961 37.7639 31.7961C38.5012 31.7961 39.1535 32.2903 39.3508 32.9973C39.467 33.4133 39.8977 33.6555 40.3127 33.5403C40.7287 33.4241 40.9709 32.9934 40.8557 32.5784C40.5383 31.4397 39.6174 30.5852 38.4983 30.3206V29.6633C38.4983 29.2317 38.1487 28.8821 37.717 28.8821C37.2854 28.8821 36.9358 29.2317 36.9358 29.6633V30.3235C35.4358 30.6565 34.5578 31.8752 34.552 33.0608C34.5451 34.3118 35.5305 35.6692 37.7092 35.6917C38.7072 35.7024 39.3254 36.1086 39.3225 36.7522C39.3195 37.3694 38.7395 38.0247 37.6701 38.0247C36.9328 38.0247 36.2815 37.5315 36.0871 36.8254C35.9719 36.4094 35.5422 36.1653 35.1262 36.2805C34.7102 36.3958 34.466 36.8254 34.5813 37.2415C34.8957 38.3811 35.8166 39.2366 36.9367 39.5012V40.1575C36.9367 40.5891 37.2864 40.9387 37.718 40.9387C38.1496 40.9387 38.4992 40.5891 38.4992 40.1575V39.4983C40.0012 39.1653 40.8791 37.9465 40.885 36.761C40.8908 35.509 39.9055 34.1516 37.7258 34.1292Z" fill="black"/>
</g>
<defs>
<clipPath id="clip0_23715_50582">
<rect width="50" height="50" fill="white"/>
</clipPath>
</defs>
</svg>
