<svg width="50" height="50" viewBox="0 0 50 50" fill="none" xmlns="http://www.w3.org/2000/svg">
<g clip-path="url(#clip0_23715_49687)">
<path d="M34.1836 50H21.4883C21.2148 50 21 49.7852 21 49.5117V45.9277C21 45.752 21.0977 45.5859 21.2539 45.498C22.1523 45.0195 22.9531 44.3945 23.6367 43.6426L23.998 43.9746L23.6367 43.6426L24.1543 43.0762C24.5547 42.6367 25.1309 42.3828 25.7266 42.3828C26.6348 42.3828 27.4355 42.959 27.7383 43.8086L27.8359 44.0918C27.9336 44.3848 28.1582 44.6289 28.4414 44.7559L32.543 46.6406C32.582 46.6602 32.6211 46.6895 32.6602 46.7187L34.5156 48.3398C34.623 48.4277 34.6816 48.5645 34.6816 48.7109V49.5117C34.6719 49.7852 34.457 50 34.1836 50ZM21.9766 49.0234H33.6953V48.9355L32.0645 47.5098L28.0312 45.6543C27.5039 45.4102 27.1035 44.9609 26.9082 44.4238L26.8105 44.1406C26.6543 43.6816 26.2148 43.3691 25.7266 43.3691C25.4043 43.3691 25.0918 43.5059 24.877 43.7402L24.3594 44.3066C23.666 45.0684 22.8652 45.7129 21.9766 46.2207V49.0234Z" fill="black"/>
<path d="M21.3809 46.4453L11.3125 43.9453H8.10938V42.9688H11.3711C11.4102 42.9688 11.4492 42.9688 11.4883 42.9785L21.625 45.4883L21.3809 46.4453Z" fill="black"/>
<path d="M19.6094 16.7217L20.5332 17.0381L18.0336 24.3363L17.1098 24.0199L19.6094 16.7217Z" fill="black"/>
<path d="M25.0006 15.0393C24.0728 15.0393 23.1744 14.6877 22.4908 14.0627L21.6607 13.301C21.0552 12.7444 20.6549 11.9924 20.5181 11.1916L19.9224 7.58813C19.8931 7.44164 19.942 7.28539 20.0494 7.1682L21.3385 5.81078L21.5533 4.11156C21.5826 3.89672 21.7486 3.72094 21.9635 3.69164L24.9224 3.22289C25.0982 3.1936 25.2838 3.27172 25.3912 3.4182L26.3092 4.6682L28.3892 5.58617C28.4478 5.61547 28.5064 5.65453 28.5455 5.6936L29.942 7.1682C30.0494 7.27563 30.0982 7.43188 30.0689 7.58813L29.4732 11.1916C29.3365 12.0022 28.9361 12.7444 28.3306 13.301L27.5006 14.0627C26.8267 14.6877 25.9283 15.0393 25.0006 15.0393ZM20.9283 7.65649L21.4849 11.0256C21.5826 11.6213 21.8853 12.1682 22.3248 12.5784L23.1549 13.3401C23.6627 13.8088 24.317 14.0627 25.0006 14.0627C25.6842 14.0627 26.3385 13.8088 26.8463 13.3401L27.6763 12.5784C28.1158 12.1682 28.4185 11.6213 28.5162 11.0256L29.0728 7.65649L27.9107 6.42602L25.8013 5.48852C25.7232 5.44945 25.6549 5.40063 25.606 5.33227L24.7857 4.21899L22.481 4.59008L22.2955 6.08422C22.2857 6.19164 22.2369 6.27953 22.1685 6.35766L20.9283 7.65649Z" fill="black"/>
<path d="M31.6406 6.73828H30.6641V4.10156L29.5605 1.95312C29.0039 1.72852 27.002 0.976562 25 0.976562C22.998 0.976562 20.9961 1.72852 20.4297 1.95312L19.3359 4.10156V6.73828H18.3594V3.98437C18.3594 3.90625 18.3789 3.82812 18.418 3.75977L19.6582 1.34766C19.707 1.25 19.7949 1.17188 19.8926 1.12305C19.9902 1.08398 22.4512 0 25.0098 0C27.5684 0 30.0195 1.08398 30.1172 1.12305C30.2148 1.17188 30.3027 1.25 30.3516 1.34766L31.5918 3.75977C31.6309 3.82812 31.6406 3.90625 31.6406 3.98437V6.73828Z" fill="black"/>
<path d="M37.248 50H36.1348V49.0234H37.248C39.0059 49.0234 40.7441 48.5644 42.2773 47.6855L42.707 47.4414C43.791 46.8262 44.7187 45.9473 45.4121 44.9121C45.7246 44.4336 45.9004 43.8867 45.9004 43.3105C45.9004 41.7187 44.6016 40.4199 43.0098 40.4199H33.2051C33.0195 40.4199 32.8535 40.3125 32.7656 40.1562L29.7578 34.1992L30.627 33.7598L33.498 39.4531H43C45.1289 39.4531 46.8672 41.1914 46.8672 43.3203C46.8672 44.082 46.6426 44.8242 46.2227 45.459C45.4512 46.6211 44.3965 47.5977 43.1855 48.291L42.7559 48.5352C41.0859 49.4922 39.1816 50 37.248 50V50Z" fill="black"/>
<path d="M47.6094 40.4297H43.6543C43.5762 40.4297 43.498 40.4102 43.4297 40.3809L34.5723 35.8691C34.4355 35.8008 34.3477 35.6836 34.3184 35.5371L32.4043 26.4648L30.6758 34.0918C30.627 34.3164 30.4316 34.4727 30.1973 34.4727H21.75V33.4961H29.8066L31.9453 24.0625C31.9941 23.8379 32.1895 23.6816 32.4238 23.6816C32.6582 23.6816 32.8535 23.8477 32.9023 24.0723L35.2168 35.1074L43.7715 39.4531H47.3555L49.0254 37.0508V36.2305H47.1895L44.8848 37.5879C44.7285 37.6855 44.5332 37.6758 44.377 37.5781L37.9707 33.5547C37.8535 33.4766 37.7656 33.3594 37.7461 33.2129L36.4277 24.541C36.291 23.8281 36.2227 23.1055 36.2227 22.3828C36.2227 22.0117 36.1641 21.6406 36.0566 21.2891C35.6953 20.0781 34.748 19.1309 33.5371 18.7598L32.1699 18.3398C32.1504 18.3398 32.1406 18.3301 32.1211 18.3203L26.75 16.0645C26.5645 15.9863 26.4473 15.8105 26.4473 15.6152V13.8574H27.4238V15.293L32.4727 17.4121L33.8203 17.8223C35.3437 18.291 36.5352 19.4824 36.9941 21.0059C37.1309 21.4551 37.1992 21.9141 37.1992 22.3828C37.1992 23.0469 37.2676 23.7207 37.3848 24.3652V24.3848L38.6641 32.8418L44.6309 36.5918L46.7988 35.3125C46.877 35.2637 46.9551 35.2441 47.043 35.2441H49.5137C49.7871 35.2441 50.002 35.459 50.002 35.7324V37.1973C50.002 37.2949 49.9727 37.3926 49.9141 37.4805L48.0098 40.2148C47.9219 40.3516 47.7754 40.4297 47.6094 40.4297V40.4297Z" fill="black"/>
<path d="M21.4844 50H12.7539C10.8203 50 8.91602 49.4922 7.24609 48.5352L6.81641 48.291C5.60547 47.5977 4.55078 46.6211 3.7793 45.459C3.35938 44.8242 3.13477 44.082 3.13477 43.3203C3.13477 42.1777 3.63281 41.1426 4.43359 40.4297H2.39258C2.23633 40.4297 2.08008 40.3516 1.99219 40.2246L0.0878906 37.4902C0.0292969 37.4023 0 37.3047 0 37.207V35.7422C0 35.4688 0.214844 35.2539 0.488281 35.2539H2.93945C3.02734 35.2539 3.11523 35.2734 3.18359 35.3223L5.35156 36.6016L11.3184 32.8516L12.5977 24.3945C12.5977 24.3848 12.5977 24.3848 12.5977 24.375C12.7246 23.7207 12.7832 23.0566 12.7832 22.3926C12.7832 21.9238 12.8516 21.4648 12.9883 21.0156C13.4473 19.4922 14.6387 18.3008 16.1621 17.832L17.5098 17.4219L22.5586 15.3027V13.8672H23.5352V15.625C23.5352 15.8203 23.418 15.9961 23.2324 16.0742L17.8613 18.3301C17.8418 18.3398 17.832 18.3398 17.8125 18.3496L16.4453 18.7695C15.2344 19.1406 14.2871 20.0879 13.9258 21.2988C13.8184 21.6504 13.7598 22.0215 13.7598 22.3926C13.7598 23.1152 13.6914 23.8477 13.5547 24.5508L12.2363 33.2227C12.2168 33.3594 12.1289 33.4863 12.0117 33.5645L5.60547 37.5879C5.44922 37.6855 5.25391 37.6855 5.09766 37.5977L2.8125 36.2305H0.976562V37.0508L2.64648 39.4531H6.23047L14.7852 35.1074L17.0996 24.0723C17.1484 23.8477 17.3437 23.6816 17.5781 23.6816C17.8027 23.6816 18.0078 23.8379 18.0566 24.0625L20.2832 33.8672C20.3125 33.9746 20.293 34.0918 20.2441 34.1992L17.2363 40.1563C17.1484 40.3223 16.9824 40.4199 16.7969 40.4199H6.99219C5.40039 40.4297 4.10156 41.7285 4.10156 43.3203C4.10156 43.8867 4.26758 44.4434 4.58984 44.9219C5.2832 45.957 6.21094 46.8359 7.29492 47.4512L7.72461 47.6953C9.24805 48.5645 10.9863 49.0332 12.7539 49.0332H21.4844V50ZM8.38867 39.4531H16.4941L19.2871 33.9258L17.5977 26.4648L15.6934 35.5371C15.6641 35.6836 15.5664 35.8008 15.4395 35.8691L8.38867 39.4531Z" fill="black"/>
<path d="M29.5234 46.2207L29.2891 45.2734L38.5176 42.9883C38.5566 42.9785 38.5957 42.9785 38.6348 42.9785H41.8965V43.9551H38.6934L29.5234 46.2207Z" fill="black"/>
<path d="M30.3906 16.7148L32.8902 24.0131L31.9664 24.3295L29.4668 17.0313L30.3906 16.7148Z" fill="black"/>
<path d="M3.15039 38.2227L2.87695 37.5195L1.86133 37.2363C1.8125 37.2266 1.76367 37.1973 1.71484 37.168L0.210938 36.1426L0.767578 35.3418L2.19336 36.3281L3.36523 36.6504C3.51172 36.6895 3.63867 36.7969 3.6875 36.9434L4.04883 37.8711L3.15039 38.2227Z" fill="black"/>
<path d="M46.8457 38.2227L45.9375 37.8711L46.2988 36.9434C46.3574 36.7969 46.4746 36.6895 46.6211 36.6504L47.793 36.3281L49.2285 35.3418L49.7852 36.1426L48.2812 37.1777C48.2324 37.207 48.1836 37.2266 48.1348 37.2461L47.1191 37.5293L46.8457 38.2227Z" fill="black"/>
<path d="M23.1133 9.36523C22.9863 9.36523 22.8691 9.35547 22.7422 9.32617C21.9414 9.14063 21.541 8.38867 21.4922 8.30078L22.3613 7.86133L21.9219 8.08594L22.3516 7.86133C22.4102 7.97852 22.6445 8.31055 22.957 8.37891C23.1816 8.42773 23.4551 8.34961 23.748 8.125L24.334 8.90625C23.9336 9.20898 23.5234 9.36523 23.1133 9.36523V9.36523Z" fill="black"/>
<path d="M26.8809 9.36523C26.4707 9.36523 26.0605 9.20898 25.6406 8.90625L26.2266 8.125C26.5293 8.34961 26.793 8.4375 27.0273 8.37891C27.3984 8.29102 27.623 7.87109 27.6328 7.86133L28.502 8.30078C28.4629 8.38867 28.0625 9.13086 27.252 9.32617C27.125 9.35547 26.998 9.36523 26.8809 9.36523V9.36523Z" fill="black"/>
<path d="M24.0234 11.5234H25.9766V12.5H24.0234V11.5234Z" fill="black"/>
<path d="M17.3984 21.124L18.0653 24.0662L17.1132 24.282L16.4463 21.3398L17.3984 21.124Z" fill="black"/>
<path d="M32.5859 21.125L33.5381 21.3408L32.8712 24.283L31.9191 24.0671L32.5859 21.125Z" fill="black"/>
<path d="M25.002 23.877C23.5567 23.877 22.4336 23.3984 21.6426 22.4512C19.8555 20.3125 20.5098 16.5527 20.5391 16.3965L21.4961 16.5723C21.4961 16.6309 20.9004 20.0488 22.3946 21.8359C23.0001 22.5586 23.8594 22.9102 25.0118 22.9102C26.1641 22.9102 27.0235 22.5586 27.629 21.8359C29.1231 20.0488 28.5274 16.6113 28.5176 16.5723L29.4747 16.3965C29.504 16.5527 30.1583 20.3125 28.3711 22.4512C27.5704 23.3984 26.4473 23.877 25.002 23.877Z" fill="black"/>
<path d="M20.7823 11.2012C19.796 10.8594 19.044 10.0098 18.8292 8.98437L18.3702 6.83594C18.3311 6.65039 18.3995 6.46484 18.546 6.34766C18.6925 6.23047 18.8976 6.21094 19.0636 6.28906L20.6261 7.05078L20.1964 7.92969L19.5323 7.61719L19.7862 8.78906C19.9327 9.48242 20.4405 10.0488 21.1046 10.2832L20.7823 11.2012Z" fill="black"/>
<path d="M29.2207 11.2012L28.8984 10.2832C29.5625 10.0488 30.0703 9.47266 30.2168 8.78906L30.4707 7.61719L29.8066 7.93945L29.377 7.06055L30.9395 6.29883C31.1055 6.2207 31.3105 6.24023 31.457 6.35742C31.6035 6.47461 31.6719 6.66016 31.6328 6.8457L31.1738 8.99414C30.9492 10.0098 30.207 10.8594 29.2207 11.2012V11.2012Z" fill="black"/>
</g>
<defs>
<clipPath id="clip0_23715_49687">
<rect width="50" height="50" fill="white"/>
</clipPath>
</defs>
</svg>
