<svg width="50" height="50" viewBox="0 0 50 50" fill="none" xmlns="http://www.w3.org/2000/svg">
<g clip-path="url(#clip0_23715_49351)">
<path d="M43.457 29.6096C45.8633 26.0862 46.9883 21.9612 46.7148 17.6643C46.0977 8.25804 38.543 0.679919 29.1289 0.0471065C23.8945 -0.312268 18.8945 1.43773 15.0508 4.96117C11.2461 8.43773 9.07422 13.1643 8.90234 18.2971L3.34766 27.8284C3.20703 28.0705 3.20703 28.3674 3.34766 28.6096C3.48828 28.8518 3.74609 29.0002 4.02734 29.0002H8.89453V37.8987C8.89453 39.6643 10.332 41.1018 12.0977 41.1018H16.1602V50.0002H17.7227V41.1018H20.9727V39.5393H12.0898C11.1836 39.5393 10.4492 38.8049 10.4492 37.8987V28.219C10.4492 27.7893 10.0977 27.4377 9.66797 27.4377H5.37891L10.2773 19.0393C10.3867 18.9065 10.457 18.7346 10.457 18.5549C10.5586 13.7659 12.5664 9.34398 16.1055 6.10961C19.6367 2.88304 24.2227 1.28148 29.0273 1.60179C37.6602 2.18773 44.5898 9.13304 45.1523 17.7659C45.4102 21.7034 44.3789 25.4924 42.168 28.7268C40.043 31.8362 38.6211 34.758 37.8164 37.6643C35.9883 44.2737 36.3086 49.8205 36.3164 50.0471L37.8789 49.9534C37.8789 49.8987 37.5664 44.4299 39.3242 38.0784C40.082 35.3362 41.4336 32.5705 43.4648 29.6096H43.457Z" fill="black"/>
<path d="M40.625 15.625C40.625 10.0234 35.0156 5.46875 28.125 5.46875C21.2344 5.46875 15.625 10.0234 15.625 15.625C15.625 21.8906 22.6641 26.8984 30.6406 25.5703L35.5859 28.0469C35.6953 28.1016 35.8125 28.1328 35.9375 28.1328C36.1328 28.1328 36.3281 28.0625 36.4766 27.9219C36.7109 27.6953 36.7891 27.3437 36.6562 27.0469L35.3203 23.9375C38.6562 22.0312 40.625 18.9766 40.625 15.6406V15.625ZM33.9687 22.875C33.6016 23.0625 33.4375 23.5 33.6016 23.8828L34.375 25.6953L31.1016 24.0625C30.9922 24.0078 30.875 23.9766 30.75 23.9766C30.7031 23.9766 30.6563 23.9766 30.6094 23.9922C23.5 25.2969 17.1797 21.0078 17.1797 15.6328C17.1797 10.8906 22.0859 7.03906 28.1172 7.03906C34.1484 7.03906 39.0547 10.8906 39.0547 15.6328C39.0547 18.5781 37.1484 21.2891 33.9609 22.8828L33.9687 22.875Z" fill="black"/>
</g>
<defs>
<clipPath id="clip0_23715_49351">
<rect width="50" height="50" fill="white"/>
</clipPath>
</defs>
</svg>
