<svg width="50" height="50" viewBox="0 0 50 50" fill="none" xmlns="http://www.w3.org/2000/svg">
<path fill-rule="evenodd" clip-rule="evenodd" d="M46.0498 20.1832H12.7322L44.7341 10.9127C44.9828 10.8406 45.1926 10.6724 45.3177 10.4458C45.4429 10.2188 45.4726 9.95178 45.4005 9.70306L43.7259 3.92189C43.0568 1.61285 40.9068 0 38.4974 0C37.9897 0 37.4839 0.0720978 36.9933 0.214004L6.94684 8.918C5.55714 9.32045 4.40549 10.2444 3.7032 11.5189C3.0013 12.7934 2.8365 14.2609 3.23895 15.6502L4.87507 21.2982V44.5652C4.87507 47.562 7.31305 50 10.3095 50H22.0443C22.5837 50 23.0208 49.5628 23.0208 49.0234C23.0208 48.484 22.5837 48.0469 22.0443 48.0469H10.3099C8.38994 48.0469 6.8282 46.4851 6.8282 44.5652V31.2756H11.8312H11.8335H11.8354H19.4831H19.4854H19.4877H27.1354H27.1377H27.1399H34.7876H34.7899H34.7918H45.0732V44.5652C45.0732 46.4851 43.5115 48.0469 41.5915 48.0469H29.8568C29.3177 48.0469 28.8802 48.484 28.8802 49.0234C28.8802 49.5628 29.3177 50 29.8568 50H41.5915C44.5884 50 47.0263 47.562 47.0263 44.5652V21.1597C47.0263 20.6203 46.5892 20.1832 46.0498 20.1832V20.1832ZM28.8298 29.3224L32.9791 22.1363H38.3757L34.2269 29.3224H28.8298ZM21.1776 29.3224L25.3268 22.1363H30.7235L26.5746 29.3224H21.1776ZM13.5257 29.3224L17.6745 22.1363H23.0716L18.9223 29.3224H13.5257ZM17.1565 16.6801L10.2084 10.0067L15.4143 8.49876C15.4509 8.55217 15.4937 8.60252 15.5425 8.64944L22.4906 15.3229L17.2847 16.8308C17.248 16.7774 17.2049 16.7267 17.1565 16.6801ZM30.2424 4.3911L37.1905 11.0645L31.9846 12.5725C31.948 12.5191 31.9053 12.4683 31.8564 12.4218L24.9083 5.74837L30.1143 4.24042C30.1509 4.29382 30.1936 4.34418 30.2424 4.3911ZM22.8923 6.52046L29.8404 13.1935L24.6344 14.7018C24.5978 14.6484 24.5551 14.5977 24.5063 14.5512L17.5582 7.87773L22.7641 6.36978C22.8011 6.42281 22.8438 6.47354 22.8923 6.52046ZM37.5369 2.09007C37.8505 1.99928 38.1736 1.95312 38.4974 1.95312C40.0428 1.95312 41.421 2.98615 41.8498 4.46548L43.2528 9.30824L39.3348 10.4431C39.2978 10.3897 39.255 10.3394 39.2062 10.2924L32.2585 3.61938L37.5369 2.09007ZM5.41409 12.4611C5.86423 11.6436 6.60161 11.0516 7.49043 10.7941L8.06416 10.6277C8.10116 10.6812 8.14389 10.7319 8.19234 10.7784L15.1404 17.4519L6.51806 19.9497L5.11502 15.107C4.85753 14.2185 4.96396 13.279 5.41409 12.4611ZM6.8282 22.1363H15.4193L11.2704 29.3224H6.8282V22.1363ZM36.4821 29.3224L40.631 22.1363H45.0732V29.3224H36.4821Z" fill="black"/>
<path fill-rule="evenodd" clip-rule="evenodd" d="M32.7046 39.5617C32.7046 39.2126 32.5185 38.8903 32.2164 38.716L23.6367 33.7626C23.3346 33.5883 22.9623 33.5883 22.6602 33.7626C22.358 33.9369 22.1719 34.2593 22.1719 34.6083V44.5151C22.1719 44.8637 22.358 45.1861 22.6602 45.3604C22.8112 45.4478 22.9798 45.4916 23.1484 45.4916C23.317 45.4916 23.4857 45.4478 23.6367 45.3604L32.2164 40.4074C32.5185 40.2331 32.7046 39.9107 32.7046 39.5617ZM24.125 42.8236V36.2997L29.7749 39.5617L24.125 42.8236Z" fill="black"/>
<path fill-rule="evenodd" clip-rule="evenodd" d="M25.9531 48.0469C25.4153 48.0469 24.9766 48.4856 24.9766 49.0234C24.9766 49.5613 25.4153 50 25.9531 50C26.4914 50 26.9297 49.5613 26.9297 49.0234C26.9297 48.4856 26.4914 48.0469 25.9531 48.0469Z" fill="black"/>
</svg>
