<svg width="51" height="51" viewBox="0 0 51 51" fill="none" xmlns="http://www.w3.org/2000/svg">
<path d="M30.7967 27.1522C28.5814 27.6417 26.8688 29.5478 26.4335 32.0082C26.2558 33.013 26.1466 33.8832 26.3612 35.9368C26.4846 37.1173 26.5618 38.6875 25.8426 38.8498C25.4817 38.773 25.0762 38.3333 25.3265 35.9368C25.5413 33.8832 25.4319 33.013 25.2542 32.0082C24.8188 29.5478 23.1062 27.6417 20.891 27.1522C17.8881 26.4892 15.6003 28.4878 15.5044 28.5733C15.4089 28.6597 15.3514 28.7804 15.3445 28.909C15.3375 29.0377 15.3817 29.1638 15.4674 29.26C15.553 29.3563 15.6733 29.4147 15.8018 29.4227C15.9304 29.4306 16.0569 29.3875 16.1538 29.3026C16.1738 29.285 18.1595 27.5489 20.6803 28.1058C22.5085 28.5098 23.9263 30.1083 24.2925 32.1781C24.43 32.9553 24.5723 33.7591 24.3553 35.835C24.3396 35.9847 24.3213 36.1616 24.3053 36.3553C24.2509 36.353 24.1946 36.3521 24.1366 36.3537C23.5261 36.3712 23.0429 36.6414 22.7762 37.1144C22.4168 37.7517 22.4982 38.6145 22.9655 39.1212C23.108 39.2732 23.2811 39.393 23.4735 39.4729C23.6658 39.5527 23.873 39.5906 24.0811 39.5841C24.3663 39.5792 24.6485 39.5263 24.9161 39.4279C25.1524 39.6563 25.4593 39.7975 25.7865 39.8283C25.8246 39.8328 25.8631 39.8328 25.9012 39.8283C26.0954 39.8107 26.284 39.7538 26.4555 39.6609C26.627 39.5679 26.7777 39.441 26.8984 39.2878C27.1812 39.4061 27.4837 39.4701 27.7901 39.4766C27.9916 39.4824 28.1919 39.4454 28.378 39.3679C28.564 39.2905 28.7315 39.1744 28.8693 39.0274C29.3254 38.5268 29.379 37.6758 28.9914 37.09C28.578 36.465 27.9186 36.3166 27.3815 36.3432C27.3657 36.1539 27.3478 35.981 27.3327 35.8341C27.1157 33.7583 27.258 32.9545 27.3955 32.1773C27.7617 30.107 29.1795 28.5087 31.0077 28.105C33.5129 27.5513 35.5147 29.2847 35.535 29.3026C35.6318 29.3886 35.7588 29.4326 35.8881 29.425C36.0173 29.4174 36.1383 29.3587 36.2243 29.2619C36.3103 29.1651 36.3544 29.038 36.3467 28.9088C36.3391 28.7795 36.2804 28.6585 36.1836 28.5725C36.0874 28.4884 33.8006 26.4888 30.7967 27.1522V27.1522ZM23.6834 38.4591C23.4844 38.2432 23.4938 37.8299 23.6269 37.594C23.759 37.3596 24.0392 37.3189 24.2685 37.3303C24.2686 37.744 24.3229 38.1559 24.43 38.5555C24.0888 38.6447 23.8261 38.6138 23.6834 38.4591V38.4591ZM27.4193 37.3175C27.6648 37.2999 27.987 37.3422 28.177 37.6295C28.3191 37.8444 28.3051 38.1975 28.1478 38.3705C27.9967 38.5365 27.691 38.542 27.2999 38.3968C27.3781 38.0425 27.4182 37.6807 27.4193 37.3178V37.3175Z" fill="black"/>
<path d="M29.1339 41.8951C28.9865 41.9537 28.6416 42.0904 28.4686 42.0283C27.3207 41.6188 26.4695 41.8445 25.9583 42.1052C25.5595 41.8945 25.1172 41.7795 24.6664 41.7693C24.2155 41.7591 23.7684 41.8541 23.3606 42.0466C23.1289 42.1568 22.8785 42.0867 22.5741 41.9477C22.5157 41.9211 22.4527 41.9062 22.3886 41.9039C22.3245 41.9016 22.2606 41.912 22.2005 41.9344C22.0791 41.9797 21.9807 42.0714 21.9269 42.1892C21.8731 42.3071 21.8683 42.4414 21.9136 42.5628C21.9589 42.6842 22.0506 42.7826 22.1684 42.8364C22.4204 42.9515 23.0896 43.2571 23.7797 42.9292C24.7834 42.4524 25.6388 43.0422 25.672 43.0659C25.7532 43.1248 25.8506 43.1573 25.9509 43.159C26.0512 43.1607 26.1496 43.1314 26.2327 43.0752C26.5244 42.8776 27.1604 42.5985 28.1409 42.9482C28.5975 43.111 29.061 42.9746 29.494 42.8031C29.6144 42.7554 29.711 42.6618 29.7624 42.5429C29.8138 42.424 29.8159 42.2895 29.7682 42.1691C29.7205 42.0487 29.6269 41.9521 29.508 41.9007C29.3891 41.8493 29.2547 41.8472 29.1342 41.8949L29.1339 41.8951Z" fill="black"/>
<path d="M27.5179 43.6975C25.9235 44.922 24.235 43.7439 24.1579 43.6888C24.0531 43.6127 23.9224 43.5814 23.7945 43.6017C23.6666 43.622 23.552 43.6923 23.4759 43.7971C23.3999 43.9019 23.3685 44.0327 23.3889 44.1606C23.4092 44.2885 23.4795 44.403 23.5843 44.4791C24.2745 44.9565 25.0922 45.2155 25.9314 45.2228C26.7222 45.2249 27.4907 44.9604 28.1127 44.4719C28.1644 44.4331 28.2079 44.3845 28.2407 44.3288C28.2735 44.2732 28.2949 44.2115 28.3037 44.1475C28.3125 44.0835 28.3085 44.0183 28.292 43.9559C28.2754 43.8934 28.2466 43.8349 28.2072 43.7836C28.1679 43.7324 28.1187 43.6894 28.0626 43.6573C28.0066 43.6252 27.9447 43.6046 27.8806 43.5965C27.8164 43.5885 27.7514 43.5933 27.6891 43.6106C27.6268 43.628 27.5686 43.6575 27.5179 43.6975Z" fill="black"/>
<path d="M40.9706 27.744C41.1812 26.7723 41.582 24.5446 41.4616 22.1022C41.2467 17.7515 39.4579 14.8652 36.2876 13.7553C35.4255 13.4587 34.5187 13.3134 33.6072 13.3256C33.5804 12.4293 33.3435 10.6148 31.9847 9.1244C31.2788 8.35008 30.3728 7.77752 29.2796 7.40565C29.3016 6.80874 29.2557 6.21126 29.1429 5.62469C28.8304 4.03084 28.0262 2.81815 26.8166 2.11756C26.5268 1.96467 26.204 1.88477 25.8764 1.88477C25.5487 1.88477 25.226 1.96467 24.9362 2.11756C23.7292 2.81659 22.9124 4.02664 22.5737 5.61688C22.4519 6.1971 22.395 6.78903 22.4039 7.38182C21.3242 7.74383 20.4269 8.30584 19.7253 9.06883C18.3461 10.5688 18.1072 12.4175 18.0804 13.3255C17.2102 13.3113 16.3438 13.4429 15.517 13.7149C12.285 14.7916 10.4563 17.6748 10.2284 22.0528C10.1 24.5138 10.5047 26.7652 10.7167 27.7434C10.4024 27.8464 10.1218 28.0324 9.90454 28.2817C9.5482 28.6945 9.07183 29.6453 9.88306 31.3761C10.7885 33.4202 12.9759 39.0851 12.2683 40.8097C11.7761 42.0092 11.8467 43.0977 12.4572 43.7217C12.59 43.8588 12.7491 43.9678 12.925 44.0421C13.1009 44.1165 13.2899 44.1546 13.4808 44.1544C13.6681 44.1538 13.8537 44.1187 14.0283 44.0509C14.6085 43.8274 15.0613 43.2962 15.3459 42.5465C15.9604 43.9655 16.7926 45.3687 17.9196 46.5461C19.9011 48.6153 22.4805 49.6895 25.5858 49.7384H25.6011C30.3652 49.6636 33.9817 47.1316 36.1235 42.3991C36.4192 43.1883 36.9047 43.7513 37.5306 43.9924C37.8138 44.109 38.1253 44.1388 38.4255 44.0779C38.7257 44.0171 39.001 43.8683 39.2164 43.6506C39.8201 43.0335 39.8959 41.9715 39.4191 40.8096C38.7115 39.0853 40.8989 33.4204 41.8043 31.376C42.6156 29.6452 42.1392 28.6944 41.7829 28.2816C41.5655 28.0325 41.2848 27.8468 40.9706 27.744V27.744ZM25.4251 2.96297C25.5664 2.89788 25.7202 2.86417 25.8758 2.86417C26.0315 2.86417 26.1853 2.89788 26.3266 2.96297C27.2922 3.52225 27.9154 4.47215 28.1789 5.78631C28.2663 6.23193 28.3094 6.68512 28.3075 7.13924C27.4933 6.97114 26.6638 6.88931 25.8325 6.8951H25.8241C25.0047 6.88343 24.1863 6.95836 23.3827 7.11864C23.4063 6.09578 23.6773 3.97518 25.4251 2.96297V2.96297ZM20.4437 9.73055C21.5933 8.48055 23.4051 7.85496 25.8207 7.87244H25.8287C28.2736 7.87244 30.0994 8.51239 31.2555 9.7744C32.4212 11.047 32.6097 12.6555 32.6307 13.3907C31.6576 13.5102 29.5979 13.5323 26.6737 13.4548C26.0873 13.439 25.4823 13.443 24.8756 13.4665C23.2899 13.5277 20.4339 13.5583 19.0657 13.3917L19.0559 13.3907C19.0741 12.6485 19.2602 11.0177 20.4437 9.73016V9.73055ZM11.2043 22.0841C11.4173 18.0966 12.9719 15.593 15.8251 14.6427C16.8319 14.3176 17.8985 14.2217 18.947 14.3618C20.3728 14.5353 23.2954 14.5056 24.9127 14.443C25.4987 14.4204 26.0818 14.4166 26.6472 14.4316C29.6668 14.5119 31.7216 14.4877 32.7549 14.3599C33.8352 14.219 34.9334 14.3278 35.9651 14.6779C38.7639 15.6578 40.2847 18.1652 40.4853 22.1305C40.6085 24.5649 40.1716 26.8361 39.9861 27.6698C39.8923 27.6851 39.7997 27.7064 39.7087 27.7338C39.3319 27.8411 38.9956 28.0583 38.7428 28.3576C38.4899 28.6569 38.3319 29.0247 38.289 29.4141C38.286 29.5366 38.2388 29.6538 38.1561 29.7442C38.1127 29.7721 38.0603 29.7824 38.0096 29.7729C37.9838 29.7684 37.9592 29.7585 37.9375 29.7437C37.9158 29.7289 37.8976 29.7097 37.8839 29.6873C37.8658 29.6593 37.8538 29.6279 37.8485 29.5949C37.8433 29.562 37.845 29.5284 37.8536 29.4962C38.3119 27.773 39.1763 23.5509 37.3105 21.5641C36.4263 20.6228 35.0853 20.3239 33.3255 20.6755C29.3396 21.4719 22.3468 21.4719 18.3609 20.6755C16.601 20.3239 15.2599 20.6226 14.3759 21.5641C12.5101 23.5509 13.3746 27.773 13.8329 29.4962C13.8414 29.5284 13.8431 29.562 13.8379 29.5949C13.8327 29.6279 13.8206 29.6593 13.8025 29.6873C13.7889 29.7097 13.7706 29.7289 13.749 29.7437C13.7273 29.7585 13.7027 29.7684 13.6769 29.7729C13.6262 29.7824 13.5738 29.7721 13.5304 29.7442C13.4477 29.6538 13.4005 29.5365 13.3975 29.414C13.3546 29.0246 13.1966 28.6568 12.9437 28.3575C12.6909 28.0583 12.3546 27.8411 11.9778 27.7338C11.8868 27.7064 11.7942 27.685 11.7004 27.6698C11.5144 26.8299 11.0732 24.5352 11.2043 22.0832V22.0841ZM40.9181 30.967C40.9167 30.9702 40.9151 30.9734 40.9136 30.9767C40.5636 31.7663 37.5224 38.761 38.5156 41.1818C38.8971 42.1117 38.7671 42.715 38.5183 42.9689C38.4363 43.0504 38.3314 43.1048 38.2177 43.1251C38.1039 43.1453 37.9866 43.1304 37.8816 43.0822C37.3974 42.8958 36.8616 42.1811 36.7844 40.7397C37.6174 38.2777 38.0782 35.705 38.1516 33.1069C38.1519 33.0428 38.1395 32.9793 38.1152 32.9199C38.0908 32.8606 38.0551 32.8066 38.0099 32.7611C37.9647 32.7156 37.9111 32.6794 37.8519 32.6547C37.7928 32.6299 37.7293 32.617 37.6652 32.6168H37.6633C37.5342 32.6168 37.4102 32.668 37.3187 32.7591C37.2272 32.8503 37.1755 32.974 37.1751 33.1032C37.1751 33.1423 37.1434 37.0493 35.6753 40.9352C33.7418 46.0524 30.3499 48.6858 25.5934 48.7634C22.7636 48.7172 20.4199 47.7454 18.6272 45.8749C16.3994 43.5501 15.3989 40.2206 14.952 37.8361C14.6566 36.2811 14.5093 34.7016 14.512 33.1187C14.5155 32.9893 14.4674 32.8638 14.3784 32.7698C14.2893 32.6758 14.1666 32.621 14.0372 32.6175C14.0327 32.6175 14.0282 32.6175 14.0236 32.6175C13.8964 32.6174 13.7742 32.667 13.683 32.7556C13.5918 32.8443 13.5388 32.965 13.5353 33.0922C13.5277 34.7365 13.6791 36.3777 13.9873 37.9929C14.164 38.9485 14.401 39.892 14.6968 40.8178C14.6235 42.2678 14.1051 42.976 13.6766 43.1414C13.5898 43.1806 13.493 43.1919 13.3996 43.1739C13.3061 43.1558 13.2205 43.1092 13.1545 43.0405C12.9122 42.7928 12.771 42.1574 13.1711 41.1823C14.1643 38.7619 11.1231 31.7672 10.7731 30.9772C10.7716 30.9739 10.7701 30.9707 10.7686 30.9675C10.3449 30.0656 10.2992 29.3199 10.6431 28.9217C10.8767 28.6512 11.2995 28.5496 11.696 28.669C11.891 28.7238 12.0651 28.8359 12.1957 28.9907C12.3263 29.1456 12.4074 29.336 12.4285 29.5375C12.4983 30.0882 12.7482 30.3795 12.946 30.5269C13.0749 30.6213 13.2216 30.6884 13.3773 30.724C13.533 30.7596 13.6944 30.763 13.8514 30.7339C14.0085 30.7049 14.1579 30.6441 14.2906 30.5551C14.4233 30.4662 14.5364 30.3511 14.6229 30.2169C14.715 30.0744 14.7763 29.9142 14.8029 29.7467C14.8295 29.5791 14.8208 29.4078 14.7773 29.2438C14.4525 28.0223 13.5148 23.9069 15.0884 22.2313C15.7261 21.5524 16.7627 21.3508 18.1703 21.6319C22.2579 22.4488 29.43 22.4488 33.5175 21.6319C34.9251 21.3507 35.9617 21.5524 36.5994 22.2313C38.173 23.9069 37.2353 28.0223 36.9105 29.2437C36.867 29.4077 36.8581 29.579 36.8846 29.7466C36.9111 29.9141 36.9723 30.0743 37.0643 30.2169C37.151 30.3508 37.2642 30.4657 37.3968 30.5543C37.5295 30.643 37.6789 30.7036 37.8358 30.7325C37.9927 30.7614 38.1539 30.7579 38.3095 30.7222C38.465 30.6866 38.6116 30.6195 38.7403 30.5252C38.9377 30.3777 39.1876 30.0864 39.2579 29.5358C39.279 29.3344 39.36 29.1439 39.4906 28.989C39.6212 28.8342 39.7953 28.7221 39.9903 28.6673C40.3864 28.5479 40.8097 28.6493 41.0432 28.9199C41.3876 29.3184 41.3417 30.0642 40.9181 30.9661V30.967Z" fill="black"/>
<path d="M35.6417 31.461C35.5564 31.3885 33.5253 29.6888 31.3546 30.1974C30.0281 30.5086 28.9731 31.5582 28.2192 33.3171C28.1874 33.3913 28.1744 33.4723 28.1816 33.5528C28.1888 33.6333 28.2158 33.7107 28.2602 33.7781C28.3047 33.8456 28.3652 33.901 28.4363 33.9393C28.5074 33.9776 28.5869 33.9977 28.6677 33.9977H28.6733C29.0483 33.996 29.3732 33.8169 29.6108 33.6852C29.6617 33.6571 29.7304 33.6191 29.7813 33.5948C30.67 33.9747 31.4495 34.1188 32.1206 34.1188C32.8869 34.1258 33.6402 33.9212 34.2976 33.5275C34.8951 33.1688 35.3949 32.6683 35.7527 32.0702L35.7547 32.0666L35.7561 32.0642C35.8089 31.9657 35.8264 31.8521 35.8056 31.7424C35.7847 31.6326 35.7269 31.5333 35.6417 31.461V31.461ZM33.7932 32.6908C32.7689 33.3088 31.5178 33.2976 30.0753 32.6577C29.9573 32.6053 29.8268 32.5875 29.6991 32.6063C30.2264 31.8092 30.8539 31.3193 31.5741 31.1492C32.8045 30.8583 34.057 31.5446 34.6525 31.9438C34.4103 32.2396 34.1198 32.4921 33.7932 32.6908V32.6908Z" fill="black"/>
<path d="M22.0778 33.6854C22.3154 33.8167 22.6403 33.9959 23.0153 33.9979H23.0208C23.1015 33.9979 23.1811 33.9778 23.2522 33.9395C23.3233 33.9012 23.3838 33.8458 23.4282 33.7783C23.4727 33.7109 23.4997 33.6334 23.5069 33.553C23.514 33.4725 23.5011 33.3915 23.4693 33.3173C22.7153 31.5584 21.6603 30.5088 20.3337 30.1975C18.163 29.6883 16.1324 31.389 16.0466 31.4612C15.9617 31.5335 15.9041 31.6328 15.8835 31.7424C15.8628 31.852 15.8803 31.9654 15.933 32.0637L15.9347 32.0668L15.936 32.0691C16.2937 32.6676 16.7936 33.1686 17.3913 33.5277C18.0485 33.9216 18.8018 34.1264 19.568 34.1195C20.239 34.1195 21.0185 33.9754 21.9074 33.5955C21.9582 33.6193 22.0269 33.6573 22.0778 33.6854V33.6854ZM21.6136 32.6579C18.9867 33.8226 17.5617 32.594 17.0336 31.945C17.6249 31.546 18.8732 30.8579 20.1113 31.1485C20.8329 31.3178 21.4616 31.8078 21.9903 32.6065C21.8624 32.5876 21.7318 32.6054 21.6136 32.6579V32.6579Z" fill="black"/>
</svg>
