<svg width="50" height="50" viewBox="0 0 50 50" fill="none" xmlns="http://www.w3.org/2000/svg">
<path d="M23.6484 29.5009C24.4737 27.9988 25.7102 25.2856 26.4876 21.4346" stroke="black" stroke-width="1.46502" stroke-miterlimit="10" stroke-linecap="round" stroke-linejoin="round"/>
<path d="M7.22656 6.63227C8.59196 4.9602 11.1342 2.93848 15.4443 2.93848C22.7977 2.93848 27.2103 8.08556 27.2103 13.9691C27.2103 15.4204 27.1342 16.7829 27.0004 18.0545" stroke="black" stroke-width="1.46502" stroke-miterlimit="10" stroke-linecap="round" stroke-linejoin="round"/>
<path d="M9.51407 8.18431L2.99426 3.97982C1.92284 3.28931 0.541823 4.20152 0.756692 5.45851L2.12336 13.4498" stroke="black" stroke-width="1.46502" stroke-miterlimit="10" stroke-linecap="round" stroke-linejoin="round"/>
<path d="M7.14062 39.4551C7.29035 40.4124 7.47211 41.0781 7.71569 41.8884C8.39448 44.1504 10.3644 45.7834 12.7124 46.0324C16.7968 46.4651 23.2654 47.0609 27.9466 47.0609C32.6268 47.0609 39.0953 46.4651 43.1798 46.0324C45.5277 45.7834 47.4977 44.1504 48.1765 41.8884C48.4155 41.0912 48.5749 40.2778 48.6538 39.4576" stroke="black" stroke-width="1.46502" stroke-miterlimit="10" stroke-linecap="round" stroke-linejoin="round"/>
<path d="M17.7344 9.85449C19.6975 11.2004 21.3276 13.5502 21.3276 17.6464C21.3276 21.6205 20.5316 23.4733 19.8958 25.913C19.3937 27.839 20.9154 29.6928 22.9029 29.5785C24.5602 29.4853 26.2859 29.4124 27.9465 29.4124C32.6277 29.4124 39.0963 30.0082 43.1797 30.4419C45.5286 30.6909 47.4976 32.3239 48.1764 34.5849C48.4128 35.3731 48.571 36.1779 48.6511 36.9885" stroke="black" stroke-width="1.46502" stroke-miterlimit="10" stroke-linecap="round" stroke-linejoin="round"/>
<path d="M6.94995 37.2317C6.84525 30.4081 11.0496 27.999 11.5384 22.8629C11.7318 20.8314 9.43461 19.5217 7.77426 20.7073C4.82665 22.8128 0.734375 20.7037 0.734375 17.0839V16.9686C0.735352 15.9265 1.10063 14.9186 1.7677 14.1187C3.96639 11.4767 7.57424 8.08673 11.0295 8.08673C11.0295 8.08673 12.641 7.97148 14.5885 8.46959" stroke="black" stroke-width="1.46502" stroke-miterlimit="10" stroke-linecap="round" stroke-linejoin="round"/>
<path d="M43.812 39.7074H47.7988C48.6111 39.7074 49.2696 39.0491 49.2696 38.2365C49.2696 37.4249 48.6114 36.7666 47.7988 36.7666H8.08806C7.27508 36.7666 6.61719 37.4257 6.61719 38.2365C6.61719 39.0491 7.27644 39.7074 8.08806 39.7074H40.3936" stroke="black" stroke-width="1.46502" stroke-miterlimit="10" stroke-linecap="round" stroke-linejoin="round"/>
<path d="M8.1875 12.4985L8.75241 13.5254" stroke="black" stroke-width="1.46502" stroke-miterlimit="10" stroke-linecap="round" stroke-linejoin="round"/>
</svg>
