<svg width="50" height="50" viewBox="0 0 50 50" fill="none" xmlns="http://www.w3.org/2000/svg">
<path d="M47.5078 2.44141H22.5792C22.2556 2.44141 22.0196 2.74307 22.0196 3.06641V5.96533C22.0196 6.28428 22.2149 6.54326 22.6055 6.55059V25.7812H2.58597C2.42994 25.7827 2.2808 25.8457 2.17104 25.9566C2.06129 26.0675 1.99982 26.2173 2.00003 26.3733V29.696C2.00021 29.7725 2.01554 29.8482 2.04516 29.9187C2.07477 29.9893 2.11807 30.0532 2.17256 30.1069C2.22705 30.1606 2.29164 30.203 2.3626 30.2316C2.43356 30.2601 2.50948 30.2744 2.58597 30.2734H3.66019V43.7319C3.18988 43.8268 2.76715 44.0822 2.46432 44.4543C2.16149 44.8265 1.99737 45.2923 2.00003 45.7721V46.9336C2.00277 47.095 2.0667 47.2493 2.17889 47.3653C2.29107 47.4813 2.44314 47.5504 2.60433 47.5586H46.9357C47.2593 47.5586 47.5078 47.2569 47.5078 46.9336V6.55059C47.6608 6.54347 47.8057 6.47954 47.914 6.37131C48.0224 6.26307 48.0865 6.11831 48.0938 5.96533V3.06641C48.0938 2.74307 47.8315 2.44141 47.5078 2.44141ZM3.17191 29.1016V26.9531H29.9297V29.1016H3.17191ZM30.5285 25.7812H28.3672V23.4375H32.0782V28.7109H31.1016V26.3733C31.1031 26.2968 31.0895 26.2206 31.0614 26.1493C31.0334 26.0781 30.9916 26.013 30.9383 25.958C30.885 25.9029 30.8214 25.859 30.751 25.8287C30.6807 25.7983 30.605 25.7822 30.5285 25.7812V25.7812ZM29.4414 35.0586H32.0782V40.2344H29.4414V35.0586ZM24.7659 33.3008H8.34847C8.19109 33.305 8.04162 33.3707 7.93199 33.4837C7.82236 33.5967 7.76126 33.748 7.76175 33.9055V36.1306C7.76185 36.2863 7.82365 36.4356 7.93362 36.5458C8.04359 36.6561 8.19276 36.7183 8.34847 36.7188H8.44534V43.6523H4.83206V30.2734H28.2696V43.6523H24.6563V36.7188H24.7659C24.8424 36.7183 24.918 36.7026 24.9883 36.6727C25.0586 36.6428 25.1224 36.5992 25.1757 36.5445C25.2291 36.4898 25.2711 36.425 25.2993 36.354C25.3275 36.2829 25.3413 36.207 25.3399 36.1306V33.9055C25.3432 33.7494 25.2848 33.5983 25.1773 33.485C25.0699 33.3718 24.922 33.3056 24.7659 33.3008V33.3008ZM8.93363 35.5469V34.4727H24.168V35.5469H8.93363ZM23.4844 36.7188V43.6523H17.1368V36.7188H23.4844ZM15.9649 36.7188V43.6523H9.61722V36.7188H15.9649ZM29.9297 46.3867H3.17191V45.7722C3.17483 45.5239 3.27388 45.2864 3.44823 45.1097C3.62258 44.9329 3.85866 44.8306 4.10687 44.8242H29.0076C29.2545 44.8311 29.4889 44.934 29.6612 45.1111C29.8334 45.2882 29.9297 45.5255 29.9297 45.7725V46.3867ZM46.336 46.3867H31.1016V45.7725C31.1042 45.2926 30.9401 44.8268 30.6373 44.4546C30.3344 44.0824 29.9117 43.827 29.4414 43.7319V41.4062H32.628C32.9516 41.4062 33.25 41.1696 33.25 40.8461V34.4691C33.2416 34.3105 33.1721 34.1613 33.0562 34.0528C32.9402 33.9442 32.7868 33.8847 32.628 33.8867H29.4414V30.2734H30.5285C30.6513 30.2725 30.7711 30.2348 30.8723 30.1652C30.9736 30.0955 31.0517 29.9972 31.0965 29.8828H32.628C32.7917 29.874 32.9462 29.8043 33.0613 29.6875C33.1763 29.5707 33.2437 29.4152 33.25 29.2514V22.8744C33.2428 22.713 33.1745 22.5603 33.0591 22.4473C32.9436 22.3343 32.7895 22.2694 32.628 22.2656H27.7969C27.6376 22.2702 27.4861 22.336 27.3741 22.4493C27.262 22.5627 27.198 22.7149 27.1953 22.8743V25.7812H23.7774V6.54297H46.336V46.3867ZM46.9219 5.37109H23.1914V3.61328H46.9219V5.37109Z" fill="black"/>
<path d="M2.58594 29.7852H7.37109C7.52649 29.7852 7.67553 29.7234 7.78541 29.6135C7.8953 29.5037 7.95703 29.3546 7.95703 29.1992V22.8516C7.95703 22.6962 7.8953 22.5471 7.78541 22.4372C7.67553 22.3274 7.52649 22.2656 7.37109 22.2656H2.58594C2.43054 22.2656 2.2815 22.3274 2.17162 22.4372C2.06173 22.5471 2 22.6962 2 22.8516V29.1992C2 29.3546 2.06173 29.5037 2.17162 29.6135C2.2815 29.7234 2.43054 29.7852 2.58594 29.7852ZM3.17188 23.4375H6.88281V28.7109H3.17188V23.4375Z" fill="black"/>
<path d="M2.58594 18.2617H7.37109C7.52649 18.2617 7.67553 18.2 7.78541 18.0901C7.8953 17.9802 7.95703 17.8312 7.95703 17.6758V11.3281C7.95703 11.1727 7.8953 11.0237 7.78541 10.9138C7.67553 10.8039 7.52649 10.7422 7.37109 10.7422H2.58594C2.43054 10.7422 2.2815 10.8039 2.17162 10.9138C2.06173 11.0237 2 11.1727 2 11.3281V17.6758C2 17.8312 2.06173 17.9802 2.17162 18.0901C2.2815 18.2 2.43054 18.2617 2.58594 18.2617ZM3.17188 11.9141H6.88281V17.0898H3.17188V11.9141Z" fill="black"/>
<path d="M2.58594 18.2617H7.37109C7.52649 18.2617 7.67553 18.2 7.78541 18.0901C7.8953 17.9802 7.95703 17.8312 7.95703 17.6758V11.3281C7.95703 11.1727 7.8953 11.0237 7.78541 10.9138C7.67553 10.8039 7.52649 10.7422 7.37109 10.7422H2.58594C2.43054 10.7422 2.2815 10.8039 2.17162 10.9138C2.06173 11.0237 2 11.1727 2 11.3281V17.6758C2 17.8312 2.06173 17.9802 2.17162 18.0901C2.2815 18.2 2.43054 18.2617 2.58594 18.2617ZM3.17188 11.9141H6.88281V17.0898H3.17188V11.9141Z" fill="black"/>
<path d="M2.58594 41.4062H7.37109C7.52649 41.4062 7.67553 41.3445 7.78541 41.2346C7.8953 41.1247 7.95703 40.9757 7.95703 40.8203V34.4727C7.95703 34.3173 7.8953 34.1682 7.78541 34.0583C7.67553 33.9485 7.52649 33.8867 7.37109 33.8867H2.58594C2.43054 33.8867 2.2815 33.9485 2.17162 34.0583C2.06173 34.1682 2 34.3173 2 34.4727V40.8203C2 40.9757 2.06173 41.1247 2.17162 41.2346C2.2815 41.3445 2.43054 41.4062 2.58594 41.4062V41.4062ZM3.17188 35.0586H6.88281V40.2344H3.17188V35.0586Z" fill="black"/>
<path d="M2.58594 9.46289C2.74134 9.46289 2.89037 9.40116 3.00026 9.29127C3.11014 9.18139 3.17188 9.03235 3.17188 8.87695V8.40625C3.17188 8.25085 3.11014 8.10181 3.00026 7.99193C2.89037 7.88204 2.74134 7.82031 2.58594 7.82031C2.43054 7.82031 2.2815 7.88204 2.17162 7.99193C2.06173 8.10181 2 8.25085 2 8.40625V8.87695C2 9.03235 2.06173 9.18139 2.17162 9.29127C2.2815 9.40116 2.43054 9.46289 2.58594 9.46289V9.46289Z" fill="black"/>
<path d="M2.58594 19.5107C2.74134 19.5107 2.89037 19.449 3.00026 19.3391C3.11014 19.2292 3.17188 19.0802 3.17188 18.9248V11.0264C3.17188 10.871 3.11014 10.7219 3.00026 10.612C2.89037 10.5022 2.74134 10.4404 2.58594 10.4404C2.43054 10.4404 2.2815 10.5022 2.17162 10.612C2.06173 10.7219 2 10.871 2 11.0264V18.9248C2 19.0802 2.06173 19.2292 2.17162 19.3391C2.2815 19.449 2.43054 19.5107 2.58594 19.5107Z" fill="black"/>
</svg>
