<svg width="50" height="53" viewBox="0 0 50 53" fill="none" xmlns="http://www.w3.org/2000/svg">
<g clip-path="url(#clip0_23715_49805)">
<path d="M18.2733 52.9922C15.7181 52.9922 13.164 52.9933 10.6087 52.9901C10.3616 52.9901 10.1113 52.9754 9.86847 52.9354C9.66183 52.9017 9.50845 52.769 9.50313 52.5438C9.4978 52.3164 9.64799 52.1796 9.85355 52.1427C10.0953 52.0985 10.3456 52.0817 10.5927 52.0817C12.7219 52.0775 14.8511 52.0806 16.9792 52.0775C17.8004 52.0764 17.8622 52.0153 17.8633 51.2111C17.8665 48.8616 17.8665 46.5121 17.8633 44.1615C17.8622 43.3846 17.8153 43.3594 17.009 43.3225C15.2452 43.2404 13.4963 43.012 11.8752 42.2952C11.1679 41.9825 10.45 41.7951 9.71083 41.6215C7.87775 41.1899 6.17888 40.4604 4.676 39.3235C4.41078 39.1225 4.17646 38.8782 3.94959 38.633C3.76851 38.4372 3.70248 38.1909 3.88142 37.9603C4.1264 37.6435 3.96876 37.5035 3.67372 37.3761C2.80991 37.0035 1.99615 36.5393 1.20796 36.0298C0.863928 35.8077 0.551847 35.5498 0.281306 35.2455C-0.141547 34.7687 -0.0925515 34.4634 0.461312 34.1613C1.79165 33.436 2.97074 32.5171 4.05716 31.4728C5.81781 29.7812 6.98944 27.7001 8.06202 25.5569C9.1772 23.3253 10.1102 20.9989 11.431 18.8757C11.9582 18.0284 12.0147 17.2883 11.7399 16.3599C11.1977 14.5272 10.7568 12.6651 10.4969 10.7651C10.3989 10.0503 10.0091 9.41555 9.7545 8.74291C9.52337 8.13237 9.31567 7.52604 9.34549 6.85655C9.38596 5.93233 9.71189 5.13442 10.4106 4.52598C11.6206 3.47333 13.0351 2.87121 14.6594 2.81437C15.8076 2.77437 15.8353 2.76489 16.0824 1.64171C16.2986 0.652221 17.1816 -0.0120032 18.2691 -0.0077926C19.4205 -0.00358199 20.2736 0.625904 20.508 1.64382C20.7679 2.77437 20.7796 2.77437 21.9374 2.81016C23.5457 2.86069 24.9538 3.45543 26.1467 4.49019C27.1362 5.3481 27.4014 6.48707 27.1639 7.7492C27.1415 7.86921 27.1117 7.99131 27.0617 8.1029C25.7345 11.0303 25.628 14.2746 24.6225 17.2862C24.516 17.6052 24.6023 17.9031 24.7759 18.1894C25.0859 18.701 25.3841 19.2189 25.6759 19.741C25.8187 19.9947 25.9422 20.2884 25.6174 20.4842C25.2818 20.6852 25.0912 20.421 24.9399 20.1768C24.6992 19.7884 24.4798 19.3863 24.2476 18.9926C23.8812 18.3684 23.812 18.3368 23.0962 18.5473C20.1171 19.4242 17.123 19.4768 14.113 18.7115C12.6953 18.3505 12.6921 18.3515 11.9721 19.6221C10.8441 21.6137 9.94089 23.7137 8.92477 25.7601C7.92888 27.7643 6.83074 29.7012 5.33424 31.396C4.27445 32.5971 3.02186 33.5655 1.69153 34.4466C1.13979 34.8118 1.1334 34.935 1.67449 35.294C2.51593 35.8519 3.40211 36.3298 4.33835 36.7182C4.73351 36.8824 5.02429 36.8193 5.33637 36.515C6.2609 35.6129 7.10021 34.6424 7.85752 33.6002C7.99172 33.415 8.12699 33.2297 8.26546 33.0476C8.44759 32.8086 8.6702 32.5939 8.97589 32.8044C9.29117 33.0223 9.13673 33.2981 8.96737 33.5402C7.92675 35.0319 6.75938 36.4171 5.40774 37.6456C4.78358 38.213 4.77825 38.3614 5.45354 38.8298C7.064 39.9467 8.8566 40.6235 10.7855 40.9709C11.2584 41.0562 11.5045 40.8741 11.6728 40.4446C12.2639 38.9372 12.7858 37.4119 13.0745 35.8161C13.1022 35.6603 13.1373 35.5066 13.1725 35.3529C13.2332 35.0813 13.3301 34.8066 13.671 34.8508C14.0587 34.9013 14.0512 35.2287 14.0054 35.5098C13.7594 37.0203 13.3642 38.493 12.8007 39.9193C12.691 40.1972 12.5813 40.4741 12.4738 40.753C12.184 41.5078 12.2203 41.5657 13.0202 41.8141C14.4038 42.2446 15.8321 42.4088 17.2689 42.4636C19.462 42.5467 21.6253 42.2952 23.7491 41.7362C24.4425 41.5541 24.5107 41.4415 24.2402 40.7762C23.6096 39.2267 23.0951 37.6435 22.7852 35.9992C22.7426 35.775 22.6989 35.5508 22.6797 35.3245C22.6606 35.095 22.7405 34.8961 22.9972 34.8497C23.2485 34.8045 23.404 34.9529 23.4765 35.1729C23.5425 35.3719 23.5862 35.5792 23.6256 35.7856C23.91 37.254 24.3296 38.6814 24.8984 40.0688C25.0454 40.4267 25.2382 40.6204 25.6536 40.552C27.6794 40.2151 29.5498 39.5004 31.2263 38.3182C31.8291 37.893 31.8313 37.8056 31.2849 37.2877C29.9886 36.0592 28.7616 34.7729 27.7551 33.295C27.656 33.1497 27.5484 33.0065 27.4749 32.8497C27.3844 32.6571 27.41 32.4655 27.5974 32.3339C27.7849 32.2023 27.9787 32.2392 28.1278 32.3939C28.2855 32.5581 28.4229 32.7434 28.556 32.9287C29.3293 34.0013 30.1899 35.0003 31.1123 35.9529C31.5224 36.3771 31.9218 36.4361 32.4427 36.2013C33.3171 35.8077 34.1543 35.3508 34.9553 34.8287C35.4495 34.5066 35.442 34.3708 34.9436 34.0508C32.4437 32.4465 30.4317 30.3844 28.9278 27.838C28.883 27.7622 28.8351 27.6885 28.7935 27.6107C28.6604 27.3654 28.5528 27.1012 28.85 26.9138C29.1717 26.7096 29.3858 26.9191 29.5434 27.178C30.3316 28.4749 31.2018 29.7096 32.2786 30.7907C33.4172 31.9349 34.6922 32.9055 36.096 33.7129C36.6733 34.0445 36.7383 34.3476 36.2803 34.8297C35.3984 35.7571 34.2406 36.274 33.1169 36.834C32.7505 37.0161 32.4384 37.134 32.7611 37.6224C32.9156 37.8561 32.7249 38.0909 32.563 38.2845C32.1497 38.7793 31.6182 39.133 31.0761 39.4667C29.5839 40.3856 27.9649 40.9899 26.2394 41.3162C25.8943 41.3815 25.5961 41.4615 25.4693 41.852C25.3724 42.1499 25.0624 42.2204 24.794 42.312C23.0706 42.9015 21.2844 43.1615 19.4759 43.3099C18.7729 43.3678 18.7228 43.4152 18.7207 44.0983C18.7164 46.4837 18.7164 48.8679 18.7196 51.2532C18.7207 51.9985 18.7952 52.0753 19.5398 52.0764C21.686 52.0806 23.8333 52.0764 25.9795 52.0817C26.2266 52.0817 26.4758 52.0985 26.7198 52.1396C26.9264 52.1743 27.0798 52.3069 27.0819 52.5333C27.084 52.7585 26.936 52.8975 26.7283 52.9333C26.4854 52.9754 26.2351 52.9901 25.988 52.9912C23.4179 52.9933 20.8456 52.9922 18.2733 52.9922ZM18.6227 18.3905C19.9466 18.4157 21.5422 18.1252 23.1111 17.6473C23.4647 17.5399 23.6905 17.3641 23.7907 16.9957C24.254 15.2862 24.7152 13.5756 25.0496 11.8367C25.1476 11.3251 25.2744 10.8082 25.1082 10.2787C24.5075 8.37132 23.8088 6.49655 23.1101 4.62283C22.913 4.09334 22.5562 4.05755 22.2143 4.50703C21.9256 4.88599 21.6402 5.26389 21.2674 5.56811C19.1691 7.28288 16.1388 6.86919 14.473 4.64072C14.3164 4.4323 14.1918 4.17019 13.8605 4.22071C13.5559 4.26808 13.5037 4.53546 13.4228 4.76072C12.8071 6.47865 12.1979 8.19763 11.5865 9.91662C11.4193 10.3872 11.3703 10.8577 11.4566 11.3619C11.7836 13.2662 12.2991 15.1241 12.7965 16.9873C12.8966 17.362 13.148 17.522 13.4888 17.6326C15.0513 18.1357 16.6544 18.3884 18.6227 18.3905ZM18.2808 5.75759C19.5632 5.75127 20.59 5.22284 21.3643 4.20071C21.5933 3.8986 21.6572 3.70807 21.1513 3.62386C20.2694 3.47649 19.8455 3.00174 19.6931 2.11751C19.5398 1.22697 19.151 0.896436 18.2669 0.903804C17.4234 0.91012 17.0431 1.24697 16.894 2.11751C16.7428 3.00069 16.3167 3.47754 15.4359 3.62386C14.931 3.70702 14.9928 3.8986 15.2228 4.20071C15.9844 5.20284 16.9899 5.73864 18.2808 5.75759ZM10.9474 9.08818C11.497 7.54604 12.0371 6.05759 12.5515 4.56072C12.6591 4.24913 12.4333 4.23966 12.2181 4.33966C10.2849 5.23968 9.52124 6.83866 10.9474 9.08818ZM25.7026 9.01133C26.9093 7.0713 26.511 5.40074 24.5245 4.41335C24.3871 4.34493 24.2252 4.20387 24.0846 4.31861C23.9142 4.45756 24.0559 4.64598 24.1113 4.80283C24.5533 6.06075 24.9985 7.31867 25.4512 8.57343C25.5066 8.72817 25.514 8.92291 25.7026 9.01133Z" fill="black"/>
<path d="M30.2244 50.367C29.6918 50.367 29.1592 50.3891 28.6288 50.3617C27.6638 50.3133 27.1888 49.687 27.4018 48.7543C27.6649 47.6017 28.1857 46.6374 29.2902 46.0269C30.1892 45.53 31.0807 45.029 32.0223 44.6132C32.5975 44.3595 33.1407 44.35 33.6956 44.6795C34.1813 44.9679 34.7064 45.1932 35.1878 45.4879C35.6149 45.749 35.9153 45.6742 36.254 45.3237C38.2234 43.2805 40.2088 41.2531 42.1899 39.2204C42.3987 39.0057 42.6181 38.8004 42.8248 38.5836C43.2061 38.1846 43.6641 38.0667 44.1817 38.2478C44.677 38.4204 44.8655 38.8183 44.9188 39.3078C45.0402 40.4257 45.0381 41.5468 45.0242 42.6689C45.0221 42.8321 44.9305 43.0605 45.1446 43.1352C45.3118 43.1942 45.4162 43.0016 45.5238 42.8931C46.2321 42.1805 46.9414 41.4678 47.6402 40.7457C48.0449 40.3268 48.4848 40.0383 49.0983 40.2626C49.7299 40.4931 49.8588 41.0057 49.9195 41.6036C50.2252 44.6384 49.5861 47.6101 49.3348 50.608C49.3199 50.7828 49.289 50.9565 49.2783 51.1312C49.2038 52.3407 48.4656 52.4996 47.5081 52.326C47.048 52.2428 46.8445 51.8754 46.8062 51.4396C46.7316 50.5849 46.6794 49.728 46.6113 48.8722C46.5995 48.7259 46.6709 48.5196 46.4696 48.4648C46.3183 48.4238 46.2267 48.5901 46.1351 48.6901C45.266 49.6375 44.3777 50.5701 43.5426 51.547C43.0474 52.126 42.501 52.406 41.7117 52.3954C39.0691 52.3575 36.4266 52.3796 33.784 52.3817C33.2877 52.3828 32.8233 52.3196 32.5069 51.8828C32.3109 51.6123 32.2353 51.3049 32.3184 50.9838C32.4462 50.4933 32.2257 50.3554 31.7688 50.3722C31.2554 50.3912 30.7399 50.3764 30.2254 50.3764C30.2244 50.3722 30.2244 50.3701 30.2244 50.367ZM37.8592 51.5323C39.1181 51.5323 40.3782 51.5196 41.6361 51.5386C42.1154 51.5459 42.4797 51.4059 42.8045 51.048C44.8144 48.829 46.8381 46.6216 48.8587 44.4111C49.0312 44.2226 49.1526 44.0111 49.142 43.7511C49.1122 43.0163 49.0791 42.2805 49.0387 41.5468C49.0291 41.3689 48.9833 41.1921 48.7916 41.1131C48.5913 41.031 48.4497 41.152 48.3229 41.2784C48.0364 41.5647 47.7573 41.8594 47.4751 42.15C45.5504 44.1374 43.631 46.13 41.6957 48.1069C41.1365 48.6785 40.6381 48.7354 39.9127 48.3732C39.3748 48.1048 38.8433 47.8227 38.3182 47.529C37.9454 47.3206 37.5907 47.3216 37.203 47.4911C36.3083 47.8806 35.4658 48.3617 34.6265 48.8554C33.9044 49.2806 33.5039 49.9006 33.2898 50.6743C33.1108 51.3217 33.2482 51.5249 33.9203 51.5291C35.2336 51.5375 36.5469 51.5312 37.8592 51.5323ZM44.1796 41.0531C44.138 40.5468 44.0986 40.0394 44.055 39.5331C44.0401 39.3562 44.0198 39.1731 43.8249 39.092C43.6257 39.0089 43.4809 39.1278 43.3541 39.251C43.1017 39.4973 42.8588 39.752 42.6128 40.0057C40.6498 42.0321 38.6942 44.0637 36.7227 46.0806C36.1645 46.6511 35.7108 46.708 34.9929 46.3501C34.4231 46.0658 33.8596 45.7679 33.3058 45.4521C32.982 45.2679 32.6827 45.2616 32.345 45.4048C31.413 45.8006 30.5375 46.2964 29.6684 46.8101C28.9707 47.2227 28.5585 47.8185 28.3359 48.5743C28.1186 49.3112 28.2518 49.5143 29.0186 49.5227C29.9229 49.5333 30.8293 49.5027 31.7326 49.5343C32.3738 49.5575 32.9106 49.4764 33.2663 48.8543C33.3963 48.6259 33.6711 48.4648 33.9044 48.309C34.8172 47.6985 35.7854 47.189 36.7887 46.7353C37.5109 46.409 38.1947 46.389 38.855 46.8427C39.3088 47.1543 39.6454 47.0574 39.999 46.6606C41.1589 45.3584 42.3199 44.0563 43.5267 42.7952C44.0177 42.2826 44.2936 41.7573 44.1796 41.0531ZM48.9492 46.2458C48.9098 46.13 49.0248 45.9164 48.8416 45.85C48.6648 45.7858 48.5817 45.9911 48.4784 46.1006C48.2132 46.3827 47.9544 46.6711 47.6924 46.9553C47.5337 47.1269 47.3909 47.3143 47.4058 47.5574C47.4729 48.7101 47.5432 49.8628 47.6263 51.0144C47.6434 51.2459 47.7179 51.4849 48.0193 51.4902C48.324 51.4944 48.3879 51.2638 48.4145 51.0249C48.5924 49.4417 48.7692 47.8585 48.9492 46.2458ZM44.0198 43.9447C44.0145 43.9216 44.0209 43.8195 43.973 43.7626C43.8984 43.6763 43.8068 43.7479 43.7503 43.81C43.3509 44.2521 42.9494 44.6921 42.5659 45.1469C42.437 45.2995 42.4562 45.51 42.4796 45.7027C42.4946 45.8258 42.5489 45.8911 42.6948 45.8364C43.0474 45.7069 43.9964 44.4016 44.0198 43.9447ZM41.6531 46.7069C41.651 46.6016 41.6552 46.4827 41.5402 46.4374C41.4902 46.4174 41.3911 46.4395 41.3528 46.4785C41.0705 46.7658 40.7946 47.0585 40.5252 47.3574C40.4527 47.4385 40.425 47.5469 40.5188 47.6395C40.5869 47.708 40.6743 47.7069 40.7648 47.688C41.0183 47.6343 41.6425 46.9469 41.6531 46.7069Z" fill="black"/>
<path d="M25.2523 26.0679C24.5344 26.0774 24.0657 25.8637 23.8399 25.3111C23.6024 24.73 23.6567 24.1658 24.1413 23.7121C25.6091 22.3373 27.0811 20.9689 28.5563 19.6026C30.3286 17.9604 32.101 16.3183 33.8829 14.6856C34.2706 14.3298 34.1002 13.953 33.9958 13.5677C33.9053 13.2309 33.7743 12.9403 33.3472 12.9119C32.7539 12.8719 32.4195 12.5193 32.2757 11.974C32.1372 11.4477 31.9849 10.9234 31.888 10.3897C31.6686 9.17603 32.4333 7.97706 33.6348 7.60442C34.8735 7.2202 36.1932 7.76864 36.729 8.89603C36.7961 9.03708 36.8493 9.18972 36.8802 9.34235C36.9249 9.57183 36.8578 9.76973 36.6129 9.84763C36.3966 9.9171 36.2305 9.81605 36.1197 9.63394C36.0473 9.51393 35.9993 9.38025 35.9322 9.25603C35.5349 8.52865 34.7723 8.21075 33.9405 8.42128C33.2098 8.60655 32.7358 9.27288 32.7624 10.0918C32.7805 10.6413 32.9648 11.1571 33.1075 11.6813C33.1693 11.9087 33.3238 12.0445 33.5645 12.0561C34.2323 12.0887 34.6466 12.4635 34.7393 13.0751C34.8842 14.0298 35.4657 14.3498 36.3551 14.5625C40.181 15.4804 43.9888 16.472 47.803 17.4372C47.8723 17.4551 47.9404 17.472 48.0086 17.4909C48.9427 17.7404 49.3794 18.2046 49.3666 18.932C49.3538 19.6383 48.9257 20.091 48.0118 20.3236C40.6433 22.1994 33.2737 24.0711 25.9041 25.9416C25.6496 26.009 25.3854 26.0437 25.2523 26.0679ZM25.2448 25.2048C25.3726 25.1774 25.5825 25.1406 25.788 25.089C33.0713 23.2437 40.3557 21.3973 47.6379 19.5468C47.8414 19.4952 48.0544 19.432 48.228 19.3204C48.5678 19.1015 48.5667 18.7183 48.228 18.5004C48.0544 18.3888 47.8414 18.3288 47.6369 18.2762C46.6239 18.0162 45.6078 17.7688 44.5938 17.513C41.5699 16.7509 38.545 15.9888 35.5222 15.2214C35.0695 15.1067 34.6754 15.1014 34.2941 15.4562C31.5205 18.0415 28.732 20.611 25.9521 23.1889C25.5516 23.5605 25.1649 23.9469 24.7783 24.3342C24.6185 24.4942 24.5504 24.6942 24.643 24.9142C24.7367 25.1385 24.9306 25.209 25.2448 25.2048Z" fill="black"/>
</g>
<defs>
<clipPath id="clip0_23715_49805">
<rect width="50" height="53" fill="white"/>
</clipPath>
</defs>
</svg>
