<svg width="50" height="50" viewBox="0 0 50 50" fill="none" xmlns="http://www.w3.org/2000/svg">
<path d="M44.5318 28.9839V28.8121C44.5298 27.1813 43.8816 25.6178 42.7292 24.464C41.5768 23.3101 40.0142 22.6599 38.3834 22.6558H19.4381C18.0622 22.6566 16.7263 23.1189 15.6442 23.9687C14.5621 24.8186 13.7963 26.0068 13.4693 27.3433L7.15684 21.4996C7.1173 21.4642 7.08571 21.4208 7.06416 21.3723C7.04261 21.3239 7.0316 21.2714 7.03184 21.2183V18.3589C7.03469 17.9086 6.92533 17.4647 6.71364 17.0673C6.50194 16.6699 6.19459 16.3315 5.81933 16.0826C5.44407 15.8337 5.01272 15.6822 4.56425 15.6418C4.11578 15.6014 3.6643 15.6733 3.25059 15.8511C2.73848 16.0822 2.30552 16.4586 2.00551 16.9336C1.7055 17.4086 1.55166 17.9613 1.56309 18.523V45.7027C1.55705 46.0638 1.62303 46.4225 1.75717 46.7579C1.89131 47.0932 2.09092 47.3985 2.34434 47.6558C2.72618 48.0409 3.21556 48.3014 3.7482 48.4032C4.28084 48.505 4.83181 48.4432 5.32872 48.2261C5.84563 47.9977 6.28328 47.6213 6.5864 47.1444C6.88953 46.6675 7.04453 46.1114 7.03184 45.5464V41.0152C7.03184 40.9116 7.073 40.8122 7.14626 40.739C7.21951 40.6657 7.31887 40.6245 7.42247 40.6245H42.5787C42.6823 40.6245 42.7817 40.6657 42.8549 40.739C42.9282 40.8122 42.9693 40.9116 42.9693 41.0152V45.7027C42.9673 46.0604 43.0358 46.4149 43.1711 46.7461C43.3063 47.0772 43.5055 47.3785 43.7574 47.6325C44.0092 47.8865 44.3087 48.0883 44.6386 48.2264C44.9686 48.3644 45.3226 48.436 45.6803 48.437C46.0491 48.4387 46.4141 48.3615 46.7506 48.2105C47.2621 47.9808 47.6948 47.6058 47.9948 47.1321C48.2949 46.6585 48.449 46.107 48.4381 45.5464V33.5933C48.4351 32.4877 48.0415 31.4187 47.3267 30.5753C46.6119 29.7318 45.622 29.1682 44.5318 28.9839ZM14.8443 28.8121C14.8464 27.5943 15.3311 26.4271 16.1921 25.5661C17.0532 24.705 18.2204 24.2204 19.4381 24.2183H38.3834C39.5998 24.2224 40.765 24.708 41.6244 25.5688C42.4837 26.4296 42.9673 27.5957 42.9693 28.8121V34.3745H14.8443V28.8121ZM46.8756 45.5464C46.8834 45.8007 46.8185 46.052 46.6884 46.2707C46.5583 46.4894 46.3685 46.6663 46.1412 46.7808C45.9304 46.8727 45.6968 46.8988 45.4709 46.8556C45.2451 46.8123 45.0376 46.7019 44.8756 46.5386C44.7658 46.429 44.6789 46.2986 44.6199 46.1551C44.5609 46.0116 44.531 45.8578 44.5318 45.7027V41.0152C44.5298 40.4978 44.3234 40.0022 43.9575 39.6364C43.5917 39.2705 43.0961 39.0641 42.5787 39.062H7.42247C6.9051 39.0641 6.40951 39.2705 6.04367 39.6364C5.67784 40.0022 5.4714 40.4978 5.46934 41.0152V45.5464C5.4772 45.8007 5.41225 46.052 5.28216 46.2707C5.15206 46.4894 4.96222 46.6663 4.73497 46.7808C4.52418 46.8727 4.29054 46.8988 4.06468 46.8556C3.83882 46.8123 3.6313 46.7019 3.46934 46.5386C3.35956 46.429 3.27264 46.2986 3.21363 46.1551C3.15462 46.0116 3.1247 45.8578 3.12559 45.7027V18.523C3.1158 18.2683 3.17993 18.0162 3.31025 17.7972C3.44056 17.5782 3.63148 17.4015 3.85997 17.2886C4.07034 17.1945 4.30453 17.1672 4.53089 17.2106C4.75725 17.2539 4.96484 17.3657 5.12559 17.5308C5.34543 17.7504 5.46907 18.0482 5.46934 18.3589V21.2183C5.46859 21.4881 5.52374 21.7551 5.63131 22.0025C5.73888 22.2499 5.89654 22.4724 6.09434 22.6558L13.2818 29.3042V35.1558C13.2818 35.363 13.3642 35.5617 13.5107 35.7082C13.6572 35.8547 13.8559 35.937 14.0631 35.937H43.7506C43.9578 35.937 44.1565 35.8547 44.303 35.7082C44.4495 35.5617 44.5318 35.363 44.5318 35.1558V30.5855C45.1997 30.7579 45.7917 31.1464 46.2157 31.6905C46.6396 32.2346 46.8716 32.9036 46.8756 33.5933V45.5464Z" fill="black"/>
<path d="M16.4062 10.1563C16.4062 11.8559 16.9103 13.5174 17.8546 14.9307C18.7989 16.3439 20.141 17.4454 21.7113 18.0958C23.2816 18.7463 25.0095 18.9165 26.6766 18.5849C28.3436 18.2533 29.8748 17.4348 31.0767 16.233C32.2786 15.0311 33.097 13.4998 33.4286 11.8328C33.7602 10.1658 33.59 8.43787 32.9396 6.86756C32.2891 5.29726 31.1877 3.9551 29.7744 3.01081C28.3612 2.06651 26.6997 1.5625 25 1.5625C22.7208 1.5625 20.5349 2.46791 18.9233 4.07955C17.3117 5.69119 16.4062 7.87705 16.4062 10.1563V10.1563ZM25 3.125C26.3906 3.125 27.7501 3.53738 28.9064 4.30998C30.0626 5.08258 30.9638 6.18071 31.496 7.46551C32.0282 8.7503 32.1674 10.1641 31.8961 11.528C31.6248 12.8919 30.9552 14.1448 29.9718 15.1281C28.9885 16.1114 27.7357 16.7811 26.3717 17.0524C25.0078 17.3237 23.5941 17.1845 22.3093 16.6523C21.0245 16.1201 19.9263 15.2189 19.1537 14.0626C18.3811 12.9063 17.9688 11.5469 17.9688 10.1563C17.9688 8.29145 18.7095 6.50302 20.0282 5.18441C21.3468 3.86579 23.1352 3.125 25 3.125V3.125Z" fill="black"/>
<path d="M20.3125 12.5H22.6562V14.8438C22.6562 15.051 22.7386 15.2497 22.8851 15.3962C23.0316 15.5427 23.2303 15.625 23.4375 15.625H26.5625C26.7697 15.625 26.9684 15.5427 27.1149 15.3962C27.2614 15.2497 27.3438 15.051 27.3438 14.8438V12.5H29.6875C29.8947 12.5 30.0934 12.4177 30.2399 12.2712C30.3864 12.1247 30.4688 11.926 30.4688 11.7188V8.59375C30.4688 8.38655 30.3864 8.18784 30.2399 8.04132C30.0934 7.89481 29.8947 7.8125 29.6875 7.8125H27.3438V5.46875C27.3438 5.26155 27.2614 5.06284 27.1149 4.91632C26.9684 4.76981 26.7697 4.6875 26.5625 4.6875H23.4375C23.2303 4.6875 23.0316 4.76981 22.8851 4.91632C22.7386 5.06284 22.6562 5.26155 22.6562 5.46875V7.8125H20.3125C20.1053 7.8125 19.9066 7.89481 19.7601 8.04132C19.6136 8.18784 19.5312 8.38655 19.5312 8.59375V11.7188C19.5312 11.926 19.6136 12.1247 19.7601 12.2712C19.9066 12.4177 20.1053 12.5 20.3125 12.5ZM21.0938 9.375H23.4375C23.6447 9.375 23.8434 9.29269 23.9899 9.14618C24.1364 8.99966 24.2188 8.80095 24.2188 8.59375V6.25H25.7812V8.59375C25.7812 8.80095 25.8636 8.99966 26.0101 9.14618C26.1566 9.29269 26.3553 9.375 26.5625 9.375H28.9062V10.9375H26.5625C26.3553 10.9375 26.1566 11.0198 26.0101 11.1663C25.8636 11.3128 25.7812 11.5115 25.7812 11.7188V14.0625H24.2188V11.7188C24.2188 11.5115 24.1364 11.3128 23.9899 11.1663C23.8434 11.0198 23.6447 10.9375 23.4375 10.9375H21.0938V9.375Z" fill="black"/>
<path d="M12.5 15.625C11.7274 15.625 10.9722 15.8541 10.3298 16.2833C9.68743 16.7125 9.18675 17.3226 8.8911 18.0364C8.59544 18.7502 8.51809 19.5356 8.66881 20.2933C8.81953 21.0511 9.19157 21.7471 9.73787 22.2934C10.2842 22.8397 10.9802 23.2117 11.7379 23.3624C12.4957 23.5132 13.2811 23.4358 13.9949 23.1402C14.7086 22.8445 15.3187 22.3438 15.7479 21.7014C16.1772 21.0591 16.4063 20.3038 16.4063 19.5312C16.4063 18.4952 15.9947 17.5017 15.2621 16.7691C14.5296 16.0366 13.536 15.625 12.5 15.625ZM12.5 21.875C12.0365 21.875 11.5833 21.7375 11.1979 21.48C10.8125 21.2225 10.5121 20.8564 10.3347 20.4282C10.1573 19.9999 10.1109 19.5286 10.2013 19.074C10.2917 18.6194 10.5149 18.2017 10.8427 17.874C11.1705 17.5462 11.5881 17.323 12.0428 17.2325C12.4974 17.1421 12.9687 17.1885 13.3969 17.3659C13.8252 17.5433 14.1912 17.8437 14.4488 18.2291C14.7063 18.6146 14.8438 19.0677 14.8438 19.5312C14.8438 20.1529 14.5968 20.749 14.1573 21.1885C13.7177 21.6281 13.1216 21.875 12.5 21.875V21.875Z" fill="black"/>
</svg>
