<svg width="51" height="51" viewBox="0 0 51 51" fill="none" xmlns="http://www.w3.org/2000/svg">
<path d="M41.5503 43.3804H10.1313C9.28041 43.3795 8.46459 43.0411 7.86289 42.4394C7.2612 41.8377 6.92277 41.0218 6.92188 40.1709V6.0493C6.92277 5.19838 7.2612 4.38256 7.86289 3.78086C8.46459 3.17916 9.28041 2.84074 10.1313 2.83984H41.5503C42.4012 2.84074 43.217 3.17916 43.8187 3.78086C44.4204 4.38256 44.7588 5.19838 44.7597 6.0493V40.1709C44.7588 41.0218 44.4204 41.8377 43.8187 42.4394C43.217 43.0411 42.4012 43.3795 41.5503 43.3804ZM10.1313 4.1912C9.6387 4.19173 9.16639 4.38767 8.81805 4.73601C8.4697 5.08436 8.27376 5.55667 8.27323 6.0493V40.1709C8.27376 40.6636 8.4697 41.1359 8.81805 41.4842C9.16639 41.8326 9.6387 42.0285 10.1313 42.029H41.5503C42.0429 42.0285 42.5152 41.8326 42.8635 41.4842C43.2119 41.1359 43.4078 40.6636 43.4084 40.1709V6.0493C43.4078 5.55667 43.2119 5.08436 42.8635 4.73601C42.5152 4.38767 42.0429 4.19173 41.5503 4.1912H10.1313Z" fill="black"/>
<path d="M44.7597 28.5156H6.92188V9.59668H44.7597V28.5156ZM8.27323 27.1642H43.4084V10.948H8.27323V27.1642Z" fill="black"/>
<path d="M35.9799 38.6503C35.3118 38.6503 34.6586 38.4522 34.103 38.081C33.5474 37.7097 33.1144 37.1821 32.8587 36.5648C32.603 35.9475 32.5361 35.2682 32.6665 34.6128C32.7968 33.9575 33.1186 33.3555 33.5911 32.8831C34.0635 32.4106 34.6655 32.0888 35.3209 31.9585C35.9762 31.8281 36.6555 31.895 37.2728 32.1507C37.8901 32.4064 38.4177 32.8394 38.789 33.395C39.1602 33.9506 39.3583 34.6038 39.3583 35.2719C39.3572 36.1676 39.001 37.0263 38.3676 37.6596C37.7343 38.293 36.8756 38.6492 35.9799 38.6503ZM35.9799 33.2449C35.579 33.2449 35.1871 33.3638 34.8538 33.5865C34.5204 33.8093 34.2606 34.1258 34.1072 34.4962C33.9538 34.8666 33.9137 35.2742 33.9919 35.6674C34.0701 36.0606 34.2631 36.4218 34.5466 36.7053C34.8301 36.9887 35.1913 37.1818 35.5845 37.26C35.9777 37.3382 36.3853 37.2981 36.7557 37.1447C37.126 36.9912 37.4426 36.7314 37.6654 36.3981C37.8881 36.0647 38.007 35.6728 38.007 35.2719C38.007 34.7343 37.7934 34.2188 37.4133 33.8386C37.0331 33.4585 36.5175 33.2449 35.9799 33.2449Z" fill="black"/>
<path d="M15.7065 38.6503C15.0383 38.6503 14.3852 38.4522 13.8296 38.081C13.274 37.7097 12.841 37.1821 12.5853 36.5648C12.3296 35.9475 12.2627 35.2682 12.393 34.6128C12.5234 33.9575 12.8452 33.3555 13.3176 32.8831C13.7901 32.4106 14.3921 32.0888 15.0474 31.9585C15.7028 31.8281 16.382 31.895 16.9994 32.1507C17.6167 32.4064 18.1443 32.8394 18.5155 33.395C18.8867 33.9506 19.0849 34.6038 19.0849 35.2719C19.0838 36.1676 18.7275 37.0263 18.0942 37.6596C17.4609 38.293 16.6022 38.6492 15.7065 38.6503V38.6503ZM15.7065 33.2449C15.3056 33.2449 14.9137 33.3638 14.5803 33.5865C14.247 33.8093 13.9872 34.1258 13.8338 34.4962C13.6804 34.8666 13.6402 35.2742 13.7184 35.6674C13.7966 36.0606 13.9897 36.4218 14.2732 36.7053C14.5567 36.9887 14.9178 37.1818 15.3111 37.26C15.7043 37.3382 16.1118 37.2981 16.4822 37.1447C16.8526 36.9912 17.1692 36.7314 17.3919 36.3981C17.6146 36.0647 17.7335 35.6728 17.7335 35.2719C17.7335 34.7343 17.52 34.2188 17.1398 33.8386C16.7597 33.4585 16.2441 33.2449 15.7065 33.2449Z" fill="black"/>
<path d="M38.5523 48.7851H34.0759C33.5049 48.7845 32.9574 48.5575 32.5536 48.1538C32.1498 47.7501 31.9226 47.2027 31.9219 46.6317V42.0283H40.7057V46.6317C40.7049 47.2026 40.4778 47.7499 40.0742 48.1536C39.6705 48.5573 39.1232 48.7844 38.5523 48.7851V48.7851ZM33.2732 43.3797V46.6317C33.2736 46.8444 33.3583 47.0483 33.5088 47.1987C33.6592 47.349 33.8632 47.4335 34.0759 47.4337H38.5523C38.7649 47.4334 38.9687 47.3488 39.119 47.1984C39.2693 47.0481 39.354 46.8443 39.3543 46.6317V43.3797H33.2732Z" fill="black"/>
<path d="M17.607 48.7851H13.1306C12.5596 48.7845 12.0121 48.5575 11.6083 48.1538C11.2045 47.7501 10.9773 47.2027 10.9766 46.6317V42.0283H19.7603V46.6317C19.7596 47.2026 19.5325 47.7499 19.1288 48.1536C18.7252 48.5573 18.1779 48.7844 17.607 48.7851ZM12.3279 43.3797V46.6317C12.3283 46.8444 12.413 47.0483 12.5635 47.1987C12.7139 47.349 12.9179 47.4335 13.1306 47.4337H17.607C17.8196 47.4334 18.0234 47.3488 18.1737 47.1984C18.324 47.0481 18.4086 46.8443 18.409 46.6317V43.3797H12.3279Z" fill="black"/>
<path d="M48.8157 21.1953H44.0859V19.844H47.4643V12.9744H44.7616V11.623H48.8157V21.1953Z" fill="black"/>
<path d="M7.59692 21.1953H2.86719V11.623H6.92124V12.9744H4.21854V19.844H7.59692V21.1953Z" fill="black"/>
<path d="M25.1719 10.2715H26.5232V27.8391H25.1719V10.2715Z" fill="black"/>
<path d="M21.7891 34.5967H29.8972V35.948H21.7891V34.5967Z" fill="black"/>
</svg>
