<svg width="50" height="50" viewBox="0 0 50 50" fill="none" xmlns="http://www.w3.org/2000/svg">
<path d="M31.2577 48.5724C30.5516 48.5728 29.8542 48.4173 29.2151 48.117C16.207 41.9987 7.23202 33.1217 1.77661 20.9785C1.26261 19.8128 1.22197 18.493 1.66327 17.298C2.10458 16.1029 2.99326 15.1262 4.14148 14.5744C4.71876 14.2976 5.34536 14.1385 5.98476 14.1062C6.62416 14.074 7.26359 14.1693 7.8658 14.3866C8.47829 14.6045 9.04132 14.9421 9.52213 15.3796C10.0029 15.8171 10.3919 16.3459 10.6665 16.9352C15.5388 27.2974 23.134 34.8325 33.232 39.3373C34.3281 39.8219 35.2035 40.6986 35.6865 41.7954C36.1695 42.8922 36.2253 44.1299 35.8428 45.2656C35.522 46.2281 34.9067 47.0654 34.0838 47.6588C33.2609 48.2522 32.2722 48.5719 31.2577 48.5724V48.5724ZM6.22526 15.4528C5.70449 15.4534 5.19042 15.5702 4.72053 15.7947C3.89025 16.1936 3.24759 16.8997 2.92835 17.7638C2.6091 18.6278 2.63828 19.5822 3.00972 20.4251C8.32661 32.2609 17.0867 40.919 29.7901 46.892C30.2056 47.0842 30.655 47.1925 31.1125 47.2106C31.5699 47.2287 32.0265 47.1562 32.4559 46.9974C32.8853 46.8385 33.279 46.5964 33.6146 46.285C33.9502 45.9736 34.2209 45.5989 34.4113 45.1826C34.6017 44.7662 34.708 44.3163 34.724 43.8588C34.7401 43.4013 34.6656 42.945 34.5048 42.5164C34.3441 42.0877 34.1002 41.695 33.7873 41.3608C33.4744 41.0266 33.0985 40.7575 32.6813 40.569C22.2759 35.9292 14.4597 28.1704 9.4381 17.5089C9.23899 17.081 8.95676 16.6969 8.60784 16.3791C8.25891 16.0612 7.85026 15.816 7.40566 15.6575C7.02684 15.5221 6.62755 15.4529 6.22526 15.4528V15.4528Z" fill="black"/>
<path d="M34.7571 40.9629L33.4848 40.5068L46.8483 3.23723L9.70975 16.9521L9.24219 15.6845L47.7395 1.46763C47.8601 1.42308 47.9909 1.41387 48.1166 1.44109C48.2423 1.4683 48.3576 1.53081 48.4489 1.62127C48.5403 1.71172 48.604 1.82638 48.6325 1.95176C48.661 2.07715 48.6531 2.20806 48.6098 2.32912L34.7571 40.9629Z" fill="black"/>
<path d="M17.5129 18.6615C16.436 18.6629 15.4026 18.2367 14.6399 17.4765C13.8771 16.7163 13.4475 15.6843 13.4453 14.6074L14.7967 14.5993C14.797 15.0366 14.9028 15.4673 15.1053 15.8549C15.3077 16.2425 15.6008 16.5754 15.9595 16.8254C16.3183 17.0754 16.7321 17.2351 17.1658 17.2909C17.5995 17.3467 18.0402 17.2969 18.4505 17.1458C18.8609 16.9947 19.2286 16.7468 19.5226 16.4231C19.8165 16.0994 20.028 15.7094 20.1389 15.2865C20.2498 14.8635 20.257 14.42 20.1598 13.9937C20.0625 13.5674 19.8638 13.1709 19.5804 12.8379L20.6075 11.9595C21.112 12.5503 21.4366 13.2733 21.5428 14.0429C21.649 14.8125 21.5325 15.5964 21.2069 16.3018C20.8813 17.0072 20.3604 17.6045 19.7058 18.023C19.0513 18.4414 18.2905 18.6635 17.5136 18.6629L17.5129 18.6615Z" fill="black"/>
<path d="M29.953 32.6554C29.1481 32.6561 28.3611 32.4179 27.6917 31.971C27.0223 31.5241 26.5005 30.8887 26.1925 30.1451C25.8844 29.4015 25.8039 28.5832 25.9612 27.7939C26.1185 27.0045 26.5064 26.2796 27.076 25.7108C27.549 25.2373 28.1315 24.8878 28.7719 24.6933C29.4123 24.4987 30.0908 24.4651 30.7473 24.5955C31.4037 24.7259 32.0179 25.0162 32.5354 25.4407C33.0528 25.8652 33.4575 26.4108 33.7137 27.0292C33.9699 27.6475 34.0695 28.3195 34.0039 28.9855C33.9383 29.6516 33.7093 30.2912 33.3374 30.8476C32.9655 31.4041 32.462 31.8602 31.8717 32.1755C31.2813 32.4908 30.6223 32.6557 29.953 32.6554V32.6554ZM28.0314 26.6662C27.6512 27.0464 27.3922 27.5307 27.2873 28.058C27.1824 28.5853 27.2362 29.1319 27.442 29.6286C27.6477 30.1253 27.9961 30.5499 28.4431 30.8486C28.8901 31.1473 29.4157 31.3067 29.9533 31.3067C30.491 31.3067 31.0165 31.1473 31.4635 30.8486C31.9106 30.5499 32.259 30.1253 32.4647 29.6286C32.6704 29.1319 32.7242 28.5853 32.6193 28.058C32.5144 27.5307 32.2555 27.0464 31.8753 26.6662C31.3651 26.1574 30.6739 25.8716 29.9533 25.8716C29.2327 25.8716 28.5416 26.1574 28.0314 26.6662V26.6662Z" fill="black"/>
<path d="M30.1199 20.8905C29.1789 20.89 28.2672 20.5632 27.5401 19.9658C26.813 19.3684 26.3155 18.5373 26.1324 17.6143C25.9493 16.6912 26.092 15.7332 26.536 14.9035C26.9801 14.0738 27.6981 13.4238 28.5677 13.0641C29.4373 12.7045 30.4047 12.6575 31.3051 12.9312C32.2055 13.2048 32.9831 13.7822 33.5055 14.5649C34.0279 15.3477 34.2628 16.2873 34.17 17.2238C34.0773 18.1602 33.6627 19.0356 32.997 19.7006C32.6195 20.0788 32.171 20.3786 31.6772 20.5828C31.1835 20.787 30.6542 20.8915 30.1199 20.8905V20.8905ZM30.1199 14.1074C29.4915 14.108 28.8828 14.3265 28.3974 14.7256C27.912 15.1247 27.58 15.6798 27.458 16.2962C27.336 16.9126 27.4315 17.5523 27.7282 18.1062C28.025 18.6602 28.5046 19.0941 29.0854 19.334C29.6662 19.574 30.3122 19.6051 30.9134 19.4222C31.5145 19.2392 32.0337 18.8535 32.3823 18.3307C32.731 17.8079 32.8876 17.1804 32.8255 16.555C32.7633 15.9297 32.4863 15.3453 32.0416 14.9013C31.7895 14.6487 31.49 14.4484 31.1601 14.3122C30.8303 14.1759 30.4768 14.1063 30.1199 14.1074V14.1074Z" fill="black"/>
<path d="M42.3064 17.9191C41.7786 17.9173 41.2562 17.8114 40.7693 17.6076C40.2824 17.4038 39.8404 17.106 39.4686 16.7313C38.7168 15.9775 38.2906 14.959 38.2814 13.8944C38.2722 12.8299 38.6808 11.8042 39.4195 11.0375C40.1582 10.2709 41.168 9.82449 42.2322 9.79414C43.2964 9.76378 44.33 10.1519 45.1112 10.8752L44.1875 11.8617C43.6649 11.3827 42.9757 11.1271 42.2671 11.1495C41.5586 11.1718 40.8868 11.4704 40.3955 11.9814C39.9041 12.4923 39.632 13.1752 39.6373 13.8841C39.6426 14.593 39.925 15.2717 40.424 15.7752C40.6931 16.0474 41.0176 16.2584 41.3756 16.3939C41.7335 16.5294 42.1165 16.5861 42.4983 16.5603L42.5983 17.9076C42.5001 17.9153 42.4028 17.9191 42.3064 17.9191V17.9191Z" fill="black"/>
<path d="M21.2812 25.0122L22.6326 24.9825L22.7001 28.0494L21.3487 28.0791L21.2812 25.0122Z" fill="black"/>
<path d="M20.7969 21.4722L20.9415 20.1289L24.9732 20.5629L24.8286 21.9062L20.7969 21.4722Z" fill="black"/>
<path d="M36.4297 23.0269L37.2914 21.9868L40.207 24.4026L39.3453 25.4426L36.4297 23.0269Z" fill="black"/>
<path d="M32.7578 7.70215L34.0358 7.26308L34.714 9.237L33.436 9.67607L32.7578 7.70215Z" fill="black"/>
</svg>
