<svg width="50" height="50" viewBox="0 0 50 50" fill="none" xmlns="http://www.w3.org/2000/svg">
<g clip-path="url(#clip0_23715_49354)">
<path d="M49.3333 35V33.3333C49.3333 29.9167 47.1858 27.5633 43.8642 27.3333C42.0184 27.1961 40.2059 26.7686 38.4933 26.0667C38.4833 26.0667 38.4767 26.055 38.4667 26.0517H38.4533C37.0372 25.4753 35.6981 24.7254 34.4667 23.8192C34.45 23.8058 34.44 23.7867 34.4217 23.7742C34.4033 23.7617 34.385 23.7617 34.3675 23.7517C33.1908 22.8656 32.1208 21.846 31.1792 20.7133C31.1626 20.6842 31.1439 20.6564 31.1233 20.63C31.1125 20.6192 31.0983 20.6158 31.0867 20.6058C28.3701 17.3685 26.8662 13.286 26.8333 9.06V2.5C26.844 1.84896 26.5962 1.22023 26.1441 0.751609C25.6921 0.282988 25.0727 0.012705 24.4217 0C23.8467 0.000897207 23.2725 0.0423893 22.7033 0.124167L8.90333 2.61083C8.32947 2.69541 7.80497 2.98302 7.42513 3.42142C7.0453 3.85983 6.83531 4.41994 6.83333 5V10.0983C6.83589 11.9399 6.40783 13.7566 5.58333 15.4033C5.43333 15.7483 5.28417 16.095 5.13917 16.4558C3.93131 19.4293 3.37246 22.6264 3.5 25.8333C3.49462 27.8673 3.77972 29.8916 4.34667 31.845L5.00583 37.7817C5.06269 38.2777 5.26734 38.7453 5.59321 39.1236C5.91909 39.5019 6.35115 39.7736 6.83333 39.9033V42.5C6.83333 42.942 6.65774 43.366 6.34518 43.6785C6.03262 43.9911 5.60869 44.1667 5.16667 44.1667H3.5C2.83696 44.1667 2.20107 44.4301 1.73223 44.8989C1.26339 45.3677 1 46.0036 1 46.6667L1 47.5C1 48.163 1.26339 48.7989 1.73223 49.2678C2.20107 49.7366 2.83696 50 3.5 50H42.2967C43.5875 49.9956 44.8644 49.7337 46.0528 49.2298C47.2411 48.7258 48.317 47.9898 49.2175 47.065C50.3441 45.8089 50.9773 44.1871 51 42.5C50.9646 40.8606 50.3774 39.2811 49.3333 38.0167V35ZM5.16667 25.8333C5.04265 22.8382 5.56032 19.8512 6.685 17.0725C6.82333 16.7267 6.9675 16.3942 7.11083 16.0633C8.02932 14.2084 8.50485 12.1657 8.5 10.0958V5C8.50269 4.81667 8.5717 4.64053 8.69427 4.50417C8.81684 4.36781 8.98466 4.28048 9.16667 4.25833L22.9683 1.77C23.4498 1.70152 23.9354 1.66699 24.4217 1.66667C24.6308 1.67892 24.8265 1.77346 24.9661 1.92962C25.1057 2.08577 25.1778 2.29084 25.1667 2.5V4.18833H23.5C23.279 4.18833 23.067 4.27613 22.9107 4.43241C22.7545 4.58869 22.6667 4.80065 22.6667 5.02167C22.6667 5.24268 22.7545 5.45464 22.9107 5.61092C23.067 5.7672 23.279 5.855 23.5 5.855H25.1667V8.355H23.5C23.279 8.355 23.067 8.4428 22.9107 8.59908C22.7545 8.75536 22.6667 8.96732 22.6667 9.18833C22.6667 9.40935 22.7545 9.62131 22.9107 9.77759C23.067 9.93387 23.279 10.0217 23.5 10.0217H25.1908C25.2385 10.9229 25.3499 11.8195 25.5242 12.705L24.1775 13.1217C23.9869 13.1809 23.8238 13.3065 23.718 13.4758C23.6122 13.645 23.5707 13.8466 23.601 14.0439C23.6312 14.2412 23.7313 14.4211 23.883 14.5508C24.0347 14.6805 24.2279 14.7515 24.4275 14.7508C24.5123 14.7514 24.5966 14.7387 24.6775 14.7133L25.9217 14.3258C26.1863 15.2537 26.5189 16.1609 26.9167 17.04L25.5458 17.9567C25.4548 18.0174 25.3766 18.0955 25.3157 18.1864C25.2548 18.2774 25.2125 18.3794 25.191 18.4868C25.1696 18.5941 25.1695 18.7046 25.1908 18.812C25.2121 18.9193 25.2543 19.0214 25.315 19.1125C25.3757 19.2035 25.4538 19.2817 25.5448 19.3426C25.6357 19.4035 25.7378 19.4459 25.8451 19.4673C25.9524 19.4887 26.0629 19.4888 26.1703 19.4675C26.2777 19.4463 26.3798 19.4041 26.4708 19.3433L27.6667 18.54C28.177 19.4615 28.757 20.3427 29.4017 21.1758L28.5683 22.0042C28.4119 22.1609 28.324 22.3733 28.3242 22.5948C28.3243 22.8162 28.4125 23.0285 28.5692 23.185C28.7259 23.3415 28.9383 23.4293 29.1598 23.4291C29.3812 23.429 29.5935 23.3409 29.75 23.1842L30.4817 22.4533C31.2075 23.2471 31.9938 23.9835 32.8333 24.6558L32.41 25.2875C32.3491 25.3785 32.3067 25.4806 32.2853 25.588C32.2638 25.6953 32.2637 25.8059 32.285 25.9133C32.3063 26.0207 32.3485 26.1229 32.4093 26.214C32.4701 26.305 32.5482 26.3833 32.6392 26.4442C32.7302 26.5051 32.8323 26.5474 32.9396 26.5689C33.047 26.5903 33.1576 26.5904 33.265 26.5691C33.3724 26.5479 33.4745 26.5056 33.5656 26.4449C33.6567 26.3841 33.7349 26.306 33.7958 26.215L34.175 25.6483C35.1173 26.2867 36.112 26.8443 37.1483 27.315L36.8842 28.07C36.8114 28.2784 36.8244 28.5072 36.9202 28.7061C37.0159 28.905 37.1867 29.0577 37.395 29.1308C37.4833 29.1623 37.5763 29.1784 37.67 29.1783C37.8427 29.1782 38.0111 29.1243 38.1518 29.0243C38.2926 28.9243 38.3988 28.783 38.4558 28.62L38.695 27.9375C40.3244 28.518 42.0248 28.8754 43.75 29C44.2971 29.0123 44.8358 29.1362 45.3333 29.3641C45.8308 29.5919 46.2766 29.919 46.6432 30.3251C47.0099 30.7313 47.2898 31.208 47.4658 31.7261C47.6418 32.2443 47.7101 32.7929 47.6667 33.3383V34.2758L35.155 35.9808C31.9982 36.4166 28.7834 35.8849 25.935 34.4558L22.3917 32.6858C19.9603 31.4743 17.2815 30.8422 14.565 30.8392H5.79583C5.38199 29.2026 5.17069 27.5214 5.16667 25.8333ZM6.66667 37.595L6.10167 32.5058H14.565C17.0235 32.5083 19.4479 33.0802 21.6483 34.1767L25.1917 35.9467C27.6153 37.1617 30.2889 37.7946 33 37.795C33.797 37.7934 34.593 37.7377 35.3825 37.6283L47.6667 35.9583V37.6175L34.0883 39.6492C30.9328 40.0794 27.7208 39.5473 24.8725 38.1225L21.3242 36.3492C19.1584 35.2664 16.791 34.6466 14.3725 34.5292C14.2598 34.5239 14.1472 34.5415 14.0416 34.581C13.9359 34.6205 13.8393 34.681 13.7578 34.759C13.6762 34.8369 13.6113 34.9305 13.567 35.0343C13.5227 35.138 13.4999 35.2497 13.5 35.3625V37.5C13.5 37.721 13.4122 37.933 13.2559 38.0893C13.0996 38.2455 12.8877 38.3333 12.6667 38.3333H7.49C7.28622 38.3322 7.08992 38.2565 6.93821 38.1204C6.7865 37.9844 6.68989 37.7974 6.66667 37.595ZM44.3333 42.0333C44.3329 42.599 44.108 43.1414 43.708 43.5413C43.308 43.9413 42.7657 44.1662 42.2 44.1667H38.5C38.058 44.1667 37.634 43.9911 37.3215 43.6785C37.0089 43.366 36.8333 42.942 36.8333 42.5V40.9242L42.8608 40.0217C43.2886 40.1563 43.6622 40.4241 43.9271 40.7859C44.192 41.1478 44.3343 41.5849 44.3333 42.0333ZM30.1667 41.3667V42.5C30.1667 42.942 29.9911 43.366 29.6785 43.6785C29.366 43.9911 28.942 44.1667 28.5 44.1667H15.1667C14.7246 44.1667 14.3007 43.9911 13.9882 43.6785C13.6756 43.366 13.5 42.942 13.5 42.5V39.8475C13.9859 39.6757 14.4068 39.358 14.7052 38.9377C15.0035 38.5175 15.1647 38.0154 15.1667 37.5V36.2583C17.0503 36.4562 18.8831 36.9911 20.5775 37.8375L24.1275 39.6117C26.0176 40.5574 28.064 41.1513 30.1667 41.3642V41.3667ZM47.995 45.9333C47.2516 46.691 46.365 47.2933 45.3867 47.7053C44.4085 48.1173 43.3581 48.3308 42.2967 48.3333H3.5C3.27899 48.3333 3.06702 48.2455 2.91074 48.0893C2.75446 47.933 2.66667 47.721 2.66667 47.5V46.6667C2.66667 46.4457 2.75446 46.2337 2.91074 46.0774C3.06702 45.9211 3.27899 45.8333 3.5 45.8333H5.16667C6.05072 45.8333 6.89857 45.4821 7.52369 44.857C8.14881 44.2319 8.5 43.3841 8.5 42.5V40H11.8333V42.5C11.8333 43.3841 12.1845 44.2319 12.8096 44.857C13.4348 45.4821 14.2826 45.8333 15.1667 45.8333H28.5C29.3841 45.8333 30.2319 45.4821 30.857 44.857C31.4821 44.2319 31.8333 43.3841 31.8333 42.5V41.4567C31.87 41.4567 31.9058 41.4567 31.9425 41.4567C32.7388 41.4563 33.5342 41.4029 34.3233 41.2967L35.1667 41.1733V42.5C35.1667 43.3841 35.5179 44.2319 36.143 44.857C36.7681 45.4821 37.6159 45.8333 38.5 45.8333H42.2C42.9141 45.8334 43.6138 45.6322 44.2188 45.2528C44.8238 44.8734 45.3097 44.3312 45.6206 43.6883C45.9315 43.0454 46.0549 42.3278 45.9767 41.618C45.8985 40.9082 45.6218 40.2348 45.1783 39.675L48.1783 39.2258C48.8996 40.1678 49.3039 41.314 49.3333 42.5C49.3131 43.7678 48.8381 44.9862 47.995 45.9333Z" fill="black"/>
</g>
<defs>
<clipPath id="clip0_23715_49354">
<rect width="50" height="50" fill="white"/>
</clipPath>
</defs>
</svg>
