<svg width="65" height="65" viewBox="0 0 65 65" fill="none" xmlns="http://www.w3.org/2000/svg">
<path d="M27.2002 11.4942C26.75 11.171 26.126 11.2735 25.8048 11.7237C25.4825 12.1729 25.5861 12.7969 26.0343 13.1191L28.086 14.5907C28.2627 14.7176 28.4659 14.7782 28.668 14.7782C28.9795 14.7782 29.2861 14.6337 29.4814 14.3612C29.8036 13.912 29.7001 13.288 29.2519 12.9658L27.2002 11.4942Z" fill="black"/>
<path d="M52.4382 45.1743V16.4921C52.4382 13.3428 49.8709 10.7814 46.7149 10.7814H40.4449C40.2378 10.4405 39.8794 10.2004 39.4516 10.2004H34.6022C33.3842 8.19681 31.184 6.85101 28.669 6.85101C27.8395 6.85101 27.047 7.00451 26.3088 7.27201L16.8336 2.16861C15.5319 1.46361 13.9783 1.82881 13.2146 3.02011C12.4627 4.20661 12.7898 5.76701 13.9773 6.65081L21.6673 12.3497H14.0974C12.2303 12.3497 10.7109 13.8662 10.7109 15.7314C10.7109 17.5956 12.2304 19.1121 14.0974 19.1121H24.2443C24.4362 19.2708 24.6502 19.4011 24.8586 19.5389V21.9801C20.0981 23.6031 16.8365 28.0931 16.8365 33.1534V61.1696C16.8365 62.6266 18.0239 63.8111 19.4829 63.8111H37.8511C39.312 63.8111 40.5004 62.6266 40.5004 61.1696V33.1534C40.5004 28.0921 37.2379 23.6031 32.4754 21.9792V19.5475C33.3333 18.9797 34.0663 18.2376 34.6016 17.3574H39.4516C39.8792 17.3574 40.2374 17.1174 40.4447 16.7764H45.135C45.717 16.7764 46.1896 17.2471 46.1896 17.8262V45.1739C44.6647 46.1868 43.6565 47.9167 43.6565 49.8783V58.9745C43.6565 60.4764 44.8791 61.699 46.3819 61.699H52.2449C53.7478 61.699 54.9703 60.4764 54.9703 58.9745V49.8783C54.9703 47.9169 53.9626 46.1873 52.4382 45.1743ZM15.1696 5.04451C14.8757 4.82581 14.6901 4.42831 14.9011 4.09531C15.1179 3.75741 15.5671 3.75641 15.8825 3.92831L24.2526 8.43721C23.5582 9.00981 22.9781 9.71511 22.5489 10.5128L15.1696 5.04451ZM14.0974 17.1122C13.3328 17.1122 12.7108 16.4931 12.7108 15.7314C12.7108 14.9697 13.3328 14.3496 14.0974 14.3496H21.755C21.837 15.3442 22.1264 16.2803 22.5862 17.1122H14.0974ZM18.8364 42.4273H38.5004V49.4973H18.8364V42.4273V42.4273ZM18.8364 51.4972H38.5004V54.0937H18.8364V51.4972V51.4972ZM38.5005 40.4274H18.8365V37.8309H38.5005V40.4274ZM37.8511 61.8111H19.4829C19.1323 61.8111 18.8364 61.5172 18.8364 61.1695V56.0936H38.5004V61.1695C38.5005 61.5231 38.2095 61.8111 37.8511 61.8111ZM31.2147 23.6851C35.5045 24.8432 38.5005 28.7366 38.5005 33.1534V35.831H18.8365V33.1534C18.8365 28.7366 21.8315 24.8433 26.1193 23.6851C26.5558 23.5669 26.8585 23.1715 26.8585 22.7193V20.4394C27.4389 20.597 28.0392 20.7057 28.669 20.7057C29.2942 20.7057 29.8996 20.622 30.4755 20.4662V22.7193C30.4755 23.1715 30.7782 23.567 31.2147 23.6851ZM28.6689 18.7059C25.9435 18.7059 23.7258 16.4951 23.7258 13.7784C23.7258 11.0617 25.9435 8.85091 28.6689 8.85091C31.3943 8.85091 33.611 11.0617 33.611 13.7784C33.611 16.4951 31.3944 18.7059 28.6689 18.7059ZM38.6323 15.3574H35.422C35.5413 14.8493 35.611 14.3223 35.611 13.7784C35.611 13.2348 35.5415 12.7082 35.4223 12.2004H38.599C38.6075 12.2187 38.6228 12.2323 38.6324 12.25V15.3574H38.6323ZM45.1349 14.7764H40.6322V12.7814H46.7149C48.7675 12.7814 50.4383 14.4464 50.4383 16.4922V22.4733H48.1894V17.8261C48.1894 16.1445 46.8194 14.7764 45.1349 14.7764ZM48.1894 39.9646V24.4732H50.4383V39.9646H48.1894ZM50.4383 41.9645V44.3429C50.0745 44.2693 49.6985 44.23 49.3134 44.23C48.9286 44.23 48.5529 44.2692 48.1894 44.3427V41.9645H50.4383V41.9645ZM52.9704 58.9744C52.9704 59.3738 52.6452 59.699 52.2449 59.699H46.3819C45.9884 59.699 45.6564 59.367 45.6564 58.9744V49.8782C45.6564 47.8666 47.2969 46.2299 49.3134 46.2299C51.3299 46.2299 52.9704 47.8665 52.9704 49.8782V58.9744Z" fill="black"/>
</svg>
