<svg width="51" height="51" viewBox="0 0 51 51" fill="none" xmlns="http://www.w3.org/2000/svg">
<g clip-path="url(#clip0_23715_50204)">
<path d="M1.5625 43.416H50.0977" stroke="black" stroke-width="1.46484" stroke-miterlimit="10" stroke-linecap="round" stroke-linejoin="round"/>
<path d="M27.3984 43.416V32.4564L28.9641 30.8908L30.5297 32.4564V43.416" stroke="black" stroke-width="1.46484" stroke-miterlimit="10" stroke-linecap="round" stroke-linejoin="round"/>
<path d="M36.7891 38.719V43.416" stroke="black" stroke-width="1.46484" stroke-miterlimit="10" stroke-linecap="round" stroke-linejoin="round"/>
<path d="M33.6562 43.416V32.4564L35.2219 30.8908L36.7875 32.4564V35.5879" stroke="black" stroke-width="1.46484" stroke-miterlimit="10" stroke-linecap="round" stroke-linejoin="round"/>
<path d="M39.9219 43.416V32.4564L41.4875 30.8908L43.0531 32.4564V43.416" stroke="black" stroke-width="1.46484" stroke-miterlimit="10" stroke-linecap="round" stroke-linejoin="round"/>
<path d="M46.1797 43.416V32.4564L47.7453 30.8908L49.3109 32.4564V43.416" stroke="black" stroke-width="1.46484" stroke-miterlimit="10" stroke-linecap="round" stroke-linejoin="round"/>
<path d="M14.8672 43.416V32.4564L16.4328 30.8908L17.9984 32.4564V43.416" stroke="black" stroke-width="1.46484" stroke-miterlimit="10" stroke-linecap="round" stroke-linejoin="round"/>
<path d="M21.1328 43.416V32.4564L22.6984 30.8908L24.2641 32.4564V43.416" stroke="black" stroke-width="1.46484" stroke-miterlimit="10" stroke-linecap="round" stroke-linejoin="round"/>
<path d="M2.34375 43.416V32.4564L3.90937 30.8908L5.475 32.4564V43.416" stroke="black" stroke-width="1.46484" stroke-miterlimit="10" stroke-linecap="round" stroke-linejoin="round"/>
<path d="M8.60938 35.5879V32.4565L10.175 30.8908L11.7406 32.4565V43.416" stroke="black" stroke-width="1.46484" stroke-miterlimit="10" stroke-linecap="round" stroke-linejoin="round"/>
<path d="M8.60938 43.416V38.719" stroke="black" stroke-width="1.46484" stroke-miterlimit="10" stroke-linecap="round" stroke-linejoin="round"/>
<path d="M5.47656 40.2852H8.60781" stroke="black" stroke-width="1.46484" stroke-miterlimit="10" stroke-linecap="round" stroke-linejoin="round"/>
<path d="M5.47656 34.0225H8.60781" stroke="black" stroke-width="1.46484" stroke-miterlimit="10" stroke-linecap="round" stroke-linejoin="round"/>
<path d="M11.7422 40.2852H14.8735" stroke="black" stroke-width="1.46484" stroke-miterlimit="10" stroke-linecap="round" stroke-linejoin="round"/>
<path d="M11.7422 34.0215H14.8735" stroke="black" stroke-width="1.46484" stroke-miterlimit="10" stroke-linecap="round" stroke-linejoin="round"/>
<path d="M18 40.2852H21.1312" stroke="black" stroke-width="1.46484" stroke-miterlimit="10" stroke-linecap="round" stroke-linejoin="round"/>
<path d="M18 34.0215H21.1312" stroke="black" stroke-width="1.46484" stroke-miterlimit="10" stroke-linecap="round" stroke-linejoin="round"/>
<path d="M24.2656 40.2852H27.3969" stroke="black" stroke-width="1.46484" stroke-miterlimit="10" stroke-linecap="round" stroke-linejoin="round"/>
<path d="M24.2656 34.0215H27.3969" stroke="black" stroke-width="1.46484" stroke-miterlimit="10" stroke-linecap="round" stroke-linejoin="round"/>
<path d="M30.5234 40.2852H33.6547" stroke="black" stroke-width="1.46484" stroke-miterlimit="10" stroke-linecap="round" stroke-linejoin="round"/>
<path d="M30.5234 34.0225H33.6547" stroke="black" stroke-width="1.46484" stroke-miterlimit="10" stroke-linecap="round" stroke-linejoin="round"/>
<path d="M36.7891 40.2852H39.9204" stroke="black" stroke-width="1.46484" stroke-miterlimit="10" stroke-linecap="round" stroke-linejoin="round"/>
<path d="M36.7891 34.0225H39.9204" stroke="black" stroke-width="1.46484" stroke-miterlimit="10" stroke-linecap="round" stroke-linejoin="round"/>
<path d="M43.0547 40.2852H46.1859" stroke="black" stroke-width="1.46484" stroke-miterlimit="10" stroke-linecap="round" stroke-linejoin="round"/>
<path d="M43.0547 34.0225H46.1859" stroke="black" stroke-width="1.46484" stroke-miterlimit="10" stroke-linecap="round" stroke-linejoin="round"/>
<path d="M16.4375 30.8906V19.9311" stroke="black" stroke-width="1.46484" stroke-miterlimit="10" stroke-linecap="round" stroke-linejoin="round"/>
<path d="M21.0507 13.7604C21.1582 13.1961 21.1642 12.5958 21.0463 11.9774C20.6683 9.99451 18.9846 8.44431 16.9785 8.21961C14.1416 7.90183 11.7391 10.1134 11.7391 12.8861C11.7391 13.1828 11.7671 13.4729 11.8202 13.7541C11.9825 14.612 11.6599 15.4729 11.0904 16.1348C9.99765 17.4054 9.34931 19.0679 9.39267 20.8856C9.48056 24.5733 12.5497 27.6554 16.2369 27.757C20.2189 27.8669 23.4815 24.6716 23.4815 20.7143C23.4815 18.9677 22.8431 17.373 21.7893 16.1437C21.2199 15.4797 20.887 14.6196 21.0507 13.7604Z" stroke="black" stroke-width="1.46484" stroke-miterlimit="10" stroke-linecap="round" stroke-linejoin="round"/>
<path d="M14.0859 23.0627L16.4344 25.4111" stroke="black" stroke-width="1.46484" stroke-miterlimit="10" stroke-linecap="round" stroke-linejoin="round"/>
<path d="M18.0031 21.4969L16.4375 23.0625" stroke="black" stroke-width="1.46484" stroke-miterlimit="10" stroke-linecap="round" stroke-linejoin="round"/>
<path d="M35.2266 30.8906V21.4967" stroke="black" stroke-width="1.46484" stroke-miterlimit="10" stroke-linecap="round" stroke-linejoin="round"/>
<path d="M32.0976 27.1093C29.3316 25.9018 27.3984 23.1424 27.3984 19.9315C27.3984 15.6081 30.9033 12.1032 35.2267 12.1032C39.5501 12.1032 43.055 15.6081 43.055 19.9315C43.055 24.2549 39.5501 27.7598 35.2267 27.7598" stroke="black" stroke-width="1.46484" stroke-miterlimit="10" stroke-linecap="round" stroke-linejoin="round"/>
<path d="M32.875 23.0617L35.2234 25.4102" stroke="black" stroke-width="1.46484" stroke-miterlimit="10" stroke-linecap="round" stroke-linejoin="round"/>
</g>
<defs>
<clipPath id="clip0_23715_50204">
<rect width="50" height="50" fill="white" transform="translate(0.84375 0.8125)"/>
</clipPath>
</defs>
</svg>
