<svg width="50" height="50" viewBox="0 0 50 50" fill="none" xmlns="http://www.w3.org/2000/svg">
<path d="M40.198 16.6654H9.80098C8.17637 16.6654 6.85938 15.3484 6.85938 13.7239C6.85938 12.0992 8.17637 10.7822 9.80098 10.7822H40.198C41.8227 10.7822 43.1396 12.0992 43.1396 13.7239C43.1396 15.3484 41.8227 16.6654 40.198 16.6654Z" stroke="black" stroke-width="1.95312" stroke-miterlimit="10" stroke-linecap="round" stroke-linejoin="round"/>
<path d="M9.80469 10.782L12.7464 2.60264C13.2447 1.60605 14.2633 0.976562 15.3775 0.976562H34.629C35.7433 0.976562 36.7618 1.60605 37.2601 2.60264L40.2018 10.782" stroke="black" stroke-width="1.95312" stroke-miterlimit="10" stroke-linecap="round" stroke-linejoin="round"/>
<path d="M32.3566 0.976562H17.6484V5.8793H32.3566V0.976562Z" stroke="black" stroke-width="1.95312" stroke-miterlimit="10" stroke-linecap="round" stroke-linejoin="round"/>
<path d="M9.80469 16.665L11.7658 46.3483C11.903 47.8632 13.1738 49.0232 14.6957 49.0232H38.2406" stroke="black" stroke-width="1.95312" stroke-miterlimit="10" stroke-linecap="round" stroke-linejoin="round"/>
<path d="M38.2344 39.2178L40.1955 16.665" stroke="black" stroke-width="1.95312" stroke-miterlimit="10" stroke-linecap="round" stroke-linejoin="round"/>
<path d="M38.2387 49.0232C40.9464 49.0232 43.1414 46.8282 43.1414 44.1205C43.1414 41.4128 40.9464 39.2178 38.2387 39.2178C35.531 39.2178 33.3359 41.4128 33.3359 44.1205C33.3359 46.8282 35.531 49.0232 38.2387 49.0232Z" stroke="black" stroke-width="1.95312" stroke-miterlimit="10" stroke-linecap="round" stroke-linejoin="round"/>
<path d="M19.5997 30.9604L17.7415 33.2257C17.4236 33.6131 17.25 34.0987 17.25 34.5997C17.25 35.7964 18.2201 36.7665 19.4167 36.7665H22.1528" stroke="black" stroke-width="1.95312" stroke-miterlimit="10" stroke-linecap="round" stroke-linejoin="round"/>
<path d="M30.397 30.9604L32.2551 33.2257C32.5729 33.6131 32.7466 34.0987 32.7466 34.5997C32.7466 35.7964 31.7765 36.7665 30.5799 36.7665H27.8438" stroke="black" stroke-width="1.95312" stroke-miterlimit="10" stroke-linecap="round" stroke-linejoin="round"/>
<path d="M22.0547 25.8388L23.6065 22.4592C24.1513 21.2731 25.8417 21.2736 26.386 22.4592L27.938 25.8388" stroke="black" stroke-width="1.95312" stroke-miterlimit="10" stroke-linecap="round" stroke-linejoin="round"/>
</svg>
