<svg width="50" height="50" viewBox="0 0 50 50" fill="none" xmlns="http://www.w3.org/2000/svg">
<g clip-path="url(#clip0_23715_49232)">
<path d="M49.9643 40.3385L40.8732 8.83842C40.7608 8.44931 40.405 8.18164 39.9999 8.18164H10.0001C9.59501 8.18164 9.23919 8.44931 9.12679 8.83842L0.0359553 40.3385C0.0117188 40.4202 0 40.5055 0 40.5907V47.2725C0 47.7743 0.407227 48.1815 0.909004 48.1815H49.091C49.5928 48.1815 50 47.7743 50 47.2725V40.5907C50 40.5055 49.9877 40.4202 49.9643 40.3385ZM48.182 46.3635H1.81827V40.7193L10.6841 9.99991H39.3165L48.182 40.7196V46.3635Z" fill="black"/>
<path d="M20.909 1.81836C20.4072 1.81836 20 2.22559 20 2.72736V16.3638C20 16.8655 20.4072 17.2728 20.909 17.2728C21.4108 17.2728 21.818 16.8655 21.818 16.3638V2.72736C21.818 2.22559 21.4108 1.81836 20.909 1.81836Z" fill="black"/>
<path d="M29.0887 1.81836C28.5869 1.81836 28.1797 2.22559 28.1797 2.72736V16.3638C28.1797 16.8655 28.5869 17.2728 29.0887 17.2728C29.5905 17.2728 29.9977 16.8655 29.9977 16.3638V2.72736C29.9977 2.22559 29.5905 1.81836 29.0887 1.81836Z" fill="black"/>
<path d="M29.0908 4.54541H20.909C20.4072 4.54541 20 4.95264 20 5.45441C20 5.95619 20.4072 6.36342 20.909 6.36342H29.0908C29.5926 6.36342 29.9998 5.95619 29.9998 5.45441C29.9998 4.95264 29.5926 4.54541 29.0908 4.54541Z" fill="black"/>
<path d="M29.0908 8.18164H20.909C20.4072 8.18164 20 8.58887 20 9.09064C20 9.59242 20.4072 9.99965 20.909 9.99965H29.0908C29.5926 9.99965 29.9998 9.59242 29.9998 9.09064C29.9998 8.58887 29.5926 8.18164 29.0908 8.18164Z" fill="black"/>
<path d="M29.0908 11.8179H20.909C20.4072 11.8179 20 12.2251 20 12.7269C20 13.2287 20.4072 13.6359 20.909 13.6359H29.0908C29.5926 13.6359 29.9998 13.2287 29.9998 12.7269C29.9998 12.2251 29.5926 11.8179 29.0908 11.8179Z" fill="black"/>
<path d="M43.626 38.9327L38.9609 12.5689C38.8842 12.1348 38.5068 11.8184 38.066 11.8184H12.8746C12.445 11.8184 12.0743 12.1183 11.985 12.5383L6.38694 38.902C6.33021 39.1702 6.39706 39.4499 6.56965 39.663C6.7425 39.876 7.00138 39.9999 7.27597 39.9999H42.7306C42.9993 39.9999 43.2542 39.8808 43.4273 39.6752C43.5999 39.4696 43.6729 39.1977 43.626 38.9327ZM8.39804 38.1819L13.61 13.6364H37.3027L41.6463 38.1819H8.39804Z" fill="black"/>
</g>
<defs>
<clipPath id="clip0_23715_49232">
<rect width="50" height="50" fill="white"/>
</clipPath>
</defs>
</svg>
