<svg width="51" height="51" viewBox="0 0 51 51" fill="none" xmlns="http://www.w3.org/2000/svg">
<g clip-path="url(#clip0_23715_50092)">
<path d="M31.5637 40.4502H4.9375C2.67577 40.4502 0.835938 38.6104 0.835938 36.3486V15.2549C0.835938 12.9931 2.67577 11.1533 4.9375 11.1533H10.9922C11.5316 11.1533 11.9688 11.5905 11.9688 12.1299C11.9688 12.6693 11.5316 13.1064 10.9922 13.1064H4.9375C3.75266 13.1064 2.78906 14.07 2.78906 15.2549V36.3486C2.78906 37.5335 3.75266 38.4971 4.9375 38.4971H31.5637C32.1031 38.4971 32.5403 38.9342 32.5403 39.4736C32.5403 40.013 32.1031 40.4502 31.5637 40.4502Z" fill="black"/>
<path d="M14.8984 13.1064C14.6417 13.1064 14.3896 13.0019 14.208 12.8203C14.0264 12.6388 13.9219 12.3866 13.9219 12.1299C13.9219 11.8732 14.0264 11.621 14.208 11.4394C14.3896 11.2578 14.6417 11.1533 14.8984 11.1533C15.1552 11.1533 15.4073 11.2578 15.5889 11.4394C15.7705 11.621 15.875 11.8732 15.875 12.1299C15.875 12.3866 15.7705 12.6388 15.5889 12.8203C15.4073 13.0019 15.1552 13.1064 14.8984 13.1064Z" fill="black"/>
<path d="M46.7344 40.4502H39.3762C38.8368 40.4502 38.3996 40.013 38.3996 39.4736C38.3996 38.9342 38.8368 38.4971 39.3762 38.4971H46.7344C47.9192 38.4971 48.8828 37.5335 48.8828 36.3486V15.2549C48.8828 14.07 47.9192 13.1064 46.7344 13.1064H18.8047C18.2653 13.1064 17.8281 12.6693 17.8281 12.1299C17.8281 11.5905 18.2653 11.1533 18.8047 11.1533H46.7344C48.9961 11.1533 50.8359 12.9931 50.8359 15.2549V36.3486C50.8359 38.6104 48.9961 40.4502 46.7344 40.4502Z" fill="black"/>
<path d="M35.4688 40.4502C35.212 40.4502 34.9603 40.3457 34.7783 40.1641C34.5967 39.9825 34.4922 39.7304 34.4922 39.4736C34.4922 39.2169 34.5967 38.9648 34.7783 38.7832C34.9603 38.6016 35.212 38.4971 35.4688 38.4971C35.7259 38.4971 35.9776 38.6016 36.1592 38.7832C36.3408 38.9648 36.4453 39.2169 36.4453 39.4736C36.4453 39.7304 36.3408 39.9825 36.1592 40.1641C35.9776 40.3457 35.7259 40.4502 35.4688 40.4502Z" fill="black"/>
<path d="M23.1641 33.8587C22.7434 33.8587 22.3695 33.5886 22.2372 33.1892L18.4766 21.8294L14.7165 33.1888C14.5841 33.5886 14.2103 33.8587 13.7891 33.8587C13.3684 33.8587 12.9945 33.5886 12.8622 33.1888L8.17468 19.0287C8.00531 18.5167 8.28302 17.9644 8.79495 17.795C9.30688 17.6252 9.85925 17.9029 10.029 18.4149L13.7895 29.7747L17.5497 18.4149C17.682 18.0151 18.0559 17.7454 18.477 17.7454C18.8982 17.7454 19.2716 18.0155 19.404 18.4149L23.1645 29.7747L26.9247 18.4149C27.0944 17.9029 27.6472 17.6252 28.1587 17.795C28.6707 17.9644 28.9484 18.5167 28.779 19.0287L24.0915 33.1888C23.9591 33.5886 23.5853 33.8587 23.1641 33.8587V33.8587Z" fill="black"/>
<path d="M38.5599 33.8584H37.5963C34.8463 33.8584 32.6094 31.6215 32.6094 28.8714V22.7321C32.6094 19.9821 34.8463 17.7451 37.5963 17.7451H38.5599C41.3096 17.7451 43.5469 19.9824 43.5469 22.7321C43.5469 23.2715 43.1097 23.7086 42.5703 23.7086C42.0309 23.7086 41.5938 23.2715 41.5938 22.7321C41.5938 21.0593 40.2327 19.6982 38.5599 19.6982H37.5963C35.9232 19.6982 34.5625 21.0593 34.5625 22.7321V28.8714C34.5625 30.5446 35.9232 31.9053 37.5963 31.9053H38.5599C40.2327 31.9053 41.5938 30.5442 41.5938 28.8714C41.5938 28.3324 42.0309 27.8949 42.5703 27.8949C43.1097 27.8949 43.5469 28.3324 43.5469 28.8714C43.5469 31.6215 41.3096 33.8584 38.5599 33.8584Z" fill="black"/>
</g>
<defs>
<clipPath id="clip0_23715_50092">
<rect width="50" height="50" fill="white" transform="translate(0.84375 0.8125)"/>
</clipPath>
</defs>
</svg>
