<svg width="51" height="51" viewBox="0 0 51 51" fill="none" xmlns="http://www.w3.org/2000/svg">
<g clip-path="url(#clip0_23715_49884)">
<path d="M39.7912 18.9565C39.5808 18.7987 39.3249 18.7134 39.0619 18.7134H29.7509L38.9647 2.64409C39.3004 2.06269 39.1012 1.31936 38.5198 0.983643C38.3371 0.878234 38.1302 0.822054 37.9194 0.820801H24.9861C24.5158 0.824333 24.0896 1.09897 23.8921 1.52584L11.5424 27.4166C11.2604 28.0258 11.5257 28.7483 12.1349 29.0302C12.2922 29.103 12.4631 29.1413 12.6364 29.1425H21.9229L15.2375 49.3203C15.1206 49.8838 15.4149 50.452 15.9425 50.6818C16.4678 50.9571 17.1149 50.8133 17.4741 50.3414L40.0343 20.6582C40.4371 20.1211 40.3283 19.3592 39.7912 18.9565ZM19.9538 43.1454L24.8645 28.2187C25.0793 27.5827 24.7379 26.8929 24.1019 26.6781C23.9794 26.6368 23.8512 26.6152 23.7218 26.6142H14.654L25.7397 3.13023H35.8529L26.6148 19.321C26.2791 19.9024 26.4783 20.6458 27.0597 20.9815C27.2424 21.0869 27.4493 21.1431 27.6602 21.1443H36.6307L19.9538 43.1454Z" fill="black"/>
</g>
<defs>
<clipPath id="clip0_23715_49884">
<rect width="50" height="50" fill="white" transform="translate(0.84375 0.8125)"/>
</clipPath>
</defs>
</svg>
