<svg width="65" height="65" viewBox="0 0 65 65" fill="none" xmlns="http://www.w3.org/2000/svg">
<path d="M23.5147 47.6782C21.71 47.6782 20.2422 49.1435 20.2422 50.9443C20.2422 52.7456 21.71 54.2109 23.5147 54.2109C25.3184 54.2109 26.7862 52.7456 26.7862 50.9443C26.7862 49.1436 25.3184 47.6782 23.5147 47.6782ZM23.5147 52.2109C22.8135 52.2109 22.2422 51.6425 22.2422 50.9443C22.2422 50.2461 22.8135 49.6782 23.5147 49.6782C24.2159 49.6782 24.7862 50.2461 24.7862 50.9443C24.7862 51.6425 24.2159 52.2109 23.5147 52.2109Z" fill="black"/>
<path d="M63.7431 20.7399C63.6269 20.5011 63.4199 20.3185 63.1689 20.2321L19.83 5.30984C19.1972 5.09064 18.5166 5.13064 17.9111 5.42454C17.3076 5.71844 16.8554 6.22824 16.6377 6.85964L13 17.3635C12.5498 18.6697 13.2462 20.0993 14.5538 20.5495L15.181 20.7654L13.4962 25.6378C13.2149 26.4552 13.2696 27.3351 13.6515 28.1153C14.0324 28.8941 14.6914 29.4766 15.5059 29.7549L21.1924 31.7131L20.4181 33.9492C19.8702 35.5473 20.7237 37.2964 22.3223 37.8481L24.3312 38.5392L22.7153 43.2031C19.9372 43.4862 17.5936 45.2343 16.4555 47.6543H11.8517V44.6401C11.8517 42.8711 10.4103 41.4316 8.63775 41.4316H3.69625C2.67485 41.4318 1.84375 42.2634 1.84375 43.2854V58.6008C1.84375 59.6228 2.67485 60.4538 3.69625 60.4538H8.63765C10.4102 60.4538 11.8516 59.0148 11.8516 57.2458V54.2316H16.4546C17.6999 56.8802 20.3918 58.7233 23.5137 58.7233C27.8145 58.7233 31.3134 55.2336 31.3134 50.9445C31.3134 48.7569 30.4008 46.7807 28.9394 45.3656L30.5614 40.6829L33.1923 41.5881C33.5185 41.7014 33.8565 41.7575 34.1934 41.7575C34.6524 41.7575 35.1094 41.653 35.5362 41.446C36.2764 41.0871 36.83 40.4646 37.0966 39.694L37.8713 37.4568L46.2226 40.3327C46.5712 40.4533 46.9268 40.5099 47.2774 40.5099C48.6231 40.5099 49.8848 39.6676 50.3506 38.3287L50.7116 37.2857L52.7314 37.9815C53.0234 38.0821 53.3222 38.1299 53.6152 38.1299C54.7441 38.1299 55.8007 37.4234 56.1884 36.3018L57.4482 32.6641C57.9345 31.251 57.1806 29.7017 55.7636 29.209L53.7468 28.5146L54.188 27.2399L62.0107 25.2597C62.3378 25.1772 62.6005 24.936 62.7109 24.6176L63.7891 21.5043C63.876 21.2536 63.8593 20.9787 63.7431 20.7399ZM9.85155 57.2458C9.85155 57.9118 9.30665 58.4538 8.63765 58.4538H3.84375V43.4318H8.63765C9.30655 43.4318 9.85155 43.9738 9.85155 44.6403V57.2458ZM11.8516 52.2316V49.6545H15.8301C15.7593 50.0751 15.7139 50.5042 15.7139 50.9445C15.7139 51.3838 15.7594 51.8119 15.8299 52.2316H11.8516ZM29.3134 50.9445C29.3134 54.131 26.7119 56.7233 23.5137 56.7233C20.3155 56.7233 17.7139 54.131 17.7139 50.9445C17.7139 47.7565 20.3155 45.1628 23.5137 45.1628C26.7119 45.1628 29.3134 47.7565 29.3134 50.9445ZM27.254 44.1189C26.5047 43.7085 25.6788 43.4251 24.8064 43.2789L26.2229 39.1904L28.6698 40.0322L27.254 44.1189ZM35.2061 39.0402C35.1143 39.3058 34.9219 39.5212 34.6631 39.6466C34.4024 39.7726 34.1123 39.7902 33.8447 39.6974L22.9736 35.9572C22.417 35.7648 22.1191 35.1554 22.3095 34.6012L23.084 32.3646L35.9798 36.8054L35.2061 39.0402ZM46.8731 38.4421L16.1552 27.8635C15.8447 27.7575 15.5937 27.5349 15.4482 27.2365C15.3017 26.9367 15.2803 26.6003 15.3868 26.2897L17.0721 21.4167L30.6416 26.0891C30.8154 26.1501 31.006 26.1599 31.1866 26.1194L42.2646 23.6218L52.1461 27.0227L48.4609 37.6735C48.2363 38.321 47.5264 38.6638 46.8731 38.4421ZM55.1104 31.0988C55.4854 31.2297 55.6856 31.6398 55.5577 32.0114L54.2979 35.6476C54.1719 36.0143 53.753 36.216 53.3819 36.0905L51.3655 35.3962L53.093 30.4041L55.1104 31.0988ZM60.9971 23.4538L53.4628 25.361L42.6465 21.6383C42.542 21.6017 42.4317 21.5836 42.3213 21.5836C42.2481 21.5836 42.1738 21.5919 42.1016 21.608L31.0235 24.1057L15.2051 18.6589C14.9405 18.5676 14.7997 18.279 14.8905 18.0163L18.5282 7.51244C18.5878 7.34154 18.7148 7.25804 18.7861 7.22334C18.8574 7.18774 19.0029 7.14034 19.1777 7.19994L61.5713 21.7966L60.9971 23.4538Z" fill="black"/>
</svg>
