<svg width="50" height="50" viewBox="0 0 50 50" fill="none" xmlns="http://www.w3.org/2000/svg">
<path d="M48.5391 15.5859C48.5391 14.3378 48.0447 13.1406 47.1583 12.2573C46.2797 11.3747 45.0793 10.8789 43.832 10.8789H6.17578C4.92852 10.8789 3.72813 11.3747 2.84951 12.2573C1.96309 13.1406 1.46875 14.3378 1.46875 15.5859V34.4141C1.46875 35.6622 1.96309 36.8594 2.84951 37.7427C3.72813 38.6253 4.92852 39.1211 6.17578 39.1211H15.2055C16.4606 39.1211 17.6531 38.6253 18.5396 37.7427C19.4104 36.8711 20.5714 35.7062 21.6775 34.6047C22.5563 33.7214 23.7566 33.2255 25.0039 33.2255C26.2512 33.2255 27.4515 33.7214 28.3303 34.6047C29.4364 35.7062 30.5974 36.8711 31.4682 37.7427C32.3547 38.6253 33.5472 39.1211 34.8023 39.1211H43.832C45.0793 39.1211 46.2797 38.6253 47.1583 37.7427C48.0447 36.8594 48.5391 35.6622 48.5391 34.4141V15.5859Z" stroke="black" stroke-width="1.6" stroke-miterlimit="10" stroke-linecap="round" stroke-linejoin="round"/>
<path d="M14.0195 20.293C16.6163 20.293 18.7266 22.4025 18.7266 25C18.7266 27.5975 16.6163 29.707 14.0195 29.707C11.4228 29.707 9.3125 27.5975 9.3125 25C9.3125 22.4025 11.4228 20.293 14.0195 20.293Z" stroke="black" stroke-width="1.6" stroke-miterlimit="10" stroke-linecap="round" stroke-linejoin="round"/>
<path d="M35.9883 20.293C38.5851 20.293 40.6953 22.4025 40.6953 25C40.6953 27.5975 38.5851 29.707 35.9883 29.707C33.3915 29.707 31.2812 27.5975 31.2812 25C31.2812 22.4025 33.3915 20.293 35.9883 20.293Z" stroke="black" stroke-width="1.6" stroke-miterlimit="10" stroke-linecap="round" stroke-linejoin="round"/>
</svg>
