<svg width="50" height="50" viewBox="0 0 50 50" fill="none" xmlns="http://www.w3.org/2000/svg">
<g clip-path="url(#clip0_24404_47670)">
<mask id="mask0_24404_47670" style="mask-type:luminance" maskUnits="userSpaceOnUse" x="0" y="0" width="51" height="50">
<path d="M0.015625 -0.000175476H50.0156V50H0.015625V-0.000175476Z" fill="white"/>
</mask>
<g mask="url(#mask0_24404_47670)">
<path d="M32.3939 32.3217C30.9748 32.3217 29.8203 33.4762 29.8203 34.8953V37.8633H34.9676V34.8953C34.9676 33.4762 33.8131 32.3217 32.3939 32.3217Z" stroke="black" stroke-width="1.46485" stroke-miterlimit="10" stroke-linecap="round" stroke-linejoin="round"/>
<path d="M20.1127 32.3217C18.6936 32.3217 17.5391 33.4762 17.5391 34.8953V37.8633H22.6863V34.8953C22.6863 33.4762 21.5317 32.3217 20.1127 32.3217Z" stroke="black" stroke-width="1.46485" stroke-miterlimit="10" stroke-linecap="round" stroke-linejoin="round"/>
<path d="M19.9951 28.7587C16.6353 28.8225 13.9766 31.6371 13.9766 34.9977V37.8628H17.54V34.958C17.54 33.5643 18.6217 32.3757 20.0144 32.3231C21.4784 32.2676 22.6873 33.4426 22.6873 34.8948V48.716C22.6873 49.0206 22.9343 49.2676 23.239 49.2676H25.6992C26.0038 49.2676 26.2509 49.0206 26.2509 48.716V34.8948C26.2509 31.4712 23.4332 28.6936 19.9951 28.7587Z" stroke="black" stroke-width="1.46485" stroke-miterlimit="10" stroke-linecap="round" stroke-linejoin="round"/>
<path d="M34.6206 37.8635H26.25V41.1895H34.6206C35.5391 41.1895 36.2836 40.4448 36.2836 39.5265C36.2836 38.608 35.5391 37.8635 34.6206 37.8635Z" stroke="black" stroke-width="1.46485" stroke-miterlimit="10" stroke-linecap="round" stroke-linejoin="round"/>
<path d="M34.6206 44.5158H26.25V47.8418H34.6206C35.5391 47.8418 36.2836 47.0972 36.2836 46.1788C36.2836 45.2603 35.5391 44.5158 34.6206 44.5158Z" stroke="black" stroke-width="1.46485" stroke-miterlimit="10" stroke-linecap="round" stroke-linejoin="round"/>
<path d="M32.2686 28.7587C28.9086 28.8225 26.25 31.6372 26.25 34.9978V37.8628H29.8135V34.958C29.8135 33.5642 30.8951 32.3757 32.2879 32.323C33.7521 32.2677 34.9608 33.4427 34.9608 34.8948V37.8978C35.716 38.0549 36.2835 38.7239 36.2835 39.5257C36.2835 40.3275 35.716 40.9965 34.9608 41.1536V44.5498C35.716 44.7069 36.2835 45.3759 36.2835 46.1776C36.2835 46.9794 35.716 47.6484 34.9608 47.8056V48.716C34.9608 49.0206 35.2078 49.2676 35.5125 49.2676H37.9728C38.2774 49.2676 38.5244 49.0206 38.5244 48.716V34.8948C38.5244 31.4712 35.7067 28.6936 32.2686 28.7587Z" stroke="black" stroke-width="1.46485" stroke-miterlimit="10" stroke-linecap="round" stroke-linejoin="round"/>
<path d="M35.8246 17.3749C34.6538 17.3342 33.497 16.8174 32.6736 15.8227C32.4872 15.5974 32.1485 15.5974 31.9621 15.8227C30.2436 17.8992 27.0776 17.8961 25.3617 15.8227C25.1753 15.5974 24.8367 15.5974 24.6502 15.8227C22.9343 17.8961 19.7685 17.8992 18.0499 15.8227C17.8634 15.5974 17.5248 15.5974 17.3384 15.8227C16.5151 16.8174 15.3581 17.3342 14.1875 17.3749" stroke="black" stroke-width="1.46485" stroke-miterlimit="10" stroke-linecap="round" stroke-linejoin="round"/>
<path d="M36.517 23.3512C35.1242 23.5275 33.6614 23.0209 32.6761 21.8304C32.4896 21.6051 32.1511 21.6051 31.9646 21.8304C30.2461 23.9071 27.0802 23.9039 25.3642 21.8304C25.1778 21.6051 24.8392 21.6051 24.6527 21.8304C22.9367 23.9039 19.771 23.9071 18.0523 21.8304C17.8659 21.6051 17.5272 21.6051 17.3409 21.8304C16.3556 23.0209 14.8927 23.5275 13.5 23.3512" stroke="black" stroke-width="1.46485" stroke-miterlimit="10" stroke-linecap="round" stroke-linejoin="round"/>
<path d="M35.0927 11.2352C34.1852 11.0439 33.3281 10.5563 32.6787 9.77187C32.4923 9.54648 32.1537 9.54648 31.9673 9.77187C30.2486 11.8484 27.0828 11.8453 25.3668 9.77187C25.1805 9.54648 24.8418 9.54648 24.6554 9.77187C22.9394 11.8453 19.7735 11.8484 18.055 9.77187C17.8686 9.54648 17.5299 9.54648 17.3436 9.77187C16.6941 10.5563 15.8371 11.0439 14.9297 11.2352" stroke="black" stroke-width="1.46485" stroke-miterlimit="10" stroke-linecap="round" stroke-linejoin="round"/>
<path d="M23.2976 4.05867H10.156C9.72906 4.05867 9.37144 4.38201 9.32867 4.80691L5.54322 36.9484C5.51978 37.1823 5.59615 37.4151 5.75387 37.5895C5.91148 37.7639 6.13551 37.8633 6.37056 37.8633H13.9733V34.8953C13.9733 31.5112 16.7264 28.7581 20.1104 28.7581C23.4945 28.7581 26.2476 31.5112 26.2476 34.8953C26.2476 31.5112 29.0007 28.7581 32.3847 28.7581C35.7688 28.7581 38.5219 31.5112 38.5219 34.8953V37.8633H43.6426C43.8777 37.8633 44.1018 37.7639 44.2594 37.5895C44.417 37.4151 44.4935 37.1823 44.47 36.9484L40.6846 4.80691C40.6418 4.38201 40.2842 4.05867 39.8574 4.05867H26.7156" stroke="black" stroke-width="1.46485" stroke-miterlimit="10" stroke-linecap="round" stroke-linejoin="round"/>
<path d="M46.2055 23.2917L43.9119 3.66481C43.7436 1.99332 42.35 0.733058 40.6701 0.733058H9.34215C7.66227 0.733058 6.26871 1.99332 6.10035 3.66481L2.13385 37.6051C1.94069 39.5257 3.45192 41.1895 5.37565 41.1895H22.6836V34.8956C22.6836 33.4764 21.5291 32.3219 20.1099 32.3219C18.6909 32.3219 17.5363 33.4764 17.5363 34.8956V37.8636H13.9728V34.8956C13.9728 31.5115 16.7259 28.7585 20.1099 28.7585C23.494 28.7585 26.247 31.5115 26.247 34.8956C26.247 31.5115 29.0002 28.7585 32.3842 28.7585C35.7683 28.7585 38.5213 31.5115 38.5213 34.8956V41.1895H44.6366C46.5669 41.1895 48.071 39.5191 47.8783 37.605L46.605 26.7097" stroke="black" stroke-width="1.46485" stroke-miterlimit="10" stroke-linecap="round" stroke-linejoin="round"/>
</g>
</g>
<defs>
<clipPath id="clip0_24404_47670">
<rect width="50" height="50.0002" fill="white"/>
</clipPath>
</defs>
</svg>
