<svg width="50" height="50" viewBox="0 0 50 50" fill="none" xmlns="http://www.w3.org/2000/svg">
<path d="M28.1368 3.13115C26.815 3.13115 25.7396 2.05576 25.7396 0.733887C25.7396 0.328516 25.4109 0 25.0057 0C24.6004 0 24.2718 0.328516 24.2718 0.733887C24.2718 2.05576 23.1963 3.13115 21.8745 3.13115C21.4692 3.13115 21.1406 3.45967 21.1406 3.86504C21.1406 4.27041 21.4692 4.59893 21.8745 4.59893C23.1963 4.59893 24.2718 5.67422 24.2718 6.99619C24.2718 7.40156 24.6004 7.73008 25.0057 7.73008C25.4109 7.73008 25.7396 7.40156 25.7396 6.99619C25.7396 5.67432 26.815 4.59893 28.1368 4.59893C28.5421 4.59893 28.8707 4.27041 28.8707 3.86504C28.8706 3.45957 28.5421 3.13115 28.1368 3.13115ZM25.0057 4.73262C24.7643 4.39971 24.471 4.10635 24.1381 3.86504C24.4711 3.62363 24.7644 3.33027 25.0057 2.99746C25.2471 3.33037 25.5403 3.62373 25.8732 3.86504C25.5404 4.10635 25.2471 4.39971 25.0057 4.73262Z" fill="black"/>
<path d="M44.5743 14.0901C43.2525 14.0901 42.177 13.0147 42.177 11.6929C42.177 11.2875 41.8484 10.959 41.4432 10.959C41.0379 10.959 40.7093 11.2875 40.7093 11.6929C40.7093 13.0147 39.6338 14.0901 38.312 14.0901C37.9067 14.0901 37.5781 14.4187 37.5781 14.824C37.5781 15.2294 37.9067 15.5579 38.312 15.5579C39.6338 15.5579 40.7093 16.6333 40.7093 17.9552C40.7093 18.3605 41.0379 18.6891 41.4432 18.6891C41.8484 18.6891 42.177 18.3605 42.177 17.9552C42.177 16.6333 43.2525 15.5579 44.5743 15.5579C44.9796 15.5579 45.3082 15.2294 45.3082 14.824C45.3082 14.4186 44.9797 14.0901 44.5743 14.0901ZM41.4433 15.6916C41.2019 15.3587 40.9086 15.0653 40.5757 14.824C40.9087 14.5826 41.202 14.2893 41.4433 13.9564C41.6847 14.2894 41.9779 14.5827 42.3108 14.824C41.9779 15.0653 41.6847 15.3587 41.4433 15.6916Z" fill="black"/>
<path d="M11.6993 10.1761C10.3775 10.1761 9.30205 9.10078 9.30205 7.77881C9.30205 7.37344 8.97344 7.04492 8.56816 7.04492C8.16289 7.04492 7.83428 7.37344 7.83428 7.77881C7.83428 9.10068 6.75879 10.1761 5.43701 10.1761C5.03174 10.1761 4.70312 10.5046 4.70312 10.91C4.70312 11.3153 5.03174 11.6438 5.43701 11.6438C6.75879 11.6438 7.83428 12.7192 7.83428 14.0411C7.83428 14.4465 8.16289 14.775 8.56816 14.775C8.97344 14.775 9.30205 14.4465 9.30205 14.0411C9.30205 12.7192 10.3775 11.6438 11.6993 11.6438C12.1046 11.6438 12.4332 11.3153 12.4332 10.91C12.4332 10.5046 12.1046 10.1761 11.6993 10.1761ZM8.56816 11.7776C8.32676 11.4447 8.0335 11.1514 7.70059 10.9101C8.03359 10.6687 8.32686 10.3753 8.56816 10.0425C8.80957 10.3754 9.10283 10.6688 9.43574 10.9101C9.10293 11.1514 8.80957 11.4447 8.56816 11.7776Z" fill="black"/>
<path d="M2.3042 46.2158C1.89893 46.2158 1.57031 46.5443 1.57031 46.9497V49.2654C1.57031 49.6708 1.89893 49.9993 2.3042 49.9993C2.70947 49.9993 3.03809 49.6708 3.03809 49.2654V46.9497C3.03809 46.5443 2.70947 46.2158 2.3042 46.2158Z" fill="black"/>
<path d="M13.3284 24.5699C13.2926 24.5366 13.2543 24.5078 13.2142 24.483V23.4329C13.2142 20.8702 11.1291 18.7852 8.56641 18.7852C6.00371 18.7852 3.91865 20.8702 3.91865 23.4329V24.4827C3.8791 24.5073 3.84111 24.5357 3.80576 24.5687C2.38516 25.8884 1.57031 27.7569 1.57031 29.6952V43.9483C1.57031 44.3537 1.89893 44.6822 2.3042 44.6822C2.70947 44.6822 3.03809 44.3537 3.03809 43.9483V29.6952C3.03809 28.6294 3.35068 27.5905 3.91875 26.7056V33.6091C3.91875 35.7402 5.65264 37.474 7.78369 37.474H9.34922C11.4804 37.474 13.2142 35.7401 13.2142 33.6091V26.7056C13.7821 27.5906 14.0948 28.6294 14.0948 29.6952V49.2646C14.0948 49.67 14.4234 49.9985 14.8287 49.9985C15.234 49.9985 15.5626 49.67 15.5626 49.2646V29.6952C15.5625 27.7577 14.7482 25.8896 13.3284 24.5699ZM11.7465 33.6091C11.7465 34.931 10.671 36.0063 9.34922 36.0063H7.78369C6.46191 36.0063 5.38643 34.9311 5.38643 33.6091V23.433C5.38643 21.6795 6.81309 20.2529 8.5665 20.2529C10.3199 20.2529 11.7466 21.6795 11.7466 23.433L11.7465 33.6091Z" fill="black"/>
<path d="M8.65986 21.1357H8.56201C8.15674 21.1357 7.82812 21.4643 7.82812 21.8696C7.82812 22.275 8.15674 22.6035 8.56201 22.6035H8.65986C9.06514 22.6035 9.39375 22.275 9.39375 21.8696C9.39375 21.4643 9.06514 21.1357 8.65986 21.1357Z" fill="black"/>
<path d="M10.2302 23.4834H10.1323C9.72705 23.4834 9.39844 23.8119 9.39844 24.2173C9.39844 24.6227 9.72705 24.9512 10.1323 24.9512H10.2302C10.6354 24.9512 10.9641 24.6227 10.9641 24.2173C10.964 23.8118 10.6354 23.4834 10.2302 23.4834Z" fill="black"/>
<path d="M7.08955 23.4834H6.9917C6.58643 23.4834 6.25781 23.8119 6.25781 24.2173C6.25781 24.6227 6.58643 24.9512 6.9917 24.9512H7.08955C7.49482 24.9512 7.82344 24.6227 7.82344 24.2173C7.82344 23.8118 7.49482 23.4834 7.08955 23.4834Z" fill="black"/>
<path d="M10.2302 26.6152H10.1323C9.72705 26.6152 9.39844 26.9437 9.39844 27.3491C9.39844 27.7545 9.72705 28.083 10.1323 28.083H10.2302C10.6354 28.083 10.9641 27.7545 10.9641 27.3491C10.964 26.9437 10.6354 26.6152 10.2302 26.6152Z" fill="black"/>
<path d="M7.08955 26.6152H6.9917C6.58643 26.6152 6.25781 26.9437 6.25781 27.3491C6.25781 27.7545 6.58643 28.083 6.9917 28.083H7.08955C7.49482 28.083 7.82344 27.7545 7.82344 27.3491C7.82344 26.9437 7.49482 26.6152 7.08955 26.6152Z" fill="black"/>
<path d="M10.2302 29.7461H10.1323C9.72705 29.7461 9.39844 30.0746 9.39844 30.48C9.39844 30.8854 9.72705 31.2139 10.1323 31.2139H10.2302C10.6354 31.2139 10.9641 30.8854 10.9641 30.48C10.964 30.0745 10.6354 29.7461 10.2302 29.7461Z" fill="black"/>
<path d="M7.08955 29.7461H6.9917C6.58643 29.7461 6.25781 30.0746 6.25781 30.48C6.25781 30.8854 6.58643 31.2139 6.9917 31.2139H7.08955C7.49482 31.2139 7.82344 30.8854 7.82344 30.48C7.82344 30.0745 7.49482 29.7461 7.08955 29.7461Z" fill="black"/>
<path d="M10.2302 32.876H10.1323C9.72705 32.876 9.39844 33.2045 9.39844 33.6099C9.39844 34.0152 9.72705 34.3437 10.1323 34.3437H10.2302C10.6354 34.3437 10.9641 34.0152 10.9641 33.6099C10.964 33.2044 10.6354 32.876 10.2302 32.876Z" fill="black"/>
<path d="M7.08955 32.876H6.9917C6.58643 32.876 6.25781 33.2045 6.25781 33.6099C6.25781 34.0152 6.58643 34.3437 6.9917 34.3437H7.08955C7.49482 34.3437 7.82344 34.0152 7.82344 33.6099C7.82344 33.2044 7.49482 32.876 7.08955 32.876Z" fill="black"/>
<path d="M31.2573 32.876C30.8521 32.876 30.5234 33.2045 30.5234 33.6099V49.2654C30.5234 49.6708 30.8521 49.9993 31.2573 49.9993C31.6626 49.9993 31.9912 49.6708 31.9912 49.2654V33.6098C31.9912 33.2044 31.6626 32.876 31.2573 32.876Z" fill="black"/>
<path d="M29.8218 16.0134C29.7698 15.964 29.7123 15.9241 29.6517 15.893V15.6067C29.6517 13.044 27.5666 10.959 25.0039 10.959C22.4412 10.959 20.3562 13.044 20.3562 15.6067V15.8738C20.316 15.8985 20.2776 15.9274 20.242 15.9608C18.8222 17.2805 18.0078 19.1486 18.0078 21.0861V49.2662C18.0078 49.6716 18.3364 50.0001 18.7417 50.0001C19.147 50.0001 19.4756 49.6716 19.4756 49.2662V21.0862C19.4756 20.0204 19.7882 18.9816 20.3563 18.0966V25.7829C20.3563 27.9141 22.0901 29.6479 24.2212 29.6479H25.7867C27.9179 29.6479 29.6517 27.914 29.6517 25.7829V18.09C30.2244 18.9734 30.5323 20.0026 30.5323 21.0862V30.5774C30.5323 30.9828 30.8609 31.3113 31.2662 31.3113C31.6715 31.3113 32.0001 30.9828 32.0001 30.5774V21.0862C32 19.1493 31.2264 17.3478 29.8218 16.0134ZM24.7897 12.4348L21.8319 15.3926C21.9378 13.8095 23.2067 12.5407 24.7897 12.4348ZM21.8238 17.4605C21.857 17.4369 21.889 17.4111 21.9188 17.3813L26.499 12.8011C27.0547 13.0983 27.5121 13.5558 27.8095 14.1114L21.8238 20.0972V17.4605ZM28.184 25.7829C28.184 27.1048 27.1085 28.1802 25.7867 28.1802H25.2102L28.184 25.2063V25.7829ZM28.184 23.142C28.1567 23.1624 28.1302 23.1844 28.1054 23.2091L23.3134 28.0011C22.7205 27.7576 22.2464 27.2834 22.0028 26.6906L28.184 20.5096V23.142ZM28.184 18.4453C28.1567 18.4658 21.8239 24.7939 21.8239 24.7939V22.1572C21.8571 22.1336 21.8891 22.1078 21.9188 22.078L28.184 15.8129V18.4453Z" fill="black"/>
<path d="M46.2513 26.9722C46.1993 26.9229 46.142 26.8831 46.0813 26.852V26.5657C46.0813 24.003 43.9963 21.918 41.4336 21.918C38.8709 21.918 36.7858 24.003 36.7858 26.5657V26.8593C36.7184 26.8919 36.6545 26.9352 36.5974 26.9898C35.2045 28.3227 34.4375 30.1181 34.4375 32.0452V49.2663C34.4375 49.6717 34.7661 50.0002 35.1714 50.0002C35.5767 50.0002 35.9053 49.6717 35.9053 49.2663V32.0452C35.9053 30.9624 36.2132 29.9331 36.7859 29.0495V36.7419C36.7859 38.873 38.5198 40.6068 40.6509 40.6068H42.2164C44.3476 40.6068 46.0813 38.8729 46.0813 36.7419V29.0491C46.6541 29.9325 46.962 30.9616 46.962 32.0452V49.2663C46.962 49.6717 47.2906 50.0002 47.6959 50.0002C48.1012 50.0002 48.4298 49.6717 48.4298 49.2663V32.0452C48.4297 30.1083 47.656 28.3066 46.2513 26.9722ZM44.5271 25.8311C43.0611 25.8136 41.803 24.7785 41.4709 23.3867C42.9549 23.4039 44.1972 24.4424 44.5271 25.8311ZM42.2163 39.1392H40.6508C39.4064 39.1392 38.381 38.1862 38.2647 36.9718C39.6942 37.8159 41.3111 38.2586 42.9991 38.2586C43.3762 38.2586 43.7521 38.2357 44.1246 38.1909C43.6863 38.7665 42.9941 39.1392 42.2163 39.1392ZM44.6136 36.6244C44.0851 36.7344 43.5437 36.7907 42.9991 36.7907C41.2706 36.7907 39.6304 36.2416 38.2555 35.2027C38.2548 35.2022 38.2541 35.2019 38.2535 35.2014V32.7254C39.6048 33.7644 41.2753 34.3444 42.9991 34.3444C43.5447 34.3444 44.0852 34.2867 44.6136 34.1752V36.6244ZM44.6136 32.6679C44.0893 32.8062 43.5477 32.8769 42.9991 32.8769C41.2391 32.8769 39.5457 32.1335 38.3533 30.8374C38.3224 30.8037 38.2888 30.7742 38.2535 30.7478V27.063C39.2852 29.0712 41.3749 30.4306 43.7819 30.4306C44.0607 30.4306 44.3387 30.4113 44.6137 30.3745V32.6679H44.6136ZM44.6136 28.8895C44.3402 28.9377 44.0617 28.963 43.7818 28.963C41.2492 28.963 39.1762 26.9932 39.0437 24.4712C39.3205 24.1559 39.6582 23.8952 40.0388 23.7087C40.5227 25.7691 42.393 27.2997 44.5646 27.2997C44.5809 27.2997 44.5972 27.299 44.6135 27.2988V28.8895H44.6136Z" fill="black"/>
</svg>
