<svg width="50" height="50" viewBox="0 0 50 50" fill="none" xmlns="http://www.w3.org/2000/svg">
<path d="M42.4404 3.125H15.8672C15.66 3.125 15.4613 3.20731 15.3148 3.35382C15.1682 3.50034 15.0859 3.69905 15.0859 3.90625C15.0859 4.11345 15.1682 4.31216 15.3148 4.45868C15.4613 4.60519 15.66 4.6875 15.8672 4.6875H42.4404C43.2019 4.68828 43.932 4.99111 44.4705 5.52955C45.009 6.06799 45.312 6.79807 45.3128 7.55959V34.1335C45.3128 34.3407 45.3951 34.5394 45.5417 34.686C45.6882 34.8325 45.8869 34.9148 46.0941 34.9148C46.3013 34.9148 46.5 34.8325 46.6465 34.686C46.793 34.5394 46.8753 34.3407 46.8753 34.1335V7.55959C46.8739 6.38383 46.4062 5.25665 45.5748 4.4253C44.7433 3.59395 43.6161 3.12632 42.4404 3.125Z" fill="black"/>
<path d="M42.9888 38.2347C42.9163 38.1621 42.8302 38.1046 42.7354 38.0654C42.6406 38.0261 42.5391 38.0059 42.4365 38.0059C42.3339 38.0059 42.2323 38.0261 42.1375 38.0654C42.0428 38.1046 41.9566 38.1621 41.8841 38.2347C41.8116 38.3072 41.754 38.3933 41.7148 38.4881C41.6755 38.5829 41.6553 38.6845 41.6553 38.7871C41.6553 38.8896 41.6755 38.9912 41.7148 39.086C41.754 39.1808 41.8116 39.2669 41.8841 39.3394L44.2041 41.6591H11.2094C10.448 41.6582 9.71802 41.3553 9.17966 40.8169C8.64131 40.2784 8.3385 39.5485 8.33766 38.7871V5.7923L10.657 8.11193C10.8035 8.25843 11.0022 8.34073 11.2094 8.34073C11.4165 8.34073 11.6152 8.25843 11.7617 8.11193C11.9082 7.96543 11.9905 7.76674 11.9905 7.55956C11.9905 7.35238 11.9082 7.15369 11.7617 7.0072L8.10877 3.35388C8.03625 3.28132 7.95014 3.22376 7.85536 3.18449C7.76058 3.14521 7.659 3.125 7.55641 3.125C7.45381 3.125 7.35223 3.14521 7.25745 3.18449C7.16267 3.22376 7.07656 3.28132 7.00404 3.35388L3.35034 7.0072C3.20537 7.154 3.12436 7.3522 3.125 7.55853C3.12565 7.76485 3.20789 7.96254 3.35379 8.10844C3.49968 8.25434 3.69736 8.33659 3.90369 8.33725C4.11001 8.3379 4.30822 8.2569 4.45503 8.11193L6.77516 5.79212V38.7871C6.77641 39.9627 7.24397 41.0899 8.07526 41.9213C8.90655 42.7526 10.0337 43.2203 11.2094 43.2216H44.2041L41.8841 45.5414C41.8108 45.6138 41.7526 45.6999 41.7127 45.7949C41.6728 45.8898 41.6522 45.9918 41.6518 46.0948C41.6515 46.1978 41.6716 46.2998 41.7108 46.395C41.7501 46.4902 41.8078 46.5768 41.8806 46.6496C41.9535 46.7224 42.04 46.7801 42.1352 46.8194C42.2304 46.8586 42.3325 46.8787 42.4355 46.8784C42.5385 46.878 42.6404 46.8573 42.7354 46.8175C42.8303 46.7776 42.9165 46.7194 42.9888 46.6461L46.6425 42.9928C46.7151 42.9202 46.7727 42.8341 46.8119 42.7393C46.8512 42.6446 46.8714 42.543 46.8714 42.4404C46.8714 42.3378 46.8512 42.2362 46.8119 42.1414C46.7727 42.0467 46.7151 41.9605 46.6425 41.888L42.9888 38.2347Z" fill="black"/>
<path d="M17.0312 15.8164C16.9286 15.8164 16.827 15.8366 16.7322 15.8758C16.6374 15.9151 16.5513 15.9726 16.4788 16.0452C16.4062 16.1177 16.3487 16.2039 16.3094 16.2987C16.2702 16.3935 16.25 16.4951 16.25 16.5977V31.7664C16.25 31.9736 16.3323 32.1723 16.4788 32.3188C16.6253 32.4653 16.824 32.5477 17.0312 32.5477C17.2385 32.5477 17.4372 32.4653 17.5837 32.3188C17.7302 32.1723 17.8125 31.9736 17.8125 31.7664V20.465C17.8137 19.7945 18.0809 19.1518 18.5554 18.6781C19.0299 18.2044 19.673 17.9384 20.3436 17.9384C21.0141 17.9384 21.6572 18.2044 22.1317 18.6781C22.6062 19.1518 22.8734 19.7945 22.8746 20.465V31.7664C22.8746 31.9736 22.9569 32.1723 23.1034 32.3188C23.2499 32.4654 23.4487 32.5477 23.6559 32.5477C23.8631 32.5477 24.0618 32.4654 24.2083 32.3188C24.3548 32.1723 24.4371 31.9736 24.4371 31.7664V20.465C24.4383 19.7945 24.7055 19.1518 25.18 18.6781C25.6545 18.2044 26.2976 17.9384 26.9682 17.9384C27.6387 17.9384 28.2818 18.2044 28.7563 18.6781C29.2308 19.1518 29.498 19.7945 29.4992 20.465V31.7664C29.4992 31.9736 29.5815 32.1723 29.728 32.3188C29.8745 32.4654 30.0733 32.5477 30.2805 32.5477C30.4877 32.5477 30.6864 32.4654 30.8329 32.3188C30.9794 32.1723 31.0617 31.9736 31.0617 31.7664V20.465C31.0637 19.5991 30.7905 18.755 30.2815 18.0546C29.7725 17.3541 29.054 16.8336 28.2298 16.5681C27.4057 16.3026 26.5185 16.306 25.6963 16.5776C24.8742 16.8493 24.1596 17.3752 23.6559 18.0795C23.3367 17.628 22.9282 17.2468 22.4557 16.9595C21.9832 16.6722 21.4568 16.485 20.9091 16.4094C20.3613 16.3338 19.8038 16.3714 19.2712 16.5199C18.7386 16.6685 18.2421 16.9247 17.8125 17.2729V16.5977C17.8125 16.4951 17.7923 16.3935 17.7531 16.2987C17.7138 16.2039 17.6563 16.1177 17.5837 16.0452C17.5112 15.9726 17.425 15.9151 17.3303 15.8758C17.2355 15.8366 17.1339 15.8164 17.0312 15.8164Z" fill="black"/>
<path d="M39.2776 16.1835C39.6197 15.6801 39.8028 15.0855 39.8033 14.4768C39.8039 14.0728 39.7249 13.6726 39.5707 13.2992C39.4165 12.9257 39.1903 12.5863 38.9048 12.3004C38.6193 12.0145 38.2803 11.7876 37.9071 11.6329C37.5339 11.4781 37.1338 11.3984 36.7298 11.3984C36.3257 11.3984 35.9257 11.4781 35.5524 11.6329C35.1792 11.7876 34.8402 12.0145 34.5547 12.3004C34.2693 12.5863 34.043 12.9257 33.8888 13.2992C33.7346 13.6726 33.6556 14.0728 33.6563 14.4768C33.6563 14.684 33.7386 14.8828 33.8851 15.0293C34.0316 15.1758 34.2303 15.2581 34.4375 15.2581C34.6447 15.2581 34.8434 15.1758 34.9899 15.0293C35.1364 14.8828 35.2188 14.684 35.2188 14.4768C35.2183 14.2781 35.2571 14.0813 35.3328 13.8976C35.4085 13.7138 35.5197 13.5469 35.6601 13.4062C35.8005 13.2655 35.9672 13.1539 36.1507 13.0777C36.3343 13.0016 36.531 12.9624 36.7298 12.9624C36.9285 12.9624 37.1252 13.0016 37.3088 13.0777C37.4923 13.1539 37.6591 13.2655 37.7994 13.4062C37.9398 13.5469 38.051 13.7138 38.1267 13.8976C38.2025 14.0813 38.2412 14.2781 38.2408 14.4768C38.2414 14.7626 38.1584 15.0423 38.002 15.2814L34.3475 19.204C34.2029 19.3584 34.1065 19.5517 34.0703 19.7601C34.0341 19.9686 34.0596 20.183 34.1437 20.3772C34.2277 20.5713 34.3667 20.7366 34.5434 20.8528C34.7202 20.969 34.9271 21.0311 35.1386 21.0313H38.9495C39.1567 21.0313 39.3554 20.9489 39.502 20.8024C39.6485 20.6559 39.7308 20.4572 39.7308 20.25C39.7308 20.0428 39.6485 19.8441 39.502 19.6976C39.3554 19.5511 39.1567 19.4688 38.9495 19.4688H36.2441L39.0434 16.4918C39.064 16.4696 39.2776 16.1835 39.2776 16.1835Z" fill="black"/>
</svg>
