<svg width="50" height="50" viewBox="0 0 50 50" fill="none" xmlns="http://www.w3.org/2000/svg">
<path d="M48.893 35.4523H1.88281V32.0313C1.88323 31.2424 2.19664 30.4858 2.75426 29.9278C3.31187 29.3697 4.06813 29.0557 4.85703 29.0547H45.9562C46.7349 29.0555 47.4813 29.3652 48.0319 29.9157C48.5825 30.4663 48.8921 31.2128 48.893 31.9914V35.4523ZM3.44531 33.8898H47.3305V31.9914C47.3301 31.6271 47.1851 31.2778 46.9275 31.0201C46.6699 30.7625 46.3206 30.6176 45.9562 30.6172H4.85703C4.4824 30.6178 4.12333 30.7671 3.85865 31.0322C3.59397 31.2973 3.44531 31.6566 3.44531 32.0313V33.8898Z" fill="black"/>
<path d="M45.6648 45.7662H5.10156V34.6709H6.66406V44.2037H44.1023V34.6709H45.6648V45.7662Z" fill="black"/>
<path d="M44.2434 30.7813H44.2294L34.8841 30.6172C34.7804 30.6153 34.6782 30.5928 34.5834 30.551C34.4886 30.5092 34.403 30.449 34.3317 30.3738C34.2604 30.2987 34.2047 30.21 34.168 30.1131C34.1312 30.0162 34.1141 29.913 34.1176 29.8094C34.1714 28.3829 34.7822 27.0344 35.8189 26.053C36.8557 25.0717 38.2357 24.5358 39.663 24.5604C41.0903 24.5849 42.4511 25.1679 43.4535 26.1843C44.4559 27.2007 45.0199 28.5694 45.0247 29.9969C45.0247 30.2041 44.9424 30.4028 44.7959 30.5494C44.6493 30.6959 44.4506 30.7782 44.2434 30.7782V30.7813ZM35.7864 29.0704L43.3801 29.2008C43.1991 28.3369 42.7299 27.5601 42.0495 26.9978C41.3691 26.4354 40.5179 26.1209 39.6353 26.1057C38.7528 26.0906 37.8912 26.3757 37.1919 26.9143C36.4926 27.4529 35.997 28.2132 35.7864 29.0704V29.0704Z" fill="black"/>
<path d="M38.625 23.3896H40.1875V25.3264H38.625V23.3896Z" fill="black"/>
<path d="M36.5078 22.6084H42.3102V24.1709H36.5078V22.6084Z" fill="black"/>
<path d="M19.9336 16.9432C16.5242 16.9432 13.75 13.7768 13.75 9.88457C13.75 5.99238 16.5242 2.8252 19.9336 2.8252C23.343 2.8252 26.1164 5.9916 26.1164 9.88457C26.1164 13.7775 23.343 16.9432 19.9336 16.9432V16.9432ZM19.9336 4.3877C17.3859 4.3877 15.3125 6.85332 15.3125 9.88457C15.3125 12.9158 17.3859 15.3807 19.9336 15.3807C22.4813 15.3807 24.5539 12.915 24.5539 9.88457C24.5539 6.8541 22.4813 4.3877 19.9336 4.3877V4.3877Z" fill="black"/>
<path d="M31.4969 29.922C31.1924 27.1462 29.8741 24.5804 27.7947 22.7166C25.7152 20.8527 23.021 19.822 20.2285 19.822C17.436 19.822 14.7418 20.8527 12.6624 22.7166C10.5829 24.5804 9.26462 27.1462 8.96016 29.922L7.40625 29.754C7.75281 26.5955 9.25298 23.676 11.6192 21.5553C13.9853 19.4345 17.051 18.2617 20.2285 18.2617C23.406 18.2617 26.4717 19.4345 28.8379 21.5553C31.2041 23.676 32.7042 26.5955 33.0508 29.754L31.4969 29.922Z" fill="black"/>
</svg>
