<svg width="50" height="50" viewBox="0 0 50 50" fill="none" xmlns="http://www.w3.org/2000/svg">
<path d="M5.5 33.6213H44.5C44.7761 33.6213 45 33.3975 45 33.1213C45 32.8452 44.7761 32.6213 44.5 32.6213H31.116V28.3485C31.9494 28.1922 32.6594 27.6579 33.0325 26.9001C33.9873 27.2246 35.0625 26.9915 35.8018 26.2522C36.541 25.5129 36.7749 24.4387 36.4499 23.4827C37.3557 23.0369 37.9499 22.1118 37.9499 21.0664C37.9499 20.021 37.356 19.0959 36.4499 18.6499C36.7751 17.6938 36.5413 16.6199 35.8018 15.8806C35.0627 15.1411 33.9878 14.9075 33.0325 15.2324C32.5864 14.3264 31.6614 13.7324 30.616 13.7324C29.5706 13.7324 28.6455 14.3264 28.1995 15.2324C27.2429 14.907 26.1692 15.1414 25.4302 15.8806C24.6909 16.6196 24.4568 17.6938 24.7822 18.6499C23.8762 19.0959 23.282 20.021 23.282 21.0664C23.282 22.1118 23.8762 23.0369 24.7822 23.4829C24.457 24.4387 24.6909 25.5129 25.4302 26.2522C26.1692 26.9915 27.2429 27.2251 28.1995 26.9001C28.5725 27.6579 29.2826 28.1922 30.116 28.3485V32.6213H14.1792V22.2665C15.2067 22.1013 16.0807 21.4375 16.5127 20.4954C17.6389 20.9136 18.9226 20.6506 19.7988 19.7742C20.6753 18.8977 20.938 17.6143 20.52 16.488C21.6121 15.9873 22.3337 14.894 22.3337 13.6545C22.3337 12.4148 21.6121 11.3215 20.52 10.8208C20.9382 9.69458 20.6753 8.41138 19.7988 7.53491C18.9224 6.65845 17.6392 6.39648 16.5127 6.81348C16.012 5.72168 14.9187 5 13.6792 5C12.4397 5 11.3464 5.72168 10.8457 6.81348C9.71899 6.396 8.43628 6.6582 7.55957 7.53491C6.68311 8.41138 6.42017 9.69458 6.83838 10.8208C5.74634 11.3215 5.02466 12.4148 5.02466 13.6545C5.02466 14.894 5.74634 15.9873 6.83838 16.488C6.42041 17.6143 6.68311 18.8977 7.55957 19.7742C8.43628 20.6506 9.71899 20.9136 10.8457 20.4954C11.2777 21.4375 12.1517 22.1013 13.1792 22.2665V32.6213H5.5C5.22388 32.6213 5 32.8452 5 33.1213C5 33.3975 5.22388 33.6213 5.5 33.6213ZM28.9678 26.1016C28.9302 25.946 28.8208 25.8179 28.6731 25.7568C28.6116 25.7314 28.5466 25.7187 28.4817 25.7187C28.3909 25.7187 28.3005 25.7434 28.2209 25.7922C27.5493 26.2021 26.6929 26.1008 26.1372 25.5452C25.5815 24.9895 25.48 24.1326 25.8901 23.4612C25.9736 23.3247 25.9868 23.1567 25.9255 23.009C25.8643 22.8613 25.7361 22.7517 25.5808 22.7144C24.8162 22.53 24.282 21.8523 24.282 21.0664C24.282 20.2805 24.8162 19.6028 25.5808 19.4182C25.7363 19.3806 25.8645 19.2712 25.9255 19.1235C25.9868 18.9758 25.9736 18.8076 25.8901 18.6714C25.48 18 25.5815 17.1433 26.1372 16.5876C26.6934 16.0317 27.55 15.9309 28.2209 16.3403C28.3577 16.4243 28.5254 16.437 28.6731 16.3757C28.8208 16.3147 28.9302 16.1865 28.9678 16.031C29.1523 15.2664 29.8301 14.7324 30.616 14.7324C31.4019 14.7324 32.0796 15.2664 32.2642 16.031C32.3018 16.1865 32.4111 16.3147 32.5588 16.3757C32.7073 16.437 32.875 16.4243 33.011 16.3403C33.6824 15.9302 34.5388 16.0315 35.0947 16.5876C35.6506 17.1433 35.7522 18.0002 35.342 18.6714C35.2585 18.8076 35.2454 18.9758 35.3066 19.1235C35.3677 19.2712 35.4958 19.3806 35.6514 19.4182C36.416 19.6028 36.9499 20.2805 36.9499 21.0664C36.9499 21.8523 36.416 22.53 35.6514 22.7144C35.4958 22.752 35.3679 22.8613 35.3066 23.009C35.2454 23.1567 35.2585 23.3247 35.342 23.4612C35.7522 24.1323 35.6504 24.9893 35.0947 25.5452C34.5388 26.1008 33.6826 26.2024 33.011 25.7922C32.875 25.709 32.7073 25.696 32.5588 25.7568C32.4111 25.8179 32.3018 25.946 32.2642 26.1016C32.1204 26.6971 31.676 27.1488 31.116 27.3213V22.4277L32.8735 20.6702C33.0688 20.4749 33.0688 20.1584 32.8735 19.9631C32.6782 19.7678 32.3618 19.7678 32.1665 19.9631L31.116 21.0137V19.6211C31.116 19.345 30.8921 19.1211 30.616 19.1211C30.3398 19.1211 30.116 19.345 30.116 19.6211V22.9385L29.0339 21.8564C28.8386 21.6611 28.5222 21.6611 28.3269 21.8564C28.1316 22.0518 28.1316 22.3682 28.3269 22.5635L30.116 24.3525V27.3213C29.5559 27.1488 29.1115 26.6971 28.9678 26.1016ZM11.6187 19.6853C11.5811 19.5298 11.4717 19.4016 11.324 19.3406C11.2625 19.3152 11.1975 19.3025 11.1326 19.3025C11.0417 19.3025 10.9514 19.3271 10.8718 19.376C10.0325 19.8894 8.96143 19.7617 8.2666 19.0671C7.57178 18.3723 7.44482 17.301 7.95776 16.4619C8.04126 16.3257 8.05444 16.1575 7.99316 16.0098C7.93213 15.8621 7.80395 15.7527 7.64844 15.7151C6.69238 15.4844 6.02466 14.6372 6.02466 13.6545C6.02466 12.6719 6.69238 11.8245 7.64844 11.594C7.80395 11.5566 7.93188 11.447 7.99316 11.2993C8.05444 11.1516 8.04126 10.9834 7.95776 10.8472C7.44482 10.0081 7.57178 8.93677 8.2666 8.24194C8.96167 7.54736 10.0327 7.42065 10.8718 7.93286C11.0078 8.01636 11.176 8.02905 11.324 7.96826C11.4717 7.90723 11.5811 7.77905 11.6187 7.62353C11.8494 6.66772 12.6965 6 13.6792 6C14.6619 6 15.509 6.66772 15.7397 7.62353C15.7773 7.77905 15.8867 7.90723 16.0344 7.96826C16.1821 8.02954 16.3501 8.0166 16.4866 7.93286C17.3254 7.42041 18.3962 7.54687 19.0918 8.24194C19.7866 8.93677 19.9136 10.0081 19.4006 10.8472C19.3171 10.9834 19.304 11.1516 19.3652 11.2993C19.4265 11.447 19.5544 11.5566 19.71 11.594C20.666 11.8245 21.3337 12.6719 21.3337 13.6545C21.3337 14.6372 20.666 15.4844 19.71 15.7151C19.5544 15.7527 19.4263 15.8621 19.3652 16.0098C19.304 16.1575 19.3171 16.3257 19.4006 16.4619C19.9136 17.301 19.7866 18.3723 19.0918 19.0671C18.3965 19.7617 17.3257 19.8892 16.4866 19.376C16.3506 19.2925 16.1826 19.2798 16.0344 19.3406C15.8867 19.4016 15.7773 19.5298 15.7397 19.6853C15.5496 20.4735 14.9379 21.059 14.1792 21.2426V15.239L16.3047 13.1135C16.5 12.9182 16.5 12.6018 16.3047 12.4065C16.1094 12.2112 15.793 12.2112 15.5977 12.4065L14.1792 13.825V11.9299C14.1792 11.6538 13.9553 11.4299 13.6792 11.4299C13.4031 11.4299 13.1792 11.6538 13.1792 11.9299V16.1216L11.7231 14.6655C11.5278 14.4702 11.2114 14.4702 11.0161 14.6655C10.8208 14.8608 10.8208 15.1772 11.0161 15.3726L13.1792 17.5356V21.2426C12.4205 21.059 11.8088 20.4735 11.6187 19.6853Z" fill="black"/>
<path d="M5.10846 43.2361C5.99933 44.3572 7.32672 45 8.75055 45C9.97882 45 11.1351 44.522 12.001 43.6711C12.8672 44.5217 14.0237 45 15.2518 45C16.4798 45 17.636 44.5217 18.5023 43.6711C19.3682 44.522 20.5245 45 21.7527 45C22.9808 45 24.137 44.5217 25.0032 43.6711C25.8692 44.522 27.0255 45 28.2537 45C29.4818 45 30.638 44.5217 31.5037 43.6711C32.3699 44.522 33.5264 45 34.7545 45C35.9825 45 37.1387 44.5217 38.0049 43.6711C38.8709 44.522 40.0272 45 41.2554 45C42.6793 45 44.0067 44.3572 44.8975 43.2361C45.0692 43.0198 45.0333 42.7053 44.817 42.5334C44.6004 42.3616 44.2859 42.3975 44.1143 42.614C43.4146 43.4949 42.3726 44 41.2554 44C40.138 44 39.096 43.4949 38.3965 42.614C38.3016 42.4946 38.1575 42.425 38.0049 42.425C37.8526 42.425 37.7083 42.4946 37.6133 42.614C36.9136 43.4949 35.8716 44 34.7545 44C33.637 44 32.595 43.4949 31.8958 42.6143C31.8008 42.4946 31.6568 42.425 31.5042 42.425C31.3519 42.425 31.2076 42.4946 31.1126 42.614C30.4129 43.4949 29.3709 44 28.2537 44C27.1363 44 26.0943 43.4949 25.3948 42.614C25.2999 42.4946 25.1558 42.425 25.0032 42.425C24.8506 42.425 24.7066 42.4946 24.6116 42.614C23.9119 43.4949 22.8699 44 21.7527 44C20.6353 44 19.5933 43.4949 18.8939 42.614C18.7989 42.4946 18.6548 42.425 18.5023 42.425C18.3499 42.425 18.2056 42.4946 18.1107 42.614C17.411 43.4949 16.369 44 15.2518 44C14.1346 44 13.0923 43.4949 12.3926 42.614C12.2027 42.3755 11.7994 42.3755 11.6094 42.614C10.91 43.4949 9.86798 44 8.75055 44C7.63336 44 6.59137 43.4949 5.89166 42.614C5.71906 42.3975 5.40509 42.3616 5.18903 42.5334C4.97272 42.7053 4.93683 43.0198 5.10846 43.2361V43.2361Z" fill="black"/>
<path d="M8.75055 39.6397C9.97882 39.6397 11.1351 39.1617 12.001 38.3109C12.8672 39.1614 14.0237 39.6397 15.2518 39.6397C16.4798 39.6397 17.636 39.1614 18.5023 38.3109C19.3682 39.1617 20.5245 39.6397 21.7527 39.6397C22.9808 39.6397 24.137 39.1614 25.0032 38.3109C25.8692 39.1617 27.0255 39.6397 28.2537 39.6397C29.4818 39.6397 30.638 39.1614 31.5037 38.3109C32.3699 39.1617 33.5264 39.6397 34.7545 39.6397C35.9825 39.6397 37.1387 39.1614 38.0049 38.3109C38.8709 39.1617 40.0272 39.6397 41.2554 39.6397C42.6793 39.6397 44.0067 38.9969 44.8975 37.8758C45.0692 37.6595 45.0333 37.345 44.817 37.1732C44.6004 37.0013 44.2859 37.0369 44.1143 37.2537C43.4146 38.1346 42.3726 38.6397 41.2554 38.6397C40.138 38.6397 39.096 38.1346 38.3965 37.2537C38.3016 37.1344 38.1575 37.0648 38.0049 37.0648C37.8526 37.0648 37.7083 37.1344 37.6133 37.2537C36.9136 38.1346 35.8716 38.6397 34.7545 38.6397C33.637 38.6397 32.595 38.1346 31.8958 37.254C31.8008 37.1344 31.6568 37.0648 31.5042 37.0648C31.3519 37.0648 31.2076 37.1344 31.1126 37.2537C30.4129 38.1346 29.3709 38.6397 28.2537 38.6397C27.1363 38.6397 26.0943 38.1346 25.3948 37.2537C25.2999 37.1344 25.1558 37.0648 25.0032 37.0648C24.8506 37.0648 24.7066 37.1344 24.6116 37.2537C23.9119 38.1346 22.8699 38.6397 21.7527 38.6397C20.6353 38.6397 19.5933 38.1346 18.8939 37.2537C18.7989 37.1344 18.6548 37.0648 18.5023 37.0648C18.3499 37.0648 18.2056 37.1344 18.1107 37.2537C17.411 38.1346 16.369 38.6397 15.2518 38.6397C14.1346 38.6397 13.0923 38.1346 12.3926 37.2537C12.2027 37.015 11.7994 37.0155 11.6094 37.2537C10.91 38.1346 9.86798 38.6397 8.75055 38.6397C7.63336 38.6397 6.59137 38.1346 5.89166 37.2537C5.71906 37.0369 5.40509 37.0013 5.18903 37.1732C4.97272 37.345 4.93683 37.6595 5.10846 37.8758C5.99933 38.9969 7.32672 39.6397 8.75055 39.6397V39.6397Z" fill="black"/>
</svg>
