<svg width="51" height="51" viewBox="0 0 51 51" fill="none" xmlns="http://www.w3.org/2000/svg">
<path d="M29.75 29.7188V28.9375H28.1875C27.9803 28.9375 27.7816 28.8552 27.6351 28.7087C27.4886 28.5622 27.4062 28.3635 27.4062 28.1562C27.4062 27.949 27.4886 27.7503 27.6351 27.6038C27.7816 27.4573 27.9803 27.375 28.1875 27.375H30.9219C31.2327 27.375 31.5307 27.2515 31.7505 27.0318C31.9703 26.812 32.0938 26.5139 32.0938 26.2031C32.0938 25.8923 31.9703 25.5943 31.7505 25.3745C31.5307 25.1547 31.2327 25.0312 30.9219 25.0312H30.1406C29.4499 25.0327 28.7843 24.7722 28.2782 24.3022C27.7721 23.8322 27.463 23.1877 27.4135 22.4988C27.3639 21.8098 27.5775 21.1277 28.0111 20.5901C28.4448 20.0525 29.0662 19.6993 29.75 19.602V18.7812C29.75 18.574 29.8323 18.3753 29.9788 18.2288C30.1253 18.0823 30.324 18 30.5312 18C30.7385 18 30.9372 18.0823 31.0837 18.2288C31.2302 18.3753 31.3125 18.574 31.3125 18.7812V19.5625H32.875C33.0822 19.5625 33.2809 19.6448 33.4274 19.7913C33.5739 19.9378 33.6562 20.1365 33.6562 20.3438C33.6562 20.551 33.5739 20.7497 33.4274 20.8962C33.2809 21.0427 33.0822 21.125 32.875 21.125H30.1406C29.8298 21.125 29.5318 21.2485 29.312 21.4682C29.0922 21.688 28.9688 21.9861 28.9688 22.2969C28.9688 22.6077 29.0922 22.9057 29.312 23.1255C29.5318 23.3453 29.8298 23.4688 30.1406 23.4688H30.9219C31.6131 23.4665 32.2793 23.7268 32.7861 24.1968C33.2928 24.6669 33.6022 25.3118 33.6518 26.0012C33.7014 26.6907 33.4875 27.3732 33.0533 27.911C32.6191 28.4488 31.9969 28.8017 31.3125 28.8984V29.7188C31.3125 29.926 31.2302 30.1247 31.0837 30.2712C30.9372 30.4177 30.7385 30.5 30.5312 30.5C30.324 30.5 30.1253 30.4177 29.9788 30.2712C29.8323 30.1247 29.75 29.926 29.75 29.7188ZM47.3602 40.8984L33.7997 48.0423C32.3272 48.818 30.6911 49.2318 29.0268 49.2494C27.3626 49.2671 25.718 48.8881 24.2294 48.1438L11.7812 41.9197V42.2188C11.7806 42.8401 11.5334 43.4359 11.094 43.8753C10.6546 44.3147 10.0589 44.5618 9.4375 44.5625H3.1875C2.9803 44.5625 2.78159 44.4802 2.63507 44.3337C2.48856 44.1872 2.40625 43.9885 2.40625 43.7812C2.40625 43.574 2.48856 43.3753 2.63507 43.2288C2.78159 43.0823 2.9803 43 3.1875 43H9.4375C9.64464 42.9998 9.84325 42.9174 9.98972 42.771C10.1362 42.6245 10.2186 42.4259 10.2188 42.2188V25.0312C10.2186 24.8241 10.1362 24.6255 9.98972 24.479C9.84325 24.3326 9.64464 24.2502 9.4375 24.25H3.1875C2.9803 24.25 2.78159 24.1677 2.63507 24.0212C2.48856 23.8747 2.40625 23.676 2.40625 23.4688C2.40625 23.2615 2.48856 23.0628 2.63507 22.9163C2.78159 22.7698 2.9803 22.6875 3.1875 22.6875H9.4375C10.0589 22.6882 10.6546 22.9353 11.094 23.3747C11.5334 23.8141 11.7806 24.4099 11.7812 25.0312H17.6544C19.5918 25.0338 21.4719 25.6884 22.9919 26.8898L32.1288 34.1305C32.9512 34.7825 33.4879 35.7286 33.6256 36.7691L44.8875 34.2098C45.7385 34.0165 46.6307 34.1392 47.3979 34.555C48.165 34.9708 48.7549 35.6514 49.0574 36.4699C49.36 37.2884 49.3547 38.189 49.0424 39.0038C48.7301 39.8186 48.1322 40.4922 47.3602 40.8988V40.8984ZM47.6134 37.0731C47.455 36.5935 47.1232 36.1902 46.6831 35.9423C46.243 35.6945 45.7261 35.6198 45.2338 35.733L33.5267 38.3938C33.3661 38.9898 33.0724 39.5416 32.6676 40.0076C32.2628 40.4736 31.7575 40.8416 31.1898 41.084C30.6221 41.3264 30.0068 41.4367 29.3903 41.4068C28.7738 41.3768 28.1721 41.2073 27.6305 40.9111L18.4375 35.8727C18.3475 35.8234 18.2681 35.7568 18.2039 35.6768C18.1396 35.5969 18.0917 35.505 18.063 35.4065C18.0342 35.3081 18.0251 35.2049 18.0362 35.1029C18.0473 35.0009 18.0784 34.9021 18.1277 34.8121C18.2273 34.6304 18.395 34.4957 18.5939 34.4376C18.6923 34.4088 18.7955 34.3997 18.8975 34.4108C18.9995 34.422 19.0983 34.453 19.1883 34.5023L28.3813 39.5409C28.894 39.8207 29.488 39.9142 30.062 39.8053C30.6359 39.6965 31.1544 39.392 31.5291 38.9438C31.7446 38.6856 31.9061 38.3869 32.0042 38.0653C32.1024 37.7437 32.1351 37.4057 32.1006 37.0712C32.066 36.7367 31.9649 36.4126 31.803 36.1178C31.6412 35.8231 31.422 35.5637 31.1584 35.355L22.0214 28.1143C20.7778 27.1314 19.2395 26.5958 17.6544 26.5938H11.7812V40.1726L24.9282 46.746C26.1983 47.3676 27.5962 47.6835 29.0102 47.6686C30.4242 47.6537 31.8151 47.3083 33.0719 46.6601L46.6323 39.5164C47.06 39.2927 47.3938 38.9238 47.5736 38.476C47.7535 38.0281 47.7676 37.5308 47.6134 37.0735V37.0731ZM33.1016 32.9078C33.2362 33.0144 33.4029 33.0725 33.5746 33.0727C33.7151 33.0724 33.853 33.0342 33.9736 32.962C35.5298 32.3481 36.8933 31.3287 37.9224 30.0097C38.9516 28.6908 39.6088 27.1203 39.8259 25.4615C40.0431 23.8027 39.8121 22.116 39.1571 20.5766C38.5021 19.0372 37.447 17.7013 36.1012 16.7075C34.7554 15.7137 33.1681 15.0983 31.5041 14.9252C29.8401 14.7521 28.1602 15.0277 26.6387 15.7233C25.1172 16.4189 23.8096 17.5091 22.8519 18.8807C21.8941 20.2524 21.321 21.8555 21.1921 23.5234C21.1838 23.626 21.1958 23.7291 21.2275 23.827C21.2592 23.9248 21.3099 24.0155 21.3767 24.0937C21.4434 24.1719 21.525 24.2362 21.6167 24.2828C21.7084 24.3295 21.8084 24.3575 21.9109 24.3654C22.0135 24.3733 22.1166 24.3608 22.2143 24.3288C22.3121 24.2967 22.4025 24.2457 22.4805 24.1786C22.5584 24.1115 22.6224 24.0296 22.6686 23.9378C22.7149 23.8459 22.7425 23.7458 22.75 23.6432C22.8578 22.2483 23.3383 20.9079 24.1414 19.7623C24.9445 18.6167 26.0407 17.7079 27.3153 17.131C28.5898 16.554 29.996 16.3301 31.3867 16.4827C32.7775 16.6353 34.1017 17.1587 35.2209 17.9982C36.3401 18.8377 37.2132 19.9625 37.7488 21.255C38.2845 22.5474 38.4631 23.9601 38.2659 25.3452C38.0687 26.7303 37.503 28.037 36.6279 29.1286C35.7529 30.2202 34.6006 31.0567 33.2916 31.5505C33.1622 31.5996 33.0481 31.6821 32.9611 31.7897C32.8741 31.8972 32.8171 32.026 32.7962 32.1628C32.7752 32.2996 32.791 32.4394 32.8418 32.5681C32.8927 32.6968 32.9768 32.8097 33.0855 32.8952L33.1016 32.9078ZM11.9531 16.1449C11.8871 16.0625 11.8384 15.9674 11.8101 15.8656C11.7818 15.7638 11.7745 15.6573 11.7885 15.5526C11.8026 15.4478 11.8377 15.347 11.8919 15.2563C11.946 15.1655 12.018 15.0867 12.1034 15.0245L28.659 2.98437C29.206 2.59541 29.8605 2.38642 30.5316 2.38642C31.2028 2.38642 31.8573 2.59541 32.4043 2.98437L36.7812 6.16758V3.15625C36.7812 2.94905 36.8636 2.75034 37.0101 2.60382C37.1566 2.45731 37.3553 2.375 37.5625 2.375H43.8125C44.0197 2.375 44.2184 2.45731 44.3649 2.60382C44.5114 2.75034 44.5938 2.94905 44.5938 3.15625V11.8495L48.9593 15.0245C49.0448 15.0867 49.1168 15.1655 49.1709 15.2563C49.225 15.347 49.2602 15.4478 49.2742 15.5526C49.2883 15.6573 49.2809 15.7638 49.2526 15.8656C49.2243 15.9674 49.1757 16.0625 49.1096 16.1449L46.844 18.973C46.7183 19.1297 46.5372 19.2319 46.3382 19.2586C46.1391 19.2852 45.9375 19.2342 45.7751 19.1161L44.5938 18.2571V32.0625C44.5938 32.2697 44.5114 32.4684 44.3649 32.6149C44.2184 32.7614 44.0197 32.8438 43.8125 32.8438C43.6053 32.8438 43.4066 32.7614 43.2601 32.6149C43.1136 32.4684 43.0312 32.2697 43.0312 32.0625V17.1206L30.5312 8.02836L18.0312 17.1206V22.6875C18.0312 22.8947 17.9489 23.0934 17.8024 23.2399C17.6559 23.3864 17.4572 23.4688 17.25 23.4688C17.0428 23.4688 16.8441 23.3864 16.6976 23.2399C16.5511 23.0934 16.4688 22.8947 16.4688 22.6875V18.2571L15.2877 19.1165C15.1253 19.2346 14.9237 19.2856 14.7246 19.259C14.5256 19.2323 14.3445 19.1301 14.2188 18.9734L11.9531 16.1449ZM38.3438 7.30391L43.0312 10.7131V3.9375H38.3438V7.30391ZM13.684 15.8066L14.9719 17.4141L30.072 6.43078C30.2054 6.33361 30.3662 6.28125 30.5312 6.28125C30.6963 6.28125 30.8571 6.33361 30.9905 6.43078L46.0906 17.4141L47.3785 15.8066L31.4849 4.24766C31.2065 4.04968 30.8734 3.94331 30.5318 3.94331C30.1902 3.94331 29.8571 4.04968 29.5787 4.24766L13.684 15.8066Z" fill="black"/>
</svg>
