<svg width="50" height="50" viewBox="0 0 50 50" fill="none" xmlns="http://www.w3.org/2000/svg">
<g clip-path="url(#clip0_24404_47761)">
<path d="M7.87822 8.87275V8.37275H7.37822H1.46484C0.932002 8.37275 0.5 7.94075 0.5 7.40791V1.46484C0.5 0.932002 0.932002 0.5 1.46484 0.5H48.5352C49.068 0.5 49.5 0.932002 49.5 1.46484V7.40791C49.5 7.94075 49.068 8.37275 48.5352 8.37275H42.6216H42.1216V8.87275V13.7565V14.1228L42.4708 14.2333C44.2391 14.7926 45.5229 16.4489 45.5229 18.397V21.6944C45.5229 22.2273 45.0909 22.6593 44.5581 22.6593H37.7555C37.2226 22.6593 36.7906 22.2273 36.7906 21.6944V18.397C36.7906 16.449 38.0746 14.7927 39.8428 14.2333L40.192 14.1228V13.7565V8.87275V8.37275H39.692H26.4647H25.9647V8.87275V13.7565V14.1228L26.3139 14.2333C28.0822 14.7926 29.3661 16.4489 29.3661 18.397V21.6944C29.3661 22.2273 28.9341 22.6593 28.4013 22.6593H21.5986C21.0658 22.6593 20.6338 22.2273 20.6338 21.6944V18.397C20.6338 16.449 21.9178 14.7927 23.686 14.2333L24.0352 14.1228V13.7565V8.87275V8.37275H23.5352H10.3078H9.80781V8.87275V13.7565V14.1228L10.157 14.2333C11.9253 14.7926 13.2092 16.4489 13.2092 18.397V21.6944C13.2092 22.2273 12.7772 22.6593 12.2443 22.6593H5.4417C4.90886 22.6593 4.47686 22.2273 4.47686 21.6944V18.397C4.47686 16.449 5.76082 14.7927 7.52905 14.2333L7.87822 14.1228V13.7565V8.87275ZM10.7795 20.7296H11.2795L11.2795 20.2296L11.2796 18.397C11.2796 17.0531 10.187 15.9604 8.84307 15.9604C7.49915 15.9604 6.40654 17.0531 6.40654 18.397V20.2296V20.7296H6.90654H10.7795ZM26.9365 20.7296H27.4365V20.2296V18.397C27.4365 17.0531 26.3439 15.9604 25 15.9604C23.6561 15.9604 22.5635 17.0531 22.5635 18.397V20.2296V20.7296H23.0635H26.9365ZM38.7205 20.2296V20.7296H39.2205H43.0935H43.0936H43.5936V20.2296V18.397C43.5936 17.0531 42.5009 15.9604 41.157 15.9604C39.8131 15.9604 38.7205 17.0531 38.7205 18.397V20.2296ZM47.0703 6.44307H47.5703V5.94307V2.92969V2.42969H47.0703H2.92969H2.42969V2.92969V5.94307V6.44307H2.92969H47.0703Z" fill="black" stroke="black"/>
<path d="M48.5352 31.5195H1.46484C0.655859 31.5195 0 32.1754 0 32.9844V48.5354C0 49.3444 0.655859 50.0003 1.46484 50.0003H48.5352C49.3441 50.0003 50 49.3444 50 48.5354V32.9844C50 32.1754 49.3441 31.5195 48.5352 31.5195ZM47.0703 47.0706H38.3027V40.2716H39.9282C40.7372 40.2716 41.3931 39.6157 41.3931 38.8067C41.3931 37.9978 40.7372 37.3419 39.9282 37.3419H33.7476C32.9386 37.3419 32.2827 37.9978 32.2827 38.8067C32.2827 39.6157 32.9386 40.2716 33.7476 40.2716H35.373V47.0706H26.667V40.2716H28.2925C29.1015 40.2716 29.7573 39.6157 29.7573 38.8067C29.7573 37.9978 29.1015 37.3419 28.2925 37.3419H22.1119C21.3029 37.3419 20.6471 37.9978 20.6471 38.8067C20.6471 39.6157 21.3029 40.2716 22.1119 40.2716H23.7374V47.0706H14.627V40.2716H16.2524C17.0614 40.2716 17.7173 39.6157 17.7173 38.8067C17.7173 37.9978 17.0614 37.3419 16.2524 37.3419H10.0718C9.26279 37.3419 8.60693 37.9978 8.60693 38.8067C8.60693 39.6157 9.26279 40.2716 10.0718 40.2716H11.6973V47.0706H2.92969V34.4492H47.0703V47.0706Z" fill="black"/>
</g>
<defs>
<clipPath id="clip0_24404_47761">
<rect width="50" height="50" fill="white"/>
</clipPath>
</defs>
</svg>
