<svg width="50" height="50" viewBox="0 0 50 50" fill="none" xmlns="http://www.w3.org/2000/svg">
<g clip-path="url(#clip0_23715_49167)">
<path d="M41.7934 7.96484H39.3529C38.9886 7.96484 38.7579 8.19561 38.7579 8.45058H38.7578V16.343C38.7578 16.6709 39.1464 16.8409 39.5471 16.8409C39.9356 16.8409 40.3363 16.671 40.3363 16.343V13.5261H41.6964C43.2991 13.5261 44.5498 12.761 44.5498 10.7697V10.697C44.5498 8.70556 43.3355 7.96484 41.7934 7.96484ZM42.9712 10.8912C42.9712 11.8383 42.4855 12.2876 41.6963 12.2876H40.3363V9.34912H41.6963C42.4855 9.34912 42.9712 9.79843 42.9712 10.7455V10.8912Z" fill="black"/>
<path d="M35.0521 30.7536C34.7439 30.584 34.4398 30.3982 34.1484 30.2013L29.437 27.0185C28.0071 26.0525 26.3392 25.542 24.6136 25.542H15.9661C13.6707 25.542 11.5109 26.4343 9.88456 28.0544C9.04862 28.8873 8.09628 29.584 7.054 30.1252C6.4376 30.4453 6.05469 31.0753 6.05469 31.7693C6.05469 32.7914 6.88613 33.6228 7.9082 33.6228H10.8564C11.2498 33.6228 11.5687 33.3039 11.5687 32.9105C11.5687 32.5172 11.2498 32.1982 10.8564 32.1982H7.9082C7.67167 32.1982 7.47919 32.0057 7.47919 31.7692C7.47919 31.609 7.56777 31.4635 7.71044 31.3894C8.88143 30.7814 9.95125 29.9988 10.8899 29.0636C12.2473 27.7112 14.0501 26.9665 15.966 26.9665H17.902V32.1982H15.5356C15.1422 32.1982 14.8233 32.5172 14.8233 32.9105C14.8233 33.3039 15.1422 33.6228 15.5356 33.6228H35.0666C35.6521 33.6228 36.1285 33.1465 36.1285 32.5609C36.1285 31.8111 35.716 31.1185 35.0521 30.7536ZM19.3268 32.1983V26.9666H24.6137C26.054 26.9666 27.4462 27.3928 28.6397 28.199L33.3511 31.3818C33.6782 31.6028 34.0195 31.8114 34.3658 32.0018C34.4555 32.0511 34.5306 32.1189 34.587 32.1983H19.3268V32.1983Z" fill="black"/>
<path d="M21.0922 34.7056H18.892C18.4986 34.7056 18.1797 35.0245 18.1797 35.4179C18.1797 35.8112 18.4986 36.1302 18.892 36.1302H21.0922C21.4855 36.1302 21.8045 35.8112 21.8045 35.4179C21.8045 35.0245 21.4855 34.7056 21.0922 34.7056Z" fill="black"/>
<path d="M49.3854 34.1079L49.1604 33.7345C48.3125 32.3273 46.9021 31.3365 45.2908 31.016L43.4519 30.6503V21.3293H48.2108C49.1907 21.3293 49.9878 20.5322 49.9878 19.5524V5.68027C49.9878 4.70039 49.1906 3.90332 48.2108 3.90332H34.3387C33.3589 3.90332 32.5618 4.70049 32.5618 5.68027V10.9425C32.5618 11.3358 32.8806 11.6548 33.2741 11.6548C33.6675 11.6548 33.9864 11.3358 33.9864 10.9425V5.68027C33.9864 5.48593 34.1445 5.32783 34.3388 5.32783H48.211C48.4054 5.32783 48.5635 5.48593 48.5635 5.68027V19.5525C48.5635 19.7468 48.4054 19.9049 48.211 19.9049H34.3387C34.1444 19.9049 33.9863 19.7468 33.9863 19.5525V15.5731C33.9863 15.1797 33.6674 14.8608 33.274 14.8608C32.8805 14.8608 32.5617 15.1797 32.5617 15.5731V19.5525C32.5617 20.5324 33.3589 21.3294 34.3386 21.3294H39.7352V29.9113L38.7899 29.7233C37.4852 29.4639 36.2132 28.6765 35.3699 28.1066L30.6586 24.9239C28.8661 23.7131 26.7754 23.0731 24.6123 23.0731H15.9649C13.0874 23.0731 10.3801 24.1915 8.34176 26.2223C7.05192 27.5073 5.4283 28.3838 3.64637 28.757L2.62372 28.9712C1.10341 29.2895 0 30.6481 0 32.2015V39.0999C0 39.9227 0.485838 40.6705 1.23789 41.0046L4.07498 42.2656C4.24657 43.1627 4.67879 44.0195 5.37195 44.7126C6.29314 45.6338 7.50319 46.0945 8.71334 46.0945C9.9235 46.0945 11.1335 45.6338 12.0547 44.7126C12.6472 44.1202 13.048 43.408 13.2594 42.6534H36.9152C37.1266 43.408 37.5275 44.1202 38.12 44.7126C39.0125 45.6051 40.1991 46.0967 41.4614 46.0967C42.7236 46.0967 43.9103 45.6052 44.8028 44.7126C45.3953 44.1202 45.7961 43.408 46.0075 42.6534H47.3588C48.8151 42.6534 50 41.4685 50 40.0122V36.3176C49.9998 35.5389 49.7873 34.7749 49.3854 34.1079ZM41.1598 21.3293H42.0274V30.367L41.1598 30.1944V21.3293ZM11.0473 43.7054C10.4239 44.3289 9.59498 44.6722 8.71325 44.6722C7.83151 44.6722 7.00261 44.3289 6.37917 43.7054C5.37908 42.7053 5.15662 41.2181 5.71072 40.0007C5.71521 39.991 5.71951 39.9811 5.724 39.9713C5.74089 39.9352 5.75877 39.8995 5.77703 39.8639C5.78562 39.8471 5.79422 39.8304 5.8032 39.8138C5.8197 39.783 5.83689 39.7523 5.85447 39.7218C5.86658 39.7008 5.87898 39.68 5.89158 39.6593C5.90789 39.6325 5.92439 39.6057 5.94158 39.5793C5.95711 39.5553 5.97312 39.5317 5.98933 39.5082C6.00535 39.4848 6.02127 39.4614 6.03787 39.4384C6.05691 39.4122 6.07673 39.3864 6.09666 39.3606C6.11218 39.3405 6.12732 39.3202 6.14333 39.3004C6.16677 39.2714 6.19128 39.243 6.2157 39.2147C6.22966 39.1986 6.24304 39.1821 6.2573 39.1662C6.29363 39.1258 6.33103 39.0863 6.36951 39.0475C6.37283 39.0442 6.37585 39.0407 6.37917 39.0374C6.3865 39.03 6.39421 39.0232 6.40163 39.016C6.43425 38.9839 6.46706 38.9523 6.50056 38.9219C6.50925 38.914 6.51843 38.9067 6.52722 38.8989C6.56062 38.8693 6.59421 38.8399 6.62859 38.8119C6.63181 38.8092 6.63523 38.8068 6.63845 38.8042C7.84577 37.8271 9.58707 37.8283 10.7929 38.8081L10.7972 38.8114C10.834 38.8414 10.8701 38.8728 10.9059 38.9047C10.9124 38.9103 10.919 38.9157 10.9253 38.9214C10.9668 38.9588 11.0074 38.9974 11.0472 39.0373C11.0902 39.0802 11.1316 39.1245 11.1718 39.1693C11.1895 39.189 11.2062 39.2092 11.2233 39.2293C11.2442 39.2537 11.2652 39.2782 11.2853 39.3031C11.3079 39.3311 11.3296 39.3596 11.3511 39.3881C11.3632 39.4041 11.3752 39.4201 11.387 39.4362C11.413 39.4721 11.4384 39.5085 11.4629 39.5453C11.4671 39.5515 11.4712 39.5579 11.4753 39.5641C12.3132 40.8439 12.1707 42.582 11.0473 43.7054ZM43.7953 43.7054C43.1718 44.3289 42.3429 44.6722 41.4612 44.6722C40.5794 44.6722 39.7506 44.3289 39.1272 43.7054C38.0037 42.582 37.8611 40.8436 38.6991 39.5639C38.7031 39.5578 38.7071 39.5516 38.7112 39.5456C38.7357 39.5087 38.7612 39.4722 38.7873 39.4361C38.799 39.4201 38.8109 39.4043 38.8229 39.3885C38.8445 39.3598 38.8663 39.3312 38.8891 39.303C38.9091 39.2783 38.9298 39.2541 38.9506 39.2298C38.9679 39.2096 38.9848 39.1891 39.0027 39.1693C39.0429 39.1245 39.0843 39.0803 39.1273 39.0374C39.7507 38.4139 40.5795 38.0706 41.4613 38.0706C42.343 38.0706 43.1719 38.4139 43.7953 39.0374C43.8383 39.0803 43.8797 39.1246 43.9199 39.1694C43.9377 39.1891 43.9544 39.2094 43.9716 39.2296C43.9925 39.2539 44.0134 39.2783 44.0334 39.3031C44.0561 39.3312 44.0779 39.3597 44.0994 39.3883C44.1114 39.4043 44.1235 39.4202 44.1352 39.4363C44.1613 39.4723 44.1867 39.5086 44.2112 39.5454C44.2154 39.5516 44.2195 39.5579 44.2236 39.5641C45.0612 40.8438 44.9187 42.5821 43.7953 43.7054ZM48.5755 40.0122C48.5755 40.6831 48.0295 41.2289 47.3586 41.2289H46.186C46.158 40.1958 45.7934 39.2101 45.1371 38.402C45.1327 38.3965 45.1285 38.3909 45.124 38.3854C45.0834 38.3359 45.0413 38.2874 44.9986 38.2391C44.9876 38.2268 44.9773 38.2141 44.9662 38.2018C44.9209 38.1519 44.874 38.103 44.8264 38.0548C44.8183 38.0465 44.8109 38.038 44.8027 38.0299C44.189 37.4163 43.4364 36.9922 42.6157 36.7871C42.2427 36.6938 41.8557 36.6459 41.4612 36.6459C41.1456 36.6459 40.8348 36.6766 40.5321 36.7366C39.624 36.9167 38.7892 37.3605 38.1198 38.0299C38.1118 38.0379 38.1044 38.0463 38.0965 38.0544C38.0487 38.1029 38.0016 38.1519 37.9562 38.202C37.9455 38.2138 37.9355 38.2261 37.9249 38.2381C37.8818 38.2867 37.8392 38.3357 37.7983 38.3857C37.7942 38.3907 37.7904 38.3959 37.7863 38.4009C37.1295 39.2091 36.7645 40.1954 36.7365 41.229H13.4379C13.4099 40.1941 13.0441 39.2067 12.3857 38.3978C12.3827 38.394 12.3797 38.3902 12.3767 38.3864C12.3337 38.3339 12.2891 38.2824 12.2437 38.2314C12.2353 38.222 12.2275 38.2124 12.219 38.203C12.1658 38.1443 12.1111 38.0865 12.0545 38.0299C11.8243 37.7997 11.5758 37.5981 11.314 37.4254C10.5283 36.9072 9.62076 36.6481 8.71325 36.6481C7.50319 36.6481 6.29304 37.1088 5.37185 38.0299C5.31922 38.0826 5.26834 38.1366 5.21853 38.1913C5.20379 38.2075 5.18963 38.224 5.17508 38.2403C5.13992 38.28 5.10535 38.3202 5.07166 38.3608C5.05672 38.3789 5.04178 38.397 5.02713 38.4154C4.99227 38.4589 4.95828 38.5028 4.92508 38.5472C4.91473 38.5611 4.90408 38.5747 4.89402 38.5886C4.80477 38.7108 4.72195 38.8368 4.64539 38.966C4.64324 38.9696 4.64119 38.9733 4.63904 38.9769C4.60164 39.0405 4.5658 39.1049 4.53153 39.1701C4.53055 39.1719 4.52957 39.1739 4.5285 39.1757C4.28016 39.6483 4.11317 40.1594 4.0366 40.6896L1.81659 39.7029C1.57851 39.597 1.4247 39.3603 1.4247 39.0999V32.2015C1.4247 31.3185 2.05194 30.5464 2.9161 30.3653L3.93875 30.1512C5.99148 29.7212 7.86179 28.7115 9.34752 27.2314C11.117 25.4684 13.4672 24.4975 15.9652 24.4975H24.6126C26.4904 24.4975 28.3054 25.0531 29.8614 26.1042L34.5727 29.2869C35.5181 29.9257 36.9551 30.8106 38.5122 31.1204L45.0132 32.4132C46.2321 32.6557 47.299 33.4052 47.9405 34.4696L48.1655 34.843C48.4338 35.2881 48.5755 35.798 48.5755 36.3176V40.0122Z" fill="black"/>
<path d="M10.2386 39.8424C9.82997 39.4339 9.287 39.209 8.70937 39.209C8.13173 39.209 7.58867 39.434 7.18027 39.8424C6.77187 40.2508 6.54688 40.7938 6.54688 41.3715C6.54688 41.9491 6.77187 42.4922 7.18027 42.9006C7.58867 43.309 8.13173 43.534 8.70946 43.534C9.2871 43.534 9.83016 43.3091 10.2386 42.9006C11.0817 42.0574 11.0817 40.6855 10.2386 39.8424ZM9.23114 41.8933C9.09179 42.0326 8.90644 42.1094 8.70937 42.1094C8.5122 42.1094 8.32695 42.0326 8.18759 41.8932C8.04824 41.7538 7.97138 41.5685 7.97138 41.3714C7.97138 41.1742 8.04814 40.989 8.18759 40.8496C8.32695 40.7102 8.5122 40.6334 8.70937 40.6334C8.90644 40.6334 9.09179 40.7101 9.23114 40.8496C9.51884 41.1374 9.51884 41.6056 9.23114 41.8933Z" fill="black"/>
<path d="M42.9876 39.8425C42.5792 39.434 42.0361 39.209 41.4584 39.209C40.8807 39.209 40.3378 39.4339 39.9292 39.8424C39.0861 40.6855 39.0861 42.0574 39.9292 42.9006C40.3377 43.3091 40.8807 43.534 41.4584 43.534C42.0361 43.534 42.5791 43.3091 42.9875 42.9007C43.396 42.4923 43.6209 41.9492 43.6209 41.3716C43.6209 40.7939 43.396 40.2509 42.9876 39.8425ZM41.9801 41.8933C41.8408 42.0327 41.6555 42.1095 41.4584 42.1095C41.2613 42.1095 41.0759 42.0327 40.9366 41.8933C40.6489 41.6057 40.6489 41.1375 40.9366 40.8498C41.0759 40.7104 41.2613 40.6336 41.4584 40.6336C41.6555 40.6336 41.8408 40.7103 41.9802 40.8498C42.1196 40.9892 42.1964 41.1744 42.1964 41.3716C42.1964 41.5685 42.1197 41.7539 41.9801 41.8933Z" fill="black"/>
</g>
<defs>
<clipPath id="clip0_23715_49167">
<rect width="50" height="50" fill="white"/>
</clipPath>
</defs>
</svg>
