<svg width="50" height="50" viewBox="0 0 50 50" fill="none" xmlns="http://www.w3.org/2000/svg">
<path d="M49.9349 17.4218C49.6116 13.9504 48.1089 10.6772 45.7034 8.20491C40.2621 2.37724 30.473 2.3319 24.981 8.1065C19.4884 2.33219 9.69999 2.37705 4.25854 8.20511C-1.91323 14.3607 -1.30127 25.2081 5.60463 30.6338L24.3623 45.9737C24.7221 46.268 25.2397 46.268 25.5995 45.9737L44.3572 30.6338C48.3187 27.3943 50.4037 22.4553 49.9349 17.4218V17.4218ZM43.1201 29.1208L24.9809 43.9547L6.84186 29.1208C0.815899 24.3869 0.281232 14.9357 5.65936 9.56792C10.4067 4.48502 18.9297 4.48522 23.6768 9.56792L24.2806 10.1885C24.6457 10.5795 25.3162 10.5795 25.6814 10.1885L26.2853 9.56792C31.0324 4.48493 39.5556 4.48522 44.3027 9.56792C49.6812 14.9366 49.1455 24.3868 43.1201 29.1208V29.1208Z" fill="black"/>
<path d="M25.1489 21.625C19.8242 21.625 15.4922 25.957 15.4922 31.2816C15.4922 32.4739 15.9994 33.6164 16.8839 34.4159C17.7674 35.2164 18.9639 35.606 20.1423 35.4853L24.9203 35.0022C25.0721 34.987 25.2258 34.987 25.3774 35.0022L30.1554 35.4853C31.3408 35.6055 32.5293 35.2154 33.4139 34.4158C34.2984 33.6163 34.8056 32.4739 34.8056 31.2816C34.8055 25.9571 30.4736 21.625 25.1489 21.625V21.625ZM32.1031 32.9661C31.6208 33.4021 30.9996 33.6064 30.3519 33.5408L25.5738 33.0577C25.2919 33.0293 25.0058 33.0293 24.7238 33.0577L19.9457 33.5408C19.2992 33.6064 18.677 33.402 18.1946 32.9661C17.7123 32.5301 17.4467 31.9319 17.4467 31.2817C17.4467 27.0348 20.9019 23.5796 25.1489 23.5796C29.3959 23.5796 32.851 27.0348 32.851 31.2817C32.851 31.9319 32.5855 32.53 32.1031 32.9661V32.9661Z" fill="black"/>
<path d="M35.9784 18.4346C34.1121 18.4346 32.5938 19.9529 32.5938 21.8192C32.7797 26.3093 39.1777 26.3081 39.363 21.8192C39.363 19.9529 37.8447 18.4346 35.9784 18.4346ZM35.9784 23.2492C35.1899 23.2492 34.5483 22.6077 34.5483 21.8191C34.6269 19.922 37.3301 19.9225 37.4085 21.8191C37.4085 22.6077 36.767 23.2492 35.9784 23.2492Z" fill="black"/>
<path d="M17.369 21.8192C17.369 19.9529 15.8506 18.4346 13.9843 18.4346C9.49409 18.6204 9.49556 25.0186 13.9843 25.2038C15.8506 25.2037 17.369 23.6854 17.369 21.8192V21.8192ZM13.9844 23.2492C13.1959 23.2492 12.5543 22.6077 12.5543 21.8191C12.6329 19.9219 15.3362 19.9226 15.4145 21.8191C15.4144 22.6077 14.7729 23.2492 13.9844 23.2492V23.2492Z" fill="black"/>
<path d="M29.566 19.8464C31.7262 19.8464 33.4837 18.089 33.4837 15.9287C33.2685 10.7314 25.8629 10.7328 25.6484 15.9287C25.6484 18.089 27.406 19.8464 29.566 19.8464ZM29.566 13.9656C30.6485 13.9656 31.5292 14.8463 31.5292 15.9287C31.4213 18.533 27.7105 18.5323 27.603 15.9287C27.603 14.8463 28.4836 13.9656 29.566 13.9656Z" fill="black"/>
<path d="M20.4177 19.8464C22.5779 19.8464 24.3354 18.089 24.3354 15.9287C24.1202 10.7314 16.7144 10.7328 16.5 15.9287C16.5 18.089 18.2575 19.8464 20.4177 19.8464V19.8464ZM20.4177 13.9656C21.5001 13.9656 22.3808 14.8463 22.3808 15.9287C22.2729 18.533 18.562 18.5323 18.4545 15.9287C18.4545 14.8463 19.3353 13.9656 20.4177 13.9656V13.9656Z" fill="black"/>
</svg>
