<svg width="50" height="50" viewBox="0 0 50 50" fill="none" xmlns="http://www.w3.org/2000/svg">
<g clip-path="url(#clip0_23715_49126)">
<path d="M22.0161 6.19258C20.8401 5.56377 19.5167 5.21788 18.0899 5.21788C13.4615 5.21788 9.70947 8.96993 9.70947 13.5983C9.70947 14.0665 9.74971 14.525 9.82353 14.9723C7.31191 16.2509 5.59033 18.8587 5.59033 21.8701C5.59033 23.0517 5.85625 24.1708 6.32978 25.1726C3.64375 26.2687 1.75 28.9052 1.75 31.9854C1.75 36.0485 5.04385 39.3423 9.10693 39.3423H20.1464" stroke="black" stroke-width="1.5" stroke-miterlimit="10"/>
<path d="M43.1666 23.6148C43.6922 22.5029 43.9873 21.2607 43.9873 19.9493C43.9873 16.6066 42.0765 13.7122 39.2887 12.293C39.3706 11.7965 39.4152 11.2875 39.4152 10.7679C39.4152 5.63057 35.2506 1.46592 30.1133 1.46592C24.9759 1.46592 20.8113 5.63057 20.8113 10.7679C20.8113 11.2875 20.856 11.7965 20.9378 12.293C18.1501 13.7122 16.2392 16.6066 16.2392 19.9493C16.2392 21.2607 16.5343 22.5029 17.0599 23.6148C14.0785 24.8314 11.9766 27.7579 11.9766 31.1769C11.9766 35.6867 15.6326 39.3428 20.1425 39.3428H40.084C44.5939 39.3428 48.2499 35.6867 48.2499 31.1769C48.2499 27.7579 46.1479 24.8314 43.1666 23.6148Z" stroke="black" stroke-width="1.5" stroke-miterlimit="10"/>
<path d="M30.1172 15.1732V48.5347" stroke="black" stroke-width="1.5" stroke-miterlimit="10"/>
<path d="M18.0859 39.3426V48.5347" stroke="black" stroke-width="1.5" stroke-miterlimit="10"/>
<path d="M24.4141 18.2729L30.0903 23.9492" stroke="black" stroke-width="1.5" stroke-miterlimit="10"/>
<path d="M35.7622 18.2729L30.0859 23.9492" stroke="black" stroke-width="1.5" stroke-miterlimit="10"/>
<path d="M22.7969 26.3662L30.0894 33.6587" stroke="black" stroke-width="1.5" stroke-miterlimit="10"/>
<path d="M37.3784 26.3662L30.0859 33.6587" stroke="black" stroke-width="1.5" stroke-miterlimit="10"/>
<path d="M0 48.5347H50" stroke="black" stroke-width="1.5" stroke-miterlimit="10"/>
</g>
<defs>
<clipPath id="clip0_23715_49126">
<rect width="50" height="50" fill="white"/>
</clipPath>
</defs>
</svg>
