<svg width="50" height="50" viewBox="0 0 50 50" fill="none" xmlns="http://www.w3.org/2000/svg">
<g clip-path="url(#clip0_23715_49404)">
<path d="M5.68691 35.5164H1.55859C1.18105 35.5164 0.875 35.8225 0.875 36.2V48.4375C0.875 48.7724 1.11748 49.0579 1.44785 49.112C1.48516 49.1182 1.52227 49.1212 1.55908 49.1212C1.84795 49.1212 2.11133 48.9374 2.20635 48.656L6.33467 36.4185C6.40508 36.2099 6.37061 35.9802 6.24229 35.8013C6.11387 35.6224 5.90713 35.5164 5.68691 35.5164ZM2.24219 44.2727V36.8836H4.73486L2.24219 44.2727ZM48.4336 35.5164H44.3053C44.0851 35.5164 43.8784 35.6225 43.7499 35.8013C43.6216 35.9802 43.5871 36.21 43.6575 36.4185L47.7858 48.656C47.8809 48.9375 48.1441 49.1212 48.4331 49.1212C48.4698 49.1212 48.507 49.1182 48.5443 49.112C48.8747 49.0578 49.1172 48.7723 49.1172 48.4375V36.2C49.1172 35.8224 48.8111 35.5164 48.4336 35.5164V35.5164ZM47.75 44.2727L45.2573 36.8836H47.75V44.2727ZM39.4422 36.0029C39.3552 35.7141 39.0893 35.5164 38.7876 35.5164H36.8865L34.1595 28.2932C34.0111 27.8991 33.7848 27.5505 33.4864 27.2564L28.6101 21.8581V19.1634L31.9755 22.5472C32.4698 23.0441 33.1279 23.3188 33.8289 23.3209H33.8363C34.5344 23.3209 35.1912 23.05 35.6863 22.5575C36.1834 22.0633 36.4581 21.4051 36.4601 20.7042C36.4621 20.0032 36.1909 19.3436 35.7016 18.8516L27.6788 10.6171C27.0752 9.9915 26.2292 9.60127 25.2933 9.60127C24.4625 9.60127 23.9777 9.86113 23.7708 9.97217L23.7427 9.98721C23.7378 9.98975 23.7329 9.99238 23.7281 9.99502L17.2983 13.5826C16.5226 13.947 15.9729 14.6654 15.8255 15.5097L14.6286 22.3495C14.3793 23.7771 15.338 25.1413 16.7655 25.3906C17.4573 25.5117 18.1543 25.3557 18.7287 24.9521C19.3031 24.5483 19.6859 23.9452 19.8066 23.254L20.7812 17.6841L21.9766 17.0563V21.9123L13.7037 35.5164H11.2046C10.9029 35.5164 10.637 35.7141 10.55 36.0029L6.86592 48.2404C6.80361 48.4474 6.84297 48.6718 6.97187 48.8452C7.10078 49.0187 7.3043 49.121 7.52051 49.121H14.4786C14.8101 49.121 15.0937 48.8833 15.1517 48.5571L16.4801 41.0841C16.9896 40.8536 17.4378 40.474 17.7503 39.9617L25.5431 27.1637L28.9531 30.8314L32.0048 38.9145C32.2692 39.6167 32.7808 40.1542 33.4028 40.4687L34.8405 48.5572C34.8985 48.8836 35.1821 49.1212 35.5136 49.1212H42.4718C42.688 49.1212 42.8915 49.0189 43.0204 48.8454C43.1493 48.672 43.1887 48.4476 43.1264 48.2406L39.4422 36.0029ZM35.0931 20.7003C35.0921 21.036 34.9605 21.3512 34.7224 21.588C34.4843 21.8247 34.1655 21.9514 33.8327 21.9536C33.497 21.9526 33.1817 21.8211 32.945 21.583L28.6102 17.2245V13.532L34.7273 19.8105C34.9641 20.0486 35.0938 20.3646 35.0931 20.7003ZM13.9059 47.7539H8.44023L11.7128 36.8836H12.8725L12.8269 36.9587C12.4258 37.6162 12.3046 38.3906 12.4859 39.1392C12.6672 39.8879 13.1292 40.521 13.7867 40.9222C14.1826 41.1637 14.6141 41.297 15.0475 41.3326L13.9059 47.7539ZM16.5829 39.2502C16.372 39.596 16.0391 39.8389 15.6453 39.9343C15.2517 40.0298 14.8444 39.9659 14.4986 39.755C14.1528 39.544 13.91 39.211 13.8146 38.8173C13.7192 38.4236 13.7829 38.0164 13.9943 37.6697L22.4447 23.7736C22.507 23.8536 22.5758 23.9363 22.6535 24.0265C22.7263 24.1109 22.8093 24.2073 22.9037 24.3228C22.913 24.334 24.5759 26.1233 24.5759 26.1233L16.5829 39.2502ZM30.1847 30.2229C30.1533 30.1398 30.1062 30.0638 30.0458 29.9988L23.9483 23.4406C23.8511 23.3221 23.7651 23.2223 23.6894 23.1342C23.3438 22.7331 23.3438 22.7331 23.3438 22.0299V15.9249C23.3438 15.6855 23.2187 15.4636 23.0138 15.3398C22.8089 15.2161 22.5542 15.2084 22.3424 15.3197L19.848 16.6299C19.6604 16.7285 19.529 16.9085 19.4925 17.1172L18.4599 23.0185C18.4019 23.3502 18.2182 23.6396 17.9426 23.8333C17.6671 24.0269 17.3325 24.1018 17.0007 24.0437C16.3157 23.9241 15.8558 23.2695 15.9754 22.585L17.1723 15.7451C17.2438 15.3352 17.5131 14.9871 17.8927 14.8141C17.9095 14.8063 17.926 14.798 17.9421 14.7891L24.3892 11.1918L24.417 11.1771C24.5624 11.0989 24.806 10.9684 25.2934 10.9684C25.8276 10.9684 26.3122 11.1847 26.6646 11.534L26.6641 11.5346L26.6979 11.5692C27.0346 11.9198 27.243 12.3945 27.243 12.9179V22.121C27.243 22.2902 27.3059 22.4535 27.4193 22.5792L32.4862 28.1885C32.4964 28.1996 32.5068 28.2105 32.5176 28.221C32.6784 28.3771 32.8004 28.5633 32.8803 28.7754L36.1229 37.3642C36.2654 37.7431 36.252 38.1549 36.0849 38.5236C35.9178 38.8927 35.617 39.1745 35.2379 39.3173C34.4553 39.6121 33.579 39.2151 33.284 38.4319L30.1847 30.2229ZM36.0862 47.7539L34.8463 40.7783C35.1379 40.7641 35.4321 40.7052 35.7196 40.5969C36.4405 40.3255 37.0124 39.7895 37.3302 39.0878C37.6478 38.3866 37.6734 37.604 37.4026 36.8836H38.2794L41.552 47.7539H36.0862ZM28.4029 36.1579C28.3807 35.7975 28.0818 35.5164 27.7207 35.5164H22.2715C21.9104 35.5164 21.6114 35.7975 21.5893 36.1579L20.8348 48.3954C20.8231 48.5837 20.8897 48.7683 21.019 48.9058C21.1483 49.0433 21.3284 49.1211 21.5171 49.1211H28.4753C28.664 49.1211 28.844 49.0432 28.9733 48.9058C29.1026 48.7684 29.1692 48.5837 29.1576 48.3954L28.4029 36.1579ZM22.244 47.7539L22.9142 36.8836H27.0778L27.7481 47.7539H22.244ZM26.3127 8.6748C28.462 8.6748 30.2106 6.92617 30.2106 4.77686C30.2106 2.62754 28.462 0.878906 26.3127 0.878906C24.1634 0.878906 22.4148 2.62754 22.4148 4.77686C22.4148 6.92617 24.1635 8.6748 26.3127 8.6748ZM26.3127 2.24609C27.7082 2.24609 28.8435 3.38135 28.8435 4.77686C28.8435 6.17236 27.7082 7.30762 26.3127 7.30762C24.9173 7.30762 23.782 6.17236 23.782 4.77686C23.782 3.38135 24.9173 2.24609 26.3127 2.24609Z" fill="black"/>
</g>
<defs>
<clipPath id="clip0_23715_49404">
<rect width="50" height="50" fill="white"/>
</clipPath>
</defs>
</svg>
