<svg width="50" height="50" viewBox="0 0 50 50" fill="none" xmlns="http://www.w3.org/2000/svg">
<path d="M15.9346 32.0511C16.3347 32.744 16.3562 34.6214 15.2555 35.3697L13.1676 36.7893C11.8567 37.6806 10.0649 37.2704 9.27227 35.8976C8.47979 34.5249 9.02042 32.7679 10.4477 32.0784L12.7211 30.98C13.9195 30.401 15.5346 31.3583 15.9346 32.0511Z" stroke="black" stroke-width="1.46484" stroke-miterlimit="10" stroke-linecap="round" stroke-linejoin="round"/>
<path d="M38.4503 13.3974H34.9688V18.8145H38.4503V13.3974Z" stroke="black" stroke-width="1.46484" stroke-miterlimit="10" stroke-linecap="round" stroke-linejoin="round"/>
<path d="M26.1151 13.7514V21.7346L25.9922 21.8055L30.0389 28.8145L31.9019 27.7389" stroke="black" stroke-width="1.46484" stroke-miterlimit="10" stroke-linecap="round" stroke-linejoin="round"/>
<path d="M34.8639 26.0303L37.1328 24.7202C38.2521 24.074 38.9417 22.8798 38.9417 21.5873V19.3014C38.9417 19.0329 38.724 18.8153 38.4556 18.8153H34.9739V20.1998C34.9739 20.9333 34.5826 21.6111 33.9474 21.9778L33.1654 22.4293C32.6089 22.7507 31.8971 22.56 31.5757 22.0033L30.7002 20.487C30.3036 19.8 30.0945 19.0208 30.0939 18.2275L30.0849 5.17285H26.5265C26.3005 5.17285 26.1172 5.35615 26.1172 5.58223V10.3338" stroke="black" stroke-width="1.46484" stroke-miterlimit="10" stroke-linecap="round" stroke-linejoin="round"/>
<path d="M27.6328 30.2041L30.0392 28.8147" stroke="black" stroke-width="1.46484" stroke-miterlimit="10" stroke-linecap="round" stroke-linejoin="round"/>
<path d="M28.1039 32.3979L25.7938 21.7194C25.7507 21.5202 25.5261 21.4207 25.3496 21.5227L18.8036 25.302L17.3838 22.8427C17.2864 22.674 17.0707 22.6162 16.902 22.7136L14.8358 23.9065C13.3418 24.7691 12.8299 26.6796 13.6925 28.1736L17.3812 34.5628C18.0263 35.6801 18.3659 36.9476 18.3659 38.2378V40.3405C18.3659 40.4987 18.4942 40.627 18.6524 40.627H21.2719C21.4301 40.627 21.5584 40.4987 21.5584 40.3405V34.1437C21.5584 33.8744 21.7019 33.6256 21.9352 33.4909L22.0406 33.4301C22.7538 33.0184 23.5788 32.8424 24.398 32.9274L27.3543 33.2344C27.8237 33.2831 28.2036 32.8591 28.1039 32.3979Z" stroke="black" stroke-width="1.46484" stroke-miterlimit="10" stroke-linecap="round" stroke-linejoin="round"/>
<path d="M40.7799 9.37197L40.6207 9.09629C40.5441 8.96348 40.3743 8.91807 40.2415 8.99473L34.6232 12.2385C34.4905 12.3151 34.445 12.4849 34.5216 12.6176L34.9718 13.3975H38.4534L39.9296 12.5452C41.0407 11.9037 41.4213 10.483 40.7799 9.37197Z" stroke="black" stroke-width="1.46484" stroke-miterlimit="10" stroke-linecap="round" stroke-linejoin="round"/>
<path d="M30.0806 5.17285L30.5308 4.39297C30.6076 4.26025 30.5621 4.09053 30.4293 4.01387L24.8108 0.770117C24.6781 0.693359 24.5084 0.738867 24.4317 0.87168L24.2725 1.14736C23.6311 2.2584 24.0117 3.6791 25.1228 4.32051L26.599 5.17285H30.0806Z" stroke="black" stroke-width="1.46484" stroke-miterlimit="10" stroke-linecap="round" stroke-linejoin="round"/>
<path d="M18.8072 25.3022L16.7969 26.4629" stroke="black" stroke-width="1.46484" stroke-miterlimit="10" stroke-linecap="round" stroke-linejoin="round"/>
<path d="M18.6651 45.5372V46.2814C18.6651 46.7236 18.3066 47.0821 17.8645 47.0821H17.3027C16.4409 47.0821 15.7422 47.7808 15.7422 48.6426V48.9234C15.7422 49.1135 15.8963 49.2676 16.0864 49.2676H19.9564C20.6803 49.2676 21.2671 48.6808 21.2671 47.9569V40.6271H18.6651V42.1192" stroke="black" stroke-width="1.46484" stroke-miterlimit="10" stroke-linecap="round" stroke-linejoin="round"/>
<path d="M22.3543 20.1389L20.9905 17.7769C20.7264 17.3192 20.5873 16.8002 20.5873 16.2719C20.5873 15.5104 19.9699 14.893 19.2084 14.893H15.4065C15.2165 14.893 15.0625 15.047 15.0625 15.2371V15.518C15.0625 16.3797 15.761 17.0784 16.6229 17.0784H17.1722C17.4263 17.0784 17.661 17.214 17.7882 17.4341L19.8203 20.9538C20.0018 21.2682 19.8941 21.6701 19.5798 21.8516L17.5067 23.0483L18.8078 25.3018L21.3668 23.8243C22.6572 23.0793 23.0993 21.4292 22.3543 20.1389Z" stroke="black" stroke-width="1.46484" stroke-miterlimit="10" stroke-linecap="round" stroke-linejoin="round"/>
<path d="M13.1676 36.7894C11.8567 37.6806 10.0649 37.2704 9.27227 35.8977C8.47979 34.5249 9.02042 32.768 10.4477 32.0784L13.1676 36.7894Z" stroke="black" stroke-width="1.46484" stroke-miterlimit="10" stroke-linecap="round" stroke-linejoin="round"/>
<path d="M9.25 30.0088L10.4447 32.0781" stroke="black" stroke-width="1.46484" stroke-miterlimit="10" stroke-linecap="round" stroke-linejoin="round"/>
<path d="M17.1389 34.1396C18.2776 33.4821 18.6678 32.026 18.0104 30.8872C17.3528 29.7483 15.8966 29.3582 14.7578 30.0157" stroke="black" stroke-width="1.46484" stroke-miterlimit="10" stroke-linecap="round" stroke-linejoin="round"/>
<path d="M31.8672 31.3118V36.1582" stroke="black" stroke-width="1.46484" stroke-miterlimit="10" stroke-linecap="round" stroke-linejoin="round"/>
<path d="M35.1719 30.4316V39.584" stroke="black" stroke-width="1.46484" stroke-miterlimit="10" stroke-linecap="round" stroke-linejoin="round"/>
</svg>
