<svg width="50" height="50" viewBox="0 0 50 50" fill="none" xmlns="http://www.w3.org/2000/svg">
<g clip-path="url(#clip0_24310_47822)">
<path d="M47.0703 19.5306H43.5547V14.6478C43.5547 13.0324 42.2404 11.7181 40.625 11.7181H37.9319L44.6496 5.00045C45.7918 3.85826 45.7918 1.99977 44.6496 0.857581C43.5074 -0.284509 41.6489 -0.284607 40.5067 0.857581L27.9297 13.4355V8.78844C27.9297 7.17301 26.6154 5.85875 25 5.85875H19.1406C17.5252 5.85875 16.2109 7.17301 16.2109 8.78844V11.9152C15.5723 11.7853 14.9193 11.7181 14.2578 11.7181C9.56777 11.7181 5.59854 15.0201 4.68809 19.5306H2.92969C1.31426 19.5306 0 20.8449 0 22.4603V24.9994C0 26.3225 0.881934 27.443 2.08867 27.8054L5.5832 47.5941C5.83682 48.9878 7.04912 49.9994 8.46592 49.9994H41.5343C42.951 49.9994 44.1634 48.9879 44.4179 47.5891L47.9114 27.8054C49.1181 27.443 50 26.3224 50 24.9994V22.4603C50 20.8449 48.6857 19.5306 47.0703 19.5306ZM40.625 13.6713C41.1635 13.6713 41.6016 14.1093 41.6016 14.6478V19.5306H30.1193L35.9787 13.6713H40.625ZM41.8878 2.23873C42.2684 1.85807 42.8878 1.85797 43.2685 2.23873C43.6491 2.6193 43.6491 3.23873 43.2685 3.6194C43.2685 3.6194 26.5451 20.3427 25.6903 21.1975C25.3084 21.5794 24.6917 21.5796 24.3097 21.1975C23.9279 20.8159 23.9276 20.1989 24.3096 19.817L41.8878 2.23873ZM18.1641 8.78844C18.1641 8.24987 18.6021 7.81188 19.1406 7.81188H25C25.5385 7.81188 25.9766 8.24996 25.9766 8.78844V15.3887L23.3744 17.99C22.4433 15.5761 20.5694 13.5834 18.1641 12.5318V8.78844ZM14.2578 13.6713C17.89 13.6713 20.9479 16.1554 21.8231 19.5306H6.69023C7.56064 16.1237 10.6416 13.6713 14.2578 13.6713ZM48.0469 24.9994C48.0469 25.5379 47.6088 25.9759 47.0703 25.9759H28.9062C28.3669 25.9759 27.9297 26.4131 27.9297 26.9525C27.9297 27.4919 28.3669 27.9291 28.9062 27.9291H45.9062L42.4952 47.2445C42.4106 47.709 42.0064 48.0463 41.5341 48.0463H8.46582C7.99346 48.0463 7.58926 47.709 7.50557 47.2495L4.09385 27.9291H21.0938C21.6331 27.9291 22.0703 27.4919 22.0703 26.9525C22.0703 26.4131 21.6331 25.9759 21.0938 25.9759H2.92969C2.39121 25.9759 1.95312 25.5379 1.95312 24.9994V22.4603C1.95312 21.9218 2.39121 21.4838 2.92969 21.4838C3.92461 21.4838 20.6701 21.4838 22.2366 21.4838C22.3803 21.8909 22.6142 22.2642 22.9286 22.5786C24.0738 23.7237 25.9259 23.724 27.0714 22.5786L28.1662 21.4838H47.0703C47.6088 21.4838 48.0469 21.9218 48.0469 22.4603V24.9994Z" fill="black"/>
<path d="M25 31.835C24.4606 31.835 24.0234 32.2722 24.0234 32.8115V43.1631C24.0234 43.7024 24.4606 44.1396 25 44.1396C25.5394 44.1396 25.9766 43.7024 25.9766 43.1631V32.8115C25.9766 32.2722 25.5394 31.835 25 31.835Z" fill="black"/>
<path d="M30.8594 31.835C30.32 31.835 29.8828 32.2722 29.8828 32.8115V43.1631C29.8828 43.7023 30.32 44.1396 30.8594 44.1396C31.3987 44.1396 31.8359 43.7024 31.8359 43.1631V32.8115C31.8359 32.2722 31.3987 31.835 30.8594 31.835Z" fill="black"/>
<path d="M36.7188 31.835C36.1794 31.835 35.7422 32.2722 35.7422 32.8115V43.1631C35.7422 43.7023 36.1794 44.1396 36.7188 44.1396C37.2581 44.1396 37.6953 43.7024 37.6953 43.1631V32.8115C37.6953 32.2722 37.2581 31.835 36.7188 31.835Z" fill="black"/>
<path d="M19.1406 31.835C18.6013 31.835 18.1641 32.2722 18.1641 32.8115V43.1631C18.1641 43.7024 18.6013 44.1396 19.1406 44.1396C19.68 44.1396 20.1172 43.7024 20.1172 43.1631V32.8115C20.1172 32.2722 19.68 31.835 19.1406 31.835Z" fill="black"/>
<path d="M13.2812 31.835C12.7419 31.835 12.3047 32.2722 12.3047 32.8115V43.1631C12.3047 43.7024 12.7419 44.1396 13.2812 44.1396C13.8206 44.1396 14.2578 43.7024 14.2578 43.1631V32.8115C14.2578 32.2722 13.8206 31.835 13.2812 31.835Z" fill="black"/>
<path d="M25 25.9756C24.4609 25.9756 24.0234 26.4131 24.0234 26.9521C24.0234 27.4912 24.4609 27.9287 25 27.9287C25.5391 27.9287 25.9766 27.4912 25.9766 26.9521C25.9766 26.4131 25.5391 25.9756 25 25.9756Z" fill="black"/>
</g>
<defs>
<clipPath id="clip0_24310_47822">
<rect width="50" height="50" fill="white"/>
</clipPath>
</defs>
</svg>
