<svg xmlns="http://www.w3.org/2000/svg" height="512pt" version="1.1" viewBox="0 0 512 512" width="512pt">
<g id="surface1">
<path d="M 84 61 C 84 65.140625 80.640625 68.5 76.5 68.5 C 72.359375 68.5 69 65.140625 69 61 C 69 56.859375 72.359375 53.5 76.5 53.5 C 80.640625 53.5 84 56.859375 84 61 Z M 84 61 " style=" stroke:none;fill-rule:nonzero;fill:rgb(0%,0%,0%);fill-opacity:1;" />
<path d="M 204 61 C 204 65.140625 200.640625 68.5 196.5 68.5 C 192.359375 68.5 189 65.140625 189 61 C 189 56.859375 192.359375 53.5 196.5 53.5 C 200.640625 53.5 204 56.859375 204 61 Z M 204 61 " style=" stroke:none;fill-rule:nonzero;fill:rgb(0%,0%,0%);fill-opacity:1;" />
<path d="M 324 61 C 324 65.140625 320.640625 68.5 316.5 68.5 C 312.359375 68.5 309 65.140625 309 61 C 309 56.859375 312.359375 53.5 316.5 53.5 C 320.640625 53.5 324 56.859375 324 61 Z M 324 61 " style=" stroke:none;fill-rule:nonzero;fill:rgb(0%,0%,0%);fill-opacity:1;" />
<path d="M 443 61 C 443 65.140625 439.640625 68.5 435.5 68.5 C 431.359375 68.5 428 65.140625 428 61 C 428 56.859375 431.359375 53.5 435.5 53.5 C 439.640625 53.5 443 56.859375 443 61 Z M 443 61 " style=" stroke:none;fill-rule:nonzero;fill:rgb(0%,0%,0%);fill-opacity:1;" />
<path d="M 425.5 40.515625 L 445.5 40.515625 C 449.644531 40.515625 453 37.15625 453 33.015625 C 453 28.871094 449.644531 25.515625 445.5 25.515625 L 425.5 25.515625 C 421.355469 25.515625 418 28.871094 418 33.015625 C 418 37.15625 421.355469 40.515625 425.5 40.515625 Z M 425.5 40.515625 " style=" stroke:none;fill-rule:nonzero;fill:rgb(0%,0%,0%);fill-opacity:1;" />
<path d="M 305.5 40.515625 L 325.5 40.515625 C 329.644531 40.515625 333 37.15625 333 33.015625 C 333 28.871094 329.644531 25.515625 325.5 25.515625 L 305.5 25.515625 C 301.355469 25.515625 298 28.871094 298 33.015625 C 298 37.15625 301.355469 40.515625 305.5 40.515625 Z M 305.5 40.515625 " style=" stroke:none;fill-rule:nonzero;fill:rgb(0%,0%,0%);fill-opacity:1;" />
<path d="M 205.539062 25.515625 L 185.539062 25.515625 C 181.398438 25.515625 178.039062 28.871094 178.039062 33.015625 C 178.039062 37.15625 181.398438 40.515625 185.539062 40.515625 L 205.539062 40.515625 C 209.683594 40.515625 213.039062 37.15625 213.039062 33.015625 C 213.039062 28.871094 209.683594 25.515625 205.539062 25.515625 Z M 205.539062 25.515625 " style=" stroke:none;fill-rule:nonzero;fill:rgb(0%,0%,0%);fill-opacity:1;" />
<path d="M 86.5 25.515625 L 66.5 25.515625 C 62.359375 25.515625 59 28.871094 59 33.015625 C 59 37.15625 62.359375 40.515625 66.5 40.515625 L 86.5 40.515625 C 90.640625 40.515625 94 37.15625 94 33.015625 C 94 28.871094 90.640625 25.515625 86.5 25.515625 Z M 86.5 25.515625 " style=" stroke:none;fill-rule:nonzero;fill:rgb(0%,0%,0%);fill-opacity:1;" />
<path d="M 489.5 467 L 473.5 467 L 473.5 404.5 C 473.5 400.359375 470.144531 397 466 397 L 443.5 397 L 443.5 95 L 449 95 C 462.511719 95 473.5 84.007812 473.5 70.5 L 473.5 7.5 C 473.5 3.359375 470.144531 0 466 0 L 46 0 C 41.859375 0 38.5 3.359375 38.5 7.5 L 38.5 70.5 C 38.5 84.007812 49.492188 95 63 95 L 68.5 95 L 68.5 127.75 C 68.5 131.890625 71.859375 135.25 76 135.25 C 80.140625 135.25 83.5 131.890625 83.5 127.75 L 83.5 95 L 89 95 C 102.507812 95 113.5 84.007812 113.5 70.5 C 113.5 65.261719 117.761719 61 123 61 L 149 61 C 154.238281 61 158.5 65.261719 158.5 70.5 C 158.5 84.007812 169.492188 95 183 95 L 209 95 C 222.507812 95 233.5 84.007812 233.5 70.5 C 233.5 65.261719 237.761719 61 243 61 L 248.5 61 L 248.5 213.003906 C 241.859375 212.839844 235.765625 212.308594 230.144531 211.414062 L 230.320312 210.824219 C 232.484375 203.410156 229.671875 195.617188 223.308594 191.433594 C 219.039062 188.625 215 184.195312 210.324219 179.070312 C 201.757812 169.671875 191.097656 157.980469 173.835938 152.003906 C 150.117188 143.78125 127.84375 157.4375 116.671875 166.3125 C 113.722656 168.65625 111.878906 172.15625 111.613281 175.910156 C 111.347656 179.660156 112.675781 183.378906 115.25 186.101562 L 123.4375 194.796875 C 110.398438 209.402344 79.808594 248.128906 100.5 269.613281 C 119.984375 289.839844 135.738281 278.839844 145.152344 272.265625 C 146.921875 271.027344 148.59375 269.859375 150.117188 268.980469 C 152.679688 267.5 154.953125 267.425781 159.085938 267.417969 C 162.332031 267.410156 166.183594 267.40625 170.5 266.207031 C 170.589844 275.320312 172.441406 287.003906 179.21875 298.265625 L 157.777344 335.421875 C 154.765625 340.628906 153.964844 346.695312 155.523438 352.503906 C 157.078125 358.308594 160.804688 363.160156 166.007812 366.164062 C 176.75 372.371094 190.535156 368.675781 196.746094 357.925781 L 214.988281 326.304688 C 220.261719 328.28125 225.996094 329.898438 232.160156 331.171875 C 232.230469 331.1875 232.296875 331.21875 232.371094 331.234375 C 234.589844 331.6875 236.886719 332.085938 239.230469 332.445312 C 239.355469 332.464844 239.476562 332.488281 239.601562 332.507812 C 240.53125 332.648438 241.46875 332.777344 242.414062 332.90625 C 242.78125 332.953125 243.144531 333.003906 243.511719 333.050781 C 244.371094 333.15625 245.238281 333.265625 246.113281 333.363281 C 246.636719 333.421875 247.164062 333.472656 247.6875 333.527344 C 247.957031 333.554688 248.226562 333.582031 248.496094 333.609375 L 248.496094 397 L 83.496094 397 L 83.496094 160 C 83.496094 155.859375 80.140625 152.5 75.996094 152.5 C 71.855469 152.5 68.496094 155.859375 68.496094 160 L 68.496094 397 L 46 397 C 41.859375 397 38.5 400.359375 38.5 404.5 L 38.5 467 L 22.5 467 C 10.09375 467 0 477.09375 0 489.5 C 0 501.90625 10.09375 512 22.5 512 L 489.5 512 C 501.90625 512 512 501.90625 512 489.5 C 512 477.09375 501.90625 467 489.5 467 Z M 218.5 70.5 C 218.5 75.738281 214.238281 80 209 80 L 183 80 C 177.761719 80 173.5 75.738281 173.5 70.5 C 173.5 56.992188 162.507812 46 149 46 L 123 46 C 109.492188 46 98.5 56.992188 98.5 70.5 C 98.5 75.738281 94.238281 80 89 80 L 63 80 C 57.761719 80 53.5 75.738281 53.5 70.5 L 53.5 15 L 458.5 15 L 458.5 70.5 C 458.5 75.738281 454.238281 80 449 80 L 423 80 C 417.761719 80 413.5 75.738281 413.5 70.5 C 413.5 56.992188 402.511719 46 389 46 L 363 46 C 349.488281 46 338.5 56.992188 338.5 70.5 C 338.5 75.738281 334.238281 80 329 80 L 303 80 C 297.761719 80 293.5 75.738281 293.5 70.5 C 293.5 56.992188 282.511719 46 269 46 L 243 46 C 229.492188 46 218.5 56.992188 218.5 70.5 Z M 168.925781 166.175781 C 182.582031 170.90625 191.050781 180.195312 199.242188 189.175781 C 204.375 194.808594 209.226562 200.128906 215.066406 203.964844 C 215.871094 204.496094 216.222656 205.585938 215.921875 206.609375 L 215.53125 207.9375 C 204.566406 204.238281 197.527344 199.054688 190.925781 194.183594 C 189.988281 193.496094 189.066406 192.816406 188.148438 192.148438 C 175.792969 183.199219 155.796875 168.71875 134.28125 184.429688 L 127.316406 177.035156 C 135.136719 171.101562 152.351562 160.429688 168.925781 166.175781 Z M 214.949219 310.039062 C 211.425781 308.40625 207.234375 309.730469 205.292969 313.09375 L 183.757812 350.425781 C 181.6875 354.011719 177.089844 355.242188 173.507812 353.175781 C 171.769531 352.171875 170.527344 350.554688 170.011719 348.621094 C 169.492188 346.6875 169.761719 344.664062 170.765625 342.921875 L 194.527344 301.753906 C 196.003906 299.195312 195.839844 296.003906 194.105469 293.609375 C 186.34375 282.878906 185.175781 270.921875 185.5625 262.765625 C 185.757812 258.515625 183.777344 254.542969 180.261719 252.136719 C 176.761719 249.738281 172.363281 249.328125 168.484375 251.039062 C 165.394531 252.40625 162.597656 252.414062 159.058594 252.417969 C 154.46875 252.425781 148.757812 252.4375 142.605469 255.996094 C 140.53125 257.195312 138.515625 258.605469 136.566406 259.96875 C 127.417969 266.351562 121.898438 270.207031 111.304688 259.210938 C 100.023438 247.5 125.082031 214.335938 139.023438 200.058594 C 152.667969 186.648438 163.363281 192.71875 179.347656 204.296875 C 180.230469 204.933594 181.117188 205.589844 182.019531 206.253906 C 190.691406 212.652344 200.613281 219.953125 217.925781 224.277344 L 220.664062 256.632812 C 221.011719 260.757812 224.632812 263.824219 228.769531 263.472656 C 232.894531 263.125 235.957031 259.496094 235.609375 255.367188 L 233.207031 226.992188 C 235.757812 227.285156 238.429688 227.519531 241.238281 227.695312 C 241.335938 227.703125 241.429688 227.710938 241.523438 227.714844 C 242.660156 227.785156 243.820312 227.839844 245 227.890625 C 245.335938 227.902344 245.664062 227.921875 246.003906 227.933594 C 246.921875 227.964844 247.863281 227.984375 248.808594 228.003906 C 249.367188 228.015625 249.917969 228.035156 250.484375 228.039062 C 251.195312 228.050781 251.929688 228.046875 252.652344 228.050781 C 253.441406 228.050781 254.222656 228.058594 255.023438 228.050781 C 255.496094 228.046875 255.996094 228.03125 256.476562 228.023438 C 257.53125 228.007812 258.582031 227.996094 259.65625 227.964844 C 259.746094 227.964844 259.839844 227.957031 259.925781 227.953125 C 262.976562 227.863281 266.109375 227.71875 269.347656 227.507812 C 270.382812 227.441406 271.410156 227.386719 272.433594 227.339844 C 272.835938 227.320312 273.234375 227.308594 273.636719 227.292969 C 274.25 227.269531 274.859375 227.246094 275.46875 227.230469 C 275.933594 227.21875 276.398438 227.207031 276.855469 227.199219 C 277.417969 227.1875 277.972656 227.183594 278.53125 227.179688 C 279.023438 227.179688 279.519531 227.171875 280.011719 227.175781 C 280.855469 227.175781 281.695312 227.1875 282.527344 227.203125 C 283.007812 227.214844 283.480469 227.234375 283.957031 227.246094 C 284.453125 227.265625 284.949219 227.28125 285.4375 227.300781 C 285.90625 227.320312 286.371094 227.34375 286.835938 227.371094 C 287.375 227.398438 287.910156 227.433594 288.445312 227.46875 C 288.835938 227.496094 289.230469 227.519531 289.617188 227.550781 C 290.515625 227.617188 291.402344 227.695312 292.28125 227.78125 C 292.496094 227.804688 292.703125 227.828125 292.910156 227.851562 C 293.664062 227.929688 294.410156 228.011719 295.148438 228.105469 C 295.253906 228.117188 295.355469 228.132812 295.460938 228.148438 L 286.988281 318.773438 C 286.878906 318.78125 286.765625 318.792969 286.65625 318.804688 C 285.519531 318.90625 284.367188 319 283.199219 319.082031 C 282.855469 319.105469 282.515625 319.128906 282.171875 319.152344 C 279.574219 319.320312 276.902344 319.441406 274.160156 319.503906 C 273.839844 319.511719 273.519531 319.519531 273.195312 319.527344 C 271.808594 319.550781 270.410156 319.570312 268.988281 319.570312 C 267.652344 319.570312 266.335938 319.558594 265.03125 319.535156 C 264.558594 319.527344 264.09375 319.511719 263.625 319.5 C 262.800781 319.480469 261.976562 319.460938 261.164062 319.429688 C 260.613281 319.410156 260.078125 319.382812 259.535156 319.359375 C 258.808594 319.328125 258.085938 319.296875 257.371094 319.257812 C 256.820312 319.226562 256.273438 319.1875 255.726562 319.152344 C 255.03125 319.109375 254.335938 319.0625 253.644531 319.011719 C 253.117188 318.972656 252.597656 318.925781 252.078125 318.882812 C 251.375 318.820312 250.675781 318.761719 249.980469 318.691406 C 249.496094 318.644531 249.019531 318.597656 248.542969 318.546875 C 247.8125 318.46875 247.089844 318.386719 246.371094 318.300781 C 245.945312 318.246094 245.519531 318.195312 245.097656 318.140625 C 244.335938 318.042969 243.585938 317.9375 242.839844 317.832031 C 242.464844 317.777344 242.089844 317.722656 241.71875 317.664062 C 241.433594 317.621094 241.152344 317.574219 240.867188 317.527344 L 238.230469 286.378906 C 237.878906 282.253906 234.257812 279.179688 230.125 279.539062 C 225.996094 279.886719 222.933594 283.515625 223.285156 287.644531 L 225.519531 314.042969 C 221.742188 312.886719 218.210938 311.554688 214.949219 310.039062 Z M 370.980469 244.570312 C 370.980469 244.570312 370.980469 244.574219 370.980469 244.578125 C 371.351562 254.988281 373.59375 272.773438 384.347656 276.152344 C 385.09375 276.386719 385.851562 276.496094 386.597656 276.496094 C 389.785156 276.496094 392.742188 274.445312 393.75 271.242188 C 394.90625 267.558594 393.074219 263.648438 389.617188 262.132812 C 388.34375 260.402344 387.019531 254.886719 386.359375 249.054688 C 391.246094 247.394531 398.75 245.792969 401.347656 250.371094 C 407.078125 260.472656 401 280.3125 389.933594 287.609375 C 378.390625 295.226562 366.65625 285.777344 358.324219 275.519531 C 359.300781 259.046875 354.371094 244.714844 343.964844 233.910156 C 338.746094 228.492188 332.195312 224.042969 324.519531 220.609375 C 326.101562 215.964844 329.796875 209.84375 338.339844 208.828125 C 345.425781 207.988281 352.441406 210.144531 358.085938 214.898438 C 365.722656 221.332031 370.304688 231.867188 370.980469 244.570312 Z M 313.121094 232.160156 C 313.277344 232.21875 313.4375 232.273438 313.597656 232.324219 C 321.621094 235.1875 328.238281 239.207031 333.164062 244.320312 C 341.167969 252.628906 344.53125 263.648438 343.160156 277.078125 C 343.160156 277.082031 343.160156 277.085938 343.160156 277.089844 C 342.191406 286.539062 339.105469 294.121094 333.726562 300.269531 C 331.808594 302.460938 331.332031 305.5625 332.507812 308.230469 L 349.566406 346.96875 C 351.234375 350.753906 349.511719 355.191406 345.726562 356.859375 C 341.9375 358.527344 337.5 356.800781 335.835938 353.015625 L 320.476562 318.132812 C 319.246094 315.34375 316.511719 313.652344 313.609375 313.652344 C 312.832031 313.652344 312.039062 313.773438 311.261719 314.03125 C 308.460938 314.953125 305.460938 315.765625 302.273438 316.457031 L 310.238281 231.226562 C 311.21875 231.523438 312.179688 231.832031 313.121094 232.160156 Z M 53.5 412 L 384.167969 412 C 388.308594 412 391.667969 408.640625 391.667969 404.5 C 391.667969 400.359375 388.308594 397 384.167969 397 L 263.5 397 L 263.5 334.5 C 263.8125 334.507812 264.125 334.515625 264.441406 334.519531 C 265.941406 334.550781 267.453125 334.566406 268.988281 334.566406 C 270.722656 334.566406 272.425781 334.542969 274.117188 334.507812 C 274.433594 334.5 274.75 334.492188 275.0625 334.484375 C 276.710938 334.441406 278.332031 334.382812 279.933594 334.304688 C 280.160156 334.292969 280.382812 334.277344 280.605469 334.265625 C 285.609375 334.003906 290.390625 333.574219 294.890625 332.972656 C 294.972656 332.960938 295.046875 332.933594 295.128906 332.917969 C 300.191406 332.222656 304.957031 331.316406 309.390625 330.1875 L 322.105469 359.0625 C 325.8125 367.476562 334.078125 372.496094 342.734375 372.496094 C 345.757812 372.496094 348.832031 371.882812 351.773438 370.585938 C 363.128906 365.582031 368.296875 352.273438 363.292969 340.921875 L 348.054688 306.320312 C 350.828125 302.457031 353.058594 298.207031 354.730469 293.601562 C 364.550781 302.597656 373.578125 305.414062 381.035156 305.414062 C 388.699219 305.414062 394.703125 302.4375 398.195312 300.132812 C 416.054688 288.351562 424.078125 260.035156 414.394531 242.96875 C 407.777344 231.308594 395.089844 230.972656 384.71875 233.765625 C 382.234375 221.246094 376.375 210.691406 367.746094 203.429688 C 358.894531 195.972656 347.828125 192.601562 336.574219 193.933594 C 321.34375 195.742188 313.632812 206.277344 310.347656 215.746094 C 308.867188 215.371094 307.359375 215.027344 305.824219 214.710938 C 305.566406 214.632812 305.304688 214.558594 305.035156 214.507812 C 297.71875 213.058594 289.789062 212.296875 281.378906 212.195312 C 280.765625 212.1875 280.148438 212.183594 279.53125 212.183594 C 278.910156 212.183594 278.292969 212.179688 277.664062 212.1875 C 276.425781 212.199219 275.171875 212.230469 273.914062 212.269531 C 273.488281 212.285156 273.0625 212.300781 272.636719 212.320312 C 271.230469 212.378906 269.816406 212.445312 268.386719 212.535156 C 268.382812 212.535156 268.378906 212.535156 268.375 212.539062 C 268.367188 212.539062 268.359375 212.539062 268.355469 212.539062 C 266.996094 212.628906 265.671875 212.699219 264.367188 212.765625 C 264.074219 212.78125 263.789062 212.792969 263.5 212.804688 L 263.5 61 L 269 61 C 274.238281 61 278.5 65.261719 278.5 70.5 C 278.5 84.007812 289.488281 95 303 95 L 329 95 C 342.511719 95 353.5 84.007812 353.5 70.5 C 353.5 65.261719 357.761719 61 363 61 L 389 61 C 394.238281 61 398.5 65.261719 398.5 70.5 C 398.5 84.007812 409.488281 95 423 95 L 428.5 95 L 428.5 397 L 416 397 C 411.855469 397 408.5 400.359375 408.5 404.5 C 408.5 408.640625 411.855469 412 416 412 L 458.5 412 L 458.5 467 L 53.5 467 Z M 489.5 497 L 22.5 497 C 18.363281 497 15 493.636719 15 489.5 C 15 485.363281 18.363281 482 22.5 482 L 489.5 482 C 493.636719 482 497 485.363281 497 489.5 C 497 493.636719 493.636719 497 489.5 497 Z M 489.5 497 " style=" stroke:none;fill-rule:nonzero;fill:rgb(0%,0%,0%);fill-opacity:1;" />
<path d="M 123.5 438 C 123.5 442.140625 120.140625 445.5 116 445.5 C 111.859375 445.5 108.5 442.140625 108.5 438 C 108.5 433.859375 111.859375 430.5 116 430.5 C 120.140625 430.5 123.5 433.859375 123.5 438 Z M 123.5 438 " style=" stroke:none;fill-rule:nonzero;fill:rgb(0%,0%,0%);fill-opacity:1;" />
<path d="M 163.5 438 C 163.5 442.140625 160.140625 445.5 156 445.5 C 151.859375 445.5 148.5 442.140625 148.5 438 C 148.5 433.859375 151.859375 430.5 156 430.5 C 160.140625 430.5 163.5 433.859375 163.5 438 Z M 163.5 438 " style=" stroke:none;fill-rule:nonzero;fill:rgb(0%,0%,0%);fill-opacity:1;" />
<path d="M 203.5 438 C 203.5 442.140625 200.140625 445.5 196 445.5 C 191.859375 445.5 188.5 442.140625 188.5 438 C 188.5 433.859375 191.859375 430.5 196 430.5 C 200.140625 430.5 203.5 433.859375 203.5 438 Z M 203.5 438 " style=" stroke:none;fill-rule:nonzero;fill:rgb(0%,0%,0%);fill-opacity:1;" />
<path d="M 243.5 438 C 243.5 442.140625 240.140625 445.5 236 445.5 C 231.859375 445.5 228.5 442.140625 228.5 438 C 228.5 433.859375 231.859375 430.5 236 430.5 C 240.140625 430.5 243.5 433.859375 243.5 438 Z M 243.5 438 " style=" stroke:none;fill-rule:nonzero;fill:rgb(0%,0%,0%);fill-opacity:1;" />
<path d="M 283.5 438 C 283.5 442.140625 280.140625 445.5 276 445.5 C 271.859375 445.5 268.5 442.140625 268.5 438 C 268.5 433.859375 271.859375 430.5 276 430.5 C 280.140625 430.5 283.5 433.859375 283.5 438 Z M 283.5 438 " style=" stroke:none;fill-rule:nonzero;fill:rgb(0%,0%,0%);fill-opacity:1;" />
<path d="M 323.5 438 C 323.5 442.140625 320.140625 445.5 316 445.5 C 311.859375 445.5 308.5 442.140625 308.5 438 C 308.5 433.859375 311.859375 430.5 316 430.5 C 320.140625 430.5 323.5 433.859375 323.5 438 Z M 323.5 438 " style=" stroke:none;fill-rule:nonzero;fill:rgb(0%,0%,0%);fill-opacity:1;" />
<path d="M 363.5 438 C 363.5 442.140625 360.140625 445.5 356 445.5 C 351.859375 445.5 348.5 442.140625 348.5 438 C 348.5 433.859375 351.859375 430.5 356 430.5 C 360.140625 430.5 363.5 433.859375 363.5 438 Z M 363.5 438 " style=" stroke:none;fill-rule:nonzero;fill:rgb(0%,0%,0%);fill-opacity:1;" />
<path d="M 403.5 438 C 403.5 442.140625 400.140625 445.5 396 445.5 C 391.859375 445.5 388.5 442.140625 388.5 438 C 388.5 433.859375 391.859375 430.5 396 430.5 C 400.140625 430.5 403.5 433.859375 403.5 438 Z M 403.5 438 " style=" stroke:none;fill-rule:nonzero;fill:rgb(0%,0%,0%);fill-opacity:1;" />
</g>
</svg>