<svg width="50" height="50" viewBox="0 0 50 50" fill="none" xmlns="http://www.w3.org/2000/svg">
<path d="M14.6348 19.1172C16.5054 19.1172 18.0273 17.5952 18.0273 15.7246C18.0273 13.854 16.5054 12.332 14.6348 12.332C12.7642 12.332 11.2422 13.854 11.2422 15.7246C11.2422 17.5952 12.7642 19.1172 14.6348 19.1172ZM14.6348 13.332C15.9541 13.332 17.0273 14.4053 17.0273 15.7246C17.0273 17.0439 15.9541 18.1172 14.6348 18.1172C13.3154 18.1172 12.2422 17.0439 12.2422 15.7246C12.2422 14.4053 13.3154 13.332 14.6348 13.332Z" fill="black"/>
<path d="M5.34862 21.0864C5.85203 21.9587 6.81883 22.4761 8.07078 22.543C9.01707 22.5925 10.0493 22.3787 11.0532 21.9226C11.2767 24.2759 12.5219 26.0818 14.1338 26.3953V39.3218C11.6131 33.8828 6.10328 29.4459 5.83153 29.2292C5.64012 29.0767 5.3657 29.0847 5.18455 29.2495C5.00291 29.4138 4.96727 29.6855 5.09959 29.8914C8.48909 35.1491 9.40989 42.2194 9.5944 44H5.49754C5.22117 44 4.99754 44.2239 4.99754 44.5C4.99754 44.7761 5.22117 45 5.49754 45H44.4975C44.7739 45 44.9975 44.7761 44.9975 44.5C44.9975 44.2239 44.7739 44 44.4975 44H40.4044C40.5883 42.2201 41.5067 35.1542 44.8994 29.8914C45.0317 29.6855 44.9961 29.4138 44.8144 29.2495C44.6338 29.0852 44.3589 29.0771 44.1675 29.2292C43.8957 29.4459 38.3859 33.883 35.8652 39.3221V26.3951C37.4697 26.0822 38.7109 24.2881 38.9409 21.9236C39.935 22.3757 40.9741 22.5959 41.9267 22.543C43.1787 22.4761 44.146 21.9587 44.6494 21.0864C45.5737 19.4846 44.6421 17.2332 42.5234 15.7244C44.6426 14.2156 45.5737 11.9641 44.6494 10.3621C44.146 9.48975 43.1787 8.97241 41.9267 8.90576C40.9751 8.85352 39.9507 9.06934 38.9448 9.52637C38.6992 6.93433 37.2148 5 35.3647 5C33.522 5 32.042 6.91943 31.7886 9.52515C30.7944 9.07251 29.7563 8.85425 28.8027 8.90576C27.5508 8.97241 26.5835 9.48975 26.0801 10.3621C25.1587 11.959 26.081 14.2012 28.209 15.7222C26.0879 17.231 25.1553 19.4839 26.0801 21.0864C26.5835 21.9587 27.5503 22.4761 28.8027 22.543C29.7422 22.5945 30.7783 22.3791 31.7847 21.9221C32.0076 24.2758 33.2532 26.0818 34.8652 26.3953V39.3221C32.3445 33.883 26.8347 29.4459 26.563 29.2292C26.3716 29.0767 26.0972 29.0847 25.916 29.2495C25.7344 29.4138 25.6987 29.6855 25.831 29.8914C29.2205 35.1491 30.1413 42.2194 30.3258 44H19.6731C19.8576 42.2194 20.778 35.1491 24.168 29.8914C24.3003 29.6855 24.2646 29.4138 24.083 29.2495C23.9023 29.0857 23.6279 29.0769 23.436 29.2292C23.1643 29.4459 17.6542 33.8827 15.1338 39.3217V26.395C16.7379 26.0821 17.979 24.288 18.209 21.9236C19.2041 22.376 20.2441 22.5957 21.1953 22.543C22.4472 22.4761 23.414 21.9587 23.9175 21.0864C24.8418 19.4846 23.9106 17.2332 21.792 15.7244C23.9106 14.2156 24.8418 11.9641 23.9175 10.3621C23.414 9.48975 22.4472 8.97241 21.1953 8.90576C20.2475 8.85474 19.2197 9.06934 18.2129 9.52661C17.9673 6.93457 16.4829 5 14.6333 5C12.7842 5 11.3003 6.93311 11.0537 9.52368C10.06 9.07227 9.02098 8.85547 8.07078 8.90576C6.81883 8.97241 5.85203 9.48975 5.34862 10.3621C4.42723 11.9587 5.34959 14.2009 7.47752 15.7222C5.35643 17.2312 4.42381 19.4839 5.34862 21.0864ZM32.7485 21.1714C32.749 21.1631 32.7505 21.1289 32.7505 21.1204C32.7505 20.9416 32.6387 20.7869 32.4839 20.6975C32.4111 20.6555 32.3262 20.6355 32.2412 20.6355C32.1455 20.6355 32.0488 20.6606 31.9673 20.708C30.9429 21.2996 29.8393 21.5947 28.8559 21.5444C27.9531 21.4961 27.2749 21.156 26.9463 20.5864C26.2373 19.3582 27.3389 17.3381 29.3823 16.1597C29.5386 16.0713 29.6181 15.897 29.6191 15.7175C29.6201 15.5381 29.5073 15.3628 29.352 15.2729C27.3389 14.1106 26.2373 12.0906 26.9463 10.8621C27.2749 10.2925 27.9531 9.95239 28.8559 9.9043C29.8335 9.85254 30.9424 10.1489 31.9975 10.7595C32.1528 10.8506 32.3437 10.8315 32.498 10.7429C32.6538 10.6538 32.749 10.4687 32.749 10.2896C32.749 7.96436 33.9468 6 35.3647 6C36.7827 6 37.9804 7.96436 37.9809 10.2771C37.9804 10.2856 37.979 10.3201 37.979 10.3284C37.979 10.5071 38.0908 10.6619 38.2456 10.7512C38.4004 10.8408 38.6079 10.8303 38.7617 10.7407C39.7861 10.1489 40.8862 9.85254 41.8735 9.9043C42.7763 9.95239 43.4546 10.2925 43.7832 10.8621C44.4922 12.0906 43.3906 14.1106 41.3857 15.2686C41.3779 15.2725 41.3476 15.2888 41.3403 15.2932C41.1836 15.385 41.1006 15.5605 41.105 15.7419C41.1089 15.9224 41.2212 16.092 41.3799 16.1772C43.3916 17.3398 44.4917 19.3586 43.7832 20.5864C43.4546 21.156 42.7763 21.4961 41.8735 21.5444C40.8862 21.5967 39.7861 21.2996 38.7319 20.6892C38.5766 20.5981 38.3862 20.6172 38.2314 20.7058C38.0757 20.7949 37.9804 20.98 37.9804 21.1592C37.9804 23.4844 36.7827 25.4487 35.3647 25.4487C33.9468 25.4487 32.749 23.4844 32.7485 21.1714ZM28.1372 31.9995C30.4761 34.292 33.9634 38.2759 34.8769 42.3874C34.9282 42.6162 35.1308 42.779 35.3652 42.779C35.5996 42.779 35.8022 42.6162 35.8535 42.3874C36.7671 38.2759 40.2544 34.292 42.5932 31.9995C40.1895 37.0621 39.5341 42.5623 39.3981 44H31.3323C31.1963 42.5623 30.5409 37.0621 28.1372 31.9995ZM21.8613 31.9995C19.4576 37.0621 18.8026 42.5623 18.6666 44H10.6009C10.4649 42.5623 9.80946 37.0621 7.40574 31.9995C9.74461 34.292 13.2319 38.2759 14.1455 42.3874C14.1968 42.6162 14.3994 42.779 14.6338 42.779C14.8681 42.779 15.0713 42.6162 15.1221 42.3874C16.0351 38.2764 19.5229 34.2922 21.8613 31.9995ZM8.65037 16.1597C8.80662 16.0713 8.88621 15.897 8.88719 15.7175C8.88817 15.5381 8.77537 15.3628 8.6201 15.2732C6.6074 14.1104 5.50584 12.0903 6.21483 10.8621C6.54344 10.2925 7.22166 9.95239 8.12449 9.9043C9.09569 9.85059 10.2109 10.1487 11.2305 10.738C11.2388 10.7432 11.2656 10.7595 11.2739 10.7642C11.4292 10.8513 11.6177 10.8301 11.7705 10.7405C11.9238 10.6509 12.0176 10.4673 12.0176 10.2896C12.0176 7.96436 13.2153 6 14.6333 6C16.0508 6 17.2485 7.96436 17.2475 10.3284C17.2475 10.5071 17.3594 10.6619 17.5141 10.7512C17.6694 10.8408 17.8764 10.8303 18.0303 10.7407C19.0552 10.1487 20.1684 9.85132 21.1416 9.9043C22.0444 9.95239 22.7226 10.2925 23.0513 10.8621C23.7602 12.0906 22.6587 14.1106 20.6543 15.2686C20.6465 15.2725 20.6162 15.2888 20.6089 15.2932C20.4521 15.385 20.3691 15.5605 20.3735 15.7419C20.3774 15.9224 20.4897 16.092 20.6484 16.1772C22.6596 17.3398 23.7602 19.3586 23.0513 20.5864C22.7226 21.156 22.0444 21.4961 21.1416 21.5444C20.1606 21.5947 19.0547 21.2996 18.0005 20.6892C17.8467 20.5989 17.6557 20.6169 17.4995 20.7058C17.3442 20.7949 17.2485 20.98 17.2485 21.1592C17.2485 23.4844 16.0508 25.4487 14.6333 25.4487C13.2153 25.4487 12.0176 23.4844 12.0185 21.1389C12.0254 20.957 11.9165 20.7961 11.7602 20.7024C11.6855 20.6572 11.5976 20.6357 11.5093 20.6357C11.4136 20.6357 11.3174 20.6606 11.2358 20.7078C10.2104 21.3 9.09617 21.594 8.12449 21.5444C7.22166 21.4961 6.54344 21.156 6.21483 20.5864C5.50584 19.3582 6.6074 17.3384 8.65037 16.1597Z" fill="black"/>
<path d="M38.7539 15.7246C38.7539 13.854 37.2319 12.332 35.3613 12.332C33.4907 12.332 31.9688 13.854 31.9688 15.7246C31.9688 17.5952 33.4907 19.1172 35.3613 19.1172C37.2319 19.1172 38.7539 17.5952 38.7539 15.7246ZM35.3613 18.1172C34.042 18.1172 32.9687 17.0439 32.9687 15.7246C32.9687 14.4053 34.042 13.332 35.3613 13.332C36.6807 13.332 37.7539 14.4053 37.7539 15.7246C37.7539 17.0439 36.6807 18.1172 35.3613 18.1172Z" fill="black"/>
</svg>
