<svg width="50" height="50" viewBox="0 0 50 50" fill="none" xmlns="http://www.w3.org/2000/svg">
<g clip-path="url(#clip0_24404_47775)">
<path d="M44.7467 27.0443L49.5699 22.2211C50.142 21.6491 50.142 20.7217 49.5699 20.1498C48.9979 19.5777 48.0705 19.5777 47.4985 20.1498L42.6753 24.973L37.852 20.1498C37.28 19.5777 36.3526 19.5777 35.7806 20.1498C35.2085 20.7218 35.2085 21.6492 35.7806 22.2211L40.6038 27.0443L35.7806 31.8674C35.2085 32.4395 35.2085 33.3668 35.7806 33.9388C36.3526 34.5108 37.28 34.5109 37.852 33.9388L42.6753 29.1156L47.4985 33.9388C48.0705 34.5108 48.9979 34.5109 49.5699 33.9388C50.142 33.3667 50.142 32.4394 49.5699 31.8674L44.7467 27.0443Z" fill="black"/>
<path d="M29.6938 0.421609C28.1331 -0.309446 26.341 -0.078196 25.0169 1.02522L12.6523 11.329H4.39425C1.9712 11.329 0 13.3002 0 15.7233V34.276C0 36.699 1.9712 38.6702 4.39425 38.6702H12.6524L25.017 48.9741C26.3424 50.0785 28.1347 50.308 29.694 49.5778C31.2548 48.8467 32.2243 47.3219 32.2243 45.5984V4.40091C32.2242 2.67737 31.2547 1.15266 29.6938 0.421609ZM11.7179 35.7602H4.39425C3.58663 35.7602 2.9295 35.0836 2.9295 34.2759V15.7233C2.9295 14.9157 3.58663 14.2585 4.39425 14.2585H11.7179V35.7602ZM29.2948 45.5983C29.2948 46.4624 28.6493 46.8321 28.4513 46.9246C28.2535 47.0174 27.5563 47.2768 26.8923 46.7234L14.6474 36.5194V13.4798L26.8923 3.27571C27.5563 2.72239 28.2536 2.98177 28.4513 3.07444C28.6492 3.16712 29.2948 3.53665 29.2948 4.40091V45.5983Z" fill="black"/>
</g>
<defs>
<clipPath id="clip0_24404_47775">
<rect width="50" height="49.9999" fill="white"/>
</clipPath>
</defs>
</svg>
