<svg width="50" height="50" viewBox="0 0 50 50" fill="none" xmlns="http://www.w3.org/2000/svg">
<g clip-path="url(#clip0_24404_47758)">
<path d="M2.27125 50C1.86375 50 1.53125 49.6675 1.53125 49.26V0.74C1.53125 0.3325 1.86375 0 2.27125 0H47.7212C48.1287 0 48.4613 0.3325 48.4613 0.74V49.2625C48.4613 49.67 48.1287 50.0025 47.7212 50.0025H2.27125V50ZM33.1387 48.5225H46.9837V1.4775H33.1387V48.5225ZM3.01125 48.5225H31.6612V1.4775H3.01125V48.5225ZM20.4737 47.7725C19.6562 47.7725 18.7537 47.41 18.1162 46.8275L18.0138 46.735L17.9112 46.8275C17.2737 47.41 16.3712 47.7725 15.5537 47.7725C14.1412 47.7725 12.5588 46.635 12.5588 45.1125V32.265L12.3688 32.315C12.1763 32.365 11.9763 32.39 11.7763 32.39C11.7563 32.39 11.7338 32.39 11.7138 32.39C10.4663 32.3525 9.45375 31.285 9.45375 30.01V20.6875C9.45375 18.93 10.8838 17.5025 12.6388 17.5025H13.0463L13.0662 17.4975C13.1313 17.48 13.1962 17.47 13.2587 17.47C13.3212 17.47 13.3863 17.48 13.4513 17.4975L13.4713 17.5025H15.4987L15.1087 17.2275C13.7612 16.2775 12.9563 14.73 12.9563 13.0875C12.9563 10.2975 15.2262 8.03 18.0138 8.03C20.8013 8.03 23.0737 10.3 23.0737 13.09C23.0737 14.7325 22.2687 16.28 20.9212 17.23L20.5312 17.505H22.5063L22.5263 17.5C22.5912 17.4825 22.6562 17.4725 22.7188 17.4725C22.7812 17.4725 22.8462 17.4825 22.9112 17.5L22.9312 17.505H23.3912C25.1488 17.505 26.5762 18.935 26.5762 20.69V30.0125C26.5762 31.2875 25.5612 32.3575 24.3162 32.3925C24.2962 32.3925 24.2763 32.3925 24.2563 32.3925C24.0538 32.3925 23.8537 32.3675 23.6612 32.3175L23.4713 32.2675V45.115C23.4688 46.635 21.8887 47.7725 20.4737 47.7725ZM18.0438 31.935C18.4513 31.935 18.7838 32.2675 18.7838 32.675V45.1375C18.7838 45.1625 18.7812 45.19 18.7787 45.22L18.7763 45.2525L18.7862 45.285C18.9487 45.7775 19.8162 46.2975 20.4762 46.2975C21.2138 46.2975 21.9912 45.69 21.9912 45.115V30.6925L21.9888 30.68C21.9813 30.6375 21.9788 30.5975 21.9788 30.5625V18.98H13.9987V30.305L14.0063 30.3275C14.0288 30.4 14.0413 30.4725 14.0413 30.5475V45.1125C14.0413 45.6875 14.8212 46.295 15.5563 46.295C15.8888 46.295 16.3162 46.1525 16.6712 45.9225C17.0562 45.6725 17.2762 45.3775 17.2762 45.1125C17.2762 45.0525 17.2837 44.99 17.3012 44.9275L17.3063 44.91V32.675C17.3063 32.2675 17.6362 31.935 18.0438 31.935ZM12.3438 19.0075C11.5262 19.1525 10.9338 19.8575 10.9338 20.6875V30.01C10.9338 30.47 11.3263 30.9 11.7587 30.9125H11.7812C12.0688 30.9125 12.3363 30.7675 12.4963 30.525L12.5213 30.4875V18.9775L12.3438 19.0075ZM23.4563 30.3825L23.4688 30.4125C23.6063 30.7175 23.9113 30.915 24.2437 30.915H24.2662C24.6987 30.9025 25.0938 30.4725 25.0938 30.0125V20.6875C25.0938 19.8425 24.4638 19.1175 23.6262 19L23.4537 18.975L23.4563 30.3825ZM18.0162 9.51C16.0412 9.51 14.4362 11.115 14.4362 13.09C14.4362 14.045 14.8087 14.9425 15.4862 15.62C16.1637 16.2975 17.0612 16.67 18.0162 16.67C19.9912 16.67 21.5963 15.065 21.5963 13.09C21.5963 11.115 19.9887 9.51 18.0162 9.51ZM39.9412 34.975C39.5312 34.975 39.1512 34.755 38.9463 34.4L35.3887 28.2375C35.1838 27.8825 35.1838 27.4425 35.3887 27.0875C35.5938 26.7325 35.9762 26.5125 36.3838 26.5125H43.4987C43.9087 26.5125 44.2887 26.7325 44.4938 27.0875C44.6987 27.4425 44.6987 27.8825 44.4938 28.2375L40.9362 34.4C40.7337 34.755 40.3512 34.975 39.9412 34.975ZM39.9412 33.1675L42.9288 27.99H36.9512L39.9412 33.1675ZM36.3838 24.6C35.9738 24.6 35.5938 24.38 35.3887 24.025C35.1838 23.67 35.1838 23.23 35.3887 22.875L38.9463 16.7125C39.1512 16.3575 39.5338 16.1375 39.9412 16.1375C40.3512 16.1375 40.7313 16.3575 40.9362 16.7125L44.4963 22.875C44.7012 23.23 44.7012 23.67 44.4963 24.025C44.2912 24.38 43.9087 24.6 43.5012 24.6H36.3838ZM36.9538 23.12H42.9313L39.9438 17.9425L36.9538 23.12Z" fill="black"/>
</g>
<defs>
<clipPath id="clip0_24404_47758">
<rect width="50" height="50" fill="white"/>
</clipPath>
</defs>
</svg>
