<svg width="50" height="50" viewBox="0 0 50 50" fill="none" xmlns="http://www.w3.org/2000/svg">
<g clip-path="url(#clip0_23715_49770)">
<path d="M21.4116 30.9211C21.1265 30.5978 20.8114 30.2974 20.4752 30.0283C20.1376 29.758 19.645 29.8124 19.3748 30.15C19.1047 30.4875 19.1592 30.9802 19.4966 31.2504C19.7624 31.4634 20.0117 31.7009 20.2374 31.9568C20.3921 32.1323 20.608 32.2218 20.8248 32.2218C21.0088 32.2218 21.1936 32.1573 21.3424 32.0261C21.6665 31.7401 21.6975 31.2454 21.4116 30.9211Z" fill="black"/>
<path d="M38.3584 36.7432C36.5453 36.7432 35.0703 38.2183 35.0703 40.0312C35.0703 41.8443 36.5454 43.3193 38.3584 43.3193C40.1715 43.3193 41.6465 41.8442 41.6465 40.0312C41.6466 38.2182 40.1715 36.7432 38.3584 36.7432ZM38.3584 41.7535C37.4087 41.7535 36.636 40.9809 36.636 40.0312C36.636 39.0814 37.4087 38.3088 38.3584 38.3088C39.3081 38.3088 40.0808 39.0814 40.0808 40.0312C40.0808 40.9809 39.3081 41.7535 38.3584 41.7535Z" fill="black"/>
<path d="M45.0444 45.0939H42.5672C44.048 43.8567 44.9923 41.9972 44.9923 39.9198C44.9923 37.1265 43.3115 34.664 40.7103 33.646L34.1116 31.0639L43.9095 8.20205C45.4688 7.9457 46.6624 6.58896 46.6624 4.9582V3.28809C46.6624 1.475 45.1873 0 43.3743 0H41.7042C41.2719 0 40.9213 0.350391 40.9213 0.78291C40.9213 1.21533 41.2718 1.56582 41.7042 1.56582H43.3743C44.324 1.56582 45.0967 2.33848 45.0967 3.28818V4.9583C45.0967 5.90645 44.3265 6.67803 43.3788 6.68047C43.3769 6.68047 43.375 6.68066 43.3729 6.68066H41.1353C40.1525 6.68066 39.2676 7.26426 38.8806 8.16738L29.7922 29.3737L19.7538 25.4456C18.8996 25.1113 18.0177 24.8917 17.1286 24.7829L15.8785 12.6978L18.8362 12.5006H18.8361C19.9234 12.4282 20.7752 11.5178 20.7752 10.4279C20.7752 9.28262 19.8434 8.35078 18.698 8.35078H8.76035C7.61504 8.35078 6.6832 9.28262 6.6832 10.4279V11.0904C6.6832 11.6632 6.92305 12.2161 7.34131 12.6073C7.72617 12.9674 8.2373 13.1676 8.76162 13.1676C8.80723 13.1676 8.85283 13.166 8.89844 13.163L10.9975 13.023L12.268 25.3027C11.3787 25.6122 10.5233 26.0392 9.72637 26.5831C6.7751 28.5977 5.01309 31.9334 5.01309 35.5066C5.01309 39.5783 7.20674 43.1469 10.4738 45.094H4.96084C3.6082 45.094 2.50781 46.1944 2.50781 47.5471C2.50781 48.8997 3.6082 50.0001 4.96084 50.0001H45.0443C46.397 50.0001 47.4974 48.8997 47.4974 47.5471C47.4975 46.1943 46.397 45.0939 45.0444 45.0939ZM40.3197 8.78398C40.4597 8.45732 40.7799 8.24629 41.1353 8.24629H42.187L32.6526 30.4931L31.2509 29.9445L40.3197 8.78398ZM8.79443 11.6008C8.65146 11.6101 8.51562 11.5617 8.41113 11.464C8.30664 11.3661 8.24902 11.2336 8.24902 11.0904V10.4279C8.24902 10.146 8.47842 9.9165 8.76045 9.9165H18.6979C18.98 9.9165 19.2094 10.1459 19.2094 10.4279C19.2094 10.6962 18.9997 10.9204 18.732 10.9383C18.732 10.9383 18.732 10.9383 18.7319 10.9383L8.79443 11.6008ZM15.5464 24.7058C14.96 24.7204 14.3758 24.7837 13.7996 24.8933L12.5608 12.9189L14.315 12.8021L15.5464 24.7058ZM45.0444 48.4343H4.96084C4.47158 48.4343 4.07354 48.0362 4.07354 47.547C4.07354 47.0577 4.47158 46.6597 4.96084 46.6597H29.1779C29.6103 46.6597 29.9608 46.3093 29.9608 45.8768C29.9608 45.4443 29.6104 45.0938 29.1779 45.0938H16.1662C10.8797 45.0938 6.57881 40.793 6.57881 35.5064C6.57881 32.4055 8.04785 29.6244 10.609 27.8763C13.1701 26.128 16.2953 25.7735 19.1831 26.9036L40.1396 35.104C42.1362 35.8854 43.4264 37.7756 43.4264 39.9226C43.4264 42.7739 41.1065 45.0938 38.2552 45.0938H37.5286C37.0963 45.0938 36.7457 45.4441 36.7457 45.8767C36.7457 46.3091 37.0962 46.6596 37.5286 46.6596H45.0442C45.5335 46.6596 45.9315 47.0576 45.9315 47.5469C45.9316 48.0362 45.5336 48.4343 45.0444 48.4343Z" fill="black"/>
<path d="M23.3308 38.4134H22.827C23.1238 37.598 23.2785 36.7318 23.2785 35.856C23.2785 35.224 23.1993 34.596 23.0429 33.9892C22.9351 33.5705 22.5081 33.3184 22.0895 33.4264C21.6709 33.5342 21.4188 33.961 21.5268 34.3798C21.6501 34.8591 21.7128 35.3558 21.7128 35.856C21.7128 36.769 21.5012 37.6684 21.0986 38.4791C20.7122 38.57 20.3609 38.7524 20.0687 39.0023L16.3687 35.3023C16.063 34.9967 15.5673 34.9967 15.2616 35.3023C14.9559 35.6082 14.9559 36.1038 15.2616 36.4096L19.2526 40.4006C19.2354 40.49 19.2232 40.5813 19.216 40.6739C18.2192 41.3807 17.0513 41.7536 15.815 41.7536C12.5631 41.7536 9.91728 39.1079 9.91728 35.8559C9.91728 32.6038 12.563 29.9582 15.815 29.9582C16.0622 29.9582 16.3106 29.9735 16.5532 30.0039C16.7367 30.0269 16.9209 30.0586 17.1005 30.0984C17.5229 30.1927 17.9408 29.9261 18.0345 29.504C18.1282 29.0819 17.862 28.6637 17.4399 28.5701C17.2125 28.5196 16.9794 28.4793 16.7472 28.4503C16.4404 28.412 16.1267 28.3926 15.815 28.3926C11.6997 28.3926 8.35156 31.7407 8.35156 35.8561C8.35156 39.9714 11.6997 43.3195 15.815 43.3195C17.1653 43.3195 18.493 42.9479 19.644 42.261C20.0873 42.9 20.8257 43.3195 21.6605 43.3195H23.3307C24.6833 43.3195 25.7837 42.2191 25.7837 40.8665C25.7838 39.5139 24.6833 38.4134 23.3308 38.4134ZM23.3308 41.7536H21.6606C21.1714 41.7536 20.7733 41.3556 20.7733 40.8663C20.7733 40.3771 21.1714 39.979 21.6606 39.979H23.3308C23.82 39.979 24.2181 40.3771 24.2181 40.8663C24.218 41.3557 23.82 41.7536 23.3308 41.7536Z" fill="black"/>
<path d="M34.1875 45.0938H32.5173C32.085 45.0938 31.7344 45.4441 31.7344 45.8767C31.7344 46.3091 32.0849 46.6596 32.5173 46.6596H34.1874C34.6197 46.6596 34.9703 46.3092 34.9703 45.8767C34.9703 45.4441 34.6198 45.0938 34.1875 45.0938Z" fill="black"/>
</g>
<defs>
<clipPath id="clip0_23715_49770">
<rect width="50" height="50" fill="white"/>
</clipPath>
</defs>
</svg>
