<svg width="50" height="50" viewBox="0 0 50 50" fill="none" xmlns="http://www.w3.org/2000/svg">
<path fill-rule="evenodd" clip-rule="evenodd" d="M16.9462 25.6884C16.718 25.6304 16.5802 25.3981 16.6383 25.1698C16.6963 24.9416 16.9286 24.8038 17.1568 24.8618C17.1637 24.8636 19.6492 25.5286 20.5761 24.4893C21.1589 23.8358 21.8532 23.2239 22.6411 22.8321C23.4592 22.4256 24.3701 22.258 25.3513 22.522C25.8184 22.6478 26.14 22.6633 26.3425 22.5958L26.3583 22.5908C26.412 22.5709 26.4539 22.5434 26.4846 22.5099C26.5169 22.4748 26.5405 22.4264 26.5564 22.3677C26.6173 22.1409 26.567 21.8108 26.4407 21.4311C26.3714 21.2212 26.474 20.9959 26.6718 20.9081L26.6716 20.9076C26.6795 20.904 29.4774 19.6526 31.4237 21.5613C31.9096 22.0379 32.2956 22.2843 32.5857 22.3582C32.702 22.3876 32.7875 22.3852 32.8438 22.3566C32.8958 22.3305 32.9392 22.2726 32.9727 22.1911C33.053 21.9959 33.0655 21.7071 33.0089 21.3676C32.9701 21.1347 33.1274 20.9146 33.3603 20.8758C33.3858 20.8716 33.4111 20.8696 33.4359 20.87C33.6084 20.8652 34.8234 20.8763 35.1173 22.1363C35.1751 22.3838 35.3196 22.5871 35.4898 22.6984L35.5071 22.7103C35.5711 22.7489 35.6346 22.7718 35.6925 22.7746C35.7385 22.7768 35.7849 22.7642 35.8265 22.7335C35.9325 22.6557 36.0264 22.4822 36.0862 22.183C36.1348 21.9394 36.1495 21.7117 36.1343 21.5006C36.0971 20.9778 35.8766 20.5428 35.5418 20.214C35.1963 19.8748 34.726 19.643 34.2034 19.5386C33.921 19.4822 33.625 19.4631 33.3271 19.4843C33.0916 19.5009 32.887 19.3232 32.8704 19.0878C32.8538 18.8523 33.0315 18.6477 33.2669 18.6309C33.6437 18.6039 34.0166 18.6279 34.3708 18.6986C35.0513 18.8346 35.6731 19.1454 36.141 19.6049C36.6197 20.075 36.9348 20.6955 36.9879 21.4401C37.0085 21.7278 36.9898 22.032 36.9261 22.3501C36.8205 22.8789 36.6016 23.2248 36.3321 23.4223C36.1227 23.5758 35.889 23.6389 35.6526 23.6275C35.4438 23.6172 35.2381 23.5477 35.0515 23.4317C35.0414 23.4262 35.0317 23.4204 35.022 23.414C34.6802 23.1907 34.3939 22.7977 34.2849 22.3298C34.2205 22.0541 34.0602 21.9031 33.8967 21.8207C33.8896 22.0802 33.8448 22.3158 33.763 22.515C33.6513 22.7863 33.4733 22.9953 33.229 23.1188C32.9895 23.2399 32.7034 23.2706 32.3757 23.187C31.95 23.0787 31.4295 22.7619 30.8252 22.1694C29.6561 21.0227 28.0557 21.3448 27.3629 21.5618C27.4486 21.9421 27.4627 22.2931 27.3835 22.5878C27.3322 22.778 27.2442 22.9466 27.1143 23.0879C26.9914 23.2218 26.8335 23.3266 26.6381 23.3959L26.6139 23.4047C26.2548 23.5245 25.7683 23.5193 25.1312 23.3477C24.3745 23.1442 23.6638 23.2775 23.0198 23.5975C22.3455 23.9326 21.7359 24.4741 21.2155 25.0573C19.9357 26.4927 16.9547 25.6905 16.9462 25.6884V25.6884Z" fill="black"/>
<path fill-rule="evenodd" clip-rule="evenodd" d="M30.7512 17.502C30.5212 17.5556 30.2912 17.4125 30.2378 17.1825C30.1843 16.9525 30.3272 16.7225 30.5572 16.6691C31.718 16.3988 32.9376 16.2891 33.9379 16.4237C34.5935 16.5117 35.165 16.7065 35.5834 17.0305C36.0429 17.3861 36.3147 17.8805 36.317 18.537C36.3184 18.9284 36.2191 19.3743 35.9997 19.8786C35.9055 20.0947 35.6538 20.1937 35.4377 20.0995C35.2216 20.0053 35.1227 19.7536 35.2169 19.5375C35.3876 19.1454 35.4649 18.8138 35.4638 18.5372C35.4624 18.174 35.3135 17.9013 35.0616 17.7064C34.7688 17.4797 34.3369 17.3392 33.8241 17.2704C32.931 17.1501 31.821 17.2531 30.7512 17.502V17.502Z" fill="black"/>
<path fill-rule="evenodd" clip-rule="evenodd" d="M26.3981 17.5985C26.2252 17.7592 25.9548 17.7495 25.7941 17.5766C25.6334 17.404 25.6431 17.1334 25.8158 16.9729C26.4715 16.3618 27.1703 15.7531 27.8997 15.2831C28.6594 14.7934 29.4526 14.4551 30.2666 14.4156C30.7147 14.3941 31.2117 14.4727 31.6404 14.6523C31.9504 14.7821 32.2313 14.9664 32.4431 15.2063C32.6715 15.4651 32.8174 15.7817 32.8357 16.1565C32.8481 16.413 32.7998 16.691 32.6752 16.9886C32.5847 17.2066 32.3344 17.3099 32.1164 17.2194C31.8984 17.129 31.795 16.8788 31.8855 16.6608C31.9594 16.4841 31.9889 16.3297 31.9824 16.1967C31.9744 16.0315 31.9079 15.8895 31.804 15.7718C31.6836 15.6353 31.5105 15.5247 31.3125 15.4418C30.999 15.3107 30.6349 15.2529 30.3069 15.2688C29.6632 15.3 29.0067 15.5864 28.3615 16.0022C27.6861 16.4377 27.0236 17.0157 26.3981 17.5985Z" fill="black"/>
<path fill-rule="evenodd" clip-rule="evenodd" d="M3.22558 36.8103C2.99733 36.8712 2.76291 36.7357 2.70206 36.5074C2.6412 36.2792 2.77667 36.0448 3.00492 35.9838C6.84261 34.9454 8.83068 30.1527 10.1629 26.9408C10.7337 25.5645 11.1909 24.4628 11.6691 23.9657C12.9576 22.6262 13.8278 22.6811 14.6146 22.7304C15.1466 22.7638 15.6264 22.7938 16.2649 21.9758C16.8391 21.2405 16.9728 20.3354 16.9229 19.5046C16.8708 18.6396 16.6214 17.8533 16.45 17.3961C16.3969 17.2543 16.2887 17.0976 16.1741 16.9311C15.8998 16.5332 15.5945 16.0903 15.562 15.3641C15.5426 14.9297 15.6188 14.4358 15.807 14.0084C15.9398 13.7069 16.13 13.4335 16.3838 13.2264C16.6488 13.0104 16.9761 12.8719 17.3704 12.8543C17.6958 12.8398 18.062 12.9089 18.4698 13.0887C20.0652 13.7918 19.9723 15.1097 19.8885 16.2915C19.8551 16.7659 19.8234 17.2132 19.9358 17.498C20.001 17.6637 20.101 17.7672 20.2174 17.818C20.2954 17.8519 20.3861 17.8665 20.4826 17.8632C20.5882 17.8596 20.7036 17.833 20.8218 17.7864L20.8406 17.7796C21.1696 17.6445 21.4799 17.361 21.6446 16.9833C21.9057 16.3845 21.8492 15.7077 21.7732 14.7922C21.7545 14.5668 21.7342 14.3262 21.7148 14.0193C21.6817 13.4951 21.7885 12.9661 21.996 12.5218C22.1471 12.1985 22.3526 11.9168 22.5982 11.709C22.8652 11.4832 23.1792 11.3412 23.5247 11.3193C23.7719 11.3036 24.0306 11.3506 24.2943 11.4738C25.2959 11.9416 25.3433 12.9204 25.2639 13.7999C25.4811 13.6953 25.6832 13.6397 25.8679 13.6286C26.1988 13.6085 26.4747 13.7175 26.6879 13.9345C26.8752 14.1251 27.0007 14.3934 27.0573 14.7212C27.1726 15.3872 27.0052 16.3727 26.4934 17.4668C26.3937 17.6803 26.1397 17.7722 25.9263 17.6725C25.713 17.5728 25.6208 17.3188 25.7206 17.1054C26.1545 16.1774 26.3027 15.3777 26.2141 14.8649C26.1873 14.71 26.1415 14.5966 26.079 14.5333C26.0423 14.4959 25.9882 14.4774 25.918 14.4816C25.7091 14.4943 25.4183 14.649 25.0475 14.9812C24.9635 15.0681 24.8432 15.1193 24.7131 15.1112C24.4776 15.0965 24.2986 14.8933 24.3132 14.6578C24.3234 14.4975 24.3426 14.3388 24.3626 14.1698C24.4469 13.4614 24.5568 12.538 23.9329 12.2464C23.8078 12.188 23.6886 12.1653 23.5782 12.1725C23.4261 12.182 23.2804 12.251 23.1499 12.3614C22.998 12.49 22.8675 12.6712 22.7686 12.8832C22.62 13.2014 22.5437 13.5835 22.5678 13.9659C22.5828 14.2033 22.6052 14.4709 22.6262 14.7222C22.7123 15.7583 22.776 16.5244 22.4272 17.3247C22.1699 17.9154 21.6797 18.3599 21.159 18.573L21.1361 18.5828C20.9327 18.6633 20.7196 18.7093 20.509 18.7164C20.2891 18.7238 20.0737 18.6869 19.8758 18.6008C19.5581 18.4622 19.2951 18.2047 19.139 17.8092C18.9561 17.3456 18.9944 16.8048 19.0348 16.2312C19.0983 15.3331 19.169 14.3317 18.1246 13.8715C17.8426 13.7473 17.605 13.6988 17.4067 13.7075C17.2116 13.7163 17.0509 13.7837 16.922 13.8888C16.7821 14.0029 16.6715 14.1664 16.5893 14.3529C16.4549 14.658 16.4008 15.0131 16.4147 15.3271C16.4362 15.8077 16.668 16.1437 16.8761 16.4457C17.0211 16.6561 17.1576 16.8541 17.2492 17.0982C17.4397 17.6063 17.7171 18.4823 17.7755 19.4542C17.836 20.4605 17.6644 21.5689 16.9368 22.5008C16.0201 23.675 15.3281 23.6316 14.5605 23.5835C13.9608 23.5459 13.2977 23.5043 12.284 24.5578C11.9189 24.9372 11.4889 25.9737 10.9518 27.2686C9.55546 30.6364 7.47108 35.6617 3.22558 36.8103V36.8103Z" fill="black"/>
<path fill-rule="evenodd" clip-rule="evenodd" d="M13.281 35.5182C13.076 35.6355 12.8144 35.5642 12.6971 35.3593C12.5798 35.1543 12.6511 34.8926 12.8561 34.7754C14.4044 33.8901 16.13 32.5434 17.2871 30.6746C18.1597 29.2649 18.7125 27.5506 18.6236 25.503C18.6136 25.2676 18.7963 25.0681 19.0318 25.058C19.2672 25.048 19.4667 25.2307 19.4768 25.4662C19.5738 27.7038 18.9686 29.5792 18.0129 31.123C16.7655 33.1378 14.9263 34.5774 13.281 35.5182V35.5182Z" fill="black"/>
<path fill-rule="evenodd" clip-rule="evenodd" d="M47.1092 37.5092C47.3106 37.631 47.375 37.8933 47.2531 38.0946C47.1312 38.2958 46.869 38.3604 46.6677 38.2385C43.8271 36.5178 41.2834 36.3106 38.9458 36.1204C37.0526 35.9665 35.2885 35.8229 33.5553 34.9316C32.2172 34.2437 30.8751 33.1741 29.8953 31.8524C29.0445 30.705 28.4637 29.3649 28.3866 27.9136C28.3201 26.6607 28.5376 25.5793 29.0877 24.6238C29.6333 23.6761 30.4976 22.8693 31.7276 22.1591C31.9317 22.0409 32.1932 22.1106 32.3114 22.3147C32.4296 22.5188 32.3599 22.7804 32.1559 22.8985C31.0569 23.533 30.2944 24.237 29.8272 25.0487C29.3643 25.8529 29.1819 26.781 29.2398 27.8702C29.3072 29.139 29.8238 30.3224 30.5812 31.3438C31.4796 32.5556 32.7141 33.5383 33.9467 34.1721C35.5243 34.9833 37.2071 35.1203 39.0128 35.2673C41.4447 35.4652 44.0905 35.6807 47.1092 37.5092V37.5092Z" fill="black"/>
<path fill-rule="evenodd" clip-rule="evenodd" d="M27.2137 21.0859C27.3301 21.2908 27.2581 21.5517 27.053 21.6681C26.848 21.7845 26.5871 21.7126 26.4709 21.5074L26.3996 21.3797C26.3954 21.372 26.3912 21.364 26.3875 21.3561C26.0765 20.7948 25.6489 20.0873 23.2638 20.7726C23.0366 20.8372 22.7997 20.7054 22.7352 20.4782C22.6706 20.251 22.8024 20.0141 23.0295 19.9496C26.0659 19.0771 26.678 20.1224 27.1325 20.9433L27.1454 20.965C27.1632 20.9966 27.1803 21.0275 27.2137 21.0859Z" fill="black"/>
<path fill-rule="evenodd" clip-rule="evenodd" d="M25.4108 22.706C25.59 22.5528 25.8597 22.5737 26.013 22.753C26.1663 22.9322 26.1453 23.2019 25.9661 23.3551C24.1496 24.9026 23.0257 26.7432 22.459 28.7149C21.8231 30.9265 21.8834 33.3088 22.4507 35.6337C22.506 35.8627 22.3653 36.0936 22.1362 36.149C21.9072 36.2044 21.6765 36.0636 21.6211 35.8346C21.0198 33.3703 20.9575 30.8393 21.6357 28.4807C22.2473 26.3538 23.4573 24.3704 25.4108 22.706V22.706Z" fill="black"/>
<path fill-rule="evenodd" clip-rule="evenodd" d="M27.027 36.9745C27.2053 37.1287 27.2247 37.3984 27.0706 37.5767C26.9164 37.7551 26.6467 37.7745 26.4684 37.6203C25.5649 36.8399 24.1012 35.181 23.0762 33.0243C22.3716 31.5418 21.8703 29.8188 21.8913 27.9741C21.893 27.7386 22.0856 27.549 22.3213 27.5508C22.5568 27.5526 22.7464 27.7454 22.7446 27.9808C22.7254 29.6798 23.1927 31.2781 23.849 32.6595C24.8147 34.6917 26.1837 36.2462 27.027 36.9745V36.9745Z" fill="black"/>
<path fill-rule="evenodd" clip-rule="evenodd" d="M26.034 32.5803C26.1716 32.7715 26.1282 33.0382 25.937 33.1758C25.7458 33.3134 25.4791 33.27 25.3415 33.0788C25.3343 33.0685 22.71 29.494 23.233 25.2796C23.2616 25.045 23.4752 24.8779 23.7098 24.9065C23.9444 24.9351 24.1114 25.1487 24.0828 25.3833C23.6013 29.2659 26.0272 32.5708 26.034 32.5803V32.5803Z" fill="black"/>
<path fill-rule="evenodd" clip-rule="evenodd" d="M27.9088 31.3108C28.0649 31.4871 28.0483 31.7568 27.8721 31.9129C27.6957 32.069 27.426 32.0525 27.2699 31.8763C27.2608 31.866 24.0521 28.3091 24.5827 23.616C24.6084 23.3814 24.8199 23.212 25.0545 23.238C25.2891 23.2637 25.4584 23.4752 25.4325 23.7098C24.9446 28.0248 27.9005 31.301 27.9088 31.3108V31.3108Z" fill="black"/>
<path fill-rule="evenodd" clip-rule="evenodd" d="M19.1691 32.0084C19.0121 32.1848 18.7416 32.2005 18.5652 32.0435C18.3888 31.8865 18.3731 31.616 18.5301 31.4397C19.11 30.7875 19.6625 29.7688 19.9727 28.5442C20.2324 27.5202 20.3208 26.3571 20.113 25.1501C20.0733 24.9172 20.2297 24.6962 20.4626 24.6565C20.6954 24.6169 20.9164 24.7733 20.9561 25.0061C21.1858 26.34 21.0886 27.6232 20.8025 28.7516C20.4562 30.1175 19.8302 31.2649 19.1691 32.0084V32.0084Z" fill="black"/>
<path fill-rule="evenodd" clip-rule="evenodd" d="M14.6482 31.7621C14.4432 31.8794 14.1816 31.8082 14.0643 31.6032C13.947 31.3981 14.0183 31.1365 14.2232 31.0194C14.2301 31.0155 16.6911 29.6139 16.2261 27.3041C16.1801 27.0732 16.3298 26.8485 16.5607 26.8023C16.7916 26.7562 17.0165 26.906 17.0626 27.1369C17.6496 30.0531 14.6566 31.7574 14.6482 31.7621Z" fill="black"/>
<path fill-rule="evenodd" clip-rule="evenodd" d="M27.7653 25.7666C27.8013 25.9994 27.6418 26.2174 27.409 26.2534C27.1761 26.2894 26.9581 26.1298 26.9223 25.8971C26.7696 24.9113 27.0655 23.7498 27.7115 22.7867C28.2971 21.9136 29.172 21.1937 30.2628 20.9023C30.491 20.8413 30.7254 20.9769 30.7863 21.2052C30.8473 21.4334 30.7117 21.6678 30.4834 21.7289C29.6068 21.9631 28.8987 22.5491 28.4207 23.2619C27.8905 24.0523 27.6444 24.9878 27.7653 25.7666V25.7666Z" fill="black"/>
<path fill-rule="evenodd" clip-rule="evenodd" d="M33.8078 37.9061C34.0008 38.0418 34.0472 38.3086 33.9116 38.5016C33.7759 38.6946 33.509 38.741 33.3161 38.6055C33.3083 38.5999 30.6149 36.7056 28.9037 34.2388C28.7698 34.0448 28.8185 33.7788 29.0124 33.6449C29.2062 33.511 29.4724 33.5597 29.6063 33.7536C31.2285 36.092 33.8004 37.901 33.8078 37.9061V37.9061Z" fill="black"/>
<path fill-rule="evenodd" clip-rule="evenodd" d="M29.2056 36.5313C29.3774 36.6929 29.3857 36.9635 29.2242 37.1353C29.0626 37.3071 28.792 37.3154 28.6202 37.1538C28.2076 36.7645 27.7755 36.3272 27.3622 35.8575C27.0101 35.4575 26.6655 35.026 26.349 34.5699C26.2151 34.376 26.2638 34.1099 26.4577 33.976C26.6517 33.8421 26.9177 33.8908 27.0516 34.0846C27.3405 34.5011 27.6659 34.9071 28.0044 35.2918C28.4055 35.748 28.8169 36.1646 29.2056 36.5313V36.5313Z" fill="black"/>
</svg>
