<svg width="50" height="50" viewBox="0 0 50 50" fill="none" xmlns="http://www.w3.org/2000/svg">
<g clip-path="url(#clip0_23715_50342)">
<path d="M8.33333 28.1502C7.87778 27.734 7.28367 27.5023 6.66667 27.5002H2.5C1.11929 27.5002 0 28.6195 0 30.0002V47.5002C0 48.8809 1.11929 50.0002 2.5 50.0002H6.66667C7.37375 49.9979 8.04647 49.6949 8.51667 49.1668H29.4167C30.6395 49.1673 31.8389 48.8312 32.8833 48.1952L48.5 38.6885C49.2389 38.2429 49.7592 37.5101 49.9364 36.6656C50.1135 35.8211 49.9316 34.941 49.4342 34.236C49.4171 34.2068 49.3979 34.179 49.3767 34.1527C48.57 33.0818 47.1708 32.6437 45.8975 33.0635L43.3333 33.9168V23.3335H45.8333C46.1363 23.3335 46.4154 23.1691 46.5622 22.9041C46.7091 22.6392 46.7006 22.3154 46.54 22.0585L41.9483 14.7168C41.7905 14.4638 41.5097 14.3141 41.2117 14.3242C40.9136 14.3343 40.6436 14.5027 40.5033 14.7659C40.3631 15.0291 40.3739 15.3471 40.5317 15.6002L44.3333 21.6668H21.295L14 10.0002H26.6667C27.1269 10.0002 27.5 9.62707 27.5 9.16683C27.5 8.70659 27.1269 8.3335 26.6667 8.3335H12.5C12.2137 8.33547 11.9484 8.48431 11.7975 8.72766H11.7933L3.46 22.061C3.30078 22.3178 3.293 22.6406 3.43969 22.9047C3.58637 23.1689 3.86453 23.3329 4.16667 23.3335H8.33333V28.1502ZM6.66667 48.3335H2.5C2.03976 48.3335 1.66667 47.9604 1.66667 47.5002V30.0002C1.66667 29.5399 2.03976 29.1668 2.5 29.1668H6.66667C7.1269 29.1668 7.5 29.5399 7.5 30.0002V47.5002C7.5 47.9604 7.1269 48.3335 6.66667 48.3335ZM46.4167 34.6418C46.9883 34.4529 47.6172 34.6346 48 35.0993C48.0125 35.1202 48.0258 35.1393 48.04 35.1593C48.2867 35.4855 48.383 35.9013 48.3049 36.3027C48.2269 36.7042 47.9818 37.0535 47.6308 37.2635L32.0167 46.7718C31.2332 47.2485 30.3337 47.5004 29.4167 47.5002H9.16667V30.8335H10.6667C12.2043 30.8352 13.6958 31.3585 14.8975 32.3177C16.3944 33.5118 18.2518 34.1637 20.1667 34.1668H24.525C25.8473 34.1624 27.0452 34.9455 27.5717 36.1585C27.9015 36.8705 27.8131 37.7062 27.3417 38.3335H22.2667C20.6213 38.3346 19.0129 38.8216 17.6433 39.7335L17.035 40.1418C16.653 40.3986 16.5515 40.9165 16.8083 41.2985C17.0651 41.6805 17.583 41.782 17.965 41.5252L18.5683 41.1202C19.6637 40.3904 20.9504 40.0007 22.2667 40.0002H29.675C30.1245 40.0007 30.571 39.9273 30.9967 39.7827L46.4167 34.6418ZM41.6667 34.4685L30.4633 38.2035C30.2095 38.2898 29.9431 38.3337 29.675 38.3335H29.2208C29.54 37.4156 29.5016 36.4111 29.1133 35.5202C28.5138 34.1211 27.3043 33.0755 25.8333 32.6843V23.3335H41.6667V34.4685ZM20.8333 23.3335H24.1667V32.5002H20.1667C18.6291 32.4984 17.1375 31.9752 15.9358 31.016C14.4389 29.8218 12.5816 29.17 10.6667 29.1668H10V22.7393L15 14.7393L20.1267 22.9418C20.279 23.1855 20.546 23.3335 20.8333 23.3335ZM12.5 10.7393L14.0175 13.1668L8.705 21.6668H5.66667L12.5 10.7393Z" fill="black"/>
<path d="M37.4901 7.52059e-08C37.0391 -0.000189591 36.6699 0.358394 36.6568 0.809167V0.826667V0.833334C36.6568 1.14 36.5809 8.33333 29.9818 8.33333C29.5215 8.33333 29.1484 8.70643 29.1484 9.16667C29.1484 9.62691 29.5215 10 29.9818 10C36.5551 10 36.6551 17.195 36.6568 17.5C36.6506 17.9602 37.0186 18.3384 37.4789 18.3446C37.9391 18.3508 38.3172 17.9827 38.3234 17.5225V17.505V17.5C38.3234 17.1933 38.3993 10 44.9976 10C45.4578 10 45.8309 9.62691 45.8309 9.16667C45.8309 8.70643 45.4578 8.33333 44.9976 8.33333C38.4251 8.33333 38.3243 1.13833 38.3234 0.833334C38.3234 0.373096 37.9503 7.52059e-08 37.4901 7.52059e-08ZM41.1993 9.16667C39.4928 10.0669 38.1738 11.5592 37.4901 13.3633C36.8064 11.5592 35.4874 10.0669 33.7809 9.16667C35.4874 8.26648 36.8064 6.77413 37.4901 4.97C38.1738 6.77413 39.4928 8.26648 41.1993 9.16667V9.16667Z" fill="black"/>
<path d="M39.1705 26.6665C38.7102 26.6665 38.3371 27.0396 38.3371 27.4998V31.899L33.9071 33.3757C33.4699 33.5211 33.2334 33.9934 33.3788 34.4307C33.5242 34.8679 33.9966 35.1044 34.4338 34.959L39.4338 33.2923C39.7748 33.1788 40.0046 32.8593 40.0038 32.4998V27.4998C40.0038 27.0396 39.6307 26.6665 39.1705 26.6665V26.6665Z" fill="black"/>
</g>
<defs>
<clipPath id="clip0_23715_50342">
<rect width="50" height="50" fill="white"/>
</clipPath>
</defs>
</svg>
