<svg width="50" height="50" viewBox="0 0 50 50" fill="none" xmlns="http://www.w3.org/2000/svg">
<path d="M37.3331 10.6506C38.0773 10.6506 38.8049 10.43 39.4236 10.0165C40.0424 9.60303 40.5247 9.01536 40.8095 8.32779C41.0943 7.64022 41.1688 6.88365 41.0237 6.15373C40.8785 5.42381 40.5201 4.75334 39.9938 4.2271C39.4676 3.70086 38.7971 3.34249 38.0672 3.1973C37.3373 3.05211 36.5807 3.12663 35.8932 3.41143C35.2056 3.69623 34.6179 4.17852 34.2045 4.79732C33.791 5.41611 33.5703 6.14361 33.5703 6.88783C33.5714 7.88545 33.9682 8.84189 34.6736 9.54732C35.3791 10.2527 36.3355 10.6495 37.3331 10.6506ZM37.3331 4.68751C37.7683 4.68751 38.1937 4.81656 38.5556 5.05833C38.9174 5.3001 39.1994 5.64375 39.366 6.0458C39.5325 6.44786 39.5761 6.89027 39.4912 7.31709C39.4063 7.74391 39.1967 8.13597 38.889 8.44369C38.5813 8.75141 38.1892 8.96097 37.7624 9.04587C37.3356 9.13077 36.8932 9.0872 36.4911 8.92066C36.0891 8.75412 35.7454 8.4721 35.5036 8.11026C35.2619 7.74842 35.1328 7.32301 35.1328 6.88783C35.1334 6.30446 35.3655 5.74517 35.778 5.33267C36.1905 4.92017 36.7498 4.68815 37.3331 4.68751Z" fill="black"/>
<path d="M40.0803 12.6655H34.5945C33.9895 12.6663 33.4095 12.9069 32.9817 13.3347C32.5539 13.7625 32.3132 14.3425 32.3125 14.9475V30.447C32.3123 31.5273 32.7061 32.5706 33.4202 33.3812C33.8831 33.9064 34.1384 34.5824 34.1382 35.2825V46.0937C34.1382 46.3009 34.2205 46.4996 34.367 46.6462C34.5135 46.7927 34.7122 46.875 34.9194 46.875C35.1266 46.875 35.3253 46.7927 35.4718 46.6462C35.6183 46.4996 35.7007 46.3009 35.7007 46.0937V35.2825C35.7009 34.2022 35.307 33.1589 34.5928 32.3482C34.13 31.8231 33.8747 31.147 33.8749 30.447V14.9475C33.8751 14.7567 33.9509 14.5739 34.0858 14.439C34.2207 14.3041 34.4036 14.2282 34.5943 14.228H40.0803C40.271 14.2282 40.4539 14.3041 40.5888 14.439C40.7236 14.5739 40.7995 14.7567 40.7997 14.9475V30.447C40.8001 31.147 40.5448 31.8231 40.0818 32.3482C39.3677 33.1589 38.9738 34.2022 38.974 35.2825V46.0937C38.974 46.3009 39.0563 46.4996 39.2028 46.6462C39.3493 46.7927 39.548 46.875 39.7552 46.875C39.9624 46.875 40.1611 46.7927 40.3077 46.6462C40.4542 46.4996 40.5365 46.3009 40.5365 46.0937V35.2825C40.5363 34.5825 40.7916 33.9064 41.2544 33.3812C41.9688 32.5708 42.3627 31.5274 42.3622 30.447V14.9475C42.3615 14.3425 42.1208 13.7625 41.693 13.3347C41.2653 12.907 40.6853 12.6663 40.0803 12.6655Z" fill="black"/>
<path d="M15.5234 6.88782C15.5234 7.63204 15.7441 8.35954 16.1576 8.97833C16.5711 9.59712 17.1587 10.0794 17.8463 10.3642C18.5339 10.649 19.2904 10.7235 20.0203 10.5783C20.7503 10.4331 21.4207 10.0748 21.947 9.54854C22.4732 9.0223 22.8316 8.35183 22.9768 7.62191C23.122 6.89199 23.0474 6.13542 22.7626 5.44785C22.4779 4.76029 21.9956 4.17261 21.3768 3.75915C20.758 3.34569 20.0305 3.125 19.2863 3.125C18.2886 3.12613 17.3322 3.52293 16.6268 4.22835C15.9214 4.93377 15.5246 5.89021 15.5234 6.88782ZM19.2863 4.6875C19.7214 4.6875 20.1468 4.81655 20.5087 5.05832C20.8705 5.3001 21.1526 5.64374 21.3191 6.04579C21.4856 6.44785 21.5292 6.89026 21.4443 7.31708C21.3594 7.7439 21.1498 8.13596 20.8421 8.44368C20.5344 8.7514 20.1423 8.96096 19.7155 9.04586C19.2887 9.13076 18.8463 9.08719 18.4442 8.92065C18.0422 8.75411 17.6985 8.47209 17.4568 8.11025C17.215 7.74841 17.0859 7.323 17.0859 6.88782C17.0867 6.30448 17.3187 5.74524 17.7312 5.33276C18.1437 4.92027 18.7029 4.68822 19.2863 4.6875Z" fill="black"/>
<path d="M10.7734 46.875H31.7966C32.0038 46.875 32.2025 46.7927 32.349 46.6462C32.4956 46.4997 32.5779 46.301 32.5779 46.0938C32.5779 45.8866 32.4956 45.6878 32.349 45.5413C32.2025 45.3948 32.0038 45.3125 31.7966 45.3125H10.7734C10.3592 45.3121 9.96198 45.1473 9.66904 44.8544C9.3761 44.5615 9.21135 44.1643 9.21094 43.75V25.8671C9.21135 25.4528 9.3761 25.0556 9.66904 24.7627C9.96198 24.4697 10.3592 24.305 10.7734 24.3046H29.9686C30.1758 24.3046 30.3745 24.2223 30.521 24.0758C30.6676 23.9292 30.7499 23.7305 30.7499 23.5233C30.7499 23.3161 30.6676 23.1174 30.521 22.9709C30.3745 22.8244 30.1758 22.7421 29.9686 22.7421H24.3122V14.9452C24.3114 14.3404 24.0709 13.7606 23.6432 13.333C23.2156 12.9054 22.6358 12.6648 22.031 12.6641H16.5466C15.9418 12.6648 15.362 12.9054 14.9344 13.333C14.5067 13.7607 14.2662 14.3405 14.2654 14.9452V22.7421H10.7734C9.94493 22.7431 9.15062 23.0726 8.56477 23.6585C7.97893 24.2443 7.64938 25.0386 7.64844 25.8671V43.75C7.64938 44.5785 7.97893 45.3728 8.56477 45.9587C9.15062 46.5445 9.94493 46.8741 10.7734 46.875ZM15.8279 14.9452C15.8281 14.7547 15.9039 14.572 16.0386 14.4372C16.1734 14.3025 16.3561 14.2267 16.5466 14.2265H22.031C22.2215 14.2267 22.4042 14.3025 22.5389 14.4372C22.6737 14.572 22.7495 14.7547 22.7497 14.9452V22.7421H15.8279V14.9452Z" fill="black"/>
</svg>
