<svg width="50" height="50" viewBox="0 0 50 50" fill="none" xmlns="http://www.w3.org/2000/svg">
<g clip-path="url(#clip0_23715_49524)">
<path d="M22.7109 49.2679V33.0967H27.2955V49.2679" stroke="black" stroke-width="1.46484" stroke-miterlimit="10" stroke-linecap="round" stroke-linejoin="round"/>
<path d="M5.56904 0.732422H1.71094C1.17158 0.732422 0.734375 1.16963 0.734375 1.70898V32.1791C0.734375 32.7185 1.17158 33.1557 1.71094 33.1557H48.293C48.8323 33.1557 49.2695 32.7185 49.2695 32.1791V1.70898C49.2695 1.16963 48.8323 0.732422 48.293 0.732422H8.49365" stroke="black" stroke-width="1.46484" stroke-miterlimit="10" stroke-linecap="round" stroke-linejoin="round"/>
<path d="M37.1557 25.2693V8.61816H12.8516V25.2693" stroke="black" stroke-width="1.46484" stroke-miterlimit="10" stroke-linecap="round" stroke-linejoin="round"/>
<path d="M30.8655 25.3106H11.2098C10.3518 25.3106 9.65625 26.0062 9.65625 26.8642C9.65625 27.7222 10.3519 28.4176 11.2098 28.4176H38.7992C39.6572 28.4176 40.3527 27.7221 40.3527 26.8641C40.3527 26.0061 39.6572 25.3105 38.7992 25.3105H33.7933" stroke="black" stroke-width="1.46484" stroke-miterlimit="10" stroke-linecap="round" stroke-linejoin="round"/>
<path d="M12.7031 28.4258C12.7031 28.4258 18.0742 35.9654 18.0742 45.4757H31.9246C31.9246 35.9654 37.2957 28.4258 37.2957 28.4258" stroke="black" stroke-width="1.46484" stroke-miterlimit="10" stroke-linecap="round" stroke-linejoin="round"/>
<path d="M17.8594 41.46H32.1453" stroke="black" stroke-width="1.46484" stroke-miterlimit="10" stroke-linecap="round" stroke-linejoin="round"/>
<path d="M16.8828 37.4219H33.1156" stroke="black" stroke-width="1.46484" stroke-miterlimit="10" stroke-linecap="round" stroke-linejoin="round"/>
<path d="M17.8594 33.0967H32.1453" stroke="black" stroke-width="1.46484" stroke-miterlimit="10" stroke-linecap="round" stroke-linejoin="round"/>
<path d="M22.7109 45.4753V28.4512" stroke="black" stroke-width="1.46484" stroke-miterlimit="10" stroke-linecap="round" stroke-linejoin="round"/>
<path d="M18.0156 45.4753V28.4512" stroke="black" stroke-width="1.46484" stroke-miterlimit="10" stroke-linecap="round" stroke-linejoin="round"/>
<path d="M27.2891 45.4753V28.4512" stroke="black" stroke-width="1.46484" stroke-miterlimit="10" stroke-linecap="round" stroke-linejoin="round"/>
<path d="M31.9297 45.4753V28.4512" stroke="black" stroke-width="1.46484" stroke-miterlimit="10" stroke-linecap="round" stroke-linejoin="round"/>
</g>
<defs>
<clipPath id="clip0_23715_49524">
<rect width="50" height="50" fill="white"/>
</clipPath>
</defs>
</svg>
