<svg width="50" height="50" viewBox="0 0 50 50" fill="none" xmlns="http://www.w3.org/2000/svg">
<g clip-path="url(#clip0_23715_49314)">
<path d="M49.0698 5.38828C47.237 6.02109 45.7969 7.46133 45.1641 9.29404C45.0732 9.55693 44.7016 9.55693 44.6107 9.29404C43.9778 7.46133 42.5377 6.02109 40.705 5.38828C40.4421 5.29746 40.4421 4.92578 40.705 4.83496C42.5377 4.20215 43.9778 2.76192 44.6107 0.9292C44.7016 0.66631 45.0732 0.66631 45.1641 0.9292C45.7969 2.76192 47.237 4.20215 49.0698 4.83496C49.3326 4.92578 49.3326 5.29746 49.0698 5.38828Z" stroke="black" stroke-width="1.46484" stroke-miterlimit="10" stroke-linecap="round" stroke-linejoin="round"/>
<path d="M9.29639 18.8316C7.46357 19.4645 6.02344 20.9047 5.39063 22.7374C5.2998 23.0003 4.92812 23.0003 4.8373 22.7374C4.20439 20.9047 2.76426 19.4645 0.931543 18.8316C0.668652 18.7408 0.668652 18.3691 0.931543 18.2783C2.76426 17.6455 4.20439 16.2053 4.8373 14.3726C4.92812 14.1097 5.2998 14.1097 5.39063 14.3726C6.02344 16.2053 7.46357 17.6455 9.29639 18.2783C9.55918 18.3691 9.55918 18.7408 9.29639 18.8316Z" stroke="black" stroke-width="1.46484" stroke-miterlimit="10" stroke-linecap="round" stroke-linejoin="round"/>
<path d="M22.0234 38.623C22.0234 44.5019 17.2577 49.2676 11.3789 49.2676C5.5001 49.2676 0.734375 44.5019 0.734375 38.623C0.734375 32.7442 5.5001 27.9785 11.3789 27.9785C17.2577 27.9785 22.0234 32.7442 22.0234 38.623Z" stroke="black" stroke-width="1.46484" stroke-miterlimit="10" stroke-linecap="round" stroke-linejoin="round"/>
<path d="M11.3789 46.3379C7.1249 46.3379 3.66406 42.8771 3.66406 38.623" stroke="black" stroke-width="1.46484" stroke-miterlimit="10" stroke-linecap="round" stroke-linejoin="round"/>
<path d="M29.9073 44.7383C28.6908 43.0079 27.9766 40.8989 27.9766 38.623C27.9766 35.7744 29.0957 33.1865 30.9181 31.2754" stroke="black" stroke-width="1.46484" stroke-miterlimit="10" stroke-linecap="round" stroke-linejoin="round"/>
<path d="M35.3615 28.4883C36.3889 28.1572 37.4845 27.9785 38.6223 27.9785C44.5012 27.9785 49.2668 32.7441 49.2668 38.623C49.2668 44.502 44.5012 49.2676 38.6223 49.2676C36.2429 49.2676 34.0458 48.487 32.2734 47.1678" stroke="black" stroke-width="1.46484" stroke-miterlimit="10" stroke-linecap="round" stroke-linejoin="round"/>
<path d="M37.6167 30.402C35.7839 31.0348 34.3438 32.475 33.7109 34.3077C33.6201 34.5706 33.2484 34.5706 33.1577 34.3077C32.5247 32.475 31.0846 31.0348 29.2519 30.402C28.989 30.3111 28.989 29.9395 29.2519 29.8486C31.0846 29.2158 32.5247 27.7756 33.1577 25.9429C33.2484 25.68 33.6201 25.68 33.7109 25.9429C34.3438 27.7756 35.7839 29.2158 37.6167 29.8486C37.8795 29.9395 37.8795 30.3111 37.6167 30.402Z" stroke="black" stroke-width="1.46484" stroke-miterlimit="10" stroke-linecap="round" stroke-linejoin="round"/>
<path d="M38.6289 46.3379C34.3749 46.3379 30.9141 42.8771 30.9141 38.623" stroke="black" stroke-width="1.46484" stroke-miterlimit="10" stroke-linecap="round" stroke-linejoin="round"/>
<path d="M20.4938 1.73233C21.8632 1.09082 23.3917 0.732423 25.0039 0.732423C30.8827 0.732423 35.6484 5.49815 35.6484 11.377C35.6484 17.2558 30.8827 22.0215 25.0039 22.0215C19.125 22.0215 14.3594 17.2558 14.3594 11.377C14.3594 8.3334 15.6367 5.58818 17.6844 3.64824" stroke="black" stroke-width="1.46484" stroke-miterlimit="10" stroke-linecap="round" stroke-linejoin="round"/>
<path d="M25.0039 19.0918C20.7499 19.0918 17.2891 15.631 17.2891 11.377" stroke="black" stroke-width="1.46484" stroke-miterlimit="10" stroke-linecap="round" stroke-linejoin="round"/>
</g>
<defs>
<clipPath id="clip0_23715_49314">
<rect width="50" height="50" fill="white"/>
</clipPath>
</defs>
</svg>
