<svg width="50" height="50" viewBox="0 0 50 50" fill="none" xmlns="http://www.w3.org/2000/svg">
<g clip-path="url(#clip0_24310_47862)">
<path d="M16.8496 42.6758C14.8303 42.6758 13.1875 44.3186 13.1875 46.3379C13.1875 48.3572 14.8303 50 16.8496 50C18.8689 50 20.5117 48.3572 20.5117 46.3379C20.5117 44.3186 18.8689 42.6758 16.8496 42.6758ZM16.8496 48.5352C15.6381 48.5352 14.6523 47.5494 14.6523 46.3379C14.6523 45.1264 15.6381 44.1406 16.8496 44.1406C18.0611 44.1406 19.0469 45.1264 19.0469 46.3379C19.0469 47.5494 18.0611 48.5352 16.8496 48.5352Z" fill="black"/>
<path d="M16.8418 47.0703C17.2463 47.0703 17.5742 46.7424 17.5742 46.3379C17.5742 45.9334 17.2463 45.6055 16.8418 45.6055C16.4373 45.6055 16.1094 45.9334 16.1094 46.3379C16.1094 46.7424 16.4373 47.0703 16.8418 47.0703Z" fill="black"/>
<path d="M41.9434 47.0703C42.3479 47.0703 42.6758 46.7424 42.6758 46.3379C42.6758 45.9334 42.3479 45.6055 41.9434 45.6055C41.5389 45.6055 41.2109 45.9334 41.2109 46.3379C41.2109 46.7424 41.5389 47.0703 41.9434 47.0703Z" fill="black"/>
<path d="M41.9434 42.6758C39.924 42.6758 38.2812 44.3186 38.2812 46.3379C38.2812 48.3572 39.924 50 41.9434 50C43.9627 50 45.6055 48.3572 45.6055 46.3379C45.6055 44.3186 43.9627 42.6758 41.9434 42.6758ZM41.9434 48.5352C40.7318 48.5352 39.7461 47.5494 39.7461 46.3379C39.7461 45.1264 40.7318 44.1406 41.9434 44.1406C43.1549 44.1406 44.1406 45.1264 44.1406 46.3379C44.1406 47.5494 43.1549 48.5352 41.9434 48.5352Z" fill="black"/>
<path d="M12.0943 35.4447L17.4256 32.4219H29.3945C31.163 32.4219 32.6428 31.1617 32.9831 29.4922H40.611C42.955 29.4922 44.9975 27.9062 45.5781 25.6354L49.9771 8.4335C50.0331 8.21426 49.9848 7.98154 49.846 7.80283C49.7072 7.62412 49.4937 7.51953 49.2676 7.51953H13.3068L12.9333 6.05908C12.0222 2.4916 8.81211 0 5.12695 0H2.19727C0.985742 0 0 0.985742 0 2.19727C0 3.40879 0.985742 4.39453 2.19727 4.39453H5.12695C6.80244 4.39453 8.26162 5.52637 8.67559 7.14717L14.301 29.1418L9.92793 31.6213C8.32197 32.5305 7.32422 34.2405 7.32422 36.084C7.32422 38.9109 9.62422 41.2109 12.4512 41.2109H44.873C46.0846 41.2109 47.0703 40.2252 47.0703 39.0137C47.0703 37.8021 46.0846 36.8164 44.873 36.8164H12.4512C12.0473 36.8164 11.7188 36.4879 11.7188 36.084C11.7188 35.8208 11.8625 35.576 12.0943 35.4447ZM39.2425 21.1914H34.7416L35.0162 15.8203H40.0665L39.2425 21.1914ZM41.5484 15.8203H46.5762L45.2026 21.1914H40.7244L41.5484 15.8203ZM39.0177 22.6562L38.1937 28.0273H34.3921L34.6667 22.6562H39.0177ZM33.2748 21.1914H28.7663L28.4915 15.8203H33.5494L33.2748 21.1914ZM35.0911 14.3555L35.3657 8.98438H41.1152L40.2912 14.3555H35.0911ZM33.6243 14.3555H28.4165L28.1417 8.98438H33.8989L33.6243 14.3555ZM26.9498 14.3555H24.0507C23.6461 14.3555 23.3183 14.6833 23.3183 15.0879C23.3183 15.4925 23.6461 15.8203 24.0507 15.8203H27.0247L27.2995 21.1914H22.7987L20.9254 8.98438H26.6749L26.9498 14.3555ZM21.3168 21.1914H16.8035L15.4298 15.8203H20.4925L21.3168 21.1914ZM21.5416 22.6562L22.3659 28.0273H18.552L17.1782 22.6562H21.5416ZM23.8479 28.0273L23.0235 22.6562H27.3745L27.6493 28.0273H23.8479ZM29.1161 28.0273L28.8413 22.6562H33.1999L32.9253 28.0273H29.1161ZM44.159 25.2726C43.7442 26.8944 42.2853 28.0273 40.611 28.0273H39.6756L40.4996 22.6562H44.8279L44.159 25.2726ZM46.9508 14.3555H41.7732L42.5973 8.98438H48.3243L46.9508 14.3555ZM19.4435 8.98438L20.2678 14.3555H15.0553L13.6815 8.98438H19.4435ZM5.12695 2.92969H2.19727C1.79336 2.92969 1.46484 2.60117 1.46484 2.19727C1.46484 1.79336 1.79336 1.46484 2.19727 1.46484H5.12695C6.6665 1.46484 8.10391 1.99717 9.24199 2.90566L8.19775 3.95C7.33418 3.30479 6.2666 2.92969 5.12695 2.92969ZM12.4512 38.2812H44.873C45.277 38.2812 45.6055 38.6098 45.6055 39.0137C45.6055 39.4176 45.277 39.7461 44.873 39.7461H12.4512C10.4318 39.7461 8.78906 38.1033 8.78906 36.084C8.78906 34.7673 9.50205 33.5457 10.6501 32.8957L15.5105 30.1398C15.798 29.9768 15.9407 29.6414 15.8588 29.3212L10.0947 6.78447C9.92451 6.11787 9.62734 5.51104 9.23408 4.98545L10.2786 3.94092C10.8486 4.654 11.277 5.49307 11.5141 6.42178L17.2737 28.9413C17.3566 29.2654 17.6486 29.4923 17.9833 29.4923H31.4663C31.164 30.3448 30.3494 30.9571 29.3945 30.9571H17.2324C17.1058 30.9571 16.9813 30.9899 16.8712 31.0524L11.3723 34.1703C10.6825 34.5605 10.2539 35.2939 10.2539 36.084C10.2539 37.2955 11.2396 38.2812 12.4512 38.2812Z" fill="black"/>
</g>
<defs>
<clipPath id="clip0_24310_47862">
<rect width="50" height="50" fill="white"/>
</clipPath>
</defs>
</svg>
