<svg width="50" height="50" viewBox="0 0 50 50" fill="none" xmlns="http://www.w3.org/2000/svg">
<g clip-path="url(#clip0_23715_50488)">
<path d="M24.4949 14.1391C24.9225 14.1391 25.3597 14.114 25.8056 14.0628V22.6059H27.2701V11.9842H28.0369V22.6059H29.5013V16.6229C29.7439 16.6443 29.9831 16.6549 30.2181 16.6549C31.9572 16.6549 33.4732 16.0766 34.5802 14.9696C35.9863 13.5635 36.5394 11.4971 36.1374 9.15104L36.0496 8.64063L35.5392 8.5529C33.1936 8.15083 31.1271 8.70396 29.7207 10.1104C29.5898 10.2409 29.4666 10.3778 29.3506 10.5198H27.2415C27.0763 8.49453 26.3084 6.7329 24.9824 5.40691C23.0663 3.49079 20.24 2.73929 17.0242 3.29052L16.5138 3.37788L16.4261 3.88828C15.8752 7.10445 16.6267 9.93076 18.5428 11.8465C20.0485 13.3529 22.1168 14.1391 24.4949 14.1391V14.1391ZM30.756 11.1457C31.7158 10.1863 33.1257 9.76063 34.7656 9.92504C34.9296 11.565 34.5039 12.9745 33.5445 13.9343C32.7884 14.69 31.7528 15.1146 30.5454 15.1806L33.0776 12.6484L32.0419 11.6127L29.5097 14.1449C29.5757 12.9375 30.0003 11.9018 30.756 11.1457ZM17.7925 4.65694C20.3068 4.34719 22.4769 4.9728 23.9467 6.4426C25.1163 7.61219 25.7515 9.22581 25.8056 11.103V11.6348L22.0947 7.92347L21.059 8.95916L24.7703 12.6701C22.6661 12.7296 20.8568 12.0899 19.5781 10.8112C18.1083 9.34139 17.4827 7.17083 17.7925 4.65694V4.65694Z" fill="black"/>
<path d="M48.226 33.2739L44.9503 32.0638L44.1664 30.4769L40.42 29.093L39.649 29.4225C36.7048 25.9165 32.3252 23.8271 27.6583 23.8271C23.7429 23.8271 19.9953 25.2821 17.1057 27.9241L18.0937 29.0048C20.7129 26.6104 24.1095 25.2916 27.6583 25.2916C32.7837 25.2916 37.5269 28.0718 40.0366 32.5479L41.3141 31.8315C41.1028 31.455 40.8773 31.0892 40.6382 30.7348L43.1116 31.6484L43.4488 32.3309L36.0693 35.4868V32.9702L32.7841 29.685H15.3524L11.8326 31.8823H-0.0078125V43.5549H11.9562L26.3094 46.9816L49.9922 36.8482L48.226 33.2739ZM42.3826 38.5111L41.4805 36.685L40.1674 37.3339L41.0341 39.0879L26.1786 45.4447L12.1286 42.0904H1.45665V33.3467H11.31V36.9894H12.7745V33.0206L15.7721 31.1495H32.1776L34.6048 33.5768V35.864H29.2002V33.5626H27.7357V35.864H22.3188V37.3285H35.4868L44.5196 33.4661L47.1716 34.4457L47.994 36.1101L42.3826 38.5111Z" fill="black"/>
<path d="M26.218 33.4352H21.0926V31.9707H26.218V33.4352ZM20.116 33.4352H18.6516V31.9707H20.116V33.4352ZM17.6754 33.4352H16.2109V31.9707H17.6754V33.4352Z" fill="black"/>
<path d="M23.077 28.6509L22.5078 27.302C22.982 27.1018 23.4737 26.9278 23.9692 26.7848L24.3751 28.192C23.9349 28.319 23.4985 28.4732 23.077 28.6509ZM32.217 28.6509C30.7739 28.0413 29.2385 27.7323 27.6535 27.7323L27.5501 27.7327L27.5367 26.2683C29.3628 26.2499 31.1271 26.6009 32.7869 27.302L32.217 28.6509ZM25.2666 27.9727L24.9733 26.538C25.4764 26.435 25.9922 26.3606 26.5064 26.3167L26.6307 27.7758C26.173 27.8147 25.7144 27.8811 25.2666 27.9727Z" fill="black"/>
</g>
<defs>
<clipPath id="clip0_23715_50488">
<rect width="50" height="50" fill="white"/>
</clipPath>
</defs>
</svg>
