<svg width="51" height="51" viewBox="0 0 51 51" fill="none" xmlns="http://www.w3.org/2000/svg">
<g clip-path="url(#clip0_23715_49953)">
<path d="M10.9844 0.798828C10.7685 0.798828 10.5938 0.973545 10.5938 1.18947V10.5644C10.5938 10.7803 10.7686 10.955 10.9844 10.955C11.2003 10.955 11.375 10.7804 11.375 10.5645V1.18947C11.375 0.973545 11.2003 0.798828 10.9844 0.798828Z" fill="black"/>
<path d="M17.2344 0.798828C17.0185 0.798828 16.8438 0.973545 16.8438 1.18947V10.5644C16.8438 10.7803 17.0185 10.955 17.2344 10.955C17.4503 10.955 17.625 10.7804 17.625 10.5645V1.18947C17.625 0.973545 17.4503 0.798828 17.2344 0.798828Z" fill="black"/>
<path d="M17.2344 10.1738H10.9844C10.7685 10.1738 10.5938 10.3485 10.5938 10.5645C10.5938 10.7804 10.7686 10.9551 10.9844 10.9551H17.2344C17.4504 10.9551 17.6251 10.7804 17.6251 10.5645C17.6251 10.3485 17.4504 10.1738 17.2344 10.1738Z" fill="black"/>
<path d="M17.2344 0.798828H10.9844C10.7685 0.798828 10.5938 0.973545 10.5938 1.18947C10.5938 1.4054 10.7686 1.58012 10.9844 1.58012H17.2344C17.4504 1.58012 17.6251 1.4054 17.6251 1.18947C17.6251 0.973545 17.4504 0.798828 17.2344 0.798828Z" fill="black"/>
<path d="M13.3281 2.36133C13.1122 2.36133 12.9375 2.53604 12.9375 2.75197V6.65824C12.9375 6.87417 13.1122 7.04889 13.3281 7.04889C13.5441 7.04889 13.7188 6.87417 13.7188 6.65824V2.75197C13.7188 2.53604 13.5441 2.36133 13.3281 2.36133Z" fill="black"/>
<path d="M14.8906 6.26758H13.3281C13.1122 6.26758 12.9375 6.44229 12.9375 6.65822C12.9375 6.87415 13.1122 7.04887 13.3281 7.04887H14.8906C15.1066 7.04887 15.2813 6.87415 15.2813 6.65822C15.2813 6.44229 15.1066 6.26758 14.8906 6.26758Z" fill="black"/>
<path d="M14.8906 2.36133C14.6747 2.36133 14.5 2.53604 14.5 2.75197V6.65824C14.5 6.87417 14.6747 7.04889 14.8906 7.04889C15.1066 7.04889 15.2813 6.87417 15.2813 6.65824V2.75197C15.2813 2.53604 15.1066 2.36133 14.8906 2.36133Z" fill="black"/>
<path d="M12.1541 18.3336L11.3728 11.3023C11.3492 11.0887 11.1573 10.9338 10.9414 10.9575C10.727 10.9811 10.5725 11.1741 10.5961 11.3892L11.3774 18.4206C11.3996 18.6196 11.5689 18.7677 11.7654 18.7677C11.7796 18.7677 11.7944 18.7669 11.8089 18.7654C12.0233 18.7418 12.1778 18.5488 12.1541 18.3336Z" fill="black"/>
<path d="M17.2776 10.9567C17.0697 10.9377 16.8698 11.088 16.8462 11.3015L16.0649 18.3329C16.0413 18.5479 16.1958 18.741 16.4101 18.7646C16.4246 18.7661 16.4391 18.7669 16.4536 18.7669C16.6501 18.7669 16.8194 18.6188 16.8416 18.4198L17.6229 11.3885C17.6465 11.1734 17.492 10.9803 17.2776 10.9567Z" fill="black"/>
<path d="M12.5459 11.7363H11.0703C10.8544 11.7363 10.6797 11.911 10.6797 12.127C10.6797 12.3429 10.8545 12.5176 11.0703 12.5176H12.5459C12.7617 12.5176 12.9365 12.3429 12.9365 12.127C12.9365 11.911 12.7617 11.7363 12.5459 11.7363Z" fill="black"/>
<path d="M17.1474 11.7363H15.6719C15.456 11.7363 15.2812 11.911 15.2812 12.127C15.2812 12.3429 15.456 12.5176 15.6719 12.5176H17.1474C17.3633 12.5176 17.538 12.3429 17.538 12.127C17.538 11.911 17.3633 11.7363 17.1474 11.7363Z" fill="black"/>
<path d="M15.672 13.2988H12.5469C12.331 13.2988 12.1562 13.4735 12.1562 13.6895C12.1562 13.9054 12.331 14.0801 12.5469 14.0801H15.672C15.8879 14.0801 16.0626 13.9054 16.0626 13.6895C16.0626 13.4735 15.8878 13.2988 15.672 13.2988Z" fill="black"/>
<path d="M16.8003 14.8613H15.6719C15.456 14.8613 15.2812 15.036 15.2812 15.252C15.2812 15.4679 15.456 15.6426 15.6719 15.6426H16.8003C17.0162 15.6426 17.1909 15.4679 17.1909 15.252C17.1909 15.036 17.0162 14.8613 16.8003 14.8613Z" fill="black"/>
<path d="M12.5503 14.8613H11.4219C11.206 14.8613 11.0312 15.036 11.0312 15.252C11.0312 15.4679 11.206 15.6426 11.4219 15.6426H12.5503C12.7661 15.6426 12.9409 15.4679 12.9409 15.252C12.9409 15.036 12.7661 14.8613 12.5503 14.8613Z" fill="black"/>
<path d="M14.8906 16.4238H13.3281C13.1122 16.4238 12.9375 16.5986 12.9375 16.8145C12.9375 17.0304 13.1122 17.2051 13.3281 17.2051H14.8906C15.1066 17.2051 15.2813 17.0304 15.2813 16.8145C15.2813 16.5985 15.1066 16.4238 14.8906 16.4238Z" fill="black"/>
<path d="M16.4531 17.9863H11.7656C11.5497 17.9863 11.375 18.161 11.375 18.377C11.375 18.5929 11.5497 18.7676 11.7656 18.7676H16.4531C16.669 18.7676 16.8438 18.5929 16.8438 18.377C16.8438 18.161 16.669 17.9863 16.4531 17.9863Z" fill="black"/>
<path d="M15.672 8.61133H12.5469C12.331 8.61133 12.1562 8.78604 12.1562 9.00197C12.1562 9.2179 12.331 9.39262 12.5469 9.39262H15.672C15.8879 9.39262 16.0626 9.2179 16.0626 9.00197C16.0626 8.78604 15.8878 8.61133 15.672 8.61133Z" fill="black"/>
<path d="M15.6719 7.83008C15.456 7.83008 15.2812 8.00479 15.2812 8.22072V9.00202C15.2812 9.21795 15.456 9.39266 15.6719 9.39266C15.8878 9.39266 16.0625 9.21795 16.0625 9.00202V8.22072C16.0625 8.00479 15.8877 7.83008 15.6719 7.83008Z" fill="black"/>
<path d="M14.1094 7.83008C13.8935 7.83008 13.7188 8.00479 13.7188 8.22072V9.00202C13.7188 9.21795 13.8936 9.39266 14.1094 9.39266C14.3253 9.39266 14.4999 9.21795 14.5 9.00202V8.22072C14.5 8.00479 14.3253 7.83008 14.1094 7.83008Z" fill="black"/>
<path d="M12.5469 7.83008C12.331 7.83008 12.1562 8.00479 12.1562 8.22072V9.00202C12.1562 9.21795 12.331 9.39266 12.5469 9.39266C12.7627 9.39266 12.9374 9.21795 12.9375 9.00202V8.22072C12.9375 8.00479 12.7627 7.83008 12.5469 7.83008Z" fill="black"/>
<path d="M12.5469 18.7676C12.331 18.7676 12.1562 18.9423 12.1562 19.1582V37.127C12.1562 37.3429 12.331 37.5176 12.5469 37.5176C12.7627 37.5176 12.9374 37.3429 12.9375 37.127V19.1582C12.9375 18.9423 12.7627 18.7676 12.5469 18.7676Z" fill="black"/>
<path d="M15.6719 18.7676C15.456 18.7676 15.2812 18.9423 15.2812 19.1582V37.127C15.2812 37.3429 15.456 37.5176 15.6719 37.5176C15.8878 37.5176 16.0625 37.3429 16.0625 37.127V19.1582C16.0625 18.9423 15.8877 18.7676 15.6719 18.7676Z" fill="black"/>
<path d="M34.4218 0.798828C34.2059 0.798828 34.0312 0.973545 34.0312 1.18947V10.5644C34.0312 10.7803 34.2059 10.955 34.4218 10.955C34.6377 10.955 34.8124 10.7804 34.8124 10.5645V1.18947C34.8124 0.973545 34.6377 0.798828 34.4218 0.798828Z" fill="black"/>
<path d="M40.6719 0.798828C40.456 0.798828 40.2812 0.973545 40.2812 1.18947V10.5644C40.2812 10.7803 40.456 10.955 40.6719 10.955C40.8878 10.955 41.0625 10.7804 41.0625 10.5645V1.18947C41.0625 0.973545 40.8878 0.798828 40.6719 0.798828Z" fill="black"/>
<path d="M40.6718 10.1738H34.4218C34.2059 10.1738 34.0312 10.3485 34.0312 10.5645C34.0312 10.7804 34.2059 10.9551 34.4218 10.9551H40.6718C40.8878 10.9551 41.0625 10.7804 41.0625 10.5645C41.0625 10.3485 40.8878 10.1738 40.6718 10.1738Z" fill="black"/>
<path d="M40.6718 0.798828H34.4218C34.2059 0.798828 34.0312 0.973545 34.0312 1.18947C34.0312 1.4054 34.2059 1.58012 34.4218 1.58012H40.6718C40.8878 1.58012 41.0625 1.4054 41.0625 1.18947C41.0625 0.973545 40.8878 0.798828 40.6718 0.798828Z" fill="black"/>
<path d="M36.7656 2.36133C36.5497 2.36133 36.375 2.53604 36.375 2.75197V6.65824C36.375 6.87417 36.5497 7.04889 36.7656 7.04889C36.9816 7.04889 37.1563 6.87417 37.1563 6.65824V2.75197C37.1563 2.53604 36.9816 2.36133 36.7656 2.36133Z" fill="black"/>
<path d="M38.3281 6.26758H36.7656C36.5497 6.26758 36.375 6.44229 36.375 6.65822C36.375 6.87415 36.5497 7.04887 36.7656 7.04887H38.3281C38.5441 7.04887 38.7188 6.87415 38.7188 6.65822C38.7188 6.44229 38.5441 6.26758 38.3281 6.26758Z" fill="black"/>
<path d="M38.3281 2.36133C38.1122 2.36133 37.9375 2.53604 37.9375 2.75197V6.65824C37.9375 6.87417 38.1122 7.04889 38.3281 7.04889C38.5441 7.04889 38.7188 6.87417 38.7188 6.65824V2.75197C38.7188 2.53604 38.5441 2.36133 38.3281 2.36133Z" fill="black"/>
<path d="M35.5914 18.3336L34.8102 11.3023C34.7866 11.0887 34.5989 10.9338 34.3792 10.9575C34.164 10.9811 34.01 11.1741 34.0336 11.3892L34.8148 18.4206C34.837 18.6196 35.0064 18.7677 35.2032 18.7677C35.217 18.7677 35.2322 18.7669 35.2459 18.7654C35.461 18.7418 35.6151 18.5488 35.5914 18.3336Z" fill="black"/>
<path d="M40.7148 10.9567C40.5072 10.9377 40.3073 11.088 40.2837 11.3015L39.5024 18.3329C39.4788 18.5479 39.6329 18.741 39.848 18.7646C39.8618 18.7661 39.877 18.7669 39.8908 18.7669C40.0877 18.7669 40.257 18.6188 40.2791 18.4198L41.0604 11.3885C41.084 11.1734 40.9299 10.9803 40.7148 10.9567Z" fill="black"/>
<path d="M35.9833 11.7363H34.5078C34.2919 11.7363 34.1172 11.911 34.1172 12.127C34.1172 12.3429 34.2919 12.5176 34.5078 12.5176H35.9833C36.1992 12.5176 36.374 12.3429 36.374 12.127C36.374 11.911 36.1992 11.7363 35.9833 11.7363Z" fill="black"/>
<path d="M40.5849 11.7363H39.1093C38.8935 11.7363 38.7188 11.911 38.7188 12.127C38.7188 12.3429 38.8935 12.5176 39.1093 12.5176H40.5849C40.8007 12.5176 40.9755 12.3429 40.9755 12.127C40.9755 11.911 40.8008 11.7363 40.5849 11.7363Z" fill="black"/>
<path d="M39.1094 13.2988H35.9844C35.7685 13.2988 35.5938 13.4735 35.5938 13.6895C35.5938 13.9054 35.7685 14.0801 35.9844 14.0801H39.1094C39.3253 14.0801 39.5 13.9054 39.5 13.6895C39.5 13.4735 39.3253 13.2988 39.1094 13.2988Z" fill="black"/>
<path d="M40.2385 14.8613H39.1093C38.8935 14.8613 38.7188 15.036 38.7188 15.252C38.7188 15.4679 38.8935 15.6426 39.1093 15.6426H40.2385C40.4544 15.6426 40.6291 15.4679 40.6291 15.252C40.6291 15.036 40.4544 14.8613 40.2385 14.8613Z" fill="black"/>
<path d="M35.987 14.8613H34.8594C34.6435 14.8613 34.4688 15.036 34.4688 15.252C34.4688 15.4679 34.6435 15.6426 34.8594 15.6426H35.987C36.2029 15.6426 36.3776 15.4679 36.3776 15.252C36.3776 15.036 36.2029 14.8613 35.987 14.8613Z" fill="black"/>
<path d="M38.3281 16.4238H36.7656C36.5497 16.4238 36.375 16.5986 36.375 16.8145C36.375 17.0304 36.5497 17.2051 36.7656 17.2051H38.3281C38.5441 17.2051 38.7188 17.0304 38.7188 16.8145C38.7188 16.5985 38.5441 16.4238 38.3281 16.4238Z" fill="black"/>
<path d="M39.8906 17.9863H35.2031C34.9872 17.9863 34.8125 18.161 34.8125 18.377C34.8125 18.5929 34.9872 18.7676 35.2031 18.7676H39.8906C40.1065 18.7676 40.2813 18.5929 40.2813 18.377C40.2813 18.161 40.1065 17.9863 39.8906 17.9863Z" fill="black"/>
<path d="M39.1094 8.61133H35.9844C35.7685 8.61133 35.5938 8.78604 35.5938 9.00197C35.5938 9.2179 35.7685 9.39262 35.9844 9.39262H39.1094C39.3253 9.39262 39.5 9.2179 39.5 9.00197C39.5 8.78604 39.3253 8.61133 39.1094 8.61133Z" fill="black"/>
<path d="M39.1093 7.83008C38.8935 7.83008 38.7188 8.00479 38.7188 8.22072V9.00202C38.7188 9.21795 38.8935 9.39266 39.1093 9.39266C39.3252 9.39266 39.4999 9.21795 39.4999 9.00202V8.22072C39.4999 8.00479 39.3252 7.83008 39.1093 7.83008Z" fill="black"/>
<path d="M37.5469 7.83008C37.331 7.83008 37.1562 8.00479 37.1562 8.22072V9.00202C37.1562 9.21795 37.331 9.39266 37.5469 9.39266C37.7627 9.39266 37.9374 9.21795 37.9374 9.00202V8.22072C37.9374 8.00479 37.7627 7.83008 37.5469 7.83008Z" fill="black"/>
<path d="M35.9844 7.83008C35.7685 7.83008 35.5938 8.00479 35.5938 8.22072V9.00202C35.5938 9.21795 35.7685 9.39266 35.9844 9.39266C36.2003 9.39266 36.375 9.21795 36.375 9.00202V8.22072C36.375 8.00479 36.2003 7.83008 35.9844 7.83008Z" fill="black"/>
<path d="M35.9844 18.7676C35.7685 18.7676 35.5938 18.9423 35.5938 19.1582V26.1887C35.5938 26.4046 35.7685 26.5793 35.9844 26.5793C36.2003 26.5793 36.375 26.4046 36.375 26.1887V19.1582C36.375 18.9423 36.2003 18.7676 35.9844 18.7676Z" fill="black"/>
<path d="M39.1093 18.7676C38.8935 18.7676 38.7188 18.9423 38.7188 19.1582V30.877C38.7188 31.0929 38.8935 31.2676 39.1093 31.2676C39.3252 31.2676 39.4999 31.0929 39.4999 30.877V19.1582C39.4999 18.9423 39.3252 18.7676 39.1093 18.7676Z" fill="black"/>
<path d="M25.828 23.4551C22.6054 23.4551 19.4765 24.598 17.0183 26.6724C16.8532 26.8113 16.8326 27.0577 16.9715 27.2226C17.1103 27.3865 17.3568 27.4087 17.522 27.2692C19.8398 25.3137 22.7897 24.2364 25.8281 24.2364C32.9356 24.2364 38.7189 30.0195 38.7189 37.127C38.7189 44.2345 32.9358 50.0177 25.8282 50.0177C18.7203 50.0177 12.9375 44.2345 12.9375 37.127C12.9375 36.9111 12.7627 36.7364 12.5469 36.7364C12.331 36.7364 12.1562 36.9111 12.1562 37.127C12.1562 44.6656 18.2895 50.7988 25.8281 50.7988C33.3667 50.7988 39.4999 44.6657 39.4999 37.127C39.4999 29.5883 33.3667 23.4551 25.828 23.4551Z" fill="black"/>
<path d="M25.8281 26.5801C22.1869 26.5801 18.8506 28.4211 16.904 31.5048C16.7888 31.6872 16.8433 31.9282 17.0257 32.0435C17.2092 32.1602 17.4495 32.1045 17.5648 31.9214C19.3675 29.0664 22.4567 27.3613 25.8281 27.3613C31.213 27.3613 35.5939 31.7421 35.5939 37.1269C35.5939 42.5118 31.2131 46.8925 25.8282 46.8925C20.4433 46.8925 16.0625 42.5118 16.0625 37.1269C16.0625 36.911 15.8877 36.7363 15.6719 36.7363C15.456 36.7363 15.2812 36.911 15.2812 37.1269C15.2812 42.9429 20.0126 47.6738 25.8281 47.6738C31.6433 47.6738 36.3751 42.9429 36.3751 37.1269C36.3751 31.311 31.6433 26.5801 25.8281 26.5801Z" fill="black"/>
</g>
<defs>
<clipPath id="clip0_23715_49953">
<rect width="50" height="50" fill="white" transform="translate(0.84375 0.8125)"/>
</clipPath>
</defs>
</svg>
