<svg width="50" height="50" viewBox="0 0 50 50" fill="none" xmlns="http://www.w3.org/2000/svg">
<path d="M35.631 26.2331V15.7296C35.631 15.5307 35.552 15.3399 35.4113 15.1992C35.2707 15.0586 35.0799 14.9796 34.881 14.9796H32.6765C33.4436 13.6478 33.8452 12.137 33.8405 10.6001C33.8405 8.25755 32.9099 6.01097 31.2535 4.35456C29.5971 2.69814 27.3505 1.76758 25.008 1.76758C22.6655 1.76758 20.4189 2.69814 18.7625 4.35456C17.1061 6.01097 16.1755 8.25755 16.1755 10.6001C16.1702 12.1376 16.5716 13.6492 17.339 14.9816H15.125C14.9261 14.9816 14.7353 15.0606 14.5947 15.2012C14.454 15.3419 14.375 15.5327 14.375 15.7316V26.2331C14.375 26.432 14.454 26.6228 14.5947 26.7634C14.7353 26.9041 14.9261 26.9831 15.125 26.9831H19.9425V47.4831C19.9425 47.682 20.0215 47.8728 20.1622 48.0134C20.3028 48.1541 20.4936 48.2331 20.6925 48.2331H29.3205C29.5194 48.2331 29.7102 48.1541 29.8508 48.0134C29.9915 47.8728 30.0705 47.682 30.0705 47.4831V26.9831H34.881C35.0799 26.9831 35.2707 26.9041 35.4113 26.7634C35.552 26.6228 35.631 26.432 35.631 26.2331ZM17.6755 10.6001C17.6755 9.63716 17.8652 8.68367 18.2337 7.79405C18.6021 6.90443 19.1423 6.0961 19.8231 5.41522C20.504 4.73433 21.3124 4.19422 22.202 3.82573C23.0916 3.45724 24.0451 3.26758 25.008 3.26758C25.9709 3.26758 26.9244 3.45724 27.814 3.82573C28.7036 4.19422 29.512 4.73433 30.1929 5.41522C30.8737 6.0961 31.4139 6.90443 31.7823 7.79405C32.1508 8.68367 32.3405 9.63716 32.3405 10.6001C32.3463 12.1803 31.8352 13.719 30.885 14.9816H19.1305C18.1807 13.7188 17.6697 12.1802 17.6755 10.6001V10.6001ZM15.8755 16.4816H27.789V25.4816H20.6925C20.676 25.4816 20.6605 25.4856 20.6425 25.4866H15.875L15.8755 16.4816ZM28.5705 46.7351H21.4425V26.9851H28.5705V46.7351ZM34.131 25.4851H29.369C29.353 25.4851 29.337 25.4801 29.319 25.4801H29.2875V16.4801H34.1295L34.131 25.4851Z" fill="black"/>
<path d="M29.9005 11.0777C29.8719 11.2742 29.9223 11.474 30.0408 11.6333C30.1593 11.7927 30.3361 11.8985 30.5325 11.9277C30.5692 11.933 30.6063 11.9357 30.6435 11.9357C30.8232 11.9355 30.9968 11.8707 31.1328 11.7533C31.2688 11.6358 31.3581 11.4734 31.3845 11.2957C31.9095 7.75068 29.79 5.71668 28.596 5.13618C28.4174 5.04859 28.2113 5.03555 28.023 5.09992C27.8348 5.1643 27.6798 5.30081 27.5922 5.47943C27.5046 5.65806 27.4916 5.86416 27.556 6.0524C27.6204 6.24064 27.7569 6.39559 27.9355 6.48318C28.036 6.53568 30.3915 7.76118 29.9005 11.0777V11.0777Z" fill="black"/>
<path d="M25 34.4374C25.1989 34.4374 25.3897 34.3583 25.5303 34.2177C25.671 34.077 25.75 33.8863 25.75 33.6874V29.4434C25.75 29.2444 25.671 29.0537 25.5303 28.913C25.3897 28.7724 25.1989 28.6934 25 28.6934C24.8011 28.6934 24.6103 28.7724 24.4697 28.913C24.329 29.0537 24.25 29.2444 24.25 29.4434V33.6874C24.25 33.8863 24.329 34.077 24.4697 34.2177C24.6103 34.3583 24.8011 34.4374 25 34.4374V34.4374Z" fill="black"/>
</svg>
