<svg width="51" height="51" viewBox="0 0 51 51" fill="none" xmlns="http://www.w3.org/2000/svg">
<g clip-path="url(#clip0_23715_49877)">
<path d="M25.8438 0.8125C12.0486 0.8125 0.84375 12.0173 0.84375 25.8125C0.84375 39.6077 12.0486 50.8125 25.8438 50.8125C39.6389 50.8125 50.8438 39.6077 50.8438 25.8125C50.8438 12.0173 39.6389 0.8125 25.8438 0.8125ZM25.8438 48.6438C13.2534 48.6438 3.01242 38.4029 3.01242 25.8125C3.01242 13.2221 13.2534 2.98117 25.8438 2.98117C38.4341 2.98117 48.6751 13.2221 48.6751 25.8125C48.6751 38.4029 38.4341 48.6438 25.8438 48.6438Z" fill="black"/>
<path d="M38.8584 20.3905H31.2681V12.8002C31.2681 12.1977 30.7861 11.7158 30.1837 11.7158H21.509C20.9066 11.7158 20.4247 12.1977 20.4247 12.8002V20.3905H12.8343C12.2319 20.3905 11.75 20.8724 11.75 21.4749V30.1496C11.75 30.752 12.2319 31.2339 12.8343 31.2339H20.4247V38.8243C20.4247 39.4267 20.9066 39.9086 21.509 39.9086H30.1837C30.7861 39.9086 31.2681 39.4267 31.2681 38.8243V31.2339H38.8584C39.4608 31.2339 39.9428 30.752 39.9428 30.1496V21.4749C39.8825 20.8724 39.4006 20.3905 38.8584 20.3905ZM37.8343 29.0652H37.7741H30.1837C29.5813 29.0652 29.0994 29.5471 29.0994 30.1496V37.7399H22.5934V30.1496C22.5934 29.5471 22.1114 29.0652 21.509 29.0652H13.9187V22.5592H21.509C22.1114 22.5592 22.5934 22.0773 22.5934 21.4749V13.8845H29.1596V21.4749C29.1596 22.0773 29.6416 22.5592 30.244 22.5592H37.8343V29.0652Z" fill="black"/>
</g>
<defs>
<clipPath id="clip0_23715_49877">
<rect width="50" height="50" fill="white" transform="translate(0.84375 0.8125)"/>
</clipPath>
</defs>
</svg>
