<svg width="50" height="50" viewBox="0 0 50 50" fill="none" xmlns="http://www.w3.org/2000/svg">
<g clip-path="url(#clip0_23715_50449)">
<path d="M17.1572 3.46884C21.381 1.92251 25.9674 1.65814 30.3409 2.70889C34.7144 3.75964 38.6802 6.07872 41.7405 9.37509H37.5009C37.2247 9.37509 36.9597 9.48483 36.7644 9.68019C36.569 9.87554 36.4593 10.1405 36.4593 10.4168C36.4593 10.693 36.569 10.958 36.7644 11.1533C36.9597 11.3487 37.2247 11.4584 37.5009 11.4584H43.7509C44.0272 11.4584 44.2922 11.3487 44.4875 11.1533C44.6829 10.958 44.7926 10.693 44.7926 10.4168V4.16675C44.7926 3.89049 44.6829 3.62553 44.4875 3.43018C44.2922 3.23483 44.0272 3.12509 43.7509 3.12509C43.4747 3.12509 43.2097 3.23483 43.0144 3.43018C42.819 3.62553 42.7093 3.89049 42.7093 4.16675V7.36467C39.3506 3.97911 35.0913 1.62804 30.4367 0.590395C25.7821 -0.447251 20.9275 -0.12792 16.4489 1.5105C16.1966 1.60991 15.993 1.80378 15.8814 2.05091C15.7698 2.29805 15.7589 2.57896 15.8512 2.83396C15.9434 3.08895 16.1314 3.29793 16.3753 3.41649C16.6192 3.53504 16.8997 3.55382 17.1572 3.46884V3.46884Z" fill="black"/>
<path d="M2.0848 25C2.0736 21.3977 2.91761 17.8442 4.54742 14.6317C6.17722 11.4191 8.54628 8.63934 11.4598 6.52083V10.4167C11.4598 10.6929 11.5695 10.9579 11.7649 11.1532C11.9602 11.3486 12.2252 11.4583 12.5015 11.4583C12.7777 11.4583 13.0427 11.3486 13.238 11.1532C13.4334 10.9579 13.5431 10.6929 13.5431 10.4167V4.16667C13.5431 3.8904 13.4334 3.62545 13.238 3.4301C13.0427 3.23475 12.7777 3.125 12.5015 3.125H6.25147C5.9752 3.125 5.71025 3.23475 5.5149 3.4301C5.31955 3.62545 5.2098 3.8904 5.2098 4.16667C5.2098 4.44293 5.31955 4.70789 5.5149 4.90324C5.71025 5.09859 5.9752 5.20833 6.25147 5.20833H9.74105C5.52999 8.4408 2.46088 12.9333 0.980719 18.0314C-0.499446 23.1295 -0.313357 28.5671 1.51188 33.5521C1.60591 33.8117 1.79916 34.0234 2.04918 34.1406C2.2992 34.2578 2.58552 34.2709 2.84522 34.1771C4.68897 33.5 2.0848 31.7604 2.0848 25Z" fill="black"/>
<path d="M32.8464 46.5316C28.6226 48.0779 24.0361 48.3423 19.6626 47.2915C15.2891 46.2408 11.3233 43.9217 8.26302 40.6253H12.5026C12.7789 40.6253 13.0438 40.5156 13.2392 40.3202C13.4345 40.1249 13.5443 39.8599 13.5443 39.5837C13.5443 39.3074 13.4345 39.0424 13.2392 38.8471C13.0438 38.6517 12.7789 38.542 12.5026 38.542H6.2526C5.97634 38.542 5.71139 38.6517 5.51603 38.8471C5.32068 39.0424 5.21094 39.3074 5.21094 39.5837V45.8337C5.21094 46.1099 5.32068 46.3749 5.51603 46.5702C5.71139 46.7656 5.97634 46.8753 6.2526 46.8753C6.52887 46.8753 6.79382 46.7656 6.98917 46.5702C7.18452 46.3749 7.29427 46.1099 7.29427 45.8337V42.6357C10.6529 46.0213 14.9122 48.3724 19.5668 49.41C24.2215 50.4477 29.0761 50.1283 33.5547 48.4899C33.807 48.3905 34.0106 48.1966 34.1222 47.9495C34.2338 47.7024 34.2446 47.4215 34.1524 47.1665C34.0601 46.9115 33.8721 46.7025 33.6282 46.5839C33.3844 46.4654 33.1039 46.4466 32.8464 46.5316Z" fill="black"/>
<path d="M43.7526 44.7915H40.263C44.4741 41.559 47.5432 37.0665 49.0234 31.9684C50.5035 26.8703 50.3174 21.4327 48.4922 16.4477C48.3982 16.1881 48.2049 15.9764 47.9549 15.8592C47.7049 15.742 47.4186 15.7289 47.1589 15.8227C45.3151 16.4998 47.9193 18.2394 47.9193 24.9998C47.9305 28.6021 47.0865 32.1556 45.4567 35.3681C43.8268 38.5807 41.4578 41.3605 38.5443 43.479V39.5831C38.5443 39.3069 38.4345 39.0419 38.2392 38.8466C38.0438 38.6512 37.7789 38.5415 37.5026 38.5415C37.2263 38.5415 36.9614 38.6512 36.766 38.8466C36.5707 39.0419 36.4609 39.3069 36.4609 39.5831V45.8331C36.4609 46.1094 36.5707 46.3743 36.766 46.5697C36.9614 46.765 37.2263 46.8748 37.5026 46.8748H43.7526C43.8894 46.8748 44.0249 46.8478 44.1512 46.7955C44.2776 46.7431 44.3924 46.6664 44.4892 46.5697C44.5859 46.473 44.6626 46.3581 44.715 46.2318C44.7673 46.1054 44.7943 45.9699 44.7943 45.8331C44.7943 45.6963 44.7673 45.5609 44.715 45.4345C44.6626 45.3081 44.5859 45.1933 44.4892 45.0966C44.3924 44.9998 44.2776 44.9231 44.1512 44.8708C44.0249 44.8184 43.8894 44.7915 43.7526 44.7915Z" fill="black"/>
<path d="M29.1641 45.8331C29.9929 45.8331 30.7877 45.5039 31.3738 44.9178C31.9598 44.3318 32.2891 43.5369 32.2891 42.7081V21.8748C32.2891 21.5985 32.3988 21.3335 32.5942 21.1382C32.7895 20.9428 33.0545 20.8331 33.3307 20.8331H40.6224C41.4512 20.8331 42.2461 20.5039 42.8321 19.9178C43.4182 19.3318 43.7474 18.5369 43.7474 17.7081C43.7474 16.8793 43.4182 16.0844 42.8321 15.4984C42.2461 14.9123 41.4512 14.5831 40.6224 14.5831H29.6432C30.4514 13.6851 30.9819 12.572 31.1707 11.3788C31.3594 10.1855 31.1982 8.96304 30.7067 7.85944C30.2152 6.75583 29.4143 5.81833 28.401 5.16041C27.3878 4.50249 26.2055 4.15234 24.9974 4.15234C23.7893 4.15234 22.607 4.50249 21.5938 5.16041C20.5805 5.81833 19.7796 6.75583 19.2881 7.85944C18.7966 8.96304 18.6354 10.1855 18.8241 11.3788C19.0129 12.572 19.5434 13.6851 20.3516 14.5831H10.4141C9.58526 14.5831 8.79041 14.9123 8.20435 15.4984C7.6183 16.0844 7.28906 16.8793 7.28906 17.7081C7.28906 18.5369 7.6183 19.3318 8.20435 19.9178C8.79041 20.5039 9.58526 20.8331 10.4141 20.8331H16.6641C16.9403 20.8331 17.2053 20.9428 17.4006 21.1382C17.596 21.3335 17.7057 21.5985 17.7057 21.8748V42.7081C17.7057 43.5369 18.035 44.3318 18.621 44.9178C19.2071 45.5039 20.0019 45.8331 20.8307 45.8331C21.6595 45.8331 22.4544 45.5039 23.0404 44.9178C23.6265 44.3318 23.9557 43.5369 23.9557 42.7081V33.3331C23.9557 33.0568 24.0655 32.7919 24.2608 32.5965C24.4562 32.4012 24.7211 32.2914 24.9974 32.2914C25.2737 32.2914 25.5386 32.4012 25.734 32.5965C25.9293 32.7919 26.0391 33.0568 26.0391 33.3331V42.7081C26.0391 43.5369 26.3683 44.3318 26.9544 44.9178C27.5404 45.5039 28.3353 45.8331 29.1641 45.8331V45.8331ZM20.8307 10.4164C20.8307 9.59235 21.0751 8.78676 21.5329 8.10156C21.9908 7.41635 22.6415 6.8823 23.4029 6.56694C24.1642 6.25157 25.002 6.16906 25.8103 6.32983C26.6185 6.4906 27.361 6.88744 27.9437 7.47016C28.5264 8.05288 28.9232 8.7953 29.084 9.60356C29.2448 10.4118 29.1623 11.2496 28.8469 12.0109C28.5315 12.7723 27.9975 13.4231 27.3123 13.8809C26.6271 14.3387 25.8215 14.5831 24.9974 14.5831C23.8923 14.5831 22.8325 14.1441 22.0511 13.3627C21.2697 12.5813 20.8307 11.5215 20.8307 10.4164ZM24.9974 30.2081C24.1686 30.2081 23.3737 30.5373 22.7877 31.1234C22.2016 31.7094 21.8724 32.5043 21.8724 33.3331V42.7081C21.8724 42.9844 21.7627 43.2493 21.5673 43.4447C21.372 43.64 21.107 43.7498 20.8307 43.7498C20.5545 43.7498 20.2895 43.64 20.0942 43.4447C19.8988 43.2493 19.7891 42.9844 19.7891 42.7081V21.8748C19.7891 21.046 19.4598 20.2511 18.8738 19.6651C18.2877 19.079 17.4929 18.7498 16.6641 18.7498H10.4141C10.1378 18.7498 9.87284 18.64 9.67749 18.4447C9.48214 18.2493 9.3724 17.9844 9.3724 17.7081C9.3724 17.4318 9.48214 17.1669 9.67749 16.9715C9.87284 16.7762 10.1378 16.6664 10.4141 16.6664H40.6224C40.8987 16.6664 41.1636 16.7762 41.359 16.9715C41.5543 17.1669 41.6641 17.4318 41.6641 17.7081C41.6641 17.9844 41.5543 18.2493 41.359 18.4447C41.1636 18.64 40.8987 18.7498 40.6224 18.7498H33.3307C32.5019 18.7498 31.7071 19.079 31.121 19.6651C30.535 20.2511 30.2057 21.046 30.2057 21.8748V42.7081C30.2057 42.9844 30.096 43.2493 29.9006 43.4447C29.7053 43.64 29.4403 43.7498 29.1641 43.7498C28.8878 43.7498 28.6228 43.64 28.4275 43.4447C28.2321 43.2493 28.1224 42.9844 28.1224 42.7081V33.3331C28.1224 32.5043 27.7932 31.7094 27.2071 31.1234C26.6211 30.5373 25.8262 30.2081 24.9974 30.2081Z" fill="black"/>
</g>
<defs>
<clipPath id="clip0_23715_50449">
<rect width="50" height="50" fill="white"/>
</clipPath>
</defs>
</svg>
