<svg width="51" height="51" viewBox="0 0 51 51" fill="none" xmlns="http://www.w3.org/2000/svg">
<g clip-path="url(#clip0_23715_50159)">
<path d="M25.9355 38.4475H28.1766C28.3578 38.4474 28.5316 38.3753 28.6598 38.2471C28.788 38.119 28.8601 37.9451 28.8602 37.7639V36.2896C28.8592 35.5633 28.5703 34.8671 28.0568 34.3535C27.5433 33.8398 26.847 33.5508 26.1207 33.5498H23.8789C23.6976 33.5498 23.5237 33.6218 23.3955 33.75C23.2673 33.8782 23.1953 34.0521 23.1953 34.2334V35.7072C23.1961 36.4337 23.4851 37.1302 23.9988 37.644C24.5125 38.1577 25.209 38.4466 25.9355 38.4475V38.4475ZM24.5625 34.917H26.1207C26.4847 34.9173 26.8337 35.062 27.0911 35.3194C27.3485 35.5767 27.4933 35.9257 27.4937 36.2896V37.0803H25.9355C25.5715 37.0799 25.2225 36.9351 24.9651 36.6777C24.7077 36.4203 24.5629 36.0713 24.5625 35.7072V34.917Z" fill="black"/>
<path d="M37.0352 38.4475H39.2758C40.0024 38.4467 40.699 38.1578 41.2128 37.6441C41.7266 37.1304 42.0156 36.4338 42.0164 35.7072V34.2334C42.0164 34.0521 41.9444 33.8782 41.8162 33.75C41.688 33.6218 41.5141 33.5498 41.3328 33.5498H39.0914C38.365 33.5507 37.6687 33.8397 37.1551 34.3533C36.6415 34.8669 36.3525 35.5633 36.3516 36.2896V37.7654C36.352 37.9465 36.4242 38.1199 36.5523 38.2478C36.6805 38.3757 36.8541 38.4475 37.0352 38.4475V38.4475ZM37.7188 36.2896C37.7191 35.9257 37.8638 35.5767 38.1211 35.3194C38.3785 35.062 38.7275 34.9173 39.0914 34.917H40.6492V35.7072C40.6488 36.0713 40.504 36.4204 40.2465 36.6778C39.989 36.9352 39.6399 37.08 39.2758 37.0803H37.7188V36.2896Z" fill="black"/>
<path d="M30.3711 34.917H34.8402C35.0215 34.917 35.1954 34.845 35.3236 34.7168C35.4518 34.5886 35.5238 34.4147 35.5238 34.2334C35.5238 34.0521 35.4518 33.8782 35.3236 33.75C35.1954 33.6218 35.0215 33.5498 34.8402 33.5498H30.3711C30.1898 33.5498 30.0159 33.6218 29.8877 33.75C29.7595 33.8782 29.6875 34.0521 29.6875 34.2334C29.6875 34.4147 29.7595 34.5886 29.8877 34.7168C30.0159 34.845 30.1898 34.917 30.3711 34.917V34.917Z" fill="black"/>
<path d="M30.3711 36.6826H34.8402C35.0215 36.6826 35.1954 36.6106 35.3236 36.4824C35.4518 36.3542 35.5238 36.1803 35.5238 35.999C35.5238 35.8177 35.4518 35.6438 35.3236 35.5156C35.1954 35.3874 35.0215 35.3154 34.8402 35.3154H30.3711C30.1898 35.3154 30.0159 35.3874 29.8877 35.5156C29.7595 35.6438 29.6875 35.8177 29.6875 35.999C29.6875 36.1803 29.7595 36.3542 29.8877 36.4824C30.0159 36.6106 30.1898 36.6826 30.3711 36.6826V36.6826Z" fill="black"/>
<path d="M30.3711 38.4473H34.8402C35.0215 38.4473 35.1954 38.3752 35.3236 38.247C35.4518 38.1188 35.5238 37.945 35.5238 37.7637C35.5238 37.5824 35.4518 37.4085 35.3236 37.2803C35.1954 37.1521 35.0215 37.0801 34.8402 37.0801H30.3711C30.1898 37.0801 30.0159 37.1521 29.8877 37.2803C29.7595 37.4085 29.6875 37.5824 29.6875 37.7637C29.6875 37.945 29.7595 38.1188 29.8877 38.247C30.0159 38.3752 30.1898 38.4473 30.3711 38.4473V38.4473Z" fill="black"/>
<path d="M-0.472656 46.1633H46.2988C46.4801 46.1633 46.654 46.0913 46.7822 45.9631C46.9104 45.8349 46.9824 45.661 46.9824 45.4797C46.9824 45.2984 46.9104 45.1245 46.7822 44.9963C46.654 44.8681 46.4801 44.7961 46.2988 44.7961H39.0508C39.1643 44.525 39.2227 44.2341 39.2227 43.9402V41.9723C39.9246 41.9084 40.5773 41.5845 41.0528 41.0641C41.5282 40.5438 41.7921 39.8646 41.7926 39.1598V19.4004L44.4156 20.3148V21.0609H43.7961C43.6148 21.0609 43.4409 21.133 43.3127 21.2612C43.1845 21.3894 43.1125 21.5632 43.1125 21.7445V26.0867C43.1125 26.268 43.1845 26.4419 43.3127 26.5701C43.4409 26.6983 43.6148 26.7703 43.7961 26.7703H46.4023C46.5836 26.7703 46.7575 26.6983 46.8857 26.5701C47.0139 26.4419 47.0859 26.268 47.0859 26.0867V21.7445C47.0859 21.5632 47.0139 21.3894 46.8857 21.2612C46.7575 21.133 46.5836 21.0609 46.4023 21.0609H45.7828V19.8293C45.7829 19.6874 45.7387 19.549 45.6565 19.4333C45.5744 19.3176 45.4582 19.2303 45.3242 19.1836L41.793 17.9527V16.1816C41.7922 15.433 41.4946 14.7152 40.9652 14.1858C40.4359 13.6564 39.7182 13.3586 38.9695 13.3578H20.4777C19.7288 13.3582 19.0106 13.6558 18.4809 14.1853C17.9512 14.7147 17.6532 15.4327 17.6523 16.1816V17.9527L14.1207 19.1836C13.9867 19.2304 13.8706 19.3176 13.7884 19.4333C13.7063 19.549 13.6621 19.6874 13.6621 19.8293V21.0609H13.043C12.9532 21.0609 12.8643 21.0785 12.7813 21.1129C12.6983 21.1472 12.623 21.1976 12.5595 21.261C12.496 21.3245 12.4456 21.3999 12.4113 21.4829C12.377 21.5658 12.3593 21.6547 12.3594 21.7445V26.0867C12.3593 26.1765 12.377 26.2654 12.4113 26.3484C12.4456 26.4313 12.496 26.5067 12.5595 26.5702C12.623 26.6337 12.6983 26.684 12.7813 26.7184C12.8643 26.7527 12.9532 26.7704 13.043 26.7703H15.6488C15.7386 26.7704 15.8275 26.7527 15.9105 26.7184C15.9935 26.684 16.0688 26.6337 16.1323 26.5702C16.1958 26.5067 16.2462 26.4313 16.2805 26.3484C16.3148 26.2654 16.3325 26.1765 16.3324 26.0867V21.7445C16.3325 21.6547 16.3148 21.5658 16.2805 21.4829C16.2462 21.3999 16.1958 21.3245 16.1323 21.261C16.0688 21.1976 15.9935 21.1472 15.9105 21.1129C15.8275 21.0785 15.7386 21.0609 15.6488 21.0609H15.0309V20.3148L17.6523 19.4004V39.1617C17.6529 39.8666 17.9168 40.5459 18.3923 41.0662C18.8678 41.5866 19.5207 41.9104 20.2227 41.9742V43.9418C20.2226 44.2357 20.281 44.5266 20.3945 44.7977H12.0707V38.782H13.043C13.2243 38.782 13.3981 38.71 13.5263 38.5818C13.6545 38.4536 13.7266 38.2797 13.7266 38.0984V37.6C13.7257 36.9223 13.4562 36.2726 12.9769 35.7934C12.4977 35.3142 11.848 35.0446 11.1703 35.0437H4.9457V10.527H32.6215C32.8028 10.5268 32.9766 10.4548 33.1047 10.3266C33.2329 10.1984 33.305 10.0246 33.3051 9.84336V7.79688C33.3041 7.00566 32.9894 6.24711 32.4299 5.68763C31.8705 5.12815 31.1119 4.81343 30.3207 4.8125H-0.472656C-0.653957 4.8125 -0.827831 4.88452 -0.95603 5.01272C-1.08423 5.14092 -1.15625 5.31479 -1.15625 5.49609V7.54414C-1.1553 8.18599 -0.94777 8.81048 -0.564364 9.32523C-0.180958 9.83998 0.357959 10.2176 0.972656 10.4023V40.9531H-0.472656C-0.653925 40.9532 -0.827739 41.0253 -0.955916 41.1535C-1.08409 41.2816 -1.15615 41.4555 -1.15625 41.6367V45.4797C-1.15625 45.661 -1.08423 45.8349 -0.95603 45.9631C-0.827831 46.0913 -0.653957 46.1633 -0.472656 46.1633ZM45.7188 25.4031H44.4797V22.4281H45.7188V25.4031ZM14.9668 25.4031H13.7281V22.4281H14.9668V25.4031ZM26.0664 41.9855H33.3805V43.9387C33.3802 44.2326 33.4387 44.5235 33.5523 44.7945H25.8945C26.0082 44.5235 26.0666 44.2326 26.0664 43.9387V41.9855ZM35.6035 44.798C35.3766 44.7978 35.159 44.7076 34.9986 44.5471C34.8381 44.3867 34.7479 44.1691 34.7477 43.9422V41.9891H37.8555V43.9422C37.8552 44.1691 37.7648 44.3867 37.6043 44.5472C37.4438 44.7076 37.2262 44.7978 36.9992 44.798H35.6035ZM37.3738 26.8879C37.2456 26.7598 37.0718 26.6878 36.8906 26.6878C36.7094 26.6878 36.5356 26.7598 36.4074 26.8879L33.727 29.566H30.4066V19.1207H40.4258V27.8855C40.4251 28.3308 40.2479 28.7576 39.933 29.0725C39.6182 29.3873 39.1914 29.5645 38.7461 29.5652H35.6602L37.3738 27.852C37.5019 27.7238 37.5738 27.5501 37.5738 27.3689C37.5738 27.1878 37.5019 27.0141 37.3738 26.8859V26.8879ZM24.2063 29.566L25.9199 27.8527C25.9852 27.7897 26.0373 27.7143 26.0732 27.6309C26.109 27.5475 26.1279 27.4578 26.1287 27.367C26.1295 27.2762 26.1122 27.1862 26.0779 27.1022C26.0435 27.0182 25.9928 26.9419 25.9286 26.8777C25.8644 26.8135 25.7881 26.7627 25.7041 26.7283C25.6201 26.6939 25.5301 26.6766 25.4393 26.6774C25.3486 26.6781 25.2588 26.697 25.1754 26.7328C25.092 26.7686 25.0166 26.8207 24.9535 26.8859L22.273 29.566H20.7023C20.2571 29.5653 19.8303 29.3881 19.5154 29.0732C19.2006 28.7584 19.0234 28.3316 19.0227 27.8863V19.1207H29.0398V29.566H24.2063ZM19.0195 16.1816C19.0199 15.7954 19.1735 15.4252 19.4466 15.1521C19.7197 14.879 20.09 14.7254 20.4762 14.725H38.9676C39.3537 14.7255 39.7239 14.8792 39.9969 15.1522C40.2699 15.4253 40.4234 15.7955 40.4238 16.1816V17.7535H19.0195V16.1816ZM19.0195 39.1617V30.4254C19.5171 30.7566 20.1015 30.9333 20.6992 30.9332H38.7461C39.3438 30.9333 39.9282 30.7566 40.4258 30.4254V39.1617C40.4255 39.5479 40.272 39.9181 39.9989 40.1912C39.7259 40.4643 39.3557 40.6179 38.9695 40.6184H20.4777C20.0913 40.6184 19.7206 40.4649 19.4472 40.1918C19.1738 39.9187 19.0199 39.5482 19.0195 39.1617ZM21.5898 43.9402V41.9871H24.6992V43.9402C24.6989 44.1671 24.6086 44.3846 24.4482 44.5451C24.2878 44.7055 24.0703 44.7958 23.8434 44.7961H22.4473C22.2204 44.7958 22.0029 44.7055 21.8424 44.5451C21.682 44.3846 21.5917 44.1671 21.5914 43.9402H21.5898ZM10.702 44.7961H9.93984V38.7805H10.7035L10.702 44.7961ZM4.94609 36.4109H11.1719C11.4541 36.4118 11.7268 36.5129 11.9414 36.6961C12.156 36.8793 12.2986 37.1328 12.3438 37.4113H4.94609V36.4109ZM2.33984 10.527H3.57773V40.95H2.33984V10.527ZM0.210938 7.54414V6.17969H30.3207C30.7495 6.1801 31.1606 6.35062 31.4638 6.65381C31.767 6.957 31.9375 7.3681 31.9379 7.79688V9.15977H1.82813C1.39962 9.15935 0.988756 8.98905 0.685609 8.6862C0.382462 8.38334 0.211765 7.97265 0.210938 7.54414V7.54414ZM4.9457 38.7785H8.57266V44.7961H7.07695V41.6367C7.07685 41.4555 7.0048 41.2816 6.87662 41.1535C6.74844 41.0253 6.57463 40.9532 6.39336 40.9531H4.9457V38.7785ZM0.210938 42.3203H5.70977V44.7961H0.210938V42.3203Z" fill="black"/>
</g>
<defs>
<clipPath id="clip0_23715_50159">
<rect width="50" height="50" fill="white" transform="translate(0.84375 0.8125)"/>
</clipPath>
</defs>
</svg>
