<svg width="51" height="51" viewBox="0 0 51 51" fill="none" xmlns="http://www.w3.org/2000/svg">
<g clip-path="url(#clip0_23715_50107)">
<path d="M50.8438 41.3271V13.0358C50.8438 11.8054 49.8427 10.8043 48.6122 10.8043H40.95L28.834 6.12578C28.8349 6.09639 28.8362 6.06699 28.8362 6.0374C28.8362 4.3874 27.4938 3.04492 25.8438 3.04492C24.1937 3.04492 22.8513 4.3873 22.8513 6.0374C22.8513 6.06709 22.8526 6.09639 22.8535 6.12578L10.7375 10.8043H3.07529C1.84482 10.8043 0.84375 11.8054 0.84375 13.0358V41.3271C0.84375 42.0542 1.19346 42.7011 1.7335 43.1088C1.18271 43.6902 0.84375 44.4743 0.84375 45.3366C0.84375 47.1248 2.29844 48.5795 4.08662 48.5795H47.6009C49.3891 48.5795 50.8438 47.1248 50.8438 45.3366C50.8438 44.4744 50.5048 43.6903 49.954 43.1088C50.494 42.7012 50.8438 42.0542 50.8438 41.3271ZM25.8438 4.50977C26.686 4.50977 27.3714 5.19502 27.3714 6.0374C27.3714 6.87979 26.686 7.56494 25.8438 7.56494C25.0015 7.56494 24.3161 6.87969 24.3161 6.0373C24.3161 5.19492 25.0015 4.50977 25.8438 4.50977ZM23.2576 7.54004C23.7768 8.43008 24.7412 9.02988 25.8438 9.02988C26.9463 9.02988 27.9107 8.43008 28.4299 7.54004L36.8834 10.8043H14.8041L23.2576 7.54004ZM49.3789 41.3271C49.3789 41.7498 49.035 42.0937 48.6122 42.0937H39.9992C39.5947 42.0937 39.2668 42.4217 39.2668 42.8262C39.2668 43.2307 39.5947 43.5586 39.9992 43.5586H47.6009C48.5813 43.5586 49.3789 44.3562 49.3789 45.3366C49.3789 46.3171 48.5813 47.1146 47.6009 47.1146H4.08662C3.10615 47.1146 2.30859 46.3171 2.30859 45.3366C2.30859 44.3562 3.10615 43.5586 4.08662 43.5586H8.90205H19.5105H37.2649C37.6694 43.5586 37.9974 43.2307 37.9974 42.8262C37.9974 42.4217 37.6694 42.0937 37.2649 42.0937H20.9925C20.9926 42.0877 20.9934 42.0817 20.9934 42.0757V40.6289H47.1816C47.5861 40.6289 47.9141 40.301 47.9141 39.8965V14.4664C47.9141 14.0619 47.5861 13.734 47.1816 13.734H4.50586C4.10137 13.734 3.77344 14.0619 3.77344 14.4664V39.8964C3.77344 40.3009 4.10137 40.6288 4.50586 40.6288H7.41914V42.0756C7.41914 42.0816 7.42002 42.0876 7.42002 42.0937H3.07529C2.65254 42.0937 2.30859 41.7497 2.30859 41.327V13.0358C2.30859 12.6131 2.65254 12.2691 3.07529 12.2691C3.07529 12.2691 10.877 12.2691 10.8784 12.2691H48.6122C49.035 12.2691 49.3789 12.6131 49.3789 13.0358V41.3271ZM19.5104 36.195H8.90205C8.08437 36.195 7.41914 36.8603 7.41914 37.6779V39.1641H5.23828V15.1988H46.4492V39.164H20.9934V37.6778C20.9934 36.8602 20.3282 36.195 19.5104 36.195ZM16.0156 40.6092H19.5285V42.0757C19.5285 42.0856 19.5204 42.0937 19.5104 42.0937H8.90205C8.89209 42.0937 8.88398 42.0856 8.88398 42.0757V40.6092H13.2812C13.6856 40.6092 14.0136 40.2812 14.0136 39.8768C14.0136 39.4723 13.6856 39.1443 13.2812 39.1443H8.88398V37.6778C8.88398 37.6679 8.89209 37.6598 8.90205 37.6598H19.5105C19.5205 37.6598 19.5286 37.6679 19.5286 37.6778V39.1443H16.0156C15.6111 39.1443 15.2832 39.4723 15.2832 39.8768C15.2832 40.2812 15.6111 40.6092 16.0156 40.6092Z" fill="black"/>
<path d="M21.3454 32.0698L18.2162 21.8716C18.1514 21.6446 17.9893 21.469 17.7298 21.3446C17.4704 21.2205 17.1785 21.1582 16.8543 21.1582C16.5301 21.1582 16.2407 21.2142 15.9869 21.3262C15.7328 21.4382 15.5735 21.5965 15.5087 21.801L12.3762 31.9984C12.3547 32.0909 12.3438 32.1486 12.3438 32.1717C12.3438 32.4374 12.5044 32.6599 12.8256 32.839C13.1469 33.0181 13.4843 33.1075 13.8374 33.1075C14.2879 33.1075 14.5556 32.9674 14.641 32.6872L15.2452 30.5296H18.7189L19.3351 32.686C19.4105 32.9672 19.6484 33.1075 20.0484 33.1075C20.351 33.1075 20.6483 33.0211 20.9401 32.8481C21.2319 32.6753 21.3778 32.4698 21.3778 32.2319C21.3778 32.2104 21.3669 32.1564 21.3454 32.0698ZM15.7082 28.8758L17.1013 23.8982L18.5118 28.8758H15.7082Z" fill="black"/>
<path d="M29.9247 27.6034C29.6435 27.209 29.2275 26.9037 28.6763 26.6873C29.5948 26.2876 30.0544 25.4282 30.0544 24.1094C30.0544 22.2071 28.9681 21.2559 26.7955 21.2559H23.6663C23.4176 21.2559 23.2015 21.3154 23.0178 21.4342C22.8339 21.5532 22.7422 21.7154 22.7422 21.9206V32.4593C22.7422 32.6323 22.8285 32.7836 23.0016 32.9133C23.1744 33.043 23.396 33.1078 23.6663 33.1078H27.1035C28.0979 33.1078 28.887 32.835 29.4707 32.2891C30.0544 31.7434 30.3462 30.8704 30.3462 29.6706V29.3302C30.3462 28.5737 30.2056 27.9981 29.9247 27.6034ZM24.8337 23.1042H26.6334C27.044 23.1042 27.3655 23.2258 27.598 23.469C27.8304 23.7122 27.9466 24.0446 27.9466 24.4661C27.9466 24.8985 27.8356 25.2391 27.6143 25.4875C27.3926 25.7362 27.0711 25.8604 26.6496 25.8604H24.8337V23.1042ZM28.2386 29.4923C28.2386 30.6705 27.7142 31.2596 26.6659 31.2596H24.8337V27.5142H26.6658C27.1847 27.5142 27.5763 27.6494 27.8413 27.9195C28.1061 28.1898 28.2386 28.6275 28.2386 29.2328V29.4923V29.4923Z" fill="black"/>
<path d="M38.2762 28.9572C37.6167 28.9572 37.2709 29.1789 37.2385 29.622C37.2276 29.8489 37.2033 30.041 37.1655 30.1976C37.1275 30.3543 37.0574 30.5327 36.9548 30.7326C36.852 30.9327 36.6845 31.0868 36.4522 31.1947C36.2196 31.3028 35.9306 31.3568 35.5849 31.3568C34.4281 31.3568 33.85 30.7354 33.85 29.4923V24.9687C33.85 23.7259 34.4175 23.1042 35.5524 23.1042C35.8443 23.1042 36.0981 23.1447 36.3145 23.2258C36.5306 23.3069 36.6927 23.4042 36.8009 23.5177C36.9088 23.6312 36.998 23.7718 37.0684 23.9392C37.1386 24.1068 37.1818 24.2419 37.198 24.3445C37.2143 24.4474 37.2277 24.5689 37.2386 24.7093C37.2492 25.1526 37.6006 25.374 38.2925 25.374C38.6707 25.374 38.941 25.3011 39.1031 25.1552C39.2652 25.0093 39.3463 24.7364 39.3463 24.3364C39.3463 23.4069 38.9868 22.6611 38.2681 22.0989C37.5491 21.537 36.6224 21.2559 35.4874 21.2559C34.374 21.2559 33.4714 21.5558 32.7798 22.1557C32.088 22.7556 31.7422 23.6935 31.7422 24.9687V29.4922C31.7421 30.7678 32.0851 31.7054 32.7716 32.3053C33.4579 32.9052 34.3577 33.2051 35.4711 33.2051C36.6167 33.2051 37.5489 32.9133 38.268 32.3296C38.9866 31.7459 39.3462 30.9677 39.3462 29.9948C39.3462 29.5951 39.2623 29.322 39.0949 29.1761C38.9272 29.0302 38.6544 28.9572 38.2762 28.9572Z" fill="black"/>
</g>
<defs>
<clipPath id="clip0_23715_50107">
<rect width="50" height="50" fill="white" transform="translate(0.84375 0.8125)"/>
</clipPath>
</defs>
</svg>
