<svg width="50" height="50" viewBox="0 0 50 50" fill="none" xmlns="http://www.w3.org/2000/svg">
<g clip-path="url(#clip0_23715_49786)">
<path d="M28.8625 0.0351693C23.0628 0.338096 17.5723 2.74401 13.4183 6.80267C11.0638 9.08743 9.36016 11.958 8.48258 15.1193C7.605 18.2806 7.58512 21.6186 8.42501 24.7902C9.01941 26.9959 9.00376 29.3216 8.37971 31.5192C7.75566 33.7167 6.54664 35.7036 4.88167 37.2677L1.08501 40.7502C0.751472 41.0572 0.483477 41.4285 0.297138 41.8417C0.110799 42.255 0.00996579 42.7016 0.000702054 43.1549C-0.00856169 43.6081 0.0739358 44.0585 0.243233 44.479C0.41253 44.8995 0.665129 45.2815 0.985838 45.6018L4.40251 49.0185C4.71402 49.3314 5.08461 49.5794 5.49275 49.7479C5.90089 49.9164 6.33845 50.0022 6.78001 50.0002H6.85084C7.30461 49.9929 7.75212 49.8931 8.16596 49.7068C8.57979 49.5206 8.95123 49.2517 9.25751 48.9168L12.7342 45.1243C14.2981 43.4582 16.2851 42.248 18.4831 41.6229C20.6811 40.9979 23.0075 40.9814 25.2142 41.5752C29.2995 42.6557 33.6324 42.2967 37.4842 40.5585C38.9292 41.8679 40.8278 42.5622 42.7766 42.4938C44.7254 42.4255 46.5707 41.5999 47.9204 40.1926C49.2702 38.7852 50.0179 36.907 50.0048 34.9571C49.9916 33.0072 49.2186 31.1392 47.85 29.7502C51.7092 21.1985 50.3633 11.5643 44.4 5.60267C40.4758 1.67934 34.9567 -0.287331 28.8625 0.0351693V0.0351693ZM11.5017 44.0002L11.495 44.0077L8.03001 47.786C7.87551 47.9548 7.68826 48.0905 7.47967 48.1846C7.27107 48.2787 7.04549 48.3294 6.81667 48.3335C6.35666 48.3336 5.91476 48.1542 5.58501 47.8335L2.16834 44.4168C2.00657 44.2553 1.87913 44.0628 1.79365 43.8508C1.70818 43.6388 1.66645 43.4117 1.67096 43.1832C1.67548 42.9547 1.72615 42.7294 1.81993 42.521C1.9137 42.3125 2.04866 42.1251 2.21667 41.9702L6.00167 38.506L12.2 32.8243C12.681 32.3806 13.3156 32.1413 13.9698 32.1568C14.624 32.1724 15.2465 32.4416 15.7058 32.9077L17.1 34.3027C17.5649 34.7614 17.8335 35.3829 17.849 36.0358C17.8646 36.6888 17.6259 37.3223 17.1833 37.8027L11.5017 44.0002ZM25.625 39.9627C22.8314 39.2387 19.8864 39.3547 17.1583 40.296L18.4083 38.9352C19.1444 38.1385 19.5421 37.0871 19.5175 36.0027C19.493 34.9184 19.048 33.886 18.2767 33.1235L16.885 31.7293C16.1226 30.9576 15.0902 30.5122 14.0056 30.487C12.9211 30.4618 11.8691 30.8588 11.0717 31.5943L9.70834 32.8443C10.6497 30.1169 10.7656 27.1724 10.0417 24.3793C9.84708 23.6118 9.70316 22.8324 9.61084 22.046L27.9442 40.3793C27.1632 40.289 26.3888 40.1487 25.6258 39.9593L25.625 39.9627ZM48.335 35.0002C48.335 36.1539 47.9929 37.2817 47.3519 38.241C46.7109 39.2003 45.7999 39.948 44.734 40.3895C43.6681 40.831 42.4952 40.9465 41.3637 40.7214C40.2321 40.4963 39.1927 39.9408 38.3769 39.125C37.5611 38.3092 37.0055 37.2698 36.7804 36.1382C36.5553 35.0066 36.6709 33.8338 37.1124 32.7679C37.5539 31.7019 38.3016 30.7909 39.2608 30.1499C40.2201 29.509 41.348 29.1668 42.5017 29.1668C44.0482 29.1688 45.5307 29.784 46.6243 30.8776C47.7178 31.9711 48.333 33.4537 48.335 35.0002V35.0002ZM46.5017 28.6668C45.0428 27.7411 43.3087 27.3482 41.5933 27.5548C39.8778 27.7614 38.2866 28.5547 37.0891 29.8003C35.8917 31.0459 35.1617 32.6671 35.0229 34.3894C34.8841 36.1116 35.345 37.8289 36.3275 39.2502C34.4569 40.0302 32.4571 40.4541 30.4308 40.5002L9.50167 19.5785C9.63066 15.1975 11.4591 11.0386 14.6 7.98184C18.4615 4.21229 23.5642 1.97883 28.9533 1.69934C34.5675 1.40184 39.6367 3.19934 43.2217 6.78267C48.5158 12.0752 49.8008 20.9485 46.5017 28.6668V28.6668Z" fill="black"/>
</g>
<defs>
<clipPath id="clip0_23715_49786">
<rect width="50" height="50" fill="white"/>
</clipPath>
</defs>
</svg>
