<svg width="51" height="51" viewBox="0 0 51 51" fill="none" xmlns="http://www.w3.org/2000/svg">
<path d="M3.97875 47.3873H47.7088C47.7917 47.3886 47.874 47.3734 47.951 47.3426C48.028 47.3118 48.0981 47.266 48.1572 47.2078C48.2163 47.1496 48.2632 47.0803 48.2952 47.0038C48.3273 46.9273 48.3438 46.8452 48.3438 46.7623V44.1323C48.3438 43.9665 48.2779 43.8076 48.1607 43.6904C48.0435 43.5732 47.8845 43.5073 47.7188 43.5073H46.4188V26.2223H47.7188C47.8352 26.2237 47.9496 26.192 48.0487 26.131C48.1479 26.0699 48.2276 25.9819 48.2788 25.8773C48.3312 25.7735 48.3534 25.657 48.3428 25.5412C48.3322 25.4254 48.2892 25.3149 48.2188 25.2223L44.2887 19.9773C44.2305 19.8997 44.155 19.8367 44.0683 19.7933C43.9815 19.7499 43.8858 19.7273 43.7887 19.7273H34.2887V17.2723L36.0337 18.4423C36.1717 18.5345 36.3405 18.5681 36.5032 18.5357C36.6659 18.5034 36.8091 18.4077 36.9012 18.2698C36.9934 18.1319 37.027 17.963 36.9947 17.8003C36.9623 17.6376 36.8667 17.4945 36.7287 17.4023L34.1387 15.6623C34.1024 15.6219 34.0622 15.585 34.0187 15.5523L26.4287 10.4623V9.8673H30.9287C31.0945 9.8673 31.2535 9.80146 31.3707 9.68425C31.4879 9.56704 31.5537 9.40806 31.5537 9.2423V5.6673C31.5537 5.50154 31.4879 5.34257 31.3707 5.22536C31.2535 5.10815 31.0945 5.0423 30.9287 5.0423H26.4287V4.8623C26.4287 4.69654 26.3629 4.53757 26.2457 4.42036C26.1285 4.30315 25.9695 4.2373 25.8037 4.2373C25.638 4.2373 25.479 4.30315 25.3618 4.42036C25.2446 4.53757 25.1787 4.69654 25.1787 4.8623V10.4973L15.1788 17.4073C15.0422 17.5015 14.9486 17.646 14.9186 17.8092C14.8886 17.9723 14.9246 18.1407 15.0188 18.2773C15.1129 18.4139 15.2575 18.5075 15.4206 18.5375C15.5838 18.5675 15.7522 18.5315 15.8888 18.4373L17.6238 17.2373V19.7373H7.89875C7.80172 19.7373 7.70603 19.7599 7.61924 19.8033C7.53246 19.8467 7.45697 19.9097 7.39875 19.9873L3.47875 25.2223C3.40832 25.3149 3.36534 25.4254 3.35473 25.5412C3.34412 25.657 3.36631 25.7735 3.41875 25.8773C3.46986 25.9819 3.54962 26.0699 3.64875 26.131C3.74789 26.192 3.86232 26.2237 3.97875 26.2223H5.19875V43.5073H3.97875C3.89584 43.506 3.81349 43.5212 3.7365 43.552C3.65951 43.5828 3.58943 43.6286 3.53033 43.6868C3.47123 43.745 3.4243 43.8143 3.39226 43.8908C3.36023 43.9673 3.34374 44.0494 3.34375 44.1323V46.7623C3.34374 46.8452 3.36023 46.9273 3.39226 47.0038C3.4243 47.0803 3.47123 47.1496 3.53033 47.2078C3.58943 47.266 3.65951 47.3118 3.7365 47.3426C3.81349 47.3734 3.89584 47.3886 3.97875 47.3873V47.3873ZM45.1587 43.5073H34.2938V26.2223H45.1587V43.5073ZM43.4738 20.9773L46.4738 24.9773H34.2938V20.9773H43.4738ZM33.0438 43.5073H29.9037V36.1573C29.9038 35.366 29.5911 34.6067 29.0339 34.0448C28.4767 33.4829 27.7201 33.1639 26.9287 33.1573H24.8838C24.0881 33.1573 23.325 33.4734 22.7624 34.036C22.1998 34.5986 21.8838 35.3617 21.8838 36.1573V43.5073H18.8687V16.4023L25.8438 11.5923L33.0438 16.4323V43.5073ZM26.9287 34.4273C27.3867 34.4286 27.8255 34.6115 28.1488 34.9358C28.4722 35.2601 28.6538 35.6993 28.6537 36.1573V43.5073H26.5837V34.4273H26.9287ZM25.3438 43.5073H23.1537V36.1573C23.1537 35.6985 23.336 35.2584 23.6605 34.934C23.9849 34.6096 24.4249 34.4273 24.8838 34.4273H25.3438V43.5073ZM30.2987 6.3123V8.6373H26.4287V6.3123H30.2987ZM8.21375 20.9773H17.6187V24.9773H5.22375L8.21375 20.9773ZM6.44875 26.2223H17.6187V43.5073H6.44875V26.2223ZM4.60375 44.7573H18.1838C18.2037 44.7596 18.2238 44.7596 18.2437 44.7573H33.6688C33.6887 44.7596 33.7088 44.7596 33.7287 44.7573H47.0838V46.1373H4.58375L4.60375 44.7573ZM21.6588 20.3523C21.6588 21.2028 21.9109 22.0341 22.3834 22.7413C22.8559 23.4484 23.5275 23.9995 24.3132 24.325C25.0989 24.6504 25.9635 24.7356 26.7976 24.5697C27.6318 24.4038 28.3979 23.9942 28.9993 23.3929C29.6007 22.7915 30.0102 22.0253 30.1761 21.1912C30.342 20.3571 30.2569 19.4925 29.9314 18.7068C29.606 17.921 29.0548 17.2495 28.3477 16.777C27.6406 16.3045 26.8092 16.0523 25.9587 16.0523C24.8183 16.0523 23.7246 16.5053 22.9182 17.3117C22.1118 18.1182 21.6588 19.2119 21.6588 20.3523V20.3523ZM29.0037 20.3523C29.0057 20.9562 28.8284 21.547 28.4943 22.05C28.1601 22.553 27.6842 22.9455 27.1267 23.1777C26.5693 23.41 25.9555 23.4715 25.363 23.3545C24.7706 23.2376 24.2262 22.9474 23.7989 22.5207C23.3715 22.0941 23.0804 21.5502 22.9625 20.9579C22.8446 20.3657 22.9051 19.7518 23.1364 19.194C23.3677 18.6362 23.7594 18.1596 24.2619 17.8246C24.7643 17.4896 25.3549 17.3113 25.9587 17.3123C26.7655 17.3123 27.5392 17.6324 28.1101 18.2024C28.681 18.7724 29.0024 19.5456 29.0037 20.3523V20.3523ZM25.9587 17.6823C26.0412 17.6823 26.1229 17.6986 26.1991 17.7304C26.2752 17.7621 26.3444 17.8086 26.4025 17.8671C26.4606 17.9257 26.5065 17.9952 26.5376 18.0716C26.5687 18.148 26.5844 18.2298 26.5837 18.3123V19.7323H27.2887C27.4545 19.7323 27.6135 19.7982 27.7307 19.9154C27.8479 20.0326 27.9137 20.1915 27.9137 20.3573C27.9137 20.5231 27.8479 20.682 27.7307 20.7992C27.6135 20.9165 27.4545 20.9823 27.2887 20.9823H25.9587C25.7939 20.9797 25.6367 20.912 25.5215 20.794C25.4063 20.676 25.3424 20.5172 25.3438 20.3523V18.3123C25.3424 18.1474 25.4063 17.9886 25.5215 17.8706C25.6367 17.7526 25.7939 17.6849 25.9587 17.6823V17.6823ZM29.2987 27.4873C29.2987 27.6531 29.2329 27.812 29.1157 27.9292C28.9985 28.0465 28.8395 28.1123 28.6737 28.1123H23.0138C22.848 28.1123 22.689 28.0465 22.5718 27.9292C22.4546 27.812 22.3888 27.6531 22.3888 27.4873C22.3888 27.3215 22.4546 27.1626 22.5718 27.0454C22.689 26.9282 22.848 26.8623 23.0138 26.8623H28.6737C28.756 26.8616 28.8376 26.8773 28.9137 26.9085C28.9898 26.9397 29.059 26.9857 29.1172 27.0439C29.1753 27.102 29.2214 27.1712 29.2525 27.2473C29.2837 27.3235 29.2994 27.405 29.2987 27.4873V27.4873ZM29.2987 30.5373C29.2987 30.7031 29.2329 30.862 29.1157 30.9792C28.9985 31.0965 28.8395 31.1623 28.6737 31.1623H23.0138C22.848 31.1623 22.689 31.0965 22.5718 30.9792C22.4546 30.862 22.3888 30.7031 22.3888 30.5373C22.3888 30.3715 22.4546 30.2126 22.5718 30.0954C22.689 29.9782 22.848 29.9123 23.0138 29.9123H28.6737C28.8395 29.9123 28.9985 29.9782 29.1157 30.0954C29.2329 30.2126 29.2987 30.3715 29.2987 30.5373V30.5373ZM36.2238 41.1823H43.2238C43.3895 41.1823 43.5485 41.1165 43.6657 40.9992C43.7829 40.882 43.8488 40.7231 43.8488 40.5573C43.8488 40.3915 43.7829 40.2326 43.6657 40.1154C43.5485 39.9982 43.3895 39.9323 43.2238 39.9323H42.6937V30.1723C42.6937 30.0065 42.6279 29.8476 42.5107 29.7304C42.3935 29.6132 42.2345 29.5473 42.0687 29.5473H37.3838C37.218 29.5473 37.059 29.6132 36.9418 29.7304C36.8246 29.8476 36.7588 30.0065 36.7588 30.1723V39.9323H36.2238C36.058 39.9323 35.899 39.9982 35.7818 40.1154C35.6646 40.2326 35.5988 40.3915 35.5988 40.5573C35.5988 40.7231 35.6646 40.882 35.7818 40.9992C35.899 41.1165 36.058 41.1823 36.2238 41.1823ZM38.0088 30.8123H41.4437V39.9323H38.0088V30.8123ZM15.4637 39.9323H14.9288V30.1723C14.9288 30.0065 14.8629 29.8476 14.7457 29.7304C14.6285 29.6132 14.4695 29.5473 14.3038 29.5473H9.61875C9.45299 29.5473 9.29402 29.6132 9.17681 29.7304C9.0596 29.8476 8.99375 30.0065 8.99375 30.1723V39.9323H8.45875C8.29299 39.9323 8.13402 39.9982 8.01681 40.1154C7.8996 40.2326 7.83375 40.3915 7.83375 40.5573C7.83375 40.7231 7.8996 40.882 8.01681 40.9992C8.13402 41.1165 8.29299 41.1823 8.45875 41.1823H15.4587C15.6245 41.1823 15.7835 41.1165 15.9007 40.9992C16.0179 40.882 16.0837 40.7231 16.0837 40.5573C16.0837 40.3915 16.0179 40.2326 15.9007 40.1154C15.7835 39.9982 15.6245 39.9323 15.4587 39.9323H15.4637ZM10.2437 39.9323V30.8123H13.6788V39.9323H10.2437Z" fill="black"/>
</svg>
