<svg width="50" height="50" viewBox="0 0 50 50" fill="none" xmlns="http://www.w3.org/2000/svg">
<path d="M37.0435 16.0266L28.2393 7.22246C28.6639 6.58516 28.892 5.84053 28.892 5.06494C28.892 2.91875 27.1461 1.17285 24.9999 1.17285C22.8538 1.17285 21.1079 2.91875 21.1079 5.06494C21.1079 5.84053 21.3361 6.58506 21.7606 7.22246L12.9564 16.0267H0V48.8276H50V16.0266H37.0435ZM25 2.70283C26.3024 2.70283 27.3622 3.7625 27.3622 5.06504C27.3622 5.68965 27.1169 6.28311 26.6715 6.73662C26.218 7.18193 25.6246 7.42725 25 7.42725C24.3754 7.42725 23.7819 7.18203 23.3285 6.73662C22.8831 6.28311 22.6379 5.68975 22.6379 5.06514C22.6379 3.7625 23.6976 2.70283 25 2.70283ZM22.8425 8.3042C23.4798 8.72881 24.2244 8.95693 24.9999 8.95693C25.7754 8.95693 26.52 8.72871 27.1574 8.3042L34.8799 16.0267H15.1202L22.8425 8.3042ZM48.4701 47.2977H1.52988V17.5565H48.47V47.2977H48.4701Z" fill="black"/>
<path d="M4.6875 28.518C4.6875 31.095 6.78418 33.1918 9.36143 33.1918H14.0521C15.7856 33.1918 17.196 34.6021 17.196 36.3356C17.196 37.1698 16.8674 37.9578 16.2708 38.5544C15.6741 39.151 14.8862 39.4796 14.0521 39.4796H9.36143C7.62783 39.4796 6.21748 38.0692 6.21748 36.3356H4.6875C4.6875 38.9129 6.78418 41.0096 9.36143 41.0096H14.0521C15.2949 41.0096 16.4671 40.5219 17.3526 39.6363C18.2383 38.7507 18.7259 37.5786 18.7259 36.3357C18.7259 33.7585 16.6292 31.6619 14.052 31.6619H9.36143C7.62783 31.6619 6.21748 30.2516 6.21748 28.5181C6.21748 27.6839 6.54609 26.8959 7.14268 26.2994C7.73935 25.7027 8.52725 25.3742 9.36143 25.3742H14.0521C15.7856 25.3742 17.196 26.7846 17.196 28.5181H18.7259C18.7259 25.9408 16.6292 23.8442 14.052 23.8442H9.36143C8.11865 23.8442 6.94639 24.3318 6.06084 25.2175C5.1752 26.1029 4.6875 27.2751 4.6875 28.518Z" fill="black"/>
<path d="M29.6926 23.8442H20.3281V33.2088V33.9737V41.0265H21.858V33.9737H29.6925C30.6972 33.9737 31.2393 33.1768 31.2393 32.427V25.3909C31.2394 24.3863 30.4425 23.8442 29.6926 23.8442ZM29.6926 25.3741C29.6926 25.3741 29.688 25.3744 29.6798 25.3741H29.6926ZM29.7094 32.4269C29.7094 32.4269 29.7091 32.4224 29.7094 32.4141V32.4269ZM29.7094 32.4108C29.7084 32.4208 29.7062 32.4325 29.7033 32.4436C29.7 32.4437 29.6964 32.4437 29.6925 32.4437H21.858V25.374H29.6765C29.6864 25.375 29.6981 25.3772 29.7092 25.3801C29.7093 25.3834 29.7093 25.387 29.7093 25.3909V32.4108H29.7094Z" fill="black"/>
<path d="M32.8359 26.1728V41.0265H34.3658V32.4102H43.7809V41.0265H45.3107V26.1728C45.3107 24.4645 43.9182 23.8442 42.9822 23.8442H35.1646C33.4562 23.8443 32.8359 25.2368 32.8359 26.1728ZM43.451 25.5041C43.6142 25.5938 43.781 25.7433 43.781 26.1729V30.8803H34.3659V26.1729C34.3659 26.1708 34.3764 25.9418 34.4807 25.7333C34.5694 25.5559 34.72 25.3744 35.1646 25.3744H42.9735C42.976 25.3742 43.2283 25.3817 43.451 25.5041Z" fill="black"/>
<path d="M4.65488 20.6838H7.01699V19.1538H3.125V23.0459H4.65488V20.6838Z" fill="black"/>
<path d="M45.3465 23.0459H46.8764V19.1538H42.9844V20.6838H45.3465V23.0459Z" fill="black"/>
<path d="M45.3465 44.1707H42.9844V45.7006H46.8764V41.8086H45.3465V44.1707Z" fill="black"/>
<path d="M7.01699 44.1707H4.65488V41.8086H3.125V45.7006H7.01699V44.1707Z" fill="black"/>
<path d="M37.5095 19.1538H12.4922V20.6837H37.5095V19.1538Z" fill="black"/>
<path d="M25.7823 44.1699H24.2188V45.6998H25.7823V44.1699Z" fill="black"/>
<path d="M28.9073 44.1699H27.3438V45.6998H28.9073V44.1699Z" fill="black"/>
<path d="M22.6573 44.1699H21.0938V45.6998H22.6573V44.1699Z" fill="black"/>
<path d="M25.7823 4.30029H24.2188V5.83018H25.7823V4.30029Z" fill="black"/>
</svg>
