<svg width="50" height="50" viewBox="0 0 50 50" fill="none" xmlns="http://www.w3.org/2000/svg">
<path d="M46.875 14.0625H45.5098L27.3164 4.2666C27.3344 4.14732 27.3435 4.02688 27.3438 3.90625C27.3438 3.28465 27.0968 2.68851 26.6573 2.24897C26.2177 1.80943 25.6216 1.5625 25 1.5625C24.3784 1.5625 23.7823 1.80943 23.3427 2.24897C22.9032 2.68851 22.6563 3.28465 22.6562 3.90625C22.6565 4.02688 22.6656 4.14732 22.6836 4.2666L4.49023 14.0625H3.125C2.50365 14.0633 1.90799 14.3105 1.46863 14.7499C1.02927 15.1892 0.782077 15.7849 0.78125 16.4062V46.0938C0.782077 46.7151 1.02927 47.3108 1.46863 47.7501C1.90799 48.1895 2.50365 48.4367 3.125 48.4375H46.875C47.4963 48.4367 48.092 48.1895 48.5314 47.7501C48.9707 47.3108 49.2179 46.7151 49.2188 46.0938V16.4062C49.2179 15.7849 48.9707 15.1892 48.5314 14.7499C48.092 14.3105 47.4963 14.0633 46.875 14.0625V14.0625ZM25 3.125C25.1545 3.125 25.3056 3.17082 25.434 3.25666C25.5625 3.34251 25.6626 3.46452 25.7218 3.60728C25.7809 3.75003 25.7964 3.90712 25.7662 4.05866C25.7361 4.21021 25.6617 4.34942 25.5524 4.45868C25.4432 4.56794 25.304 4.64234 25.1524 4.67249C25.0009 4.70263 24.8438 4.68716 24.701 4.62803C24.5583 4.5689 24.4363 4.46877 24.3504 4.34029C24.2646 4.21181 24.2188 4.06077 24.2188 3.90625C24.219 3.69914 24.3014 3.50059 24.4479 3.35414C24.5943 3.20769 24.7929 3.12528 25 3.125V3.125ZM23.4258 5.6416C23.8566 6.03309 24.4179 6.25 25 6.25C25.5821 6.25 26.1434 6.03309 26.5742 5.6416L42.2139 14.0625H7.78613L23.4258 5.6416ZM46.5518 15.625L44.9893 17.1875H5.01074L3.44824 15.625H46.5518ZM20.6504 38.2559L30.4688 25.5L44.5176 43.75H24.6182L20.6504 38.2559ZM22.6904 43.75H5.46875V43.7021L14.0625 31.8027L22.6904 43.75ZM31.0879 23.7422C31.0149 23.6474 30.9211 23.5706 30.8138 23.5177C30.7065 23.4649 30.5884 23.4374 30.4688 23.4374C30.3491 23.4374 30.231 23.4649 30.1237 23.5177C30.0164 23.5706 29.9226 23.6474 29.8496 23.7422L19.6953 36.9336L14.6963 30.0117C14.6239 29.9113 14.5287 29.8295 14.4185 29.7731C14.3083 29.7167 14.1863 29.6873 14.0625 29.6873C13.9387 29.6873 13.8167 29.7167 13.7065 29.7731C13.5963 29.8295 13.5011 29.9113 13.4287 30.0117L5.46875 41.0332V18.75H44.5312V41.2061L31.0879 23.7422ZM2.34375 45.7705V16.7295L3.90625 18.292V44.208L2.34375 45.7705ZM3.44824 46.875L5.01074 45.3125H44.9893L46.5518 46.875H3.44824ZM47.6562 45.7705L46.0938 44.208V18.292L47.6562 16.7295V45.7705Z" fill="black"/>
<path d="M14.0625 28.125C14.8351 28.125 15.5903 27.8959 16.2327 27.4667C16.8751 27.0375 17.3757 26.4274 17.6714 25.7136C17.9671 24.9998 18.0444 24.2144 17.8937 23.4567C17.743 22.6989 17.3709 22.0029 16.8246 21.4566C16.2783 20.9103 15.5823 20.5383 14.8246 20.3876C14.0668 20.2368 13.2814 20.3142 12.5676 20.6098C11.8539 20.9055 11.2438 21.4062 10.8146 22.0486C10.3853 22.6909 10.1563 23.4462 10.1562 24.2188C10.1574 25.2544 10.5693 26.2473 11.3016 26.9796C12.034 27.7119 13.0269 28.1238 14.0625 28.125ZM14.0625 21.875C14.526 21.875 14.9792 22.0125 15.3646 22.27C15.75 22.5275 16.0504 22.8936 16.2278 23.3218C16.4052 23.7501 16.4516 24.2214 16.3612 24.676C16.2708 25.1306 16.0476 25.5483 15.7198 25.876C15.392 26.2038 14.9744 26.427 14.5197 26.5175C14.0651 26.6079 13.5939 26.5615 13.1656 26.3841C12.7373 26.2067 12.3713 25.9063 12.1137 25.5209C11.8562 25.1354 11.7188 24.6823 11.7188 24.2188C11.7195 23.5974 11.9666 23.0017 12.406 22.5623C12.8454 22.1229 13.4411 21.8757 14.0625 21.875V21.875Z" fill="black"/>
</svg>
