<svg width="51" height="51" viewBox="0 0 51 51" fill="none" xmlns="http://www.w3.org/2000/svg">
<path d="M11.1894 38.9139H22.8984V48.6314C22.8984 49.0459 23.2339 49.3814 23.6484 49.3814H28.0369C28.4514 49.3814 28.7869 49.0459 28.7869 48.6314V38.9139H40.4959C41.9814 38.9139 43.2314 38.1583 43.6804 36.9888C44.0479 36.0318 43.7779 35.0199 42.9589 34.2814L35.3174 27.3949H36.6969C37.8099 27.3949 38.7879 26.7804 39.1879 25.8299C39.5489 24.9719 39.3564 24.0124 38.6854 23.3264L33.1974 17.7154H33.8829C34.7419 17.7154 35.4979 17.2299 35.8564 16.4489C36.2144 15.6679 36.0879 14.7784 35.5269 14.1274L27.4869 4.80085C27.0739 4.32185 26.4749 4.04785 25.8429 4.04785C25.2109 4.04785 24.6119 4.32235 24.1989 4.80085L16.1584 14.1269C15.5974 14.7779 15.4709 15.6674 15.8289 16.4484C16.1869 17.2294 16.9434 17.7149 17.8024 17.7149H18.4879L12.9999 23.3259C12.3289 24.0119 12.1364 24.9714 12.4974 25.8294C12.8974 26.7804 13.8754 27.3944 14.9884 27.3944H16.3679L8.72642 34.2808C7.90692 35.0193 7.63742 36.0313 8.00492 36.9883C8.45392 38.1578 9.70392 38.9134 11.1894 38.9134V38.9139ZM9.73092 35.3959L18.8229 27.2019C19.0534 26.9939 19.1324 26.6654 19.0209 26.3759C18.9094 26.0864 18.6314 25.8949 18.3209 25.8949H14.9889C14.3719 25.8949 14.0064 25.5464 13.8809 25.2479C13.8064 25.0709 13.7324 24.7229 14.0729 24.3749L20.8074 17.4894C21.0184 17.2734 21.0794 16.9524 20.9629 16.6744C20.8459 16.3959 20.5734 16.2154 20.2714 16.2154H17.8034C17.4039 16.2154 17.2359 15.9159 17.1939 15.8244C17.1519 15.7324 17.0349 15.4094 17.2959 15.1069L25.3349 5.78035C25.5094 5.57785 25.7279 5.54785 25.8429 5.54785C25.9579 5.54785 26.1764 5.57835 26.3509 5.78035L34.3914 15.1064C34.6519 15.4089 34.5354 15.7319 34.4934 15.8239C34.4514 15.9154 34.2834 16.2149 33.8839 16.2149H31.4159C31.1139 16.2149 30.8419 16.3959 30.7244 16.6739C30.6074 16.9519 30.6684 17.2734 30.8799 17.4889L37.6144 24.3744C37.9549 24.7224 37.8809 25.0709 37.8064 25.2474C37.6809 25.5459 37.3154 25.8944 36.6984 25.8944H33.3664C33.0559 25.8944 32.7774 26.0854 32.6664 26.3754C32.5554 26.6654 32.6339 26.9939 32.8644 27.2014L41.9559 35.3954C42.3109 35.7154 42.4239 36.0804 42.2814 36.4509C42.0974 36.9299 41.4744 37.4134 40.4974 37.4134H28.0384C27.6239 37.4134 27.2884 37.7489 27.2884 38.1634V47.8809H24.3999V38.1634C24.3999 37.7489 24.0644 37.4134 23.6499 37.4134H11.1894C10.2119 37.4134 9.58892 36.9299 9.40492 36.4509C9.26242 36.0804 9.37542 35.7154 9.73042 35.3954L9.73092 35.3959Z" fill="black"/>
</svg>
