<svg width="50" height="50" viewBox="0 0 50 50" fill="none" xmlns="http://www.w3.org/2000/svg">
<path d="M14.6065 11.4629H13.25V18.9031H17.6644V17.7664H14.6065V11.4629Z" fill="black"/>
<path d="M20.5724 11.4629L18.1875 18.9031H19.5897L20.2291 16.7943H22.5912L23.2657 18.9031H24.7229L22.3043 11.4629H20.5724ZM20.4504 15.7675L21.024 13.9365C21.1568 13.4939 21.2667 12.9751 21.378 12.5448H21.3993C21.5092 12.9751 21.6313 13.4833 21.7747 13.9365L22.3607 15.7675H20.4504Z" fill="black"/>
<path d="M31.3139 11.4629H29.637L27.693 14.0797C27.5175 14.333 27.3299 14.5985 27.1528 14.8854H27.1193V11.4629H25.7734V18.9031H27.1193V16.2863L27.7815 15.4928L29.8903 18.9031H31.4803L28.7535 14.6306L31.3139 11.4629Z" fill="black"/>
<path d="M33.5597 15.6027H36.3642V14.4979H33.5597V12.5783H36.5305V11.4629H32.2031V18.9031H36.6953V17.7877H33.5597V15.6027Z" fill="black"/>
<path d="M45.5231 4.14648H4.47694C2.00806 4.14648 0 6.15455 0 8.62342V21.7857C0 24.2545 2.00806 26.2626 4.47694 26.2626H23.4451V42.7299H18.75V45.8549H31.25V42.7299H26.5701V26.2626H45.5231C47.9919 26.2626 50 24.2545 50 21.7857V8.62342C50 6.15455 47.9919 4.14648 45.5231 4.14648ZM46.875 21.7857C46.875 22.5318 46.2692 23.1376 45.5231 23.1376H4.47694C3.73082 23.1376 3.125 22.5319 3.125 21.7857V8.62342C3.125 7.8773 3.73082 7.27148 4.47694 7.27148H45.5231C46.2692 7.27148 46.875 7.8773 46.875 8.62342V21.7857Z" fill="black"/>
</svg>
