<svg width="50" height="50" viewBox="0 0 50 50" fill="none" xmlns="http://www.w3.org/2000/svg">
<path d="M48.5628 29.7943L40.5779 19.9275C38.5538 17.4219 37.2111 14.436 36.6801 11.259C36.2392 8.50298 34.826 5.99589 32.6965 4.19165C30.5669 2.38741 27.8618 1.40529 25.0707 1.42309L24.9891 1.42348C22.1404 1.42663 19.388 2.45491 17.2351 4.32034C15.0822 6.18577 13.6726 8.76373 13.2639 11.5829C12.7646 14.5534 11.5074 17.3448 9.614 19.6875L1.43533 29.7943C1.21108 30.0716 1.05307 30.3964 0.973357 30.7441C0.89364 31.0917 0.894312 31.453 0.975321 31.8003C1.05633 32.1476 1.21554 32.4719 1.44082 32.7484C1.66611 33.0249 1.95152 33.2463 2.27533 33.3958L8.55814 36.2968C8.7135 36.3689 8.84096 36.4898 8.92101 36.6412C9.00105 36.7926 9.02927 36.966 9.00135 37.135L7.66627 45.1382C7.60705 45.4719 7.62251 45.8147 7.71155 46.1417C7.80058 46.4688 7.96097 46.7721 8.18119 47.0298C8.56728 47.4755 9.10456 47.7627 9.68964 47.8361C10.2747 47.9094 10.8663 47.7639 11.3505 47.4273C14.5614 45.0829 18.606 45.0702 21.4549 47.4232C22.4847 48.1732 23.726 48.5772 25 48.5771C26.274 48.5769 27.5152 48.1727 28.5449 47.4224C30.0101 46.3502 31.7786 45.7724 33.5942 45.7726C35.4099 45.7729 37.1782 46.3512 38.6431 47.4239C39.0172 47.701 39.4664 47.8584 39.9316 47.8752C40.3968 47.8921 40.8562 47.7678 41.2493 47.5185C41.6459 47.2749 41.9608 46.9184 42.1536 46.4948C42.3465 46.0712 42.4086 45.5997 42.3319 45.1406V45.139L40.9968 37.1361C40.9691 36.967 40.9975 36.7936 41.0775 36.6421C41.1575 36.4907 41.2848 36.3695 41.44 36.2971L47.7228 33.3961C48.0466 33.2466 48.3321 33.0252 48.5573 32.7487C48.7826 32.4722 48.9418 32.1479 49.0228 31.8006C49.1038 31.4533 49.1045 31.092 49.0248 30.7444C48.9451 30.3968 48.7871 30.0716 48.5628 29.7943ZM47.5016 31.4457C47.475 31.5617 47.4221 31.67 47.347 31.7623C47.2718 31.8545 47.1764 31.9283 47.0682 31.9778L40.7854 34.8789C40.3197 35.0951 39.9376 35.4579 39.6974 35.9118C39.4573 36.3657 39.3724 36.8857 39.4556 37.3924L40.7908 45.396C40.8156 45.5488 40.7946 45.7055 40.7305 45.8464C40.6663 45.9873 40.5619 46.1061 40.4304 46.1877C40.2989 46.2694 40.1462 46.3103 39.9914 46.3053C39.8367 46.3004 39.6869 46.2497 39.561 46.1597C37.8295 44.8924 35.7395 44.2091 33.5937 44.209C31.448 44.2088 29.3579 44.8918 27.6263 46.1589C26.8706 46.7117 25.96 47.0121 25.0238 47.0175C24.0876 47.023 23.1735 46.7331 22.4116 46.1891C20.7672 44.826 18.6964 44.0837 16.5606 44.0918C14.3498 44.1138 12.2034 44.8394 10.4327 46.1632C10.2713 46.2787 10.072 46.3283 9.87535 46.3018C9.67869 46.2754 9.49954 46.1749 9.37447 46.0208C9.30146 45.9359 9.24852 45.8356 9.21959 45.7274C9.19066 45.6192 9.18648 45.5059 9.20736 45.3958L10.5425 37.3922C10.6262 36.8855 10.5414 36.3653 10.3012 35.9114C10.0611 35.4574 9.67872 35.0947 9.21275 34.8787L2.92994 31.9776C2.82195 31.9278 2.72676 31.854 2.65163 31.7618C2.57649 31.6696 2.5234 31.5615 2.49639 31.4456C2.46939 31.3298 2.46918 31.2094 2.49579 31.0934C2.5224 30.9775 2.57512 30.8692 2.64994 30.7768L10.8286 20.6703C12.8901 18.121 14.2592 15.0832 14.8038 11.8504C15.1558 9.3948 16.3796 7.1479 18.2516 5.52028C20.1236 3.89266 22.5188 2.99301 24.9995 2.98575C25.0229 2.98535 25.0475 2.98535 25.0712 2.98535C28.9675 2.98535 33.9149 5.22536 35.1427 11.5372C35.7201 14.9725 37.1737 18.2008 39.3633 20.9102L47.3482 30.7769C47.4233 30.8692 47.4761 30.9775 47.5027 31.0935C47.5293 31.2094 47.5289 31.3299 47.5016 31.4457Z" fill="black"/>
<path d="M20.3125 9.97021C18.589 9.97021 17.1875 11.7227 17.1875 13.8765C17.1875 16.0302 18.589 17.7827 20.3125 17.7827C22.036 17.7827 23.4375 16.0302 23.4375 13.8765C23.4375 11.7227 22.0359 9.97021 20.3125 9.97021ZM20.3125 16.2202C19.4656 16.2202 18.75 15.1468 18.75 13.8765C18.75 12.6062 19.4656 11.5327 20.3125 11.5327C21.1594 11.5327 21.875 12.6062 21.875 13.8765C21.875 15.1468 21.1594 16.2202 20.3125 16.2202Z" fill="black"/>
<path d="M29.6875 9.97021C27.964 9.97021 26.5625 11.7227 26.5625 13.8765C26.5625 16.0302 27.964 17.7827 29.6875 17.7827C31.411 17.7827 32.8125 16.0302 32.8125 13.8765C32.8125 11.7227 31.4109 9.97021 29.6875 9.97021ZM29.6875 16.2202C28.8406 16.2202 28.125 15.1468 28.125 13.8765C28.125 12.6062 28.8406 11.5327 29.6875 11.5327C30.5344 11.5327 31.25 12.6062 31.25 13.8765C31.25 15.1468 30.5344 16.2202 29.6875 16.2202Z" fill="black"/>
<path d="M13.5103 31.2931L10.7525 34.0509C10.6799 34.1234 10.6223 34.2095 10.583 34.3043C10.5437 34.399 10.5235 34.5006 10.5234 34.6032C10.5234 34.7058 10.5436 34.8074 10.5828 34.9022C10.622 34.997 10.6795 35.0832 10.7521 35.1558C10.8246 35.2283 10.9107 35.2859 11.0054 35.3252C11.1002 35.3645 11.2018 35.3848 11.3044 35.3848C11.407 35.3848 11.5086 35.3647 11.6034 35.3254C11.6982 35.2862 11.7844 35.2287 11.8569 35.1562L14.6147 32.3984C14.6894 32.3263 14.7489 32.2401 14.7898 32.1448C14.8308 32.0495 14.8523 31.9469 14.8532 31.8432C14.8541 31.7395 14.8344 31.6366 14.7951 31.5406C14.7558 31.4446 14.6978 31.3574 14.6244 31.284C14.5511 31.2106 14.4638 31.1526 14.3678 31.1134C14.2718 31.0741 14.1689 31.0543 14.0652 31.0552C13.9615 31.0561 13.859 31.0777 13.7636 31.1186C13.6683 31.1595 13.5821 31.2191 13.5101 31.2937L13.5103 31.2931Z" fill="black"/>
<path d="M36.4881 31.293C36.3407 31.1507 36.1434 31.072 35.9385 31.0738C35.7337 31.0755 35.5377 31.1577 35.3929 31.3026C35.248 31.4474 35.1659 31.6434 35.1641 31.8482C35.1623 32.053 35.2411 32.2504 35.3834 32.3977L38.1406 35.1562C38.2128 35.2305 38.299 35.2898 38.3942 35.3305C38.4895 35.3712 38.5919 35.3926 38.6955 35.3934C38.7991 35.3942 38.9018 35.3744 38.9976 35.3351C39.0935 35.2958 39.1806 35.2378 39.2538 35.1646C39.3271 35.0913 39.385 35.0042 39.4243 34.9084C39.4636 34.8125 39.4834 34.7098 39.4826 34.6062C39.4818 34.5026 39.4604 34.4002 39.4197 34.305C39.379 34.2097 39.3197 34.1235 39.2453 34.0514L36.4881 31.293Z" fill="black"/>
</svg>
