<svg width="50" height="50" viewBox="0 0 50 50" fill="none" xmlns="http://www.w3.org/2000/svg">
<path d="M47.8619 9.40222L39.5806 7.14362L36.6158 1.953C36.5646 1.86382 36.4963 1.78561 36.4149 1.72287C36.3334 1.66012 36.2404 1.61408 36.1411 1.58737C36.0418 1.56066 35.9382 1.55381 35.8363 1.56722C35.7343 1.58062 35.636 1.61402 35.547 1.6655L24.9869 7.70144L16.4064 3.12487H28.1252C28.3324 3.12487 28.5311 3.04256 28.6776 2.89605C28.8241 2.74954 28.9064 2.55082 28.9064 2.34362C28.9064 2.13642 28.8241 1.93771 28.6776 1.7912C28.5311 1.64468 28.3324 1.56237 28.1252 1.56237H13.2814C13.1936 1.56781 13.1066 1.58274 13.022 1.6069C12.9201 1.64279 12.8267 1.69943 12.7477 1.77326C12.6688 1.84708 12.6061 1.93649 12.5634 2.03581L10.3681 7.15769L2.13844 9.40222C1.93849 9.45671 1.76838 9.5884 1.66553 9.76832C1.56267 9.94824 1.53551 10.1616 1.59 10.3616C1.64449 10.5615 1.77618 10.7317 1.9561 10.8345C2.13602 10.9374 2.34943 10.9645 2.54937 10.91L10.6377 8.70378L18.1306 18.4452C18.2036 18.54 18.2975 18.6168 18.4049 18.6697C18.5123 18.7225 18.6304 18.7499 18.7502 18.7499H18.7767C18.9011 18.7459 19.0226 18.7122 19.1313 18.6518C19.24 18.5913 19.3327 18.5057 19.4017 18.4022L20.6517 16.5311L17.1986 42.0827C17.1802 42.2183 17.1977 42.3563 17.2494 42.483C17.3011 42.6097 17.3851 42.7206 17.4931 42.8046L24.5244 48.2733C24.6615 48.38 24.8303 48.4379 25.0041 48.4379C25.1778 48.4379 25.3466 48.38 25.4837 48.2733L32.515 42.8046C32.623 42.7206 32.7071 42.6097 32.7587 42.483C32.8104 42.3563 32.8279 42.2183 32.8095 42.0827L29.3525 16.5311L30.6025 18.4022C30.6715 18.5057 30.7642 18.5913 30.8729 18.6518C30.9816 18.7122 31.1032 18.7459 31.2275 18.7499H31.2502C31.3699 18.7499 31.488 18.7225 31.5954 18.6697C31.7028 18.6168 31.7967 18.54 31.8697 18.4452L39.3627 8.70378L47.4509 10.91C47.6509 10.9645 47.8643 10.9374 48.0442 10.8345C48.2241 10.7317 48.3558 10.5615 48.4103 10.3616C48.4648 10.1616 48.4376 9.94824 48.3348 9.76832C48.2319 9.5884 48.0618 9.45671 47.8619 9.40222ZM18.7048 16.628L11.8361 7.69909L13.6642 3.43347L23.872 8.87722L18.7048 16.628ZM25.0002 46.6663L18.8033 41.8467L21.9752 18.3741L23.7416 19.0632C24.5981 19.3971 25.5449 19.4187 26.4158 19.1241L28.0509 18.5694L31.197 41.8507L25.0002 46.6663ZM27.8384 16.9913L25.915 17.6436C25.3921 17.8213 24.8232 17.8085 24.3088 17.6077L22.1877 16.7803L22.622 13.5639L25.0002 9.99987L27.3752 13.5616L27.8384 16.9913ZM31.2955 16.628L26.115 8.8569L35.6462 3.40925L38.1252 7.74831L31.2955 16.628Z" fill="black"/>
<path d="M41.3451 46.875C41.2224 46.875 41.1014 46.8461 40.992 46.7906L36.3686 44.4469C36.1928 44.3485 36.0618 44.1861 36.0029 43.9935C35.944 43.8009 35.9618 43.593 36.0525 43.4132C36.1432 43.2334 36.2999 43.0955 36.4898 43.0284C36.6797 42.9614 36.8881 42.9702 37.0717 43.0531L41.3467 45.2203L45.3154 43.2641V34.375C45.3154 34.1678 45.3977 33.9691 45.5442 33.8226C45.6908 33.6761 45.8895 33.5938 46.0967 33.5938C46.3039 33.5938 46.5026 33.6761 46.6491 33.8226C46.7956 33.9691 46.8779 34.1678 46.8779 34.375V43.75C46.8784 43.8963 46.8377 44.0397 46.7607 44.164C46.6836 44.2883 46.5732 44.3885 46.442 44.4531L41.6904 46.7969C41.5828 46.849 41.4647 46.8757 41.3451 46.875Z" fill="black"/>
<path d="M47.6562 32.8125H35.9375C35.7303 32.8125 35.5316 32.7302 35.3851 32.5837C35.2386 32.4372 35.1562 32.2385 35.1562 32.0312C35.1562 31.824 35.2386 31.6253 35.3851 31.4788C35.5316 31.3323 35.7303 31.25 35.9375 31.25H46.875V29.6875H34.375C34.1678 29.6875 33.9691 29.6052 33.8226 29.4587C33.6761 29.3122 33.5938 29.1135 33.5938 28.9062C33.5938 28.699 33.6761 28.5003 33.8226 28.3538C33.9691 28.2073 34.1678 28.125 34.375 28.125H47.6562C47.8635 28.125 48.0622 28.2073 48.2087 28.3538C48.3552 28.5003 48.4375 28.699 48.4375 28.9062V32.0312C48.4375 32.2385 48.3552 32.4372 48.2087 32.5837C48.0622 32.7302 47.8635 32.8125 47.6562 32.8125Z" fill="black"/>
<path d="M15.625 46.875H2.34375C2.13655 46.875 1.93784 46.7927 1.79132 46.6462C1.64481 46.4997 1.5625 46.301 1.5625 46.0938V14.8438C1.5625 14.6365 1.64481 14.4378 1.79132 14.2913C1.93784 14.1448 2.13655 14.0625 2.34375 14.0625C2.55095 14.0625 2.74966 14.1448 2.89618 14.2913C3.04269 14.4378 3.125 14.6365 3.125 14.8438V45.3125H15.625C15.8322 45.3125 16.0309 45.3948 16.1774 45.5413C16.3239 45.6878 16.4062 45.8865 16.4062 46.0938C16.4062 46.301 16.3239 46.4997 16.1774 46.6462C16.0309 46.7927 15.8322 46.875 15.625 46.875Z" fill="black"/>
</svg>
