<svg width="50" height="50" viewBox="0 0 50 50" fill="none" xmlns="http://www.w3.org/2000/svg">
<g clip-path="url(#clip0_23715_50495)">
<path d="M26.6722 19.3339C24.8739 19.3339 23.416 17.876 23.416 16.0776C23.416 14.2794 24.8739 12.8215 26.6722 12.8215C28.4705 12.8215 29.9284 14.2794 29.9284 16.0776C29.9284 17.876 28.4705 19.3339 26.6722 19.3339ZM35.8661 13.6736C34.7113 14.1476 33.3556 13.7068 32.7144 12.5965C32.0726 11.4856 32.3694 10.0899 33.3586 9.32832C32.214 8.19394 30.7817 7.34902 29.1811 6.91171C29.0176 8.15156 27.9567 9.108 26.6722 9.108C25.3882 9.108 24.3268 8.15156 24.1633 6.91171C22.5626 7.34902 21.1309 8.19394 19.9863 9.32832C20.975 10.0904 21.2718 11.4856 20.6306 12.5965C19.9892 13.7068 18.633 14.1476 17.4788 13.6736C17.2787 14.4414 17.1719 15.2473 17.1719 16.0776C17.1719 16.9129 17.2796 17.723 17.4822 18.4947C18.6358 18.0223 19.9896 18.4635 20.6306 19.5733C21.2699 20.6813 20.977 22.0718 19.9945 22.8353C21.1381 23.9659 22.568 24.8083 24.1651 25.2441C24.3346 24.0115 25.3929 23.0619 26.6722 23.0619C27.9519 23.0619 29.0099 24.0115 29.1792 25.2441C30.777 24.8083 32.2068 23.9659 33.3504 22.8353C32.368 22.0718 32.0744 20.6813 32.7144 19.5733C33.3552 18.4635 34.7085 18.0223 35.8626 18.4947C36.0652 17.723 36.1729 16.9129 36.1729 16.0776C36.1729 15.2473 36.0661 14.4414 35.8661 13.6736V13.6736Z" stroke="black" stroke-width="1.95312" stroke-miterlimit="10" stroke-linecap="round" stroke-linejoin="round"/>
<path d="M13.1943 41.8337H8.35938L8.35947 28.8757H18.6286L28.5854 32.9969C30.3271 33.7178 31.1477 35.7201 30.4127 37.4558L30.379 37.5355C29.6382 39.2853 27.6614 40.1243 25.9046 39.4466C23.0791 38.3568 19.3735 36.9322 19.3735 36.9322L28.9146 40.6002C30.9269 41.3739 33.1243 41.5301 35.226 41.049L45.001 38.8109C46.7922 38.4008 48.5709 39.5418 48.9448 41.341C49.3021 43.0599 48.2428 44.7554 46.5411 45.1879L34.8775 48.1522C32.6785 48.7112 30.3595 48.5661 28.2471 47.7376L21.3437 45.0299" stroke="black" stroke-width="1.95312" stroke-miterlimit="10" stroke-linecap="round" stroke-linejoin="round"/>
<path d="M8.36094 43.7383H0.96875V26.5726H8.36103L8.36094 43.7383Z" stroke="black" stroke-width="1.95312" stroke-miterlimit="10" stroke-linecap="round" stroke-linejoin="round"/>
<path d="M36.873 26.6299C38.2107 25.3104 39.316 23.7107 40.0896 21.8706C43.2327 14.395 39.7205 5.78691 32.2449 2.64404C24.7694 -0.499032 16.1612 3.01318 13.0183 10.4887C11.6323 13.7851 11.5412 17.3014 12.5125 20.4724" stroke="black" stroke-width="1.95312" stroke-miterlimit="10" stroke-linecap="round" stroke-linejoin="round"/>
<path d="M9.89844 19.4235L12.6515 21.0459L14.4705 18.3911" stroke="black" stroke-width="1.95312" stroke-miterlimit="10" stroke-linecap="round" stroke-linejoin="round"/>
</g>
<defs>
<clipPath id="clip0_23715_50495">
<rect width="50" height="50" fill="white"/>
</clipPath>
</defs>
</svg>
