<svg width="50" height="50" viewBox="0 0 50 50" fill="none" xmlns="http://www.w3.org/2000/svg">
<g clip-path="url(#clip0_23715_49540)">
<path d="M30.8126 33.0558C27.1126 33.0558 23.5904 31.778 20.9682 29.1447C15.1348 23.3114 15.9237 13.0114 22.7459 6.20025C29.5571 -0.610862 39.8571 -1.41086 45.6904 4.42247C51.5237 10.2558 50.7348 20.5558 43.9126 27.3669C40.1571 31.1225 35.3459 33.0558 30.8126 33.0558V33.0558ZM35.8348 1.63358C31.5904 1.63358 27.0571 3.45581 23.5237 6.98914C17.1459 13.3669 16.3459 22.9558 21.7459 28.3669C27.1459 33.7669 36.7348 32.978 43.1237 26.5891C49.5015 20.2114 50.3015 10.6225 44.9015 5.21136C42.4904 2.81136 39.2571 1.63358 35.8348 1.63358V1.63358Z" fill="black"/>
<path d="M30.8133 29.8002C27.9577 29.8002 25.2688 28.8336 23.2799 26.8447C18.7244 22.2891 19.5133 14.0669 25.0577 8.53358C27.7244 5.86691 31.091 4.20025 34.5244 3.8558C38.0021 3.50025 41.1466 4.53358 43.3688 6.7558C45.591 8.97802 46.6244 12.1225 46.2688 15.6002C45.9244 19.0336 44.2577 22.4002 41.591 25.0669C38.4799 28.178 34.5021 29.8002 30.8133 29.8002V29.8002ZM35.8466 4.88913C35.4466 4.88913 35.0466 4.91136 34.6355 4.9558C31.4466 5.27802 28.3244 6.82247 25.8355 9.31136C20.7244 14.4225 19.9355 21.9336 24.0577 26.0558C28.1799 30.178 35.691 29.3891 40.8021 24.278C43.291 21.7891 44.8355 18.6669 45.1577 15.478C45.4799 12.3336 44.5577 9.51136 42.5799 7.53358C40.8577 5.80025 38.5021 4.88913 35.8466 4.88913V4.88913Z" fill="black"/>
<path d="M20.9462 18.4332C20.8017 18.4332 20.6573 18.3777 20.5573 18.2666C20.3351 18.0444 20.3351 17.6999 20.5573 17.4777L34.024 4.02214C34.2462 3.79991 34.5906 3.79991 34.8128 4.02214C35.0351 4.24436 35.0351 4.5888 34.8128 4.81102L21.3351 18.2777C21.2351 18.3777 21.0906 18.4332 20.9462 18.4332V18.4332Z" fill="black"/>
<path d="M21.4852 23.5331C21.3408 23.5331 21.1964 23.4776 21.0964 23.3665C20.8741 23.1442 20.8741 22.7998 21.0964 22.5776L39.1186 4.55534C39.3408 4.33312 39.6852 4.33312 39.9075 4.55534C40.1297 4.77756 40.1297 5.12201 39.9075 5.34423L21.8741 23.3776C21.763 23.4776 21.6297 23.5331 21.4852 23.5331V23.5331Z" fill="black"/>
<path d="M23.6649 27.0003C23.5205 27.0003 23.376 26.9448 23.276 26.8337C23.0538 26.6115 23.0538 26.267 23.276 26.0448L42.576 6.74479C42.7983 6.52257 43.1427 6.52257 43.3649 6.74479C43.5872 6.96701 43.5872 7.31146 43.3649 7.53368L24.0649 26.8337C23.9538 26.9448 23.8094 27.0003 23.6649 27.0003V27.0003Z" fill="black"/>
<path d="M27.1337 29.1776C26.9892 29.1776 26.8448 29.1221 26.7448 29.011C26.5226 28.7888 26.5226 28.4443 26.7448 28.2221L44.767 10.1999C44.9892 9.97765 45.3337 9.97765 45.5559 10.1999C45.7781 10.4221 45.7781 10.7665 45.5559 10.9888L27.5226 29.0221C27.4115 29.1221 27.267 29.1776 27.1337 29.1776Z" fill="black"/>
<path d="M32.2352 29.7227C32.0908 29.7227 31.9464 29.6671 31.8464 29.556C31.6241 29.3338 31.6241 28.9893 31.8464 28.7671L45.313 15.3005C45.5352 15.0782 45.8797 15.0782 46.1019 15.3005C46.3241 15.5227 46.3241 15.8671 46.1019 16.0893L32.6241 29.556C32.513 29.6671 32.3797 29.7227 32.2352 29.7227Z" fill="black"/>
<path d="M44.6101 17.3443C44.4656 17.3443 44.3212 17.2888 44.2212 17.1777L32.9323 5.89989C32.7101 5.67767 32.7101 5.33322 32.9323 5.111C33.1545 4.88878 33.499 4.88878 33.7212 5.111L44.999 16.3999C45.2212 16.6221 45.2212 16.9666 44.999 17.1888C44.8878 17.2888 44.7434 17.3443 44.6101 17.3443Z" fill="black"/>
<path d="M43.6724 22.0561C43.528 22.0561 43.3835 22.0005 43.2835 21.8894L28.2057 6.82274C27.9835 6.60052 27.9835 6.25608 28.2057 6.03385C28.428 5.81163 28.7724 5.81163 28.9946 6.03385L44.0613 21.1116C44.2835 21.3339 44.2835 21.6783 44.0613 21.9005C43.9613 22.0005 43.8168 22.0561 43.6724 22.0561Z" fill="black"/>
<path d="M41.2017 25.2225C41.0573 25.2225 40.9128 25.1669 40.8128 25.0558L25.0573 9.30028C24.8351 9.07806 24.8351 8.73362 25.0573 8.51139C25.2795 8.28917 25.624 8.28917 25.8462 8.51139L41.6017 24.2669C41.824 24.4892 41.824 24.8336 41.6017 25.0558C41.4906 25.1669 41.3462 25.2225 41.2017 25.2225V25.2225Z" fill="black"/>
<path d="M38.0285 27.7006C37.884 27.7006 37.7396 27.6451 37.6396 27.5339L22.5729 12.4673C22.3507 12.2451 22.3507 11.9006 22.5729 11.6784C22.7951 11.4562 23.1396 11.4562 23.3618 11.6784L38.4285 26.7451C38.6507 26.9673 38.6507 27.3117 38.4285 27.5339C38.3174 27.6451 38.1729 27.7006 38.0285 27.7006V27.7006Z" fill="black"/>
<path d="M33.321 28.6338C33.1766 28.6338 33.0321 28.5782 32.9321 28.4671L21.6432 17.1782C21.421 16.956 21.421 16.6115 21.6432 16.3893C21.8655 16.1671 22.2099 16.1671 22.4321 16.3893L33.721 27.6782C33.9432 27.9004 33.9432 28.2449 33.721 28.4671C33.6099 28.5782 33.4655 28.6338 33.321 28.6338Z" fill="black"/>
<path d="M15.5439 37.478C15.3995 37.478 15.255 37.4225 15.155 37.3114C14.9328 37.0891 14.9328 36.7447 15.155 36.5225L22.2217 29.4558C22.4439 29.2336 22.7884 29.2336 23.0106 29.4558C23.2328 29.678 23.2328 30.0225 23.0106 30.2447L15.9439 37.3114C15.8217 37.4225 15.6884 37.478 15.5439 37.478ZM13.1884 35.1225C13.0439 35.1225 12.8995 35.0669 12.7995 34.9558C12.5773 34.7336 12.5773 34.3892 12.7995 34.1669L19.8661 27.1003C20.0884 26.878 20.4328 26.878 20.655 27.1003C20.8773 27.3225 20.8773 27.6669 20.655 27.8891L13.5884 34.9558C13.4661 35.0669 13.3328 35.1225 13.1884 35.1225V35.1225Z" fill="black"/>
<path d="M3.5316 49.6223C2.75382 49.6223 1.96493 49.3223 1.37604 48.7334C0.187153 47.5445 0.187153 45.6001 1.37604 44.4112L11.6094 34.1779C12.1538 33.6334 13.0316 33.6334 13.576 34.1779L15.9316 36.5334C16.476 37.0779 16.476 37.9556 15.9316 38.5001L5.69826 48.7334C5.09826 49.3334 4.32049 49.6223 3.5316 49.6223V49.6223ZM12.5983 34.8779C12.5316 34.8779 12.4538 34.9001 12.3983 34.9556L2.16493 45.189C1.40937 45.9445 1.40937 47.1779 2.16493 47.9334C2.92049 48.689 4.15382 48.689 4.90938 47.9334L15.1427 37.7001C15.2094 37.6334 15.2205 37.5445 15.2205 37.5001C15.2205 37.4556 15.2094 37.3779 15.1427 37.3001L12.7872 34.9445C12.7427 34.9112 12.6649 34.8779 12.5983 34.8779V34.8779Z" fill="black"/>
<path d="M15.3524 32.9562C15.308 32.9562 15.2747 32.9562 15.2302 32.9451C14.9747 32.8895 14.7969 32.6562 14.7969 32.4006C14.7969 32.3562 14.7969 32.3229 14.808 32.2784L17.2524 21.6006C17.3191 21.3006 17.6191 21.1118 17.9191 21.1784C18.1747 21.234 18.3524 21.4673 18.3524 21.7229C18.3524 21.7673 18.3524 21.8006 18.3413 21.8451L15.8969 32.5229C15.8413 32.7784 15.608 32.9562 15.3524 32.9562V32.9562Z" fill="black"/>
<path d="M17.7118 35.3117C17.4563 35.3117 17.234 35.134 17.1674 34.8784C17.1563 34.834 17.1562 34.7895 17.1562 34.7562C17.1562 34.5006 17.334 34.2784 17.5896 34.2117L28.2674 31.7673C28.5674 31.7006 28.8674 31.8895 28.934 32.1895C28.9451 32.234 28.9451 32.2784 28.9451 32.3117C28.9451 32.5673 28.7674 32.7895 28.5118 32.8562L17.834 35.3006C17.8007 35.3006 17.7563 35.3117 17.7118 35.3117V35.3117Z" fill="black"/>
<path d="M7.51076 46.6893C7.36632 46.6893 7.22187 46.6337 7.12187 46.5226L3.58854 42.9893C3.48854 42.8893 3.42188 42.7448 3.42188 42.6004C3.42188 42.4559 3.47743 42.3115 3.58854 42.2115L8.22188 37.5671C8.32188 37.4671 8.46632 37.4004 8.61076 37.4004C8.75521 37.4004 8.89965 37.4559 8.99965 37.5671L12.533 41.1004C12.7552 41.3226 12.7552 41.6671 12.533 41.8893L7.88854 46.5337C7.79965 46.6337 7.65521 46.6893 7.51076 46.6893ZM4.76632 42.6004L7.51076 45.3448L11.3663 41.4893L8.62187 38.7448L4.76632 42.6004Z" fill="black"/>
<path d="M24.775 49.6223C21.2528 49.6223 18.375 46.7556 18.375 43.2223C18.375 39.6889 21.2417 36.8223 24.775 36.8223C28.2972 36.8223 31.175 39.6889 31.175 43.2223C31.175 46.7556 28.3083 49.6223 24.775 49.6223V49.6223ZM24.775 37.9445C21.8639 37.9445 19.4861 40.3112 19.4861 43.2334C19.4861 46.1556 21.8528 48.5223 24.775 48.5223C27.6861 48.5223 30.0639 46.1556 30.0639 43.2334C30.0639 40.3112 27.6861 37.9445 24.775 37.9445V37.9445Z" fill="black"/>
<path d="M20.9192 48.1672C20.7636 48.1672 20.6081 48.1005 20.4969 47.9783C20.2969 47.7449 20.3192 47.4005 20.5414 47.1894C21.6858 46.1894 22.3303 44.7338 22.3303 43.2227C22.3303 41.7116 21.6747 40.2561 20.5414 39.2561C20.3081 39.0561 20.2858 38.7005 20.4969 38.4672C20.6969 38.2338 21.0525 38.2116 21.2858 38.4227C22.6636 39.6338 23.4525 41.3894 23.4525 43.2227C23.4525 45.0561 22.6636 46.8116 21.2858 48.0227C21.1747 48.1227 21.0525 48.1672 20.9192 48.1672V48.1672Z" fill="black"/>
<path d="M28.6349 48.1673C28.5016 48.1673 28.3682 48.1229 28.2682 48.034C26.8905 46.8229 26.1016 45.0673 26.1016 43.234C26.1016 41.4006 26.8905 39.6451 28.2682 38.434C28.5016 38.234 28.846 38.2562 29.0571 38.4784C29.2571 38.7117 29.2349 39.0562 29.0127 39.2673C27.8682 40.2673 27.2238 41.7229 27.2238 43.234C27.2238 44.7451 27.8793 46.2006 29.0127 47.2006C29.246 47.4006 29.2682 47.7562 29.0571 47.9895C28.946 48.1006 28.7905 48.1673 28.6349 48.1673V48.1673Z" fill="black"/>
</g>
<defs>
<clipPath id="clip0_23715_49540">
<rect width="50" height="50" fill="white"/>
</clipPath>
</defs>
</svg>
