<svg width="50" height="50" viewBox="0 0 50 50" fill="none" xmlns="http://www.w3.org/2000/svg">
<g clip-path="url(#clip0_24250_47704)">
<path d="M26.6484 9.75489C27.1875 9.75489 27.625 9.31734 27.625 8.77832C27.625 8.23931 27.1875 7.80176 26.6484 7.80176C26.1094 7.80176 25.6719 8.23931 25.6719 8.77832C25.6719 9.31734 26.1094 9.75489 26.6484 9.75489Z" fill="black"/>
<path d="M25.0344 20.2669C25.4784 20.5709 26.0865 20.4588 26.3917 20.0128C27.5368 18.3405 28.2975 16.4793 28.6519 14.4811C28.7716 13.8097 28.822 13.1345 28.8025 12.4738C28.7865 11.9348 28.3326 11.5076 27.797 11.527C27.258 11.543 26.8342 11.9932 26.8502 12.5322C26.8658 13.059 26.8254 13.5995 26.7293 14.1389C26.4229 15.8628 25.7676 17.4677 24.7803 18.9096C24.4755 19.3544 24.5892 19.9621 25.0344 20.2669Z" fill="black"/>
<path d="M7.50775 3.89552C7.16938 3.89552 6.85505 4.071 6.67691 4.35863C6.49914 4.64664 6.48312 5.00599 6.63418 5.30888C9.27166 10.5823 10.4374 13.1416 10.4374 18.544V26.3566C10.4374 30.8747 12.8102 34.8481 16.3746 37.0988H13.3671C12.8277 37.0988 12.3906 37.536 12.3906 38.0754V41.9816C12.3906 42.521 12.8277 42.9582 13.3671 42.9582H14.3437V49.0129C14.3437 49.5523 14.7808 49.9895 15.3202 49.9895H34.8515C35.3909 49.9895 35.8281 49.5523 35.8281 49.0129V42.9582H36.8046C37.344 42.9582 37.7812 42.521 37.7812 41.9816V38.0754C37.7812 37.536 37.344 37.0988 36.8046 37.0988H36.179C36.7073 36.7486 37.1869 36.3553 37.6091 35.9216C39.0591 34.4315 39.7946 32.5032 39.7358 30.3445C39.7141 29.5457 40.0078 28.7915 40.564 28.22C41.1202 27.6482 41.8663 27.3331 42.664 27.3331C43.0024 27.3331 43.3167 27.158 43.4948 26.87C43.6726 26.5824 43.689 26.2227 43.5376 25.9198L42.4954 23.835C42.4954 23.835 42.4954 23.835 42.4954 23.8347C41.7668 22.3786 40.3027 21.4737 38.675 21.4737C37.1792 21.4737 35.7735 22.2714 35.0071 23.555C35.0045 23.5592 35.0029 23.5638 35.0003 23.568C34.9976 23.5726 34.9945 23.5772 34.9915 23.5817L33.4595 26.3424C32.7015 24.6273 30.9849 23.4269 28.9921 23.4269C28.9223 23.4269 28.8525 23.4299 28.7831 23.433L29.6135 22.2195C32.8389 17.506 33.8063 11.7592 31.1776 6.77563C28.9696 2.58975 24.6254 -0.0107422 19.8399 -0.0107422H17.2734C16.9133 -0.0107422 16.5821 0.187623 16.4124 0.505007C16.2423 0.822773 16.261 1.20806 16.4608 1.5079L17.1357 2.51918C18.9412 5.22762 19.13 7.84108 18.7825 10.1055C16.4376 6.39531 12.275 3.89552 7.50775 3.89552ZM12.3906 26.3566V18.544C12.3906 13.1 11.1851 10.1108 9.14387 5.96806C13.1089 6.54942 16.5493 9.21095 18.0687 12.9784C17.0624 16.0671 15.5152 18.8961 15.1234 21.4772V21.4775C14.7648 23.8392 14.8568 26.2555 15.3897 28.4657C15.9478 30.7812 16.9957 32.8809 18.4205 34.5384C19.2223 35.4714 20.1363 36.2649 21.1487 36.9145C16.1702 35.9807 12.3906 31.6022 12.3906 26.3566ZM16.2968 42.9582H33.8749V48.0363H16.2968V42.9582ZM35.8281 39.0519V41.0051C34.8824 41.0051 15.8623 41.0051 14.3437 41.0051V39.0519H35.8281ZM28.9921 25.38C31.0433 25.38 32.4444 27.4357 31.7398 29.3263C31.3179 30.4707 30.2136 31.2394 28.9921 31.2394C27.3766 31.2394 26.0624 29.9252 26.0624 28.3097C26.0624 26.6926 27.3816 25.38 28.9921 25.38ZM19.8399 1.94239C23.8987 1.94239 27.5811 4.14348 29.4499 7.68659C31.5915 11.747 31.0635 16.642 28.0014 21.1167C27.8706 21.3082 25.169 25.2556 25.0397 25.4448C24.4313 26.2822 24.1093 27.2717 24.1093 28.3097C24.1093 31.0021 26.2997 33.1925 28.9921 33.1925C30.8949 33.1925 32.6275 32.0718 33.4195 30.3696C33.5923 30.1915 33.4233 30.4078 36.6887 24.5491C37.1056 23.8568 37.8655 23.4269 38.675 23.4269C39.5585 23.4269 40.3531 23.9182 40.7486 24.7086L41.1957 25.6028C40.4335 25.842 39.7385 26.2681 39.164 26.8582C38.2374 27.8107 37.7469 29.0677 37.7835 30.3979C37.8281 32.0401 37.2982 33.4405 36.2091 34.5593C34.6386 36.1733 32.0084 37.0988 28.9921 37.0988C25.2011 37.0988 22.0574 35.7732 19.9017 33.265C17.4576 30.4223 16.3933 26.125 17.0544 21.7705C17.3981 19.505 18.9103 16.6977 19.9231 13.5918C20.0447 13.4232 20.1104 13.2179 20.1077 13.0066C20.9462 10.2253 21.6504 6.17863 19.0831 1.94239H19.8399Z" fill="black"/>
</g>
<defs>
<clipPath id="clip0_24250_47704">
<rect width="50" height="50.0002" fill="white"/>
</clipPath>
</defs>
</svg>
