<svg width="50" height="50" viewBox="0 0 50 50" fill="none" xmlns="http://www.w3.org/2000/svg">
<g clip-path="url(#clip0_23715_50409)">
<path d="M18.8672 24.8371H19.1182C21.3743 24.8371 23.4402 23.5713 24.4639 21.5612C26.1401 18.2693 29.5279 16.1753 33.2512 16.1753H36.2721" stroke="black" stroke-width="1.46484" stroke-miterlimit="10" stroke-linecap="round" stroke-linejoin="round"/>
<path d="M19.1157 33.3345V44.3161C19.1157 46.6399 17.2341 48.5323 14.8995 48.5323H13.0365C10.7206 48.5323 8.82031 46.6566 8.82031 44.3161V26.2748C8.82031 23.9354 10.7195 22.0586 13.0365 22.0586H14.8995C17.2243 22.0586 19.1157 23.9422 19.1157 26.2748V29.9026" stroke="black" stroke-width="1.46484" stroke-miterlimit="10" stroke-linecap="round" stroke-linejoin="round"/>
<path d="M44.118 22.7939V18.3758C44.118 16.8178 44.8367 15.3578 46.0378 14.3655C50.1986 10.9278 50.3236 4.72022 46.4761 1.1169C45.5819 0.279593 44.118 0.909964 44.118 2.13662V4.40948C44.118 6.44014 42.4717 8.08643 40.4411 8.08643C38.4108 8.08643 36.7642 6.44121 36.7642 4.40948V2.13467C36.7642 0.911038 35.3023 0.275589 34.409 1.11299C30.5128 4.76729 30.7245 11.0104 34.8571 14.3871C36.0238 15.3413 36.7643 16.7685 36.7643 18.3366C36.7643 21.0661 36.7643 21.1821 36.7643 22.7939" stroke="black" stroke-width="1.46484" stroke-miterlimit="10" stroke-linecap="round" stroke-linejoin="round"/>
<path d="M44.8589 29.4123H45.9619C47.7896 29.4123 49.2711 27.9308 49.2711 26.1031C49.2711 24.2743 47.7896 22.7939 45.9619 22.7939C40.4897 22.7939 38.8802 22.7939 33.8281 22.7939" stroke="black" stroke-width="1.46484" stroke-miterlimit="10" stroke-linecap="round" stroke-linejoin="round"/>
<path d="M43.3828 36.031H44.4858C46.3135 36.031 47.795 34.5494 47.795 32.7218C47.795 30.893 46.3135 29.4126 44.4858 29.4126" stroke="black" stroke-width="1.46484" stroke-miterlimit="10" stroke-linecap="round" stroke-linejoin="round"/>
<path d="M41.9141 42.6491H43.0171C44.8447 42.6491 46.3263 41.1676 46.3263 39.3399C46.3263 37.5111 44.8447 36.0308 43.0171 36.0308" stroke="black" stroke-width="1.46484" stroke-miterlimit="10" stroke-linecap="round" stroke-linejoin="round"/>
<path d="M41.5488 42.6494C43.377 42.6494 44.8584 44.1299 44.8584 45.958C44.8584 47.7861 43.377 49.2676 41.5488 49.2676H34.8828" stroke="black" stroke-width="1.46484" stroke-miterlimit="10" stroke-linecap="round" stroke-linejoin="round"/>
<path d="M19.1172 44.7314L19.9238 45.5615C22.2295 47.9307 25.3945 49.2676 28.6992 49.2676H30.1084H31.4619" stroke="black" stroke-width="1.46484" stroke-miterlimit="10" stroke-linecap="round" stroke-linejoin="round"/>
<path d="M42.6484 29.4121C43.4744 29.4121 44.0545 29.4121 44.8546 29.4121" stroke="black" stroke-width="1.46484" stroke-miterlimit="10" stroke-linecap="round" stroke-linejoin="round"/>
<path d="M41.1797 36.0308C42.0057 36.0308 42.5857 36.0308 43.3858 36.0308" stroke="black" stroke-width="1.46484" stroke-miterlimit="10" stroke-linecap="round" stroke-linejoin="round"/>
<path d="M39.7109 42.6489C40.5369 42.6489 41.117 42.6489 41.9171 42.6489" stroke="black" stroke-width="1.46484" stroke-miterlimit="10" stroke-linecap="round" stroke-linejoin="round"/>
<path d="M9.01963 45.5906H4.11709C2.24922 45.5906 0.734375 44.0758 0.734375 42.2079V28.3827C0.734375 26.5148 2.24922 25 4.11709 25H9.01963" stroke="black" stroke-width="1.46484" stroke-miterlimit="10" stroke-linecap="round" stroke-linejoin="round"/>
</g>
<defs>
<clipPath id="clip0_23715_50409">
<rect width="50" height="50" fill="white"/>
</clipPath>
</defs>
</svg>
