<svg width="50" height="50" viewBox="0 0 50 50" fill="none" xmlns="http://www.w3.org/2000/svg">
<path d="M32.636 2.48064C27.9245 -0.494359 21.7453 -0.530394 17.2572 2.39246C13.4307 4.90232 10.4096 9.64441 9.97747 16.5783C9.87747 17.899 9.69505 19.5907 10.5761 20.5719C11.0754 21.128 11.8067 21.322 12.5484 21.2778C12.4783 22.0884 12.4868 22.0059 12.4864 22.0117C12.4117 22.9769 12.31 24.2991 13.023 25.0935C13.2862 25.3869 13.6298 25.5763 14.0457 25.6604C15.0803 26.5857 14.9164 28.502 14.838 29.0811C14.7876 29.4527 14.7186 29.8249 14.6491 30.1968C14.4571 31.2293 14.2585 32.2968 14.4419 33.3864C14.5639 34.1077 14.8425 34.7666 15.1121 35.4037C16.611 38.9487 15.806 42.2099 13.9048 44.3375C13.7154 44.5499 13.7335 44.8761 13.9461 45.0659C14.1575 45.255 14.4833 45.2385 14.6747 45.0248C16.8336 42.608 17.7145 38.9041 16.0624 35.0018C15.8049 34.3924 15.5611 33.817 15.4598 33.2148C15.3066 32.3058 15.4799 31.3731 15.6639 30.3854C15.736 29.9967 15.808 29.6079 15.861 29.2197C15.9627 28.4673 16.0652 26.8334 15.3195 25.5977C15.6921 25.499 16.0399 25.3547 16.3381 25.222C17.5475 24.6923 17.833 24.7458 18.8939 25.2815C19.2999 25.4863 19.7201 25.6899 20.1954 25.7737C19.3927 27.0275 19.0783 28.6184 19.357 30.2476C19.4976 31.0678 19.7979 31.8321 20.0886 32.5714C21.1742 35.3309 21.5518 38.1439 20.5214 41.2899C19.7006 43.7955 18.0538 46.0011 15.8841 47.4996C15.6498 47.6616 15.5908 47.9828 15.7526 48.2174C15.9133 48.4496 16.2334 48.5119 16.4706 48.3486C18.8248 46.7225 20.6116 44.3299 21.502 41.6108C22.5664 38.3599 22.2768 35.3075 21.049 32.1936C20.7648 31.4711 20.4967 30.7887 20.3738 30.0735C20.0769 28.3345 20.5673 26.6583 21.6811 25.5655C22.0323 25.4088 22.3533 25.2008 22.6569 25.0052C23.124 24.7041 23.5654 24.4199 24.027 24.3506C24.0284 24.3503 24.0298 24.3505 24.0312 24.3503C25.2428 25.8904 24.8334 28.3833 24.5036 30.3426C24.3918 31.0064 24.2764 31.6927 24.2114 32.3831C24.0455 34.1551 24.2128 35.9381 24.3751 37.6621C24.5289 39.619 24.8399 41.9893 24.2814 44.3261C23.7977 46.3529 22.6725 47.9863 21.1946 48.8066C20.9451 48.9449 20.8554 49.2592 20.994 49.5083C21.1325 49.7581 21.447 49.8468 21.6954 49.7091C23.4258 48.7481 24.7344 46.8734 25.2852 44.5656C25.8739 42.1009 25.5709 39.7212 25.4026 37.5655C25.2449 35.8888 25.0821 34.155 25.2393 32.4795C25.3002 31.8266 25.4126 31.1593 25.5215 30.5137C25.8348 28.6503 26.1744 26.4119 25.4107 24.6597C25.6411 24.7706 25.8742 24.8983 26.112 25.03C26.848 25.4378 27.6089 25.8564 28.4935 25.8719C27.6921 27.7106 27.7437 29.647 27.9236 31.3457C28.0682 32.7067 28.3659 34.0518 28.6547 35.3526C28.8325 36.1558 29.0165 36.9862 29.1601 37.8038C29.612 40.3728 29.5385 42.3406 28.9273 43.9967C28.829 44.2639 28.9656 44.5607 29.2331 44.6593C29.4947 44.7573 29.7952 44.6254 29.8957 44.3539C30.5725 42.5195 30.6616 40.3812 30.1769 37.6252C30.0292 36.7852 29.8423 35.9434 29.6619 35.1294C29.3797 33.8563 29.088 32.5399 28.9494 31.2368C28.7618 29.4638 28.7259 27.4183 29.7884 25.6113C30.1664 25.4578 30.5237 25.2561 30.8748 25.0573C31.3242 24.8028 31.755 24.5591 32.1921 24.4413C32.7115 26.8756 30.3509 29.8616 30.6738 33.0013C30.9342 35.5233 32.8727 37.5728 32.8168 39.8462C32.8103 40.1311 33.0355 40.3676 33.3202 40.3745C33.3247 40.3748 33.3288 40.3748 33.3328 40.3748C33.612 40.3748 33.8417 40.1518 33.8489 39.8714C33.911 37.2827 31.9375 35.2008 31.7008 32.8955C31.413 30.1064 33.7012 27.1451 33.2377 24.4215C33.4284 24.4563 33.6251 24.5037 33.8268 24.5531C34.3473 24.68 34.9209 24.8191 35.5007 24.7344C36.6975 27.175 34.6895 31.3021 34.8129 34.4901C34.8623 35.7644 35.2065 36.9902 35.539 38.1754C35.8766 39.3797 36.196 40.517 36.2293 41.6935C36.3079 44.4587 34.6028 47.1857 32.0828 48.3258C31.8234 48.4431 31.7079 48.749 31.8253 49.0086C31.942 49.2668 32.2468 49.3843 32.5081 49.2661C35.3964 47.9595 37.351 44.8336 37.2614 41.6644C37.2241 40.3606 36.8724 39.108 36.5327 37.8969C36.2017 36.717 35.8888 35.6029 35.8439 34.4503C35.7204 31.2588 37.8321 27.2214 36.4628 24.3332C37.2014 23.7783 37.5857 22.7345 37.5486 21.3267C37.5384 20.9145 37.505 20.514 37.4613 20.1208C37.7592 20.1033 38.0583 20.0446 38.3578 19.9133C39.5228 19.395 40.1401 18.0353 40.0968 16.0851C39.9746 10.5225 37.116 5.30955 32.636 2.48064ZM35.6427 23.6325C35.2008 23.8267 34.6773 23.699 34.0716 23.5507C32.5908 23.1891 32.0301 23.2175 30.3665 24.1596C28.7191 25.0923 28.3065 25.0668 26.612 24.1274C24.5204 22.9681 23.7324 23.0843 22.0982 24.1378C21.5741 24.4754 21.0642 24.7787 20.5729 24.7855C20.1793 24.7742 19.7808 24.5731 19.359 24.3602C18.0486 23.6995 17.4489 23.6087 15.9215 24.2778C15.4811 24.4733 14.9778 24.6966 14.5136 24.6779C14.1835 24.6678 13.9472 24.5784 13.791 24.4043C13.3728 23.9385 13.4555 22.8707 13.5155 22.0912C13.5534 21.572 13.5555 21.477 13.5985 21.0516C13.8989 20.9468 14.1726 20.8259 14.4662 20.6962C15.9721 20.0453 16.3315 20.1023 17.6498 20.769C19.5241 21.7155 20.2881 21.6093 22.1063 20.4418C23.7527 19.3842 24.2573 19.284 26.408 20.4727C28.6991 21.7381 29.5903 21.8995 32.0642 20.5024C32.8038 20.0844 33.5022 19.69 34.2493 19.6564C34.9055 19.6276 35.6618 19.8906 36.4185 20.0364C36.4729 20.4605 36.5056 20.9015 36.5166 21.353V21.3538C36.5316 21.9142 36.4756 23.2587 35.6427 23.6325ZM39.0646 16.1082C39.0802 16.8111 39.0021 18.4971 37.9409 18.9693C36.9575 19.4018 35.5857 18.5663 34.2131 18.6257C34.1614 18.6402 33.5177 18.4953 31.5551 19.6037C29.5005 20.7645 28.9743 20.7097 26.9087 19.5694C24.4549 18.2145 23.5536 18.2839 21.5468 19.5734C19.9744 20.5838 19.5922 20.594 18.1168 19.8478C16.5616 19.0619 15.8822 18.9598 14.0509 19.7509C13.2347 20.1129 11.9876 20.5997 11.3435 19.8824C10.7427 19.213 10.935 17.6002 11.0074 16.6446C11.416 10.0776 14.2567 5.5947 17.822 3.25623C21.9111 0.59236 27.7764 0.632496 32.0846 3.35349C36.276 5.99968 38.9501 10.8869 39.0645 16.108C39.0646 16.1079 39.0646 16.1079 39.0646 16.1082Z" fill="black"/>
</svg>
