<svg height="512" viewBox="0 0 64 64" width="512" xmlns="http://www.w3.org/2000/svg"><g id="_21-Jacuzzi" data-name="21-Jacuzzi"><path d="m51 46a3 3 0 0 1 -3-3v-.5a.5.5 0 0 0 -.5-.5 2.5 2.5 0 0 1 -2.5-2.5v-1.5h-44a1 1 0 0 1 -1-1v-4a1 1 0 0 1 1-1h62a1 1 0 0 1 1 1v4a1 1 0 0 1 -1 1h-9v5a3 3 0 0 1 -3 3zm-49-10h44a1 1 0 0 1 1 1v2.5a.5.5 0 0 0 .5.5 2.5 2.5 0 0 1 2.5 2.5v.5a1 1 0 0 0 2 0v-6a1 1 0 0 1 1-1h9v-2h-60z"/><path d="m63 64h-62a1 1 0 0 1 -1-1v-4a1 1 0 0 1 1-1h62a1 1 0 0 1 1 1v4a1 1 0 0 1 -1 1zm-61-2h60v-2h-60z"/><path d="m2 37h2v22h-2z"/><path d="m60 37h2v22h-2z"/><path d="m32 22a7.008 7.008 0 0 1 -7-7v-5a1 1 0 0 1 1-1c.04 0 4-.066 4-2a1 1 0 0 1 2 0s.316 2 6 2a1 1 0 0 1 1 1v5a7.008 7.008 0 0 1 -7 7zm-5-11.053v4.053a5 5 0 0 0 10 0v-4.021c-3.154-.136-4.889-.919-5.841-1.758a6.662 6.662 0 0 1 -4.159 1.726z"/><path d="m42 11h-2v-1a8 8 0 0 0 -16 0v1h-2v-1a10 10 0 0 1 20 0z"/><path d="m39 16h-1v-2h1a1 1 0 0 0 1-1v-1h-2v-2h3a1 1 0 0 1 1 1v2a3 3 0 0 1 -3 3z"/><path d="m26 16h-1a3 3 0 0 1 -3-3v-2a1 1 0 0 1 1-1h3v2h-2v1a1 1 0 0 0 1 1h1z"/><path d="m22 33h-2v-8a1 1 0 0 1 .783-.977l8.217-1.823v-2.2h2v3a1 1 0 0 1 -.783.977l-8.217 1.823z"/><path d="m44 33h-2v-7.2l-8.217-1.825a1 1 0 0 1 -.783-.975v-3h2v2.2l8.217 1.825a1 1 0 0 1 .783.975z"/><path d="m25 29h2v4h-2z"/><path d="m37 29h2v4h-2z"/><path d="m45 33h2v4h-2z"/><path d="m52 33h2v4h-2z"/><path d="m3 51h58v2h-58z"/><path d="m3 43h43v2h-43z"/><path d="m55 43h6v2h-6z"/><path d="m51 25h-2c0-.562-.217-.8-.707-1.293a3.48 3.48 0 0 1 0-5.414c.49-.49.707-.731.707-1.293s-.217-.8-.707-1.293a3.564 3.564 0 0 1 -1.293-2.707h2c0 .562.217.8.707 1.293a3.48 3.48 0 0 1 0 5.414c-.49.493-.707.731-.707 1.293s.217.8.707 1.293a3.564 3.564 0 0 1 1.293 2.707z"/><path d="m58 29h-2c0-.562-.217-.8-.707-1.293a3.48 3.48 0 0 1 0-5.414c.49-.49.707-.731.707-1.293s-.217-.8-.707-1.293a3.564 3.564 0 0 1 -1.293-2.707h2c0 .562.217.8.707 1.293a3.48 3.48 0 0 1 0 5.414c-.49.493-.707.731-.707 1.293s.217.8.707 1.293a3.564 3.564 0 0 1 1.293 2.707z"/><path d="m15 25h-2a3.564 3.564 0 0 1 1.293-2.707c.49-.49.707-.731.707-1.293s-.217-.8-.707-1.293a3.48 3.48 0 0 1 0-5.414c.49-.49.707-.731.707-1.293h2a3.564 3.564 0 0 1 -1.293 2.707c-.49.493-.707.731-.707 1.293s.217.8.707 1.293a3.48 3.48 0 0 1 0 5.414c-.49.493-.707.731-.707 1.293z"/><path d="m8 29h-2a3.564 3.564 0 0 1 1.293-2.707c.49-.493.707-.731.707-1.293s-.217-.8-.707-1.293a3.48 3.48 0 0 1 0-5.414c.49-.493.707-.731.707-1.293h2a3.564 3.564 0 0 1 -1.293 2.707c-.49.493-.707.731-.707 1.293s.217.8.707 1.293a3.48 3.48 0 0 1 0 5.414c-.49.493-.707.731-.707 1.293z"/></g></svg>