<svg width="50" height="50" viewBox="0 0 50 50" fill="none" xmlns="http://www.w3.org/2000/svg">
<path d="M41.4062 16.4064C41.4062 16.2708 41.3709 16.1376 41.3038 16.0198C41.2367 15.902 41.1401 15.8037 41.0234 15.7346L29.3047 8.7033C29.1859 8.63473 29.0512 8.59863 28.9141 8.59863C28.7769 8.59863 28.6422 8.63473 28.5234 8.7033L16.8047 15.7346C16.6852 15.8017 16.5854 15.8992 16.5155 16.0171C16.4455 16.1351 16.4079 16.2693 16.4062 16.4064V32.8127C16.4062 33.0199 16.4886 33.2186 16.6351 33.3651C16.7816 33.5116 16.9803 33.5939 17.1875 33.5939H24.2188C24.426 33.5939 24.6247 33.5116 24.7712 33.3651C24.9177 33.2186 25 33.0199 25 32.8127V21.8752H32.8125V32.8127C32.8125 33.0199 32.8948 33.2186 33.0413 33.3651C33.1878 33.5116 33.3865 33.5939 33.5938 33.5939H40.625C40.8322 33.5939 41.0309 33.5116 41.1774 33.3651C41.3239 33.2186 41.4062 33.0199 41.4062 32.8127V16.4064ZM39.8438 32.0314H34.375V21.0939C34.375 20.8867 34.2927 20.688 34.1462 20.5415C33.9997 20.395 33.801 20.3127 33.5938 20.3127H24.2188C24.0115 20.3127 23.8128 20.395 23.6663 20.5415C23.5198 20.688 23.4375 20.8867 23.4375 21.0939V32.0314H17.9688V16.8517L28.9062 10.2892L39.8438 16.8517V32.0314Z" fill="black"/>
<path d="M17.9688 39.8438H36.8594C37.0437 40.365 37.4063 40.8043 37.8832 41.0841C38.3601 41.3638 38.9205 41.466 39.4654 41.3725C40.0103 41.279 40.5047 40.9959 40.861 40.5732C41.2174 40.1505 41.4128 39.6154 41.4128 39.0625C41.4128 38.5096 41.2174 37.9745 40.861 37.5518C40.5047 37.1291 40.0103 36.846 39.4654 36.7525C38.9205 36.659 38.3601 36.7612 37.8832 37.0409C37.4063 37.3207 37.0437 37.76 36.8594 38.2812H18.75V37.5C18.75 36.8784 18.5031 36.2823 18.0635 35.8427C17.624 35.4032 17.0279 35.1562 16.4062 35.1562C15.7846 35.1562 15.1885 35.4032 14.749 35.8427C14.3094 36.2823 14.0625 36.8784 14.0625 37.5V39.0625C14.0625 39.2697 13.9802 39.4684 13.8337 39.6149C13.6872 39.7614 13.4885 39.8438 13.2812 39.8438C13.074 39.8438 12.8753 39.7614 12.7288 39.6149C12.5823 39.4684 12.5 39.2697 12.5 39.0625V25.7812C12.9144 25.7812 13.3118 25.6166 13.6049 25.3236C13.8979 25.0306 14.0625 24.6332 14.0625 24.2188V22.6562C14.0571 22.5719 14.0441 22.4882 14.0234 22.4063C14.5472 21.8343 14.8396 21.088 14.8438 20.3125V18.75C14.8438 18.5428 14.7614 18.3441 14.6149 18.1976C14.4684 18.0511 14.2697 17.9688 14.0625 17.9688V16.4062C14.0625 16.199 13.9802 16.0003 13.8337 15.8538C13.6872 15.7073 13.4885 15.625 13.2812 15.625C13.074 15.625 12.8753 15.7073 12.7288 15.8538C12.5823 16.0003 12.5 16.199 12.5 16.4062V17.9688H10.9375V16.4062C10.9375 16.199 10.8552 16.0003 10.7087 15.8538C10.5622 15.7073 10.3635 15.625 10.1562 15.625C9.94905 15.625 9.75034 15.7073 9.60382 15.8538C9.45731 16.0003 9.375 16.199 9.375 16.4062V17.9688C9.1678 17.9688 8.96909 18.0511 8.82257 18.1976C8.67606 18.3441 8.59375 18.5428 8.59375 18.75V20.3125C8.59791 21.088 8.89029 21.8343 9.41406 22.4063C9.39343 22.4882 9.38035 22.5719 9.375 22.6562V24.2188C9.375 24.6332 9.53962 25.0306 9.83265 25.3236C10.1257 25.6166 10.5231 25.7812 10.9375 25.7812V39.0625C10.9375 39.6841 11.1844 40.2802 11.624 40.7198C12.0635 41.1593 12.6596 41.4062 13.2812 41.4062C13.9029 41.4062 14.499 41.1593 14.9385 40.7198C15.3781 40.2802 15.625 39.6841 15.625 39.0625V37.5C15.625 37.2928 15.7073 37.0941 15.8538 36.9476C16.0003 36.8011 16.199 36.7188 16.4062 36.7188C16.6135 36.7188 16.8122 36.8011 16.9587 36.9476C17.1052 37.0941 17.1875 37.2928 17.1875 37.5V39.0625C17.1875 39.2697 17.2698 39.4684 17.4163 39.6149C17.5628 39.7614 17.7615 39.8438 17.9688 39.8438ZM39.0625 38.2812C39.217 38.2812 39.3681 38.3271 39.4965 38.4129C39.625 38.4988 39.7251 38.6208 39.7843 38.7635C39.8434 38.9063 39.8589 39.0634 39.8287 39.2149C39.7986 39.3665 39.7242 39.5057 39.6149 39.6149C39.5057 39.7242 39.3665 39.7986 39.2149 39.8287C39.0634 39.8589 38.9063 39.8434 38.7635 39.7843C38.6208 39.7251 38.4988 39.625 38.4129 39.4965C38.3271 39.3681 38.2812 39.217 38.2812 39.0625C38.2812 38.8553 38.3636 38.6566 38.5101 38.5101C38.6566 38.3636 38.8553 38.2812 39.0625 38.2812ZM10.1562 20.3125V19.5312H13.2812V20.3125C13.2812 20.7269 13.1166 21.1243 12.8236 21.4174C12.5306 21.7104 12.1332 21.875 11.7188 21.875C11.3043 21.875 10.9069 21.7104 10.6139 21.4174C10.3209 21.1243 10.1562 20.7269 10.1562 20.3125ZM10.9375 24.2188V23.3281C11.4479 23.4753 11.9896 23.4753 12.5 23.3281V24.2188H10.9375Z" fill="black"/>
</svg>
