<svg width="50" height="50" viewBox="0 0 50 50" fill="none" xmlns="http://www.w3.org/2000/svg">
<path d="M46.8708 48.3623L42.9646 7.73731C42.946 7.54401 42.8561 7.36457 42.7124 7.23401C42.5686 7.10346 42.3814 7.03116 42.1872 7.03125H31.2497V1.5625C31.2497 1.3553 31.1674 1.15659 31.0209 1.01007C30.8744 0.86356 30.6757 0.78125 30.4685 0.78125H28.1247C27.9175 0.78125 27.7188 0.86356 27.5723 1.01007C27.4258 1.15659 27.3435 1.3553 27.3435 1.5625V2.34375H22.656V1.5625C22.656 1.3553 22.5737 1.15659 22.4271 1.01007C22.2806 0.86356 22.0819 0.78125 21.8747 0.78125H19.531C19.3238 0.78125 19.1251 0.86356 18.9785 1.01007C18.832 1.15659 18.7497 1.3553 18.7497 1.5625V7.03125H7.81222C7.61804 7.03116 7.4308 7.10346 7.28707 7.23401C7.14333 7.36457 7.05341 7.54401 7.03488 7.73731L3.12863 48.3623C3.11814 48.4707 3.13044 48.5801 3.16474 48.6835C3.19903 48.7869 3.25456 48.8819 3.32775 48.9626C3.40095 49.0432 3.4902 49.1077 3.58978 49.1518C3.68936 49.1959 3.79706 49.2187 3.90597 49.2188H46.0935C46.2024 49.2187 46.3101 49.1959 46.4097 49.1518C46.5092 49.1077 46.5985 49.0432 46.6717 48.9626C46.7449 48.8819 46.8004 48.7869 46.8347 48.6835C46.869 48.5801 46.8813 48.4707 46.8708 48.3623V48.3623ZM28.906 2.34375H29.6872V15.625H28.906V2.34375ZM22.656 3.90625H27.3435V4.6875H22.656V3.90625ZM22.656 6.25H27.3435V7.03125H22.656V6.25ZM22.656 8.59375H27.3435V9.375H22.656V8.59375ZM22.656 10.9375H27.3435V11.7188H22.656V10.9375ZM22.656 13.2812H27.3435V14.0625H22.656V13.2812ZM20.3122 2.34375H21.0935V15.625H20.3122V2.34375ZM19.531 17.1875H21.8747C22.0819 17.1875 22.2806 17.1052 22.4271 16.9587C22.5737 16.8122 22.656 16.6135 22.656 16.4062V15.625H27.3435V16.4062C27.3435 16.6135 27.4258 16.8122 27.5723 16.9587C27.7188 17.1052 27.9175 17.1875 28.1247 17.1875H30.4685C30.6757 17.1875 30.8744 17.1052 31.0209 16.9587C31.1674 16.8122 31.2497 16.6135 31.2497 16.4062V10.9375H39.3093L40.1706 19.6729C39.571 20.0322 39.0749 20.3125 38.0193 20.3125C36.9343 20.3125 36.4411 20.0166 35.8181 19.6426C35.1208 19.2246 34.3298 18.75 32.8112 18.75C31.2927 18.75 30.5017 19.2246 29.8044 19.6426C29.1814 20.0166 28.6882 20.3125 27.6032 20.3125C26.5183 20.3125 26.0241 20.0166 25.4011 19.6426C24.7038 19.2246 23.9138 18.75 22.3952 18.75C20.8767 18.75 20.0857 19.2246 19.3884 19.6426C18.7653 20.0166 18.2722 20.3125 17.1872 20.3125C16.1023 20.3125 15.6081 20.0166 14.9851 19.6426C14.2868 19.2246 13.4968 18.75 11.9782 18.75C11.0583 18.75 10.406 18.9248 9.8796 19.1553L10.6902 10.9375H18.7497V16.4062C18.7497 16.6135 18.832 16.8122 18.9785 16.9587C19.1251 17.1052 19.3238 17.1875 19.531 17.1875V17.1875ZM39.6237 39.0625C38.3571 39.0625 37.7595 38.7432 37.0681 38.374C36.3015 37.9639 35.4333 37.5 33.7751 37.5C32.1169 37.5 31.2478 37.9639 30.4821 38.374C29.7898 38.7432 29.1921 39.0625 27.9265 39.0625C26.6589 39.0625 26.0612 38.7432 25.3698 38.373C24.6032 37.9639 23.7351 37.5 22.0778 37.5C20.4206 37.5 19.5505 37.9639 18.7849 38.374C18.0925 38.7432 17.4948 39.0625 16.2292 39.0625C14.9616 39.0625 14.364 38.7432 13.6726 38.373C12.906 37.9639 12.0368 37.5 10.3796 37.5C9.34347 37.5 8.61593 37.6807 8.02902 37.917L8.75851 30.5146C8.85226 30.4639 8.94308 30.4121 9.03097 30.3623C9.68917 29.9854 10.2097 29.6875 11.3591 29.6875C12.5085 29.6875 13.0554 30 13.6882 30.3623C14.4167 30.7783 15.2419 31.25 16.8249 31.25C18.4079 31.25 19.2321 30.7783 19.9597 30.3623C20.5925 30 21.1384 29.6875 22.2888 29.6875C23.4372 29.6875 23.9577 29.9854 24.6159 30.3613C25.3444 30.7783 26.1696 31.25 27.7527 31.25C29.3357 31.25 30.1599 30.7783 30.8874 30.3623C31.5202 30 32.0671 29.6875 33.2165 29.6875C34.3659 29.6875 34.9128 30 35.5456 30.3623C36.2732 30.7783 37.0984 31.25 38.6804 31.25C39.8767 31.25 40.6394 30.9805 41.2556 30.6689L42.0241 38.457C41.3933 38.79 40.7937 39.0625 39.6237 39.0625V39.0625ZM42.1872 40.1172L42.6999 45.3125H7.29953L7.84933 39.7373C8.52999 39.374 9.12863 39.0625 10.3796 39.0625C11.6462 39.0625 12.2439 39.3818 12.9362 39.752C13.7019 40.1611 14.571 40.625 16.2292 40.625C17.8874 40.625 18.7546 40.1611 19.5212 39.752C20.2126 39.3818 20.8103 39.0625 22.0778 39.0625C23.3435 39.0625 23.9411 39.3818 24.6335 39.751C25.3991 40.1611 26.2683 40.625 27.9265 40.625C29.5847 40.625 30.4519 40.1611 31.2185 39.752C31.9099 39.3818 32.5075 39.0625 33.7751 39.0625C35.0427 39.0625 35.6394 39.3818 36.3318 39.752C37.0974 40.1611 37.9665 40.625 39.6237 40.625C40.7888 40.625 41.5632 40.3955 42.1872 40.1172V40.1172ZM41.0085 29.0137C40.3757 29.375 39.8298 29.6875 38.6804 29.6875C37.531 29.6875 37.0114 29.3896 36.3523 29.0137C35.6247 28.5967 34.7995 28.125 33.2165 28.125C31.6335 28.125 30.8083 28.5967 30.0798 29.0137C29.4216 29.3896 28.9011 29.6875 27.7527 29.6875C26.6023 29.6875 26.0564 29.375 25.4235 29.0127C24.696 28.5967 23.8708 28.125 22.2888 28.125C20.7068 28.125 19.8806 28.5967 19.1521 29.0137C18.4939 29.3896 17.9734 29.6875 16.8249 29.6875C15.6745 29.6875 15.1286 29.375 14.4958 29.0127C13.7673 28.5967 12.9421 28.125 11.3591 28.125C10.2653 28.125 9.5339 28.3506 8.94503 28.627L9.69406 21.0313C9.7214 21.0146 9.74972 20.998 9.77609 20.9824C10.4001 20.6084 10.8923 20.3125 11.9782 20.3125C13.0642 20.3125 13.5573 20.6084 14.1804 20.9824C14.8786 21.4004 15.6687 21.875 17.1872 21.875C18.7058 21.875 19.4958 21.4004 20.1931 20.9824C20.8161 20.6084 21.3093 20.3125 22.3952 20.3125C23.4812 20.3125 23.9734 20.6084 24.5964 20.9824C25.2937 21.4004 26.0847 21.875 27.6032 21.875C29.1218 21.875 29.9118 21.4004 30.6091 20.9824C31.2321 20.6084 31.7253 20.3125 32.8112 20.3125C33.8972 20.3125 34.3903 20.6084 35.0134 20.9824C35.7107 21.4004 36.5017 21.875 38.0193 21.875C39.072 21.875 39.7741 21.6475 40.3386 21.3682L41.0876 28.9688C41.0612 28.9834 41.0349 28.999 41.0085 29.0137V29.0137ZM4.76632 47.6562L8.52218 8.59375H18.7497V9.375H9.98214C9.78831 9.37502 9.60141 9.4471 9.45776 9.57722C9.3141 9.70734 9.22394 9.88622 9.2048 10.0791L5.65988 46.0166C5.6491 46.1252 5.66119 46.2348 5.69535 46.3384C5.72951 46.442 5.78499 46.5373 5.85822 46.6182C5.93145 46.699 6.0208 46.7637 6.12052 46.8079C6.22025 46.8521 6.32813 46.875 6.43722 46.875H43.5622C43.6713 46.875 43.7792 46.8521 43.8789 46.8079C43.9786 46.7637 44.068 46.699 44.1412 46.6182C44.2145 46.5373 44.2699 46.442 44.3041 46.3384C44.3383 46.2348 44.3503 46.1252 44.3396 46.0166L40.7946 10.0791C40.7755 9.88622 40.6853 9.70734 40.5417 9.57722C40.398 9.4471 40.2111 9.37502 40.0173 9.375H31.2497V8.59375H41.4773L45.2331 47.6562H4.76632Z" fill="black"/>
<path d="M24.348 23.4375C22.8292 23.4375 22.0388 23.9117 21.3414 24.3303C20.7178 24.7045 20.2252 25 19.14 25C18.0547 25 17.5612 24.7044 16.9374 24.3301C16.2401 23.9116 15.4496 23.4375 13.931 23.4375C12.4123 23.4375 11.622 23.9117 10.9246 24.3303C10.7903 24.4109 10.6634 24.487 10.5334 24.5585C10.4418 24.6069 10.3607 24.6731 10.2949 24.7532C10.2291 24.8332 10.1798 24.9256 10.1501 25.0249C10.1203 25.1242 10.1106 25.2284 10.1215 25.3315C10.1324 25.4345 10.1637 25.5344 10.2136 25.6252C10.2635 25.7161 10.331 25.7961 10.4121 25.8606C10.4932 25.9252 10.5864 25.9729 10.6861 26.0011C10.7858 26.0292 10.8902 26.0373 10.9931 26.0247C11.096 26.0122 11.1953 25.9793 11.2854 25.9279C11.4416 25.8422 11.5874 25.7547 11.7284 25.67C12.3528 25.2957 12.8452 25 13.931 25C15.0167 25 15.5097 25.2956 16.1335 25.6699C16.8309 26.0884 17.6213 26.5625 19.14 26.5625C20.6586 26.5625 21.4483 26.0884 22.1454 25.67C22.7693 25.2956 23.262 25 24.348 25C24.5552 25 24.7539 24.9177 24.9004 24.7712C25.0469 24.6247 25.1292 24.426 25.1292 24.2188C25.1292 24.0115 25.0469 23.8128 24.9004 23.6663C24.7539 23.5198 24.5552 23.4375 24.348 23.4375Z" fill="black"/>
<path d="M19.7856 35.3027C19.9418 35.217 20.0876 35.1295 20.2286 35.0448C20.8528 34.6707 21.3452 34.375 22.431 34.375C23.5167 34.375 24.0097 34.6706 24.6335 35.0449C25.3309 35.4634 26.1213 35.9375 27.64 35.9375C29.1586 35.9375 29.9483 35.4634 30.6454 35.045C31.2693 34.6706 31.762 34.375 32.848 34.375C33.0552 34.375 33.2539 34.2927 33.4004 34.1462C33.5469 33.9997 33.6292 33.801 33.6292 33.5938C33.6292 33.3865 33.5469 33.1878 33.4004 33.0413C33.2539 32.8948 33.0552 32.8125 32.848 32.8125C31.3292 32.8125 30.5388 33.2867 29.8414 33.7053C29.2178 34.0795 28.7252 34.375 27.64 34.375C26.5547 34.375 26.0612 34.0794 25.4374 33.7051C24.7401 33.2866 23.9496 32.8125 22.431 32.8125C20.9123 32.8125 20.122 33.2867 19.4246 33.7053C19.2903 33.7859 19.1634 33.862 19.0334 33.9335C18.9418 33.9819 18.8607 34.0481 18.7949 34.1282C18.7291 34.2082 18.6798 34.3006 18.6501 34.3999C18.6203 34.4992 18.6106 34.6034 18.6215 34.7065C18.6324 34.8095 18.6637 34.9094 18.7136 35.0002C18.7635 35.0911 18.831 35.1711 18.9121 35.2356C18.9932 35.3002 19.0864 35.3479 19.1861 35.3761C19.2858 35.4042 19.3902 35.4123 19.4931 35.3997C19.596 35.3872 19.6953 35.3543 19.7854 35.3029L19.7856 35.3027Z" fill="black"/>
</svg>
