<svg width="51" height="51" viewBox="0 0 51 51" fill="none" xmlns="http://www.w3.org/2000/svg">
<path d="M46.7785 33.0546H2.92364C2.47767 33.0546 2.11719 32.6933 2.11719 32.2482C2.11719 31.803 2.47767 31.4417 2.92364 31.4417H46.7785C47.2309 31.4417 47.6382 31.2183 47.818 30.8732C48.4414 29.6699 46.5986 28.3183 44.943 27.3949C44.9244 27.3853 42.1922 25.9135 38.3825 23.928C35.8269 25.0272 30.989 24.7022 25.8325 23.0538C21.3849 21.632 17.5777 19.474 15.7462 17.357H2.92364C2.47767 17.357 2.11719 16.9958 2.11719 16.5506C2.11719 16.1054 2.47767 15.7441 2.92364 15.7441H16.1277C16.3777 15.7441 16.6132 15.8603 16.7656 16.057C18.2664 17.9974 22.0188 20.1409 26.3244 21.5175C32.0244 23.3409 36.3777 23.2103 38.0099 22.3191C38.2454 22.1901 38.5293 22.1869 38.7688 22.3111C42.7752 24.3958 45.6882 25.9659 45.7172 25.9812C49.8583 28.2877 49.9228 30.3175 49.2494 31.6159C48.789 32.503 47.8422 33.0546 46.7785 33.0546V33.0546Z" fill="black"/>
<path d="M34.4497 24.5696C31.99 24.5696 28.9698 24.0567 25.8311 23.0527C21.165 21.5599 17.2013 19.2575 15.4884 17.0422C15.3005 16.7986 15.2674 16.4696 15.4029 16.1938C15.5384 15.9172 15.819 15.7422 16.1263 15.7422H20.6779C24.019 15.7422 27.3569 16.5253 30.3319 18.0067C32.9134 19.2914 35.7521 20.739 38.7682 22.3091C39.0319 22.447 39.1989 22.7188 39.2021 23.0164C39.2053 23.3148 39.044 23.5898 38.7819 23.7325C37.7545 24.2946 36.2529 24.5696 34.4497 24.5696V24.5696ZM18.0634 17.3559C19.9424 18.9019 22.9642 20.443 26.3223 21.5164C30.5763 22.8777 34.0795 23.1486 36.265 22.8293C33.9086 21.6123 31.6779 20.4793 29.6126 19.4511C26.8594 18.0801 23.7698 17.3559 20.6771 17.3559H18.0634Z" fill="black"/>
<path d="M47.1882 35.8815H2.92364C2.47767 35.8815 2.11719 35.5202 2.11719 35.075C2.11719 34.6298 2.47767 34.2686 2.92364 34.2686H47.1882C47.6341 34.2686 47.9946 34.6298 47.9946 35.075C47.9946 35.5202 47.6333 35.8815 47.1882 35.8815Z" fill="black"/>
<path d="M29.7154 28.9772H2.97833C2.53236 28.9772 2.17188 28.6159 2.17188 28.1707C2.17188 27.7255 2.53236 27.3643 2.97833 27.3643H29.7154C30.1614 27.3643 30.5219 27.7255 30.5219 28.1707C30.5219 28.6159 30.1614 28.9772 29.7154 28.9772Z" fill="black"/>
<path d="M13.7427 26.57C12.4241 26.57 11.3516 25.4974 11.3516 24.1797V21.3522C11.3516 20.0337 12.4241 18.9619 13.7427 18.9619C15.0612 18.9619 16.1338 20.0345 16.1338 21.3522V24.1797C16.1338 25.4982 15.0612 26.57 13.7427 26.57ZM13.7427 20.574C13.3137 20.574 12.9645 20.9232 12.9645 21.3514V24.1788C12.9645 24.6079 13.3137 24.9563 13.7427 24.9563C14.1717 24.9563 14.5209 24.6071 14.5209 24.1788V21.3522C14.5209 20.9232 14.1717 20.574 13.7427 20.574Z" fill="black"/>
<path d="M7.77314 26.57C6.45459 26.57 5.38281 25.4974 5.38281 24.1797V21.3522C5.38281 20.0337 6.45459 18.9619 7.77314 18.9619C9.09168 18.9619 10.1643 20.0345 10.1643 21.3522V24.1797C10.1643 25.4982 9.09168 26.57 7.77314 26.57ZM7.77314 20.574C7.34491 20.574 6.99572 20.9232 6.99572 21.3514V24.1788C6.99572 24.6079 7.34491 24.9563 7.77314 24.9563C8.20217 24.9563 8.55136 24.6071 8.55136 24.1788V21.3522C8.55136 20.9232 8.20217 20.574 7.77314 20.574Z" fill="black"/>
</svg>
