<svg width="50" height="50" viewBox="0 0 50 50" fill="none" xmlns="http://www.w3.org/2000/svg">
<path d="M6.06738 23.4968V44.5C6.06738 44.7761 6.29126 45 6.56738 45H43.4336C43.7097 45 43.9336 44.7761 43.9336 44.5V23.4971C44.5879 22.896 45.0012 22.0364 45.0012 21.0801C45.0012 21.0557 44.9995 21.031 44.9958 21.0068L43.9976 14.2673V7.86035C43.9976 7.58423 43.7737 7.36035 43.4976 7.36035H32.4465C30.9666 5.8999 28.144 5 25.0005 5C21.8572 5 19.0347 5.8999 17.5547 7.36035H6.50342C6.22729 7.36035 6.00342 7.58423 6.00342 7.86035V14.2834L5.00537 21.0066C5.00171 21.031 5 21.0554 5 21.0801C5 22.0363 5.41318 22.8958 6.06738 23.4968ZM7.06738 24.1291C7.44464 24.2804 7.85519 24.366 8.28589 24.366C9.46078 24.366 10.4906 23.744 11.0716 22.8141C11.6526 23.744 12.6825 24.366 13.8574 24.366C15.0323 24.366 16.0622 23.744 16.6431 22.8141C17.1398 23.6092 17.9652 24.1756 18.929 24.3238V44H7.06738V24.1291ZM16.1431 14.8125V21.0801C16.1431 22.3406 15.1177 23.366 13.8574 23.366C12.5969 23.366 11.5715 22.3406 11.5715 21.0801V14.8125H16.1431ZM38.4294 21.0801C38.4294 22.3406 37.4041 23.366 36.1438 23.366C34.8833 23.366 33.8579 22.3406 33.8579 21.0801V14.8125H38.4294V21.0801ZM32.8579 21.0801C32.8579 22.3406 31.8325 23.366 30.5723 23.366C29.3118 23.366 28.2864 22.3406 28.2864 21.0801V14.8125H32.8579V21.0801ZM27.2864 21.0801C27.2864 22.3406 26.261 23.366 25.0005 23.366C23.7402 23.366 22.7148 22.3406 22.7148 21.0801V14.8125H27.2864V21.0801ZM21.7148 21.0801C21.7148 22.3406 20.6895 23.366 19.429 23.366C18.1685 23.366 17.1431 22.3406 17.1431 21.0801V14.8125H21.7148V21.0801ZM19.929 44V35.4512H42.9336V44H19.929ZM42.9336 34.4512H19.929V24.3238C20.8927 24.1756 21.7181 23.6092 22.2148 22.8141C22.7957 23.744 23.8256 24.366 25.0005 24.366C26.1754 24.366 27.2054 23.744 27.7864 22.8141C28.3674 23.744 29.3973 24.366 30.5723 24.366C31.7472 24.366 32.777 23.744 33.3579 22.8141C33.9389 23.744 34.9689 24.366 36.1438 24.366C37.3187 24.366 38.3485 23.744 38.9295 22.8141C39.5105 23.744 40.5404 24.366 41.7153 24.366C42.1459 24.366 42.5564 24.2804 42.9336 24.1291V34.4512ZM41.7153 23.366C40.4548 23.366 39.4294 22.3406 39.4294 21.0801V14.8125H43.0674L44.001 21.1152C43.9822 22.3594 42.9641 23.366 41.7153 23.366ZM7.00342 8.36035H17.7666C17.9065 8.36035 18.0398 8.30176 18.1345 8.19897C19.3635 6.86304 22.0586 6 25.0005 6C27.9424 6 30.6377 6.86304 31.8667 8.19897C31.9614 8.30176 32.0947 8.36035 32.2346 8.36035H42.9976V13.8125H7.00342V8.36035ZM6.93594 14.8125H10.5715V21.0801C10.5715 22.3406 9.54614 23.366 8.28589 23.366C7.03711 23.366 6.01904 22.3596 6.00024 21.1152L6.93594 14.8125Z" fill="black"/>
<path d="M15.8118 35.4971H10.1797C9.90356 35.4971 9.67969 35.7209 9.67969 35.9971V40.9585C9.67969 41.2346 9.90356 41.4585 10.1797 41.4585H15.8118C16.0879 41.4585 16.3118 41.2346 16.3118 40.9585V35.9971C16.3118 35.7209 16.0879 35.4971 15.8118 35.4971V35.4971ZM15.3118 40.4585H10.6797V36.4971H15.3118V40.4585Z" fill="black"/>
<path d="M10.1875 33.4912H15.803C16.0791 33.4912 16.303 33.2673 16.303 32.9912V28.929C16.303 27.1448 14.8516 25.6934 13.0674 25.6934H12.9231C11.1389 25.6934 9.6875 27.1448 9.6875 28.929V32.9912C9.6875 33.2673 9.91138 33.4912 10.1875 33.4912V33.4912ZM10.6875 28.929C10.6875 27.6963 11.6904 26.6934 12.9231 26.6934H13.0674C14.3 26.6934 15.303 27.6963 15.303 28.929V32.4912H10.6875V28.929Z" fill="black"/>
</svg>
