<svg width="51" height="51" viewBox="0 0 51 51" fill="none" xmlns="http://www.w3.org/2000/svg">
<g clip-path="url(#clip0_23715_49894)">
<path d="M9.00781 4.23027V47.9103C9.00781 48.1943 9.23789 48.4241 9.52168 48.4241C9.80547 48.4241 10.0355 48.1942 10.0355 47.9103V4.23027C10.0355 3.09658 10.9577 2.17471 12.0911 2.17471H39.6044C40.7378 2.17471 41.66 3.09658 41.66 4.23027V47.9103C41.66 48.1943 41.89 48.4241 42.1738 48.4241C42.4576 48.4241 42.6877 48.1942 42.6877 47.9103V4.23027C42.6877 2.53008 41.3046 1.14697 39.6044 1.14697H12.0911C10.3909 1.14697 9.00781 2.53008 9.00781 4.23027V4.23027Z" fill="black"/>
<path d="M38.059 32.1857C38.059 31.9017 37.8289 31.6719 37.5451 31.6719C37.2613 31.6719 37.0312 31.9018 37.0312 32.1857V33.907C37.0312 34.1911 37.2613 34.4209 37.5451 34.4209C37.8289 34.4209 38.059 34.191 38.059 33.907V32.1857Z" fill="black"/>
<path d="M37.5451 35.4585C37.2613 35.4585 37.0312 35.6884 37.0312 35.9724V47.9101C37.0312 48.1941 37.2613 48.4239 37.5451 48.4239C37.8289 48.4239 38.059 48.194 38.059 47.9101V35.9724C38.059 35.6883 37.8289 35.4585 37.5451 35.4585Z" fill="black"/>
<path d="M38.0627 10.9108C38.0627 10.6268 37.8326 10.397 37.5488 10.397H14.1467C13.8629 10.397 13.6328 10.6269 13.6328 10.9108V47.9104C13.6328 48.1944 13.8629 48.4242 14.1467 48.4242C14.4305 48.4242 14.6605 48.1943 14.6605 47.9104V11.4247H25.3339V47.9104C25.3339 48.1944 25.564 48.4242 25.8478 48.4242C26.1315 48.4242 26.3616 48.1943 26.3616 47.9104V11.4247H37.035V27.6893C37.035 27.9733 37.265 28.2031 37.5488 28.2031C37.8326 28.2031 38.0627 27.9732 38.0627 27.6893V10.9108Z" fill="black"/>
<path d="M6.14062 49.9641C6.14062 50.2481 6.3707 50.4779 6.65449 50.4779H45.0351C45.3188 50.4779 45.5489 50.248 45.5489 49.9641C45.5489 49.6801 45.3188 49.4502 45.0351 49.4502H6.65459C6.3708 49.4502 6.14062 49.6801 6.14062 49.9641V49.9641Z" fill="black"/>
<path d="M31.0679 8.3666C32.1982 8.3666 33.1182 7.44678 33.1182 6.3166C33.1182 5.18594 32.1983 4.26611 31.0679 4.26611H20.6206C19.4902 4.26611 18.5703 5.18594 18.5703 6.3166C18.5703 7.44678 19.4901 8.3666 20.6206 8.3666H31.0679ZM19.5981 6.3165C19.5981 5.75244 20.0568 5.29375 20.6206 5.29375H31.0679C31.6316 5.29375 32.0903 5.75244 32.0903 6.3165C32.0903 6.88008 31.6316 7.33877 31.0679 7.33877H20.6206C20.0568 7.33877 19.5981 6.88008 19.5981 6.3165V6.3165Z" fill="black"/>
<path d="M49.8246 23.8916L48.0246 22.0919C47.8256 21.8925 47.4975 21.8912 47.2973 22.0919C46.1544 23.4203 44.8802 24.0015 45.497 24.6183C45.6978 24.8191 46.0229 24.8191 46.2237 24.6183L47.147 23.6953V29.168C47.147 29.4521 47.3771 29.6819 47.6609 29.6819C47.9447 29.6819 48.1747 29.452 48.1747 29.168V23.6954L49.0979 24.6183C49.2986 24.819 49.6238 24.8191 49.8245 24.6183C50.0254 24.4176 50.0254 24.0924 49.8246 23.8916V23.8916Z" fill="black"/>
<path d="M4.03301 21.9414C3.74922 21.9414 3.51914 22.1713 3.51914 22.4553V27.9279L2.596 27.005C2.39521 26.8042 2.07012 26.8042 1.86934 27.005C1.66855 27.2058 1.66855 27.5309 1.86934 27.7316L3.66934 29.5313C3.87334 29.7357 4.20068 29.7277 4.39668 29.5313L6.19697 27.7316C6.39775 27.5309 6.39775 27.2058 6.19697 27.005C5.99619 26.8042 5.67109 26.8042 5.47031 27.005L4.54697 27.928V22.4553C4.54688 22.1712 4.3168 21.9414 4.03301 21.9414V21.9414Z" fill="black"/>
</g>
<defs>
<clipPath id="clip0_23715_49894">
<rect width="50" height="50" fill="white" transform="translate(0.84375 0.8125)"/>
</clipPath>
</defs>
</svg>
