<svg width="42" height="50" viewBox="0 0 42 50" fill="none" xmlns="http://www.w3.org/2000/svg">
<path d="M25 5H8.33333C7.87312 5 7.5 5.37312 7.5 5.83333V15.8333C7.5 16.2935 7.87312 16.6667 8.33333 16.6667H25C25.4602 16.6667 25.8333 16.2935 25.8333 15.8333V5.83333C25.8333 5.37312 25.4602 5 25 5ZM24.1667 15H9.16667V6.66667H24.1667V15Z" fill="black"/>
<path d="M22.5026 11.6665H20.8359V13.3332H22.5026V11.6665Z" fill="black"/>
<path d="M19.1667 11.6665H17.5V13.3332H19.1667V11.6665Z" fill="black"/>
<path d="M15.8307 11.6665H14.1641V13.3332H15.8307V11.6665Z" fill="black"/>
<path d="M22.5009 28.3335H19.4084L23.235 21.2285C23.4535 20.8234 23.3022 20.3179 22.8972 20.0994C22.6171 19.9484 22.2755 19.9699 22.0167 20.1551L10.35 28.4885C9.97544 28.7558 9.88835 29.2762 10.1557 29.6509C10.3122 29.87 10.5649 30.0002 10.8342 30.0001H13.9267L10.1 37.1051C9.88158 37.5102 10.0328 38.0157 10.4378 38.2342C10.7179 38.3852 11.0595 38.3637 11.3184 38.1785L22.985 29.8451C23.3596 29.5778 23.4467 29.0574 23.1793 28.6827C23.0228 28.4636 22.7701 28.3335 22.5009 28.3335ZM13.2684 34.7376L16.0559 29.5618C16.274 29.1566 16.1223 28.6512 15.7171 28.433C15.5955 28.3676 15.4597 28.3335 15.3217 28.3335H13.4342L20.0667 23.596L17.2792 28.7718C17.0611 29.177 17.2127 29.6824 17.6179 29.9006C17.7395 29.966 17.8753 30.0001 18.0134 30.0001H19.9009L13.2684 34.7376Z" fill="black"/>
<path d="M40.8333 4.16667H40V0.833333C40 0.373125 39.6269 0 39.1667 0C38.7065 0 38.3333 0.373125 38.3333 0.833333V4.16667H36.6667V0.833333C36.6667 0.373125 36.2935 0 35.8333 0C35.3731 0 35 0.373125 35 0.833333V4.16667H34.1667C33.7065 4.16667 33.3333 4.53979 33.3333 5V10C33.3358 11.9793 34.728 13.6847 36.6667 14.0833V38.3333C36.6667 39.0236 36.107 39.5833 35.4167 39.5833C34.7264 39.5833 34.1667 39.0236 34.1667 38.3333V19.7067C34.1648 18.5299 33.4574 17.469 32.3717 17.015L30 16.0958V4.16667C29.9973 1.86667 28.1333 0.00270833 25.8333 0H7.5C5.2 0.00270833 3.33604 1.86667 3.33333 4.16667V43.3333H0.833333C0.373125 43.3333 0 43.7065 0 44.1667V49.1667C0 49.6269 0.373125 50 0.833333 50H32.5C32.9602 50 33.3333 49.6269 33.3333 49.1667V44.1667C33.3333 43.7065 32.9602 43.3333 32.5 43.3333H30V17.8833L31.7425 18.5583C32.2019 18.7552 32.4998 19.2069 32.5 19.7067V38.3333C32.5 39.9442 33.8058 41.25 35.4167 41.25C37.0275 41.25 38.3333 39.9442 38.3333 38.3333V14.0833C40.272 13.6847 41.6642 11.9793 41.6667 10V5C41.6667 4.53979 41.2935 4.16667 40.8333 4.16667ZM5 4.16667C5 2.78594 6.11927 1.66667 7.5 1.66667H25.8333C27.2141 1.66667 28.3333 2.78594 28.3333 4.16667V43.3333H5V4.16667ZM31.6667 45V48.3333H1.66667V45H31.6667ZM40 10C40 11.3807 38.8807 12.5 37.5 12.5C36.1193 12.5 35 11.3807 35 10V5.83333H40V10Z" fill="black"/>
</svg>
