<svg width="33" height="32" viewBox="0 0 33 32" fill="none" xmlns="http://www.w3.org/2000/svg">
<g clip-path="url(#clip0_479_51014)">
<path d="M29.2918 5.85938H4.3296C3.99283 5.85958 3.66992 5.99346 3.43178 6.23159C3.19365 6.46972 3.05978 6.79264 3.05957 7.12941V30.0325C3.05978 30.3693 3.19365 30.6922 3.43178 30.9303C3.66992 31.1684 3.99283 31.3023 4.3296 31.3025H29.2918C29.6286 31.3023 29.9516 31.1685 30.1897 30.9304C30.4279 30.6922 30.5618 30.3693 30.562 30.0325V7.12941C30.5618 6.79262 30.4279 6.46968 30.1897 6.23154C29.9516 5.99341 29.6286 5.85955 29.2918 5.85938Z" fill="#C6C6C6"/>
<path d="M27.6486 23.344H5.97316C5.27178 23.344 4.70312 22.7753 4.70312 22.074V1.8379C4.70312 1.13653 5.27178 0.567871 5.97316 0.567871H27.6486C28.3499 0.567871 28.9186 1.13653 28.9186 1.8379V22.074C28.9186 22.7753 28.3499 23.344 27.6486 23.344Z" fill="#F9F9F9"/>
<path d="M5.10522 22.4759V2.24C5.10522 1.53863 5.67388 0.969969 6.37526 0.969969H28.0507C28.2984 0.969969 28.5287 1.04197 28.724 1.16459C28.4995 0.80656 28.1023 0.567871 27.6486 0.567871H5.97316C5.27178 0.567871 4.70312 1.13653 4.70312 1.8379V22.074C4.70312 22.5279 4.94181 22.9249 5.29985 23.1495C5.17722 22.9541 5.10522 22.7238 5.10522 22.4761V22.4759Z" fill="url(#paint0_linear_479_51014)"/>
<path d="M24.982 4.84326H8.64062V5.77454H24.982V4.84326ZM24.982 8.3992H8.64062V9.33048H24.982V8.3992ZM24.982 11.9559H8.64062V12.8872H24.982V11.9559ZM24.982 15.5119H8.64062V16.4433H24.982V15.5119Z" fill="white"/>
<path d="M10.5879 12.5059L14.6943 16.6124H10.5879V12.5059Z" fill="url(#paint1_linear_479_51014)"/>
<path d="M30.5624 16.9512V7.50292L28.9189 5.85938V16.951H30.5624V16.9512Z" fill="#C6C6C6"/>
<path d="M32.4873 17.8058L30.7166 30.3398C30.6281 30.9664 30.0919 31.4322 29.4591 31.4322H4.16307C3.53028 31.4322 2.99402 30.9664 2.9055 30.3398L0.512709 13.4033C0.404774 12.6387 0.998086 11.9556 1.77028 11.9556H9.58222C10.215 11.9556 10.7513 12.4213 10.8398 13.0478L11.1534 15.2657C11.2419 15.8924 11.7782 16.3581 12.4109 16.3581H31.23C32.0019 16.3581 32.5953 17.0412 32.4874 17.8058H32.4873Z" fill="url(#paint2_linear_479_51014)"/>
<path d="M26.2138 25.8417H7.40864C7.30556 25.8417 7.20604 25.804 7.12871 25.7359C7.05139 25.6677 7.00156 25.5737 6.98857 25.4715L6.75329 23.6087C6.74582 23.5491 6.7511 23.4886 6.76879 23.4312C6.78648 23.3738 6.81617 23.3208 6.8559 23.2757C6.89562 23.2307 6.94447 23.1946 6.9992 23.1699C7.05393 23.1452 7.1133 23.1324 7.17336 23.1323H26.449C26.5091 23.1324 26.5685 23.1452 26.6232 23.1699C26.6779 23.1946 26.7268 23.2307 26.7665 23.2757C26.8062 23.3208 26.8359 23.3738 26.8536 23.4312C26.8713 23.4886 26.8766 23.5491 26.8691 23.6087L26.6338 25.4715C26.6208 25.5737 26.571 25.6677 26.4937 25.7359C26.4164 25.804 26.3168 25.8417 26.2138 25.8417V25.8417Z" fill="#D5D5D5"/>
</g>
<defs>
<linearGradient id="paint0_linear_479_51014" x1="17.5556" y1="12.6993" x2="1.49394" y2="-3.36249" gradientUnits="userSpaceOnUse">
<stop stop-color="white"/>
</linearGradient>
<linearGradient id="paint1_linear_479_51014" x1="13.3009" y1="17.2712" x2="8.3374" y2="12.3078" gradientUnits="userSpaceOnUse">
<stop stop-color="#C2CECE" stop-opacity="0"/>
<stop offset="0.179" stop-color="#AFBCBC" stop-opacity="0.179"/>
<stop offset="1" stop-color="#5B6A6A"/>
</linearGradient>
<linearGradient id="paint2_linear_479_51014" x1="16.5" y1="11.9556" x2="16.5" y2="31.4322" gradientUnits="userSpaceOnUse">
<stop stop-color="#EEF0F4"/>
<stop offset="0.927" stop-color="#E4E4E4"/>
</linearGradient>
<clipPath id="clip0_479_51014">
<rect width="32" height="32" fill="white" transform="translate(0.5)"/>
</clipPath>
</defs>
</svg>
