<svg width="48" height="48" viewBox="0 0 48 48" fill="none" xmlns="http://www.w3.org/2000/svg">
<path fill-rule="evenodd" clip-rule="evenodd" d="M14.1461 24C14.1461 15.1634 21.2768 8 30.073 8C38.8693 8 46 15.1634 46 24C46 32.8366 38.8693 40 30.073 40C21.2768 40 14.1461 32.8366 14.1461 24ZM31.0204 13.7835C31.0204 13.0892 30.4575 12.5263 29.7632 12.5263C29.0689 12.5263 28.5061 13.0892 28.5061 13.7835V15.1096H27.1441C25.8382 15.1096 24.5858 15.6308 23.6624 16.5584C22.739 17.486 22.2202 18.7442 22.2202 20.0561C22.2202 21.368 22.739 22.6261 23.6624 23.5538C24.5858 24.4814 25.8382 25.0026 27.1441 25.0026H32.3823C33.0214 25.0026 33.6343 25.2576 34.0862 25.7116C34.538 26.1655 34.7919 26.7812 34.7919 27.4232C34.7919 28.0652 34.538 28.6809 34.0862 29.1348C33.6343 29.5888 33.0214 29.8438 32.3823 29.8438H24.5571C23.8596 29.8438 23.2942 30.4093 23.2942 31.1068C23.2942 31.8043 23.8596 32.3697 24.5571 32.3697H28.5061V33.8872C28.5061 34.5815 29.0689 35.1443 29.7632 35.1443C30.4575 35.1443 31.0204 34.5815 31.0204 33.8872V32.3697H32.3823C33.6882 32.3697 34.9406 31.8486 35.8641 30.9209C36.7875 29.9933 37.3062 28.7351 37.3062 27.4232C37.3062 26.1113 36.7875 24.8532 35.8641 23.9255C34.9406 22.9979 33.6882 22.4767 32.3823 22.4767H27.1441C26.5051 22.4767 25.8922 22.2217 25.4403 21.7677C24.9884 21.3138 24.7346 20.6981 24.7346 20.0561C24.7346 19.4141 24.9884 18.7984 25.4403 18.3445C25.8922 17.8905 26.5051 17.6355 27.1441 17.6355H34.329C35.0265 17.6355 35.5919 17.07 35.5919 16.3725C35.5919 15.675 35.0265 15.1096 34.329 15.1096H31.0204V13.7835Z" fill="#FFAB00"/>
<path d="M5.31281 22.8907C5.31281 22.0188 6.01637 21.312 6.88427 21.312H10.1971C11.065 21.312 11.7685 22.0188 11.7685 22.8907C11.7685 23.7625 11.065 24.4693 10.1971 24.4693H6.88427C6.01637 24.4693 5.31281 23.7625 5.31281 22.8907Z" fill="#FFAB00"/>
<path d="M4.20854 36.2027C4.20854 35.3308 4.91211 34.624 5.78 34.624H13.5099C14.3778 34.624 15.0813 35.3308 15.0813 36.2027C15.0813 37.0745 14.3778 37.7813 13.5099 37.7813H5.78C4.91211 37.7813 4.20854 37.0745 4.20854 36.2027Z" fill="#FFAB00"/>
<path d="M2 29.5467C2 28.6748 2.70357 27.968 3.57146 27.968H11.3013C12.1692 27.968 12.8728 28.6748 12.8728 29.5467C12.8728 30.4185 12.1692 31.1253 11.3013 31.1253H3.57146C2.70357 31.1253 2 30.4185 2 29.5467Z" fill="#FFAB00"/>
</svg>
