<svg width="48" height="48" viewBox="0 0 48 48" fill="none" xmlns="http://www.w3.org/2000/svg">
<path fill-rule="evenodd" clip-rule="evenodd" d="M28.7141 9.60295C26.6989 8.85438 24.5125 8.44444 22.2278 8.44444C12.1609 8.44444 4 16.4038 4 26.2222C4 36.0406 12.1609 44 22.2278 44C32.2948 44 40.4557 36.0406 40.4557 26.2222C40.4557 24.8236 40.2901 23.4627 39.977 22.1571C39.4727 22.2325 38.9562 22.2716 38.4304 22.2716C32.8376 22.2716 28.3038 17.8497 28.3038 12.3951C28.3038 11.4254 28.4471 10.4883 28.7141 9.60295ZM22.2277 14.5266C23.0225 14.5266 23.6668 15.1709 23.6668 15.9657V17.206H27.1473C27.9224 17.206 28.5508 17.8344 28.5508 18.6096C28.5508 19.3847 27.9224 20.0131 27.1473 20.0131H19.4296C18.7723 20.0131 18.1419 20.2677 17.6772 20.721C17.2124 21.1743 16.9513 21.7891 16.9513 22.4302C16.9513 23.0713 17.2124 23.6861 17.6772 24.1394C18.1419 24.5927 18.7723 24.8474 19.4296 24.8474H25.0259C26.4465 24.8474 27.8089 25.3978 28.8134 26.3775C29.818 27.3572 30.3823 28.686 30.3823 30.0715C30.3823 31.4571 29.818 32.7859 28.8134 33.7656C27.8089 34.7453 26.4465 35.2957 25.0259 35.2957H23.6668V36.7346C23.6668 37.5293 23.0225 38.1736 22.2277 38.1736C21.433 38.1736 20.7887 37.5293 20.7887 36.7346V35.2957H16.6241C15.8489 35.2957 15.2206 34.6673 15.2206 33.8922C15.2206 33.1171 15.8489 32.4887 16.6241 32.4887H25.0259C25.6832 32.4887 26.3136 32.234 26.7783 31.7807C27.2431 31.3274 27.5042 30.7126 27.5042 30.0715C27.5042 29.4305 27.2431 28.8157 26.7783 28.3624C26.3136 27.9091 25.6832 27.6544 25.0259 27.6544H19.4296C18.009 27.6544 16.6466 27.104 15.642 26.1243C14.6375 25.1445 14.0732 23.8158 14.0732 22.4302C14.0732 21.0447 14.6375 19.7159 15.642 18.7362C16.6466 17.7564 18.009 17.206 19.4296 17.206H20.7887V15.9657C20.7887 15.1709 21.433 14.5266 22.2277 14.5266Z" fill="#F08F35"/>
<path d="M37.4792 19.3686C36.886 19.9471 35.9242 19.9471 35.331 19.3686L31.2803 15.4179C31.1347 15.2759 31.0248 15.1122 30.9507 14.9375C30.8764 14.7628 30.8354 14.5712 30.8354 14.3704C30.8354 14.1695 30.8764 13.978 30.9507 13.8033C31.0248 13.6285 31.1347 13.4648 31.2803 13.3228C31.5758 13.0347 31.9627 12.89 32.3499 12.8889L32.3544 12.8889H42.481C43.3199 12.8889 44 13.5522 44 14.3704C44 15.1886 43.3199 15.8519 42.481 15.8519H36.0216L37.4792 17.2734C38.0724 17.852 38.0724 18.79 37.4792 19.3686Z" fill="#F08F35"/>
<path d="M39.5045 4.43392C38.9113 3.85536 37.9495 3.85536 37.3563 4.43392C36.7631 5.01247 36.7631 5.95049 37.3563 6.52905L38.8139 7.95062H32.3544C31.5155 7.95062 30.8354 8.6139 30.8354 9.4321C30.8354 10.2503 31.5155 10.9136 32.3544 10.9136H42.481C42.687 10.9136 42.8834 10.8736 43.0625 10.8012C43.2416 10.7289 43.4095 10.6217 43.5551 10.4797C43.8505 10.1915 43.9988 9.8142 44 9.43654L44 9.4321L44 9.42765C43.9994 9.2284 43.9585 9.0384 43.8847 8.86501C43.8106 8.69028 43.7007 8.52657 43.5551 8.38453L39.5045 4.43392Z" fill="#F08F35"/>
</svg>
