<svg width="48" height="48" viewBox="0 0 48 48" fill="none" xmlns="http://www.w3.org/2000/svg">
<path fill-rule="evenodd" clip-rule="evenodd" d="M5 24C5 13.5066 13.5066 5 24 5C34.4934 5 43 13.5066 43 24C43 34.4934 34.4934 43 24 43C13.5066 43 5 34.4934 5 24ZM25.5557 14.1976V12.834C25.5557 12.0056 24.8841 11.334 24.0557 11.334C23.2272 11.334 22.5557 12.0056 22.5557 12.834V14.1976H21.139C19.6582 14.1976 18.2381 14.7859 17.191 15.8329C16.1439 16.88 15.5557 18.3002 15.5557 19.781C15.5557 21.2617 16.1439 22.6819 17.191 23.729C18.2381 24.776 19.6582 25.3643 21.139 25.3643H26.9723C27.6575 25.3643 28.3146 25.6365 28.799 26.1209C29.2835 26.6054 29.5557 27.2625 29.5557 27.9476C29.5557 28.6328 29.2835 29.2898 28.799 29.7743C28.3146 30.2588 27.6575 30.531 26.9723 30.531H18.2516C17.4232 30.531 16.7516 31.2025 16.7516 32.031C16.7516 32.8594 17.4232 33.531 18.2516 33.531H22.5557V35.1067C22.5557 35.9351 23.2272 36.6067 24.0557 36.6067C24.8841 36.6067 25.5557 35.9351 25.5557 35.1067V33.531H26.9723C28.4531 33.531 29.8733 32.9427 30.9203 31.8956C31.9674 30.8486 32.5557 29.4284 32.5557 27.9476C32.5557 26.4668 31.9674 25.0467 30.9203 23.9996C29.8733 22.9525 28.4531 22.3643 26.9723 22.3643H21.139C20.4539 22.3643 19.7968 22.0921 19.3123 21.6076C18.8278 21.1232 18.5557 20.4661 18.5557 19.781C18.5557 19.0958 18.8278 18.4387 19.3123 17.9543C19.7968 17.4698 20.4539 17.1976 21.139 17.1976H29.1466C29.975 17.1976 30.6466 16.526 30.6466 15.6976C30.6466 14.8692 29.975 14.1976 29.1466 14.1976H25.5557Z" fill="#7E73FF"/>
</svg>
