<svg width="389" height="165" viewBox="0 0 389 165" fill="none" xmlns="http://www.w3.org/2000/svg">
<circle cx="371.5" cy="79.5" r="8.5" transform="rotate(90 371.5 79.5)" fill="#ECECF3"/>
<circle cx="277" cy="131" r="12" transform="rotate(90 277 131)" fill="#BBB8F1"/>
<circle cx="110" cy="12" r="6" transform="rotate(90 110 12)" fill="#ECECF3"/>
<circle cx="18" cy="65" r="6" transform="rotate(90 18 65)" fill="#ECECF3"/>
<path d="M372.152 103.06C378.447 106.245 383.117 109.631 385.924 113.163L385.141 113.785C387.059 116.199 388 118.605 388 121C388 123.395 387.059 125.801 385.141 128.215L385.924 128.837C383.117 132.369 378.447 135.755 372.152 138.94L371.7 138.048C367.244 140.303 361.946 142.464 355.889 144.51L356.209 145.457C351.198 147.15 345.68 148.759 339.706 150.275L339.461 149.305C334.228 150.633 328.64 151.888 322.731 153.064L322.926 154.045C317.535 155.118 311.88 156.125 305.984 157.059L305.828 156.072C300.357 156.939 294.679 157.744 288.813 158.482L288.938 159.475C283.397 160.172 277.691 160.81 271.834 161.385L271.736 160.389C266.162 160.937 260.451 161.426 254.619 161.855L254.692 162.852C249.076 163.266 243.348 163.622 237.52 163.92L237.469 162.921C231.834 163.209 226.105 163.442 220.295 163.616L220.325 164.616C214.66 164.786 208.919 164.9 203.111 164.958L203.101 163.958C200.25 163.986 197.382 164 194.5 164C191.618 164 188.75 163.986 185.899 163.958L185.889 164.958C180.081 164.9 174.34 164.786 168.675 164.616L168.705 163.616C162.895 163.442 157.167 163.209 151.531 162.921L151.48 163.92C145.652 163.622 139.924 163.266 134.308 162.852L134.381 161.855C128.549 161.426 122.838 160.937 117.264 160.389L117.166 161.385C111.31 160.81 105.603 160.172 100.062 159.475L100.187 158.482C94.3212 157.744 88.643 156.939 83.1725 156.072L83.016 157.059C77.1206 156.125 71.4649 155.118 66.0739 154.045L66.2692 153.064C60.3601 151.888 54.7726 150.633 49.5395 149.305L49.2937 150.275C43.3198 148.759 37.8025 147.15 32.7907 145.457L33.1107 144.51C27.0538 142.464 21.7566 140.303 17.2998 138.048L16.8483 138.94C10.5535 135.755 5.88341 132.369 3.07648 128.837L3.85935 128.215C1.94101 125.801 1.00006 123.395 1.00006 121C1.00006 118.605 1.94101 116.199 3.85936 113.785L3.07649 113.163C5.88341 109.631 10.5535 106.245 16.8483 103.06L17.2998 103.952C21.7565 101.697 27.0538 99.5355 33.1106 97.4901L32.7907 96.5427C37.8025 94.8502 43.3198 93.2408 49.2936 91.7254L49.5395 92.6947C54.7726 91.3673 60.3601 90.1116 66.2691 88.9355L66.0739 87.9547C71.4649 86.8817 77.1206 85.8751 83.016 84.9406L83.1725 85.9282C88.643 85.0611 94.3212 84.256 100.187 83.5176L100.062 82.5254C105.603 81.828 111.31 81.19 117.166 80.6153L117.264 81.6105C122.838 81.0634 128.549 80.5738 134.381 80.1448L134.308 79.1475C139.924 78.7344 145.652 78.3776 151.48 78.0799L151.531 79.0786C157.167 78.7908 162.895 78.5583 168.705 78.384L168.675 77.3844C174.34 77.2144 180.081 77.0996 185.889 77.0423L185.899 78.0423C188.75 78.0142 191.618 78 194.5 78C197.382 78 200.25 78.0142 203.101 78.0423L203.111 77.0423C208.919 77.0996 214.66 77.2144 220.325 77.3844L220.295 78.384C226.105 78.5583 231.834 78.7908 237.469 79.0786L237.52 78.0799C243.348 78.3776 249.076 78.7344 254.692 79.1475L254.619 80.1448C260.451 80.5737 266.162 81.0634 271.736 81.6105L271.834 80.6153C277.69 81.19 283.397 81.828 288.938 82.5254L288.813 83.5176C294.679 84.256 300.357 85.0611 305.828 85.9282L305.984 84.9406C311.88 85.875 317.535 86.8816 322.926 87.9547L322.731 88.9355C328.64 90.1116 334.228 91.3673 339.461 92.6947L339.706 91.7254C345.68 93.2408 351.198 94.8502 356.209 96.5427L355.889 97.4901C361.946 99.5355 367.244 101.697 371.7 103.952L372.152 103.06Z" stroke="#5346E0" stroke-width="2" stroke-dasharray="16 16"/>
<circle cx="29.5" cy="96.5" r="11.5" fill="#5346E0"/>
</svg>
