<svg width="40" height="40" viewBox="0 0 40 40" fill="none" xmlns="http://www.w3.org/2000/svg">
<path d="M6.09889 18.9798C6.00862 18.9197 5.9334 18.9347 5.87322 19.0398L5.1511 20.3307H6.35464L6.80596 21.1714C6.18915 21.1714 5.5573 21.1714 4.94048 21.1714C4.62456 21.1563 4.48916 21.5616 4.30863 21.8919H2.99979L5.07588 18.0941L6.91127 18.1091L8.49091 20.9762C9.34843 20.9462 10.9431 20.9462 11.4095 20.9462C11.7254 20.9162 11.6502 20.3758 11.4095 20.3458H8.73161L7.49799 18.0941H10.8829C11.0635 18.0941 11.575 18.0791 11.9511 18.0941C11.9661 18.0941 11.9812 18.0941 11.9962 18.0941C12.2068 18.1241 12.3121 18.1842 12.4325 18.3193C12.5829 18.4694 12.6281 18.7246 12.6281 18.9647C12.6281 19.1749 12.613 19.3851 12.5679 19.5352C12.4776 19.7753 12.3272 19.8954 12.1466 19.9405C12.4325 19.9705 12.7334 20.0756 12.7785 20.631C12.7935 20.7511 12.8086 20.9012 12.7935 21.0663C12.7785 21.3665 12.6581 21.6217 12.4325 21.7118C11.9059 21.9219 11.0033 21.8469 10.6573 21.8619L8.77675 21.8769C8.71657 21.8769 8.65639 21.8769 8.59622 21.8619H7.70861C7.16702 20.9162 6.62543 19.9555 6.09889 18.9798ZM9.43869 19.5802C9.81479 19.5802 10.7174 19.5802 11.1086 19.5802C11.59 19.5952 11.4997 19.0698 11.259 19.0248C11.2289 19.0248 11.2139 19.0098 11.1838 19.0098C10.6723 19.0098 9.46878 19.0098 9.12276 19.0098L9.43869 19.5802ZM13.2599 18.1091H16.4342C16.7201 18.1091 17.5475 18.0491 17.9687 18.3943C18.1342 18.5294 18.1794 18.7696 18.1794 19.0098C18.1794 19.2199 18.1643 19.4301 18.1192 19.5802C18.044 19.8204 17.8785 19.9405 17.6979 19.9855C18.059 20.0455 18.39 20.2407 18.3599 21.0513C18.3148 22.1321 16.69 21.9069 16.1935 21.8919L13.2599 21.8469V18.1091V18.1091ZM14.4935 20.9762C14.8696 20.9762 16.359 20.9762 16.7502 20.9762C16.7502 20.9762 16.7502 20.9762 16.7652 20.9762C17.2466 20.9912 17.1413 20.4058 16.9006 20.3608C16.8705 20.3608 16.8856 20.3758 16.8404 20.3758C16.3289 20.3758 14.8395 20.3608 14.4785 20.3608L14.4935 20.9762ZM14.4935 19.5802C14.8696 19.5802 16.2236 19.5802 16.6148 19.5802C17.0962 19.5952 17.0059 19.0698 16.7652 19.0248C16.7351 19.0248 16.7201 19.0098 16.69 19.0098C16.1785 19.0098 14.8546 19.0098 14.4935 19.0098V19.5802ZM24.0917 18.0791H26.2129C26.7696 18.8897 27.3262 19.6853 27.8828 20.4959C28.0634 20.8111 28.2289 20.8862 28.3041 20.646L28.289 19.9705V18.0941H29.5377V21.8769H27.4616C26.8147 20.9912 26.2581 20.1806 25.5961 19.295C25.4758 19.0698 25.3103 19.2049 25.3103 19.355C25.3103 19.4751 25.3103 19.6402 25.3103 19.8054V21.8919L24.1068 21.8769H23.9864C23.9262 21.8769 23.866 21.8769 23.8059 21.8619H22.9183C22.3767 20.9012 21.8501 19.9255 21.3236 18.9647C21.2333 18.9047 21.1581 18.9197 21.0979 19.0248L20.3758 20.3157H21.5192L21.9705 21.1563C21.3537 21.1563 20.782 21.1563 20.1652 21.1563C19.8493 21.1413 19.7139 21.5466 19.5333 21.8769H18.2245L20.3006 18.0941H22.1811L23.7457 20.9762C23.7908 21.0513 23.866 21.2014 23.9262 21.2164C24.0014 21.2464 24.0616 21.2164 24.1068 21.1714V18.0791H24.0917ZM29.9589 18.0941H31.1775V19.4301C31.328 19.7153 31.6589 19.6853 31.9147 19.4001L33.3439 18.0941H34.8332L32.7421 19.9855L34.8934 21.8769H33.374C32.8324 21.3815 32.2457 20.9162 31.7041 20.4208C31.4032 20.2407 31.1625 20.3758 31.1775 20.706C31.1775 20.7811 31.1775 20.8711 31.1775 20.9612V21.8919H29.9439V18.0941H29.9589Z" fill="#00A9AC"/>
<path d="M35.6907 18.0941H36.9093L34.8182 20.0005L36.9996 21.8919H35.766L33.5996 20.0005L35.6907 18.0941Z" fill="#DF762E"/>
</svg>
