<svg width="40" height="40" viewBox="0 0 40 40" fill="none" xmlns="http://www.w3.org/2000/svg">
<g clip-path="url(#clip0_6200_661)">
<path d="M8.49121 13.9653H10.8019C10.9584 13.9653 11.1241 14.0761 11.1794 14.2331L15.1932 25.2291C15.2484 25.3768 15.1656 25.4968 15.0091 25.4968H12.726C12.5695 25.4968 12.4038 25.3768 12.3577 25.2291L11.566 22.8563H7.51537L6.73286 25.2106C6.68683 25.3583 6.51192 25.4783 6.35541 25.4783H4.2012C4.0447 25.4783 3.96184 25.3583 4.01708 25.2106L8.11377 14.2238C8.1598 14.0761 8.33471 13.9653 8.49121 13.9653ZM10.9492 20.8159L9.54991 16.4674L8.12297 20.8159H10.9492Z" fill="#20419A"/>
<path d="M26.0932 13.9653H30.1163C30.8251 13.9653 31.4327 14.0484 31.9298 14.2146C32.427 14.3808 32.8228 14.6024 33.1358 14.8794C33.4488 15.1563 33.6698 15.4795 33.8079 15.8395C33.946 16.1996 34.0104 16.5781 34.0104 16.9659C34.0104 17.3352 33.946 17.6584 33.8171 17.9446C33.6882 18.2215 33.5317 18.4708 33.3476 18.6739C33.1727 18.8771 32.9793 19.034 32.7768 19.154C32.5743 19.2648 32.4086 19.3387 32.2705 19.3756C32.4822 19.4218 32.7124 19.5049 32.9885 19.6249C33.2555 19.7449 33.5133 19.9203 33.7526 20.1419C33.992 20.3635 34.1945 20.6497 34.3602 20.9913C34.5259 21.3329 34.6088 21.7299 34.6088 22.1915C34.6088 22.7917 34.4983 23.2995 34.2866 23.7149C34.0749 24.1304 33.7803 24.472 33.3936 24.7305C33.007 24.9982 32.5374 25.1921 31.9851 25.3122C31.4235 25.4322 30.8067 25.4968 30.1163 25.4968H26.0932C25.9367 25.4968 25.8078 25.3675 25.8078 25.2106V14.2423C25.817 14.0854 25.9459 13.9653 26.0932 13.9653ZM29.8861 18.5724C30.0794 18.5724 30.2728 18.5539 30.4661 18.5078C30.6594 18.4616 30.8251 18.3877 30.9632 18.2954C31.1105 18.1938 31.2302 18.0646 31.313 17.8984C31.4051 17.7322 31.4511 17.5291 31.4511 17.2798C31.4511 17.0213 31.4051 16.8182 31.313 16.652C31.221 16.4858 31.1013 16.3473 30.954 16.255C30.8067 16.1534 30.6318 16.0888 30.4477 16.0427C30.2543 16.0057 30.0702 15.9873 29.8861 15.9873H28.3579V18.5816H29.8861V18.5724ZM30.0334 23.4841C30.2175 23.4841 30.4201 23.4749 30.6502 23.4379C30.8804 23.4102 31.0921 23.3456 31.2854 23.2348C31.4788 23.1333 31.6445 22.9855 31.7733 22.7824C31.9022 22.5885 31.9667 22.3208 31.9667 21.97C31.9667 21.6561 31.9022 21.4068 31.7825 21.2129C31.6537 21.019 31.4972 20.8621 31.3038 20.7513C31.1105 20.6405 30.8988 20.5666 30.6686 20.5297C30.4385 20.4928 30.2267 20.4651 30.0334 20.4651H28.3487V23.4749H30.0334V23.4841Z" fill="#20419A"/>
<path d="M21.0206 21.7859C19.8883 21.7859 18.9677 20.8627 18.9677 19.7271C18.9677 18.5915 19.8883 17.6682 21.0206 17.6682C22.153 17.6682 23.0736 18.5915 23.0736 19.7271C23.0644 20.8627 22.153 21.7859 21.0206 21.7859Z" fill="#00AEEF"/>
<path d="M23.2947 22.4136C22.6778 23.0045 21.8493 23.3738 20.9379 23.3738C19.0046 23.3738 17.4396 21.7397 17.4396 19.727C17.4396 17.7143 19.0046 16.0801 20.9379 16.0801C21.8125 16.0801 22.6226 16.4217 23.2302 16.9757C23.3499 17.0772 23.5248 17.0865 23.6353 16.9757L24.8781 15.7293C24.9886 15.6185 24.9886 15.4338 24.8781 15.3323C23.801 14.2982 22.3464 13.6704 20.7538 13.6704C17.4396 13.6704 14.7514 16.3848 14.7514 19.727C14.7514 23.0692 17.4396 25.7835 20.7538 25.7835C22.3833 25.7835 23.8562 25.128 24.9333 24.057C25.0438 23.9463 25.0438 23.7616 24.9333 23.6508L23.6905 22.4044C23.58 22.3029 23.4051 22.3121 23.2947 22.4136Z" fill="#20419A"/>
</g>
<defs>
<clipPath id="clip0_6200_661">
<rect width="32" height="12.6593" fill="white" transform="translate(4 13.6704)"/>
</clipPath>
</defs>
</svg>
