<svg width="40" height="40" viewBox="0 0 40 40" fill="none" xmlns="http://www.w3.org/2000/svg">
<path d="M32.7236 35H7.27637C6.02332 35 5 33.9738 5 32.7173V7.28272C5 6.02618 6.02332 5 7.27637 5H32.7236C33.9767 5 35 6.02618 35 7.28272V32.7173C34.9896 33.9738 33.9662 35 32.7236 35Z" fill="white"/>
<path d="M34.0502 7.99474C34.0502 6.84291 33.1208 5.94238 31.9931 5.94238H25.8427L5.94017 25.89V32.0157C5.94017 33.1466 6.83819 34.0785 7.98681 34.0785H14.0328L34.0397 14.0576L34.0502 7.99474Z" fill="#AA1E30"/>
<path d="M34.0395 15.3036L15.2856 34.068H31.9824C33.1101 34.068 34.0395 33.1466 34.0395 32.0157V15.3036ZM5.93995 24.6125L24.5895 5.94238H7.98659C6.83796 5.94238 5.9295 6.84291 5.9295 7.99474L5.93995 24.6125Z" fill="#122619"/>
<path d="M15.995 33.7854C15.995 33.7854 17.0601 33.3561 18.0521 33.1781C18.428 33.0943 20.5895 32.5812 20.4851 30.3509C20.4537 29.775 19.5975 30.5079 19.5975 30.5079C19.5975 30.5079 17.885 30.7488 17.1749 31.199C16.8095 31.4189 16.0054 32.2985 15.995 33.7854Z" fill="#FAE404"/>
<path d="M20.2972 30.2355C20.1301 30.2355 19.8169 30.4554 19.6498 30.5916L19.6289 30.6125H19.5976C19.5767 30.6125 17.8955 30.8533 17.2064 31.2827C16.9244 31.4502 16.1517 32.2146 16.0995 33.6387C16.4232 33.513 17.2586 33.2198 18.0313 33.0837C18.7622 32.9162 20.4747 32.3193 20.3807 30.3612C20.3807 30.2355 20.3285 30.2355 20.2972 30.2355ZM15.9011 33.9319V33.7853C15.9115 32.1832 16.7991 31.2931 17.1124 31.1151C17.7911 30.6858 19.3157 30.4554 19.5454 30.4136C19.6498 30.3298 20.0257 30.0261 20.2972 30.0261C20.3807 30.0261 20.5687 30.0575 20.5791 30.3403C20.6836 32.445 18.8562 33.0837 18.0731 33.2617C17.1019 33.4293 16.0473 33.8586 16.0369 33.8586L15.9011 33.9319Z" fill="#AB1F24"/>
<path d="M23.3574 26.6333C23.3574 26.6333 23.7646 29.1569 21.7493 29.9631C20.8931 30.3192 19.6191 30.7171 19.4207 30.916C19.4207 30.916 18.9613 29.1569 20.444 28.0993C20.9244 27.7537 21.8955 27.4291 22.522 27.1987C23.1381 26.9893 23.3574 26.6333 23.3574 26.6333Z" fill="#FAE404"/>
<path d="M23.2847 26.8742C23.1489 26.9999 22.9192 27.1779 22.5642 27.3035L22.3449 27.3873C21.7497 27.5967 20.9248 27.9004 20.5071 28.1936C19.3376 29.0208 19.4211 30.3297 19.4942 30.759C19.7135 30.6334 20.1208 30.4763 20.7055 30.2669C21.0501 30.1412 21.4156 30.0051 21.7184 29.8795C23.2847 29.2407 23.316 27.492 23.2847 26.8742ZM19.3689 31.1151L19.3271 30.9475C19.3167 30.9266 18.8677 29.1151 20.3922 28.0261C20.8308 27.7119 21.6662 27.4082 22.2718 27.1884L22.4911 27.1046C23.055 26.9056 23.2638 26.581 23.2638 26.5706L23.4413 26.6124C23.4518 26.6334 23.8381 29.2302 21.781 30.0575C21.4678 30.1831 21.1127 30.3192 20.7682 30.4449C20.2252 30.6439 19.5986 30.8742 19.4838 30.9894L19.3689 31.1151Z" fill="#AB1F24"/>
<path d="M24.3917 23.5134C24.3917 23.5134 25.6447 25.0422 24.235 26.8014C23.9322 27.2098 22.4285 28.1836 22.0526 28.6338C22.0526 28.6338 21.3008 27.0003 22.2093 25.6705C22.4599 25.2935 23.3161 24.592 23.692 24.3197C24.068 24.037 24.3917 23.5134 24.3917 23.5134Z" fill="#FAE404"/>
<path d="M24.3896 23.691C24.2643 23.869 24.0241 24.1936 23.7422 24.403C23.3872 24.6648 22.5309 25.3664 22.2908 25.7329C21.5807 26.78 21.9357 28.047 22.0924 28.4554C22.3221 28.225 22.7189 27.9318 23.0948 27.6386C23.5438 27.2931 24.0137 26.937 24.1599 26.7486C25.2876 25.3245 24.6402 24.0575 24.3896 23.691ZM22.0297 28.8114L21.9671 28.6648C21.9357 28.5915 21.2048 26.9685 22.1237 25.6072C22.3848 25.2093 23.2514 24.5077 23.6273 24.225C23.9824 23.9632 24.3061 23.4501 24.3061 23.4501L24.3792 23.335L24.4627 23.4397C24.4732 23.4606 25.7471 25.0522 24.3165 26.8533C24.1599 27.0627 23.7004 27.4187 23.2201 27.7852C22.7711 28.1203 22.3117 28.4763 22.1341 28.6857L22.0297 28.8114Z" fill="#AB1F24"/>
<path d="M22.8661 20.1729C22.8661 20.1729 21.6965 20.8535 22.4693 22.8116C22.5424 23.042 23.4508 24.665 23.4821 25.1153C23.4821 25.1153 25.1111 24.11 24.4533 22.0472C24.3593 21.6702 23.597 20.4765 22.8661 20.1729Z" fill="#FAE404"/>
<path d="M22.8764 20.2883C22.678 20.4244 21.9052 21.1155 22.5631 22.7804C22.584 22.8432 22.6884 23.0631 22.8137 23.304C23.1478 23.9636 23.4507 24.5919 23.5551 24.9479C23.9101 24.6757 24.8917 23.7333 24.3591 22.0788C24.2756 21.7437 23.576 20.6129 22.8764 20.2883ZM23.3985 25.283L23.388 25.1155C23.3671 24.8223 22.9181 23.9218 22.6466 23.3877C22.5004 23.0841 22.4065 22.9165 22.3856 22.8432C21.5815 20.8328 22.8137 20.0893 22.8242 20.0893L22.8659 20.0684L22.9077 20.0893C23.67 20.4034 24.4427 21.6286 24.5575 22.0369C25.2258 24.1417 23.5655 25.1992 23.5447 25.2097L23.3985 25.283Z" fill="#AB1F24"/>
<path d="M19.8804 17.5024C19.8804 17.5024 19.4836 18.738 20.4339 19.9003C20.8307 20.3716 22.6371 20.9265 23.4203 21.5024C23.4098 21.5024 24.3705 18.3925 19.8804 17.5024Z" fill="#FAE404"/>
<path d="M19.9532 17.6285C19.8906 17.9217 19.7444 18.906 20.5067 19.838C20.7051 20.0683 21.3316 20.351 21.9372 20.6233C22.4489 20.8537 22.9814 21.0945 23.3574 21.3353C23.42 21.0212 23.5035 20.2149 23.0336 19.4296C22.5011 18.5395 21.4673 17.9322 19.9532 17.6285ZM23.4722 21.6599L23.3574 21.5762C23.0023 21.3144 22.4176 21.0526 21.8537 20.8013C21.2063 20.5081 20.5798 20.2254 20.35 19.9636C19.3685 18.7804 19.7653 17.5238 19.7757 17.4715L19.8071 17.3877L19.8906 17.3982C21.5196 17.7228 22.6264 18.3615 23.1903 19.3144C23.8272 20.4034 23.514 21.4715 23.5035 21.5238L23.4722 21.6599Z" fill="#AB1F24"/>
<path d="M17.3734 15.3027C17.3734 15.3027 21.2787 15.5855 20.7461 19.1561C20.7461 19.1561 19.869 18.6012 19.1485 18.3184C18.8352 18.1614 17.2794 17.6692 17.3734 16.2033C17.4047 15.7949 17.3734 15.3027 17.3734 15.3027Z" fill="#FAE404"/>
<path d="M17.4777 15.4086C17.4881 15.5866 17.4881 15.9112 17.4777 16.2044C17.3941 17.4505 18.5636 17.9427 19.0544 18.1625C19.1171 18.1835 19.1588 18.2044 19.1901 18.2254C19.7436 18.4557 20.4014 18.8327 20.6729 19.0002C20.7773 18.0997 20.5894 17.3353 20.1195 16.7385C19.3155 15.7228 17.8849 15.461 17.4777 15.4086ZM20.8295 19.3249L20.7042 19.2411C20.6938 19.2411 19.8167 18.6861 19.1171 18.4034C19.0753 18.3824 19.0335 18.3615 18.9813 18.3406C18.4905 18.1311 17.1957 17.5762 17.2793 16.194C17.3001 15.796 17.2793 15.3144 17.2793 15.3039V15.1887L17.3941 15.1992C17.4672 15.2097 19.2841 15.3458 20.2866 16.6128C20.8191 17.283 21.0071 18.1416 20.8609 19.1783L20.8295 19.3249Z" fill="#AB1F24"/>
<path d="M17.4466 11.9007C17.4466 11.9007 15.9952 13.0002 16.7157 14.864C16.841 15.2096 17.6032 16.2253 18 16.4033C18 16.4033 18.4595 15.1258 18.731 14.1939C18.8354 13.8169 19.1069 12.3405 18.2089 11.7541C17.7181 11.4818 17.4466 11.9007 17.4466 11.9007Z" fill="#FAE404"/>
<path d="M17.8854 11.7639C17.6662 11.7639 17.5304 11.9523 17.5304 11.9628L17.5095 11.9838C17.4573 12.0256 16.1312 13.0623 16.8099 14.8215C16.9248 15.1461 17.5722 15.9942 17.9481 16.2455C18.0629 15.9105 18.4075 14.9052 18.6373 14.1513C18.6581 14.0885 19.0863 12.434 18.1569 11.8372C18.063 11.7848 17.969 11.7639 17.8854 11.7639ZM18.0525 16.5283L17.9585 16.4864C17.52 16.2874 16.7577 15.2612 16.6219 14.8948C15.9223 13.0832 17.2276 11.9523 17.3738 11.8267C17.4155 11.7639 17.5931 11.5544 17.8854 11.5544C18.0003 11.5544 18.1256 11.5859 18.2509 11.6592C19.316 12.3398 18.8461 14.1304 18.8252 14.2037C18.5537 15.1251 18.0943 16.4131 18.0943 16.4235L18.0525 16.5283Z" fill="#AB1F24"/>
<path d="M17.1444 12.9997C17.1444 12.9997 16.0167 9.68034 20.0578 8.79028C20.0578 8.79028 20.9558 10.0678 19.4835 11.3976C19.0762 11.7746 17.4055 12.6227 17.1444 12.9997Z" fill="#FAE404"/>
<path d="M20.006 8.9059C18.7634 9.19909 17.8967 9.75407 17.4477 10.5603C16.9464 11.4504 17.1031 12.4242 17.1866 12.8117C17.4268 12.5918 17.8967 12.309 18.3874 12.0054C18.826 11.7331 19.2332 11.4818 19.4003 11.3248C20.6534 10.2043 20.1521 9.15721 20.006 8.9059ZM17.1135 13.22L17.0509 13.0316C17.03 12.9792 16.6018 11.6808 17.2806 10.4556C17.7609 9.57606 18.6903 8.98967 20.0373 8.686L20.0999 8.67554L20.1417 8.72789C20.1521 8.73836 21.0815 10.0891 19.5569 11.4713C19.3794 11.6389 18.9513 11.9007 18.5127 12.1729C17.9802 12.4975 17.3746 12.864 17.2388 13.063L17.1135 13.22Z" fill="#AB1F24"/>
<path d="M23.44 6.26731C23.44 6.26731 19.2527 6.17306 19.4302 9.92175C19.4302 9.92175 22.0512 9.11547 22.7612 8.3406C23.1058 7.94269 23.4817 7.1783 23.44 6.26731Z" fill="#FAE404"/>
<path d="M23.3472 6.37156C22.9504 6.38203 21.3005 6.48675 20.3085 7.53387C19.776 8.09931 19.5149 8.86371 19.5358 9.78518C20.0579 9.61764 22.1046 8.92653 22.6998 8.26685C23.013 7.88988 23.3576 7.18832 23.3472 6.37156ZM19.3374 10.0574L19.327 9.93177C19.2748 8.88465 19.5567 8.03649 20.1519 7.39774C21.2796 6.20403 23.1905 6.17261 23.3994 6.17261H23.5247V6.26685C23.5769 7.18832 23.1905 7.97366 22.8146 8.41345C22.0941 9.19879 19.5463 9.9946 19.4418 10.026L19.3374 10.0574Z" fill="#AB1F24"/>
</svg>
