<svg width="40" height="40" viewBox="0 0 40 40" fill="none" xmlns="http://www.w3.org/2000/svg">
<path d="M33.7316 18.0973C33.6792 19.0979 33.2673 19.8708 32.3757 20.346C32.2184 20.4299 32.0277 20.4634 31.848 20.489C31.6828 20.5125 31.5659 20.4172 31.6058 20.2425C31.6475 20.0583 31.7133 19.8804 31.8015 19.7134C31.9538 19.4289 32.079 19.1494 32.0042 18.8133C31.8949 18.3221 31.363 17.9716 30.8772 18.0819C30.3478 18.2021 30.0059 18.7018 30.128 19.2058C30.1705 19.3814 30.2657 19.5445 30.3382 19.7127C30.4031 19.8634 30.4886 20.0082 30.5314 20.1648C30.5884 20.3736 30.4714 20.5279 30.262 20.4846C30.0102 20.4324 29.7469 20.3507 29.5338 20.2122C28.8557 19.7716 28.5041 19.1254 28.4228 18.3204C28.2916 17.0226 29.135 15.9283 30.2019 15.5608C31.7473 15.0283 33.4317 16.0286 33.6794 17.6352C33.7035 17.791 33.7151 17.9487 33.7316 18.0973Z" fill="#0096D6"/>
<path d="M27.3178 20.5225C28.5479 20.5217 29.6449 21.3781 29.8837 22.4942C30.016 23.113 29.9646 23.7154 29.562 24.243C29.5087 24.3101 29.4471 24.3701 29.3787 24.4217C29.0868 24.6497 28.8899 24.6357 28.6427 24.3559C28.3675 24.0443 28.1006 23.7253 27.8335 23.4066C27.3165 22.7894 26.7977 22.1736 26.288 21.5504C26.0336 21.2392 26.086 20.9759 26.4274 20.7584C26.7223 20.5705 27.0582 20.5436 27.3178 20.5225Z" fill="#0096D6"/>
<path d="M32.1996 23.0167C32.1459 21.5944 33.453 20.6249 34.4092 20.5629C34.7197 20.5428 35.0357 20.5746 35.3463 20.6089C35.4711 20.6227 35.5966 20.6931 35.7069 20.7616C36.0442 20.9711 36.0932 21.2494 35.8418 21.5567C35.4491 22.0367 35.0482 22.5099 34.6476 22.9834C34.2599 23.4419 33.87 23.8985 33.478 24.3534C33.2405 24.6307 33.0547 24.6557 32.7634 24.4321C32.3719 24.1316 32.2495 23.6984 32.2007 23.2344C32.1966 23.1619 32.1962 23.0892 32.1996 23.0167V23.0167Z" fill="#0096D6"/>
<path d="M10.9799 20.5814H6.25993C6.40623 20.3398 6.52471 20.1376 6.64959 19.9393C6.97871 19.417 7.30941 18.8956 7.64169 18.3753C8.05366 17.73 8.64054 17.3982 9.40964 17.4023C10.5425 17.4084 10.3832 17.2591 10.5987 18.4046C10.7326 19.1164 10.8492 19.8315 10.9799 20.5814Z" fill="#0096D6"/>
<path d="M8.29409 21.202C8.2302 21.3361 8.20109 21.4167 8.15659 21.4876C7.6202 22.3427 7.07535 23.1925 6.54697 24.0524C6.47386 24.1853 6.36507 24.2952 6.23287 24.3697C6.10067 24.4441 5.95031 24.4802 5.79871 24.4738C5.31888 24.474 4.83892 24.4809 4.35927 24.4717C3.99745 24.4647 3.90514 24.3023 4.09798 23.9901C4.63497 23.1207 5.18099 22.257 5.73601 21.3989C5.77538 21.3461 5.82531 21.3022 5.88261 21.2697C5.93991 21.2373 6.00334 21.2172 6.06885 21.2107C6.78702 21.1936 7.50584 21.202 8.29409 21.202Z" fill="#0096D6"/>
<path d="M8.76726 21.2037C9.52746 21.2037 10.219 21.1961 10.9098 21.2143C10.9869 21.2164 11.1093 21.3555 11.1274 21.4475C11.2902 22.2734 11.4431 23.1015 11.5806 23.932C11.6509 24.3571 11.5353 24.4712 11.0921 24.4741C10.6631 24.4769 10.2341 24.4735 9.80505 24.4749C9.53375 24.4759 9.34164 24.3797 9.28917 24.087C9.12105 23.149 8.94994 22.2115 8.76726 21.2037Z" fill="#0096D6"/>
<path d="M16.7642 17.3984H18.2985C18.3715 17.3984 18.4416 17.4274 18.4932 17.4791C18.5449 17.5307 18.5739 17.6008 18.5739 17.6738V20.6092H16.4889V17.6737C16.4889 17.6007 16.5179 17.5307 16.5696 17.4791C16.6212 17.4275 16.6912 17.3984 16.7642 17.3984V17.3984Z" fill="#0096D6"/>
<path d="M14.1333 24.4761H12.599C12.526 24.4761 12.456 24.4471 12.4043 24.3954C12.3527 24.3438 12.3237 24.2738 12.3237 24.2007V21.2019H14.4086V24.2007C14.4086 24.2737 14.3796 24.3438 14.328 24.3954C14.2763 24.4471 14.2063 24.4761 14.1333 24.4761Z" fill="#0096D6"/>
<path d="M16.865 21.2323C16.865 21.2323 15.3503 18.6111 14.8254 17.7037C14.7718 17.611 14.6947 17.5341 14.602 17.4806C14.5092 17.4271 14.404 17.3989 14.2969 17.3989H12.5996C12.5266 17.3989 12.4566 17.4279 12.4049 17.4796C12.3533 17.5312 12.3243 17.6012 12.3243 17.6743V20.5814H14.0817L16.1186 24.1095C16.1722 24.2023 16.2493 24.2793 16.3421 24.3329C16.4349 24.3865 16.5402 24.4147 16.6473 24.4147H18.3017C18.3748 24.4147 18.4448 24.3857 18.4964 24.3341C18.5481 24.2825 18.5771 24.2124 18.5771 24.1394V21.2323H16.865Z" fill="#0096D6"/>
<path d="M11.0953 21.2021H8.76193L9.30641 24.1682C9.30641 24.2086 9.31438 24.2487 9.32986 24.2861C9.34535 24.3235 9.36804 24.3574 9.39665 24.3861C9.42526 24.4147 9.45923 24.4374 9.49662 24.4529C9.534 24.4683 9.57407 24.4763 9.61453 24.4763H11.3317C11.3721 24.4763 11.4122 24.4683 11.4496 24.4529C11.487 24.4374 11.5209 24.4147 11.5496 24.3861C11.5782 24.3575 11.6009 24.3235 11.6164 24.2861C11.6318 24.2487 11.6398 24.2086 11.6398 24.1682L11.0953 21.2021Z" fill="#0096D6"/>
<path d="M19.7808 19.3431H22.3319L21.339 20.609H24.2596L25.3288 19.2451C25.4674 19.0683 25.5428 18.85 25.5428 18.6253V17.7211C25.5428 17.6357 25.5088 17.5537 25.4484 17.4933C25.388 17.4329 25.306 17.3989 25.2206 17.3989H19.7808C19.6953 17.3989 19.6133 17.4329 19.5529 17.4933C19.4925 17.5537 19.4585 17.6357 19.4585 17.7211V19.0208C19.4585 19.0632 19.4669 19.1051 19.4831 19.1442C19.4993 19.1833 19.523 19.2188 19.5529 19.2487C19.5828 19.2786 19.6183 19.3024 19.6574 19.3186C19.6965 19.3348 19.7384 19.3431 19.7808 19.3431V19.3431Z" fill="#0096D6"/>
<path d="M25.2206 22.6383H22.6694L23.7953 21.2021H20.8746L19.6727 22.7347C19.5339 22.9116 19.4585 23.1299 19.4585 23.3546V24.261C19.4585 24.3033 19.4669 24.3452 19.4831 24.3843C19.4993 24.4234 19.523 24.4589 19.5529 24.4888C19.5828 24.5187 19.6184 24.5425 19.6574 24.5586C19.6965 24.5748 19.7384 24.5832 19.7808 24.5832H25.2206C25.2629 24.5832 25.3048 24.5748 25.3439 24.5586C25.383 24.5425 25.4185 24.5187 25.4484 24.4888C25.4783 24.4589 25.5021 24.4234 25.5183 24.3843C25.5344 24.3452 25.5428 24.3033 25.5428 24.261V22.9605C25.5428 22.875 25.5088 22.7931 25.4484 22.7327C25.388 22.6722 25.306 22.6383 25.2206 22.6383V22.6383Z" fill="#0096D6"/>
</svg>
