<svg width="40" height="40" viewBox="0 0 40 40" fill="none" xmlns="http://www.w3.org/2000/svg">
<path d="M19.2376 20.7865C19.3063 20.6982 19.3128 20.6361 19.2736 20.5968C19.146 20.4725 18.5899 20.5314 17.9652 20.5968C17.3404 20.6622 17.0165 20.6557 16.9544 20.4725C16.9473 20.4446 16.9473 20.4154 16.9544 20.3875C16.9544 20.1389 17.9128 20.0113 18.4395 19.6188C18.5083 19.5752 18.5585 19.5076 18.5801 19.429C18.6259 19.2164 18.3315 19.0136 18.0731 18.8795C16.9711 18.3925 15.9339 17.7706 14.9852 17.0281C14.8265 16.9177 14.6437 16.847 14.452 16.822C14.2809 16.7973 14.1078 16.7896 13.9352 16.7991C13.9352 16.7991 13.7978 16.7991 13.6833 16.8154C13.6211 16.8154 13.3562 16.871 13.2679 16.8939C11.6938 17.2621 10.1879 17.877 8.80608 18.7159L8.58039 18.8566C7.82292 19.3025 7.10501 19.8125 6.43454 20.3809C5.80322 20.9599 4.85787 21.7646 4.606 22.1506C4.59608 22.1639 4.58917 22.1792 4.58576 22.1955C4.58235 22.2117 4.58253 22.2285 4.58626 22.2447C4.59 22.2609 4.59721 22.2761 4.6074 22.2892C4.61758 22.3023 4.63051 22.3131 4.64526 22.3207C5.91445 23.0174 8.08645 23.9268 9.81686 24.1918L10.0753 24.231C11.7429 24.4572 13.4359 24.4141 15.0899 24.1034C15.2621 24.0554 15.4296 23.9919 15.5903 23.9137C15.7134 23.8466 15.8325 23.7723 15.9469 23.6913C17.1866 22.9032 18.2967 21.9277 19.2376 20.7996C19.2376 20.7996 19.2376 20.7996 19.2376 20.7996" fill="#CD942B"/>
<path d="M18.8289 18.363C19.2476 18.5135 18.9565 17.8593 18.6065 17.0938C18.3055 16.4396 18.2368 16.1289 18.4887 16.0569C18.7406 15.9849 19.1429 16.855 19.6761 17.2345C20.0621 17.5027 20.2126 17.0153 20.2714 16.6392C20.4004 15.4459 20.6739 14.2728 21.086 13.1456C21.1401 12.9608 21.1502 12.7659 21.1154 12.5765C21.0839 12.4071 21.0379 12.2408 20.978 12.0793C20.978 12.0793 20.9289 11.9484 20.8831 11.847C20.8373 11.7456 20.7327 11.5559 20.6836 11.4708C19.8429 10.089 18.7911 8.84729 17.5662 7.79085L17.3634 7.62402C16.7084 7.04023 16.0035 6.51485 15.2568 6.0539C14.5078 5.62866 13.4479 4.97771 13.0031 4.84687C12.9873 4.84197 12.9708 4.84051 12.9544 4.8426C12.9381 4.84468 12.9224 4.85026 12.9085 4.85896C12.8945 4.86765 12.8826 4.87925 12.8735 4.89297C12.8644 4.90669 12.8584 4.9222 12.8559 4.93846C12.5876 6.35811 12.3914 8.70349 12.6759 10.4339L12.7152 10.689C13.0165 12.3458 13.5808 13.9438 14.3867 15.4223C14.4833 15.5702 14.5927 15.7092 14.7138 15.8377C14.8171 15.9349 14.9264 16.0256 15.041 16.1092C16.1758 17.0443 17.4479 17.7989 18.8125 18.3467V18.3467" fill="#CD942B"/>
<path d="M30.6882 12.7589L30.7864 12.5135C31.1381 11.7085 31.4194 10.8746 31.627 10.021C31.7971 9.18028 32.0915 7.96998 32.0654 7.51203C32.0655 7.49551 32.0621 7.47915 32.0554 7.46408C32.0486 7.449 32.0387 7.43557 32.0263 7.42469C32.0138 7.41381 31.9992 7.40576 31.9834 7.40107C31.9675 7.39638 31.9509 7.39518 31.9345 7.39754C30.4985 7.58072 28.2022 8.12045 26.6452 8.92514L26.4162 9.0429C24.9354 9.84205 23.5915 10.8723 22.4352 12.0948C22.3223 12.2339 22.2236 12.384 22.1409 12.543C22.0805 12.6698 22.027 12.7997 21.9806 12.9322C21.4369 14.2996 21.108 15.7429 21.0058 17.2108V17.2108C21.0058 17.6557 21.5226 17.1781 22.1441 16.6057C22.6773 16.115 22.9455 15.9514 23.0927 16.1739C23.2399 16.3963 22.5367 17.044 22.3437 17.6688C22.2063 18.1071 22.6937 18.1104 23.0666 18.0548C24.2479 17.7978 25.4565 17.6879 26.6648 17.7276C26.8582 17.7237 27.0478 17.6732 27.2176 17.5804C27.3675 17.4967 27.5108 17.4016 27.6461 17.2959C27.6461 17.2959 27.7541 17.2108 27.8391 17.1356C27.9242 17.0603 28.0648 16.9001 28.1302 16.8281C29.1899 15.6134 30.053 14.2404 30.6882 12.7589" fill="#CD942B"/>
<path d="M35.4833 26.2817C34.8683 24.9733 33.6449 22.9616 32.3986 21.7284L32.2154 21.5485C30.9958 20.3849 29.5977 19.4241 28.0742 18.7026C27.9077 18.6402 27.7358 18.5931 27.5607 18.5619C27.4208 18.5431 27.2799 18.5322 27.1387 18.5292C25.6695 18.4411 24.1954 18.5801 22.7685 18.9414V18.9414C22.3433 19.0657 22.9583 19.4222 23.6943 19.8377C24.3288 20.1942 24.5611 20.4003 24.4008 20.6064C24.2405 20.8125 23.4031 20.3447 22.7489 20.3545C22.2877 20.3545 22.4382 20.8255 22.6083 21.1657C23.2108 22.2101 23.6811 23.3254 24.0083 24.4859C24.0777 24.6699 24.1898 24.8347 24.3354 24.9667C24.4597 25.0886 24.5956 25.1982 24.741 25.2939C24.741 25.2939 24.8522 25.3724 24.9536 25.428C25.055 25.4836 25.2448 25.5719 25.3331 25.6112C26.8184 26.2357 28.3923 26.6242 29.9976 26.7626H30.2593C31.1347 26.8466 32.0157 26.8554 32.8925 26.7887C33.7496 26.6939 34.9893 26.599 35.4178 26.4322C35.4337 26.4274 35.4484 26.4192 35.4607 26.408C35.473 26.3968 35.4826 26.3831 35.4889 26.3677C35.4951 26.3523 35.4979 26.3357 35.4969 26.3192C35.4959 26.3026 35.4913 26.2865 35.4833 26.2719" fill="#CD942B"/>
<path d="M23.5393 26.1247C23.5486 25.9466 23.541 25.7681 23.5164 25.5915C23.4898 25.4524 23.456 25.3149 23.415 25.1793C23.046 23.7554 22.459 22.3971 21.6748 21.1526V21.1526C21.4262 20.7863 21.2757 21.4797 21.1089 22.3106C20.965 23.027 20.8407 23.2919 20.5953 23.22C20.35 23.148 20.5365 22.1896 20.3238 21.5844C20.1766 21.1494 19.7808 21.4339 19.5093 21.6989C18.7024 22.596 17.7871 23.3893 16.7845 24.0606C16.6296 24.1769 16.506 24.3297 16.4247 24.5055C16.3479 24.6601 16.2876 24.8224 16.2448 24.9896C16.2448 24.9896 16.2055 25.1237 16.1826 25.2317C16.1597 25.3396 16.1336 25.5588 16.1238 25.6537C15.9894 27.2654 16.1108 28.8883 16.4836 30.4622L16.5457 30.7173C16.7359 31.5747 16.9996 32.4141 17.3341 33.2262C17.6906 34.008 18.1616 35.1594 18.4528 35.516C18.4635 35.5284 18.4768 35.5384 18.4918 35.5453C18.5067 35.5521 18.523 35.5557 18.5395 35.5557C18.5559 35.5557 18.5722 35.5521 18.5871 35.5453C18.6021 35.5384 18.6154 35.5284 18.6261 35.516C19.6794 34.5347 21.2168 32.7421 22.0052 31.1753L22.1197 30.943C22.8493 29.4268 23.3308 27.8033 23.5459 26.1345" fill="#CD942B"/>
<path d="M19.4962 18.0256C19.8572 18.4872 20.2614 18.9133 20.7032 19.2981L20.6313 19.3733C20.1784 18.9916 19.7781 18.5516 19.4406 18.0649C19.2018 17.7378 19.228 17.6887 19.4962 18.0322" fill="#CD942B"/>
<path d="M19.1109 20.0115C19.6628 19.8114 20.1941 19.5583 20.6973 19.2559L20.7464 19.3475C20.2354 19.6601 19.6855 19.9042 19.1109 20.0736C18.715 20.1979 18.6889 20.162 19.1109 20.0115Z" fill="#CD942B"/>
<path d="M20.8772 21.0157C20.8552 20.4298 20.7785 19.8472 20.6483 19.2755L20.7497 19.2559C20.891 19.8337 20.9559 20.4275 20.9427 21.0222C20.9427 21.4344 20.8936 21.4508 20.8772 21.0222" fill="#CD942B"/>
<path d="M22.3865 19.6321C21.8227 19.468 21.2443 19.3584 20.6594 19.305V19.2036C21.2564 19.2456 21.845 19.3677 22.4094 19.5667C22.802 19.7008 22.8052 19.7466 22.3865 19.6289" fill="#CD942B"/>
<path d="M21.531 17.7834C21.2026 18.2704 20.9212 18.7874 20.6903 19.3274L20.5987 19.2816C20.8244 18.7333 21.1202 18.2165 21.4786 17.7442C21.7305 17.4171 21.773 17.4171 21.531 17.7834" fill="#CD942B"/>
<path d="M22.6261 21.2253C22.6373 21.2422 22.6495 21.2584 22.6625 21.2738V21.2738C22.6495 21.2584 22.6373 21.2422 22.6261 21.2253" fill="white"/>
<path d="M23.5963 19.7926L23.6787 19.8401H23.7104H23.6787L23.5963 19.7926Z" fill="#404041"/>
<path d="M21.7452 21.1771C21.4249 20.8193 21.1402 21.8927 21.1046 22.0228C20.9622 22.5432 20.8554 23.0636 20.7131 23.5515C20.5351 24.137 20.3571 24.69 20.0724 25.2429C19.7877 25.7633 19.3606 26.1862 19.0402 26.674C17.9369 28.4304 17.9013 30.7723 17.9369 32.7239C17.9369 33.537 17.9725 34.3502 18.0793 35.1633C18.1504 35.6187 18.364 35.5537 18.6843 35.2935C18.9335 35.0658 19.2182 34.8381 19.4317 34.6104C21.069 33.0492 22.4927 31.2277 23.2757 29.1785C23.8096 27.7474 23.9875 26.2187 23.6316 24.755C23.2757 23.4865 22.5638 22.283 21.7452 21.1771Z" fill="url(#paint0_diamond_6200_185)"/>
<path d="M22.6304 19.0204C22.1998 19.1955 23.154 19.764 23.2694 19.8339C23.7308 20.1133 24.202 20.3615 24.6322 20.6313C25.1465 20.9612 25.6296 21.2816 26.0838 21.6957C26.5066 22.1001 26.7971 22.6006 27.1791 23.0267C28.5677 24.5167 30.8084 25.2428 32.6934 25.7905C33.4748 26.0318 34.2658 26.2418 35.0761 26.3893C35.533 26.4619 35.5284 26.2551 35.3652 25.8966C35.214 25.6102 35.0724 25.2926 34.9115 25.0376C33.8552 23.1366 32.4909 21.346 30.7341 20.0504C29.5037 19.157 28.0829 18.5471 26.58 18.4254C25.2645 18.3616 23.9151 18.6296 22.6304 19.0204Z" fill="url(#paint1_diamond_6200_185)"/>
<path d="M21.0173 17.2565C21.0473 17.7212 21.8907 16.9978 21.9937 16.9107C22.4059 16.5623 22.7913 16.1947 23.1844 15.8729C23.6614 15.4905 24.1193 15.1347 24.6572 14.8364C25.176 14.5646 25.7442 14.4492 26.2706 14.2232C28.1282 13.3826 29.5295 11.489 30.6484 9.87579C31.1257 9.21162 31.5763 8.52828 31.9736 7.80662C32.1876 7.39635 31.9894 7.3345 31.5966 7.37457C31.2763 7.42639 30.9294 7.45905 30.6357 7.53004C28.4926 7.92372 26.3568 8.64492 24.5674 9.89704C23.3273 10.7785 22.2966 11.9314 21.7042 13.3185C21.2262 14.5462 21.0531 15.9125 21.0173 17.2565Z" fill="url(#paint2_diamond_6200_185)"/>
<path d="M18.9708 18.3692C19.4329 18.4717 18.9993 17.4449 18.9476 17.3199C18.7407 16.8196 18.5066 16.3398 18.3194 15.8657C18.1003 15.2926 17.9009 14.7456 17.7831 14.1369C17.6851 13.5544 17.7551 12.9681 17.704 12.3911C17.482 10.3429 16.0883 8.44107 14.877 6.89385C14.3836 6.24061 13.863 5.60793 13.288 5.01636C12.9573 4.69166 12.8335 4.86725 12.7464 5.26128C12.694 5.58807 12.6145 5.93542 12.5893 6.24166C12.2847 8.44141 12.3012 10.7269 12.9458 12.8252C13.4059 14.2833 14.1973 15.6141 15.3576 16.5844C16.3994 17.3979 17.6739 17.9536 18.9708 18.3692Z" fill="url(#paint3_diamond_6200_185)"/>
<path d="M19.3352 20.6553C19.5744 20.2466 18.4631 20.3458 18.3281 20.3569C17.7879 20.4011 17.259 20.4775 16.7498 20.5109C16.1365 20.5445 15.5541 20.5673 14.938 20.4935C14.3528 20.409 13.8155 20.1632 13.25 20.0356C11.2301 19.6213 8.99057 20.3676 7.14491 21.0485C6.37119 21.3188 5.60873 21.6213 4.86876 21.9882C4.45798 22.204 4.58737 22.3755 4.9362 22.5788C5.23157 22.7285 5.5382 22.9104 5.82233 23.0279C7.82529 23.99 10.0084 24.6724 12.2056 24.6996C13.736 24.7068 15.2469 24.3596 16.5271 23.5511C17.6216 22.8075 18.5417 21.7634 19.3352 20.6553Z" fill="url(#paint4_diamond_6200_185)"/>
<defs>
<radialGradient id="paint0_diamond_6200_185" cx="0" cy="0" r="1" gradientUnits="userSpaceOnUse" gradientTransform="translate(22.2079 21.1121) rotate(101.86) scale(16.4516 6.68334)">
<stop offset="0.0719232" stop-color="#A25A26"/>
<stop offset="0.373007" stop-color="#C88B2B"/>
<stop offset="0.72744" stop-color="#C88B2B"/>
<stop offset="1" stop-color="#FFF0D4"/>
</radialGradient>
<radialGradient id="paint1_diamond_6200_185" cx="0" cy="0" r="1" gradientUnits="userSpaceOnUse" gradientTransform="translate(22.6931 18.5948) rotate(28.0227) scale(16.4874 6.16385)">
<stop offset="0.0719232" stop-color="#A25A26"/>
<stop offset="0.373007" stop-color="#C88B2B"/>
<stop offset="0.72744" stop-color="#C88B2B"/>
<stop offset="1" stop-color="#FFF0D4"/>
</radialGradient>
<radialGradient id="paint2_diamond_6200_185" cx="0" cy="0" r="1" gradientUnits="userSpaceOnUse" gradientTransform="translate(20.6325 17.0605) rotate(-43.3935) scale(16.492 6.18698)">
<stop offset="0.0719232" stop-color="#A25A26"/>
<stop offset="0.373007" stop-color="#C88B2B"/>
<stop offset="0.72744" stop-color="#C88B2B"/>
<stop offset="1" stop-color="#FFF0D4"/>
</radialGradient>
<radialGradient id="paint3_diamond_6200_185" cx="0" cy="0" r="1" gradientUnits="userSpaceOnUse" gradientTransform="translate(18.6565 18.6887) rotate(-115.759) scale(16.5293 6.41702)">
<stop offset="0.0719232" stop-color="#A25A26"/>
<stop offset="0.373007" stop-color="#C88B2B"/>
<stop offset="0.72744" stop-color="#C88B2B"/>
<stop offset="1" stop-color="#FFF0D4"/>
</radialGradient>
<radialGradient id="paint4_diamond_6200_185" cx="0" cy="0" r="1" gradientUnits="userSpaceOnUse" gradientTransform="translate(19.5434 21.0522) rotate(172.034) scale(16.5478 6.41731)">
<stop offset="0.0719232" stop-color="#A25A26"/>
<stop offset="0.373007" stop-color="#C88B2B"/>
<stop offset="0.72744" stop-color="#C88B2B"/>
<stop offset="1" stop-color="#FFF0D4"/>
</radialGradient>
</defs>
</svg>
