<svg width="40" height="40" viewBox="0 0 40 40" fill="none" xmlns="http://www.w3.org/2000/svg">
<path d="M19.9401 35C18.2007 35 10.6049 28.6011 9.83899 27.5479C9.07303 26.4947 8.69006 23.4628 9.04112 20.9574C9.40814 18.4521 19.6209 5 19.9401 5C20.2592 5 30.5996 19.5053 30.8709 20.9574C31.1422 22.4096 31.4135 25.7447 30.0252 27.5479C28.6369 29.3511 21.6954 35 19.9401 35V35ZM20.0039 9.14894C19.4773 9.14894 13.5411 16.9202 13.5411 18.3723C13.5411 19.8245 19.7167 26.8617 20.0039 26.8617C20.2911 26.8617 26.6262 19.3457 26.6262 18.3723C26.6262 17.3989 20.5305 9.14894 20.0039 9.14894ZM12.5518 21.0851C12.2645 20.1755 11.5784 20.3032 11.339 21.2766C11.0837 22.25 10.6049 25.1862 11.5784 26.4628C12.5518 27.7394 17.0039 30.7234 17.6901 31.25C18.3762 31.7766 18.5837 29.4787 17.9932 28.5532C17.3869 27.6436 12.839 22.0106 12.5518 21.0851V21.0851ZM27.2964 21.0851C27.0092 21.9947 22.4454 27.6277 21.855 28.5532C21.2645 29.4787 21.4879 31.7766 22.1581 31.25C22.8443 30.7234 27.2964 27.7394 28.2698 26.4628C29.2432 25.1862 28.7645 22.25 28.5092 21.2766C28.2698 20.3191 27.5996 20.1755 27.2964 21.0851V21.0851Z" fill="#030098"/>
</svg>
