<svg width="40" height="40" viewBox="0 0 40 40" fill="none" xmlns="http://www.w3.org/2000/svg">
<path d="M15.1785 7.26963C15.46 7.12778 15.7416 7.05686 15.9527 6.98594C18.557 6.06395 21.5835 5.5675 24.8916 5.85119C23.3431 5.28381 21.6539 5.00012 19.9647 5.00012C18.557 5.00012 17.2197 5.21289 15.9527 5.5675C15.6712 5.85119 15.2489 6.34764 14.7562 7.12778C14.897 7.12778 15.0377 7.1987 15.1785 7.26963Z" fill="url(#paint0_radial_6200_49)"/>
<path d="M13.4893 7.62424C13.63 7.55331 13.7004 7.48239 13.8412 7.41147C14.0524 7.34055 14.1931 7.26963 14.4043 7.1987C14.8266 6.63133 15.1785 6.13487 15.5304 5.70934C14.1931 6.13487 12.9262 6.70225 11.8 7.48239C12.2223 7.48239 12.7854 7.48239 13.4893 7.62424Z" fill="url(#paint1_radial_6200_49)"/>
<path d="M15.6008 5.63842H15.5304C15.5304 5.70934 15.5304 5.63842 15.6008 5.63842Z" fill="url(#paint2_radial_6200_49)"/>
<path d="M15.9527 7.34055C15.7416 7.41147 15.5304 7.48239 15.3193 7.55331C15.3193 7.69516 15.3193 7.837 15.2489 7.97885C15.4601 8.04977 15.6712 8.12069 15.9527 8.12069C17.5012 8.54622 19.2608 9.18452 21.302 10.3193C24.8212 12.1632 28.0589 14.4327 30.6632 16.7022C30.8039 16.4895 31.0855 16.4186 31.2966 16.4186C31.5078 16.4186 31.7189 16.5604 31.9301 16.7022C32.7043 16.064 33.3378 15.3547 33.9009 14.7874C32.4228 10.7448 29.2555 7.55331 25.2435 6.06395C23.2728 5.85119 19.7535 5.85119 15.9527 7.34055Z" fill="url(#paint3_radial_6200_49)"/>
<path d="M10.6739 20.8866C10.8147 20.8157 10.9554 20.7448 11.0962 20.7448C11.0962 19.3264 11.237 17.6242 11.5185 15.4966C11.9408 12.5888 12.6447 10.4611 13.4189 8.90083C13.2781 8.82991 13.1373 8.75899 13.067 8.68807C9.68849 10.4611 7.99926 11.9505 6.80272 12.9434C5.9581 14.5746 5.39502 16.3476 5.18387 18.3335C6.09887 19.0427 7.85849 20.2484 10.3923 21.3831C10.4627 21.1703 10.5331 21.0285 10.6739 20.8866Z" fill="url(#paint4_radial_6200_49)"/>
<path d="M33.9712 15.0001C33.5489 15.5675 32.8451 16.3476 32.4228 16.7732C32.3524 16.8441 32.282 16.915 32.2116 16.9859C32.282 17.1987 32.3524 17.3405 32.3524 17.5533C32.3524 17.6952 32.3524 17.9079 32.282 18.0498C33.2674 19.0427 34.1824 20.0356 34.8159 20.9576C34.8159 20.603 34.8863 20.3193 34.8863 19.9647C34.8159 18.2625 34.4639 16.5604 33.9712 15.0001Z" fill="url(#paint5_radial_6200_49)"/>
<path d="M13.2077 7.90792C12.5743 7.837 11.9408 7.76608 11.3777 7.76608C9.6885 8.97175 8.2808 10.532 7.22502 12.3051C8.42157 11.2413 10.3923 9.61005 13.067 8.26253C13.067 8.12069 13.067 7.97885 13.2077 7.90792Z" fill="url(#paint6_radial_6200_49)"/>
<path d="M32.0005 18.4753C31.7893 18.6881 31.5782 18.8299 31.2966 18.8299C31.0151 18.8299 30.8039 18.6881 30.5928 18.4753C28.9036 19.9647 26.5105 21.7377 22.9912 23.8654C22.9208 23.9363 22.7801 24.0072 22.7097 24.0072C22.7097 24.1491 22.7097 24.22 22.7097 24.2909C26.8624 24.7874 30.5928 24.6455 34.2528 23.8654C34.4639 23.0852 34.6047 22.2342 34.6751 21.3831C34.112 20.532 33.197 19.5391 32.0005 18.4753Z" fill="url(#paint7_radial_6200_49)"/>
<path d="M15.9527 23.7235C14.7562 23.3689 13.5597 23.0852 12.5743 22.6597C12.5039 22.8015 12.4335 22.9434 12.2927 23.0852C12.152 23.1562 12.0112 23.2271 11.8 23.2271C11.8 24.3618 11.9408 25.2129 11.9408 25.7803C12.0112 26.3476 12.0816 27.1278 12.2223 28.1207C12.3631 28.1916 12.4335 28.1916 12.5039 28.2625C12.6447 28.3335 12.715 28.4044 12.8558 28.5462C13.7708 28.1916 14.8266 27.7661 15.9527 27.1987C17.2197 26.5604 18.6274 25.8512 20.1758 24.9292C20.1758 24.8583 20.1054 24.7874 20.1054 24.6455C18.6274 24.3618 17.2197 24.0781 15.9527 23.7235Z" fill="url(#paint8_radial_6200_49)"/>
<path d="M30.1705 16.8441C25.9474 13.3689 22.2874 11.2413 19.9647 10.0356C18.9089 9.53913 17.5012 8.90083 15.9527 8.4753C15.6712 8.40438 15.3897 8.33346 15.0377 8.26253C14.897 8.40438 14.6858 8.61714 14.4747 8.68807C14.2635 8.82991 13.982 8.90083 13.7708 8.90083C13.2781 9.96466 12.8558 11.2413 12.5743 12.8725C11.9408 15.7803 11.8 18.6171 11.7297 20.8866C11.9408 21.0285 12.152 21.1703 12.2927 21.3831C12.5039 21.6668 12.5743 21.9505 12.5743 22.2342C13.5597 22.5888 14.6858 22.9434 15.8824 23.2271C16.0231 23.2271 16.0935 23.2271 16.2343 23.298C17.5716 23.5817 18.9089 23.8654 20.1758 24.0072C20.3166 23.7235 20.5981 23.4398 21.0204 23.298C21.5131 23.1562 22.0058 23.2271 22.3578 23.5108C25.8066 21.3831 28.3405 19.6101 30.3112 18.0498C30.3112 17.9079 30.2409 17.7661 30.2409 17.6242C30.2409 17.4115 30.2409 17.2696 30.3112 17.1278C30.3112 16.9859 30.2409 16.915 30.1705 16.8441Z" fill="url(#paint9_radial_6200_49)"/>
<path d="M11.1666 28.2625C11.3073 28.0498 11.5185 27.9788 11.7297 27.9788C11.7297 27.7661 11.6593 27.5533 11.6593 27.3405C11.5185 25.7803 11.3074 24.5037 11.237 23.1562C11.0258 23.0143 10.7443 22.8725 10.6035 22.6597C10.3923 22.376 10.322 22.0923 10.322 21.8796C8.06965 20.8866 6.31003 19.7519 5.18387 18.8299C5.18387 19.2554 5.11348 19.6101 5.11348 20.0356C5.11348 23.7944 6.52118 27.2696 8.7735 29.8937C9.33658 29.7519 10.1812 29.5391 11.237 29.1845C11.0962 28.8299 11.0258 28.5462 11.1666 28.2625Z" fill="url(#paint10_radial_6200_49)"/>
<path d="M23.5543 24.9292C23.2024 24.9292 22.9208 24.8583 22.5689 24.8583C22.3578 25.142 22.1466 25.3547 21.7947 25.4966C21.302 25.6384 20.7389 25.5675 20.4574 25.2838C18.9793 26.064 17.5012 26.8441 15.9527 27.5533C14.9674 28.0498 13.982 28.4753 13.067 28.8299C13.2077 29.1136 13.2077 29.3264 13.067 29.5391C12.9262 29.681 12.7854 29.8228 12.5039 29.8228C12.7854 31.0994 13.2781 32.5179 13.982 33.7235C15.812 34.5037 17.7827 35.0001 19.8943 35.0001C26.6512 35.0001 32.3524 30.4611 34.1824 24.22C32.4932 24.5746 29.1147 25.3547 23.5543 24.9292Z" fill="url(#paint11_radial_6200_49)"/>
<path d="M11.7297 29.6101C11.6593 29.5391 11.5889 29.5391 11.5185 29.4682C10.6035 29.8228 9.75888 30.0356 8.98464 30.1065C10.2516 31.454 11.7297 32.5888 13.4189 33.4398C12.9966 32.6597 12.5039 31.3831 12.0816 29.7519C11.9408 29.7519 11.8 29.681 11.7297 29.6101Z" fill="url(#paint12_radial_6200_49)"/>
<path d="M34.2531 24.1484C34.2531 24.0066 34.3235 23.9357 34.3235 23.7938C34.2531 23.9357 34.2531 24.0775 34.2531 24.1484C34.1827 24.1484 34.1827 24.1484 34.2531 24.1484Z" fill="url(#paint13_radial_6200_49)"/>
<path d="M5.11348 18.7587C5.11348 18.6877 5.11348 18.6168 5.11348 18.5459C5.18461 18.5459 5.11348 18.6877 5.11348 18.7587Z" fill="url(#paint14_radial_6200_49)"/>
<path d="M7.15415 12.3758C7.01337 12.5885 6.94299 12.8013 6.80222 12.9431C6.94299 12.7304 7.08376 12.5176 7.15415 12.3758C7.15415 12.3758 7.15415 12.3048 7.15415 12.3758Z" fill="url(#paint15_radial_6200_49)"/>
<path d="M8.77332 29.8225C8.8437 29.8934 8.91408 29.9644 8.98446 30.1062C8.91408 29.9644 8.8437 29.8934 8.77332 29.8225Z" fill="url(#paint16_radial_6200_49)"/>
<path d="M13.4187 33.4395C13.6299 33.5104 13.7706 33.5813 13.9818 33.7231C13.841 33.5813 13.6299 33.5104 13.4187 33.4395Z" fill="url(#paint17_radial_6200_49)"/>
<path d="M25.2429 5.99292C25.1725 5.99292 25.0317 5.922 24.9614 5.85107H24.891C25.0317 5.922 25.1021 5.922 25.2429 5.99292Z" fill="url(#paint18_radial_6200_49)"/>
<path d="M11.3775 7.7655C11.4478 7.69458 11.5182 7.62366 11.659 7.55273C11.5182 7.62366 11.4478 7.69458 11.3775 7.7655Z" fill="url(#paint19_radial_6200_49)"/>
<path d="M33.9717 15C33.9717 14.9291 33.9006 14.7872 33.9006 14.7163C33.9006 14.8582 33.9006 14.9291 33.9717 15Z" fill="url(#paint20_radial_6200_49)"/>
<path d="M15.9527 5.56726C15.812 5.63818 15.7416 5.63818 15.6008 5.7091C15.6712 5.63818 15.812 5.56726 15.9527 5.56726Z" fill="url(#paint21_radial_6200_49)"/>
<path d="M11.7298 7.48206C11.7298 7.48206 11.6595 7.55298 11.5891 7.55298C11.6595 7.55298 11.7298 7.48206 11.7298 7.48206C11.7298 7.48206 11.8002 7.48206 11.7298 7.48206Z" fill="url(#paint22_radial_6200_49)"/>
<defs>
<radialGradient id="paint0_radial_6200_49" cx="0" cy="0" r="1" gradientUnits="userSpaceOnUse" gradientTransform="translate(17.1493 16.7023) rotate(60.1199) scale(23.3116 23.223)">
<stop stop-color="white"/>
<stop offset="0.257472" stop-color="#E0C17E"/>
<stop offset="0.514023" stop-color="#B3870F"/>
<stop offset="0.696319" stop-color="#886922"/>
<stop offset="0.842156" stop-color="#9E7818"/>
</radialGradient>
<radialGradient id="paint1_radial_6200_49" cx="0" cy="0" r="1" gradientUnits="userSpaceOnUse" gradientTransform="translate(17.1493 16.7023) rotate(60.1199) scale(23.3116 23.223)">
<stop stop-color="white"/>
<stop offset="0.257472" stop-color="#E0C17E"/>
<stop offset="0.514023" stop-color="#B3870F"/>
<stop offset="0.696319" stop-color="#886922"/>
<stop offset="0.842156" stop-color="#9E7818"/>
</radialGradient>
<radialGradient id="paint2_radial_6200_49" cx="0" cy="0" r="1" gradientUnits="userSpaceOnUse" gradientTransform="translate(17.1493 16.7023) rotate(60.1199) scale(23.3116 23.223)">
<stop stop-color="white"/>
<stop offset="0.257472" stop-color="#E0C17E"/>
<stop offset="0.514023" stop-color="#B3870F"/>
<stop offset="0.696319" stop-color="#886922"/>
<stop offset="0.842156" stop-color="#9E7818"/>
</radialGradient>
<radialGradient id="paint3_radial_6200_49" cx="0" cy="0" r="1" gradientUnits="userSpaceOnUse" gradientTransform="translate(17.1493 16.7023) rotate(60.1199) scale(23.3116 23.223)">
<stop stop-color="white"/>
<stop offset="0.257472" stop-color="#E0C17E"/>
<stop offset="0.514023" stop-color="#B3870F"/>
<stop offset="0.696319" stop-color="#886922"/>
<stop offset="0.842156" stop-color="#9E7818"/>
</radialGradient>
<radialGradient id="paint4_radial_6200_49" cx="0" cy="0" r="1" gradientUnits="userSpaceOnUse" gradientTransform="translate(17.1493 16.7023) rotate(60.1199) scale(23.3116 23.223)">
<stop stop-color="white"/>
<stop offset="0.257472" stop-color="#E0C17E"/>
<stop offset="0.514023" stop-color="#B3870F"/>
<stop offset="0.696319" stop-color="#886922"/>
<stop offset="0.842156" stop-color="#9E7818"/>
</radialGradient>
<radialGradient id="paint5_radial_6200_49" cx="0" cy="0" r="1" gradientUnits="userSpaceOnUse" gradientTransform="translate(17.1493 16.7023) rotate(60.1199) scale(23.3116 23.223)">
<stop stop-color="white"/>
<stop offset="0.257472" stop-color="#E0C17E"/>
<stop offset="0.514023" stop-color="#B3870F"/>
<stop offset="0.696319" stop-color="#886922"/>
<stop offset="0.842156" stop-color="#9E7818"/>
</radialGradient>
<radialGradient id="paint6_radial_6200_49" cx="0" cy="0" r="1" gradientUnits="userSpaceOnUse" gradientTransform="translate(17.1493 16.7023) rotate(60.1199) scale(23.3116 23.223)">
<stop stop-color="white"/>
<stop offset="0.257472" stop-color="#E0C17E"/>
<stop offset="0.514023" stop-color="#B3870F"/>
<stop offset="0.696319" stop-color="#886922"/>
<stop offset="0.842156" stop-color="#9E7818"/>
</radialGradient>
<radialGradient id="paint7_radial_6200_49" cx="0" cy="0" r="1" gradientUnits="userSpaceOnUse" gradientTransform="translate(17.1493 16.7023) rotate(60.1199) scale(23.3116 23.223)">
<stop stop-color="white"/>
<stop offset="0.257472" stop-color="#E0C17E"/>
<stop offset="0.514023" stop-color="#B3870F"/>
<stop offset="0.696319" stop-color="#886922"/>
<stop offset="0.842156" stop-color="#9E7818"/>
</radialGradient>
<radialGradient id="paint8_radial_6200_49" cx="0" cy="0" r="1" gradientUnits="userSpaceOnUse" gradientTransform="translate(17.1493 16.7023) rotate(60.1199) scale(23.3116 23.223)">
<stop stop-color="white"/>
<stop offset="0.257472" stop-color="#E0C17E"/>
<stop offset="0.514023" stop-color="#B3870F"/>
<stop offset="0.696319" stop-color="#886922"/>
<stop offset="0.842156" stop-color="#9E7818"/>
</radialGradient>
<radialGradient id="paint9_radial_6200_49" cx="0" cy="0" r="1" gradientUnits="userSpaceOnUse" gradientTransform="translate(17.1493 16.7023) rotate(60.1199) scale(23.3116 23.223)">
<stop stop-color="white"/>
<stop offset="0.257472" stop-color="#E0C17E"/>
<stop offset="0.514023" stop-color="#B3870F"/>
<stop offset="0.696319" stop-color="#886922"/>
<stop offset="0.842156" stop-color="#9E7818"/>
</radialGradient>
<radialGradient id="paint10_radial_6200_49" cx="0" cy="0" r="1" gradientUnits="userSpaceOnUse" gradientTransform="translate(17.1493 16.7023) rotate(60.1199) scale(23.3116 23.223)">
<stop stop-color="white"/>
<stop offset="0.257472" stop-color="#E0C17E"/>
<stop offset="0.514023" stop-color="#B3870F"/>
<stop offset="0.696319" stop-color="#886922"/>
<stop offset="0.842156" stop-color="#9E7818"/>
</radialGradient>
<radialGradient id="paint11_radial_6200_49" cx="0" cy="0" r="1" gradientUnits="userSpaceOnUse" gradientTransform="translate(17.1493 16.7023) rotate(60.1199) scale(23.3116 23.223)">
<stop stop-color="white"/>
<stop offset="0.257472" stop-color="#E0C17E"/>
<stop offset="0.514023" stop-color="#B3870F"/>
<stop offset="0.696319" stop-color="#886922"/>
<stop offset="0.842156" stop-color="#9E7818"/>
</radialGradient>
<radialGradient id="paint12_radial_6200_49" cx="0" cy="0" r="1" gradientUnits="userSpaceOnUse" gradientTransform="translate(17.1493 16.7023) rotate(60.1199) scale(23.3116 23.223)">
<stop stop-color="white"/>
<stop offset="0.257472" stop-color="#E0C17E"/>
<stop offset="0.514023" stop-color="#B3870F"/>
<stop offset="0.696319" stop-color="#886922"/>
<stop offset="0.842156" stop-color="#9E7818"/>
</radialGradient>
<radialGradient id="paint13_radial_6200_49" cx="0" cy="0" r="1" gradientUnits="userSpaceOnUse" gradientTransform="translate(34.2501 23.9321) rotate(78.6309) scale(0.243707 0.108621)">
<stop stop-color="white"/>
<stop offset="0.257472" stop-color="#E0C17E"/>
<stop offset="0.514023" stop-color="#B3870F"/>
<stop offset="0.696319" stop-color="#886922"/>
<stop offset="0.842156" stop-color="#9E7818"/>
</radialGradient>
<radialGradient id="paint14_radial_6200_49" cx="0" cy="0" r="1" gradientUnits="userSpaceOnUse" gradientTransform="translate(5.12626 18.6289) rotate(85.0834) scale(0.143882 0.0283344)">
<stop stop-color="white"/>
<stop offset="0.257472" stop-color="#E0C17E"/>
<stop offset="0.514023" stop-color="#B3870F"/>
<stop offset="0.696319" stop-color="#886922"/>
<stop offset="0.842156" stop-color="#9E7818"/>
</radialGradient>
<radialGradient id="paint15_radial_6200_49" cx="0" cy="0" r="1" gradientUnits="userSpaceOnUse" gradientTransform="translate(6.94449 12.5779) rotate(71.2113) scale(0.426224 0.299722)">
<stop stop-color="white"/>
<stop offset="0.257472" stop-color="#E0C17E"/>
<stop offset="0.514023" stop-color="#B3870F"/>
<stop offset="0.696319" stop-color="#886922"/>
<stop offset="0.842156" stop-color="#9E7818"/>
</radialGradient>
<radialGradient id="paint16_radial_6200_49" cx="0" cy="0" r="1" gradientUnits="userSpaceOnUse" gradientTransform="translate(8.85867 29.9332) rotate(66.6885) scale(0.20813 0.174442)">
<stop stop-color="white"/>
<stop offset="0.257472" stop-color="#E0C17E"/>
<stop offset="0.514023" stop-color="#B3870F"/>
<stop offset="0.696319" stop-color="#886922"/>
<stop offset="0.842156" stop-color="#9E7818"/>
</radialGradient>
<radialGradient id="paint17_radial_6200_49" cx="0" cy="0" r="1" gradientUnits="userSpaceOnUse" gradientTransform="translate(13.6463 33.5501) rotate(41.0307) scale(0.291166 0.332529)">
<stop stop-color="white"/>
<stop offset="0.257472" stop-color="#E0C17E"/>
<stop offset="0.514023" stop-color="#B3870F"/>
<stop offset="0.696319" stop-color="#886922"/>
<stop offset="0.842156" stop-color="#9E7818"/>
</radialGradient>
<radialGradient id="paint18_radial_6200_49" cx="0" cy="0" r="1" gradientUnits="userSpaceOnUse" gradientTransform="translate(25.0332 5.9064) rotate(34.8471) scale(0.167257 0.18088)">
<stop stop-color="white"/>
<stop offset="0.257472" stop-color="#E0C17E"/>
<stop offset="0.514023" stop-color="#B3870F"/>
<stop offset="0.696319" stop-color="#886922"/>
<stop offset="0.842156" stop-color="#9E7818"/>
</radialGradient>
<radialGradient id="paint19_radial_6200_49" cx="0" cy="0" r="1" gradientUnits="userSpaceOnUse" gradientTransform="translate(11.4913 7.63573) rotate(52.5453) scale(0.180583 0.201051)">
<stop stop-color="white"/>
<stop offset="0.257472" stop-color="#E0C17E"/>
<stop offset="0.514023" stop-color="#B3870F"/>
<stop offset="0.696319" stop-color="#886922"/>
<stop offset="0.842156" stop-color="#9E7818"/>
</radialGradient>
<radialGradient id="paint20_radial_6200_49" cx="0" cy="0" r="1" gradientUnits="userSpaceOnUse" gradientTransform="translate(33.9293 14.827) rotate(81.7433) scale(0.193139 0.0633031)">
<stop stop-color="white"/>
<stop offset="0.257472" stop-color="#E0C17E"/>
<stop offset="0.514023" stop-color="#B3870F"/>
<stop offset="0.696319" stop-color="#886922"/>
<stop offset="0.842156" stop-color="#9E7818"/>
</radialGradient>
<radialGradient id="paint21_radial_6200_49" cx="0" cy="0" r="1" gradientUnits="userSpaceOnUse" gradientTransform="translate(15.7431 5.62259) rotate(34.8444) scale(0.167268 0.180885)">
<stop stop-color="white"/>
<stop offset="0.257472" stop-color="#E0C17E"/>
<stop offset="0.514023" stop-color="#B3870F"/>
<stop offset="0.696319" stop-color="#886922"/>
<stop offset="0.842156" stop-color="#9E7818"/>
</radialGradient>
<radialGradient id="paint22_radial_6200_49" cx="0" cy="0" r="1" gradientUnits="userSpaceOnUse" gradientTransform="translate(11.6586 7.50972) rotate(35.4521) scale(0.0823835 0.0897698)">
<stop stop-color="white"/>
<stop offset="0.257472" stop-color="#E0C17E"/>
<stop offset="0.514023" stop-color="#B3870F"/>
<stop offset="0.696319" stop-color="#886922"/>
<stop offset="0.842156" stop-color="#9E7818"/>
</radialGradient>
</defs>
</svg>
