<svg width="40" height="40" viewBox="0 0 40 40" fill="none" xmlns="http://www.w3.org/2000/svg">
<path d="M35.999 18.288C36.0066 18.4543 35.9159 18.5572 35.8162 18.6568C34.9398 19.5324 34.0638 20.4082 33.1881 21.2844C33.0292 21.4433 32.8714 21.6033 32.7107 21.7603C32.51 21.9563 32.2825 21.9595 32.0857 21.7631C31.0376 20.7171 29.9907 19.6699 28.9449 18.6215C28.73 18.4062 28.7308 18.1899 28.9472 17.9727C29.9884 16.9279 31.031 15.8847 32.0752 14.8429C32.2876 14.6312 32.5122 14.6375 32.7262 14.8514C33.7573 15.8818 34.788 16.9126 35.8183 17.9437C35.9184 18.0437 36.0102 18.1456 35.999 18.288Z" fill="#ED1B24"/>
<path d="M29.5746 16.6409C29.1629 17.0915 28.7851 17.5025 28.4108 17.9167C28.3536 17.98 28.2892 17.9905 28.2112 17.9912C27.8887 17.994 27.5659 17.9862 27.2437 18.0144C26.1163 18.1133 25.5376 18.6626 25.2244 19.7451C24.9773 20.5994 24.9995 21.4659 25.2711 22.3171C25.5207 23.0992 26.0271 23.6186 26.84 23.8197C27.1854 23.9113 27.5411 23.9588 27.8985 23.9612C28.6247 23.9553 29.3509 23.9618 30.077 23.9538C30.2222 23.9522 30.2638 23.9951 30.2597 24.138C30.2497 24.4833 30.2533 24.8291 30.2569 25.1747C30.2579 25.2694 30.2298 25.3081 30.1297 25.3063C28.9436 25.2845 27.7556 25.3609 26.5717 25.2198C25.6875 25.1144 24.8881 24.8292 24.2664 24.1635C23.8152 23.6809 23.5023 23.0856 23.3607 22.4402C23.1302 21.4244 23.1079 20.4073 23.3891 19.3971C23.7963 17.9347 24.7487 17.0574 26.2439 16.7771C26.7429 16.6849 27.2494 16.6393 27.7569 16.6409C28.3481 16.641 28.9394 16.6409 29.5746 16.6409Z" fill="#ED1B24"/>
<path d="M12.1889 20.9645C12.1889 19.5822 12.1913 18.1999 12.1855 16.8177C12.1849 16.6726 12.224 16.6367 12.3665 16.639C12.9023 16.6477 13.4383 16.6456 13.9742 16.6397C14.0885 16.6384 14.1202 16.6718 14.1201 16.785C14.1172 19.5784 14.1172 22.3717 14.1201 25.1651C14.1202 25.2811 14.0838 25.3097 13.9722 25.3086C13.4306 25.3034 12.8888 25.3015 12.3472 25.3098C12.2145 25.3118 12.1856 25.273 12.186 25.1459C12.1906 23.7521 12.1889 22.3583 12.1889 20.9645Z" fill="#004C97"/>
<path d="M9.96907 21.0657C9.80943 21.0019 9.64489 20.9503 9.46226 20.8859C9.6372 20.8133 9.79427 20.7559 9.94449 20.6842C10.3003 20.5143 10.5941 20.2776 10.7893 19.923C11.2929 19.0079 10.9883 17.5437 9.72784 17.0203C9.03054 16.7307 8.2995 16.6582 7.56096 16.6474C6.42545 16.6308 5.28952 16.6445 4.1538 16.6397C4.03145 16.6392 3.99992 16.6757 4.00006 16.7951C4.00326 19.5782 4.00332 22.3614 4.00024 25.1445C4.00009 25.2695 4.02696 25.3129 4.16102 25.3124C5.4005 25.307 6.64008 25.3167 7.87948 25.3057C8.6155 25.2991 9.34322 25.2174 10.0117 24.8727C10.5861 24.5764 10.9883 24.1286 11.166 23.4979C11.4722 22.4111 11.016 21.4843 9.96907 21.0657ZM5.9317 18.1243C5.93112 18.0214 5.98373 18.0167 6.06131 18.0172C6.38362 18.0193 6.70595 18.0181 7.02826 18.0181C7.42496 18.0219 7.82338 17.9977 8.21725 18.0633C8.61589 18.1296 8.91616 18.3324 9.04662 18.7272C9.16687 19.0911 9.08204 19.4198 8.82074 19.7C8.69122 19.8389 8.52537 19.9165 8.34337 19.9619C8.03621 20.0392 7.72173 20.0839 7.40518 20.0952C6.96242 20.11 6.5191 20.1082 6.07602 20.1134C6.0007 20.1143 5.93004 20.1259 5.93097 20.0054C5.93582 19.3784 5.93606 18.7513 5.9317 18.1243ZM9.23696 23.2861C9.11845 23.663 8.79663 23.837 8.42754 23.9091C7.96176 24.0001 7.48803 24.0027 7.01514 23.9831C6.69815 23.9831 6.38107 23.9788 6.06422 23.9855C5.95301 23.9878 5.93114 23.9456 5.93175 23.8442C5.93573 23.1931 5.93402 22.542 5.93348 21.8909C5.93341 21.8134 5.92479 21.7443 6.04304 21.7446C6.84396 21.7469 7.64691 21.7126 8.43915 21.8704C9.22517 22.027 9.44688 22.6184 9.23697 23.2861L9.23696 23.2861Z" fill="#004C97"/>
<path d="M22.0573 19.3026C21.8544 18.6112 21.4942 18.0241 20.934 17.5588C20.2219 16.9671 19.3766 16.7588 18.4846 16.6848C17.4201 16.5966 16.3527 16.6598 15.2869 16.6388C15.1236 16.6356 15.075 16.6721 15.0759 16.8435C15.0837 18.2205 15.0803 19.5975 15.0802 20.9745C15.0801 22.363 15.0822 23.7515 15.077 25.14C15.0764 25.2783 15.1156 25.3125 15.2508 25.3114C15.9886 25.3058 16.7265 25.3092 17.4644 25.3115C18.0417 25.3133 18.6167 25.2866 19.186 25.1829C20.6869 24.9097 21.6642 24.0449 22.0765 22.5768C22.3829 21.5059 22.3762 20.3697 22.0573 19.3026V19.3026ZM20.1729 22.3064C19.8677 23.2639 19.1958 23.7808 18.2067 23.9053C17.8512 23.95 17.4941 23.9549 17.1371 23.9697C16.9985 23.9755 16.9769 23.9235 16.9775 23.8017C16.9818 22.8625 16.9798 21.9232 16.9798 20.984H16.9793C16.9793 20.0448 16.9818 19.1055 16.9764 18.1663C16.9756 18.0336 17.0062 17.9869 17.147 17.99C17.556 17.9991 17.9645 17.995 18.3722 18.0478C19.2772 18.1648 19.8426 18.688 20.1368 19.5228C20.4613 20.4436 20.4693 21.3766 20.1729 22.3064V22.3064Z" fill="#004C97"/>
<path d="M33.0076 16.7837L33.0079 16.7832L33.0076 16.7837Z" fill="#FCF3F1"/>
<path d="M31.7799 16.7651C31.9123 16.6135 32.0689 16.4893 32.2261 16.3652C32.3189 16.2921 32.4207 16.2836 32.5146 16.3418C32.7041 16.4591 32.8776 16.5977 33.0075 16.7833C33.0493 16.6917 33.095 16.6017 33.1315 16.5081C33.1581 16.4397 33.1873 16.3466 33.1326 16.2995C33.0629 16.2395 33.0024 16.3257 32.9441 16.3655C32.9212 16.4112 32.8831 16.4475 32.8363 16.4682C32.7782 16.2109 32.5353 15.9441 32.38 15.9594C32.222 15.9748 31.9938 16.2612 31.9756 16.4694C31.9082 16.4788 31.8946 16.4244 31.8717 16.3819C31.8495 16.3643 31.828 16.3457 31.805 16.3293C31.7624 16.2989 31.712 16.267 31.6641 16.2967C31.6132 16.3283 31.6375 16.3913 31.6427 16.4378C31.6562 16.5589 31.7258 16.6593 31.7799 16.7651Z" fill="#FCF3F1"/>
<path d="M33.8166 18.5588L33.8165 18.5579H33.8163L33.8166 18.5588Z" fill="#FCF3F1"/>
<path d="M33.5914 17.8845V17.8843H33.591L33.5914 17.8845Z" fill="#FCF3F1"/>
<path d="M31.847 16.1941C31.8967 16.247 31.932 16.2183 31.9743 16.1789C32.0539 16.1049 32.138 16.0355 32.2222 15.9666C32.3484 15.8633 32.474 15.8717 32.5944 15.977C32.6892 16.06 32.7819 16.1454 32.8755 16.2297C32.9 16.2066 32.9209 16.18 32.9377 16.1509C32.9707 16.0674 33.0343 15.957 32.9693 15.8957C32.8915 15.8221 32.8325 15.9577 32.7452 15.9833C32.7522 15.8562 32.6456 15.7883 32.5978 15.6884C32.7157 15.7572 32.8012 15.6969 32.8171 15.5291C32.8235 15.4617 32.8212 15.3808 32.7219 15.4533C32.6509 15.5051 32.6562 15.4543 32.6233 15.4133C32.4407 15.1859 32.3512 15.1685 32.1687 15.426C32.1263 15.4858 32.1216 15.4942 32.0661 15.4539C31.9845 15.3944 31.9663 15.4487 31.9727 15.5196C31.9752 15.5938 32.003 15.6649 32.0514 15.7213C32.1093 15.7242 32.1419 15.6806 32.1816 15.6503C32.358 15.5157 32.4175 15.5196 32.5895 15.6775C32.3487 15.5328 32.2067 15.7133 32.0489 15.8415V15.8415C31.9928 15.8457 32.0586 16.0238 31.9299 15.9247C31.8895 15.8936 31.8413 15.849 31.7951 15.8901C31.7565 15.9244 31.7708 15.989 31.7824 16.0371C31.7996 16.0911 31.8212 16.1436 31.847 16.1941Z" fill="#FCF3F1"/>
<path d="M33.7788 19.0651C33.8077 18.8969 33.8331 18.7284 33.8158 18.5569C33.7162 18.5393 33.6288 18.5735 33.5444 18.6205C33.4411 18.7314 33.3378 18.8424 33.237 18.9506C33.2184 18.9411 33.2037 18.9253 33.1957 18.906C33.1877 18.8866 33.187 18.8651 33.1935 18.8452C33.2354 18.5942 33.1248 18.4188 32.9261 18.2819C32.8711 18.2404 32.8184 18.1959 32.7684 18.1485C32.4632 17.8829 32.3484 17.8787 32.0405 18.1358C31.9128 18.2424 31.7919 18.3574 31.6717 18.4726C31.5355 18.603 31.649 18.7825 31.581 18.9438C31.4573 18.8683 31.3695 18.7616 31.2868 18.6495H31.2868C31.2634 18.6328 31.239 18.6176 31.2138 18.6038C30.9971 18.5002 30.9614 18.5277 30.9581 18.7682C30.9545 19.025 31.0796 19.2301 31.1999 19.4401C31.2332 19.4983 31.3104 19.5637 31.2762 19.623C31.1816 19.7874 31.2516 19.9589 31.2276 20.1244C31.2096 20.249 31.2671 20.2778 31.3836 20.2771C32.0627 20.2727 32.742 20.2714 33.4212 20.2786C33.5588 20.2801 33.5869 20.23 33.5784 20.1081C33.566 19.9299 33.539 19.7456 33.5444 19.5757C33.5498 19.4032 33.6949 19.2352 33.7788 19.0651Z" fill="#FCF3F1"/>
<path d="M31.3577 18.5806C31.4205 18.6294 31.4282 18.7233 31.5013 18.7625C31.5639 18.2881 31.9654 18.1227 32.2917 17.8954C32.3863 17.8295 32.502 17.8743 32.6011 17.934C32.8351 18.0749 33.0226 18.2697 33.2169 18.457C33.305 18.542 33.2423 18.6565 33.2831 18.7624C33.3959 18.7152 33.3973 18.587 33.4663 18.512V18.5121C33.5471 18.3106 33.6326 18.1101 33.5908 17.8844C33.3545 17.871 33.2445 18.0573 33.1145 18.1939C33.0729 18.1888 33.0657 18.1652 33.0679 18.1434C33.1101 17.7247 32.7637 17.594 32.5094 17.3998C32.44 17.3467 32.346 17.3586 32.2649 17.4096C32.0834 17.524 31.9339 17.6755 31.7787 17.8206C31.7352 17.8613 31.7381 17.9132 31.7373 17.9644C31.736 18.0418 31.7369 18.1192 31.7369 18.2238C31.5698 18.1201 31.5001 17.9687 31.3622 17.8962C31.2327 17.8678 31.1815 17.9097 31.1864 18.0512C31.1931 18.2473 31.2729 18.4133 31.3577 18.5806Z" fill="#FCF3F1"/>
<path d="M31.425 17.857C31.5165 17.8828 31.5438 17.993 31.6341 18.024C31.7194 17.6532 32.0243 17.4952 32.3017 17.3172C32.3867 17.2628 32.4898 17.2964 32.5777 17.3534C32.762 17.473 32.9179 17.6251 33.079 17.7722C33.1546 17.8413 33.1222 17.932 33.1492 18.0282C33.2609 17.9559 33.3562 17.8609 33.4289 17.7494C33.4697 17.6386 33.4955 17.5228 33.5057 17.4051C33.5102 17.296 33.4806 17.2431 33.3641 17.2732C33.2368 17.3417 33.1613 17.4702 33.0496 17.5551C33.0353 17.5423 33.0202 17.5345 33.0209 17.5286C33.0662 17.1394 32.7494 17.009 32.5117 16.8278C32.436 16.7701 32.3331 16.7851 32.2507 16.8422C32.1006 16.9487 31.9615 17.0701 31.8357 17.2045C31.7413 17.3031 31.8198 17.4393 31.7638 17.5612C31.6524 17.4927 31.5834 17.3858 31.4935 17.3022H31.4935C31.4269 17.3203 31.3131 17.1834 31.2951 17.3426C31.2704 17.5244 31.317 17.7088 31.425 17.857V17.857Z" fill="#FCF3F1"/>
<path d="M31.5331 17.2384C31.5759 17.2901 31.6187 17.3418 31.677 17.4123C31.6772 17.4116 31.6774 17.4109 31.6776 17.4102C31.6771 17.41 31.6765 17.4098 31.676 17.4096C31.6767 17.4096 31.6772 17.4096 31.6778 17.4096C31.7582 17.0792 32.016 16.9478 32.2291 16.782C32.3411 16.6948 32.4866 16.7116 32.5999 16.8005C32.7484 16.9171 32.885 17.0486 33.028 17.1724C33.0911 17.2271 33.0747 17.3088 33.0953 17.3803C33.2239 17.3368 33.2258 17.2052 33.2963 17.1269C33.3148 17.0142 33.3902 16.8677 33.294 16.798C33.2028 16.732 33.1094 16.8623 33.0269 16.926C33.0092 16.9628 32.9856 17.0111 32.9464 17.006C32.8922 16.9989 32.9157 16.9414 32.9131 16.905C32.9017 16.7396 32.5721 16.3956 32.4066 16.3807C32.3749 16.379 32.3431 16.3838 32.3132 16.3948C32.2834 16.4058 32.2561 16.4228 32.233 16.4447C32.1669 16.5002 32.1053 16.5618 32.0353 16.6118C31.9252 16.6906 31.8577 16.7816 31.8716 16.9279C31.8828 17.0455 31.8353 17.038 31.7768 16.9552C31.7193 16.8997 31.6575 16.8489 31.5919 16.8033C31.5406 16.7727 31.4561 16.7473 31.4528 16.8507C31.4486 16.9839 31.429 17.1255 31.5331 17.2384L31.5331 17.2384Z" fill="#FCF3F1"/>
</svg>
