<svg width="40" height="40" viewBox="0 0 40 40" fill="none" xmlns="http://www.w3.org/2000/svg">
<path d="M29.4692 20.6661C29.9922 20.6491 30.4235 20.5637 30.8236 20.3617C30.9724 20.2865 31.0422 20.3161 31.113 20.4619C31.3102 20.859 31.599 21.2036 31.9555 21.4673C32.0334 21.5268 32.0999 21.5747 32.0294 21.6892C31.9716 21.783 31.9278 21.8019 31.8337 21.7306C31.4936 21.4729 31.2005 21.173 30.9846 20.8041C30.9148 20.6848 30.848 20.6633 30.7147 20.7125C30.0707 20.9502 29.4116 21.0378 28.7397 20.8393C27.7067 20.5341 27.1317 19.4282 27.5127 18.4652C27.7281 17.9208 28.1444 17.5715 28.679 17.3507C28.7897 17.3051 28.8125 17.344 28.8287 17.445C28.919 18 29.1475 18.5233 29.4932 18.9667C29.5651 19.0606 29.5477 19.1225 29.4792 19.206C29.1915 19.5572 29.0029 19.9609 28.8649 20.3909C28.823 20.5213 28.8252 20.6024 28.9961 20.6113C29.1794 20.621 29.3615 20.653 29.4692 20.6661Z" fill="#FEC531"/>
<path d="M30.6872 23.0174C30.2142 23.0106 29.7625 22.819 29.429 22.4835C29.0954 22.148 28.9064 21.6953 28.9023 21.2222C28.9021 21.0919 28.9345 21.0465 29.0706 21.0673C29.6221 21.1517 30.1603 21.081 30.6837 20.8989C30.7983 20.8591 30.8505 20.8983 30.908 20.9865C31.1595 21.3663 31.4836 21.6927 31.8616 21.947C31.9872 22.0333 32.033 22.0058 32.0951 21.8835C32.3796 21.3228 32.5125 20.734 32.4232 20.1079C32.3963 19.9191 32.4417 19.8389 32.6377 19.8119C33.0702 19.7504 33.4802 19.5809 33.8298 19.3188C33.9541 19.2274 34.0198 19.2755 34.0897 19.3631C34.1862 19.484 34.0482 19.5072 33.995 19.5456C33.6643 19.7867 33.2877 19.9577 32.8885 20.0479C32.7586 20.0771 32.7165 20.1286 32.7203 20.276C32.7439 21.1936 32.5417 22.0308 31.7844 22.6402C31.4769 22.8954 31.0867 23.0295 30.6872 23.0174H30.6872Z" fill="#FEC531"/>
<path d="M30.7879 15.2078C31.4032 15.211 31.8648 15.5032 32.2368 15.9711C32.3007 16.0515 32.2901 16.0878 32.2035 16.1325C31.6969 16.393 31.2653 16.7786 30.9494 17.2526C30.883 17.3508 30.8092 17.3228 30.7258 17.2914C30.3071 17.1338 29.8724 17.0782 29.4267 17.0746C29.2505 17.0732 29.2191 17.1299 29.2459 17.2966C29.3464 17.9202 29.6009 18.4678 30.0382 18.9218C30.1686 19.0572 30.1553 19.1275 30.0283 19.252C29.7179 19.5594 29.4839 19.9352 29.3451 20.3494C29.3238 20.4106 29.3314 20.4963 29.2202 20.4957C29.0434 20.4949 29.0072 20.4605 29.0665 20.2933C29.2064 19.8991 29.3971 19.5309 29.6793 19.219C29.7757 19.1124 29.7661 19.0435 29.6792 18.9364C29.2254 18.3775 28.9552 17.739 28.9522 17.0155C28.9479 16.0044 29.7779 15.2016 30.7879 15.2078Z" fill="#FEC531"/>
<path d="M32.931 17.6959C32.9379 17.3023 32.8444 16.9277 32.7224 16.5568C32.6769 16.4185 32.6248 16.4087 32.4975 16.4728C31.9148 16.7663 31.4605 17.1908 31.1548 17.766C31.0862 17.8948 31.0297 17.9239 30.8988 17.8536C30.4844 17.6326 30.0214 17.5184 29.5517 17.5215C29.4061 17.5212 29.4182 17.4278 29.4085 17.3389C29.3954 17.2198 29.4837 17.2368 29.5532 17.2383C29.9648 17.2475 30.367 17.3138 30.746 17.4769C30.8994 17.5429 30.978 17.5089 31.0671 17.3731C31.4011 16.8546 31.8789 16.4446 32.442 16.193C33.1524 15.874 33.8147 15.9803 34.3897 16.4868C34.9625 16.9912 35.1278 17.6335 34.9028 18.3677C34.8471 18.5644 34.7628 18.7518 34.6525 18.9239C34.604 18.9963 34.5705 19.0201 34.4912 18.9411C34.0993 18.5468 33.6131 18.2592 33.0787 18.1057C32.9593 18.0712 32.9191 18.009 32.9299 17.8933C32.9361 17.8281 32.931 17.7617 32.931 17.6959Z" fill="#FEC531"/>
<path d="M32.7718 17.8527C32.7744 17.8723 32.7741 17.8922 32.7711 17.9118C32.6966 18.149 32.8373 18.201 33.0298 18.2639C33.8116 18.5195 34.4823 18.9234 34.8176 19.7275C35.214 20.6784 34.8041 21.716 33.8754 22.1007C33.4632 22.2714 33.0395 22.2552 32.6144 22.1404C32.5166 22.114 32.4825 22.0844 32.5354 21.9791C32.7878 21.4765 32.9098 20.9184 32.89 20.3563C32.8859 20.2145 32.9684 20.1959 33.0654 20.1692C33.5035 20.0485 33.8929 19.8335 34.255 19.5627C34.3574 19.4861 34.3693 19.4352 34.2714 19.335C33.8247 18.8779 33.2935 18.5772 32.6665 18.4607C32.4749 18.425 32.4191 18.3659 32.4602 18.1661C32.548 17.7387 32.4807 17.3149 32.3696 16.8975C32.3536 16.8373 32.3021 16.7722 32.3665 16.715C32.4152 16.6719 32.4742 16.6292 32.5422 16.6372C32.6077 16.6449 32.6038 16.7163 32.618 16.7626C32.7282 17.1152 32.7801 17.4834 32.7718 17.8527L32.7718 17.8527Z" fill="#FEC531"/>
<path d="M27.4041 17.1429C27.4145 17.161 27.421 17.181 27.4231 17.2018C27.4252 17.2225 27.423 17.2435 27.4164 17.2633C27.4099 17.2831 27.3992 17.3013 27.3851 17.3167C27.371 17.332 27.3539 17.3443 27.3347 17.3526C27.3088 17.3637 27.2829 17.3746 27.2584 17.3874C26.7448 17.6552 26.4635 18.1035 26.2797 18.6275C25.7137 20.2408 25.1494 21.8548 24.5867 23.4693C24.4352 23.9033 24.2859 24.3382 24.1333 24.7792C23.6672 24.7792 23.2059 24.7938 22.7459 24.7739C22.4561 24.7613 22.2637 24.5763 22.1665 24.3055C21.9933 23.8227 21.8235 23.3386 21.6571 22.8533C21.0153 20.9946 20.3743 19.1356 19.7341 17.2763C19.7215 17.2397 19.7123 17.2018 19.7012 17.1628C20.1116 17.1628 20.5164 17.1431 20.9179 17.1713C21.1116 17.1849 21.1869 17.379 21.2455 17.5544C21.7475 19.0578 22.2505 20.5609 22.7545 22.0636C22.9242 22.5731 23.0838 23.086 23.2479 23.5969C23.383 23.1741 23.5141 22.7467 23.6562 22.3229C24.1518 20.8449 24.6497 19.3676 25.1498 17.8911C25.3387 17.3324 25.6166 17.134 26.2057 17.132C26.5421 17.1308 26.8785 17.1308 27.2148 17.1321C27.278 17.1323 27.341 17.1391 27.4041 17.1429V17.1429Z" fill="#006D68"/>
<path d="M11.4307 17.146C11.7976 17.146 12.1453 17.1331 12.4914 17.1514C12.67 17.1608 12.7375 17.3071 12.7382 17.4771C12.7393 17.7605 12.7386 18.044 12.7386 18.3274V24.776C12.3657 24.776 11.9997 24.7876 11.6357 24.7657C11.5659 24.7615 11.489 24.633 11.4438 24.5469C11.4134 24.4891 11.4307 24.405 11.4306 24.3327C11.4304 22.0192 11.4304 19.7057 11.4307 17.3922C11.4307 17.3142 11.4307 17.2362 11.4307 17.146Z" fill="#006D68"/>
<path d="M10.5458 21.5313C10.2507 21.1335 9.84946 20.9011 9.35527 20.7788C9.3943 20.7464 9.40282 20.7345 9.41409 20.7306C10.5092 20.353 11.0001 19.1843 10.4781 18.161C10.1306 17.4799 9.50632 17.1966 8.79081 17.1676C7.67176 17.1222 6.55018 17.1388 5.42967 17.1321C5.09189 17.1301 5.00022 17.2274 5.00018 17.571C4.99992 19.8381 4.99994 22.1053 5.00025 24.3724C5.00029 24.6921 5.09226 24.7859 5.40729 24.7861C6.44901 24.7868 7.49077 24.792 8.53241 24.7826C8.79555 24.7837 9.05798 24.7552 9.31473 24.6976C11.0309 24.2849 11.2507 22.4818 10.5458 21.5313ZM6.3223 18.194C6.33728 18.1827 6.3475 18.1682 6.35768 18.1682C7.02874 18.1704 7.70119 18.1482 8.37044 18.1847C8.98223 18.218 9.31255 18.6042 9.32248 19.2046C9.33321 19.8533 8.99878 20.3054 8.37644 20.3494C7.70288 20.397 7.02334 20.3602 6.3223 20.3602V18.194ZM9.06162 23.5635C8.84563 23.6748 8.6089 23.74 8.3664 23.7551C7.71487 23.7822 7.06161 23.7675 6.40903 23.7684C6.38052 23.7654 6.35234 23.7598 6.32484 23.7517V21.2672C6.73939 21.2672 7.14061 21.2627 7.54166 21.2686C7.87719 21.2735 8.21494 21.2695 8.54744 21.3072C9.09003 21.3687 9.49009 21.7483 9.58477 22.2492C9.69427 22.8285 9.50905 23.3376 9.06162 23.5635L9.06162 23.5635Z" fill="#006D68"/>
<path d="M19.7005 19.1854C19.2712 17.9188 18.3305 17.2219 16.9881 17.16C15.942 17.1118 14.8926 17.1353 13.8446 17.1341C13.6001 17.1338 13.5059 17.2537 13.5059 17.5172C13.5058 19.8434 13.5059 22.1696 13.5061 24.4957V24.7756C13.565 24.7804 13.6031 24.7863 13.6411 24.7862C14.7552 24.7851 15.8699 24.8062 16.9831 24.7749C17.9958 24.7464 18.8299 24.3168 19.3532 23.4332C20.1526 22.0834 20.1917 20.6347 19.7005 19.1854ZM18.3704 22.5575C18.1024 23.269 17.5681 23.6905 16.8127 23.7441C16.1577 23.7906 15.4969 23.7537 14.8218 23.7537V18.1645C15.4231 18.1645 15.9969 18.1481 16.5694 18.1681C17.5884 18.2036 18.2264 18.6962 18.4791 19.682C18.7257 20.6443 18.7254 21.6149 18.3704 22.5575L18.3704 22.5575Z" fill="#006D68"/>
</svg>
