<svg width="40" height="40" viewBox="0 0 40 40" fill="none" xmlns="http://www.w3.org/2000/svg">
<path d="M24.6835 11.2926C22.854 11.2926 21.098 11.8048 19.6346 12.7562L14.7322 15.9024V5L6.09808 12.1707V25.7804C6.09808 29.8048 8.80538 33.2439 12.4638 34.4877L14.147 35C10.7079 33.3169 8.43948 29.9511 8.43948 26.1463C8.43948 20.5854 13.1225 16.1219 18.903 16.1219C24.3176 16.1219 28.781 19.9999 29.3663 25.0488H23.2932C22.781 23.0731 20.9516 21.6097 18.8298 21.6097C16.2688 21.6097 14.1468 23.7317 14.1468 26.2195C14.1468 28.7072 16.2688 30.7561 18.8298 30.7561C21.2444 30.7561 23.1469 29.073 23.4396 26.7316H29.3663C29.2931 28.7804 28.4881 30.6097 27.2444 32.0732C27.2444 32.0732 30.9029 27.8293 32.1467 25.9268C33.2444 24.2438 33.9029 22.4147 33.9029 20.3658C33.9029 15.3903 29.7322 11.2926 24.6835 11.2926V11.2926Z" fill="#00367A"/>
</svg>
