<svg width="40" height="40" viewBox="0 0 40 40" fill="none" xmlns="http://www.w3.org/2000/svg">
<path d="M17.1009 21.3034C16.5877 20.2334 15.7385 19.6973 14.5554 19.6568C13.3713 19.6162 12.4453 20.0439 11.8527 21.0982C11.4178 21.872 11.3003 22.7181 11.3098 23.6785C11.3001 24.0248 11.3249 24.3711 11.384 24.7125C11.7089 26.4977 12.706 27.6804 14.7678 27.5276C15.8834 27.4449 16.6344 26.8684 17.1023 25.8842C17.4924 25.0636 17.5428 24.1813 17.5214 23.2953C17.5048 22.6091 17.4033 21.9341 17.1009 21.3034ZM15.503 24.9397C15.3265 25.4641 14.9642 25.7674 14.4791 25.7862C13.9585 25.8063 13.5506 25.5572 13.371 25.0165C13.0601 24.0998 13.0619 23.1058 13.3762 22.1902C13.5428 21.6942 13.926 21.4525 14.4027 21.4486C14.922 21.4444 15.245 21.7213 15.4505 22.1694C15.664 22.635 15.646 23.1365 15.6753 23.5717C15.6365 24.0698 15.6464 24.5139 15.503 24.9397V24.9397Z" fill="#007DC5"/>
<path d="M20.4746 19.7932H18.6114V27.4092H20.4746V19.7932Z" fill="#007DC5"/>
<path d="M9.34447 23.3639C9.37438 23.3299 9.40786 23.2993 9.44431 23.2725C10.1939 22.9047 10.4189 21.8768 10.1824 21.0274C9.9537 20.2059 9.3743 19.7955 8.44716 19.789C7.88805 19.7851 7.32892 19.7856 6.76979 19.7861V19.7841H5.00024V27.4095H6.76979V27.4079C7.25109 27.4088 7.73235 27.4082 8.2134 27.3978C8.72986 27.3866 9.27715 27.3772 9.712 27.0649C10.4812 26.5125 10.6208 25.6956 10.5175 24.8167C10.4343 24.108 10.0634 23.6108 9.34447 23.3639ZM6.8689 21.3332H7.73865C7.83374 21.3332 7.92788 21.3519 8.01573 21.3883C8.10357 21.4247 8.1834 21.478 8.25063 21.5452C8.31786 21.6125 8.37119 21.6923 8.40758 21.7801C8.44396 21.868 8.46269 21.9621 8.46269 22.0572V22.0572C8.46269 22.1523 8.44396 22.2464 8.40758 22.3343C8.37119 22.4221 8.31786 22.5019 8.25063 22.5692C8.1834 22.6364 8.10357 22.6897 8.01573 22.7261C7.92788 22.7625 7.83374 22.7812 7.73865 22.7812H6.8689V21.3332ZM7.90188 25.7904H6.8689V24.2356H7.90188C8.10806 24.2356 8.3058 24.3175 8.45159 24.4633C8.59738 24.6091 8.67928 24.8068 8.67928 25.013C8.67928 25.2192 8.59738 25.4169 8.45159 25.5627C8.3058 25.7085 8.10806 25.7904 7.90188 25.7904V25.7904Z" fill="#007DC5"/>
<path d="M28.5969 24.1325L24.5447 27.7096L26.8116 22.8161L22.1943 20.1445L27.4731 20.7097L28.5969 12.2905L29.7208 20.7097L34.9996 20.1445L30.3822 22.8161L32.6491 27.7096L28.5969 24.1325Z" fill="black"/>
<path d="M28.5975 24.0299L24.77 27.4078L26.9149 22.784L22.548 20.2602L27.5378 20.7997L28.5975 12.875L29.6571 20.7997L34.6469 20.2602L30.28 22.784L32.4249 27.4078L28.5975 24.0299Z" fill="#E53312"/>
<path d="M29.6565 20.7998H27.5372L26.9143 22.7842L28.5969 24.03L30.2794 22.7842L29.6565 20.7998Z" fill="#0075BF"/>
<path d="M28.5969 23.606C27.8455 23.606 27.2354 22.9959 27.2354 22.2446C27.2354 21.4932 27.8455 20.8767 28.5969 20.8767C29.3483 20.8767 29.9583 21.4868 29.9583 22.2446C29.9583 22.9895 29.3483 23.606 28.5969 23.606Z" fill="black"/>
<path d="M28.5969 23.529C27.8841 23.529 27.3125 22.951 27.3125 22.2446C27.3125 21.5382 27.8905 20.9602 28.5969 20.9602C29.3097 20.9602 29.8813 21.5382 29.8813 22.2446C29.8813 22.951 29.3033 23.529 28.5969 23.529Z" fill="white"/>
<path d="M28.6298 21.4355C28.6234 21.4355 28.6234 21.4355 28.6298 21.4355C28.6234 21.4355 28.617 21.4355 28.617 21.4355C28.6106 21.4355 28.6106 21.4355 28.6041 21.4355C28.5977 21.4291 28.5849 21.4355 28.5784 21.4355C28.572 21.4355 28.572 21.4291 28.572 21.4291V21.4355C28.5784 21.4355 28.5784 21.4355 28.5849 21.4355C28.5913 21.4419 28.5913 21.4484 28.5977 21.4548C28.6041 21.4548 28.617 21.4548 28.617 21.4548C28.6234 21.4548 28.6234 21.4484 28.6234 21.4419C28.6234 21.4419 28.6298 21.4419 28.6362 21.4419L28.6298 21.4355ZM28.5913 21.4548C28.5913 21.4484 28.5977 21.4548 28.5977 21.4548C28.6041 21.4548 28.5913 21.4548 28.5913 21.4548ZM28.5977 21.9043C28.5849 21.9043 28.572 21.9107 28.5656 21.9236C28.5592 21.93 28.5592 21.9429 28.5656 21.9493C28.572 21.9557 28.5849 21.9685 28.5977 21.9685C28.6106 21.9685 28.6234 21.9557 28.6298 21.9493C28.6427 21.9236 28.6234 21.9043 28.5977 21.9043ZM28.6041 21.9557C28.5977 21.9621 28.5977 21.9621 28.5913 21.9557C28.5849 21.9493 28.5849 21.9429 28.5849 21.93C28.5849 21.9172 28.5977 21.9107 28.6041 21.9043C28.617 21.9172 28.617 21.9429 28.6041 21.9557ZM29.0472 22.4181C29.0408 22.4181 29.0408 22.4052 29.0408 22.4052C29.0344 22.4181 29.0344 22.4181 29.028 22.4181C29.0216 22.4181 29.0216 22.4181 29.0151 22.4181C29.0151 22.4309 29.0408 22.4309 29.0408 22.4181C29.0472 22.4245 29.0601 22.4309 29.0665 22.4181C29.0601 22.4245 29.0537 22.4181 29.0472 22.4181ZM29.1307 22.4181C29.1243 22.4181 29.1115 22.4117 29.0986 22.4117C29.0922 22.4117 29.0858 22.4181 29.0794 22.4245C29.0729 22.4309 29.0665 22.4438 29.0729 22.4566C29.0729 22.4566 29.0729 22.463 29.0794 22.463C29.0794 22.463 29.0794 22.4566 29.0858 22.4566C29.105 22.4566 29.1179 22.4566 29.1307 22.4502C29.1371 22.4438 29.1372 22.4373 29.1436 22.4309C29.1436 22.4245 29.15 22.4181 29.15 22.4117C29.1372 22.4181 29.1307 22.4181 29.1307 22.4181ZM29.0922 22.4502C29.0858 22.4502 29.0858 22.4502 29.0922 22.4502C29.0858 22.4438 29.0858 22.4438 29.0922 22.4502C29.0922 22.4373 29.0922 22.4373 29.0986 22.4373C29.105 22.4373 29.105 22.4502 29.0986 22.4502C29.105 22.4502 29.1115 22.4438 29.1115 22.4373C29.1179 22.4373 29.1179 22.4373 29.1179 22.4438C29.1179 22.4502 29.105 22.4566 29.0922 22.4502ZM28.9894 22.4245C28.9766 22.4181 28.9573 22.4245 28.9445 22.4245L28.9381 22.4181C28.9381 22.4309 28.9445 22.4373 28.9573 22.4373C28.9638 22.4566 28.983 22.463 29.0087 22.4566C29.0087 22.4566 29.0087 22.463 29.0151 22.463L29.0216 22.4566C29.0216 22.4502 29.0151 22.4438 29.0151 22.4373C29.0087 22.4373 28.9959 22.4245 28.9894 22.4245ZM28.9702 22.4373C28.9766 22.4309 28.9894 22.4438 28.983 22.4438H28.9766C28.9766 22.4566 28.9894 22.4502 28.9959 22.4502C28.9959 22.4502 29.0023 22.4502 29.0023 22.4566C28.9894 22.4566 28.9638 22.4502 28.9702 22.4373ZM29.0216 22.6236C29.0216 22.63 29.028 22.6364 29.0344 22.6364C29.0408 22.6364 29.0472 22.63 29.0472 22.6236C29.0408 22.6172 29.028 22.6172 29.0216 22.6236ZM28.8482 22.919C28.8546 22.9126 28.8674 22.9126 28.8739 22.9061C28.861 22.8933 28.8289 22.8933 28.8289 22.919C28.8289 22.9318 28.8482 22.9318 28.8482 22.919ZM28.9252 23.1309C28.9188 23.1309 28.9124 23.1373 28.906 23.1373C28.8995 23.1373 28.8995 23.1309 28.8931 23.1309C28.8867 23.1309 28.8739 23.1245 28.8674 23.1245C28.8546 23.1245 28.8225 23.1309 28.8417 23.1437C28.8482 23.1502 28.861 23.1502 28.8674 23.1502C28.861 23.1566 28.8674 23.163 28.8674 23.163C28.8803 23.1694 28.906 23.1694 28.9252 23.1759C28.9381 23.1759 28.9509 23.1759 28.9702 23.1759C28.9766 23.1759 28.983 23.1823 28.9894 23.1823C29.0087 23.1823 29.0151 23.1823 29.028 23.1759C29.0344 23.1694 29.0408 23.1694 29.0344 23.1566C29.0216 23.1502 29.0023 23.1437 28.983 23.1437C28.9766 23.1245 28.9445 23.1245 28.9252 23.1309ZM29.5032 22.9511C29.4968 22.9511 29.4904 22.9511 29.4839 22.9447C29.4711 22.9447 29.4582 22.9447 29.4454 22.9447C29.4326 22.9447 29.4261 22.9447 29.4133 22.9382C29.4005 22.9382 29.3876 22.9318 29.3812 22.9318C29.3748 22.9318 29.3619 22.919 29.3555 22.919C29.3234 22.8997 29.2913 22.8869 29.2592 22.874C29.2656 22.8612 29.272 22.8548 29.2784 22.8419C29.2849 22.8291 29.2849 22.8098 29.2913 22.7905C29.2913 22.7777 29.2977 22.7649 29.2977 22.7584C29.2977 22.7327 29.2977 22.7135 29.2977 22.6878C29.2913 22.6172 29.2977 22.5529 29.2977 22.4951C29.2977 22.4694 29.2913 22.4438 29.2849 22.4181C29.2784 22.3924 29.272 22.3667 29.2592 22.3474C29.2592 22.341 29.2527 22.3282 29.2463 22.3217C29.2399 22.3153 29.2335 22.3089 29.2271 22.3089V22.3025C29.2271 22.2961 29.2142 22.2896 29.2078 22.2832C29.2014 22.2768 29.2014 22.2768 29.1949 22.2704C29.1885 22.2704 29.1821 22.2639 29.1757 22.2639C29.1693 22.2639 29.1693 22.2639 29.1628 22.2575C29.1564 22.2575 29.1564 22.2511 29.1564 22.2511C29.1436 22.2447 29.1307 22.2447 29.1115 22.2447C29.1115 22.2447 29.105 22.2447 29.105 22.2383C29.0794 22.2318 29.0472 22.2383 29.0216 22.2318C28.9959 22.2254 28.9702 22.2126 28.9509 22.1997C28.9509 22.1869 28.9445 22.1805 28.9316 22.1805C28.9316 22.174 28.9381 22.1612 28.9252 22.1548H28.9188C28.906 22.1098 28.8995 22.0649 28.8867 22.0263C28.8803 22.0071 28.8739 21.9814 28.8674 21.9621C28.8674 21.9493 28.861 21.9364 28.861 21.9236C28.861 21.9107 28.8546 21.8979 28.8546 21.8915C28.8546 21.8722 28.8546 21.8594 28.8482 21.8401C28.8546 21.8337 28.8674 21.8208 28.8674 21.808V21.8016C28.8674 21.7951 28.861 21.7887 28.8546 21.7759C28.8417 21.7502 28.8417 21.7181 28.8353 21.6924C28.8289 21.6603 28.8225 21.6346 28.8161 21.6089C28.8096 21.6025 28.8096 21.5896 28.8032 21.5832C28.7968 21.564 28.7904 21.5575 28.7775 21.5511C28.7775 21.5447 28.7711 21.5383 28.7711 21.5318C28.7711 21.5254 28.7647 21.519 28.7647 21.5126C28.7647 21.4997 28.7647 21.4933 28.7647 21.4869C28.7647 21.4805 28.7583 21.4805 28.7583 21.4805C28.7583 21.4741 28.7583 21.4741 28.7583 21.4676C28.7583 21.4612 28.7518 21.4612 28.7518 21.4548C28.7583 21.4419 28.7518 21.4291 28.7454 21.4227C28.7518 21.4163 28.7454 21.4034 28.739 21.397C28.7454 21.3906 28.739 21.3777 28.7326 21.3713C28.739 21.3585 28.7326 21.352 28.7261 21.3456C28.7326 21.3328 28.7261 21.3199 28.7197 21.3135V21.3071C28.7197 21.3007 28.7133 21.3007 28.7133 21.2942C28.7133 21.2878 28.7133 21.2878 28.7133 21.2814C28.7133 21.275 28.7133 21.275 28.7069 21.2686C28.7069 21.2429 28.7005 21.23 28.6812 21.2108C28.6555 21.1851 28.6234 21.1786 28.5977 21.1786C28.5656 21.1722 28.5399 21.1915 28.5142 21.2043C28.495 21.2172 28.4885 21.23 28.4821 21.2493V21.2557C28.4757 21.2685 28.4693 21.2814 28.4693 21.3007C28.4628 21.3135 28.4628 21.3199 28.4628 21.3263C28.4628 21.3328 28.4628 21.3392 28.4628 21.3392V21.3456V21.352C28.4564 21.3585 28.4564 21.3713 28.4564 21.3777C28.45 21.3841 28.45 21.397 28.4564 21.4034C28.45 21.4098 28.45 21.4291 28.4564 21.4355C28.4564 21.4419 28.45 21.4419 28.45 21.4484C28.45 21.4548 28.4564 21.4548 28.4564 21.4612C28.4564 21.4676 28.45 21.4676 28.45 21.4741C28.45 21.4805 28.45 21.4869 28.45 21.4933C28.4436 21.4997 28.4372 21.5126 28.4436 21.519C28.4436 21.5254 28.4372 21.5254 28.4372 21.5254V21.5318C28.4372 21.5383 28.4307 21.5447 28.4243 21.5447C28.4243 21.5511 28.4179 21.5575 28.4179 21.564C28.4115 21.5768 28.3986 21.5961 28.3922 21.6153C28.3794 21.6796 28.3601 21.7566 28.3473 21.8208C28.3473 21.8337 28.3408 21.8465 28.3344 21.8594C28.3023 21.8465 28.2573 21.8401 28.2188 21.8337C28.2188 21.8273 28.2188 21.8208 28.2124 21.8144C28.206 21.808 28.1996 21.8144 28.1867 21.8208C28.1867 21.8144 28.1674 21.808 28.161 21.8144C28.1546 21.8144 28.1546 21.808 28.1482 21.808C28.1418 21.7887 28.1353 21.7759 28.1225 21.763C28.1161 21.7566 28.1096 21.7566 28.1032 21.7502C28.0904 21.7438 28.084 21.7373 28.0711 21.7309C28.0647 21.7309 28.0454 21.7181 28.0454 21.7117V21.7052C28.0326 21.6603 28.0262 21.6218 28.0133 21.5768C28.0133 21.5704 28.0069 21.564 28.0069 21.5575L28.0133 21.5511C28.0133 21.5447 28.0133 21.5383 28.0069 21.5318C28.0005 21.5126 27.994 21.4997 27.994 21.4805C28.0133 21.4741 28.0262 21.4676 28.039 21.4612C28.0454 21.4484 28.0518 21.4419 28.0518 21.4227C28.0454 21.3777 28.0133 21.3392 28.0069 21.2878C28.0069 21.275 28.0069 21.2685 28.0069 21.2557C28.0005 21.2557 28.0005 21.2621 27.994 21.2686C27.9812 21.3071 28.0005 21.3456 28.0069 21.3777C28.0069 21.3906 28.0069 21.4098 27.994 21.4227C27.9876 21.4291 27.9812 21.4355 27.9748 21.4355C27.9684 21.4227 27.9684 21.397 27.9684 21.3841C27.9619 21.3777 27.9748 21.3649 27.9684 21.3585C27.9684 21.3585 27.9619 21.352 27.9555 21.3456C27.9491 21.3392 27.9491 21.3392 27.9491 21.3328C27.9363 21.3135 27.9234 21.2878 27.917 21.2686C27.9106 21.2621 27.9106 21.2493 27.9041 21.2493C27.8977 21.2557 27.9041 21.2621 27.9041 21.2621C27.9041 21.2814 27.9106 21.2942 27.9106 21.3135C27.9106 21.3263 27.9106 21.352 27.9106 21.3649C27.9106 21.3713 27.9041 21.3713 27.9041 21.3777L27.9106 21.3841C27.9106 21.3906 27.917 21.3906 27.917 21.397C27.9298 21.4098 27.9363 21.4291 27.9427 21.4484C27.9363 21.4484 27.9363 21.4548 27.9363 21.4612C27.9106 21.4741 27.8913 21.4548 27.8913 21.4291C27.8913 21.4098 27.8913 21.3841 27.8913 21.3649C27.8849 21.3392 27.8785 21.3199 27.8656 21.3071C27.8592 21.3007 27.8592 21.2942 27.8463 21.3007C27.8463 21.3071 27.8528 21.3135 27.8528 21.3199C27.8656 21.3585 27.8592 21.4227 27.8592 21.4676C27.8592 21.4869 27.872 21.4997 27.8849 21.5126C27.9041 21.5254 27.9234 21.519 27.9491 21.5126C27.9555 21.5318 27.9619 21.5511 27.9619 21.5704C27.9619 21.5768 27.9619 21.5768 27.9619 21.5832L27.9684 21.5896C27.9748 21.5961 27.9748 21.6025 27.9748 21.6089C27.9876 21.6603 28.0005 21.7117 28.0133 21.763C28.0133 21.7695 28.0069 21.7695 28.0069 21.7695C28.0069 21.7759 28.0069 21.7823 28.0069 21.7951C28.0069 21.8016 28.0069 21.8016 28.0069 21.808C28.0069 21.8144 28.0133 21.8144 28.0133 21.8208C28.0133 21.8273 28.0133 21.8401 28.0197 21.8465C28.0197 21.8529 28.0262 21.8658 28.0326 21.8722C28.039 21.8786 28.0454 21.8786 28.0454 21.8851C28.0454 21.8915 28.0518 21.9043 28.0518 21.9107C28.0518 21.9172 28.0583 21.93 28.0583 21.9364C28.0711 21.9878 28.084 22.0392 28.0968 22.0906C28.1418 22.2575 28.1803 22.4309 28.2188 22.5979C28.2252 22.63 28.2381 22.6685 28.2445 22.7006C28.2381 22.7006 28.2317 22.7071 28.2252 22.7071C28.2124 22.7135 28.1996 22.7135 28.1931 22.7199C28.1739 22.7263 28.1546 22.7392 28.1418 22.7456C28.1418 22.7456 28.1353 22.7456 28.1353 22.752C28.0904 22.7841 28.0583 22.8355 28.0326 22.8805C28.0262 22.8869 28.0262 22.8933 28.0197 22.8997C28.0197 22.9061 28.0197 22.9061 28.0133 22.9126C28.0133 22.919 28.0069 22.919 28.0069 22.9254C28.0005 22.9447 27.994 22.9639 27.9876 22.9896C27.9812 23.0217 27.9876 23.0474 27.994 23.0731C27.9812 23.0731 27.9555 23.0795 27.9491 23.0924C27.9491 23.0988 27.9555 23.1052 27.9619 23.1116C27.9555 23.1116 27.9491 23.1181 27.9427 23.1116C27.9298 23.1116 27.9041 23.1052 27.8913 23.1116C27.8849 23.1116 27.8785 23.1181 27.8785 23.1245C27.8785 23.1373 27.9041 23.1373 27.917 23.1373C27.9234 23.1373 27.9234 23.1373 27.9298 23.1373C27.9427 23.1373 27.9491 23.1373 27.9619 23.1373C27.9684 23.1373 27.9684 23.1373 27.9684 23.1437H27.9748H27.9812C27.994 23.1437 28.0069 23.1437 28.0133 23.1437C28.0133 23.1502 28.0069 23.1502 28.0069 23.1502C28.0069 23.1566 28.0069 23.1566 28.0069 23.163C28.0133 23.1694 28.0197 23.1759 28.0326 23.1823C28.0518 23.1887 28.0711 23.1759 28.0968 23.1759C28.1161 23.1759 28.1289 23.1887 28.1482 23.1823C28.1418 23.1887 28.1353 23.208 28.1418 23.2144C28.1482 23.2208 28.1482 23.2208 28.1546 23.2208C28.1739 23.2208 28.1867 23.2208 28.206 23.2208C28.2188 23.2208 28.2381 23.2144 28.2509 23.2208C28.2573 23.2208 28.2573 23.2272 28.2573 23.2337L28.2638 23.2401L28.2702 23.2465C28.2766 23.2529 28.2959 23.2529 28.3023 23.2593C28.3023 23.2593 28.3023 23.2593 28.3023 23.2658C28.3023 23.285 28.3023 23.3043 28.3151 23.3171C28.3216 23.3236 28.328 23.3236 28.328 23.33C28.3408 23.3364 28.3473 23.3428 28.3601 23.3493C28.3665 23.3557 28.3729 23.3557 28.3858 23.3621C28.3922 23.3685 28.3986 23.3749 28.4051 23.3814C28.3986 23.3814 28.3986 23.3749 28.3986 23.3685C28.3986 23.3557 28.4051 23.3493 28.4051 23.3428C28.4179 23.2786 28.3858 23.2337 28.3537 23.208C28.3473 23.2015 28.3473 23.2015 28.3408 23.1951C28.3537 23.1951 28.3665 23.1823 28.3794 23.1759C28.3858 23.1951 28.3858 23.2208 28.3922 23.2465C28.3922 23.2529 28.3922 23.2658 28.3986 23.2658C28.4051 23.2658 28.4179 23.2658 28.4179 23.2593C28.4243 23.2529 28.4179 23.2337 28.4115 23.2272C28.4051 23.208 28.4051 23.1951 28.3986 23.1823C28.3986 23.1759 28.3922 23.163 28.3922 23.1566C28.3922 23.1502 28.4179 23.1502 28.4307 23.1502C28.4372 23.1502 28.45 23.1502 28.4564 23.1502C28.4693 23.1502 28.4757 23.1437 28.4885 23.1437C28.495 23.1502 28.495 23.1566 28.5014 23.1566C28.5206 23.163 28.5399 23.163 28.5592 23.1566C28.5656 23.1566 28.5784 23.1502 28.5849 23.1502C28.5977 23.1437 28.6106 23.1437 28.617 23.1437C28.6234 23.1437 28.6427 23.1373 28.6427 23.1309C28.6427 23.1245 28.6362 23.1245 28.6362 23.1245C28.6427 23.1245 28.6491 23.1181 28.6619 23.1181C28.6748 23.1181 28.6876 23.1245 28.694 23.1245C28.7005 23.1245 28.7069 23.1245 28.7133 23.1245C28.7261 23.1245 28.739 23.1309 28.7518 23.1309C28.7583 23.1309 28.7647 23.1245 28.7711 23.1245C28.7775 23.1245 28.7904 23.1245 28.7968 23.1309C28.8096 23.1309 28.8225 23.1309 28.8353 23.1309C28.8546 23.1309 28.8674 23.1245 28.8867 23.1181C28.8867 23.1181 28.8931 23.1116 28.8995 23.1116C28.906 23.1116 28.9124 23.1116 28.9188 23.1181C28.9252 23.1181 28.9316 23.1181 28.9381 23.1181C28.9445 23.1181 28.9573 23.1181 28.9573 23.1116C28.9573 23.1052 28.9509 23.0988 28.9509 23.0988C28.9316 23.086 28.8995 23.086 28.8803 23.0924C28.8739 23.0924 28.8674 23.0988 28.861 23.0924C28.861 23.086 28.8674 23.086 28.8739 23.086C28.8803 23.086 28.8803 23.0795 28.8803 23.0795C28.8995 23.086 28.9188 23.086 28.9381 23.0795C28.9445 23.086 28.9638 23.086 28.9766 23.0924V23.0988C28.983 23.1052 29.0023 23.1052 29.0151 23.1052C29.0537 23.1052 29.0922 23.1116 29.1307 23.1181C29.1436 23.1309 29.1757 23.1245 29.1949 23.1373C29.1885 23.1373 29.1885 23.1437 29.1821 23.1437C29.1564 23.1373 29.1243 23.1373 29.0986 23.1502C29.0922 23.1502 29.0858 23.163 29.0922 23.1694C29.0986 23.1759 29.1179 23.1823 29.1372 23.1823C29.1564 23.1823 29.1693 23.1887 29.1885 23.1823C29.1949 23.1823 29.2078 23.1759 29.2078 23.1759C29.2142 23.1759 29.2142 23.1694 29.2142 23.163C29.2271 23.163 29.272 23.163 29.2784 23.1502C29.2784 23.1437 29.272 23.1437 29.272 23.1437C29.2784 23.1437 29.2784 23.1373 29.2913 23.1309C29.2977 23.1309 29.2977 23.1309 29.3041 23.1309C29.3105 23.1309 29.317 23.1309 29.317 23.1245C29.3234 23.1181 29.3234 23.1181 29.3298 23.1116C29.3427 23.1116 29.3491 23.1116 29.3555 23.1116C29.3619 23.1116 29.3748 23.0988 29.3812 23.0924C29.394 23.0924 29.4005 23.0924 29.4133 23.0988C29.4261 23.0988 29.4326 23.1052 29.4454 23.1052C29.4582 23.1052 29.4711 23.1052 29.4775 23.0988C29.4839 23.0988 29.4904 23.0924 29.4968 23.0924C29.5096 23.086 29.5225 23.0924 29.5289 23.0795V23.0731C29.5482 23.0667 29.5546 23.0538 29.5546 23.0217C29.5482 22.9704 29.5289 22.9575 29.5032 22.9511ZM27.917 21.4933C27.9041 21.4933 27.8913 21.4933 27.8849 21.4933C27.8785 21.4933 27.872 21.4869 27.8656 21.4805C27.8528 21.4612 27.8592 21.4227 27.8592 21.3906C27.8656 21.4034 27.8592 21.4227 27.8656 21.4419C27.8656 21.4548 27.8656 21.4612 27.872 21.4741C27.8785 21.4805 27.8913 21.4933 27.8977 21.4933C27.9041 21.4869 27.9106 21.4869 27.917 21.4933C27.917 21.4869 27.9234 21.4869 27.9234 21.4869C27.9234 21.4933 27.917 21.4933 27.917 21.4933ZM27.9298 21.4291C27.9234 21.4163 27.9106 21.397 27.9041 21.3841C27.9106 21.3713 27.9106 21.352 27.9106 21.3328V21.3392C27.917 21.352 27.9234 21.3713 27.9106 21.3713C27.917 21.3906 27.9234 21.4098 27.9298 21.4355C27.9298 21.4355 27.9298 21.4291 27.9298 21.4291ZM27.9298 21.4612C27.9298 21.4548 27.9363 21.4548 27.9427 21.4548C27.9427 21.4548 27.9363 21.4548 27.9298 21.4612C27.9363 21.4676 27.9363 21.4869 27.9491 21.4933C27.9427 21.4933 27.9427 21.4933 27.9427 21.4997C27.9363 21.4869 27.9298 21.4676 27.9298 21.4612ZM27.9555 21.5511C27.9491 21.5318 27.9491 21.5126 27.9491 21.4997C27.9491 21.5062 27.9555 21.519 27.9555 21.5318C27.9555 21.5447 27.9619 21.5575 27.9619 21.564C27.9555 21.564 27.9555 21.5575 27.9555 21.5511ZM27.9684 21.4548C27.9748 21.4484 27.9812 21.4484 27.9876 21.4419C27.9876 21.4548 27.9812 21.4548 27.9684 21.4548C27.9684 21.4612 27.9684 21.4612 27.9684 21.4548ZM29.272 22.8227C29.272 22.8291 29.2656 22.8291 29.2656 22.8355C29.2592 22.8483 29.2527 22.8548 29.2463 22.8676C29.2335 22.8869 29.2078 22.8933 29.1885 22.9126C29.1821 22.919 29.1757 22.9254 29.1693 22.9318C29.1628 22.9382 29.1564 22.9447 29.15 22.9447C29.15 22.9447 29.1436 22.9447 29.1372 22.9447C29.1372 22.9382 29.1436 22.9382 29.1436 22.9382C29.1436 22.9318 29.15 22.9318 29.1564 22.9318V22.9254C29.1628 22.9126 29.1757 22.9061 29.1821 22.8933C29.1821 22.8869 29.1885 22.8805 29.1885 22.874C29.1885 22.874 29.1885 22.8676 29.1885 22.8612C29.1949 22.8548 29.2014 22.8548 29.2078 22.8483C29.2078 22.8419 29.2142 22.8355 29.2206 22.8355C29.2206 22.8291 29.2271 22.8162 29.2271 22.8162C29.2335 22.7905 29.2206 22.7713 29.2271 22.7456C29.2206 22.7584 29.2206 22.7777 29.2206 22.797C29.2206 22.8162 29.2078 22.8355 29.1949 22.8419C29.1949 22.8355 29.1949 22.8291 29.1949 22.8227C29.1949 22.8162 29.2014 22.8098 29.2078 22.8034C29.2142 22.7905 29.2078 22.7713 29.2142 22.7584C29.2142 22.752 29.2206 22.7456 29.2206 22.7392C29.2206 22.7327 29.2206 22.7263 29.2206 22.7199C29.2206 22.7135 29.2142 22.7071 29.2142 22.7071C29.2142 22.7006 29.2206 22.6942 29.2206 22.6878C29.2206 22.6814 29.2142 22.6749 29.2142 22.6685C29.2142 22.6621 29.2142 22.6493 29.2206 22.6428H29.2271L29.2335 22.6364C29.2399 22.6428 29.2463 22.6685 29.2463 22.6749C29.2463 22.6878 29.2463 22.7071 29.2463 22.7199C29.2463 22.7327 29.2463 22.7456 29.2463 22.752C29.2463 22.7713 29.2592 22.7905 29.2592 22.8098C29.272 22.797 29.2784 22.8098 29.272 22.8227ZM29.0794 22.7777C29.0794 22.7777 29.0794 22.7713 29.0794 22.7649C29.0794 22.7584 29.0729 22.752 29.0729 22.7456C29.0729 22.7392 29.0794 22.7327 29.0794 22.7199C29.0794 22.7135 29.0729 22.7071 29.0729 22.6942C29.0729 22.6878 29.0729 22.6814 29.0729 22.6749L29.0665 22.6493C29.0601 22.6493 29.0601 22.6621 29.0601 22.6685V22.6814C29.0601 22.6878 29.0665 22.6942 29.0665 22.7006C29.0729 22.7135 29.0601 22.7263 29.0601 22.7392C29.0601 22.7456 29.0665 22.752 29.0665 22.7584C29.0665 22.7649 29.0601 22.7777 29.0601 22.7841C29.0601 22.7905 29.0665 22.797 29.0729 22.8098C29.0794 22.8419 29.0601 22.8612 29.0537 22.8805C29.0472 22.8869 29.0408 22.8869 29.0344 22.8933C29.028 22.8997 29.028 22.919 29.0087 22.9126C29.0087 22.9061 29.0216 22.9061 29.0216 22.8997C29.028 22.8933 29.0408 22.8869 29.0472 22.874C29.0537 22.8548 29.0472 22.8355 29.0472 22.8098C29.0472 22.797 29.0537 22.7905 29.0537 22.7841C29.0537 22.7777 29.0601 22.7649 29.0601 22.752C29.0601 22.7327 29.0537 22.7135 29.0537 22.7006C29.0537 22.6942 29.0601 22.6878 29.0665 22.6814C29.0665 22.675 29.0665 22.6749 29.0601 22.6685C29.0537 22.6685 29.0408 22.6685 29.0344 22.6685C29.0344 22.6749 29.0344 22.675 29.0344 22.6814C29.0344 22.6878 29.0408 22.6878 29.0408 22.6942C29.0408 22.7006 29.0472 22.7071 29.0472 22.7199C29.0472 22.7263 29.0537 22.7327 29.0537 22.7456C29.0537 22.7649 29.0408 22.7905 29.0408 22.8098C29.0344 22.8098 29.0344 22.8034 29.0344 22.797C29.0344 22.7905 29.0344 22.7905 29.0344 22.7841C29.0344 22.7777 29.0408 22.7713 29.0408 22.7649C29.0408 22.7584 29.0408 22.752 29.0408 22.7456C29.0408 22.7392 29.0472 22.7327 29.0472 22.7263C29.0472 22.7199 29.0408 22.7199 29.0408 22.7135C29.0408 22.7006 29.0344 22.6878 29.0344 22.6749C29.0344 22.6749 29.0344 22.6749 29.0344 22.6685C29.028 22.6621 29.0151 22.6685 29.0087 22.6621C29.0023 22.6557 29.0023 22.6428 28.9959 22.63C29.0023 22.6236 29.0087 22.63 29.0151 22.6236C29.0216 22.6236 29.028 22.6172 29.0344 22.6172C29.0408 22.6172 29.0472 22.6172 29.0537 22.6172C29.0601 22.6172 29.0601 22.6107 29.0665 22.6107C29.0729 22.6107 29.0794 22.6172 29.0858 22.6172H29.0922C29.0986 22.6172 29.105 22.6236 29.1115 22.63C29.1307 22.6236 29.1372 22.6107 29.1436 22.5915C29.1436 22.6107 29.1307 22.6236 29.1307 22.6493C29.1307 22.6685 29.15 22.6814 29.15 22.7006C29.15 22.7071 29.15 22.7135 29.15 22.7199C29.1564 22.752 29.1371 22.7649 29.1307 22.7841C29.1243 22.7777 29.1179 22.7713 29.1179 22.7649C29.1179 22.752 29.1307 22.7392 29.1307 22.7327C29.1307 22.7135 29.1243 22.6942 29.1179 22.6814C29.1179 22.675 29.1115 22.6685 29.1115 22.6621L29.105 22.6557C29.105 22.6493 29.105 22.6428 29.0986 22.6428C29.0922 22.6428 29.0922 22.6493 29.0922 22.6557C29.0922 22.6685 29.105 22.6814 29.1115 22.6942C29.1115 22.7006 29.1115 22.7071 29.1179 22.7135C29.1179 22.7199 29.1243 22.7263 29.1243 22.7392C29.1243 22.752 29.1115 22.7584 29.105 22.7713C29.105 22.7777 29.105 22.7905 29.1115 22.797C29.1115 22.8034 29.1179 22.8034 29.1243 22.8098C29.1243 22.8162 29.1307 22.8227 29.1307 22.8355C29.1307 22.8419 29.1372 22.8548 29.1372 22.8612C29.1372 22.8676 29.1372 22.8805 29.1372 22.8869C29.1372 22.8933 29.1307 22.8997 29.1243 22.9126C29.1179 22.919 29.1179 22.9254 29.105 22.9254C29.0986 22.9318 29.0922 22.9318 29.0794 22.9318C29.0729 22.9318 29.0729 22.9318 29.0665 22.9382C29.0601 22.9382 29.0537 22.9318 29.0472 22.9318C29.0472 22.9061 29.0665 22.9061 29.0794 22.8933C29.0922 22.8805 29.0986 22.8612 29.0986 22.8355C29.0858 22.8034 29.0794 22.7905 29.0794 22.7777ZM28.9188 22.8227C28.9188 22.8227 28.9188 22.8291 28.9188 22.8355C28.9124 22.8355 28.9124 22.8291 28.9124 22.8227C28.906 22.8098 28.906 22.797 28.906 22.7777C28.9124 22.7584 28.9188 22.7392 28.9124 22.7199C28.9124 22.7135 28.8995 22.7006 28.8995 22.6942C28.8931 22.6814 28.8867 22.6685 28.8867 22.6493C28.8867 22.6364 28.8931 22.6172 28.8931 22.5979C28.8931 22.5786 28.8931 22.5594 28.8995 22.5465C28.8995 22.5401 28.906 22.5272 28.9124 22.5208C28.9188 22.5208 28.9188 22.5272 28.9188 22.5337C28.9252 22.5465 28.9252 22.5658 28.9252 22.585C28.9252 22.5979 28.9188 22.6043 28.9124 22.6172C28.906 22.6364 28.906 22.6557 28.906 22.6749C28.906 22.6814 28.9124 22.6878 28.9124 22.7006C28.9188 22.7199 28.9316 22.7327 28.9316 22.752C28.9316 22.7584 28.9316 22.7713 28.9316 22.7777C28.9316 22.797 28.9188 22.8034 28.9252 22.8227C28.9252 22.8291 28.9316 22.8419 28.9381 22.8483C28.9445 22.8676 28.9509 22.8997 28.9381 22.919C28.9316 22.919 28.9252 22.9061 28.9188 22.8997C28.9381 22.8676 28.9316 22.8355 28.9188 22.8227ZM28.7904 22.5979C28.8032 22.6236 28.7968 22.6685 28.8161 22.6942C28.8289 22.7135 28.8417 22.7199 28.8674 22.7263C28.8739 22.7327 28.8674 22.7456 28.8739 22.752C28.8739 22.7584 28.8803 22.7649 28.8803 22.7713C28.8803 22.7777 28.8803 22.7841 28.8803 22.797C28.8739 22.7905 28.8739 22.7841 28.8739 22.7777C28.8739 22.7713 28.8674 22.7649 28.861 22.7584C28.8482 22.7456 28.8289 22.7392 28.8161 22.7263C28.8032 22.7135 28.7904 22.6878 28.7904 22.6621C28.7775 22.6364 28.7904 22.6172 28.7904 22.5979ZM28.7711 22.63C28.7647 22.63 28.7711 22.6236 28.7711 22.6236C28.7711 22.6172 28.7775 22.6043 28.7775 22.5915C28.7775 22.585 28.7775 22.5786 28.7839 22.5722C28.7775 22.585 28.7775 22.5979 28.7775 22.6107C28.7775 22.6172 28.7775 22.6236 28.7711 22.63ZM28.7261 21.9043C28.7261 21.9043 28.7261 21.8979 28.7197 21.8979C28.7261 21.8915 28.7326 21.8786 28.7454 21.8786C28.7454 21.9043 28.7518 21.9107 28.7518 21.9107C28.7518 21.9172 28.7518 21.9236 28.7583 21.9364C28.7583 21.9493 28.7647 21.9685 28.7647 21.9814C28.7711 21.9942 28.7775 22.0328 28.7839 22.052C28.8032 22.097 28.8225 22.1419 28.8417 22.1805C28.8417 22.1869 28.8353 22.1933 28.8353 22.1997C28.8353 22.2062 28.8417 22.2062 28.8417 22.2062C28.8417 22.2126 28.8353 22.2126 28.8353 22.219C28.8353 22.2318 28.8546 22.2383 28.8674 22.2383C28.8739 22.2447 28.8739 22.2511 28.8739 22.2575C28.8739 22.2639 28.8803 22.2704 28.8803 22.2768C28.8803 22.2832 28.8739 22.2832 28.8674 22.2896C28.861 22.2961 28.8546 22.3025 28.8482 22.3153C28.8353 22.3346 28.8161 22.3603 28.8096 22.386C28.8096 22.3924 28.8032 22.3988 28.8032 22.3988C28.8032 22.2318 28.7904 22.0649 28.7261 21.9621C28.7261 21.9557 28.7261 21.9557 28.7261 21.9493V21.93C28.7326 21.9172 28.7326 21.9043 28.7261 21.9043ZM28.7711 21.8658C28.7711 21.8594 28.7775 21.8594 28.7839 21.8594C28.7968 21.8529 28.8161 21.8529 28.8353 21.8465V21.8529C28.8225 21.8594 28.8161 21.8594 28.8032 21.8594C28.7904 21.8658 28.7839 21.8658 28.7711 21.8658ZM29.0472 22.3089C29.0537 22.3089 29.0601 22.2961 29.0729 22.2961C29.0794 22.3025 29.0665 22.3089 29.0601 22.3153C29.0537 22.3217 29.0472 22.3217 29.0344 22.3217C29.028 22.3217 29.0151 22.3153 29.0087 22.3153C28.9894 22.3089 28.9638 22.3153 28.9445 22.3217C28.9252 22.3282 28.9188 22.341 28.906 22.3474C28.9124 22.3153 28.9316 22.3025 28.9638 22.2961C28.9702 22.2961 28.983 22.2961 28.9959 22.2961C29.0087 22.3025 29.0344 22.3089 29.0472 22.3089ZM29.0344 22.2961C29.0344 22.2896 29.0408 22.2896 29.0408 22.2896C29.0601 22.2896 29.0408 22.3025 29.0344 22.2961ZM29.1885 22.3346C29.1885 22.341 29.1821 22.341 29.1885 22.3474L29.1949 22.3539C29.1949 22.3539 29.1821 22.3667 29.1757 22.3667C29.1628 22.3731 29.1436 22.3667 29.1372 22.3603C29.1628 22.3539 29.1757 22.3474 29.1885 22.3346ZM29.1949 22.3346C29.1949 22.3346 29.2014 22.3282 29.1949 22.3346C29.2078 22.3217 29.2206 22.3282 29.2206 22.3346C29.2271 22.3603 29.2078 22.386 29.1885 22.3924C29.1821 22.3924 29.1693 22.3924 29.1693 22.386H29.1757C29.1885 22.386 29.2014 22.3731 29.2142 22.3667C29.2142 22.3474 29.2078 22.3346 29.1949 22.3346ZM29.2399 22.5786C29.2399 22.585 29.2399 22.5979 29.2335 22.6043C29.2271 22.6172 29.2142 22.6172 29.2142 22.63C29.2078 22.6428 29.2206 22.6621 29.2206 22.6749C29.2142 22.6749 29.2142 22.6685 29.2142 22.6685C29.2142 22.6621 29.2078 22.6621 29.2078 22.6557C29.2014 22.6364 29.2142 22.6043 29.2078 22.585C29.2078 22.5786 29.2014 22.5722 29.2014 22.5722C29.2014 22.5594 29.2078 22.5529 29.2078 22.5401C29.2078 22.5337 29.2014 22.5272 29.1949 22.5208C29.1885 22.5144 29.1885 22.5144 29.1885 22.508C29.1885 22.4951 29.1949 22.4887 29.2014 22.4759C29.2078 22.4566 29.2014 22.4373 29.1949 22.4245C29.2014 22.4309 29.2142 22.4438 29.2142 22.4566C29.2206 22.4694 29.2271 22.4823 29.2271 22.4951C29.2271 22.5144 29.2206 22.5337 29.2206 22.5529C29.2271 22.5529 29.2399 22.5594 29.2399 22.5786ZM29.1628 22.3924C29.1821 22.3988 29.1821 22.4181 29.1885 22.4373C29.1885 22.4502 29.1821 22.4694 29.1821 22.4823C29.1821 22.4951 29.1821 22.508 29.1885 22.5144C29.1949 22.5208 29.2014 22.5208 29.2014 22.5337C29.2014 22.5401 29.1949 22.5465 29.1949 22.5529C29.1885 22.5465 29.1885 22.5401 29.1885 22.5272C29.1885 22.5208 29.1821 22.508 29.1821 22.5016C29.1821 22.4951 29.1821 22.4887 29.1821 22.4759C29.1821 22.4502 29.1693 22.4181 29.1628 22.3924ZM29.15 22.6685C29.15 22.6749 29.1564 22.675 29.1564 22.6814C29.1628 22.6878 29.1628 22.7199 29.15 22.7199C29.15 22.6878 29.1179 22.6685 29.1243 22.63C29.1243 22.6236 29.1307 22.6107 29.1307 22.6043C29.1371 22.585 29.1436 22.5658 29.1372 22.5465V22.5401C29.1372 22.5401 29.15 22.5208 29.15 22.5144C29.1564 22.5144 29.1564 22.5272 29.1564 22.5272C29.1628 22.5401 29.1693 22.5529 29.1693 22.5722C29.1693 22.585 29.1628 22.6043 29.1564 22.6172C29.15 22.63 29.1372 22.6364 29.1372 22.6557C29.1436 22.6621 29.15 22.6685 29.15 22.6685ZM29.1628 22.4245C29.1693 22.4566 29.1628 22.4823 29.15 22.508C29.1436 22.5208 29.1307 22.5337 29.1243 22.5465C29.1243 22.5529 29.1307 22.5594 29.1243 22.5658C29.1115 22.5658 29.105 22.5594 29.0922 22.5529C29.0922 22.5658 29.1115 22.5722 29.1179 22.5722C29.1179 22.5786 29.1115 22.585 29.1115 22.585C29.105 22.585 29.0922 22.5786 29.0922 22.5722C29.0922 22.5722 29.0922 22.5658 29.0858 22.5658C29.0858 22.5786 29.0986 22.585 29.105 22.5915C29.105 22.5979 29.0986 22.6043 29.0922 22.6043C29.0794 22.6043 29.0729 22.585 29.0729 22.5722C29.0665 22.5722 29.0665 22.585 29.0665 22.5915C29.0472 22.585 29.0408 22.5658 29.0408 22.5465C29.0472 22.5272 29.0794 22.5337 29.0794 22.5144C29.0794 22.508 29.0794 22.5016 29.0794 22.4951C29.0794 22.4887 29.0794 22.4887 29.0729 22.4823C29.0729 22.4887 29.0794 22.4951 29.0729 22.5016C29.0665 22.5016 29.0665 22.5016 29.0665 22.5016C29.0537 22.5016 29.0408 22.508 29.0344 22.508C29.028 22.508 29.0216 22.508 29.0151 22.508C29.0087 22.508 29.0087 22.508 29.0023 22.508C29.0023 22.5016 29.0087 22.4951 29.0023 22.4887C28.9959 22.4951 28.9959 22.5016 28.9959 22.508C28.9959 22.5144 29.0023 22.5208 29.0087 22.5272C29.0216 22.5337 29.0344 22.5337 29.0408 22.5401C29.0408 22.5465 29.0408 22.5529 29.0408 22.5594C29.0408 22.5786 29.0216 22.5915 29.0087 22.5915C29.0087 22.585 29.0151 22.5722 29.0087 22.5722C29.0023 22.5722 29.0023 22.585 28.9959 22.5915C28.9894 22.5979 28.9766 22.6107 28.9702 22.5915C28.9766 22.585 28.9894 22.5786 28.9959 22.5658C28.9894 22.5658 28.983 22.5658 28.9766 22.5722C28.9702 22.5786 28.9638 22.5786 28.9638 22.5658C28.9766 22.5658 28.9894 22.5594 28.9959 22.5465C28.9894 22.5465 28.9766 22.5529 28.9638 22.5529V22.5465C28.9445 22.5208 28.9316 22.4887 28.9252 22.4502C28.9252 22.4245 28.9316 22.3988 28.9381 22.3795C28.9445 22.3731 28.9445 22.3667 28.9509 22.3603C28.9573 22.3539 28.9573 22.3474 28.9702 22.341C28.983 22.3346 28.9959 22.3346 29.0087 22.3346C29.0216 22.3346 29.0344 22.341 29.0472 22.3474C29.0665 22.3539 29.0729 22.341 29.0858 22.341C29.105 22.341 29.1179 22.3474 29.1307 22.3539C29.1371 22.3539 29.1372 22.3603 29.1436 22.3667C29.15 22.386 29.1564 22.4052 29.1628 22.4245ZM28.8995 22.4694C28.8995 22.4823 28.8995 22.4951 28.8995 22.508C28.8995 22.5208 28.8867 22.5272 28.8867 22.5401V22.5465V22.5529C28.8867 22.5658 28.8867 22.5722 28.8867 22.585C28.8739 22.5658 28.8739 22.5401 28.8803 22.5208C28.8867 22.508 28.8931 22.4951 28.8931 22.4759C28.8931 22.4502 28.8931 22.4181 28.8995 22.3924C28.906 22.3795 28.9124 22.3667 28.9188 22.3539C28.9252 22.3539 28.9252 22.3474 28.9316 22.3474C28.9509 22.3346 28.9766 22.3217 29.0087 22.3282C29.0023 22.3282 28.9894 22.3282 28.9766 22.3282C28.9509 22.341 28.9252 22.3539 28.9124 22.3795C28.9124 22.386 28.906 22.3988 28.906 22.4117C28.8931 22.4373 28.8995 22.4502 28.8995 22.4694ZM28.8289 22.4823C28.8417 22.463 28.8546 22.4502 28.861 22.4245C28.861 22.4245 28.861 22.4245 28.8674 22.4245C28.8674 22.463 28.8353 22.4823 28.8289 22.5208C28.8225 22.5144 28.8225 22.4951 28.8289 22.4887C28.8353 22.4887 28.8289 22.4823 28.8289 22.4823C28.8289 22.4823 28.8353 22.4823 28.8289 22.4823ZM28.8674 22.3795C28.8739 22.3795 28.8739 22.3731 28.8867 22.3731C28.8803 22.386 28.8803 22.4052 28.8803 22.4245C28.8803 22.4245 28.8739 22.4245 28.8739 22.4181C28.861 22.4052 28.861 22.386 28.8674 22.3795ZM28.8546 22.5016C28.8546 22.4951 28.861 22.4887 28.8674 22.4759C28.8739 22.463 28.8803 22.4438 28.8803 22.4245C28.8931 22.4694 28.8674 22.508 28.8674 22.5465C28.8674 22.5594 28.8739 22.5722 28.8739 22.585C28.8803 22.5915 28.8803 22.6043 28.8803 22.6172C28.8739 22.6107 28.8674 22.5979 28.861 22.5915C28.861 22.585 28.8546 22.5786 28.8546 22.5786C28.8417 22.5529 28.8417 22.5208 28.8546 22.5016ZM28.9188 22.3795C28.9252 22.3731 28.9252 22.3731 28.9188 22.3795C28.9124 22.386 28.9124 22.4052 28.906 22.4245C28.906 22.4245 28.906 22.4181 28.906 22.4117C28.906 22.4052 28.9124 22.386 28.9188 22.3795ZM28.8995 22.3025C28.8995 22.3089 28.8931 22.3153 28.8931 22.3217C28.8867 22.3282 28.8867 22.3346 28.8803 22.341C28.861 22.341 28.8546 22.3539 28.8482 22.3667C28.8482 22.3731 28.8482 22.3795 28.8482 22.3924C28.8482 22.3988 28.8482 22.3988 28.8482 22.4052C28.8482 22.4117 28.8417 22.4309 28.8417 22.4373C28.8353 22.4502 28.8289 22.4566 28.8225 22.4694C28.8225 22.4694 28.8161 22.4759 28.8161 22.4823C28.8096 22.4951 28.8161 22.5208 28.8225 22.5272C28.8225 22.5337 28.8289 22.5337 28.8289 22.5401C28.8289 22.5465 28.8289 22.5465 28.8289 22.5529C28.8289 22.5594 28.8289 22.5658 28.8289 22.5658C28.8289 22.5786 28.8225 22.5915 28.8225 22.5979C28.8225 22.6043 28.8225 22.6107 28.8225 22.6172C28.8225 22.6428 28.8353 22.6685 28.8417 22.6814C28.8417 22.6878 28.8482 22.6878 28.8482 22.6942C28.8353 22.6878 28.8225 22.6814 28.8161 22.6685C28.8096 22.6557 28.8096 22.6364 28.8096 22.6172C28.8096 22.5979 28.7968 22.585 28.7968 22.5658C28.7968 22.5529 28.7968 22.5465 28.7904 22.5337C28.7904 22.5208 28.7904 22.5144 28.7904 22.5016C28.7968 22.4759 28.7968 22.4438 28.8096 22.4181C28.8161 22.3988 28.8225 22.386 28.8289 22.3667C28.8482 22.341 28.861 22.3153 28.8867 22.2961C28.8995 22.3025 28.8995 22.3025 28.8995 22.3025C28.906 22.3025 28.906 22.3025 28.8995 22.3025ZM28.8803 22.7841C28.8803 22.7777 28.8803 22.7649 28.8803 22.7584C28.8803 22.7584 28.8739 22.752 28.8803 22.7456C28.8803 22.7392 28.8867 22.7392 28.8867 22.7392C28.8931 22.7199 28.8739 22.7006 28.8674 22.6878C28.8482 22.6621 28.8417 22.6428 28.8482 22.5979C28.861 22.6107 28.8674 22.6236 28.8739 22.63C28.8739 22.6493 28.8739 22.675 28.8803 22.6878C28.8803 22.6942 28.8867 22.7006 28.8931 22.7071C28.8995 22.7135 28.906 22.7199 28.906 22.7263C28.906 22.7392 28.8995 22.7456 28.8995 22.7584C28.8931 22.7841 28.8931 22.8162 28.906 22.8291C28.9124 22.8355 28.9252 22.8419 28.9252 22.8483C28.9252 22.8548 28.9124 22.8612 28.9124 22.8676C28.8995 22.8612 28.8931 22.8483 28.8867 22.8355C28.8867 22.8291 28.8803 22.8162 28.8803 22.8098C28.8739 22.8034 28.8803 22.797 28.8803 22.7841ZM28.9445 22.8098C28.9381 22.7905 28.9509 22.7713 28.9509 22.7456C28.9509 22.7327 28.9445 22.7199 28.9381 22.7071C28.9316 22.6878 28.9188 22.675 28.9188 22.6557C28.9188 22.63 28.9316 22.6172 28.9381 22.5915C28.9381 22.585 28.9445 22.5722 28.9445 22.5594C28.9509 22.5594 28.9445 22.5658 28.9509 22.5658C28.9509 22.5722 28.9573 22.5786 28.9573 22.585C28.9573 22.585 28.9573 22.5915 28.9638 22.5915C28.9638 22.5979 28.9573 22.6107 28.9573 22.6172C28.9573 22.63 28.9638 22.6364 28.9638 22.6493C28.9638 22.6557 28.9638 22.6621 28.9573 22.6685C28.9573 22.6814 28.9509 22.6942 28.9573 22.7135C28.9573 22.7199 28.9638 22.7327 28.9638 22.7392C28.9702 22.752 28.9766 22.7649 28.9702 22.7841C28.9702 22.797 28.9638 22.8162 28.9638 22.8291C28.9509 22.8227 28.9445 22.8162 28.9445 22.8098ZM28.9573 22.8676C28.9573 22.8612 28.9638 22.8612 28.9573 22.8676C28.9702 22.8805 28.9766 22.8933 28.9702 22.9061C28.9638 22.9061 28.9573 22.9061 28.9509 22.9061C28.9573 22.8933 28.9638 22.874 28.9573 22.8676ZM28.9702 22.8355C28.9702 22.8227 28.9766 22.8098 28.9766 22.797C28.9766 22.7905 28.9766 22.7777 28.9766 22.7713C28.9766 22.7456 28.9509 22.7199 28.9573 22.6878C28.9638 22.6878 28.9573 22.6942 28.9638 22.6942C28.9702 22.6942 28.9702 22.6942 28.9702 22.6878C28.9766 22.6621 28.9509 22.6428 28.9638 22.6107C28.9702 22.6172 28.9702 22.6236 28.9766 22.6236C28.9766 22.63 28.983 22.6428 28.983 22.6493C28.983 22.6557 28.9766 22.6621 28.9766 22.6685C28.9766 22.6878 28.9894 22.6942 28.9959 22.7071C28.9959 22.7327 28.9959 22.7584 29.0023 22.7777C29.0087 22.7905 29.0151 22.797 29.0216 22.8034C29.0216 22.8034 29.028 22.8098 29.028 22.8162C29.0344 22.8419 29.0344 22.8676 29.0151 22.8805C29.0087 22.8869 29.0023 22.8869 28.9959 22.8933C28.9894 22.8997 28.9894 22.9061 28.9894 22.9061C28.9894 22.8997 28.9894 22.8933 28.9894 22.8869C28.9894 22.8805 28.983 22.8805 28.983 22.874C28.9766 22.8612 28.9702 22.8483 28.9702 22.8355ZM29.0216 22.752C29.0216 22.7584 29.0151 22.7649 29.0151 22.7713C29.0023 22.7584 29.0151 22.7392 29.0151 22.7199C29.0151 22.7006 28.9959 22.6878 29.0023 22.6685C29.0087 22.6749 29.0087 22.675 29.0087 22.6878C29.0087 22.6878 29.0087 22.6942 29.0151 22.6942V22.7006C29.0151 22.7071 29.0216 22.7071 29.0216 22.7135C29.0216 22.7199 29.0151 22.7263 29.0151 22.7392C29.0216 22.7456 29.0216 22.752 29.0216 22.752ZM29.1243 22.8933C29.1307 22.8805 29.1372 22.8612 29.1372 22.8419C29.1372 22.8227 29.1307 22.8098 29.1307 22.7905C29.1371 22.7713 29.1436 22.7584 29.1564 22.7392C29.1628 22.7263 29.1693 22.7135 29.1693 22.7006C29.1693 22.6942 29.1693 22.6814 29.1693 22.6749C29.1693 22.6685 29.1628 22.6557 29.1564 22.6493C29.1564 22.6428 29.1628 22.6364 29.1628 22.63C29.1693 22.6236 29.1693 22.6236 29.1757 22.6172C29.1757 22.6172 29.1757 22.6107 29.1821 22.6107C29.1821 22.6043 29.1885 22.5979 29.1885 22.585C29.1885 22.6043 29.1821 22.63 29.1885 22.6428C29.1885 22.6428 29.1885 22.6493 29.1949 22.6493C29.1949 22.6493 29.1949 22.6557 29.2014 22.6557C29.2078 22.6685 29.2142 22.675 29.2206 22.6814C29.2206 22.6878 29.2206 22.7006 29.2206 22.7006C29.2206 22.7071 29.2142 22.7071 29.2142 22.7199C29.2142 22.7327 29.2206 22.7392 29.2142 22.752C29.2142 22.7584 29.2078 22.7649 29.2014 22.7713C29.1949 22.7841 29.2014 22.797 29.2014 22.8034C29.2014 22.8098 29.2014 22.8162 29.1949 22.8227C29.1949 22.8419 29.1885 22.8548 29.1821 22.8676C29.1757 22.8676 29.1757 22.874 29.1693 22.874C29.1693 22.874 29.1628 22.8805 29.1564 22.8805C29.15 22.874 29.1564 22.8676 29.1564 22.8676C29.1628 22.8483 29.1885 22.8227 29.1693 22.797C29.1693 22.8098 29.1693 22.8227 29.1628 22.8355C29.1628 22.8419 29.15 22.8419 29.15 22.8483C29.15 22.8483 29.15 22.8548 29.1436 22.8548C29.1372 22.8676 29.1436 22.8805 29.1372 22.8933C29.1307 22.9061 29.105 22.919 29.0858 22.9061C29.105 22.919 29.1179 22.9061 29.1243 22.8933ZM29.2078 22.3089C29.2206 22.3089 29.2271 22.3153 29.2335 22.3217C29.2527 22.3474 29.2527 22.3924 29.2656 22.4245C29.2656 22.4309 29.272 22.4373 29.272 22.4438C29.2784 22.4694 29.2784 22.4951 29.2784 22.5208C29.2784 22.5465 29.2784 22.5786 29.2784 22.6043C29.2784 22.6493 29.2913 22.6942 29.2849 22.7392C29.2849 22.7456 29.2849 22.752 29.2849 22.7584C29.2784 22.7584 29.2784 22.752 29.2784 22.752C29.272 22.7392 29.272 22.7327 29.272 22.7199C29.272 22.7135 29.272 22.7006 29.272 22.6942C29.272 22.6685 29.272 22.6428 29.2592 22.6172C29.2592 22.6107 29.2527 22.6043 29.2527 22.6043C29.2527 22.5979 29.2592 22.5979 29.2592 22.5915C29.2656 22.5594 29.2399 22.5401 29.2463 22.508C29.2463 22.4951 29.2463 22.4823 29.2463 22.4759C29.2463 22.4438 29.2335 22.4181 29.2206 22.3988C29.2271 22.3924 29.2399 22.386 29.2399 22.3731C29.2399 22.3603 29.2399 22.3474 29.2399 22.3346C29.2399 22.3282 29.2335 22.3153 29.2271 22.3153C29.2142 22.3089 29.1949 22.3153 29.1885 22.3217L29.1821 22.3282C29.1757 22.3282 29.1757 22.3346 29.1693 22.3346C29.1757 22.3217 29.1885 22.3089 29.2078 22.3089ZM29.1307 22.2511C29.1436 22.2511 29.1436 22.2639 29.1564 22.2639C29.1628 22.2639 29.1757 22.2639 29.1821 22.2639C29.1885 22.2639 29.1949 22.2704 29.1949 22.2768L29.2014 22.2832C29.2014 22.2896 29.1949 22.2832 29.1949 22.2896C29.1885 22.2961 29.1757 22.3025 29.1693 22.3089C29.1628 22.3153 29.15 22.3217 29.1372 22.3217C29.1307 22.3217 29.1243 22.3217 29.1179 22.3217C29.1115 22.3217 29.105 22.3282 29.0986 22.3217C29.105 22.3153 29.1115 22.3153 29.1179 22.3153C29.1307 22.3089 29.15 22.3025 29.15 22.2768C29.1436 22.2768 29.1307 22.2639 29.1307 22.2511ZM29.0729 22.2383C29.0794 22.2383 29.0858 22.2383 29.0922 22.2447C29.0986 22.2447 29.105 22.2511 29.1115 22.2511C29.1179 22.2511 29.1307 22.2704 29.1307 22.2768C29.1307 22.2832 29.1307 22.2961 29.1243 22.3025C29.1179 22.3089 29.105 22.3153 29.0986 22.3153C29.0922 22.3153 29.0922 22.3153 29.0858 22.3217C29.0794 22.3217 29.0794 22.3282 29.0729 22.3282C29.0729 22.3217 29.0794 22.3217 29.0794 22.3153C29.0794 22.3153 29.0858 22.3089 29.0858 22.3025C29.0986 22.3025 29.1243 22.2961 29.1243 22.2832C29.1243 22.2768 29.1179 22.2768 29.1179 22.2704C29.1179 22.2704 29.1179 22.2639 29.1115 22.2639C29.105 22.2575 29.0986 22.2575 29.0922 22.2511C29.0922 22.2511 29.0858 22.2447 29.0794 22.2447C29.0794 22.2447 29.0729 22.2447 29.0729 22.2383ZM28.9445 22.2062C28.9766 22.2126 29.0023 22.2254 29.028 22.2383C29.0472 22.2447 29.0601 22.2511 29.0794 22.2575L29.0858 22.2639C29.0922 22.2639 29.0986 22.2704 29.0986 22.2704C29.0986 22.2704 29.105 22.2704 29.105 22.2768C29.0986 22.2768 29.0986 22.2768 29.0922 22.2704C29.0665 22.2575 29.0408 22.2447 29.0087 22.2383C29.0151 22.2447 29.0216 22.2447 29.0216 22.2447C29.0537 22.2511 29.0794 22.2704 29.105 22.2896C29.1115 22.2896 29.1179 22.2961 29.1179 22.3025C29.1115 22.3025 29.105 22.3025 29.105 22.2961C29.0794 22.2768 29.0472 22.2575 29.0087 22.2511C29.0087 22.2575 29.0151 22.2575 29.0216 22.2575C29.0408 22.2639 29.0601 22.2704 29.0729 22.2832C29.0794 22.2832 29.0858 22.2896 29.0858 22.2961C29.0922 22.2961 29.0986 22.3025 29.0986 22.3089C29.0922 22.3153 29.0794 22.3089 29.0665 22.3025C29.0601 22.2961 29.0537 22.2961 29.0472 22.2896C29.0344 22.2832 29.0151 22.2768 28.9959 22.2768C28.983 22.2768 28.9766 22.2768 28.9638 22.2704C28.9573 22.2704 28.9509 22.2639 28.9381 22.2639C28.9316 22.2704 28.9445 22.2704 28.9509 22.2768H28.9573C28.9702 22.2768 28.983 22.2768 28.9959 22.2832C29.0023 22.2832 29.0216 22.2896 29.0216 22.2961C29.0216 22.3025 28.9894 22.2961 28.9766 22.2961C28.9573 22.2961 28.9445 22.2961 28.9252 22.2961C28.9124 22.2961 28.8931 22.2896 28.8867 22.2832C28.8867 22.2768 28.8803 22.2768 28.8803 22.2704C28.8803 22.2639 28.8803 22.2639 28.8803 22.2511C28.8803 22.2447 28.8739 22.2447 28.8739 22.2383C28.8739 22.2318 28.8739 22.2383 28.8803 22.2383H28.8867C28.8867 22.2383 28.8931 22.2383 28.8995 22.2383C28.906 22.2383 28.906 22.2318 28.9124 22.2318C28.9316 22.2126 28.9381 22.2062 28.9445 22.2062ZM28.9252 22.1805C28.9316 22.1805 28.9381 22.1869 28.9381 22.1869C28.9381 22.1933 28.9316 22.1933 28.9188 22.1933C28.9124 22.1933 28.9124 22.1997 28.906 22.1997H28.8995C28.8931 22.1997 28.8931 22.1997 28.8867 22.2062H28.8803C28.8739 22.2062 28.8739 22.2061 28.8739 22.2126C28.8674 22.2126 28.8674 22.2126 28.861 22.219C28.8546 22.219 28.8417 22.2126 28.8482 22.2062C28.8482 22.1997 28.8674 22.1997 28.8739 22.1997C28.8803 22.1997 28.8931 22.1997 28.8995 22.1933C28.9124 22.1869 28.9188 22.1805 28.9252 22.1805ZM28.9252 22.1612C28.9316 22.1676 28.9252 22.174 28.9188 22.1805C28.906 22.1869 28.8803 22.1933 28.861 22.1933C28.8546 22.1933 28.8417 22.1933 28.8417 22.1805C28.8739 22.1869 28.9124 22.1805 28.9252 22.1612ZM28.861 21.9814C28.8803 22.0263 28.8931 22.0777 28.906 22.1291C28.906 22.1355 28.9124 22.1484 28.9124 22.1548C28.9124 22.1612 28.8867 22.1676 28.8803 22.1676C28.8739 22.1676 28.8674 22.1676 28.861 22.1676C28.8546 22.1676 28.8546 22.1548 28.8482 22.1484C28.8289 22.1162 28.7968 22.0071 28.7839 21.9685C28.7775 21.9557 28.7775 21.9429 28.7775 21.93C28.7775 21.9236 28.7775 21.9107 28.7775 21.8851C28.7968 21.8786 28.8161 21.8722 28.8417 21.8722C28.8417 21.8851 28.8482 21.8851 28.8482 21.9043C28.8482 21.9107 28.8482 21.9172 28.8482 21.9236V21.9429C28.8482 21.9493 28.8482 21.9557 28.8482 21.9621C28.8546 21.9621 28.861 21.975 28.861 21.9814ZM28.8546 21.8016C28.8546 21.8016 28.861 21.8016 28.8546 21.8016C28.861 21.808 28.8417 21.8144 28.8353 21.8144C28.8096 21.8208 28.7839 21.8337 28.7583 21.8465C28.7518 21.8529 28.7518 21.8594 28.739 21.8529C28.739 21.8465 28.7454 21.8465 28.7454 21.8401C28.7518 21.8401 28.7518 21.8337 28.7583 21.8337C28.7775 21.8273 28.7904 21.8144 28.8161 21.808C28.8289 21.808 28.8417 21.808 28.8546 21.8016ZM28.8482 21.7951C28.8417 21.7951 28.8353 21.7951 28.8289 21.7951C28.8289 21.7887 28.8289 21.7823 28.8225 21.7759C28.8289 21.7759 28.8353 21.7695 28.8417 21.7695C28.8417 21.7823 28.8482 21.7887 28.8482 21.7951ZM28.8032 21.6025C28.8032 21.6089 28.8096 21.6089 28.8096 21.6153C28.8161 21.641 28.8225 21.6667 28.8225 21.686C28.8225 21.6988 28.8289 21.7117 28.8289 21.7245C28.8289 21.7374 28.8353 21.7502 28.8353 21.7566C28.8289 21.7566 28.8225 21.7566 28.8225 21.7566C28.7968 21.7566 28.7647 21.7566 28.7326 21.7695C28.7326 21.763 28.7326 21.763 28.7326 21.763C28.7326 21.763 28.7326 21.763 28.7326 21.7566C28.7326 21.7502 28.7326 21.7502 28.7326 21.7373C28.7326 21.7309 28.7326 21.7181 28.7326 21.7245C28.7326 21.7181 28.7197 21.6988 28.7197 21.7117C28.7197 21.7181 28.7197 21.7181 28.7197 21.7245C28.7197 21.7438 28.7197 21.7438 28.7197 21.7695C28.7197 21.7759 28.7197 21.8144 28.7197 21.8273C28.7133 21.8273 28.7133 21.8273 28.7069 21.8273C28.7005 21.8273 28.694 21.8337 28.6876 21.8337C28.6812 21.8337 28.6684 21.8401 28.6619 21.8337C28.6555 21.8337 28.6427 21.8273 28.6362 21.8273C28.6298 21.8273 28.6234 21.8208 28.617 21.8144C28.5977 21.808 28.5913 21.8273 28.572 21.8273C28.5784 21.808 28.5913 21.7887 28.6041 21.7695C28.617 21.7438 28.6362 21.7181 28.6555 21.6988C28.6619 21.6924 28.6683 21.6796 28.6812 21.6731C28.6876 21.6603 28.7005 21.6474 28.7133 21.641C28.7197 21.641 28.7197 21.6346 28.7261 21.6346C28.7197 21.6539 28.7133 21.6667 28.7005 21.6796C28.694 21.686 28.694 21.686 28.6876 21.6924C28.6812 21.6924 28.6812 21.6988 28.6748 21.6988C28.6748 21.7117 28.6876 21.7117 28.694 21.7052C28.7005 21.6988 28.7069 21.686 28.7197 21.6731C28.739 21.641 28.7647 21.6025 28.7968 21.5768C28.7968 21.5832 28.8032 21.5961 28.8032 21.6025ZM28.3665 22.4052C28.3601 22.4052 28.3537 22.4052 28.3473 22.3988C28.3473 22.3282 28.3473 22.2575 28.3537 22.1997C28.3537 22.1805 28.3537 22.1676 28.3537 22.1484C28.3537 22.1291 28.3537 22.1162 28.3537 22.1034C28.3537 22.0649 28.3537 22.0328 28.3601 21.9878C28.3665 21.9814 28.3794 21.975 28.3858 21.9685C28.3922 21.9878 28.3858 22.0071 28.3858 22.0263C28.3858 22.0456 28.3922 22.0649 28.3858 22.0841C28.3858 22.0906 28.3794 22.097 28.3794 22.1034C28.3794 22.1098 28.3794 22.1162 28.3729 22.1227C28.3729 22.1291 28.3729 22.1419 28.3665 22.1548V22.1612C28.3665 22.1612 28.3665 22.1612 28.3665 22.1676C28.3665 22.2383 28.3665 22.3217 28.3665 22.4052ZM28.3537 22.4373C28.3537 22.4694 28.3537 22.5016 28.3473 22.5337C28.3473 22.5465 28.3473 22.5594 28.3473 22.5722C28.3473 22.585 28.3473 22.5979 28.3473 22.6043C28.3408 22.6043 28.3408 22.5979 28.3344 22.5979C28.3408 22.5401 28.3473 22.4759 28.3537 22.4117C28.3601 22.4245 28.3537 22.4309 28.3537 22.4373ZM28.4179 22.052C28.4179 22.0456 28.4243 22.0392 28.4307 22.0328C28.4372 22.0135 28.4436 22.0071 28.4564 21.9878C28.4628 21.9814 28.4693 21.975 28.4757 21.9685C28.495 21.975 28.5142 21.975 28.5335 21.975C28.5399 21.975 28.5463 21.975 28.5528 21.975C28.5592 21.975 28.5656 21.9814 28.572 21.9878C28.5784 21.9878 28.5913 21.9878 28.6041 21.9878C28.5977 22.0006 28.5849 22.0071 28.572 22.0199C28.5592 22.0263 28.5528 22.0392 28.5399 22.052C28.5206 22.0713 28.5014 22.097 28.4821 22.1162C28.4628 22.1419 28.45 22.1612 28.4307 22.1869C28.4179 22.2061 28.4051 22.2254 28.3986 22.2447C28.3922 22.2511 28.3922 22.2575 28.3858 22.2639C28.3858 22.2254 28.3922 22.1869 28.3922 22.1484C28.3922 22.1291 28.3986 22.1162 28.4051 22.097C28.4115 22.0841 28.4115 22.0649 28.4179 22.052ZM28.4051 21.9557C28.4051 21.9493 28.4051 21.9429 28.4051 21.9429C28.4051 21.93 28.4115 21.9236 28.4179 21.9172C28.4243 21.9236 28.4179 21.9364 28.4243 21.9429C28.4243 21.9557 28.4307 21.975 28.4307 21.9878C28.4307 22.0006 28.4307 22.0071 28.4243 22.0135C28.4179 22.0199 28.4179 22.0328 28.4115 22.0392C28.4051 22.0071 28.4051 21.9814 28.4051 21.9557ZM28.4757 21.9621C28.4757 21.9429 28.4757 21.93 28.4757 21.9172C28.4757 21.93 28.4757 21.9493 28.4757 21.9621ZM28.6619 21.8722C28.6748 21.8658 28.6812 21.8658 28.6876 21.8658C28.6876 21.8658 28.6876 21.8722 28.6812 21.8722C28.6748 21.8851 28.6748 21.8979 28.6619 21.9043C28.6555 21.9107 28.6491 21.9043 28.6362 21.9043C28.617 21.8851 28.5784 21.8851 28.5592 21.8979C28.5528 21.9043 28.5463 21.9107 28.5335 21.9043C28.5335 21.8979 28.5463 21.8915 28.5528 21.8915C28.5656 21.8851 28.5784 21.8786 28.5913 21.8722C28.5977 21.8722 28.6041 21.8658 28.617 21.8658C28.617 21.8786 28.6234 21.8851 28.6362 21.8786C28.6362 21.8786 28.6427 21.8786 28.6491 21.8722C28.6555 21.8722 28.6555 21.8722 28.6619 21.8722ZM28.495 22.2896C28.4821 22.2896 28.4821 22.3089 28.4757 22.3153C28.4628 22.3346 28.4564 22.3539 28.45 22.3795C28.4307 22.4309 28.4115 22.4823 28.3922 22.5337C28.3922 22.5401 28.3922 22.5465 28.3858 22.5465C28.3858 22.5401 28.3858 22.5337 28.3858 22.5272C28.3858 22.4887 28.3858 22.4502 28.3858 22.4117C28.3858 22.3988 28.3922 22.386 28.3922 22.3667C28.3922 22.3539 28.3922 22.3474 28.3922 22.3346C28.3922 22.3282 28.3922 22.3153 28.3986 22.3089C28.3986 22.3025 28.4051 22.2896 28.4051 22.2832C28.4051 22.2768 28.4115 22.2768 28.4115 22.2704C28.4243 22.2318 28.4436 22.1997 28.4628 22.174C28.4821 22.1484 28.5014 22.1227 28.5206 22.1034C28.5463 22.0713 28.572 22.0456 28.6041 22.0263C28.6234 22.0135 28.6427 22.0006 28.6555 21.9814C28.6619 21.975 28.6619 21.9685 28.6684 21.9621C28.6684 21.9685 28.6684 21.975 28.6619 21.9814C28.6555 21.9942 28.6427 22.0135 28.6298 22.0263C28.6106 22.0584 28.5849 22.0841 28.5656 22.1162C28.5592 22.1355 28.5463 22.1484 28.5335 22.1676C28.5078 22.219 28.4821 22.2704 28.45 22.3217C28.4436 22.341 28.4307 22.3539 28.4243 22.3731C28.4307 22.3731 28.4307 22.3667 28.4372 22.3603C28.4757 22.2961 28.5142 22.2254 28.5592 22.1612C28.5784 22.1291 28.6041 22.0906 28.6298 22.0584C28.6491 22.0328 28.6619 22.0071 28.6812 21.9814C28.6876 21.975 28.694 21.9621 28.7005 21.9557C28.7069 21.9493 28.7133 21.9685 28.7069 21.975C28.7069 21.9814 28.7005 21.9878 28.7005 21.9942C28.694 22.0135 28.6876 22.0263 28.6748 22.0456C28.6619 22.0649 28.6491 22.0906 28.6427 22.1098C28.6234 22.1548 28.5977 22.1997 28.572 22.2383C28.5592 22.2575 28.5463 22.2832 28.5335 22.3025C28.5014 22.3603 28.4693 22.4181 28.4372 22.4759C28.4372 22.4823 28.4307 22.4887 28.4243 22.4887C28.4243 22.4823 28.4307 22.4759 28.4307 22.4694C28.4436 22.4373 28.4564 22.4052 28.4757 22.3731C28.4821 22.3539 28.495 22.3346 28.5014 22.3089C28.495 22.3089 28.5014 22.2961 28.495 22.2896ZM28.5528 21.9557C28.5463 21.9429 28.5528 21.93 28.5528 21.9236C28.5592 21.9172 28.572 21.9043 28.5849 21.9043C28.6041 21.9043 28.6298 21.9107 28.6362 21.9236C28.6427 21.9429 28.6362 21.9685 28.617 21.975C28.6041 21.9814 28.5656 21.975 28.5528 21.9557ZM28.5271 21.9043C28.5206 21.9107 28.5142 21.9107 28.5014 21.9107C28.5014 21.9043 28.5078 21.9043 28.5142 21.8979C28.5206 21.8915 28.5206 21.8915 28.5271 21.8851C28.5399 21.8851 28.5463 21.8786 28.5528 21.8722C28.5528 21.8851 28.5399 21.8915 28.5271 21.9043ZM28.5271 21.9557C28.5206 21.9621 28.5206 21.9493 28.5206 21.9364C28.5206 21.9236 28.5142 21.9107 28.5271 21.9107C28.5206 21.93 28.5271 21.9429 28.5271 21.9557ZM28.3794 22.6942C28.3794 22.7263 28.3794 22.752 28.3858 22.7841C28.3601 22.7777 28.3344 22.7777 28.3087 22.7841L28.3023 22.7905C28.3023 22.797 28.3087 22.8098 28.3151 22.8098C28.3216 22.8098 28.3216 22.8098 28.328 22.8162C28.3344 22.8162 28.3473 22.8098 28.3601 22.8162C28.3665 22.8162 28.3665 22.8227 28.3729 22.8227C28.3794 22.8227 28.3858 22.8291 28.3858 22.8291C28.3922 22.8355 28.3986 22.8483 28.4051 22.8548C28.4115 22.874 28.4115 22.9061 28.4179 22.9254C28.4243 22.9447 28.4243 22.9639 28.4307 22.9832C28.4243 22.9832 28.4243 22.9832 28.4179 22.9832C28.4051 22.9832 28.3922 22.9832 28.3794 22.9832C28.3729 22.9832 28.3601 22.9832 28.3473 22.9832C28.3216 22.8997 28.3023 22.8098 28.283 22.7199C28.2895 22.7135 28.3087 22.7135 28.3151 22.7135C28.3344 22.7071 28.3601 22.7071 28.3794 22.7071C28.3665 22.6942 28.3729 22.6942 28.3794 22.6942ZM28.4179 22.8548C28.4179 22.8483 28.4243 22.8355 28.4307 22.8291C28.4372 22.8227 28.4436 22.8098 28.45 22.8034C28.4693 22.7777 28.4821 22.752 28.5014 22.7263C28.5078 22.7199 28.5142 22.7071 28.5206 22.7006C28.5271 22.6878 28.5399 22.6749 28.5463 22.6621C28.5463 22.6557 28.5528 22.6557 28.5528 22.6493C28.5592 22.6557 28.5528 22.6621 28.5528 22.6685C28.5463 22.7006 28.5399 22.7327 28.5271 22.7584C28.5271 22.7584 28.5078 22.7841 28.5206 22.7905C28.5271 22.7905 28.5335 22.7777 28.5335 22.7713C28.5463 22.7456 28.5528 22.7263 28.5592 22.6942C28.5656 22.6685 28.572 22.6428 28.5849 22.6172C28.5913 22.6107 28.5913 22.5979 28.5977 22.5915C28.6041 22.585 28.6041 22.585 28.6106 22.5786C28.6106 22.5915 28.6106 22.6107 28.6041 22.63C28.5977 22.6557 28.5977 22.6814 28.5913 22.7006C28.5849 22.7263 28.5784 22.7584 28.572 22.7841C28.5656 22.797 28.5656 22.8098 28.5592 22.8227C28.5463 22.8612 28.5335 22.8997 28.5206 22.9382C28.5206 22.9447 28.5142 22.9511 28.5142 22.9575C28.5078 22.9639 28.5078 22.9768 28.5014 22.9768C28.495 22.9768 28.4885 22.9768 28.4821 22.9768C28.4564 22.9704 28.4372 22.9639 28.4243 22.9511C28.4243 22.9382 28.4179 22.9254 28.4179 22.9126C28.4179 22.8933 28.4115 22.874 28.4179 22.8548ZM28.5592 22.5465C28.5528 22.5594 28.5463 22.5722 28.5335 22.585C28.5271 22.5979 28.5206 22.6107 28.5078 22.6236C28.4885 22.6428 28.4693 22.6685 28.45 22.6878C28.4307 22.7071 28.4179 22.7263 28.4051 22.752L28.3986 22.7584C28.3986 22.7456 28.3922 22.7392 28.3922 22.7263C28.3858 22.6942 28.3858 22.6493 28.3858 22.6172C28.3858 22.5915 28.3922 22.5722 28.4051 22.5529C28.4051 22.5465 28.4115 22.5401 28.4115 22.5337C28.4243 22.5016 28.4372 22.4694 28.4564 22.4438C28.4693 22.4181 28.4821 22.3988 28.495 22.3795C28.5206 22.3346 28.5528 22.2961 28.572 22.2511C28.5913 22.219 28.6041 22.1805 28.6234 22.1419C28.6362 22.1162 28.6491 22.097 28.6555 22.0713C28.6619 22.052 28.6748 22.0392 28.6876 22.0263C28.6876 22.0263 28.6876 22.0263 28.694 22.0263C28.7005 22.0263 28.694 22.0456 28.694 22.052C28.694 22.0584 28.6876 22.0713 28.6876 22.0777C28.6684 22.1548 28.6427 22.2254 28.6234 22.2961C28.617 22.3089 28.6106 22.3217 28.6106 22.3346C28.6041 22.3474 28.6041 22.3667 28.5977 22.3795C28.5977 22.386 28.5913 22.3924 28.5849 22.3988C28.5784 22.4052 28.5784 22.4117 28.5784 22.4181C28.572 22.4309 28.5656 22.4438 28.5592 22.4502C28.5528 22.4566 28.5528 22.463 28.5463 22.4694C28.5399 22.4823 28.5271 22.4951 28.5271 22.5144C28.5271 22.5208 28.5206 22.5337 28.5271 22.5401C28.5335 22.5401 28.5463 22.5272 28.5463 22.5208C28.5528 22.5144 28.5528 22.5016 28.5592 22.4951C28.5849 22.4438 28.6106 22.386 28.6298 22.3282C28.6491 22.2704 28.6684 22.2126 28.6876 22.1484C28.694 22.1355 28.694 22.1162 28.7005 22.1034C28.7005 22.097 28.7005 22.0906 28.7069 22.0906C28.7069 22.1098 28.7005 22.1291 28.7005 22.1484C28.7005 22.1676 28.694 22.1805 28.6876 22.1997C28.6812 22.2318 28.6684 22.2639 28.6619 22.2961C28.6427 22.3603 28.6234 22.4181 28.5913 22.4759C28.5849 22.4887 28.5784 22.5016 28.572 22.5208C28.5784 22.5208 28.5656 22.5337 28.5592 22.5465ZM28.7133 21.9364V21.9236C28.7133 21.9236 28.7133 21.9172 28.7133 21.9107V21.9043C28.7133 21.9107 28.7133 21.9172 28.7133 21.93C28.7133 21.9364 28.7133 21.9429 28.7133 21.9429C28.7133 21.9429 28.7133 21.9364 28.7133 21.9364ZM28.7133 21.5768C28.7069 21.5896 28.6876 21.6025 28.6748 21.6089C28.6491 21.6282 28.617 21.6474 28.5913 21.6731C28.5849 21.6796 28.5784 21.686 28.572 21.6924C28.5656 21.6988 28.5528 21.7052 28.5528 21.7245C28.5656 21.7245 28.572 21.7117 28.5784 21.7052C28.6041 21.686 28.6234 21.6667 28.6427 21.6474C28.6427 21.6474 28.6491 21.6474 28.6491 21.641C28.6619 21.6282 28.6748 21.6218 28.694 21.6089C28.7005 21.6025 28.7069 21.5961 28.7197 21.5896H28.7261C28.7326 21.5832 28.739 21.5768 28.7518 21.5768C28.7583 21.5768 28.7583 21.5768 28.7647 21.5704C28.7711 21.5704 28.7839 21.5575 28.7968 21.5704C28.7904 21.5768 28.7775 21.5832 28.7711 21.5896C28.7583 21.5961 28.7454 21.6089 28.7326 21.6153C28.7261 21.6218 28.7261 21.6218 28.7197 21.6282C28.7005 21.641 28.6876 21.6603 28.6748 21.6796C28.6684 21.6924 28.6555 21.6988 28.6491 21.7117C28.6362 21.7309 28.617 21.7502 28.6041 21.7695C28.5784 21.808 28.5528 21.8529 28.5142 21.8851C28.5078 21.8915 28.4757 21.9107 28.4757 21.8851C28.4821 21.8851 28.4885 21.8851 28.495 21.8851C28.5078 21.8786 28.5142 21.8658 28.5206 21.8594C28.5271 21.8529 28.5335 21.8465 28.5271 21.8401C28.5206 21.8401 28.5142 21.8529 28.5078 21.8594C28.5014 21.8658 28.495 21.8722 28.4821 21.8722C28.4564 21.8722 28.4436 21.8594 28.4436 21.8273C28.4436 21.8208 28.4436 21.7887 28.4436 21.7823C28.45 21.7695 28.4564 21.763 28.4693 21.7566C28.4885 21.7438 28.5014 21.7309 28.5206 21.7181C28.5271 21.7117 28.5335 21.7117 28.5335 21.7052C28.5463 21.6988 28.5592 21.6924 28.5656 21.6796C28.5913 21.6603 28.6234 21.6474 28.6555 21.6282C28.6684 21.6218 28.6812 21.6153 28.694 21.6089C28.7005 21.5832 28.7069 21.5768 28.7133 21.5768ZM28.6555 21.4997C28.6555 21.4997 28.6555 21.4933 28.6555 21.4869C28.6555 21.4805 28.6555 21.4741 28.6555 21.4741C28.6555 21.4933 28.6619 21.5062 28.6619 21.519C28.6619 21.5318 28.6555 21.5447 28.6491 21.5575C28.617 21.5704 28.5849 21.5896 28.5592 21.6089C28.5528 21.5896 28.5463 21.5704 28.5399 21.5447C28.5399 21.5318 28.5335 21.5254 28.5399 21.519C28.5399 21.5126 28.5463 21.5062 28.5463 21.4997C28.5528 21.5062 28.5592 21.5062 28.5592 21.5126C28.572 21.519 28.5849 21.5318 28.6041 21.5318C28.6106 21.5318 28.617 21.5318 28.6234 21.5318C28.6298 21.5318 28.6427 21.5318 28.6491 21.5318C28.6555 21.5318 28.6555 21.519 28.6555 21.5126C28.6555 21.5062 28.6555 21.4997 28.6555 21.4997ZM28.6684 21.5447C28.6684 21.5383 28.6684 21.5318 28.6748 21.5254C28.6812 21.5254 28.6876 21.5318 28.694 21.5318C28.6876 21.5383 28.6748 21.5383 28.6684 21.5447ZM28.5142 21.3263C28.5142 21.3135 28.5206 21.3071 28.5206 21.3007C28.5206 21.2942 28.5271 21.2942 28.5271 21.2878C28.5463 21.2685 28.5656 21.2621 28.5913 21.2493C28.5913 21.2429 28.5913 21.2364 28.5913 21.23C28.5913 21.2364 28.5913 21.2429 28.5977 21.2493C28.617 21.2557 28.6298 21.2621 28.6427 21.275C28.6555 21.2878 28.6684 21.3007 28.6748 21.3199C28.6748 21.3328 28.6748 21.3392 28.6812 21.3456C28.6876 21.352 28.694 21.3585 28.6876 21.3713C28.6876 21.4098 28.6619 21.4612 28.6362 21.4805C28.6234 21.4869 28.6041 21.4997 28.5849 21.4997C28.5656 21.4997 28.5528 21.4869 28.5399 21.4741C28.5335 21.4676 28.5206 21.4484 28.5142 21.4355C28.5014 21.4163 28.495 21.397 28.495 21.3713C28.5014 21.3585 28.5142 21.3456 28.5142 21.3263ZM28.5206 21.5254C28.5271 21.5511 28.5271 21.5704 28.5335 21.5961C28.5335 21.6025 28.5399 21.6089 28.5399 21.6153C28.5335 21.6218 28.5271 21.6282 28.5142 21.6282C28.5014 21.6025 28.5014 21.5704 28.5014 21.5318C28.5078 21.5318 28.5142 21.5254 28.5206 21.5254ZM28.495 21.6603C28.5014 21.6667 28.5142 21.6667 28.5142 21.6796C28.5142 21.686 28.495 21.6988 28.4885 21.7052H28.4821C28.4821 21.6988 28.4885 21.6924 28.4885 21.6924C28.495 21.686 28.4885 21.6731 28.4885 21.6731C28.4821 21.6667 28.4885 21.6667 28.495 21.6603ZM28.3601 21.7695C28.3665 21.7373 28.3665 21.7052 28.3794 21.6731C28.3858 21.6474 28.3922 21.6218 28.4051 21.5961C28.4115 21.5896 28.4115 21.5832 28.4179 21.5768C28.4179 21.5768 28.4179 21.5704 28.4243 21.5704C28.4307 21.564 28.4372 21.5575 28.45 21.5511H28.4564C28.4628 21.5447 28.4757 21.5447 28.4885 21.5383C28.4885 21.564 28.4885 21.5832 28.495 21.6089C28.495 21.6218 28.5014 21.6346 28.5014 21.641C28.4821 21.6539 28.4693 21.6667 28.45 21.6731C28.4436 21.6667 28.45 21.6603 28.4436 21.6603C28.4436 21.6667 28.4372 21.6667 28.4372 21.6731C28.4372 21.6796 28.4436 21.686 28.4436 21.6924C28.4436 21.6988 28.4436 21.7245 28.4436 21.7373C28.4436 21.7438 28.4372 21.7695 28.4372 21.7823C28.4372 21.7887 28.4372 21.7951 28.4372 21.8016C28.4179 21.7951 28.3858 21.7887 28.3665 21.7823C28.3537 21.7823 28.3537 21.7759 28.3601 21.7695ZM28.3408 21.8401C28.3729 21.8401 28.3986 21.8529 28.4179 21.8658V21.8722C28.3922 21.8594 28.3665 21.8529 28.3408 21.8401ZM28.1867 21.8979V21.8915L28.1931 21.8851C28.1931 21.8786 28.1931 21.8722 28.1995 21.8722C28.2317 21.8786 28.2702 21.8851 28.3023 21.8979C28.3087 21.8979 28.3151 21.9043 28.3216 21.9043C28.328 21.9043 28.3344 21.9172 28.3344 21.9172C28.3408 21.9172 28.3408 21.9172 28.3473 21.9172C28.3601 21.9043 28.3408 21.8915 28.328 21.8915C28.328 21.8851 28.328 21.8786 28.328 21.8786H28.3408C28.3601 21.8851 28.3858 21.8915 28.3986 21.8979C28.3922 21.9236 28.3794 21.9364 28.3729 21.9621C28.3665 21.9685 28.3601 21.9878 28.3473 21.9878C28.3408 21.9878 28.3216 21.9814 28.3151 21.9814C28.3023 21.9814 28.2959 21.975 28.283 21.975C28.2702 21.975 28.2638 21.9685 28.2573 21.9621C28.2252 21.9493 28.1995 21.9364 28.1739 21.9236C28.1739 21.9043 28.1867 21.9043 28.1867 21.8979ZM28.1803 21.8529H28.1867C28.1803 21.8529 28.1739 21.8658 28.1803 21.8722C28.1739 21.8786 28.1739 21.8786 28.1739 21.8851C28.1674 21.8851 28.1674 21.8915 28.1674 21.8979L28.161 21.9043C28.161 21.9043 28.161 21.9043 28.161 21.9107C28.1546 21.9107 28.1546 21.9172 28.1482 21.9236C28.1482 21.9236 28.1482 21.9172 28.1418 21.9172C28.161 21.8979 28.1674 21.8722 28.1803 21.8529ZM28.161 21.8401H28.1674C28.1739 21.8529 28.1674 21.8658 28.161 21.8786C28.1546 21.8851 28.1482 21.9043 28.1418 21.9043C28.1353 21.9043 28.1289 21.9043 28.1289 21.8979C28.1289 21.8979 28.1353 21.8915 28.1418 21.8851C28.1418 21.8786 28.1546 21.8594 28.161 21.8401ZM28.0069 21.7309C28.0133 21.7309 28.0133 21.7373 28.0133 21.7373C28.0197 21.7438 28.0262 21.7502 28.0326 21.7566C28.0262 21.7502 28.0133 21.7566 28.0069 21.7502C28.0069 21.7438 28.0005 21.7309 28.0069 21.7309ZM28.0583 21.7823C28.0518 21.7823 28.0454 21.7759 28.039 21.7759C28.0262 21.7695 28.0069 21.7759 28.0005 21.7759C27.994 21.7438 28.0647 21.7566 28.0583 21.7823ZM28.0005 21.7823C28.0005 21.7823 28.0133 21.7823 28.0133 21.7759C28.0262 21.7759 28.0326 21.7823 28.0454 21.7887C28.0518 21.7951 28.0583 21.7951 28.0583 21.8016C28.0583 21.808 28.0518 21.808 28.0454 21.808C28.0326 21.808 28.0262 21.8016 28.0133 21.8016C28.0069 21.8016 28.0069 21.808 28.0005 21.808C28.0005 21.8016 28.0005 21.7887 28.0005 21.7823ZM28.0069 21.808C28.0133 21.8016 28.0326 21.8016 28.0454 21.808C28.0518 21.808 28.0583 21.8144 28.0583 21.8208C28.0454 21.8208 28.0262 21.8144 28.0133 21.8273C28.0069 21.8208 28.0069 21.8144 28.0069 21.808ZM28.0326 21.8337C28.0262 21.8337 28.0262 21.8401 28.0262 21.8465C28.0197 21.8465 28.0133 21.8273 28.0262 21.8208C28.039 21.8144 28.0647 21.8208 28.0647 21.8337C28.0583 21.8401 28.039 21.8337 28.0326 21.8337ZM28.0518 21.8465C28.0518 21.8401 28.0647 21.8401 28.0647 21.8337C28.0647 21.8273 28.0583 21.8273 28.0583 21.8208C28.0647 21.8208 28.0647 21.8273 28.0711 21.8337C28.0711 21.8337 28.084 21.8465 28.0904 21.8465C28.0968 21.8465 28.1096 21.8465 28.1032 21.8337C28.0968 21.8337 28.0904 21.8337 28.084 21.8273C28.0775 21.8208 28.0711 21.808 28.0647 21.8016C28.0711 21.7951 28.0647 21.7887 28.0583 21.7823C28.0583 21.7695 28.0583 21.763 28.0518 21.7566C28.0647 21.763 28.0711 21.763 28.084 21.7695C28.1032 21.7823 28.1161 21.7951 28.1161 21.8208C28.1225 21.8273 28.1353 21.8273 28.1353 21.8337C28.1289 21.8529 28.1289 21.8658 28.1161 21.8722C28.1096 21.8658 28.1032 21.8594 28.0904 21.8529C28.084 21.8594 28.0518 21.8594 28.0454 21.8529C28.0583 21.8658 28.0518 21.8529 28.0518 21.8465ZM28.206 22.4759C28.1931 22.4117 28.1739 22.3474 28.161 22.2768C28.1546 22.2575 28.1546 22.2447 28.1482 22.2254C28.1418 22.2061 28.1418 22.1933 28.1353 22.174C28.1161 22.0777 28.084 21.975 28.0647 21.8786C28.0775 21.8851 28.0968 21.8851 28.1096 21.8851C28.1096 21.8979 28.1096 21.9107 28.1289 21.9107C28.1289 21.9172 28.1289 21.9236 28.1353 21.93C28.1482 21.93 28.1546 21.93 28.161 21.9236C28.2188 21.9493 28.2702 21.975 28.3408 21.9878C28.3408 22.0584 28.3344 22.1291 28.3344 22.2062C28.3344 22.2318 28.328 22.2575 28.328 22.2832C28.328 22.3282 28.3216 22.3795 28.3216 22.4245C28.3151 22.4566 28.3151 22.4951 28.3087 22.5272C28.3087 22.5401 28.3087 22.5529 28.3087 22.5658C28.3087 22.5786 28.3023 22.5915 28.3087 22.5979L28.3151 22.6043C28.328 22.6172 28.3537 22.6236 28.3729 22.6364C28.3729 22.6428 28.3729 22.6428 28.3729 22.6493C28.3344 22.6557 28.2959 22.6621 28.2573 22.6685C28.2445 22.6043 28.2252 22.5401 28.206 22.4759ZM28.3023 23.2272C28.3087 23.2337 28.3151 23.2465 28.3151 23.2529C28.3087 23.2465 28.3087 23.2337 28.3023 23.2272ZM28.3216 23.1245C28.3023 23.1309 28.2766 23.1309 28.2573 23.1373C28.2445 23.1373 28.2381 23.1373 28.2252 23.1373C28.206 23.1373 28.1931 23.1373 28.1803 23.1309C28.1739 23.1245 28.1674 23.1245 28.161 23.1181C28.1546 23.1116 28.1482 23.1052 28.1546 23.086C28.1546 23.086 28.1546 23.086 28.1546 23.0795V23.0731C28.1546 23.0667 28.161 23.0667 28.161 23.0603C28.161 23.0538 28.1546 23.0474 28.1546 23.0474C28.1418 23.0474 28.1353 23.0474 28.1353 23.0538C28.1353 23.0538 28.1353 23.0538 28.1353 23.0603L28.1289 23.0667C28.1289 23.0667 28.1225 23.0667 28.1161 23.0667C28.1096 23.0667 28.1032 23.0667 28.0968 23.0603C28.084 23.0538 28.0711 23.041 28.0647 23.0282C28.0647 23.0153 28.0583 23.0153 28.0583 23.0025C28.0583 22.996 28.0583 22.9832 28.0647 22.9768C28.0647 22.9704 28.0775 22.9639 28.0711 22.9511L28.0647 22.9447C28.0647 22.9382 28.0647 22.9382 28.0583 22.9318C28.0518 22.9318 28.0454 22.9318 28.0454 22.9382C28.039 22.9447 28.039 22.9639 28.0326 22.9704C28.0326 22.9896 28.0326 23.0025 28.0326 23.0217C28.0326 23.0346 28.039 23.0346 28.0454 23.0474C28.0518 23.0538 28.0583 23.0667 28.0711 23.0731C28.0775 23.0795 28.0968 23.086 28.0968 23.0988C28.1032 23.0988 28.1096 23.1052 28.1225 23.1116C28.1289 23.1181 28.1482 23.1181 28.1546 23.1309C28.161 23.1309 28.1739 23.1373 28.1803 23.1437C28.2124 23.1566 28.2381 23.1694 28.2702 23.1823C28.283 23.1887 28.2959 23.1951 28.3023 23.2015C28.3087 23.208 28.3151 23.2144 28.3216 23.2208C28.3151 23.2208 28.3087 23.208 28.3023 23.2144C28.3023 23.2208 28.3087 23.2272 28.3151 23.2337C28.3151 23.2337 28.3151 23.2337 28.3151 23.2401L28.3216 23.2465C28.3151 23.2465 28.3151 23.2401 28.3087 23.2337C28.3087 23.2272 28.3023 23.2272 28.2959 23.2272V23.2337L28.2895 23.2272C28.283 23.2337 28.2959 23.2401 28.2959 23.2401C28.2895 23.2401 28.2895 23.2337 28.283 23.2337V23.2401C28.283 23.2401 28.283 23.2337 28.2766 23.2337C28.2766 23.2401 28.2766 23.2401 28.2766 23.2465C28.2766 23.2529 28.283 23.2529 28.283 23.2593C28.283 23.2786 28.2766 23.2979 28.283 23.3107C28.2702 23.2979 28.2766 23.2786 28.2766 23.2593C28.2766 23.2529 28.2702 23.2401 28.2638 23.2337C28.2381 23.2015 28.1931 23.1759 28.1482 23.163C28.1418 23.1566 28.1225 23.1566 28.1096 23.1502C28.0775 23.1437 28.0518 23.1309 28.0262 23.1181C28.0133 23.1116 28.0005 23.0988 27.994 23.086C27.9876 23.0795 27.9812 23.0667 27.9748 23.0603C27.9684 23.0538 27.9684 23.0474 27.9684 23.0346C27.9684 23.0282 27.9684 23.0217 27.9684 23.0089C27.9684 22.996 27.9684 22.9896 27.9684 22.9768C27.9684 22.9575 27.9812 22.9254 27.9876 22.9126C27.994 22.8933 28.0069 22.8805 28.0197 22.8676C28.0326 22.8548 28.0454 22.8419 28.0583 22.8227C28.0711 22.8034 28.0775 22.7841 28.0968 22.7713C28.1032 22.7649 28.1161 22.7584 28.1289 22.752C28.161 22.7327 28.1931 22.7263 28.2381 22.7199C28.2573 22.7905 28.2766 22.8676 28.2959 22.9382C28.2959 22.9511 28.3023 22.9575 28.3023 22.9704C28.2895 22.9704 28.2573 22.9575 28.2509 22.9639C28.2381 22.9704 28.2509 22.9832 28.2638 22.9832H28.2573C28.2509 22.9832 28.2445 22.9896 28.2381 22.9896H28.2317C28.2252 22.9896 28.2188 22.996 28.2188 23.0025C28.2124 23.0089 28.2188 23.0217 28.2317 23.0153C28.2381 23.0089 28.2445 23.0025 28.2509 22.996C28.2702 22.9896 28.2895 22.9832 28.3087 22.9832C28.3151 23.0153 28.3216 23.041 28.328 23.0731C28.3087 23.0731 28.283 23.0795 28.2638 23.0731C28.2509 23.0667 28.2445 23.0667 28.2317 23.0731L28.2381 23.0795C28.2381 23.0924 28.2188 23.086 28.2188 23.0795C28.2124 23.0924 28.2317 23.1052 28.2509 23.1116H28.2573C28.283 23.1116 28.3151 23.1052 28.3344 23.0988C28.3408 23.1245 28.328 23.1245 28.3216 23.1245ZM28.3665 23.1116C28.3665 23.1052 28.3729 23.1052 28.3729 23.1052C28.3986 23.0988 28.4307 23.0988 28.4628 23.0924H28.4693C28.4372 23.1052 28.3986 23.1052 28.3665 23.1116ZM28.4436 23.0795C28.4115 23.0795 28.3858 23.0795 28.3601 23.086C28.3537 23.0538 28.3473 23.0282 28.3408 22.996C28.3729 22.996 28.4051 23.0025 28.4372 23.0025C28.4436 23.0089 28.4436 23.0089 28.4436 23.0153C28.45 23.0217 28.4564 23.0282 28.4628 23.0282C28.4693 23.0346 28.4693 23.0346 28.4757 23.041L28.4821 23.0474C28.4885 23.0538 28.4885 23.0538 28.495 23.0603C28.4885 23.0667 28.4821 23.0667 28.4757 23.0731C28.4693 23.0795 28.4564 23.0795 28.4436 23.0795ZM28.5142 23.1373C28.5142 23.1309 28.5271 23.1309 28.5271 23.1373C28.5271 23.1502 28.5078 23.1502 28.5142 23.1373ZM28.5977 23.0795C28.5913 23.0924 28.5913 23.1052 28.5784 23.1181H28.572C28.5592 23.1245 28.5592 23.1566 28.5399 23.1437C28.5335 23.1309 28.5528 23.1309 28.5592 23.1373C28.5592 23.1309 28.5528 23.1309 28.5399 23.1309C28.5399 23.1181 28.5528 23.1116 28.5592 23.1052C28.5592 23.0988 28.5592 23.0988 28.5592 23.0988C28.5528 23.0924 28.5463 23.0988 28.5463 23.1052C28.5463 23.1116 28.5335 23.1181 28.5335 23.1245C28.5271 23.1309 28.5271 23.1373 28.5206 23.1309C28.5206 23.1116 28.5335 23.1116 28.5399 23.0988C28.5399 23.0988 28.5399 23.0988 28.5399 23.0924C28.5271 23.0924 28.5335 23.1052 28.5206 23.1116C28.5142 23.1181 28.5142 23.1309 28.5078 23.1373H28.5014V23.1309C28.5014 23.1309 28.5014 23.1309 28.5078 23.1245C28.5014 23.1116 28.5142 23.0988 28.5206 23.0924C28.5142 23.0795 28.5014 23.1052 28.5014 23.1116C28.5014 23.1181 28.5014 23.1245 28.495 23.1245C28.4885 23.1245 28.495 23.1052 28.495 23.0988C28.495 23.0924 28.5014 23.0924 28.5078 23.086C28.5014 23.086 28.495 23.0924 28.495 23.0924C28.495 23.0924 28.495 23.0988 28.4885 23.0988C28.4821 23.0988 28.4885 23.0924 28.4885 23.086C28.495 23.0795 28.495 23.0731 28.5078 23.0731C28.5142 23.0731 28.5142 23.0667 28.5142 23.0603C28.5206 23.0538 28.5463 23.0603 28.5592 23.0603C28.5656 23.0603 28.5784 23.0603 28.5849 23.0667C28.5913 23.0667 28.6041 23.0667 28.6041 23.0731C28.6041 23.0731 28.5977 23.0731 28.5977 23.0795ZM28.5271 23.041C28.5335 23.0282 28.5399 23.0153 28.5463 22.996C28.5399 23.0153 28.5335 23.0282 28.5271 23.041ZM28.6491 22.585C28.6491 22.6493 28.6427 22.7135 28.6427 22.7777C28.6427 22.8548 28.6362 22.9318 28.6298 22.996C28.617 22.996 28.6041 22.9896 28.5849 22.9832C28.5656 22.9832 28.5528 22.9768 28.5335 22.9768C28.5592 22.8933 28.5849 22.8098 28.6041 22.7135C28.617 22.6557 28.6298 22.6043 28.6362 22.5465C28.6491 22.5529 28.6491 22.5786 28.6491 22.585ZM28.6298 22.508C28.6234 22.5208 28.6106 22.5272 28.6041 22.5401C28.5977 22.5465 28.5977 22.5529 28.5913 22.5529C28.6234 22.4694 28.6619 22.386 28.6876 22.2961C28.7005 22.2511 28.7133 22.2061 28.7261 22.1612C28.739 22.1098 28.7454 22.0584 28.7454 22.0071C28.7518 22.0135 28.7583 22.0199 28.7583 22.0328C28.7711 22.0649 28.7775 22.097 28.7839 22.1291C28.7904 22.1548 28.7904 22.174 28.7904 22.1997C28.7904 22.2126 28.7904 22.2254 28.7904 22.2383C28.7904 22.2511 28.7904 22.2639 28.7904 22.2768C28.7904 22.2896 28.7775 22.3025 28.7711 22.3153C28.7647 22.3282 28.7583 22.341 28.7454 22.3539C28.7326 22.3795 28.7133 22.3988 28.694 22.4245C28.6748 22.4502 28.6491 22.4823 28.6298 22.508ZM28.7133 22.7071C28.7069 22.6493 28.7069 22.585 28.7133 22.5272C28.7133 22.5208 28.7133 22.508 28.7133 22.5016C28.7133 22.4887 28.7133 22.4759 28.7261 22.463C28.7326 22.4566 28.739 22.4566 28.7454 22.4502C28.7518 22.4438 28.7518 22.4438 28.7583 22.4373C28.7583 22.4309 28.7647 22.4181 28.7647 22.4117C28.7711 22.5337 28.7518 22.6172 28.739 22.7263C28.739 22.7584 28.7326 22.7841 28.7326 22.8162C28.7197 22.797 28.7197 22.752 28.7133 22.7071ZM28.7326 22.919C28.7261 22.919 28.7197 22.919 28.7133 22.9254C28.7005 22.8676 28.6876 22.797 28.6812 22.7327C28.6748 22.6621 28.6684 22.5915 28.6684 22.5208C28.6748 22.5208 28.6748 22.5144 28.6812 22.5208C28.6876 22.5272 28.6876 22.5594 28.6876 22.5722C28.6876 22.6236 28.694 22.6814 28.694 22.7327C28.694 22.7649 28.7005 22.8034 28.7069 22.8355C28.7133 22.8612 28.7261 22.8933 28.7326 22.919ZM28.6555 22.9639C28.6555 22.8869 28.6619 22.8034 28.6619 22.7199C28.6684 22.7199 28.6619 22.7263 28.6619 22.7327C28.6684 22.7649 28.6684 22.8034 28.6748 22.8355C28.6812 22.874 28.694 22.9061 28.694 22.9447C28.6876 22.9511 28.6748 22.9511 28.6684 22.9511C28.6684 22.9575 28.6619 22.9639 28.6555 22.9639ZM28.8482 23.086C28.8353 23.0795 28.8225 23.0667 28.8032 23.0603C28.7968 23.0603 28.7904 23.0603 28.7839 23.0603C28.7839 23.0667 28.7904 23.0667 28.7968 23.0667C28.8096 23.0667 28.8225 23.0731 28.8289 23.0795C28.8353 23.0795 28.8417 23.086 28.8417 23.0924C28.8353 23.1052 28.8161 23.086 28.8161 23.0795C28.8096 23.0795 28.8096 23.0731 28.8032 23.0731C28.7968 23.0731 28.7904 23.0731 28.7904 23.0731C28.7839 23.0731 28.7839 23.0731 28.7775 23.0667C28.7775 23.0795 28.8032 23.0731 28.8096 23.086C28.8096 23.086 28.8096 23.086 28.8096 23.0924L28.8161 23.0988V23.0924C28.8353 23.086 28.8353 23.1052 28.8225 23.1116C28.8096 23.1181 28.7968 23.1052 28.7904 23.1052C28.7711 23.1052 28.7583 23.1052 28.7454 23.1052C28.7326 23.1052 28.7261 23.0924 28.7197 23.086C28.7133 23.0795 28.7005 23.0731 28.6876 23.0731C28.694 23.0603 28.7005 23.0474 28.7069 23.0346C28.7133 23.0282 28.739 23.0153 28.7518 23.0217C28.7583 23.0217 28.7711 23.0282 28.7775 23.0282C28.7839 23.0282 28.7839 23.0346 28.7904 23.0346C28.7968 23.041 28.7968 23.0474 28.8032 23.0474C28.8161 23.0538 28.8289 23.0538 28.8417 23.0538C28.8482 23.0538 28.8482 23.0538 28.8482 23.0603C28.8482 23.0603 28.8482 23.0667 28.8417 23.0667C28.8353 23.0667 28.8353 23.0603 28.8353 23.0603C28.8289 23.0538 28.8096 23.0538 28.7968 23.0538C28.7968 23.0538 28.8032 23.0538 28.8032 23.0603C28.8225 23.0667 28.8353 23.0731 28.8482 23.0795C28.8417 23.0795 28.8546 23.0795 28.8482 23.086ZM29.2977 23.041C29.3041 23.0538 29.3105 23.0603 29.3105 23.0731C29.3041 23.0795 29.3041 23.086 29.2977 23.086C29.2977 23.0795 29.2977 23.0667 29.2913 23.0667C29.2913 23.0667 29.2913 23.0731 29.2849 23.0731C29.2784 23.0731 29.2784 23.0667 29.272 23.0667C29.272 23.0731 29.2784 23.0795 29.2784 23.086C29.2784 23.1052 29.2656 23.1116 29.2527 23.1116C29.2527 23.1052 29.2656 23.1052 29.2656 23.0988C29.2656 23.0924 29.2592 23.086 29.2527 23.0795C29.2463 23.0795 29.2527 23.086 29.2463 23.086C29.2399 23.086 29.2399 23.0731 29.2271 23.0795C29.2335 23.086 29.2335 23.0924 29.2271 23.0988C29.2206 23.1052 29.2078 23.1052 29.2014 23.1052C29.1885 23.1052 29.1757 23.1052 29.1628 23.0924C29.1564 23.086 29.1564 23.0795 29.15 23.0731C29.1436 23.0667 29.1371 23.0667 29.1307 23.0603C29.1243 23.0603 29.1243 23.0538 29.1243 23.0474C29.1179 23.041 29.1115 23.041 29.105 23.0346C29.0858 23.0282 29.0537 23.0153 29.028 23.0153C28.983 23.0089 28.9316 23.0153 28.8931 23.0025C28.8803 23.0025 28.861 22.996 28.8482 22.996C28.8289 22.996 28.8161 23.0025 28.8032 22.996C28.7904 22.996 28.7839 22.9832 28.7775 22.9704C28.7711 22.9382 28.7711 22.9061 28.7518 22.8805C28.7454 22.8676 28.7454 22.8548 28.7518 22.8419C28.7518 22.8291 28.7583 22.8162 28.7583 22.8034C28.7583 22.7905 28.7583 22.7777 28.7647 22.7649C28.7647 22.7456 28.7775 22.7199 28.7839 22.7071C28.7904 22.7071 28.7968 22.7199 28.7968 22.7199C28.8096 22.7263 28.8225 22.7327 28.8289 22.7392C28.8353 22.7392 28.8353 22.7456 28.8417 22.752C28.8546 22.7777 28.8482 22.8098 28.861 22.8355C28.861 22.8419 28.8674 22.8419 28.8674 22.8483C28.8546 22.8483 28.8353 22.8483 28.8289 22.8612C28.8353 22.874 28.8546 22.8612 28.8674 22.8612C28.8803 22.8612 28.8995 22.8676 28.906 22.874C28.9124 22.8805 28.9188 22.8933 28.9316 22.8933C28.9445 22.8997 28.9702 22.8997 28.9894 22.8997C29.0087 22.8997 29.0344 22.9061 29.0472 22.9061C29.0729 22.9126 29.105 22.9254 29.1243 22.9318C29.1307 22.9318 29.1307 22.9318 29.1372 22.9382C29.1436 22.9382 29.1436 22.9447 29.15 22.9447C29.1564 22.9511 29.1693 22.9511 29.1821 22.9511C29.1949 22.9511 29.2014 22.9575 29.2142 22.9575C29.2206 22.9639 29.2335 22.9639 29.2463 22.9704C29.2527 22.9704 29.2527 22.9768 29.2592 22.9768C29.2656 22.9768 29.272 22.9768 29.2784 22.9768C29.2849 22.9768 29.2913 22.9832 29.2977 22.9896C29.3105 22.996 29.317 23.0089 29.3234 23.0217C29.3105 23.0474 29.3105 23.0346 29.2977 23.041ZM29.4261 23.0346C29.4197 23.0282 29.4069 23.0282 29.4004 23.0282C29.3876 23.0282 29.3683 23.0217 29.3555 23.0217C29.3427 23.0217 29.3234 23.0153 29.3105 23.0153C29.317 23.0089 29.3362 23.0089 29.3491 23.0089C29.3748 23.0089 29.4197 23.0089 29.4261 23.0217C29.4261 23.0217 29.4261 23.0282 29.4261 23.0346C29.4261 23.041 29.4261 23.0346 29.4261 23.0346ZM29.5289 22.996C29.5353 23.0025 29.5417 23.0089 29.5417 23.0153C29.5417 23.0153 29.5417 23.0217 29.5353 23.0217C29.5289 23.0217 29.5289 23.0025 29.5096 23.0025C29.5096 23.0025 29.5032 23.0025 29.5032 23.0089C29.4968 23.0217 29.5289 23.0282 29.516 23.0474C29.516 23.0538 29.5032 23.0538 29.4904 23.0538C29.4904 23.0474 29.4968 23.0474 29.4968 23.041C29.4968 23.0282 29.4775 23.0153 29.4647 23.0282C29.4647 23.041 29.4775 23.0474 29.4711 23.0538C29.4647 23.0603 29.4518 23.0603 29.4454 23.0538C29.4454 23.0538 29.4518 23.0538 29.4582 23.0538C29.4582 23.0538 29.4582 23.0538 29.4647 23.0474C29.4647 23.041 29.4582 23.041 29.4518 23.0346C29.4454 23.0282 29.4454 23.0282 29.439 23.0217C29.439 22.996 29.4197 22.996 29.394 22.9896C29.3555 22.9896 29.317 22.9832 29.2784 22.9768C29.2784 22.9575 29.2656 22.9575 29.2527 22.9511C29.2335 22.9447 29.2142 22.9447 29.1949 22.9382C29.1885 22.9382 29.1757 22.9318 29.1693 22.9254C29.1693 22.919 29.1821 22.9126 29.1885 22.9061C29.2078 22.8933 29.2271 22.8805 29.2463 22.8612C29.2849 22.8676 29.3105 22.8869 29.3427 22.8997C29.3491 22.9061 29.3619 22.9061 29.3683 22.9126C29.3748 22.919 29.3876 22.919 29.394 22.9254C29.4326 22.9382 29.4904 22.9254 29.5225 22.9447C29.5353 22.9511 29.5417 22.9639 29.5417 22.9768C29.5353 22.9768 29.5353 22.9575 29.5289 22.9575C29.5225 22.9575 29.5225 22.9639 29.5225 22.9639C29.5225 22.9896 29.5225 22.996 29.5289 22.996ZM29.1885 23.0667C29.1757 23.0603 29.1693 23.0474 29.1628 23.0346C29.1628 23.0346 29.1564 23.0282 29.15 23.0282C29.1436 23.0282 29.1436 23.0217 29.1372 23.0217C29.1243 23.0153 29.1115 23.0153 29.0986 23.0089C29.0922 23.0089 29.0922 23.0089 29.0858 23.0089C29.0794 23.0089 29.0729 23.0025 29.0665 23.0025C29.0472 22.996 29.0216 23.0025 29.0023 22.996C28.9702 22.996 28.9381 22.9896 28.906 22.9832C28.8931 22.9832 28.8739 22.9768 28.861 22.9768C28.8546 22.9768 28.8546 22.9704 28.8482 22.9704C28.8353 22.9704 28.8289 22.9704 28.8161 22.9704C28.8096 22.9704 28.8096 22.9768 28.8032 22.9768C28.7968 22.9768 28.7968 22.9639 28.7839 22.9704C28.7775 22.9768 28.7775 22.9832 28.7775 22.9896C28.7775 22.9896 28.7904 22.996 28.7904 23.0025C28.7968 23.0089 28.8032 23.0025 28.8096 22.996C28.8353 22.9896 28.861 23.0025 28.8803 23.0025C28.9381 23.0089 29.0087 23.0089 29.0601 23.0217C29.0665 23.0217 29.0794 23.0217 29.0858 23.0282C29.1115 23.0346 29.1243 23.0538 29.1436 23.0603C29.1564 23.0731 29.1628 23.086 29.1821 23.0924C29.1949 23.0924 29.2078 23.0924 29.2078 23.086C29.2271 23.0667 29.2014 23.0731 29.1885 23.0667ZM28.5849 21.4227H28.5913C28.5977 21.4227 28.6106 21.4291 28.617 21.4227C28.6298 21.4163 28.617 21.397 28.617 21.3841C28.617 21.3777 28.617 21.3713 28.6234 21.3649C28.6234 21.3649 28.6491 21.3777 28.6684 21.3649C28.6684 21.3649 28.6748 21.3649 28.6748 21.3585V21.352C28.6748 21.352 28.6684 21.3585 28.6684 21.352C28.6555 21.3456 28.6491 21.3392 28.6362 21.3456C28.6234 21.3456 28.617 21.352 28.617 21.352C28.6106 21.3328 28.6555 21.3263 28.6684 21.3392C28.6684 21.3328 28.6619 21.3263 28.6619 21.3263C28.6491 21.3135 28.617 21.3263 28.6106 21.3328C28.6041 21.3392 28.6041 21.3713 28.6041 21.3841C28.6041 21.3906 28.6106 21.3906 28.6106 21.4034C28.6106 21.4098 28.6106 21.4098 28.6041 21.4163C28.5977 21.4163 28.5849 21.4098 28.5849 21.4227ZM28.6491 21.352C28.6491 21.3585 28.6555 21.3585 28.6491 21.352C28.6555 21.352 28.6555 21.352 28.6555 21.3585C28.6555 21.3585 28.6491 21.3649 28.6427 21.3649C28.6491 21.3649 28.6555 21.3649 28.6491 21.352C28.6555 21.3585 28.6555 21.3585 28.6491 21.352ZM28.6362 21.352C28.6362 21.3585 28.6362 21.3585 28.6362 21.352C28.6362 21.3585 28.6362 21.3649 28.6362 21.3649C28.6234 21.3649 28.617 21.3585 28.617 21.3585C28.617 21.3585 28.6298 21.3585 28.6362 21.352ZM28.5335 21.3713C28.5335 21.3713 28.5463 21.3777 28.5528 21.3777C28.5784 21.3777 28.5849 21.3585 28.5849 21.3585C28.5849 21.3392 28.572 21.3263 28.5592 21.3263C28.5528 21.3263 28.5399 21.3263 28.5399 21.3328C28.5335 21.3392 28.5271 21.3456 28.5271 21.352C28.5335 21.352 28.5463 21.3392 28.5656 21.3456C28.5784 21.3456 28.5849 21.3585 28.5784 21.3649C28.572 21.3585 28.572 21.3585 28.5656 21.3585C28.5463 21.352 28.5335 21.3649 28.5271 21.3713C28.5271 21.3713 28.5271 21.3713 28.5206 21.3713C28.5206 21.3649 28.5271 21.3649 28.5335 21.3713ZM28.5592 21.352C28.5592 21.352 28.5656 21.352 28.572 21.3585C28.572 21.3585 28.5656 21.3649 28.5592 21.3649C28.5592 21.3649 28.5656 21.3649 28.5592 21.352C28.5656 21.3585 28.5656 21.3585 28.5592 21.352ZM28.5463 21.352C28.5463 21.3585 28.5463 21.3585 28.5463 21.352C28.5463 21.3585 28.5463 21.3649 28.5463 21.3649C28.5335 21.3649 28.5271 21.3585 28.5271 21.3585C28.5271 21.3585 28.5399 21.3585 28.5463 21.352Z" fill="black"/>
<path d="M28.5961 13.4592L27.6456 20.594L28.5961 20.0867V13.4592Z" fill="#EF7D00"/>
<path d="M26.5665 21.5766L22.8996 20.3757L26.7784 22.6106L26.5665 21.5766Z" fill="#EF7D00"/>
<path d="M34.2929 20.3757L29.881 20.851L30.6324 21.5702L34.2929 20.3757Z" fill="#EF7D00"/>
<path d="M29.8679 23.9526L32.1991 27.1058L30.2982 23.015L29.8679 23.9526Z" fill="#EF7D00"/>
<path d="M24.9937 27.106L28.3845 24.1005L27.3249 23.9464L24.9937 27.106Z" fill="#EF7D00"/>
<path d="M28.7307 24.0298L29.8096 23.8757L30.2463 22.906L28.7307 24.0298Z" fill="#EF7D00"/>
<path d="M26.9534 22.906L27.3836 23.8693L28.4689 24.0234L26.9534 22.906Z" fill="#EF7D00"/>
<path d="M27.4343 20.8833L26.6637 21.6026L26.8756 22.6493L27.4343 20.8833Z" fill="#EF7D00"/>
<path d="M29.7659 20.8833L30.5365 21.6026L30.3182 22.6493L29.7659 20.8833Z" fill="#EF7D00"/>
<path d="M29.5601 20.7227L28.5968 20.2025L27.6336 20.7227H29.5601Z" fill="#EF7D00"/>
</svg>
