<svg width="40" height="40" viewBox="0 0 40 40" fill="none" xmlns="http://www.w3.org/2000/svg">
<path d="M8.29431 15.7014C8.97927 15.6984 9.65424 15.8657 10.2585 16.1883C10.8966 16.5253 11.2079 17.0691 11.1916 17.7883C11.1722 18.646 10.4206 19.3773 9.56589 19.3957C9.25134 19.4025 8.96397 19.3253 8.68162 19.1908C8.19524 18.959 7.63609 19.1836 7.44659 19.6729C7.38056 19.8388 7.3663 20.0208 7.40567 20.195C7.44504 20.3692 7.5362 20.5273 7.66717 20.6487C7.91803 20.8866 8.28969 20.9794 8.67076 20.8126C8.84389 20.7368 9.02376 20.6668 9.20769 20.6271C10.1562 20.4223 11.2488 21.1911 11.1902 22.3749C11.1588 23.0079 10.8463 23.4874 10.2894 23.7899C9.80919 24.0496 9.28153 24.2099 8.73797 24.2613C7.44304 24.3907 6.31551 24.007 5.36278 23.1334C4.63114 22.4626 4.18735 21.6243 4.04846 20.6357C3.87021 19.3668 4.18025 18.2263 4.99964 17.2419C5.68842 16.4143 6.57777 15.9191 7.6453 15.7582C7.79199 15.7361 7.94051 15.7262 8.08902 15.7163C8.15751 15.7117 8.226 15.7072 8.29431 15.7014Z" fill="#FF37A5"/>
<path d="M24.2794 17.6118C24.1929 17.7619 24.1065 17.912 24.0199 18.062L23.9846 18.0604C23.9846 17.9953 23.9847 17.9301 23.9847 17.865C23.9849 17.7002 23.985 17.5353 23.9842 17.3705C23.9842 17.3531 23.9843 17.3357 23.9844 17.3182V17.3181C23.9849 17.2535 23.9854 17.1887 23.9751 17.1258C23.8298 16.2374 22.9959 15.5287 21.9368 15.7499C21.1231 15.9198 20.6029 16.593 20.6019 17.4297C20.6004 19.1328 20.6006 20.8359 20.6027 22.5389C20.6047 22.6545 20.6159 22.7697 20.6362 22.8834C20.7543 23.6048 21.3459 24.258 22.2581 24.2892C23.0608 24.3167 23.7617 23.7815 23.9335 23.0055C23.9759 22.814 23.9774 22.6132 23.9789 22.4126V22.4126C23.9795 22.3258 23.9801 22.2391 23.9841 22.1532C23.9867 22.0966 23.986 22.0398 23.9853 21.983C23.985 21.957 23.9847 21.9309 23.9847 21.9049C24.0215 21.9235 24.0514 21.9536 24.0697 21.9907C24.1546 22.1382 24.2392 22.2858 24.3238 22.4335C24.51 22.7584 24.6962 23.0833 24.8851 23.4066C25.3907 24.2716 26.4937 24.5214 27.3108 23.9638C27.6658 23.7207 27.9152 23.3518 28.0086 22.9318C28.102 22.5117 28.0324 22.0719 27.814 21.7012C27.6927 21.4931 27.5726 21.2843 27.4524 21.0756C27.2738 20.765 27.0951 20.4544 26.9126 20.1461C26.8447 20.0315 26.8432 19.9438 26.9112 19.8285C27.147 19.4286 27.3777 19.0255 27.6083 18.6225L27.6084 18.6222L27.6086 18.6219L27.613 18.6143C27.6783 18.5001 27.7437 18.3858 27.8092 18.2716C28.0048 17.9307 28.0831 17.5704 28.0322 17.1743C27.922 16.3179 27.0876 15.5214 25.9912 15.7513C25.4958 15.8553 25.1308 16.1444 24.8778 16.5775C24.6769 16.9214 24.4782 17.2666 24.2794 17.6117L24.2794 17.6118Z" fill="#FF37A5"/>
<path d="M33.0588 21.3247C34.1456 20.6351 34.0426 19.2296 33.0084 18.6583C33.1751 18.6583 33.3374 18.6576 33.4967 18.657C33.8411 18.6555 34.1716 18.654 34.5019 18.6599C35.3498 18.6749 36.0258 17.9512 35.999 17.1348C35.9731 16.3456 35.2886 15.7078 34.5689 15.7136C33.6746 15.7208 32.7802 15.7195 31.8859 15.7182C31.4661 15.7176 31.0464 15.7169 30.6267 15.7172C30.545 15.7146 30.4633 15.7194 30.3826 15.7315C29.5663 15.8815 28.9809 16.5696 28.9784 17.4019C28.9758 19.1324 28.9757 20.8629 28.9782 22.5935C28.9764 22.826 29.0259 23.0561 29.123 23.2675C29.4369 23.9395 29.9763 24.2835 30.7084 24.2914C31.6648 24.3016 32.6214 24.2988 33.578 24.296C33.881 24.2951 34.1841 24.2943 34.4871 24.2938C34.5822 24.2925 34.677 24.2825 34.7703 24.2638C35.5159 24.1233 36.0015 23.5329 35.9953 22.7784C35.9894 22.0666 35.473 21.4738 34.7465 21.3564C34.5865 21.3305 34.4217 21.3277 34.259 21.326C33.9804 21.3231 33.7017 21.3236 33.4153 21.3242C33.2979 21.3244 33.1793 21.3247 33.0588 21.3247Z" fill="#FF37A5"/>
<path d="M15.608 21.8537C15.6751 21.7105 15.7433 21.565 15.8131 21.4162C15.8562 21.5084 15.8978 21.5974 15.9384 21.6842C16.0252 21.8699 16.1073 22.0456 16.1896 22.2212C16.2446 22.3386 16.2983 22.4567 16.352 22.5748C16.4732 22.8411 16.5943 23.1075 16.7303 23.3659C17.0629 23.9979 17.6082 24.3241 18.3135 24.285C19.5893 24.2143 20.2361 22.9252 19.7866 21.929C19.61 21.5374 19.4288 21.1479 19.2476 20.7583C19.2106 20.6788 19.1736 20.5993 19.1366 20.5198C18.778 19.748 18.4187 18.9767 18.0587 18.2056C17.9938 18.0665 17.9293 17.9272 17.8648 17.7879C17.6891 17.4082 17.5133 17.0286 17.3285 16.6534C16.9873 15.961 16.245 15.5587 15.3944 15.7624C14.8724 15.8875 14.5015 16.214 14.2738 16.6975C13.9727 17.3366 13.6744 17.9771 13.376 18.6175C13.2604 18.8656 13.1448 19.1138 13.0291 19.3618C12.9228 19.5897 12.8162 19.8175 12.7097 20.0453C12.4268 20.65 12.144 21.2547 11.8651 21.8612C11.7174 22.1823 11.6587 22.5165 11.7249 22.8748C11.8653 23.6357 12.4067 24.1627 13.2195 24.2796C13.8129 24.365 14.5733 24.0478 14.9113 23.3412C14.9568 23.2462 15.0011 23.1507 15.0454 23.0552C15.0699 23.0025 15.0943 22.9498 15.119 22.8972C15.2797 22.5542 15.4404 22.2112 15.608 21.8537Z" fill="#FF37A5"/>
</svg>
