<svg width="40" height="40" viewBox="0 0 40 40" fill="none" xmlns="http://www.w3.org/2000/svg">
<path d="M22.6418 25.6938C22.5257 24.9385 22.1421 24.3647 21.4743 23.9878C21.3603 23.9235 21.2363 23.8769 21.1123 23.82C21.6416 23.5417 21.8697 23.3589 22.0715 22.9565C22.4855 22.1308 22.5343 21.271 22.1673 20.4241C21.9005 19.8084 21.4615 19.342 20.7568 19.208C20.4537 19.1502 20.1459 19.1209 19.8374 19.1204C17.9514 19.118 16.0654 19.1207 14.1794 19.116C14.0498 19.1156 14.028 19.1555 14.0281 19.2743C14.0314 22.2832 14.0312 25.2922 14.0275 28.3011C14.0274 28.4323 14.0613 28.4632 14.1901 28.4628C16.1275 28.4572 18.0648 28.4548 20.0022 28.4558C20.3322 28.4544 20.6615 28.4276 20.9873 28.3755C21.3933 28.3123 21.7497 28.155 22.0272 27.8406C22.5731 27.2221 22.7662 26.5034 22.6418 25.6938ZM20.0992 26.2161C19.9505 26.3522 19.7629 26.3784 19.575 26.3973C19.062 26.4489 18.5472 26.4142 18.0332 26.4237C17.9904 26.4245 17.9475 26.4238 17.9047 26.4238C17.4246 26.4238 16.9446 26.4215 16.4645 26.4258C16.3718 26.4266 16.3383 26.4053 16.3394 26.3058C16.3389 25.9723 16.3439 22.204 16.3389 21.2962C16.3382 21.1771 16.3724 21.1476 16.4887 21.1485C17.2766 21.1549 18.0647 21.1512 18.8526 21.1569C19.0965 21.1586 19.3415 21.1783 19.5736 21.2624C20.0754 21.4445 20.2067 21.9049 20.0055 22.307C19.9153 22.4872 19.7472 22.5758 19.5662 22.6396C19.2756 22.7419 18.9715 22.7582 18.6677 22.766C18.4194 22.7725 18.1707 22.7731 17.9226 22.7658C17.6868 22.7588 17.5253 22.8645 17.4059 23.0596C17.0866 23.5816 16.7688 24.085 16.4711 24.6195C16.4593 24.6407 16.4047 24.7388 16.3685 24.8016C17.2514 24.806 18.2217 24.803 19.1046 24.8095C19.3483 24.8113 19.5928 24.8326 19.8272 24.9106C20.4186 25.1073 20.5611 25.7933 20.0992 26.2161Z" fill="#005AAA"/>
<path d="M32.1943 15.2218C32.1939 14.9177 32.1906 14.6136 32.1886 14.3095C32.1893 13.3852 32.1898 12.461 32.1901 11.5367C32.1901 11.5318 32.1796 11.5268 32.1689 11.5173C31.9882 11.6074 31.8049 11.6981 31.6222 11.7899C30.9788 12.1132 30.3354 12.4368 29.6922 12.7605C29.1344 13.0374 28.5758 13.3128 28.0189 13.5916C27.2482 13.9772 26.4782 14.3642 25.7088 14.7525C25.2167 14.9968 24.7288 15.25 24.2309 15.4819C23.9373 15.6187 23.7936 15.822 23.8316 16.1465C23.8527 16.3237 23.935 16.4594 24.0981 16.5406C24.3771 16.6794 26.2152 17.5984 26.2929 17.6369C26.6517 17.4947 29.3644 16.0911 29.4098 16.0895C29.6076 16.1843 32.1167 17.4215 32.1954 17.461C32.1951 16.7367 32.1954 15.9461 32.1943 15.2218Z" fill="url(#paint0_linear_6200_1229)"/>
<path d="M29.4076 19.1808C29.2463 19.1029 24.9609 16.975 24.9609 16.975C24.9609 16.975 24.4799 16.7222 24.2337 16.6081C24.048 16.5221 23.9046 16.4037 23.8309 16.2095C23.829 16.4962 23.8255 16.7829 23.8256 17.0696C23.8258 17.7801 23.8271 18.4907 23.8293 19.2013C23.8299 19.3875 23.9129 19.4831 24.0724 19.5699C24.3383 19.7146 29.2642 22.1375 29.4253 22.2208C29.4253 22.1916 29.4076 19.2486 29.4076 19.1808Z" fill="url(#paint1_linear_6200_1229)"/>
<path d="M34.9986 20.4694C34.998 20.0624 34.9951 19.6555 34.9932 19.2485C34.9221 19.4462 34.7761 19.5621 34.5887 19.6468C34.4111 19.7272 29.4269 22.2245 29.4269 22.2245C29.4269 22.2765 29.4351 25.2525 29.4351 25.3417C29.7232 25.194 34.4596 22.82 34.6454 22.7354C34.8915 22.6232 35.0033 22.4372 35.0006 22.1661C34.9948 21.6006 34.9996 21.035 34.9986 20.4694Z" fill="url(#paint2_linear_6200_1229)"/>
<path d="M32.4651 20.7028C33.5428 20.1641 34.511 19.6811 34.5875 19.6465C34.775 19.5617 34.9209 19.4458 34.992 19.2482C35.0183 19.0417 34.9796 18.9065 34.8067 18.7799C34.6298 18.6504 29.4279 16.092 29.4116 16.0889C29.4129 16.617 29.3997 19.0411 29.3997 19.185C29.4742 19.2237 31.9774 20.4622 32.4651 20.7028Z" fill="url(#paint3_linear_6200_1229)"/>
<path d="M12.5872 19.116C12.4112 19.4049 12.2387 19.6866 12.0798 19.9441C11.8998 20.2359 11.7124 20.5234 11.5376 20.8183C11.418 21.0201 11.2471 21.1004 11.0186 21.1022C10.4371 21.1067 9.85228 21.0822 9.27519 21.1368C8.18602 21.2399 7.63618 21.5363 7.33115 22.9811C7.14106 23.8815 7.31066 24.7392 7.73785 25.557C8.04318 26.1416 8.51176 26.426 9.15665 26.4358C10.2898 26.4531 11.423 26.4633 12.5561 26.4762C12.6424 26.4772 12.7287 26.4764 12.8484 26.4764C12.8011 26.5707 12.1219 27.6864 11.8135 28.1881C11.6888 28.391 11.5137 28.4819 11.2742 28.4804C10.4314 28.4749 9.58807 28.495 8.74602 28.4695C8.31684 28.4565 7.88567 28.3894 7.46292 28.3078C6.39698 28.1021 5.85773 27.3258 5.46862 26.4046C4.99129 25.2745 4.94221 24.0907 5.04344 22.8896C5.10367 22.175 5.31713 21.5095 5.63229 20.8648C6.09917 19.9097 6.87761 19.4067 7.89359 19.236C8.28273 19.1691 8.6764 19.1318 9.07118 19.1246C10.1599 19.1095 11.249 19.1186 12.3379 19.1194C12.4018 19.1194 12.4832 19.116 12.5872 19.116Z" fill="#005AAA"/>
<defs>
<linearGradient id="paint0_linear_6200_1229" x1="25.9964" y1="18.0417" x2="32.0364" y2="13.7331" gradientUnits="userSpaceOnUse">
<stop stop-color="#F7981C"/>
<stop offset="1" stop-color="#FECC07"/>
</linearGradient>
<linearGradient id="paint1_linear_6200_1229" x1="29.5592" y1="20.821" x2="24.244" y2="18.0425" gradientUnits="userSpaceOnUse">
<stop stop-color="#025299"/>
<stop offset="1" stop-color="#0879BF"/>
</linearGradient>
<linearGradient id="paint2_linear_6200_1229" x1="29.2931" y1="23.6353" x2="34.4272" y2="21.2797" gradientUnits="userSpaceOnUse">
<stop stop-color="#025299"/>
<stop offset="1" stop-color="#0879BF"/>
</linearGradient>
<linearGradient id="paint3_linear_6200_1229" x1="33.3067" y1="20.3802" x2="29.8383" y2="16.3138" gradientUnits="userSpaceOnUse">
<stop stop-color="#025299"/>
<stop offset="1" stop-color="#0879BF"/>
</linearGradient>
</defs>
</svg>
