<svg width="40" height="40" viewBox="0 0 40 40" fill="none" xmlns="http://www.w3.org/2000/svg">
<path d="M17.874 6.53976C21.0999 6.32429 22.8823 8.70291 23.9045 9.83346L24.5492 10.5316L30.4504 16.8632L26.7851 20.4497L19.9481 13.5578L12.9705 20.8711L19.7371 28.1146L26.8562 20.8012L27.8114 20.7747C29.1523 20.7422 31.5502 20.7028 32.6351 20.8012C33.7188 20.8995 34.0105 21.3061 34.0882 21.5426C33.6523 29.0492 27.5192 35 20.0134 35C12.2245 35 5.91141 28.5923 5.91141 20.688C5.91141 13.5218 11.1009 7.58578 17.874 6.53992V6.53976ZM34.0882 12.8618L31.1124 15.7692L31.0165 15.6442C30.042 14.3814 21.9026 4.02423 18.5688 6.00954L18.4713 6.07202C18.744 5.88191 25.6445 1.24417 34.0882 12.8618Z" fill="#06569F"/>
</svg>
