<svg width="40" height="40" viewBox="0 0 40 40" fill="none" xmlns="http://www.w3.org/2000/svg">
<path d="M20.4988 13.7428C20.8043 13.5705 21.1213 13.414 21.4517 13.2742C22.5989 12.7484 23.8405 12.506 25.13 12.5002C26.4188 12.5062 27.6605 12.7487 28.8549 13.2742C30.0646 13.8065 31.1291 14.5807 32.0969 15.5968L32.1453 15.6936L33.742 15.6936L35.0001 15.6936L34.9033 15.5001C33.7904 13.9517 32.3388 12.6452 30.5969 11.7742C28.8549 10.8065 27.0646 10.3226 25.1775 10.3226C23.2904 10.3226 21.4517 10.7581 19.7098 11.6775C17.9678 12.5968 16.5162 13.8549 15.4033 15.4517L15.3065 15.6452H16.6569C17.0997 15.6452 17.92 15.6452 18.113 15.6452C18.8343 14.9239 19.6363 14.2564 20.4988 13.7428Z" fill="#D3000B"/>
<path d="M21.4515 17.5808V19.5162H23.8709V26.484C23.8709 27.4033 24.016 28.1775 24.5483 28.7098C25.0322 29.2904 25.6612 29.5807 26.4838 29.5807C27.3064 29.5807 28.0322 29.4356 28.6612 29.0485H28.7096V29.0001L29.2418 26.7259L29.0967 26.8227C28.4193 27.2098 27.9354 27.4033 27.3547 27.4033C26.5805 27.4033 26.2902 26.9678 26.2902 26.0485V19.5162H28.7096V17.5808H26.2902V13.7582L23.8709 15.0646V17.5808H21.4515Z" fill="#32357F"/>
<path d="M17.0965 17.5807H19.5159V29.6775H17.0965V17.5807Z" fill="#32357F"/>
<path d="M31.1291 17.5808H33.5484V29.6775H31.1291V17.5808Z" fill="#32357F"/>
<path d="M15.5 19.3811V19.4195L15.5484 19.3227L15.5 19.3811Z" fill="#32357F"/>
<path d="M15.5 19.3227V19.3811L14.1452 21.0162L14.0968 20.9679C13.1774 20.0969 12.2097 19.613 11.1936 19.613C10.129 19.613 9.25807 19.9517 8.53226 20.6775C7.80645 21.4033 7.46774 22.3227 7.46774 23.4356C7.46774 24.5485 7.80645 25.4678 8.53226 26.1937C9.20968 26.9195 10.129 27.3066 11.1936 27.3066C12.2097 27.3066 13.1774 26.8227 14.0968 25.9517L14.1452 25.9033L15.5484 27.5969L15.5 27.6453C14.3871 29.0001 12.9839 29.6775 11.2903 29.6775C9.5 29.6775 8.04839 29.1453 6.8871 28.0808C5.62903 26.9195 5 25.4195 5 23.484C5 21.5485 5.62903 20.0485 6.8871 18.8872C8.04839 17.8227 9.5 17.2904 11.2903 17.2904C12.9839 17.2904 14.3871 17.9679 15.5 19.3227Z" fill="#32357F"/>
</svg>
