<svg width="40" height="40" viewBox="0 0 40 40" fill="none" xmlns="http://www.w3.org/2000/svg">
<path d="M12.0095 15.1743C15.4755 12.9492 19.1177 12.3826 23.0062 13.9051C22.4173 13.9051 21.8281 13.8921 21.2395 13.9072C16.5678 14.0268 12.4713 17.6934 11.8318 22.3219C11.0805 27.7597 14.6449 32.6621 20.064 33.5752C22.2897 33.9503 24.4627 33.6281 26.5675 32.8193C28.666 32.013 30.4676 30.7658 32.0392 29.1716C32.1583 29.0507 32.2709 28.9233 32.3975 28.81C28.9829 33.9803 20.7819 37.1805 13.2898 33.2402C9.83386 31.4371 7.22161 28.3522 6.01269 24.6464C4.80377 20.9407 5.09435 16.9088 6.82218 13.4147C10.5692 5.80737 18.8539 3.70002 24.8269 5.72583C20.152 5.54272 16.1287 6.88847 12.9319 10.3415C14.6721 9.08638 16.6207 8.35151 18.7298 8.00542C20.8257 7.66151 22.8873 7.6935 24.8883 8.47139C19.2202 8.09625 14.9618 10.3854 12.0095 15.1743Z" fill="#E50019"/>
<path d="M32.0083 9.73938C29.0893 9.66164 26.5412 8.81481 24.4025 6.76475C26.6654 5.83862 31.0583 7.55977 32.0083 9.73938Z" fill="#E50019"/>
<path d="M20.045 10.0259C22.283 8.9327 25.9988 10.1944 26.7733 12.2867C25.0916 12.9111 20.8465 11.4931 20.045 10.0259Z" fill="#E50019"/>
<path d="M31.3277 15.5391C29.3284 15.1798 26.7769 11.8411 26.7888 9.63635C27.0387 9.73545 27.2806 9.804 27.4961 9.92117C29.7151 11.1276 30.7844 13.1144 31.3277 15.5391Z" fill="#E50019"/>
<path d="M32.2237 14.6434C32.4186 14.8184 32.5714 14.9191 32.6773 15.0561C34.0872 16.8808 34.759 18.899 34.2452 21.2119C34.1979 21.4249 34.0604 21.6179 33.9648 21.8201C33.8062 21.664 33.6039 21.5333 33.4959 21.3477C32.6713 19.931 32.307 18.3791 32.204 16.7575C32.1682 16.1948 32.1473 15.6309 32.1311 15.0673C32.1279 14.9576 32.1774 14.8464 32.2237 14.6434Z" fill="#E50019"/>
<path d="M34.7232 15.0206C32.9194 14.8189 30.8529 12.4729 30.1094 10.2744C32.1611 10.3925 34.3814 12.6637 34.7232 15.0206Z" fill="#E50019"/>
</svg>
