<svg width="40" height="40" viewBox="0 0 40 40" fill="none" xmlns="http://www.w3.org/2000/svg">
<path d="M5.00018 19.9999C5.00018 11.7793 11.7084 5.10669 20.0002 5.10669C28.2742 5.10669 35.0002 11.7793 35.0002 19.9999C35.0002 28.2206 28.292 34.8932 20.0002 34.8932C11.7262 34.8932 5.00018 28.2206 5.00018 19.9999" fill="#D51B19"/>
<path d="M19.5911 29.2174V30.5341C19.5911 30.801 19.8224 31.0323 20.0893 31.0323H22.4203V25.4807H20.0893C19.8046 25.4807 19.5911 25.712 19.5911 25.9789V27.2067H20.9612C21.2459 27.2067 21.4594 27.438 21.4594 27.7049V28.7014C21.4594 28.9683 21.2281 29.1996 20.9612 29.1996H19.5911V29.2174ZM19.1463 29.2174V30.5341C19.1463 30.801 18.915 31.0323 18.6481 31.0323H16.3171V25.4807H18.6481C18.9328 25.4807 19.1463 25.712 19.1463 25.9789V27.2067H17.7762C17.4915 27.2067 17.2779 27.438 17.2779 27.7049V28.7014C17.2779 28.9683 17.5093 29.1996 17.7762 29.1996H19.1463V29.2174Z" fill="#009944"/>
<path d="M33.4878 18.7369C33.4878 26.8152 26.9575 33.3455 18.9148 33.3455C14.7511 33.3455 10.9967 31.6017 8.34543 28.7903C11.0145 32.1177 15.107 34.253 19.7155 34.253C27.776 34.253 34.2885 27.7049 34.2885 19.6444C34.2885 15.7476 32.7582 12.2067 30.2849 9.57324C32.2778 12.0821 33.4878 15.2672 33.4878 18.7369Z" fill="#F54B49"/>
<path d="M27.1533 16.6552H24.68C24.6978 17.6339 25.1248 18.1677 25.9078 18.1677C26.1569 18.1677 26.4594 18.1321 26.9042 17.7584C26.8686 17.8118 26.8508 17.883 26.8508 17.9542C26.8508 18.0075 26.8686 18.0787 26.8864 18.1143C26.7618 18.2211 26.4416 18.4524 25.7298 18.4524C24.7512 18.4524 24.0572 17.7051 24.0572 16.673C24.0572 15.6588 24.7334 14.9471 25.712 14.9471C26.4416 14.9471 27.1533 15.2851 27.1533 16.6552V16.6552ZM26.6017 16.4061C26.6017 15.6232 26.228 15.1428 25.712 15.1428C25.1604 15.1428 24.7156 15.641 24.7156 16.4061H26.6017ZM25.6408 18.6125C25.8722 18.5947 26.0501 18.7371 26.0679 18.8972C26.0857 19.0574 25.9255 19.2175 25.6942 19.2353C25.4629 19.2531 25.285 19.1108 25.2672 18.9506C25.2494 18.7905 25.4095 18.6303 25.6408 18.6125ZM16.8152 14.7869H16.2814C15.8722 13.399 15.6053 12.367 14.6622 9.66235H15.4629L16.7796 14.0752L18.1142 9.66235H18.5946L20.0537 14.004L21.317 9.66235H21.833C21.1747 11.2816 20.1248 14.7869 20.1248 14.7869H19.591L18.1853 10.5876L16.8152 14.7869V14.7869ZM22.8117 11.673C22.2601 11.673 21.8152 12.189 21.8152 12.9364H23.7013C23.6836 12.1535 23.3277 11.673 22.8117 11.673ZM21.1747 13.2033C21.1747 12.189 21.8508 11.4773 22.8295 11.4773C23.559 11.4773 24.2707 11.8154 24.2707 13.1855H21.7974C21.8152 14.1641 22.2423 14.6979 23.0252 14.6979C23.2921 14.6979 23.6124 14.6446 24.1106 14.2175C24.0928 14.2887 24.0928 14.3421 24.0928 14.5734C23.986 14.6624 23.648 14.9826 22.865 14.9826C21.8686 14.9826 21.1747 14.2353 21.1747 13.2033V13.2033ZM21.2992 16.6908L20.5341 16.851C20.0537 16.9577 19.8223 17.189 19.8401 17.5805C19.8401 17.972 20.0892 18.2567 20.4629 18.2567C20.6942 18.2567 20.9789 18.1321 21.1924 17.9364C21.2814 17.8652 21.317 17.7584 21.317 17.5983L21.2992 16.6908V16.6908ZM19.2529 17.6339C19.2529 17.0823 19.6266 16.8332 20.3384 16.673C21.0501 16.5307 21.1569 16.5129 21.3348 16.3883C21.3348 15.641 21.228 15.3029 20.5163 15.3029C20.1604 15.3029 19.8579 15.4631 19.6266 15.8011H19.5376V15.4275C19.8935 15.1606 20.2672 15.036 20.7298 15.036C21.6551 15.036 21.833 15.5876 21.833 16.157C21.833 18.1321 21.8152 18.2922 22.1711 18.2922H22.2601L22.2779 18.4346C22.0465 18.5058 21.8686 18.4702 21.744 18.4702C21.4949 18.4702 21.3704 18.3456 21.2992 18.0431C21.1391 18.1855 20.8544 18.5236 20.2316 18.5236C19.6088 18.5236 19.2529 18.1855 19.2529 17.6339V17.6339ZM23.8081 15.5876C23.4522 15.5876 23.0608 15.7122 23.0608 17.278C23.0608 17.5983 23.0786 17.9542 23.1142 18.4702C22.8295 18.4346 22.5626 18.4524 22.5448 18.4524C22.5803 17.6517 22.6515 16.5129 22.5448 15.036C22.6515 15.0538 22.7583 15.0716 22.865 15.0716C22.954 15.0716 23.043 15.0716 23.1319 15.0538C23.1319 15.214 23.1142 15.4809 23.0964 15.8901C23.4166 15.2495 23.648 15.0716 24.0572 15.0716C24.1284 15.0716 24.1996 15.0716 24.2707 15.0894C24.2529 15.3207 24.2352 15.4097 24.2352 15.641L24.1818 15.6766C24.0038 15.6054 23.9149 15.5876 23.8081 15.5876V15.5876ZM13.3277 23.0075L13.3455 22.9898L13.3277 22.9364C13.0964 20.4275 10.0181 17.4915 7.91843 18.8083C6.92199 19.431 6.29921 21.3883 7.27786 22.4915C9.05722 24.431 12.2423 23.8794 13.3277 23.0075ZM16.2814 18.6659C16.1391 19.0574 15.9433 19.7157 15.6053 20.4809C15.2672 21.246 14.769 22.0823 14.0572 22.8118C12.0643 24.8581 8.48783 24.6801 6.95758 23.2033C6.22804 22.5093 5.46292 20.6588 7.47359 18.9506C10.0715 16.7442 13.4166 19.4844 13.5234 22.7229V22.883L13.6302 22.7584C14.1996 22.0823 14.6444 21.1748 14.9469 20.3563C15.2494 19.5556 15.4451 18.8616 15.5341 18.6303L15.5697 18.5591H15.4807C15.2316 18.5414 14.4131 18.5591 13.648 18.5591C13.2565 18.5591 12.8828 18.5769 12.5981 18.5769H12.0999C12.1355 18.488 12.349 18.2211 12.4024 18.1321C12.7049 18.1321 15.3739 18.0965 15.6764 18.0609H15.712L15.7298 18.0253C15.8366 17.8118 15.9789 17.278 16.2814 16.7086C16.5839 16.1392 17.0287 15.5164 17.7405 15.0894C17.9006 15.0004 18.2031 14.8403 18.5056 14.7335C18.648 14.6801 18.7903 14.6446 18.9149 14.6268C19.0394 14.609 19.0928 14.6268 19.1106 14.6624C19.1284 14.6801 19.1284 14.6979 19.1106 14.7691C19.0928 14.8403 19.0572 14.9115 19.0038 15.0182C18.9149 15.1962 18.8081 15.4097 18.7191 15.6054C18.7013 15.5876 18.7013 15.5698 18.6836 15.5342C18.6658 15.4809 18.6302 15.4097 18.5768 15.3563C18.4522 15.2317 18.2387 15.1784 17.8828 15.3207C17.3668 15.5342 17.0287 16.1926 16.8152 16.7798C16.6017 17.367 16.4949 17.9898 16.4949 17.9898C16.4949 17.9898 17.2601 17.9898 17.6515 17.972C17.6871 17.972 17.7227 17.972 17.7583 17.9542C17.7939 17.9542 17.8117 17.9364 17.8295 17.9364C17.865 17.9186 17.8828 17.9186 17.9184 17.9364C17.9362 17.9364 17.954 17.9542 17.954 18.0431C17.954 18.1143 17.9362 18.2211 17.9184 18.3456C17.865 18.5769 17.7939 18.8972 17.7405 19.2353C17.7227 19.2353 17.7049 19.2175 17.7049 19.1997C17.5448 18.8616 17.3312 18.7193 17.0999 18.6481C16.9754 18.6125 16.8508 18.5947 16.7263 18.5947C16.6017 18.5947 16.4771 18.5947 16.3704 18.5769H16.317L16.2814 18.6659V18.6659ZM17.5626 23.1677C17.5804 23.1855 17.6337 23.1677 17.6337 23.1677C17.7405 23.1321 17.9006 23.0787 18.0252 23.0431C17.9006 23.1321 17.7049 23.2745 17.4914 23.4168C17.1533 23.6659 16.9576 23.8083 16.833 23.915H16.7618C16.7441 23.915 16.7263 23.8972 16.7085 23.8972C16.7085 23.7727 16.8864 22.9364 17.0821 22.5983L16.9932 22.5271C16.9042 22.6161 16.7796 22.7584 16.6195 22.9186C16.4594 23.0787 16.2814 23.2389 16.0857 23.3812C15.6942 23.6837 15.2494 23.8794 14.8935 23.7549C14.4487 23.5947 14.8223 21.762 17.011 20.5876C17.5804 20.2851 18.3099 19.9826 19.1996 20.036C19.2174 20.1784 19.1818 20.3919 19.1818 20.3919L19.164 20.4631L19.1106 20.5164C19.1106 20.5164 19.0572 20.5698 19.0038 20.6054C18.7903 20.3563 17.6159 20.4631 17.0643 20.7478C16.2102 21.2104 14.9469 22.6517 15.6053 23.1499C16.0857 23.5236 17.4914 21.8688 17.6337 20.8367L17.8473 20.7833C17.865 20.9791 17.7761 21.2638 17.6515 21.5129C17.527 21.7976 17.3846 22.0289 17.3668 22.0467L17.4558 22.1357C17.5092 22.1001 17.4914 22.1357 17.6515 22.0645C17.7227 22.0289 17.7939 21.9933 17.865 21.9755C17.9006 21.9755 17.9184 21.9577 17.9362 21.9577C17.9362 21.9933 17.9184 22.0467 17.9184 22.1001C17.9006 22.2424 17.865 22.3314 17.8117 22.4737C17.7405 22.7051 17.6871 22.8118 17.5981 23.0431C17.5448 23.1143 17.5448 23.1499 17.5626 23.1677V23.1677ZM23.0252 23.1321L23.1319 23.0965C23.2743 23.0431 23.4522 23.0253 23.5056 23.0253C23.4522 23.0787 23.3455 23.1321 23.2387 23.2033C23.0252 23.3456 22.7405 23.5236 22.5092 23.7193C22.4024 23.8083 22.2423 23.8794 22.1711 23.8616C22.1533 23.8438 22.1355 23.8261 22.1355 23.7905C22.1355 23.7193 22.1533 23.6125 22.2067 23.4702C22.2957 23.1855 22.4558 22.8118 22.6337 22.4204C22.8117 22.0289 22.9718 21.6374 23.0964 21.3172C23.1497 21.157 23.2031 21.0147 23.2209 20.8901C23.2387 20.7833 23.2565 20.6766 23.2031 20.6054C23.1675 20.552 23.0964 20.552 23.0608 20.5698C23.0074 20.5876 22.954 20.6054 22.9006 20.641C22.7939 20.7122 22.6515 20.8011 22.5092 20.9079C22.2423 21.1214 21.9754 21.3527 21.9754 21.3527C21.9754 21.3527 21.7974 21.7798 21.6195 22.2424C21.4594 22.6695 21.2814 23.1321 21.228 23.3278C20.9433 23.4702 20.7298 23.5947 20.5697 23.6837C20.4807 23.7371 20.4273 23.7727 20.3562 23.7905C20.3028 23.8261 20.2494 23.8438 20.2138 23.8616C20.1782 23.8794 20.1426 23.8794 20.1248 23.8794C20.2316 23.6837 20.5341 23.0787 20.8188 22.4559C20.9967 22.0823 21.1569 21.6908 21.2814 21.4061C21.3348 21.2638 21.3882 21.1214 21.406 21.0325C21.4238 20.9791 21.4238 20.9435 21.4238 20.9079C21.4238 20.8723 21.4238 20.8367 21.3882 20.8011C21.2102 20.6766 20.5341 21.0858 20.2138 21.4417C19.9647 21.8688 19.5554 22.6161 19.3241 23.399C19.2885 23.5058 18.5412 23.8972 18.3989 23.8438C18.3277 23.8261 18.3277 23.7549 18.3811 23.7015C18.986 23.1677 19.6444 21.3172 19.8045 20.6944C19.8223 20.6588 19.7868 20.6232 19.769 20.6054C19.7512 20.5876 19.7334 20.5698 19.6978 20.5698C19.6444 20.552 19.591 20.5342 19.5199 20.5342C19.4131 20.5164 19.2885 20.5342 19.1996 20.5876C19.1818 20.552 19.1284 20.4809 19.1284 20.4631C19.164 20.4631 19.4131 20.4275 19.6444 20.3563C19.8935 20.2851 20.196 20.1428 20.4273 19.9115C20.4451 19.8937 20.4985 19.8581 20.5341 19.8403C20.5697 19.8225 20.6053 19.8225 20.6053 19.8225C20.6053 19.8581 20.6053 19.8937 20.5875 19.947C20.5697 20.036 20.5519 20.1606 20.5163 20.3029C20.4629 20.5698 20.3739 20.8367 20.3206 20.9079L20.4095 20.9791C20.7298 20.641 21.8508 20.0004 22.0287 20.1072C22.1355 20.1606 22.1711 20.3029 22.1533 20.4631C22.1533 20.552 22.1355 20.6232 22.1177 20.6944C22.0999 20.7656 22.0821 20.8367 22.0643 20.8723L22.011 21.0503L22.1533 20.9257C22.438 20.6944 22.8117 20.4453 23.1319 20.2851C23.2921 20.1962 23.4344 20.1428 23.559 20.1072C23.6836 20.0716 23.7547 20.0894 23.7725 20.1072C23.9149 20.2317 23.7903 20.7833 23.5768 21.4417C23.3633 22.0823 23.0786 22.7406 22.9896 23.0253L23.0252 23.1321V23.1321ZM27.0287 19.3421C27.2067 18.915 27.3312 18.5947 27.3668 18.5236C27.4202 18.4346 27.3668 18.3634 27.2957 18.3278C27.2245 18.2922 27.1533 18.2922 27.0643 18.2745H26.7618V18.2389C26.8508 18.2211 27.0465 18.1855 27.2601 18.1321C27.5448 18.0609 27.865 17.9542 28.0608 17.794H28.4166C28.2743 18.0965 27.7939 19.1819 27.3312 20.2317C26.7974 21.4595 26.2458 22.7762 26.3348 22.9364L26.3526 22.9898C26.3526 23.0075 26.3704 23.0253 26.3882 23.0431C26.4238 23.0787 26.4594 23.0965 26.5127 23.0787C26.6195 23.0787 26.7085 23.0075 26.7796 22.9364C26.8152 22.9008 26.8508 22.8652 26.8864 22.8474C26.922 22.8296 26.9398 22.8118 26.9576 22.794H26.9932C26.9754 22.8296 26.9576 22.8474 26.9398 22.8652C26.8508 23.0075 25.9789 23.7193 25.6408 23.7549C25.4629 23.7727 25.4095 23.7371 25.3917 23.7015C25.3739 23.6837 25.3739 23.6659 25.3561 23.6303C25.3384 23.5947 25.3384 23.5591 25.3384 23.5414C25.3384 23.5236 25.8188 22.2958 26.3526 21.0147L27.0287 19.3421V19.3421ZM29.1996 23.5591L29.2707 23.399L29.1106 23.4702C28.8615 23.5947 28.5056 23.7015 28.0964 23.8083C27.6871 23.915 27.2245 24.0396 26.7618 24.1819C25.8544 24.4666 24.9469 24.8403 24.5198 25.4631C23.9682 26.2816 24.2529 27.2958 25.4807 27.0823C26.6195 26.9221 28.5234 25.036 29.1996 23.5591V23.5591ZM32.5092 16.1926C33.1675 16.4417 34.2529 17.6517 34.2707 18.6125C34.2885 20.6944 32.3312 22.4737 29.68 23.2745H29.6444L29.6266 23.31C28.3099 26.4773 25.7654 28.2389 24.3241 27.9008C23.2565 27.6517 23.3989 26.0325 24.2529 25.1962C24.8579 24.609 25.6053 24.3065 26.4771 24.0396C27.349 23.7727 28.3455 23.5236 29.3953 23.0431L29.4131 23.0253V23.0075C29.4665 22.883 29.68 22.3492 29.8401 21.8154C29.9291 21.5485 30.0003 21.2816 30.0181 21.0858C30.0359 20.9791 30.0359 20.8901 30.0181 20.8011C30.0003 20.73 29.9825 20.6588 29.9113 20.6232C29.5554 20.4275 28.043 22.278 27.3134 23.5058C27.2956 23.4702 27.2779 23.4524 27.2779 23.4346C27.5981 22.7229 28.0786 20.9257 27.7405 20.6054C27.7049 20.5698 27.6515 20.5698 27.6337 20.5698C27.5981 20.5698 27.5626 20.5876 27.527 20.6232C27.4736 20.6588 27.438 20.6944 27.4024 20.7122L27.349 20.6766C27.5803 20.4987 28.2743 19.9648 28.4522 20.0894C28.4878 20.125 28.5234 20.1962 28.5234 20.3207C28.5234 20.4453 28.5056 20.6054 28.4878 20.7656C28.4344 21.0858 28.3455 21.4239 28.3099 21.5307L28.4166 21.5841C28.9327 20.6944 30.1248 19.7869 30.3561 19.7869C30.4629 19.7869 30.6586 20.036 30.6942 20.1428C30.7654 20.4097 30.5875 20.9791 30.3561 21.5307C30.1248 22.0823 29.8757 22.5983 29.8223 22.7406L29.769 22.8652L29.8935 22.8296C31.2102 22.4559 34.0572 20.7656 34.0394 18.6481C34.075 17.5093 33.1675 16.5841 32.5092 16.1926V16.1926ZM24.1818 20.6944C24.1462 20.6944 24.075 20.6588 24.0928 20.6054C24.164 20.5698 24.3597 20.4987 24.5376 20.4453L24.8223 20.3563C24.9113 20.3207 24.9825 20.3029 25.0003 20.2851C25.0715 20.2495 25.196 20.1784 25.3384 20.1072C25.4807 20.036 25.6231 20.0182 25.712 20.0538C25.712 20.0538 25.712 20.0716 25.7298 20.0716V20.1784C25.712 20.2673 25.6764 20.3919 25.6231 20.5342C25.5163 20.8367 25.3384 21.2104 25.1604 21.6019C24.9825 21.9933 24.8045 22.3848 24.6978 22.6873C24.6444 22.8474 24.6088 22.972 24.591 23.0787C24.591 23.1321 24.5732 23.1855 24.591 23.2211C24.591 23.2567 24.6266 23.31 24.6622 23.3278C24.8401 23.4168 25.0003 23.3456 25.1248 23.2745C25.1604 23.2567 25.1782 23.2389 25.196 23.2389C25.2138 23.2211 25.2494 23.2211 25.2672 23.2033H25.3206C25.285 23.2389 25.2494 23.2567 25.1782 23.2922C25.0537 23.3634 24.8579 23.4524 24.6622 23.5236C24.2352 23.6837 23.8259 23.7727 23.7369 23.7371C23.4878 23.6303 24.8757 20.7122 24.8935 20.641L24.9469 20.5342L24.1818 20.6944V20.6944Z" fill="#FEFEFE"/>
</svg>
