<svg width="40" height="40" viewBox="0 0 40 40" fill="none" xmlns="http://www.w3.org/2000/svg">
<path d="M22.236 19.9383V20.1144C22.236 21.382 24.824 24.0052 25.5811 24.9031C26.162 25.5897 26.9191 26.4172 27.412 27.1038C27.9402 27.8257 28.8205 28.6355 29.2959 29.3221C29.0846 29.2693 25.3874 26.0651 24.8416 25.6426C23.8381 24.8503 21.4085 22.3327 20.0177 22.3327H19.736C18.9085 22.3327 17.6937 23.3538 17.2184 23.794C16.5318 24.4454 15.6867 24.9912 15.0353 25.6426C14.5599 26.1179 13.398 27.0686 12.8346 27.4912C12.0951 28.0369 11.3381 28.8644 10.6339 29.3397C10.6867 29.1461 13.8909 25.4489 14.3135 24.8855C15.1409 23.8468 17.6233 21.5052 17.6233 20.0088V19.9559C17.6233 19.0052 16.7078 17.9137 16.2149 17.3855C15.5635 16.6813 15.0177 15.889 14.3663 15.2024C13.7149 14.5158 13.1691 13.6883 12.5177 13.0193C12.0951 12.5792 11.0036 11.294 10.6867 10.8186C10.986 10.9066 14.4191 13.97 15.0353 14.4454C16.0564 15.2024 18.4508 17.7024 19.7888 17.7024H20.1937C21.2853 17.7024 24.0846 15.0792 24.8944 14.3926C25.3698 13.9876 29.1198 10.7482 29.2959 10.713C28.8205 11.4172 27.993 12.1743 27.4473 12.9137C26.9719 13.5475 26.1268 14.5686 25.5811 15.1496C24.9297 15.8538 24.3487 16.6461 23.6973 17.3679C23.2043 17.8609 22.236 18.9524 22.236 19.9383V19.9383ZM8.59163 7.42073V7.87848C8.59163 8.35383 8.78529 8.60031 8.87332 8.95242C8.5212 8.77637 8.08106 8.61792 7.5705 8.61792C6.37332 8.61792 5.00008 9.77989 5.00008 10.8362V11.47C5.00008 11.9454 6.17965 14.2165 6.42613 14.9559C6.81346 16.1003 7.23599 17.5264 7.23599 19.0405V20.625C7.23599 22.2271 6.9367 23.8116 6.47895 24.9912C6.17965 25.7482 5.01768 28.0721 5.01768 28.7059V29.0405C5.01768 30.1144 6.28529 31.382 7.30641 31.382H7.76416C8.27472 31.382 8.53881 31.1355 8.90853 31.1003C8.80289 31.4876 8.62684 31.6285 8.62684 32.2447V32.8081C8.62684 33.882 10.0001 34.9736 11.2501 34.9736C11.9719 34.9736 13.9261 33.8996 14.736 33.6003C15.8275 33.213 17.2712 32.7552 18.7325 32.7552H21.3557C22.7113 32.7552 24.3311 33.2482 25.3346 33.6179C26.1444 33.9172 28.0106 34.9736 28.8205 34.9736C30.1761 34.9736 31.4437 33.7588 31.4437 32.4735V32.2975C31.4437 31.8221 31.1973 31.4348 31.1092 31.0475C31.3557 31.2236 31.8839 31.382 32.3064 31.382H32.7113C33.6268 31.382 35.0001 30.132 35.0001 29.2693V28.7059C35.0001 28.0369 33.8205 25.6954 33.5212 24.8855C33.0282 23.4771 32.7642 22.1919 32.7642 20.2905V19.0405C32.7642 17.8961 33.2043 15.713 33.5564 14.9383C33.8205 14.3574 34.0142 13.794 34.2959 13.2306C34.5071 12.8257 34.9825 11.9454 34.9825 11.4172V10.9066C34.9825 9.83271 33.662 8.63552 32.5353 8.63552C31.9719 8.63552 31.4966 8.79397 31.1092 8.97003C31.162 8.74116 31.4437 8.10735 31.4437 7.89609V7.56158C31.4437 6.3644 30.1585 5.06158 28.9966 5.06158H28.7677C28.2219 5.06158 25.8628 6.22355 25.1233 6.48763C24.0318 6.89256 22.3944 7.3327 20.898 7.3327H19.1902C18.0106 7.3327 15.6691 6.89256 14.8944 6.50524C14.3135 6.20594 11.655 5.02637 11.162 5.02637H11.0564C9.85923 5.02637 8.59163 6.24116 8.59163 7.42073" fill="#E30016"/>
</svg>
