<svg width="40" height="40" viewBox="0 0 40 40" fill="none" xmlns="http://www.w3.org/2000/svg">
<path d="M19.9847 9.40991C10.9512 9.40991 5 14.1708 5 19.9999C5 25.829 10.9512 30.59 19.9847 30.59C29.0183 30.59 35 25.829 35 19.9999C35 14.1708 29.0488 9.40991 19.9847 9.40991Z" fill="white"/>
<path d="M22.6704 23.937C25.234 23.4792 33.9318 21.7091 32.8942 16.7345C32.5279 14.9339 30.6968 12.9807 27.9196 11.6379C25.4144 10.5608 22.7115 10.0202 19.9847 10.0509C11.592 10.0509 5.73242 14.4762 5.73242 19.939C5.73242 23.7539 8.57067 27.0499 13.0875 28.7284C14.0946 26.2259 17.94 24.761 22.6704 23.937" fill="#0075BF"/>
<path d="M10.4327 15.5137C10.5853 15.5137 11.0736 15.4832 11.4398 15.4832C13.6066 15.4832 14.5832 16.5513 14.5832 18.7792C14.5832 21.0986 13.6982 22.1973 11.8671 22.1973C10.5242 22.1973 10.4021 22.1058 10.4021 21.3428V15.5137H10.4327ZM11.8976 14.8423H9.08984L9.12036 14.9338C9.23187 15.3722 9.27308 15.8254 9.24244 16.2767V22.7772H9.27296C9.27296 22.7772 10.5242 22.8077 11.745 22.8077C14.278 22.8077 15.9261 21.0986 15.9261 18.5656C15.9566 16.3072 14.3391 14.8423 11.8976 14.8423Z" fill="white"/>
<path d="M23.4943 22.6856C23.4638 22.2278 23.4638 21.9227 23.4638 21.6175V18.8403H22.1209L22.1515 18.9318C22.2457 19.2064 22.2871 19.4963 22.2735 19.7863C22.2735 19.8169 22.2735 21.709 22.243 22.1363C21.9133 22.2168 21.5753 22.2578 21.2359 22.2584C19.1301 22.2584 18.0314 21.0376 18.0314 18.6266C18.0314 16.7955 19.2522 15.4221 20.9612 15.3001C21.7963 15.2216 22.6315 15.4494 23.3112 15.941L23.4027 16.0325V14.9033H23.3722C22.7709 14.7686 22.1572 14.697 21.5411 14.6897C18.4892 14.6897 16.6581 16.2767 16.6581 18.9929C16.6581 21.8311 18.8859 22.8993 20.9612 22.8993C21.8463 22.8993 22.7618 22.8077 23.4943 22.7467H23.5248L23.4943 22.6856" fill="white"/>
<path d="M26.0574 15.4527H26.8204C28.0412 15.4527 28.56 15.8189 28.56 16.7039C28.56 17.7111 27.9191 18.1688 26.5152 18.1688H26.0269V15.4527H26.0574ZM26.0574 18.7792H26.6678C28.1022 18.7792 28.8346 19.3591 28.8346 20.4578C28.8346 21.648 28.2243 22.1973 26.912 22.1973C26.3016 22.1973 26.0574 21.9532 26.0574 21.3733V18.7792ZM28.2548 18.413C28.6734 18.309 29.0463 18.0706 29.3164 17.7343C29.5865 17.3981 29.7389 16.9825 29.7502 16.5513C29.7502 15.4832 28.7736 14.8423 27.1561 14.8423H24.7451V14.9338C24.8176 15.285 24.8484 15.6436 24.8367 16.002V22.8687H26.973C29.0178 22.8687 30.147 21.9837 30.147 20.4578C30.208 19.4201 29.4145 18.6571 28.2548 18.413Z" fill="white"/>
<path d="M13.4238 28.8957C14.5225 27.4004 16.2621 26.2101 20.0159 25.7218C20.4389 25.6717 20.9203 25.6245 21.4437 25.5731C26.0184 25.124 33.8144 24.3588 34.1156 18.5804C34.1964 19.0178 34.2374 19.4614 34.2383 19.9061C34.2383 19.9155 34.2383 19.9247 34.2383 19.9341C34.2383 19.9611 34.238 19.9879 34.2377 20.0149C34.2377 25.4777 28.3781 29.903 19.9854 29.903C17.7583 29.9222 15.5426 29.5821 13.4238 28.8957Z" fill="url(#paint0_linear_6200_929)"/>
<defs>
<linearGradient id="paint0_linear_6200_929" x1="11.9777" y1="24.6377" x2="33.3397" y2="24.6377" gradientUnits="userSpaceOnUse">
<stop stop-color="#0075BF"/>
<stop offset="0.1" stop-color="#0075BF"/>
<stop offset="0.18" stop-color="#0078C1"/>
<stop offset="0.29" stop-color="#0080C8"/>
<stop offset="0.4" stop-color="#008BD2"/>
<stop offset="0.74" stop-color="#00AA98"/>
<stop offset="0.75" stop-color="#00AB96"/>
<stop offset="1" stop-color="#76B82A"/>
</linearGradient>
</defs>
</svg>
