<svg width="40" height="40" viewBox="0 0 40 40" fill="none" xmlns="http://www.w3.org/2000/svg">
<path fill-rule="evenodd" clip-rule="evenodd" d="M33.9724 29.7256C33.9724 29.7256 35.8346 22.6397 31.7863 14.6368C27.8189 6.71734 22.5561 4.63326 20.37 5.05008C19.5603 5.71698 18.7507 6.46725 17.5362 8.30124C18.2649 8.21788 22.3942 7.38424 26.1186 12.386C24.6612 11.6358 20.6129 9.13487 15.2691 12.0526C14.8643 13.1363 14.0546 14.6368 13.9736 16.1374C14.9452 15.0537 21.0177 12.2193 28.0618 18.4715C32.0292 22.3896 33.1627 26.4744 33.9724 29.7256Z" fill="url(#paint0_linear_6200_589)"/>
<path fill-rule="evenodd" clip-rule="evenodd" d="M20.3691 5.049C20.3691 5.049 13.5679 7.04971 8.95277 14.7191C4.41864 22.3052 5.30927 28.0572 6.84764 29.8079C7.81924 30.1413 8.87181 30.4748 11.0579 30.6415C10.5721 29.9746 7.73827 26.8068 10.0053 20.9714C10.1673 22.6386 10.1673 27.3903 15.3491 30.7249C16.4017 30.5581 18.102 30.4748 19.3975 29.7245C18.021 29.391 12.5153 25.5563 14.1346 16.0529C15.2682 10.4676 18.102 7.46653 20.3691 5.049Z" fill="url(#paint1_linear_6200_589)"/>
<path fill-rule="evenodd" clip-rule="evenodd" d="M6.6026 29.558C6.6026 29.558 11.6225 34.6431 20.3669 34.9766C28.9494 35.31 33.2406 31.9755 33.9693 29.8081C33.8074 28.8077 33.5645 27.4739 32.6739 25.4732C32.35 26.2235 31.1355 30.2249 25.063 31.0585C26.4394 30.1415 30.4068 27.724 30.5687 21.5551C29.921 20.6381 28.9494 19.2209 27.7349 18.3873C28.1397 19.8045 27.573 26.6403 18.9095 29.8081C13.7277 31.392 9.7603 30.3916 6.6026 29.558Z" fill="url(#paint2_linear_6200_589)"/>
<defs>
<linearGradient id="paint0_linear_6200_589" x1="16.7459" y1="8.81551" x2="38.6655" y2="26.8091" gradientUnits="userSpaceOnUse">
<stop stop-color="#F5971E"/>
<stop offset="1" stop-color="#FDD19D"/>
</linearGradient>
<linearGradient id="paint1_linear_6200_589" x1="11.8797" y1="31.0332" x2="16.5935" y2="2.59257" gradientUnits="userSpaceOnUse">
<stop stop-color="#F5971E"/>
<stop offset="1" stop-color="#FDD19D"/>
</linearGradient>
<linearGradient id="paint2_linear_6200_589" x1="32.5265" y1="24.4293" x2="6.37715" y2="33.9087" gradientUnits="userSpaceOnUse">
<stop stop-color="#F5971E"/>
<stop offset="1" stop-color="#FDD19D"/>
</linearGradient>
</defs>
</svg>
