<svg width="40" height="40" viewBox="0 0 40 40" fill="none" xmlns="http://www.w3.org/2000/svg">
<ellipse cx="20" cy="20" rx="14.0612" ry="14.0612" fill="white"/>
<path d="M33.993 14.5646C36.2337 20.2458 34.6458 26.9503 30.1115 30.9553C26.1946 34.5017 20.3899 35.7897 15.2027 34.0606C9.39803 32.1375 5.32239 26.8797 5.02245 20.7398C4.70487 14.9351 7.75719 9.69497 12.8385 6.92495C17.4964 4.26079 24.4832 4.68423 28.7353 7.91299C31.0818 9.5009 32.9344 11.9886 33.993 14.5646ZM19.3489 12.2003C18.4844 11.9533 17.567 11.7945 16.6318 11.7063C16.2613 11.7945 16.032 12.2003 15.8555 12.4474C15.2909 13.2237 15.0439 14.1764 14.3911 14.9351C14.1971 15.2703 13.7383 15.1115 13.4913 15.3585C12.9267 15.3585 12.4327 15.535 11.9563 15.8173C11.921 15.8702 11.9034 15.976 11.7975 15.9408C11.674 16.1878 11.48 16.3995 11.3035 16.6465C10.8272 17.264 9.96262 17.4405 9.30981 17.811C8.49821 18.2697 7.68661 18.7108 7.03381 19.3989L7.06909 19.4342C6.73387 19.9282 6.22221 20.1928 5.88698 20.6692C6.22221 20.581 6.16928 20.1752 6.57508 20.2458C6.66329 20.4928 6.36336 20.581 6.32807 20.7398C6.45157 20.6869 6.61036 20.581 6.73387 20.6163C6.66329 20.7927 6.52215 20.8986 6.36336 21.0221C6.52215 20.9691 6.48686 21.1103 6.55743 21.1456C6.71622 21.1809 6.96323 20.8986 7.17495 21.0221C6.98088 21.1985 6.76915 21.4279 6.64565 21.5161V21.5514C6.76915 21.5514 6.85737 21.5514 6.92795 21.4632C7.13967 21.4279 7.33375 21.1279 7.52782 21.0927L7.1926 21.5514L7.56311 21.2691C7.65133 21.3926 7.35139 21.4808 7.51018 21.6043C7.79248 21.4808 7.84541 21.1985 8.11006 21.075C8.07477 21.322 7.79248 21.4985 7.66897 21.7278C7.79248 21.6043 8.16299 21.5161 8.11006 21.2691C8.35707 21.0221 8.67465 20.8456 8.85108 20.5281C9.53918 19.787 10.0332 19.0284 11.0565 18.8166C11.0918 18.8519 10.9859 18.8696 11.0565 18.8519C11.6211 18.3932 12.4856 18.3932 13.0149 17.8463C13.1032 17.7228 13.2619 17.4757 13.4737 17.5463V17.4934C13.509 17.3699 13.6325 17.2817 13.7913 17.2993L13.8265 17.4228C14.2676 16.9288 15.0087 17.1229 15.3439 16.6465V16.7171C15.8379 16.5583 16.1908 16.0996 16.4731 15.729C16.6671 15.4467 16.7906 15.1468 17.0376 14.9527C17.1964 14.7057 17.2847 14.4058 17.5317 14.1941C17.814 14.1588 18.1845 14.1235 18.4668 14.2293C18.8373 14.7234 19.4901 14.4411 20.0547 14.4764C20.09 14.7586 20.3723 14.4764 20.3899 14.7586C20.8486 14.9704 21.0074 15.6408 21.4132 16.0113C21.1662 16.1701 20.8486 16.4171 20.7957 16.7524C20.3899 16.8053 20.7604 17.2464 20.3546 17.2817C20.4781 17.1229 20.7251 17.1229 20.8486 17.2817L20.7604 17.3699C20.284 17.5816 19.8253 17.8992 19.3666 18.1638L19.4372 18.2344C19.3137 18.3226 19.1902 18.4814 19.0843 18.5343H19.1725C19.2607 18.5696 19.2431 18.6931 19.2431 18.6579C19.4019 18.6579 19.5607 18.4461 19.6842 18.5696C19.7195 18.6049 19.6489 18.6226 19.6489 18.6579C19.8077 18.4461 19.9841 18.6931 20.09 18.6931C19.8782 18.8696 19.596 19.0989 19.3489 19.2754H19.5959C19.5077 19.5577 19.1549 19.4518 18.9961 19.6988C19.1902 19.6988 19.049 19.9105 18.9961 19.9458C19.1196 19.9105 19.2431 19.7694 19.4019 19.8576C19.3137 20.0693 19.0314 20.1046 18.9961 20.3516C19.2078 20.2281 19.3313 19.8576 19.6136 19.9811C19.6489 20.0693 19.4372 20.1046 19.5254 20.2634C19.6489 20.2281 19.7371 20.087 19.8959 20.1399C19.9665 20.1399 20.0194 20.1928 19.9841 20.2634C20.1076 20.1046 20.3546 20.2634 20.4781 20.1399C20.9192 19.5577 21.7485 19.6459 22.3836 19.3636L22.3483 19.2048C22.4365 18.8343 23.0011 18.9225 23.3187 18.799C23.4069 18.4285 23.9186 18.7108 24.0597 18.3756C24.2538 18.2168 24.395 18.4285 24.589 18.4285C24.8361 18.305 25.1889 18.3403 25.4006 18.2168C26.0005 18.0933 26.4945 18.799 26.8298 19.1342C27.6061 20.0517 28.7706 20.7221 29.7233 21.1809C29.194 20.8104 28.6294 20.5633 28.1001 20.1752C28.1354 20.087 28.2236 20.1223 28.2942 20.1223C28.7529 20.4575 29.2293 20.7045 29.688 21.0044C30.6584 21.7631 31.8405 22.4159 32.8991 22.8394L32.7403 22.7158C32.7756 22.6806 32.705 22.6276 32.7756 22.5923L32.9873 22.7158C33.0226 22.5923 33.1814 22.5923 33.2696 22.5571C33.1108 22.2748 32.705 22.1865 32.4227 22.0278C31.6111 21.569 30.6231 21.075 29.8997 20.4046L29.935 20.3693C30.8348 20.9162 31.7699 21.5337 32.7933 21.9572C32.952 22.2571 33.1991 22.0807 33.4461 22.1689C33.3755 22.1336 33.252 22.1336 33.252 22.0454H33.746C33.6578 21.7455 33.1814 21.869 33.005 21.5867C33.1991 21.5337 33.4461 21.622 33.6225 21.7102V21.6749C33.5343 21.622 33.3049 21.622 33.3755 21.4279C31.9464 20.8986 30.6584 20.0164 29.4586 19.1166C28.453 18.5696 27.9237 17.2464 26.8121 16.8759C26.6357 16.6289 26.5651 16.3818 26.4063 16.1172L26.2828 16.1878C26.0711 15.9408 26.0358 15.6408 25.877 15.3938C25.7182 15.1821 25.4006 15.1115 25.1889 15.1115C24.8537 15.3056 24.3244 14.988 24.095 15.1821L24.2891 15.2703C24.2185 15.3585 24.1656 15.4644 24.0068 15.4291C23.3187 14.9351 22.7365 14.1941 22.2072 13.5589C22.4895 12.7826 21.4662 12.6061 21.078 12.0592C20.5487 11.6358 19.8782 12.0416 19.3489 12.2003Z" fill="#009D96"/>
</svg>
