<svg width="40" height="40" viewBox="0 0 40 40" fill="none" xmlns="http://www.w3.org/2000/svg">
<path d="M19.1201 34.9076C19.1411 34.9088 20.8795 34.9143 20.8795 34.9143V5.08333C20.8618 5.0822 19.1201 5.07204 19.1201 5.07204V34.9076Z" fill="url(#paint0_linear_6200_544)"/>
<path d="M19.1852 4.99954L19.1201 5.0061V8.09345C19.2093 7.70292 19.4393 7.35895 19.7661 7.12724C20.0929 6.89552 20.4936 6.79229 20.8917 6.83726C23.7588 7.02816 26.4853 8.14976 28.6568 10.0316C30.8284 11.9135 32.3263 14.4528 32.9229 17.2637C32.9636 17.4784 32.9895 17.6956 33.0002 17.9138C32.9976 18.5484 32.7719 19.162 32.3624 19.6469C31.9529 20.1319 31.3858 20.4573 30.7606 20.5662C34.6403 20.426 34.7906 17.7759 34.7596 17.2771C34.1473 13.9693 32.4405 10.9635 29.9136 8.74296C27.3868 6.52237 24.1866 5.21597 20.8276 5.03379L20.0053 4.99988L19.1852 4.99954Z" fill="url(#paint1_radial_6200_544)"/>
<path d="M30.4586 20.4868H21.8644V34.8173C25.3952 34.3749 28.6537 32.6916 31.0576 30.068C33.4615 27.4444 34.8543 24.0515 34.987 20.4956V20.4868C34.9935 20.306 35.0002 20.1251 35.0002 19.9437C34.9991 19.027 34.9149 18.1123 34.7485 17.2108C34.7485 17.2108 34.8645 20.4868 30.4582 20.4868" fill="url(#paint2_radial_6200_544)"/>
<path d="M5.24097 22.723C5.85342 26.0308 7.56021 29.0366 10.087 31.2573C12.6139 33.478 15.814 34.7847 19.173 34.9673L19.9953 35.0004H20.8154L20.8794 34.9939V31.9065C20.7902 32.2971 20.5603 32.6412 20.2335 32.8729C19.9067 33.1046 19.506 33.2078 19.1079 33.1627C16.2408 32.9717 13.5143 31.85 11.3428 29.9682C9.17127 28.0863 7.67332 25.5471 7.07653 22.7363C7.03645 22.5215 7.01066 22.3044 6.99933 22.0862C7.00209 21.4514 7.22808 20.8378 7.63773 20.3529C8.04739 19.868 8.61461 19.5426 9.24002 19.4338C5.36023 19.5751 5.21226 22.2264 5.24097 22.7229" fill="url(#paint3_radial_6200_544)"/>
<path opacity="0.24" d="M30.4586 20.4868H21.8644V34.8173C25.3952 34.3749 28.6537 32.6916 31.0576 30.068C33.4615 27.4444 34.8543 24.0515 34.987 20.4956V20.4868C34.9935 20.306 35.0002 20.1251 35.0002 19.9437C34.9991 19.027 34.9149 18.1123 34.7485 17.2108C34.7485 17.2108 34.8645 20.4868 30.4582 20.4868" fill="url(#paint4_radial_6200_544)"/>
<path d="M9.54149 19.4271H18.1357V5.09668C14.6049 5.53903 11.3465 7.22239 8.94255 9.84597C6.53863 12.4696 5.14588 15.8624 5.01317 19.4183V19.4271C5.00661 19.608 4.99992 19.7888 4.99992 19.9702C5.00101 20.8869 5.08528 21.8017 5.25166 22.7031C5.25166 22.7031 5.13566 19.4271 9.54194 19.4271" fill="url(#paint5_radial_6200_544)"/>
<path opacity="0.24" d="M9.54149 19.4271H18.1357V5.09668C14.6049 5.53903 11.3465 7.22239 8.94255 9.84597C6.53863 12.4696 5.14588 15.8624 5.01317 19.4183V19.4271C5.00661 19.608 4.99992 19.7888 4.99992 19.9702C5.00101 20.8869 5.08528 21.8017 5.25166 22.7031C5.25166 22.7031 5.13566 19.4271 9.54194 19.4271" fill="url(#paint6_radial_6200_544)"/>
<defs>
<linearGradient id="paint0_linear_6200_544" x1="19.9998" y1="34.691" x2="19.9998" y2="5.62553" gradientUnits="userSpaceOnUse">
<stop stop-color="#153A63"/>
<stop offset="0.1" stop-color="#153A63"/>
<stop offset="0.35" stop-color="#23A8E0"/>
<stop offset="0.5" stop-color="#61CAF4"/>
<stop offset="0.65" stop-color="#109CD8"/>
<stop offset="0.9" stop-color="#153A63"/>
<stop offset="1" stop-color="#153A63"/>
</linearGradient>
<radialGradient id="paint1_radial_6200_544" cx="0" cy="0" r="1" gradientUnits="userSpaceOnUse" gradientTransform="translate(28.3726 9.21415) scale(10.0515 11.5059)">
<stop stop-color="#57C5F1"/>
<stop offset="0.1507" stop-color="#4BAEDA"/>
<stop offset="0.5461" stop-color="#2D77A3"/>
<stop offset="0.841" stop-color="#1B5580"/>
<stop offset="1" stop-color="#144873"/>
</radialGradient>
<radialGradient id="paint2_radial_6200_544" cx="0" cy="0" r="1" gradientUnits="userSpaceOnUse" gradientTransform="translate(21.2715 20.7224) scale(13.4898 13.4898)">
<stop stop-color="#0F9ED1"/>
<stop offset="0.5123" stop-color="#0680BD"/>
<stop offset="0.8259" stop-color="#0273B4"/>
<stop offset="0.8958" stop-color="#0690C7"/>
<stop offset="1" stop-color="#1FF9FC"/>
</radialGradient>
<radialGradient id="paint3_radial_6200_544" cx="0" cy="0" r="1" gradientUnits="userSpaceOnUse" gradientTransform="translate(10.3798 29.8997) scale(9.33813 9.33813)">
<stop stop-color="#57C5F1"/>
<stop offset="0.1507" stop-color="#4BAEDA"/>
<stop offset="0.5461" stop-color="#2D77A3"/>
<stop offset="0.841" stop-color="#1B5580"/>
<stop offset="1" stop-color="#144873"/>
</radialGradient>
<radialGradient id="paint4_radial_6200_544" cx="0" cy="0" r="1" gradientUnits="userSpaceOnUse" gradientTransform="translate(21.3452 35.0597) scale(22.3771 22.3771)">
<stop offset="0.1356" stop-color="#0F9ED1" stop-opacity="0"/>
<stop offset="0.3455" stop-color="#54BADE" stop-opacity="0.2903"/>
<stop offset="0.5817" stop-color="#9CD7EC" stop-opacity="0.5913"/>
<stop offset="0.7773" stop-color="#D1ECF6" stop-opacity="0.8121"/>
<stop offset="0.9221" stop-color="#F2F9FC" stop-opacity="0.9485"/>
<stop offset="1" stop-color="#FEFEFE"/>
</radialGradient>
<radialGradient id="paint5_radial_6200_544" cx="0" cy="0" r="1" gradientUnits="userSpaceOnUse" gradientTransform="translate(18.7286 19.1916) rotate(180) scale(13.4898)">
<stop stop-color="#0F9ED1"/>
<stop offset="0.5123" stop-color="#0680BD"/>
<stop offset="0.8259" stop-color="#0273B4"/>
<stop offset="0.8958" stop-color="#0690C7"/>
<stop offset="1" stop-color="#1FF9FC"/>
</radialGradient>
<radialGradient id="paint6_radial_6200_544" cx="0" cy="0" r="1" gradientUnits="userSpaceOnUse" gradientTransform="translate(18.655 4.85435) rotate(180) scale(22.3771)">
<stop offset="0.1356" stop-color="#0F9ED1" stop-opacity="0"/>
<stop offset="0.3455" stop-color="#54BADE" stop-opacity="0.2903"/>
<stop offset="0.5817" stop-color="#9CD7EC" stop-opacity="0.5913"/>
<stop offset="0.7773" stop-color="#D1ECF6" stop-opacity="0.8121"/>
<stop offset="0.9221" stop-color="#F2F9FC" stop-opacity="0.9485"/>
<stop offset="1" stop-color="#FEFEFE"/>
</radialGradient>
</defs>
</svg>
