<svg width="40" height="40" viewBox="0 0 40 40" fill="none" xmlns="http://www.w3.org/2000/svg">
<path d="M24.9168 19.9999L20.151 24.7835L15.3674 19.9999L20.151 15.2163L24.9168 19.9999Z" fill="#D5AB48"/>
<path d="M20.1512 15.2163L24.917 19.9999H24.4369L20.1512 15.6964V15.2163Z" fill="#E4C576"/>
<path d="M20.151 15.6964L15.8476 19.9999H15.3674L20.151 15.2163V15.6964Z" fill="#F3E9D5"/>
<path d="M20.151 24.7843L15.3674 20.0007H15.8476L20.151 24.3042V24.7843Z" fill="#E4C576"/>
<path d="M20.1512 24.3042L24.4369 20.0007H24.917L20.1512 24.7843V24.3042Z" fill="#B36C20"/>
<path d="M9.28582 9.82765C6.63617 12.4595 5.00015 16.0694 5.00015 20.0706C5.00015 26.6502 10.3884 31.7894 17.0569 31.7894C20.5068 31.7894 23.601 30.5269 25.7883 28.2684L25.6638 28.144C23.9922 29.3888 21.9294 30.1179 19.7066 30.1179C14.1761 30.1179 9.51699 25.6366 9.51699 20.1061C9.51699 16.0872 10.9752 12.9041 13.3225 10.7346C15.6699 8.56507 18.8885 7.40919 22.374 7.40919C24.9881 7.40919 27.4243 8.20941 29.4338 9.56091L29.5582 9.43643C26.9264 7.05353 23.4587 5.59534 19.6354 5.59534C15.5809 5.59534 11.9355 7.21358 9.28582 9.82765Z" fill="#B5883C"/>
<path d="M7.77472 19.804C7.77472 25.8146 12.7006 30.5093 18.7823 30.5093C21.4319 30.5093 23.8504 29.6912 25.7354 28.2153L25.6642 28.1441C23.9927 29.3889 21.9299 30.118 19.707 30.118C14.1765 30.118 9.51744 25.6368 9.51744 20.1063C9.51744 16.0874 10.9756 12.9043 13.323 10.7347C15.6703 8.56524 18.889 7.40936 22.3744 7.40936C24.9885 7.40936 27.4247 8.20959 29.4342 9.56108L29.4876 9.50773C27.1758 7.69388 24.2772 6.60913 21.1118 6.60913C13.7498 6.60913 7.77472 12.513 7.77472 19.804" fill="#824F2E"/>
<path d="M7.72121 19.8227C7.72121 25.8511 12.6648 30.5458 18.7821 30.5458C21.4318 30.5458 23.868 29.7277 25.7708 28.2518L25.7352 28.2162C23.8502 29.6388 21.4851 30.4035 18.8888 30.4035C12.8249 30.3857 7.89903 25.7444 7.89903 19.7871C7.89903 12.5673 13.8741 6.71677 21.2362 6.71677C24.3482 6.71677 27.1934 7.76595 29.4518 9.50867L29.4874 9.4731C27.1934 7.67704 24.2948 6.59229 21.1295 6.59229C13.714 6.61007 7.72121 12.514 7.72121 19.8227" fill="#D8C29B"/>
<path d="M14.2121 11.7493L14.3366 11.8738C16.0082 10.629 18.071 9.89986 20.2939 9.89986C25.8243 9.89986 30.4834 14.3811 30.5012 19.9116C30.5012 23.9305 29.043 27.1136 26.6957 29.2831C24.3483 31.4527 21.1474 32.6085 17.6442 32.6085C15.0301 32.6085 12.5939 31.8083 10.5844 30.4568L10.4599 30.5813C13.074 32.9464 16.5417 34.4046 20.365 34.4046C24.4017 34.4046 28.065 32.7864 30.7146 30.1723C33.3642 27.5582 35.0003 23.9305 35.0003 19.9472C35.0003 13.3675 29.6121 8.22827 22.9435 8.22827C19.5114 8.22827 16.3994 9.47307 14.2121 11.7493" fill="#48937C"/>
<path d="M14.265 11.8022L14.3361 11.8733C16.0077 10.6285 18.0705 9.8994 20.2934 9.8994C25.8238 9.8994 30.4829 14.3807 30.5007 19.9111C30.5007 23.9301 29.0425 27.1132 26.6952 29.2827C24.3479 31.4522 21.147 32.6081 17.6437 32.6081C15.0297 32.6081 12.5934 31.8078 10.584 30.4564L10.5306 30.5097C12.8246 32.3236 15.7232 33.4083 18.8708 33.4083C26.2506 33.4083 32.2257 27.5044 32.2257 20.2134C32.2257 14.2028 27.2998 9.50818 21.2181 9.50818C18.5862 9.50818 16.1678 10.3084 14.265 11.8022Z" fill="#004B34"/>
<path d="M14.2296 11.766L14.2651 11.8016C16.1501 10.379 18.5152 9.61431 21.1115 9.61431C27.1755 9.61431 32.1013 14.2556 32.1013 20.2129C32.1013 27.4327 26.1263 33.2833 18.7642 33.2833C15.6522 33.2833 12.8069 32.2341 10.5485 30.4914L10.5129 30.5269C12.8069 32.323 15.7055 33.4077 18.8709 33.4077C26.2863 33.4077 32.2791 27.4861 32.2791 20.1951C32.2791 14.1667 27.3355 9.47205 21.2182 9.47205C18.5686 9.47205 16.1323 10.2723 14.2296 11.766" fill="#D8D8D8"/>
</svg>
