<svg width="40" height="40" viewBox="0 0 40 40" fill="none" xmlns="http://www.w3.org/2000/svg">
<path fill-rule="evenodd" clip-rule="evenodd" d="M3.00011 24.4403V19.6968C3.00011 19.5394 3.06686 19.4045 3.15587 19.3146C3.26712 19.2022 3.37838 19.1572 3.53414 19.1572H4.06817V21.1356H6.20431V19.1572H7.29463V24.4628H6.20431V22.1023H4.06817V24.4628H3.00011V24.4403Z" fill="#C8252C"/>
<path fill-rule="evenodd" clip-rule="evenodd" d="M8.8979 23.4961H9.5877C10.0772 23.4961 10.4555 23.3612 10.678 23.0915C10.9005 22.8442 11.0118 22.417 11.0118 21.7875C11.0118 21.1805 10.9005 20.7534 10.7003 20.4836C10.5 20.2138 10.1662 20.0565 9.7212 20.0565H8.8979V23.4961V23.4961ZM7.82983 24.4403V19.6968C7.82983 19.5394 7.87434 19.4045 7.98559 19.3146C8.09685 19.2022 8.23036 19.1572 8.38612 19.1572H9.7212C10.5223 19.1572 11.123 19.382 11.5236 19.8092C11.9241 20.2588 12.1244 20.9332 12.1244 21.81C12.1244 22.2821 12.0576 22.7093 11.9018 23.0915C11.7461 23.4736 11.5236 23.7884 11.2566 23.9907C11.034 24.1706 10.7893 24.283 10.5445 24.3504C10.2997 24.4179 9.92147 24.4628 9.43194 24.4628H7.82983V24.4403Z" fill="#C8252C"/>
<path fill-rule="evenodd" clip-rule="evenodd" d="M16.1511 21.5849C16.3514 21.495 16.5071 21.3376 16.6184 21.1803C16.7296 21.0004 16.7742 20.7756 16.7742 20.5058C16.7742 20.0787 16.6406 19.7415 16.3514 19.5167C16.0621 19.2918 15.6616 19.1794 15.1275 19.1794H13.1917C13.0359 19.1794 12.9247 19.2244 12.8134 19.3368C12.7021 19.4492 12.6576 19.5841 12.6576 19.719V24.4625H15.0608C15.6616 24.4625 16.1289 24.3277 16.4849 24.0579C16.8187 23.7656 16.9744 23.361 16.9744 22.8664C16.9744 22.5516 16.9077 22.2819 16.7742 22.102C16.6184 21.8547 16.4181 21.6973 16.1511 21.5849ZM13.7035 20.0787H14.9273C15.2166 20.0787 15.4168 20.1237 15.5281 20.2136C15.6393 20.3035 15.7061 20.4384 15.7061 20.6407C15.7061 20.8431 15.6393 20.9779 15.5281 21.0679C15.3946 21.1578 15.2166 21.2028 14.9495 21.2028H13.7257V20.0787H13.7035ZM15.6393 23.316C15.4836 23.4284 15.2611 23.4959 14.9718 23.4959H13.7035V22.102H14.9718C15.2833 22.102 15.5058 22.147 15.6393 22.2594C15.7728 22.3718 15.8396 22.5516 15.8396 22.7989C15.8396 23.0462 15.7728 23.2261 15.6393 23.316Z" fill="#58595B"/>
<path fill-rule="evenodd" clip-rule="evenodd" d="M24.6746 20.5059C24.2963 20.2811 23.8736 20.1687 23.4063 20.1687C22.9612 20.1912 22.5607 20.3036 22.1824 20.5509C21.8264 20.7757 21.6262 21.2478 21.6262 21.9447V24.4626H22.7165V21.7199C22.7165 21.4726 22.7832 21.2928 22.939 21.1804C23.0948 21.068 23.2505 21.023 23.4285 21.023C23.6065 21.023 23.7845 21.0904 23.9403 21.1804C24.0961 21.2928 24.1628 21.4726 24.1628 21.7199V23.9231C24.1628 24.0804 24.2073 24.2153 24.3186 24.3053C24.4298 24.3952 24.5411 24.4401 24.6969 24.4401H25.2531V21.9447C25.2531 21.2253 25.0529 20.7532 24.6746 20.5059Z" fill="#58595B"/>
<path fill-rule="evenodd" clip-rule="evenodd" d="M20.6475 20.4385C20.3583 20.2362 19.891 20.1462 19.2902 20.1462C18.7562 20.1462 18.3334 20.2586 18.0441 20.5059C17.7994 20.7083 17.6436 20.978 17.5991 21.2928H18.6672C18.7117 21.1804 18.8007 21.0905 18.9342 21.068C19.0454 21.023 19.1789 21.0005 19.3347 21.0005C19.4682 21.0005 19.624 21.023 19.802 21.068C19.9577 21.1129 20.0468 21.2029 20.0468 21.3602C20.0468 21.5626 19.802 21.6974 19.3347 21.7649C19.2457 21.7649 19.1567 21.7874 19.0677 21.8099C19.0009 21.8323 18.9342 21.8323 18.8897 21.8323C18.4892 21.8998 18.1331 22.0122 17.8884 22.2145C17.6213 22.3944 17.4878 22.7091 17.4878 23.1363C17.4878 23.6084 17.6213 23.9456 17.9106 24.1479C18.1999 24.3502 18.5337 24.4402 18.9342 24.4402C19.3792 24.4402 19.802 24.3952 20.1803 24.1479C20.2025 24.2154 20.2248 24.2603 20.2693 24.3053C20.3583 24.4177 20.4695 24.4627 20.603 24.4627H21.0926V22.7316V22.6866V21.3153C21.0926 20.9331 20.9368 20.6633 20.6475 20.4385ZM20.069 22.6866C20.069 22.9789 19.98 23.2037 19.802 23.3611C19.624 23.5184 19.4015 23.6084 19.0899 23.6084C18.9119 23.6084 18.7562 23.5634 18.6672 23.4735C18.5782 23.3835 18.5337 23.2711 18.5337 23.0913C18.5337 22.9789 18.5782 22.8665 18.6449 22.7541C18.7339 22.6641 18.8674 22.5967 19.0677 22.5517L19.446 22.4618C19.713 22.3944 19.9132 22.3269 20.069 22.2595V22.6866Z" fill="#58595B"/>
<path fill-rule="evenodd" clip-rule="evenodd" d="M27.946 21.9222L29.3701 20.1462H28.1018L26.8112 21.7873V20.3485V19.6516C26.8112 19.5167 26.7667 19.4043 26.6555 19.2919C26.5442 19.1795 26.4329 19.1345 26.2994 19.1345H25.7654V24.4401H26.8335V23.4509V22.8889C26.8335 22.799 26.878 22.754 26.9892 22.709C27.1005 22.6641 27.234 22.7765 27.3897 23.0687L28.124 24.4626H29.3924L27.946 21.9222Z" fill="#58595B"/>
<path d="M29.4128 17.4936C29.4128 17.8757 29.6575 18.0106 30.0803 18.0106C30.5254 18.0331 31.2596 17.9432 31.8827 17.8533C31.9049 17.8533 31.9049 17.8533 31.8827 17.8533C30.8591 17.4936 31.0816 15.7175 31.0371 15.6051C31.0149 15.5602 30.9926 15.5377 30.9481 15.5377C30.6144 15.5152 29.4128 16.6617 29.4128 17.4936Z" fill="url(#paint0_linear_6200_434)"/>
<path d="M36.9119 17.1787C36.8897 17.1787 36.8674 17.1787 36.8229 17.2012C36.1776 17.4934 33.463 18.4152 30.726 18.5051C30.8373 20.0788 31.8609 21.8099 32.7064 21.8099C34.8426 21.8099 36.5782 18.2353 36.9342 17.471C37.0454 17.2462 37.0009 17.1787 36.9119 17.1787Z" fill="url(#paint1_linear_6200_434)"/>
<defs>
<linearGradient id="paint0_linear_6200_434" x1="30.7475" y1="18.0731" x2="30.1829" y2="15.6888" gradientUnits="userSpaceOnUse">
<stop stop-color="#F8B118"/>
<stop offset="0.1398" stop-color="#FABE10"/>
<stop offset="0.376" stop-color="#FCCE07"/>
<stop offset="0.6425" stop-color="#FDD802"/>
<stop offset="1" stop-color="#FDDB00"/>
</linearGradient>
<linearGradient id="paint1_linear_6200_434" x1="30.7342" y1="19.4857" x2="37.0018" y2="19.4857" gradientUnits="userSpaceOnUse">
<stop stop-color="#F8B118"/>
<stop offset="0.1398" stop-color="#FABE10"/>
<stop offset="0.376" stop-color="#FCCE07"/>
<stop offset="0.6425" stop-color="#FDD802"/>
<stop offset="1" stop-color="#FDDB00"/>
</linearGradient>
</defs>
</svg>
