<svg width="40" height="40" viewBox="0 0 40 40" fill="none" xmlns="http://www.w3.org/2000/svg">
<path d="M32.9183 12.4935C32.8283 12.521 32.7344 12.5133 32.6426 12.5207C31.8808 12.5813 31.1219 12.6664 30.3657 12.7759C29.2625 12.9352 28.17 13.1486 27.0881 13.4159C26.5883 13.5389 26.0925 13.6761 25.5984 13.8198C25.5807 13.825 25.5623 13.8278 25.5442 13.8317C25.1483 13.6331 24.7529 13.4338 24.3658 13.2181C22.9252 12.414 21.5754 11.4571 20.3397 10.364C19.1175 9.28346 18.0182 8.07146 17.0617 6.74999C17.0219 6.69527 17.0333 6.67836 17.0854 6.64852C18.0321 6.10698 18.978 5.564 19.9231 5.0196C19.9704 4.99233 19.9935 4.98926 20.0304 5.03866C20.606 5.81198 21.2406 6.53953 21.9287 7.21478C23.0433 8.30996 24.291 9.26092 25.6425 10.0454C27.0119 10.8397 28.475 11.4601 29.998 11.8922C30.9379 12.158 31.8961 12.3544 32.8648 12.4798C32.8829 12.4833 32.9008 12.4879 32.9183 12.4935V12.4935Z" fill="#1E3160"/>
<path d="M22.4819 14.8993C22.3055 14.9909 22.1175 15.0557 21.9351 15.1331C20.9192 15.5642 19.9263 16.0429 18.9564 16.5692C18.9333 16.5817 18.9088 16.5918 18.8849 16.603C18.5808 16.376 18.2736 16.1531 17.9731 15.9214C17.1474 15.2835 16.3581 14.5998 15.609 13.8734C14.2935 12.6008 13.1068 11.2013 12.0662 9.69554C11.9969 9.59541 11.9969 9.59585 12.1022 9.53528C13.027 9.00344 13.9515 8.47104 14.8757 7.93808C14.9312 7.90597 14.9556 7.90884 14.9933 7.96198C15.6813 8.93257 16.4387 9.85202 17.2596 10.7131C18.1819 11.6797 19.1808 12.57 20.2467 13.3755C20.9547 13.9138 21.6906 14.4143 22.4514 14.8751C22.4621 14.8825 22.4723 14.8906 22.4819 14.8993V14.8993Z" fill="#1E3160"/>
<path d="M16.6662 17.9263C16.4227 18.091 16.1786 18.2546 15.936 18.4206C15.2184 18.9119 14.5218 19.4313 13.8462 19.9789C13.8356 19.9867 13.8246 19.9939 13.8132 20.0004C13.4447 19.6923 13.0755 19.385 12.7159 19.0664C11.3641 17.869 10.1102 16.5655 8.96613 15.1682C8.27616 14.3254 7.62717 13.4522 7.01917 12.5486C6.98765 12.5019 6.98152 12.4808 7.03826 12.4484C7.97809 11.9107 8.91686 11.3711 9.85458 10.8297C9.90538 10.8004 9.92958 10.7992 9.9656 10.8525C10.9214 12.2677 11.9987 13.5971 13.1851 14.8254C14.244 15.922 15.3832 16.9381 16.5932 17.8652C16.6183 17.8845 16.6419 17.9059 16.6662 17.9263Z" fill="#1E3160"/>
<path d="M32.9553 18.3077C32.6308 18.3393 32.306 18.3689 31.9817 18.4028C31.28 18.4762 30.583 18.5825 29.8897 18.7132C28.3385 19.0077 26.8155 19.4352 25.3376 19.9909C25.3228 19.9964 25.307 19.9992 25.2917 20.0032C25.2585 20.0124 25.2292 19.9985 25.1995 19.9874C24.6924 19.7987 24.1941 19.5887 23.7 19.3687C23.2544 19.1704 22.8144 18.9603 22.3799 18.7385C22.351 18.7238 22.3117 18.7187 22.309 18.6743C22.5811 18.5361 22.8621 18.4172 23.142 18.2965C23.866 17.9841 24.6013 17.7011 25.3479 17.4473C25.8402 17.2791 26.3368 17.125 26.8366 16.9812C26.8569 16.9753 26.8782 16.9732 26.899 16.9694C27.2307 17.097 27.5697 17.2027 27.9088 17.3081C29.0617 17.6647 30.24 17.9333 31.4336 18.1116C31.9214 18.1853 32.4104 18.2492 32.9015 18.2969C32.9196 18.2996 32.9376 18.3032 32.9553 18.3077V18.3077Z" fill="#1E3160"/>
<path d="M32.9429 24.0969C32.7459 24.1212 32.5488 24.1456 32.3517 24.1699C31.5936 24.2649 30.8412 24.4004 30.0977 24.576C28.5609 24.9384 27.0764 25.4504 25.6495 26.1279C25.616 26.1438 25.5811 26.1567 25.5469 26.171C25.1555 26.0468 24.7629 25.9264 24.3731 25.7974C23.7568 25.5935 23.1483 25.368 22.546 25.1258C22.5313 25.1199 22.5175 25.1119 22.5033 25.1048C22.7437 24.9485 22.9952 24.8112 23.2461 24.673C24.2084 24.1427 25.2056 23.6783 26.2307 23.283C26.4533 23.1971 26.675 23.1087 26.9034 23.0388C27.2461 23.1427 27.5937 23.2279 27.9416 23.3118C29.0219 23.5732 30.1154 23.7764 31.2175 23.9205C31.7911 23.9952 32.3665 24.0507 32.9429 24.0969Z" fill="#1E3160"/>
<path d="M22.2857 21.3356C22.0061 21.4876 21.7252 21.6374 21.447 21.7921C20.582 22.274 19.7436 22.8023 18.9357 23.3748C18.9206 23.3855 18.9045 23.3948 18.8889 23.4048C18.512 23.1878 18.1335 22.9736 17.7587 22.7531C17.3906 22.5366 17.0284 22.3104 16.6721 22.0745C17.0221 21.7983 17.3863 21.5415 17.7521 21.287C18.3794 20.8506 19.0241 20.441 19.6813 20.051C19.7086 20.0349 19.7376 20.0216 19.7659 20.007C19.8007 19.9986 19.827 20.0179 19.8544 20.034C20.5758 20.4604 21.3217 20.8407 22.0732 21.2106C22.1231 21.2352 22.177 21.251 22.2254 21.279C22.2496 21.293 22.2817 21.2996 22.2857 21.3356Z" fill="#1E3160"/>
<path d="M22.4815 14.8991C22.6794 14.8385 22.8679 14.753 23.0609 14.6795C23.8493 14.3794 24.6472 14.1075 25.4546 13.8638C25.4849 13.8546 27.1473 13.3661 27.9146 13.1978C28.6948 13.0267 29.4797 12.8803 30.27 12.7641C30.842 12.68 31.4157 12.6096 31.9911 12.5528C32.2363 12.5285 32.4821 12.5096 32.7276 12.4887C32.7909 12.4833 32.8544 12.4991 32.9181 12.4934C32.9858 12.4784 33.0025 12.5071 33.0024 12.5733C33.0005 13.6561 33.0005 14.739 33.0025 15.8218C33.0026 15.885 32.9892 15.9063 32.9219 15.9112C32.0379 15.9753 31.1583 16.0786 30.2833 16.221C29.2975 16.3672 27.9149 16.7285 26.6318 17.0627C25.7369 17.3242 24.8561 17.6264 23.9894 17.9694C23.4264 18.1913 22.8708 18.4307 22.3226 18.6875C21.7571 18.9447 21.2045 19.2275 20.6587 19.524C20.3601 19.6861 20.0636 19.8515 19.7711 20.0242C19.4614 20.1981 19.1613 20.3879 18.8608 20.5771C18.1361 21.0337 15.9301 22.6502 15.5698 22.9517C14.8427 23.5602 14.1454 24.2014 13.478 24.8752C12.1781 26.1862 11.0042 27.6164 9.97167 29.1469C9.92887 29.2105 9.90141 29.2062 9.84348 29.1727C8.91113 28.6325 7.97773 28.0941 7.04327 27.5575C6.98669 27.5251 6.98453 27.5051 7.01946 27.4533C8.12826 25.8046 9.37714 24.2547 10.7522 22.8207C11.6992 21.8341 12.7059 20.9066 13.7664 20.0433C14.6465 19.2845 16.6336 17.9239 16.6659 17.9262C16.9042 17.7776 17.142 17.6281 17.381 17.4805C17.8592 17.1851 18.345 16.9026 18.8382 16.6328C18.8543 16.624 20.4584 15.7654 21.1972 15.4337C21.5968 15.2542 21.9984 15.0802 22.4051 14.9176C22.4287 14.9053 22.4549 14.899 22.4815 14.8991V14.8991Z" fill="#EC3225"/>
<path d="M32.9558 18.3075C32.9751 18.3055 32.9949 18.3043 32.997 18.3308C32.9987 18.3519 32.9981 18.3733 32.9981 18.3945C32.9981 19.4718 32.9982 20.5491 32.9985 21.6264C32.9985 21.6758 33.0046 21.7131 32.9303 21.7197C31.7506 21.8245 30.5833 22.0072 29.4314 22.2846C28.5904 22.4871 26.668 23.0387 25.4139 23.6372C24.7937 23.9018 24.1876 24.1963 23.591 24.5109C23.2482 24.6917 21.9843 25.4159 21.7312 25.5813C20.4671 26.4046 19.2789 27.3389 18.1807 28.3731C17.001 29.4879 15.9349 30.7171 14.9983 32.0426C14.9579 32.0996 14.9317 32.1088 14.8689 32.0723C13.9352 31.5296 13.0002 30.9889 12.064 30.4504C12.0108 30.4198 12.0013 30.4011 12.0391 30.3466C12.8895 29.1169 13.836 27.9565 14.8696 26.8762C16.0897 25.6026 17.4275 24.4473 18.865 23.4255C18.8736 23.4194 20.5019 22.3007 21.3006 21.8513C21.6244 21.6691 21.9502 21.491 22.2809 21.3216C23.1399 20.8773 24.0216 20.4787 24.9226 20.1274C25.0484 20.078 25.1756 20.0325 25.3003 19.9802C25.8826 19.7646 26.4695 19.5636 27.0637 19.383C27.7978 19.16 28.54 18.9688 29.29 18.8093C29.8816 18.6831 30.4769 18.5775 31.0761 18.4926C31.4805 18.4359 31.8854 18.3849 32.2921 18.3482C32.4293 18.3358 32.5666 18.3233 32.7036 18.3082C32.7869 18.2991 32.8717 18.3069 32.9558 18.3075Z" fill="#EC3225"/>
<path d="M32.9443 24.0968C32.9819 24.0893 33.0077 24.096 33.0026 24.1431C33.0016 24.159 33.0015 24.175 33.0023 24.1909C33.0023 25.2636 33.0029 26.3364 33.004 27.4091C33.0042 27.4881 32.9859 27.5133 32.9028 27.5236C31.7855 27.6598 30.6826 27.8956 29.6072 28.2281C28.5291 28.5609 27.4821 28.9875 26.4784 29.503C23.9449 30.8073 21.7423 32.6724 20.0381 34.9561C19.9999 35.0073 19.9727 35.0118 19.9177 34.9801C18.9751 34.4366 18.0315 33.8947 17.087 33.3545C17.0405 33.3279 17.0182 33.3141 17.0594 33.2574C17.7564 32.2932 18.5298 31.3865 19.3723 30.5464C20.9895 28.9371 22.8394 27.5799 24.86 26.5204C25.0877 26.4006 25.4495 26.2162 25.5482 26.171C25.5736 26.1593 27.0368 25.4889 27.7794 25.2294C28.4641 24.9901 29.1584 24.7835 29.8623 24.6094C30.7207 24.3974 31.5911 24.2378 32.4689 24.1315C32.6271 24.1124 32.7854 24.1022 32.9443 24.0968Z" fill="#EC3225"/>
</svg>
