<svg width="40" height="40" viewBox="0 0 40 40" fill="none" xmlns="http://www.w3.org/2000/svg">
<path d="M12.2964 5.78541C11.4947 6.18628 10.8854 6.89179 10.5968 7.75765L5.17712 24.1128C4.8885 24.9626 4.95264 25.8926 5.36954 26.7104C5.7704 27.5281 6.47591 28.1214 7.32574 28.41L25.1079 34.4069C25.9738 34.6955 26.8877 34.6314 27.7055 34.2145C28.5233 33.7976 29.1165 33.1081 29.4051 32.2422L34.8248 15.8871C35.4181 14.1073 34.456 12.1671 32.6762 11.5738L14.878 5.593C14.0281 5.30438 13.1142 5.36852 12.2964 5.78541" fill="#FEFEFE"/>
<path d="M20.9245 21.5961C19.9625 22.6864 18.7599 23.5523 17.3649 24.0974L16.5632 24.4181V16.8338L17.3488 17.1385C18.7438 17.6837 19.9464 18.5495 20.9085 19.6238C21.598 18.5014 22.0309 17.2187 22.1111 15.8076C22.3356 12.1678 20.0747 8.83266 16.964 7.67818L14.4306 6.81232C13.2761 6.42749 12.0414 7.06887 11.6566 8.22335L6.23698 24.6105C5.85216 25.781 6.49353 27.0317 7.66405 27.4166L19.9625 31.5534C21.2131 30.2066 22.0309 28.4267 22.1431 26.4385C22.2554 24.6747 21.7904 23.0071 20.9245 21.5961ZM13.8213 16.3688V24.8671H12.6027V16.3688H13.8213V16.3688Z" fill="#00A4E2"/>
<path d="M32.1637 12.7447L20.8755 8.94458C22.3988 10.6122 23.3127 12.8409 23.3288 15.2782C23.3288 17.2023 22.7355 19.0463 21.6932 20.5856C22.7355 22.1249 23.3288 23.9528 23.3448 25.893C23.3448 28.1859 22.527 30.3024 21.1641 31.938L25.4132 33.365C26.5677 33.7499 27.8024 33.1085 28.1872 31.954L33.6068 15.5668C33.9756 14.3963 33.3342 13.1296 32.1637 12.7447V12.7447ZM29.1813 24.8187H27.6581L24.5153 20.5695L27.7062 16.3204H29.2455L26.0546 20.5856L29.1813 24.8187Z" fill="#004898"/>
<path d="M20.2353 20.5688C19.5618 19.751 18.7601 19.0615 17.8301 18.5645V22.5731C18.7601 22.076 19.5779 21.3705 20.2353 20.5688Z" fill="#E7390E"/>
</svg>
