<svg width="40" height="40" viewBox="0 0 40 40" fill="none" xmlns="http://www.w3.org/2000/svg">
<path d="M28.294 20.9176V27.5882H20.9882V25.4176H25.9823V22.9471H20.9882V16.2941H25.9823V14.0529H20.9882V11.8824H28.294V18.5353H23.2999V20.7941H28.294V20.9176ZM11.5293 20.9176V20.7941H16.5235V18.5353H11.5293V11.8824H18.8352V14.0529H13.8587V16.3118H18.8529V22.9647H13.8587V25.4353H18.8529V27.5882H11.5293V20.9176ZM19.9999 5C28.2764 5 34.9999 11.7235 34.9999 20C34.9999 28.2765 28.2764 35 19.9999 35C11.7235 35 4.99992 28.2765 4.99992 20C4.99992 11.7235 11.7235 5 19.9999 5ZM19.9999 32.0176C26.6352 32.0176 32.0176 26.6353 32.0176 20C32.0176 13.3647 26.6352 7.98235 19.9999 7.98235C13.3646 7.98235 7.98228 13.3647 7.98228 20C7.98228 26.6353 13.3646 32.0176 19.9999 32.0176Z" fill="#CF0106"/>
</svg>
