<svg width="40" height="40" viewBox="0 0 40 40" fill="none" xmlns="http://www.w3.org/2000/svg">
<path d="M27.0749 22.4958C27.0932 22.5317 27.148 22.5497 27.1846 22.5857C27.9888 23.071 28.4092 23.79 28.464 24.7068C28.4823 24.9944 28.464 25.282 28.3909 25.5696C28.3178 25.9112 28.1716 26.2168 27.9523 26.4684C27.8243 26.6122 27.7146 26.7381 27.5867 26.8819C27.1298 27.3672 26.5266 27.565 25.9051 27.6908C25.302 27.7986 24.6805 27.8166 24.0591 27.8346C23.2914 27.8346 22.542 27.8346 21.7744 27.8346C21.2991 27.8346 21.0432 27.6369 21.0615 27.1335C21.0798 25.2101 21.0615 23.3047 21.0615 21.3813C21.0615 20.824 21.0615 20.2668 21.0615 19.6916C21.0615 19.6376 21.0615 19.5837 21.0615 19.5298C21.0615 19.4219 21.0067 19.368 20.897 19.35C20.7325 19.3141 20.5863 19.3141 20.4218 19.3141C20.3304 19.3141 20.239 19.2961 20.1476 19.2601C19.9649 19.1703 19.8369 19.0444 19.8186 18.8287C19.8186 18.7388 19.8186 18.6669 19.8186 18.5771C19.8369 18.2894 20.0197 18.0917 20.3121 18.0558C20.3487 18.0558 20.3852 18.0558 20.4401 18.0558C21.9937 18.0558 23.5473 18.0558 25.1009 18.0737C25.9965 18.0917 26.7642 18.3793 27.3856 19.0264C27.7146 19.368 27.8974 19.7635 27.9523 20.2308C27.9888 20.5184 27.9888 20.8061 27.9523 21.0937C27.8609 21.615 27.605 22.0464 27.2029 22.4059C27.148 22.4239 27.0932 22.4419 27.0749 22.4958ZM23.5107 24.7787C23.5107 25.1921 23.5107 25.6056 23.5107 26.019C23.5107 26.1808 23.5107 26.1988 23.6935 26.1988C23.9311 26.1988 24.1505 26.2168 24.3881 26.1988C24.7536 26.1808 25.1009 26.1089 25.4116 25.9292C25.7406 25.7314 25.9234 25.4618 25.96 25.0843C25.9783 24.9045 25.9783 24.7248 25.9417 24.545C25.9051 24.2934 25.7955 24.0776 25.6127 23.8979C25.3934 23.6822 25.1375 23.5743 24.845 23.5204C24.4612 23.4305 24.0591 23.4485 23.657 23.4125C23.5107 23.4125 23.5107 23.4125 23.5107 23.5743C23.5107 23.9518 23.5107 24.3653 23.5107 24.7787ZM23.5107 20.7521C23.5107 21.0757 23.5107 21.3813 23.5107 21.7048C23.5107 21.8846 23.5107 21.9026 23.6935 21.8846C23.9311 21.8846 24.1505 21.8666 24.3881 21.8487C24.5709 21.8307 24.7536 21.7767 24.9181 21.7048C25.2106 21.561 25.4116 21.3453 25.4482 21.0218C25.4665 20.86 25.4665 20.7162 25.4665 20.5544C25.4482 20.087 25.1923 19.7814 24.7354 19.6556C24.3881 19.5657 24.0408 19.5477 23.6752 19.5657C23.529 19.5837 23.529 19.5837 23.529 19.7275C23.5107 20.069 23.5107 20.4106 23.5107 20.7521Z" fill="#0270B9"/>
<path d="M14.6829 24.0776C14.9571 23.4125 15.213 22.7654 15.4871 22.1363C15.9989 20.9139 16.4924 19.6916 17.0042 18.4692C17.1139 18.1816 17.2784 18.0737 17.5891 18.0737C18.1557 18.0737 18.7223 18.0737 19.3072 18.0737C19.362 18.0737 19.3986 18.0737 19.4534 18.0737C19.6362 18.0917 19.691 18.1996 19.6545 18.3613C19.6362 18.3973 19.6362 18.4332 19.6179 18.4692C18.3019 21.4172 17.0773 24.4372 15.8161 27.4211C15.7065 27.6908 15.5054 27.8166 15.213 27.8166C14.8474 27.8166 14.4636 27.8166 14.098 27.8166C13.8056 27.8166 13.6045 27.6908 13.4949 27.4032C12.5079 25.0124 11.5208 22.6396 10.5156 20.2488C10.4425 20.087 10.3693 19.9073 10.278 19.7635C10.1135 19.4758 9.85757 19.332 9.52857 19.3141C9.45546 19.3141 9.38235 19.3141 9.30924 19.3141C9.01679 19.2781 8.81573 19.0804 8.81573 18.7748C8.81573 18.7029 8.81573 18.649 8.81573 18.5771C8.81573 18.2894 9.01679 18.0917 9.30924 18.0558C9.36407 18.0558 9.40062 18.0558 9.45546 18.0558C10.2048 18.0558 10.9725 18.0558 11.7219 18.0558C12.0692 18.0558 12.2154 18.1636 12.3616 18.4872C13.111 20.2848 13.8421 22.0823 14.5915 23.8799C14.5915 23.9338 14.6098 23.9878 14.6829 24.0776Z" fill="#0270B9"/>
<path d="M8.68779 22.9269C8.68779 24.329 8.68779 25.7131 8.68779 27.1152C8.68779 27.1692 8.68779 27.2231 8.68779 27.277C8.66951 27.6006 8.46846 27.7983 8.15773 27.8163C7.70079 27.8343 7.22557 27.8163 6.76862 27.8163C6.47618 27.8163 6.23857 27.5826 6.23857 27.259C6.25684 24.7065 6.23857 22.1719 6.23857 19.6193C6.23857 19.5834 6.23857 19.5474 6.23857 19.4935C6.23857 19.4036 6.20201 19.3497 6.09234 19.3497C5.90956 19.3317 5.72679 19.3317 5.54401 19.3317C5.32468 19.3317 5.1419 19.2418 5.06879 19.0441C4.9774 18.8284 4.9774 18.5767 5.06879 18.361C5.1419 18.1813 5.3064 18.1094 5.48918 18.0734C5.54401 18.0734 5.59884 18.0734 5.65368 18.0734C6.4579 18.0734 7.26212 18.0734 8.06635 18.0734C8.15773 18.0734 8.24912 18.0734 8.34051 18.1094C8.55985 18.1992 8.68779 18.343 8.70607 18.5767C8.70607 18.6307 8.70607 18.7026 8.70607 18.7565C8.68779 20.1226 8.68779 21.5248 8.68779 22.9269Z" fill="#0270B9"/>
<path d="M28.7206 17.9837C28.6292 17.75 28.5744 17.5163 28.5378 17.2647C28.483 16.6355 28.6292 16.0423 28.9582 15.5031C29.2506 15.0177 29.5979 14.5863 30.0366 14.2268C31.0967 13.3639 32.2847 12.7168 33.6008 12.3034C33.7835 12.2494 33.9663 12.2135 34.1674 12.1775C34.3136 12.1596 34.4781 12.1596 34.6243 12.1955C34.935 12.2494 35.063 12.573 34.9716 12.8067C34.935 12.9325 34.8619 13.0224 34.7705 13.1123C34.5695 13.31 34.3501 13.4718 34.0943 13.5796C33.6556 13.7774 33.2169 13.9571 32.7965 14.1549C31.9923 14.5144 31.2246 14.8919 30.5118 15.4312C30.0549 15.7727 29.6345 16.1682 29.3055 16.6355C29.0496 16.995 28.8302 17.3905 28.7754 17.8399C28.7571 17.9118 28.7571 17.9478 28.7206 17.9837Z" fill="#0270B9"/>
<path d="M29.0865 19.0802C28.9951 18.9004 28.9585 18.7027 28.9402 18.487C28.8854 17.8039 29.1413 17.2287 29.5434 16.6894C29.8176 16.3299 30.1466 16.0243 30.5121 15.7727C31.1336 15.3233 31.8098 14.9278 32.5227 14.6402C32.7968 14.5323 33.071 14.4604 33.3635 14.4245C33.6194 14.3885 33.8021 14.4784 33.8752 14.6582C33.9301 14.802 33.8935 14.9098 33.8204 15.0356C33.7473 15.1795 33.6376 15.2873 33.5097 15.3952C33.3086 15.5569 33.0893 15.6828 32.8517 15.7906C32.2851 16.0782 31.7002 16.3299 31.1518 16.6714C30.5487 17.031 30.0186 17.4624 29.6165 18.0376C29.3789 18.3252 29.251 18.6308 29.0865 19.0802Z" fill="#F7911F"/>
<path d="M29.3965 20.087C29.1406 19.4398 29.2503 18.8287 29.6524 18.2714C29.9814 17.804 30.4383 17.4445 30.9136 17.121C31.2608 16.9052 31.6081 16.7255 31.9737 16.5637C32.1382 16.4918 32.3027 16.4559 32.4855 16.4379C32.7413 16.4199 32.9241 16.6895 32.8327 16.9412C32.7962 17.0311 32.7413 17.103 32.6682 17.1749C32.522 17.3187 32.3758 17.4265 32.193 17.5344C31.9737 17.6782 31.7361 17.804 31.4985 17.9299C30.9867 18.1995 30.5115 18.5231 30.0911 18.9185C29.7621 19.2421 29.4879 19.5657 29.3965 20.033C29.4148 20.051 29.3965 20.069 29.3965 20.087Z" fill="#0571B8"/>
<path d="M29.5422 20.4106C29.5605 20.0151 29.7067 19.6916 29.9443 19.404C30.2916 18.9726 30.7303 18.649 31.2421 18.4153C31.3517 18.3614 31.4797 18.3254 31.6076 18.3074C31.8452 18.2715 32.028 18.4513 31.9732 18.6849C31.9366 18.8647 31.8087 18.9905 31.6625 19.0984C31.4797 19.2422 31.2786 19.3321 31.0776 19.4399C30.7668 19.6197 30.4744 19.8174 30.2002 20.0511C30.0175 20.1949 29.8895 20.3747 29.7616 20.5904C29.7433 20.6263 29.725 20.6803 29.6885 20.7162C29.6519 20.7701 29.5971 20.7522 29.5788 20.6982C29.5605 20.5904 29.5605 20.4825 29.5422 20.4106Z" fill="#F7911F"/>
<path d="M29.9452 21.5787C29.7441 21.327 29.6893 21.0753 29.7989 20.7697C29.872 20.608 29.9817 20.4462 30.1097 20.3203C30.2924 20.1406 30.4935 19.9788 30.7128 19.853C30.8042 19.799 30.8956 19.7631 30.987 19.7451C31.188 19.7092 31.316 19.835 31.2794 20.0327C31.2612 20.1586 31.188 20.2484 31.0967 20.3203C31.0053 20.3922 30.9139 20.4642 30.8042 20.5361C30.7128 20.608 30.6032 20.6619 30.5118 20.7338C30.1828 20.9315 29.9817 21.2012 29.9452 21.5787Z" fill="#0571B8"/>
<path d="M30.8046 21.7228C30.8046 21.8846 30.6949 21.9925 30.5304 21.9385C30.3842 21.9026 30.2745 21.8127 30.1649 21.7408C30.0918 21.6869 30.0735 21.615 30.0735 21.5431C30.0735 21.4712 30.0918 21.3993 30.1283 21.3274C30.2014 21.1656 30.238 21.1476 30.3842 21.2375C30.4756 21.2914 30.5853 21.3633 30.6766 21.4352C30.7498 21.5251 30.7863 21.615 30.8046 21.7228Z" fill="#F7911F"/>
</svg>
