<svg width="40" height="40" viewBox="0 0 40 40" fill="none" xmlns="http://www.w3.org/2000/svg">
<path d="M35.5485 20.0125C34.772 20.0204 33.9954 20.0283 33.2189 20.0361L33.2188 20.0362C33.1295 19.9063 32.9944 19.9639 32.8808 19.9637C30.808 19.9606 28.7352 19.9611 26.6623 19.9655C26.2456 19.9669 25.8297 19.9282 25.4205 19.8497C25.2956 19.8944 25.174 19.9474 25.0563 20.0085C23.0543 21.1473 21.3718 22.7723 20.1645 24.7332C20.0036 24.9927 19.9946 24.994 19.8357 24.7383C19.2614 23.814 18.6081 22.9475 17.8291 22.1898C17.0368 21.4192 16.1781 20.7236 15.2108 20.1736C14.9098 20.0024 14.9107 19.992 15.2041 19.8187C16.1219 19.2783 16.9716 18.63 17.7351 17.8875C18.6024 17.0457 19.349 16.088 19.9538 15.0417C20.0304 14.909 20.1099 14.7803 20.1336 14.626C20.008 13.8802 20.0083 13.1281 20.0143 12.3749C20.0222 11.3851 20.0208 10.3951 20.021 9.40517C20.0213 7.75196 20.0205 6.09875 20.0188 4.44552C19.2113 4.43548 18.4044 4.49657 17.6076 4.62808C13.3693 5.34401 9.95236 7.42324 7.41198 10.8874C5.57438 13.3933 4.5769 16.213 4.47033 19.3319C4.43549 19.7687 4.43582 20.2076 4.4713 20.6444C4.47253 21.1362 4.63963 22.5573 4.68157 22.7757C5.3883 26.4539 7.1467 29.5392 10.0392 31.9182C13.9042 35.0973 18.3344 36.2005 23.2424 35.1962C26.381 34.554 29.0485 33.029 31.2579 30.6904C32.2679 29.6256 33.1283 28.4286 33.8157 27.1322C34.4912 25.8547 34.9746 24.4846 35.2503 23.0661C35.4582 22.0617 35.5582 21.0381 35.5485 20.0125V20.0125ZM33.0821 20.3691C33.0815 20.676 33.0565 20.9803 33.0291 21.2863C32.8862 22.8389 32.4583 24.3519 31.7668 25.7495C30.9498 27.4192 29.7837 28.8941 28.3472 30.0744C26.9844 31.2135 25.4007 32.0587 23.6956 32.5569C22.3572 32.9459 20.9658 33.1216 19.5727 33.0777C18.4772 33.0507 17.39 32.8792 16.3394 32.5674C14.4562 32.0158 12.7206 31.0495 11.2601 29.7393C10.0915 28.6931 9.11942 27.4466 8.38967 26.0584C7.76199 24.8712 7.32427 23.593 7.09242 22.2703C7.07605 22.1786 7.10044 22.0527 6.99588 22.0013C7.00008 21.9769 7.00387 21.9515 7.00702 21.9247C6.87603 21.2805 6.8602 20.6217 6.86601 19.9729C6.86492 18.8996 7.00225 17.8305 7.27459 16.7922C8.02983 14.014 9.48003 11.689 11.7068 9.85453C13.0937 8.71359 14.7021 7.87238 16.4306 7.38397C17.4233 7.09462 18.4491 6.93419 19.4827 6.90663C19.8607 6.89759 19.8731 6.91842 19.8734 7.30785C19.8744 8.67766 19.8744 10.0475 19.8734 11.4173C19.8727 12.0623 19.9359 12.0317 19.2845 12.0136C18.9524 12.0044 18.762 12.1158 18.6343 12.4343C17.8288 14.4437 16.5107 16.0587 14.7583 17.3128C13.8347 17.9738 12.8608 18.5581 11.7116 18.7583C11.6868 18.7643 11.6639 18.7766 11.6452 18.7941C11.6265 18.8116 11.6127 18.8337 11.6051 18.8581C11.5602 19.6135 11.561 20.3708 11.6074 21.1261C11.651 21.2307 11.7433 21.242 11.8373 21.2435C12.0013 21.2525 12.1621 21.2917 12.3118 21.3592C15.3045 22.5576 17.4213 24.6439 18.6623 27.618C18.7659 27.8667 18.9131 27.9634 19.1711 27.9599C19.7133 27.9526 20.2561 27.9477 20.798 27.9619C21.0831 27.9693 21.2381 27.8711 21.3452 27.5929C21.8664 26.2385 22.6624 25.0543 23.6658 24.0118C24.7983 22.8194 26.195 21.9093 27.7435 21.3547C28.257 21.1717 28.568 20.9576 28.4555 20.3679C28.4185 20.1745 28.5308 20.0978 28.7261 20.0991C30.1893 20.1083 31.6526 20.089 33.1158 20.1097C33.1259 20.1091 33.1358 20.1082 33.1454 20.1068C33.0759 20.1801 33.0823 20.2774 33.0821 20.3691Z" fill="#F48120"/>
<path d="M4.47026 19.332C4.4706 19.7694 4.47093 20.2069 4.47125 20.6444Z" fill="#F7AA46"/>
<path d="M33.167 20.0866C33.1821 22.2052 32.673 24.2003 31.694 26.0691C30.4806 28.3856 28.723 30.1875 26.4469 31.4844C25.079 32.2608 23.5811 32.7816 22.0264 33.0214C20.9571 33.191 19.8793 33.1987 18.7959 33.1064C16.463 32.9077 14.353 32.1143 12.443 30.7819C10.4026 29.3586 8.88806 27.5025 7.89926 25.2137C7.14013 23.6103 6.82603 20.9151 6.80399 20.3765C6.75699 19.3654 6.84116 18.3524 7.0544 17.3629C7.36968 15.8843 7.93029 14.469 8.713 13.1754C10.2559 10.6498 12.4105 8.84194 15.1465 7.73144C16.2911 7.26592 17.4994 6.97584 18.7306 6.87102C19.067 6.84216 19.4017 6.82513 19.7383 6.8148C19.9141 6.80941 19.9673 6.87874 19.9668 7.0482C19.9626 8.65374 19.9628 10.2593 19.9676 11.8648C19.9683 12.0543 19.9025 12.1296 19.7183 12.1068C19.6978 12.1054 19.6773 12.1053 19.6569 12.1066C18.85 12.1151 18.8602 12.1194 18.5514 12.8432C18.1184 13.8488 17.525 14.7777 16.7945 15.5934C15.511 17.0397 13.9779 18.1314 12.1427 18.7823C11.9913 18.8376 11.8262 18.8433 11.6714 18.7985C11.5895 19.2503 11.641 19.706 11.639 20.1595C11.6375 20.5008 11.5866 20.8457 11.6719 21.1847C11.8667 21.1255 12.0481 21.1691 12.2334 21.2397C14.784 22.2117 16.7397 23.8797 18.1003 26.244C18.3681 26.7024 18.5945 27.1839 18.7766 27.6826C18.8345 27.8432 18.9234 27.8767 19.0724 27.8756C19.6963 27.8711 20.3204 27.8676 20.9442 27.8778C21.1095 27.8804 21.1706 27.8095 21.227 27.6702C22.5227 24.4641 24.8197 22.2997 28.0675 21.1382C28.3013 21.0545 28.3794 20.9586 28.3731 20.7113C28.3554 20.0193 28.3678 20.019 29.0488 20.019C30.3069 20.019 31.5651 20.0174 32.8232 20.0216C32.9384 20.0219 33.0713 19.9683 33.167 20.0866Z" fill="#FBD907"/>
<path d="M11.672 21.1847C11.5971 21.14 11.6065 21.0653 11.6065 20.9954C11.6059 20.3258 11.6059 19.6562 11.6065 18.9866C11.6065 18.9175 11.5933 18.8415 11.6715 18.7984C11.6717 19.5939 11.6719 20.3893 11.672 21.1847Z" fill="#F9C343"/>
<path d="M20.0177 4.44557C22.1264 4.42998 24.1609 4.82561 26.0804 5.68566C30.9475 7.86648 33.9989 11.5727 35.2222 16.7625C35.477 17.8262 35.5864 18.9195 35.5474 20.0125C35.515 20.0451 35.4762 20.0707 35.4334 20.0875C35.3906 20.1044 35.3448 20.1122 35.2988 20.1105C34.6087 20.1114 33.9182 20.1473 33.2285 20.0903C33.0714 20.0302 32.9069 20.0458 32.7443 20.0453C30.6742 20.0394 28.604 20.0485 26.5339 20.058C26.1872 20.0619 25.8412 20.0272 25.5022 19.9546C24.2081 19.7129 23.0117 19.102 22.0574 18.1954C21.1521 17.3498 20.5373 16.3091 20.1842 15.1192C20.1262 14.9238 20.0795 14.7247 20.0379 14.5239C19.9521 14.0823 19.9111 13.6333 19.9155 13.1835C19.9439 10.4463 19.9261 7.70914 19.9196 4.97195C19.9192 4.79321 19.8762 4.6005 20.0177 4.44557Z" fill="#EC1B24"/>
<path d="M25.3246 15.0069C25.5069 14.4368 25.649 13.9597 25.8148 13.4909C25.8748 13.321 25.8359 13.2343 25.6965 13.137C25.2847 12.8569 24.894 12.5468 24.5277 12.2093C24.979 12.2093 25.4313 12.1905 25.8812 12.2162C26.1577 12.232 26.2761 12.1348 26.347 11.8744C26.4694 11.4243 26.629 10.9844 26.7949 10.4725C26.9675 10.9938 27.1356 11.4392 27.2585 11.8967C27.3286 12.1576 27.4571 12.2255 27.7099 12.2147C28.1709 12.1931 28.6329 12.2126 29.0904 12.2732C28.7393 12.5283 28.4034 12.809 28.0321 13.0304C27.7404 13.2042 27.7197 13.3854 27.8326 13.6746C27.9942 14.0889 28.1145 14.5192 28.2743 15.0097C27.8247 14.6842 27.4245 14.4185 27.0539 14.1166C26.8535 13.9534 26.7223 13.9743 26.5335 14.1233C26.1659 14.4135 25.7782 14.678 25.3246 15.0069Z" fill="#FDF100"/>
</svg>
