<svg width="40" height="40" viewBox="0 0 40 40" fill="none" xmlns="http://www.w3.org/2000/svg">
<path d="M24.8078 22.7896C24.997 23.9403 24.8866 25.1856 24.6817 26.2891C24.5398 27.093 24.3192 27.8654 24.0669 28.6378C23.3891 30.7028 22.4118 32.7048 20.8827 34.2653C20.6305 34.5176 20.2995 34.7698 19.9212 34.6121C19.8266 34.5649 19.7478 34.5176 19.6847 34.423C19.5586 34.2338 19.6532 33.9816 19.7162 33.7767C19.795 33.5087 19.8581 33.2565 19.9369 32.9885C20.599 30.4506 21.2295 27.7235 21.1034 25.0753C21.0719 24.4763 21.0088 23.8457 20.7409 23.3098C20.4729 22.758 19.9842 22.3009 19.401 22.2063C19.0542 22.159 18.7074 22.2221 18.3921 22.3797C18.2502 22.4585 18.1084 22.5374 17.998 22.6477C17.8089 22.8369 17.667 23.0733 17.5724 23.3255C17.2729 24.1137 17.3832 24.9019 17.5094 25.7058C17.6197 26.3363 17.5094 27.0457 16.9419 27.4083C16.5005 27.692 15.9172 27.7235 15.4286 27.5344C14.9399 27.3452 14.5301 26.9511 14.2621 26.5097C13.4109 25.1226 13.3951 23.0891 13.868 21.5758C13.9626 21.2605 14.0887 20.961 14.2306 20.6773C14.6562 19.8261 15.334 19.1167 16.1379 18.6123C17.935 17.5246 20.1261 17.5088 21.9389 18.5807C23.1054 19.2586 23.8778 20.2832 24.4453 21.497C24.6029 21.9068 24.729 22.3324 24.8078 22.7896V22.7896ZM35.9998 10.3995C35.9998 10.7148 35.6846 10.9985 35.4639 11.1719C34.2501 12.1335 32.8314 12.8744 31.4127 13.4734C27.062 15.2862 22.1911 15.8694 17.5566 16.4684C14.8296 16.831 12.1025 17.099 9.37542 17.2724C8.36656 17.3354 7.34194 16.7837 6.49072 16.2793C5.60797 15.7433 4.7725 15.0497 4.28384 14.1355C3.88975 13.363 3.84246 12.1808 4.55182 11.566C5.08777 11.1089 5.90747 11.1246 6.56954 11.1719C7.34194 11.235 8.11435 11.4084 8.88676 11.5345C10.1163 11.7237 11.3616 11.9759 12.5754 12.165C19.732 13.2054 27.393 12.7167 34.1871 10.1C34.5338 9.95815 34.8964 9.76899 35.2747 9.75322C35.653 9.73746 35.9998 10.0054 35.9998 10.3995Z" fill="#008375"/>
<path d="M16.4532 8.12887C16.4532 9.6264 17.6512 10.8559 19.1329 10.8559C20.6147 10.8559 21.8127 9.6264 21.8127 8.12887C21.8127 7.90818 21.7654 7.68749 21.6708 7.48257C21.4344 6.9939 21.1822 6.74169 21.1979 6.15844C21.2452 5.35451 20.2364 5.33875 19.6847 5.33875C19.1014 5.33875 18.4709 5.41756 17.9349 5.68554C17.5093 5.90623 17.1467 6.23726 16.8788 6.64711C16.6108 7.07272 16.4689 7.56139 16.4532 8.06582V8.12887Z" fill="#D70035"/>
</svg>
