<svg width="40" height="40" viewBox="0 0 40 40" fill="none" xmlns="http://www.w3.org/2000/svg">
<path d="M31.9078 22.9614C33.6158 22.9614 35.0004 21.5868 35.0004 19.8912C35.0004 18.1956 33.6158 16.821 31.9078 16.821C30.1997 16.821 28.8151 18.1956 28.8151 19.8912C28.8151 21.5868 30.1997 22.9614 31.9078 22.9614Z" fill="url(#paint0_linear_6200_96)"/>
<path d="M8.09266 22.9614C9.80069 22.9614 11.1853 21.5868 11.1853 19.8912C11.1853 18.1956 9.80069 16.821 8.09266 16.821C6.38463 16.821 5 18.1956 5 19.8912C5 21.5868 6.38463 22.9614 8.09266 22.9614Z" fill="url(#paint1_linear_6200_96)"/>
<path fill-rule="evenodd" clip-rule="evenodd" d="M29.0034 25.8755C28.9014 24.356 27.6612 23.1171 26.1227 23.0158C25.8087 22.9924 25.5104 23.0235 25.22 23.0859C24.7255 23.195 24.2153 23.0391 23.8542 22.6807L17.402 16.2754C17.0331 15.878 16.9153 15.3248 17.0723 14.8027C17.1587 14.5222 17.2058 14.2261 17.2058 13.9144C17.2058 13.7351 17.1901 13.5559 17.1587 13.3845C17.088 12.7767 17.2921 12.1533 17.7552 11.6858C18.2262 11.2182 18.8541 11.0234 19.4664 11.0936C19.5056 11.1014 19.7647 11.1403 20.0002 11.1403C20.2435 11.1403 20.4947 11.1014 20.5339 11.0936C21.1462 11.0234 21.7741 11.226 22.2451 11.6858C22.716 12.1533 22.9123 12.7767 22.8416 13.3845C22.8102 13.5559 22.7945 13.7351 22.7945 13.9144C22.7945 15.6832 24.3016 17.1014 26.107 16.9767C27.6298 16.8754 28.87 15.6443 28.972 14.1326C29.0976 12.3403 27.669 10.8442 25.8872 10.8442C25.7067 10.8442 25.5261 10.8598 25.3534 10.891C24.7412 10.9611 24.1132 10.7585 23.6423 10.2988C23.1713 9.83121 22.9751 9.20783 23.0457 8.60003C23.1164 8.26497 23.085 7.85977 23.0771 7.75847C22.9358 6.36365 21.8526 5.24156 20.4711 5.03896C20.3141 5.01558 20.1571 5 20.0002 5C19.8432 5 19.6862 5.01558 19.5292 5.03896C18.1477 5.24935 17.0645 6.37144 16.9232 7.75847C16.9153 7.85977 16.8839 8.3273 16.9546 8.60003C17.0252 9.20783 16.8211 9.83121 16.358 10.2988C15.8871 10.7663 15.2591 10.9611 14.6469 10.891C14.4742 10.8598 14.2936 10.8442 14.1131 10.8442C12.3313 10.8442 10.9027 12.3325 11.0283 14.1248C11.1303 15.6443 12.3705 16.8832 13.909 16.9845C14.223 17.0079 14.5213 16.9767 14.8117 16.9144C15.3062 16.8053 15.8164 16.9612 16.1775 17.3196L22.6297 23.7248C22.9986 24.1223 23.1164 24.6755 22.9594 25.1976C22.873 25.4781 22.8259 25.7742 22.8259 26.0859C22.8259 26.2651 22.8416 26.4444 22.873 26.6158C22.9437 27.2236 22.7396 27.847 22.2765 28.3145C21.8055 28.782 21.1776 28.9768 20.5653 28.9067C20.5261 28.8989 20.267 28.86 20.0316 28.86C19.7882 28.86 19.537 28.8989 19.4978 28.9067C18.8855 28.9768 18.2576 28.7742 17.7866 28.3145C17.3157 27.847 17.1194 27.2236 17.1901 26.6158C17.2215 26.4444 17.2372 26.2651 17.2372 26.0859C17.2372 24.3171 15.7301 22.8989 13.9247 23.0235C12.4019 23.1248 11.1617 24.356 11.0597 25.8677C10.9341 27.6599 12.3627 29.1561 14.1445 29.1561C14.325 29.1561 14.5056 29.1405 14.6783 29.1093C15.2905 29.0392 15.9185 29.2418 16.3894 29.7015C16.8604 30.1691 17.0566 30.7924 16.986 31.4002C16.9153 31.7353 16.9467 32.1405 16.9546 32.2418C17.0959 33.6366 18.1791 34.7587 19.5606 34.9613C19.7176 34.9847 19.8746 35.0003 20.0316 35.0003C20.1885 35.0003 20.3455 34.9847 20.5025 34.9613C21.884 34.7509 22.9672 33.6288 23.1085 32.2418C23.1164 32.1405 23.1478 31.673 23.0771 31.4002C23.0065 30.7924 23.2106 30.1691 23.6737 29.7015C24.1446 29.234 24.7726 29.0392 25.3848 29.1093C25.5575 29.1405 25.7381 29.1561 25.9186 29.1561C27.7004 29.1561 29.129 27.6677 29.0034 25.8755Z" fill="url(#paint2_linear_6200_96)"/>
<defs>
<linearGradient id="paint0_linear_6200_96" x1="28.8151" y1="19.8909" x2="33.5957" y2="19.8909" gradientUnits="userSpaceOnUse">
<stop stop-color="#31C3E3"/>
<stop offset="1" stop-color="#228BCC"/>
</linearGradient>
<linearGradient id="paint1_linear_6200_96" x1="5" y1="19.8909" x2="9.7806" y2="19.8909" gradientUnits="userSpaceOnUse">
<stop stop-color="#31C3E3"/>
<stop offset="1" stop-color="#228BCC"/>
</linearGradient>
<linearGradient id="paint2_linear_6200_96" x1="11.0206" y1="20.0001" x2="29.0111" y2="20.0001" gradientUnits="userSpaceOnUse">
<stop stop-color="#F58220"/>
<stop offset="1" stop-color="#F04F24"/>
</linearGradient>
</defs>
</svg>
