<svg width="40" height="40" viewBox="0 0 40 40" fill="none" xmlns="http://www.w3.org/2000/svg">
<path d="M12.1091 16.6461C12.8608 17.12 13.3674 17.5122 13.3674 16.8585C13.3674 16.2049 13.7759 14.342 13.7759 13.0673C13.7759 11.7927 14.8708 10.273 14.8708 9.63567C14.8708 8.99836 16.08 8.29568 16.5866 8.63885C17.0932 8.98202 16.3088 11.1227 16.3088 12.1032C16.3088 13.0837 15.8349 16.6134 16.3088 16.401C16.7827 16.1885 20.3124 13.672 21.8485 12.8876C23.3846 12.1032 24.8063 10.9593 25.7377 10.4201C26.6692 9.88079 28.1889 9.47225 28.1889 10.4201C28.1889 11.3678 26.1136 12.8876 25.0514 13.5086C23.9892 14.1295 20.1817 16.2376 18.809 17.169C17.4364 18.1005 15.7532 18.4273 15.7532 18.9502C15.7532 19.4568 19.4627 21.859 20.6393 22.5616C21.8322 23.2643 23.1885 24.1958 25.0351 25.2743C26.8816 26.3528 27.9765 26.4672 28.8753 26.2384C29.774 26.026 33.7777 24.9148 33.7777 22.2838C33.7777 19.6529 30.5094 20.3392 29.5616 21.0909C28.6302 21.8263 27.8294 22.7414 27.8294 23.4114C27.8294 24.0814 27.617 24.6697 26.8653 24.6697C26.1136 24.6697 25.5253 24.9475 25.5253 23.7546C25.5253 22.5616 25.3456 20.4536 25.5253 18.9502C25.7051 17.4632 25.4926 16.8912 25.9829 16.2212C26.4731 15.5349 27.3392 15.4368 27.5843 15.9434C27.8294 16.45 27.8621 18.2312 27.5843 19.1463C27.3065 20.0614 27.7967 20.7314 28.1563 20.4046C28.5158 20.0614 30.5584 18.7378 32.6665 19.1463C34.7745 19.5548 36.0001 20.6007 36.0001 21.8426C36.0001 23.0846 34.9052 25.7972 32.454 26.5653C30.0192 27.3333 28.8426 27.1862 28.4994 27.3987C28.1563 27.6111 27.8131 28.3138 27.3392 28.3138C26.8653 28.3138 18.8744 23.8526 17.8612 23.0682C16.8317 22.3002 16.4232 21.5975 16.08 21.5975C15.7369 21.5975 15.7369 24.6697 15.7369 27.3823C15.7369 30.095 16.3905 31.4513 15.7369 31.4513C15.0832 31.4513 14.4786 30.3728 14.1191 29.4087C13.7432 28.4445 13.3347 25.4377 13.3347 23.3951C13.3347 21.3524 13.3347 20.568 12.9098 20.568C12.4686 20.568 12.2725 20.9112 11.4718 21.3687C10.671 21.8263 7.46815 23.7382 6.71645 24.3102C5.96475 24.8821 4.28159 25.0292 4.03647 24.6697C3.79135 24.3102 4.8372 23.7546 5.60524 23.4114C6.37328 23.0682 11.7823 20.0287 11.7823 19.5875C11.7823 19.1463 10.2952 18.0024 9.26569 17.6102C8.21985 17.218 5.01695 15.6493 4.8372 14.9956C4.65744 14.342 5.70329 13.3451 6.35694 13.5249C7.01059 13.7047 7.30474 14.6688 8.43229 14.9956C9.55984 15.3224 11.3574 16.1722 12.1091 16.6461V16.6461Z" fill="#FFBF4C"/>
</svg>
