<svg width="40" height="40" viewBox="0 0 40 40" fill="none" xmlns="http://www.w3.org/2000/svg">
<path d="M34.9999 17.3591H29.7264C29.7264 11.9596 25.3905 7.61658 19.9999 7.61658C14.6093 7.61658 10.2734 11.9596 10.2734 17.3591H4.99992C4.99992 25.6343 11.7382 32.3836 19.9999 32.3836C24.1014 32.3836 27.7928 30.7403 30.4882 28.0992C33.3007 25.3408 34.9999 21.5847 34.9999 17.3591Z" fill="white"/>
<path d="M10.2733 17.3591C10.2733 11.9596 14.6093 7.61658 19.9998 7.61658C25.3905 7.61658 29.8437 11.9596 29.7265 17.3591H24.6287C24.6092 17.5923 24.4529 17.7112 24.4529 17.7112C24.442 17.7222 24.3943 17.7557 24.3167 17.8102C23.9786 18.0474 23.0732 18.6825 22.1679 19.5893C20.9959 20.7631 20.3514 21.8195 20.2929 21.8781C20.2929 21.8781 20.1756 22.0542 19.9414 22.0542C19.7069 22.0542 19.5898 21.8781 19.5898 21.8781C19.5858 21.8741 19.5786 21.8651 19.5686 21.8514C19.5514 21.8279 19.5253 21.7906 19.4908 21.7413L19.4897 21.7399C19.2522 21.4002 18.6187 20.4948 17.7148 19.5893C16.7566 18.6297 15.8769 18.0231 15.556 17.8016C15.4843 17.7522 15.4404 17.7219 15.4296 17.7112C15.4296 17.7112 15.3567 17.6625 15.3049 17.5651C15.2761 17.5113 15.2538 17.4426 15.2538 17.3591H24.6287C24.6287 17.1243 24.4529 17.0069 24.4529 17.0069C24.4422 16.9962 24.3981 16.9658 24.3262 16.9162C24.0047 16.6945 23.1256 16.0881 22.1677 15.1288C21.2623 14.222 20.6282 13.3151 20.3915 12.9764C20.3372 12.8987 20.3037 12.8509 20.2927 12.8399C20.2927 12.8399 20.2441 12.7668 20.1469 12.7148C20.0931 12.6861 20.0246 12.6639 19.9414 12.6639C19.7069 12.6639 19.5898 12.8399 19.5898 12.8399C19.579 12.8507 19.5487 12.8948 19.4992 12.9668C19.2778 13.2888 18.6724 14.1697 17.7148 15.1288C16.6014 16.2439 15.4882 16.9482 15.4296 17.0069C15.4296 17.0069 15.2538 17.1243 15.2538 17.3591H10.2733Z" fill="#EE7626"/>
<path d="M10.2733 17.3591H4.99992C4.99992 25.6343 11.7383 32.3836 19.9998 32.3836C28.2616 32.3836 34.9999 25.6343 34.9999 17.3591H29.7265C29.7265 22.7585 25.3905 27.1016 19.9998 27.1016C14.6093 27.1016 10.2733 22.7585 10.2733 17.3591Z" fill="#EE7626"/>
</svg>
