<svg width="40" height="40" viewBox="0 0 40 40" fill="none" xmlns="http://www.w3.org/2000/svg">
<path d="M33.7995 19.9825C33.7995 27.5976 27.6231 33.7783 19.9995 33.7783C12.376 33.7783 6.19952 27.5976 6.19952 19.9825C6.19952 12.3674 12.376 6.18677 19.9995 6.18677C27.6231 6.18677 33.7995 12.3674 33.7995 19.9825Z" fill="#F8C213"/>
<path d="M19.9998 33.778C27.6233 33.778 33.7998 27.5974 33.7998 19.9823C33.7998 12.3672 27.6233 6.18654 19.9998 6.18654C12.3763 6.18654 6.19982 12.3672 6.19982 19.9823C6.19982 27.5974 12.3763 33.778 19.9998 33.778V33.778ZM19.9998 5C28.2763 5 34.9998 11.7119 34.9998 20C34.9998 28.2881 28.2763 35 19.9998 35C11.7233 35 4.99982 28.2704 4.99982 19.9823C4.99982 11.7119 11.7233 5 19.9998 5V5ZM13.9998 19.4864C12.941 19.2208 12.0057 20.4604 11.4763 21.3991C11.6704 20.1063 13.241 18.0165 13.9998 19.4864ZM11.5822 19.4333C11.9528 18.1582 12.7998 17.6978 13.2586 18.0697C12.641 18.2822 12.1822 18.6541 11.5822 19.4333ZM14.3881 21.4699C13.9998 20.3542 12.4116 21.6293 11.8645 22.32C12.0057 21.0803 13.3822 19.9469 14.0351 20.1063C14.8822 20.3188 14.9351 21.0094 14.3881 21.4699ZM22.9645 24.7285C23.0528 23.1169 21.4998 22.3554 21.1998 20.7084C20.8998 19.0614 23.6351 16.405 21.9057 13.6954C25.1528 16.3341 22.6116 17.8926 24.2528 20.0885C23.6175 19.8937 22.9822 19.327 22.8057 19.026C21.8881 20.2302 25.0469 21.8949 22.9645 24.7285V24.7285ZM17.6351 11.6588C18.0233 11.6588 18.6939 11.9244 18.4116 12.2432C17.5116 13.0933 16.2763 12.7568 15.3057 13.6068C15.7116 12.5266 17.4763 12.3849 17.6351 11.6588ZM16.5233 15.2184C16.7351 15.2184 16.9292 14.7048 17.3528 14.4746C16.9469 14.4923 16.7175 14.4746 16.5763 14.4746C16.8057 15.0413 16.4175 15.2361 16.2586 14.8288C16.2939 15.059 16.3998 15.2184 16.5233 15.2184ZM20.5645 12.863C20.2469 13.2172 18.7822 13.7131 18.3586 14.209C19.9645 14.1736 18.1116 15.0236 17.5645 16.9362C17.3351 17.7863 15.4116 17.5207 15.1292 17.0779C15.6057 17.1842 17.1233 16.8477 17.7057 14.8288C17.7233 14.7757 17.6704 14.758 17.6351 14.8111C16.8939 15.6257 16.3469 15.7674 16.0292 15.5549C15.6939 15.8383 15.5351 16.0331 15.2351 16.5821C14.6881 16.0862 14.9351 15.6612 15.4645 15.1653C15.5351 15.0945 15.4469 15.0059 15.3586 14.9528C14.8822 14.7403 14.7763 14.085 15.2704 13.8194C15.1292 14.2621 15.6057 14.4923 16.0116 14.1381C16.4351 13.7485 17.1057 14.3152 17.9704 13.9787C18.0586 12.6151 20.6704 12.4557 19.0469 11.6588C20.5998 11.8536 20.9528 12.438 20.5645 12.863V12.863ZM21.4822 11.8713C21.341 11.4463 21.7645 10.2952 22.0645 10.4723C22.7528 10.8442 23.2116 12.4911 23.1233 13.3235C22.6116 12.7214 22.2586 12.3849 21.4822 11.8713ZM8.9704 18.4238C9.46452 17.1133 10.6998 15.5372 12.6939 14.3506C13.1528 13.1818 12.9939 12.3672 17.8292 10.5077C17.9528 9.79929 17.9175 8.94923 18.1292 8.94923C18.341 8.94923 19.0469 9.268 19.5586 9.9941C19.7704 9.97639 19.9645 9.94097 20.0881 9.92326C20.1763 9.51594 20.4586 8.36482 20.8469 7.79811C21.1998 7.24911 21.8704 7.19599 22.7351 7.90437C23.6351 8.63046 24.2704 8.93152 25.5057 10.5077C26.5469 10.9681 28.1704 11.5702 29.5822 13.2881C28.9645 12.8808 28.2763 12.7391 27.7116 12.6682C28.8586 13.6777 29.6175 15.3247 29.0351 17.7332C28.8057 15.4664 27.1469 14.5277 26.1233 13.8194C26.6704 15.732 24.2704 15.0767 23.5469 13.6423C23.7939 13.7131 24.041 13.7131 24.1822 13.6068C24.1116 10.7025 22.7351 9.02007 22.1175 8.50649C21.341 7.86895 20.9175 9.42739 20.6351 10.5962C20.5469 10.9858 20.2116 11.2692 19.7881 11.2515C19.8763 11.1098 19.9998 10.7379 20.0175 10.6139C18.7998 10.7025 17.441 11.4286 16.5939 11.8005C14.4586 12.7568 13.9292 13.2349 13.4528 14.8465C11.741 15.5549 9.78217 17.503 8.9704 18.4238V18.4238ZM19.5586 18.0874C19.7881 18.353 21.1998 20.4604 19.5763 23.1523C20.0175 21.1865 18.7822 17.3967 17.4233 19.327C18.3586 19.7344 18.6586 20.4782 18.4116 21.2043C18.0233 20.4959 17.0704 19.7521 16.1175 20.0531C15.641 20.2125 15.0057 20.2125 14.5292 19.5218C13.9116 18.6187 14.9528 17.5207 13.1881 17.6092C15.3233 16.5289 14.7057 18.6187 15.7292 18.8666C16.9292 19.1499 17.0704 18.4239 17.4763 17.9457C17.8116 17.5561 18.4116 17.255 19.0645 17.68C19.3645 16.7592 18.9233 15.2893 19.7881 14.5277C20.1057 14.2444 21.1292 14.2798 21.6586 14.7048C20.8822 14.6871 19.9998 15.5726 19.5586 18.0874V18.0874ZM14.7233 26.588C14.9881 26.4817 15.2175 26.0744 15.2175 26.0744C15.2175 26.0744 14.7233 25.9681 14.3704 25.7379C14.3351 26.1275 14.6175 26.4994 14.7233 26.588ZM16.8586 24.2503C16.7528 24.6222 16.7704 24.9764 16.5939 25.1535C17.6528 24.6399 18.0939 24.4097 18.1822 23.719C18.2175 23.4534 17.4763 23.3825 17.2998 23.4179C17.441 23.595 17.6351 24.1617 17.4586 24.3034C17.2469 24.4451 17.0704 24.268 16.8586 24.2503ZM12.6233 23.6836C12.6233 24.0909 13.4528 24.6045 13.4528 24.6045C13.4528 24.6045 13.241 23.7721 13.2939 23.17C13.1175 23.1877 12.7116 23.4711 12.6233 23.6836ZM9.92335 20.9917C10.241 20.7792 10.1351 20.5313 10.0822 20.4427C10.0116 20.2834 9.62335 20.1771 9.74688 19.8229C9.81746 19.5927 10.0822 19.5927 10.1351 19.5041C10.1704 19.4156 9.97629 19.2385 9.67629 19.327C9.2704 19.4333 8.93511 19.7875 8.86452 19.876C8.93511 20.0885 9.53511 20.7084 9.92335 20.9917V20.9917ZM30.4645 14.3506C34.2763 21.222 30.641 30.0059 22.5057 31.8654C23.4763 30.608 24.2528 28.8371 24.1645 28.2349C23.1057 28.9965 21.041 29.3506 20.5645 29.1027C22.5057 27.3495 22.2057 25.5077 21.0763 25.366C19.9469 25.2243 18.6233 26.9599 18.7292 29.3329C17.7763 28.9079 14.6881 29.51 14.4057 27.0661C14.0528 26.5348 13.8939 25.6316 14.0175 25.2597C16.7881 26.8536 15.6057 23.2763 17.2822 22.9398C17.1057 22.4439 15.6939 21.2928 13.8233 23.17C13.7351 23.4711 13.7528 24.693 13.8939 25.1358C13.0292 25.0118 12.341 24.1972 12.1998 23.9847C11.2822 23.8961 10.3822 23.6482 9.51746 21.3282C8.79393 20.8501 8.42335 20.3896 8.15864 19.8583C8.17629 19.7344 8.26452 19.1499 8.81158 18.6718C8.81158 18.6718 8.61746 19.1677 8.74099 19.3802C10.2057 18.2113 10.3998 19.3447 11.1586 19.1854C11.1763 20.0708 10.2586 20.673 10.3116 21.5407C10.8586 22.9575 11.2116 23.0992 12.2704 23.2586C13.541 22.621 14.5998 21.1865 16.1528 21.1688C17.4057 21.1511 18.9939 21.771 19.2586 23.5065C19.4351 24.7462 16.7704 26.5348 15.7292 26.1806C14.0175 28.0224 16.8939 28.6423 17.8469 28.3589C18.5351 25.2066 20.2116 24.3034 21.5528 24.7639C23.0175 25.2597 23.2292 27.1192 22.2233 28.1641C23.0351 27.9693 24.2175 27.3318 24.6233 25.8264C24.941 26.1629 25.0469 26.9599 25.0645 27.2432C25.9116 26.0213 25.6469 23.3117 24.9586 22.2845C25.5233 22.32 26.0351 22.5325 26.5822 23.0106C26.9704 21.0272 25.6822 18.5301 25.0998 18.1228C25.488 18.0874 26.0351 18.1228 26.7763 18.477C26.5822 17.2904 25.5233 16.5289 25.5233 15.608C25.9469 16.4581 28.241 16.6883 28.1175 19.8052C27.8528 19.5573 27.2704 19.2916 26.9881 19.2562C27.7998 21.2751 27.7469 23.2586 27.3233 24.6576C27.1469 24.3743 26.8645 24.0378 26.5998 23.9315C26.8645 25.0472 26.5292 28.111 25.7528 29.3329C30.8881 25.8087 27.3586 20.425 29.6175 18.229C29.141 20.549 30.3233 22.5325 30.1998 23.8961C31.241 21.7355 31.5586 18.1051 30.4645 14.3506V14.3506Z" fill="#231F20"/>
</svg>
