<svg width="40" height="40" viewBox="0 0 40 40" fill="none" xmlns="http://www.w3.org/2000/svg">
<path d="M23.8033 19.5706C23.0612 19.5706 21.9343 18.8412 21.9343 18.092L22.381 12.0465C22.381 11.2974 22.9856 10.6863 23.7346 10.6863C24.4836 10.6863 25.0882 11.2974 25.0882 12.0465L25.5692 18.138C25.5623 18.8937 24.5523 19.5706 23.8033 19.5706Z" fill="#EB2D4B"/>
<path d="M19.7863 15.4138C19.5527 16.0907 18.4808 16.8858 17.7318 16.6492L11.8706 14.3559C11.1217 14.1193 10.7094 13.3833 10.943 12.6999C11.1766 12.0231 11.9737 11.6617 12.7158 11.8982L18.9136 13.3702C19.6626 13.6002 20.0199 14.7304 19.7863 15.4138Z" fill="#EB2D4B"/>
<path d="M14.403 17.8518C15.0077 18.2724 15.475 19.488 15.0146 20.0992L10.9537 24.7516C10.4933 25.3627 9.62753 25.5204 9.02286 25.0998C8.41819 24.6793 8.30138 23.8513 8.75489 23.2402L12.0943 18.0358C12.5615 17.4181 13.7984 17.4378 14.403 17.8518Z" fill="#EB2D4B"/>
<path d="M15.1259 23.4864C15.7306 23.0658 17.0842 23.0198 17.5515 23.6309L20.9115 28.7631C21.3719 29.3676 21.262 30.2022 20.6573 30.6227C20.0526 31.0433 19.1868 30.8921 18.7265 30.281L14.59 25.6286C14.1159 25.0306 14.5213 23.9069 15.1259 23.4864Z" fill="#EB2D4B"/>
<path d="M20.9127 24.505C20.6928 23.8216 21.0844 22.5862 21.8334 22.3628L27.9969 20.9763C28.7459 20.7528 29.5361 21.1274 29.7559 21.8108C29.9758 22.4942 29.5498 23.2236 28.794 23.447L22.8572 25.6944C22.1083 25.9112 21.1325 25.1818 20.9127 24.505Z" fill="#EB2D4B"/>
<path d="M23.8536 34.7138C23.1115 34.7204 21.9983 34.0501 21.9915 33.3536L22.39 27.7549C22.3831 27.0583 22.9809 26.4866 23.723 26.4866C24.4582 26.4801 25.0698 27.0452 25.0698 27.7417L25.5851 33.3798C25.592 34.0698 24.5957 34.7072 23.8536 34.7138Z" fill="#EB2D4B"/>
<path d="M34.9326 20.1078C34.7127 20.7846 33.7095 21.5995 33.0086 21.3892L27.5529 19.3192C26.8589 19.1155 26.4741 18.3927 26.694 17.7224C26.9138 17.0456 27.6559 16.6645 28.3568 16.8748L34.1286 18.1233C34.8226 18.327 35.1524 19.431 34.9326 20.1078Z" fill="#EB2D4B"/>
<path d="M24.0067 5.65705C24.5839 6.09733 25.0168 7.28671 24.5633 7.83213L20.5711 11.9457C20.1176 12.4911 19.2793 12.5765 18.7021 12.1363C18.1249 11.696 18.0219 10.8943 18.4754 10.3489L21.7804 5.65705C22.2339 5.11164 23.4295 5.21678 24.0067 5.65705Z" fill="#EB2D4B"/>
<path d="M5.74749 11.2755C6.33842 10.8484 7.65082 10.7498 8.09058 11.3083L11.2513 16.0396C11.6911 16.5982 11.5674 17.3933 10.9696 17.8204C10.3787 18.2475 9.54041 18.1358 9.10752 17.5839L5.18405 13.3454C4.74429 12.7803 5.15657 11.7026 5.74749 11.2755Z" fill="#EB2D4B"/>
<path d="M5.78019 29.3197C5.54657 28.6494 5.85577 27.4272 6.54977 27.2038L12.2391 25.8172C12.9263 25.5938 13.6821 25.9552 13.9157 26.6321C14.1494 27.3023 13.7852 28.0252 13.0912 28.2486L7.64916 30.4762C6.96204 30.6997 6.02068 29.99 5.78019 29.3197Z" fill="#EB2D4B"/>
</svg>
