<svg width="40" height="40" viewBox="0 0 40 40" fill="none" xmlns="http://www.w3.org/2000/svg">
<path d="M10.9568 14.2942C10.906 14.2356 10.8412 14.1907 10.7684 14.1638C10.6956 14.1369 10.6172 14.1288 10.5405 14.1404C10.4638 14.1519 10.3912 14.1826 10.3295 14.2297C10.2679 14.2768 10.2191 14.3388 10.1878 14.4098L4.44553 27.4299H9.73123L13.983 17.7894L10.9568 14.2942Z" fill="#CD0102"/>
<path d="M24.1344 13.7644C24.0836 13.7058 24.0188 13.6609 23.9461 13.634C23.8733 13.6071 23.7949 13.599 23.7182 13.6106C23.6414 13.6221 23.5689 13.6528 23.5072 13.6999C23.4455 13.747 23.3968 13.809 23.3655 13.88L17.2561 27.43H22.5418L26.7935 17.7895L24.1344 13.7644Z" fill="#CD0102"/>
<path d="M18.2429 12.7575C18.181 12.6879 18.1028 12.6348 18.0151 12.6033C17.9275 12.5717 17.8334 12.5626 17.7414 12.5769C17.6493 12.5911 17.5624 12.6282 17.4884 12.6847C17.4144 12.7413 17.3558 12.8155 17.3179 12.9006L10.85 27.4299H16.1357L21.2001 16.0904L18.2429 12.7575Z" fill="#CD0102"/>
<path d="M28.9087 13.6052H24.9846L27.8455 17.6633H28.7407C29.4632 17.7207 30.1385 18.0447 30.6355 18.5721C31.1326 19.0996 31.4158 19.7929 31.4303 20.5176C31.4303 22.0542 30.1802 23.4764 28.6436 23.4764H25.054L23.3355 27.4298H28.9087C30.6716 27.4298 32.3624 26.7295 33.609 25.4829C34.8556 24.2363 35.5559 22.5455 35.5559 20.7826V20.2525C35.5559 19.3796 35.384 18.5152 35.0499 17.7087C34.7159 16.9022 34.2263 16.1694 33.609 15.5522C32.9917 14.9349 32.2589 14.4453 31.4525 14.1112C30.646 13.7772 29.7816 13.6052 28.9087 13.6052V13.6052Z" fill="#CD0102"/>
</svg>
