<svg width="40" height="40" viewBox="0 0 40 40" fill="none" xmlns="http://www.w3.org/2000/svg">
<path d="M24.5002 19.9167C24.5002 22.35 22.5169 24.3333 20.0836 24.3333C17.6502 24.3333 15.6669 22.35 15.6669 19.9167C15.6669 17.4833 17.6502 15.5 20.0836 15.5C22.5169 15.5 24.5002 17.4833 24.5002 19.9167ZM20.0002 29.15C25.0836 29.15 29.2169 25.05 29.2169 20C29.2169 14.95 25.1002 10.85 20.0002 10.85C14.9002 10.85 10.7836 14.95 10.7836 20C10.7836 25.05 14.9169 29.15 20.0002 29.15ZM24.4169 9.5C30.2502 9.5 35.0002 14.2 35.0002 20C35.0002 25.8 30.2669 30.5 24.4169 30.5C22.8336 30.5 21.3336 30.15 20.0002 29.5333C18.6502 30.15 17.1502 30.5 15.5836 30.5C9.75023 30.5 5.00023 25.8 5.00023 20C5.00023 14.2 9.73356 9.5 15.5836 9.5C17.1669 9.5 18.6669 9.85 20.0002 10.4667C21.3502 9.85 22.8502 9.5 24.4169 9.5Z" fill="#E50113"/>
</svg>
