<svg width="40" height="40" viewBox="0 0 40 40" fill="none" xmlns="http://www.w3.org/2000/svg">
<path d="M4.85915 21.7916L3.10787 19.6125L3.09265 19.6172L3.126 21.7916H1.99992V18.2086H3.01373L4.79242 20.461L4.8044 20.4516L4.75292 18.2087H5.87901V21.7916H4.85915Z" fill="#0772BA"/>
<path d="M9.21636 21.7913L8.99173 21.2736H7.39527L7.15243 21.7913H5.88971L7.73512 18.2084H8.66087L10.4912 21.7913H9.21636ZM8.20879 19.3239H8.19051L7.71705 20.5482H8.68227L8.20879 19.3239Z" fill="#0772BA"/>
<path d="M14.2669 21.7914L14.3033 19.1089L14.2911 19.0995L13.3107 21.7914H12.5338L11.5502 19.0994L11.5382 19.1088L11.5745 21.7914H10.4941V18.2084H12.0056L12.9192 20.5671H12.9314L13.8328 18.2084H15.3475V21.7914H14.2669Z" fill="#0772BA"/>
<path d="M19.6146 21.7914L19.39 21.2737H17.7934L17.5506 21.7914H16.2881L18.1335 18.2084H19.0593L20.8894 21.7914H19.6146ZM18.6069 19.324H18.5886L18.1151 20.5483H19.0804L18.6069 19.324Z" fill="#0772BA"/>
<path d="M24.9743 21.4816C24.7616 21.6236 24.52 21.7165 24.267 21.7535C24.1424 21.7724 24.0167 21.7834 23.8907 21.7864C23.8319 21.7882 23.7644 21.7898 23.6873 21.7913H22.0089V18.2084H23.4264C23.6043 18.2084 23.7398 18.2108 23.8329 18.2155C23.9632 18.22 24.093 18.2334 24.2214 18.2557C24.4704 18.2926 24.7045 18.3973 24.8982 18.5582C24.9855 18.6296 25.0555 18.7198 25.1028 18.8222C25.1502 18.9245 25.1737 19.0363 25.1715 19.1491C25.1715 19.4737 24.9935 19.714 24.6374 19.8699C25.1431 20.0053 25.396 20.2827 25.396 20.7018C25.4006 20.8574 25.3641 21.0114 25.29 21.1484C25.2159 21.2853 25.107 21.4003 24.9743 21.4816ZM23.9089 19.064C23.8065 19.0241 23.6968 19.0063 23.5871 19.012H23.135V19.5697H23.5811C23.8926 19.5697 24.0484 19.4744 24.0485 19.2837C24.0511 19.2371 24.0391 19.1908 24.014 19.1514C23.989 19.112 23.9522 19.0814 23.9088 19.064H23.9089ZM24.1002 20.3922C23.9796 20.3492 23.8517 20.3299 23.7238 20.3354H23.135V20.9877H23.7177C23.85 20.9944 23.982 20.9701 24.1032 20.9169C24.1548 20.8931 24.1981 20.8546 24.2278 20.8062C24.2575 20.7579 24.2722 20.7018 24.2702 20.6451C24.2721 20.5904 24.2567 20.5365 24.2262 20.4911C24.1957 20.4457 24.1516 20.4111 24.1002 20.3922H24.1002Z" fill="#0772BA"/>
<path d="M28.5297 21.7913L28.3052 21.2736H26.7087L26.4658 21.7913H25.2031L27.0485 18.2084H27.9743L29.8045 21.7913H28.5297ZM27.5221 19.3239H27.5039L27.0304 20.5482H27.9956L27.5221 19.3239Z" fill="#0772BA"/>
<path d="M32.6688 21.7914L30.9174 19.6123L30.9024 19.617L30.9357 21.7913H29.8096V18.2084H30.8234L32.6019 20.4608L32.6143 20.4513L32.5626 18.2084H33.6887V21.7914H32.6688Z" fill="#0772BA"/>
<path d="M36.6278 21.7914L35.3711 20.2433H35.3591V21.7914H34.1844V18.2084H35.3591V19.8203H35.3711L36.6703 18.2084H37.9026L36.3789 19.9951L37.9997 21.7913L36.6278 21.7914Z" fill="#0772BA"/>
</svg>
