<svg width="40" height="40" viewBox="0 0 40 40" fill="none" xmlns="http://www.w3.org/2000/svg">
<path d="M20.0002 16.0238C20.0044 16.0313 20.0081 16.0379 20.0124 16.0455L25.8078 5.05261C25.5259 4.91255 25.2296 5.08597 25.0122 5.19346C23.5222 5.93049 22.0362 6.67574 20.5543 7.42921C20.3847 7.52659 20.1952 7.58446 20.0002 7.59851C19.8051 7.58445 19.6157 7.52658 19.446 7.42921C17.9657 6.67292 16.4797 5.92767 14.9881 5.19346C14.7708 5.08597 14.4745 4.91255 14.1925 5.05261C16.105 8.68034 18.011 12.2956 19.9879 16.0455C19.9922 16.0379 19.996 16.0313 20.0002 16.0238Z" fill="#FCB714"/>
<path d="M28.6775 14.0482C28.0425 13.398 28.0395 13.3931 28.8452 13.049C29.8069 12.6383 30.766 12.2199 31.741 11.8432C32.1185 11.6973 32.2384 11.4798 32.2354 11.096C32.2224 9.4791 32.2183 7.86188 32.2392 6.24516C32.2459 5.7304 32.0588 5.69228 31.6468 5.86991C29.4865 6.80143 27.3225 7.7245 25.1549 8.63914C24.8956 8.76099 24.6905 8.97418 24.5786 9.23789C23.3873 11.484 22.216 13.7409 21.0087 15.9783C20.7397 16.4766 20.9497 16.5562 21.3727 16.6698C24.3824 17.4778 26.2128 19.7893 26.2133 22.7492C26.2137 25.3759 24.597 27.6511 22.0724 28.5764C21.4085 28.819 20.7069 28.9424 20 28.9409C19.2931 28.9424 18.5915 28.819 17.9275 28.5764C15.403 27.6511 13.7863 25.3759 13.7867 22.7492C13.7872 19.7894 15.6175 17.4779 18.6272 16.6698C19.0503 16.5562 19.2603 16.4766 18.9913 15.9783C17.784 13.7408 16.6127 11.484 15.4213 9.23789C15.3095 8.97418 15.1043 8.76099 14.8451 8.63914C12.6762 7.72774 10.5122 6.80466 8.35313 5.86991C7.94118 5.69228 7.75406 5.7304 7.76072 6.24516C7.78162 7.86188 7.77752 9.4791 7.76459 11.096C7.76152 11.4798 7.88145 11.6973 8.25895 11.8432C9.23397 12.2199 10.1931 12.6383 11.1547 13.049C11.9605 13.3931 11.9574 13.398 11.3225 14.0482C8.45834 16.981 7.28644 20.5074 7.83878 24.5427C8.65981 30.5408 14.0494 35.002 19.9998 35.0005C25.9503 35.002 31.3399 30.5408 32.1609 24.5427C32.7135 20.5074 31.5416 16.981 28.6775 14.0482Z" fill="#FCB714"/>
</svg>
