<svg width="40" height="40" viewBox="0 0 40 40" fill="none" xmlns="http://www.w3.org/2000/svg">
<path d="M5.31459 16.621C7.34595 13.8188 11.0356 12.2117 17.7929 14.1485C29.6909 17.4452 33.5049 9.73913 26.7475 6.60726C24.7162 5.57704 22.3946 5.00012 19.9901 5.00012C12.8182 5.00012 6.84847 10.0276 5.31459 16.621Z" fill="#E39717"/>
<path d="M30.5202 9.32703C32.9247 11.6347 34.5415 14.7666 34.9561 18.3517C35.3706 22.0605 32.9247 27.088 25.048 25.7281V15.5496C28.0328 15.1375 30.1886 13.6952 30.6861 11.5523C30.8519 10.7693 30.769 9.98637 30.5202 9.32703Z" fill="#E39717"/>
<path d="M9.50417 30.6733C7.0997 28.3656 5.48291 25.2337 5.06834 21.6486C4.52941 17.8162 7.0997 12.9123 14.9764 14.2722V24.4508C11.9915 24.8629 9.83582 26.3052 9.33834 28.448C9.17252 29.1486 9.25543 29.8903 9.50417 30.6733Z" fill="#E39717"/>
<path d="M22.2319 25.7281C28.9893 27.665 32.6789 26.0578 34.7103 23.2556C33.1764 29.9726 27.1652 34.9177 19.9104 35.0001C17.5059 35.0001 15.1843 34.4232 13.153 33.393C6.39561 30.1375 10.251 22.4314 22.2319 25.7281Z" fill="#E39717"/>
</svg>
