<svg width="40" height="40" viewBox="0 0 40 40" fill="none" xmlns="http://www.w3.org/2000/svg">
<path d="M12.6221 19.1279C12.7791 17.8895 13.2325 16.7558 13.8953 15.7965L7.5465 11.8023C6.63952 13.1977 5.94185 14.7674 5.52325 16.4244L12.6221 19.1279ZM12.6395 19.7209L5.45348 17.2093C5.27906 18.1337 5.17441 19.093 5.17441 20.0698C5.17441 21.6919 5.43604 23.2616 5.90697 24.7093H14.2442C13.2325 23.436 12.6395 21.814 12.6395 20.0698V19.7209ZM21.0465 19.8256V17.2791L17.9767 14.0698C16.9477 14.4535 16.0232 15.0988 15.2907 15.9186L21.0465 19.8256ZM21.0465 22.2674V20.2442L14.7849 16.3372C14.0872 17.2093 13.5988 18.2384 13.3721 19.3721L21.0465 22.2674ZM13.25 20C13.2151 20.2616 13.1977 20.5407 13.1977 20.8198C13.1977 22.25 13.6337 23.593 14.3663 24.7093H21.0465V22.686L13.25 20ZM15.5872 26.0698C15.5872 26.0698 15.5698 26.0698 15.5698 26.0523H11.1221L10.4767 25.2151H5.87208C5.99418 25.5291 6.13371 25.8256 6.27325 26.1221C7.84301 26.1744 8.34883 27.4651 8.34883 27.4651H15.1163V27.4826H16.4593L17.7325 26.0523H15.5872V26.0698ZM19.9477 5C17.1918 5 14.6105 5.75 12.4128 7.07558L17.8721 12.7965C18.5349 12.6047 19.2325 12.5 19.9651 12.5C24.0814 12.5 27.4128 15.8663 27.4128 20.0174C27.4128 23.4186 25.1628 26.2965 22.0756 27.2209C21.5872 27.3605 18.1337 28.1977 16.3023 28.1802C12.2732 28.1453 7.66859 28.3721 7.61627 28.3721L28.2674 29.2442L9.15115 29.4186L25.5988 30.343L9.46511 30.6395C12.1512 33.3256 15.8488 35 19.9477 35C28.1628 35 34.8256 28.2849 34.8256 20C34.8256 11.7151 28.1628 5 19.9477 5V5ZM14.2267 15.2907C14.9767 14.3663 15.936 13.6337 17.0349 13.1453L11.6279 7.61628C10.2151 8.57558 8.97673 9.77907 7.96511 11.157L14.2267 15.2907V15.2907Z" fill="#E50113"/>
</svg>
