<svg width="40" height="40" viewBox="0 0 40 40" fill="none" xmlns="http://www.w3.org/2000/svg">
<path fill-rule="evenodd" clip-rule="evenodd" d="M20.0001 35C25.5025 35 30.2929 31.9802 32.8175 27.4506C22.719 25.4813 18.4465 31.652 9.38373 30.4047C12.1026 33.2275 15.8571 35 20.0001 35Z" fill="#1E417C"/>
<path fill-rule="evenodd" clip-rule="evenodd" d="M19.9997 5C11.8432 5 5.24026 11.6959 5.24026 19.9673C5.24026 21.1489 5.36973 22.2649 5.62867 23.3153C6.40548 23.5779 8.1533 23.5779 11.9079 22.7901C13.5262 22.4619 15.9214 22.068 19.0286 22.7245C18.8344 22.068 18.705 21.4115 18.705 20.7551C18.705 17.3415 21.4238 14.5843 24.79 14.5843C28.1562 14.5843 30.875 17.3415 30.875 20.7551C30.875 22.7901 29.904 24.6282 28.3504 25.7442C29.7745 25.7442 31.7165 25.8755 33.2702 26.5976C34.2412 24.6282 34.7591 22.3962 34.7591 19.9673C34.8238 11.6959 28.2209 5 19.9997 5Z" fill="#89D2DD"/>
<path fill-rule="evenodd" clip-rule="evenodd" d="M19.5473 23.9712C14.2391 22.7896 11.0671 25.6124 6.60043 25.4811L6.66517 25.6124C8.21879 27.5818 9.83714 28.3695 11.6497 28.5664L12.4265 28.6321C15.2748 28.6977 18.641 27.3848 22.5898 26.5314C21.2304 26.0062 20.2593 25.0872 19.5473 23.9712Z" fill="#0F9BD7"/>
</svg>
