<svg width="40" height="40" viewBox="0 0 40 40" fill="none" xmlns="http://www.w3.org/2000/svg">
<path d="M19.2691 6.78806L24.676 14.001C24.1342 14.4731 23.6008 14.9342 23.0712 15.3997C20.5534 17.6125 18.1028 19.8962 15.8631 22.3941C14.2869 24.152 12.7982 25.9791 11.7443 28.1153C11.3068 29.0021 10.9808 29.9225 10.9239 30.9222C10.8096 32.9288 12.171 34.1979 13.7585 34.6085C14.6462 34.8382 15.5475 34.837 16.4527 34.7571C16.555 34.7379 16.6608 34.7533 16.7534 34.8009C16.4776 34.8402 16.2027 34.8861 15.926 34.9175C14.604 35.0677 13.2969 35.0484 12.0345 34.5555C11.3982 34.3127 10.8329 33.9142 10.3903 33.3966C9.29782 32.1207 8.20151 30.848 7.10137 29.5786C6.40448 28.7775 6.10135 27.8351 6.06089 26.7947C5.99566 25.1172 6.46159 23.5519 7.09389 22.0254C8.02856 19.769 9.31295 17.7155 10.7613 15.7598C13.1461 12.5395 15.918 9.68171 18.9382 7.05792C19.0339 6.97482 19.1346 6.89751 19.2691 6.78806Z" fill="url(#paint0_linear_6200_520)"/>
<path d="M20.7304 33.2119L15.3235 25.999C15.8653 25.5269 16.3987 25.0658 16.9283 24.6003C19.4461 22.3875 21.8967 20.1038 24.1364 17.6059C25.7126 15.848 27.2013 14.0209 28.2551 11.8847C28.6926 10.9979 29.0186 10.0775 29.0756 9.07784C29.1899 7.07117 27.8284 5.80214 26.241 5.3915C25.3532 5.16184 24.452 5.16304 23.5468 5.24286C23.4445 5.26211 23.3386 5.24669 23.2461 5.19905C23.5218 5.15982 23.7968 5.11391 24.0735 5.08248C25.3955 4.93229 26.7026 4.95158 27.965 5.44445C28.6013 5.68734 29.1665 6.08578 29.6092 6.60338C30.7016 7.87932 31.798 9.15199 32.8981 10.4214C33.595 11.2224 33.8981 12.1649 33.9386 13.2053C34.0038 14.8828 33.5379 16.4481 32.9056 17.9746C31.9709 20.231 30.6865 22.2845 29.2382 24.2402C26.8534 27.4605 24.0814 30.3183 21.0612 32.9421C20.9656 33.0252 20.8649 33.1025 20.7304 33.2119Z" fill="url(#paint1_radial_6200_520)"/>
<defs>
<linearGradient id="paint0_linear_6200_520" x1="10.1799" y1="33.9489" x2="18.5582" y2="10.4895" gradientUnits="userSpaceOnUse">
<stop stop-color="#0760B0"/>
<stop offset="1" stop-color="#0C5FAB"/>
</linearGradient>
<radialGradient id="paint1_radial_6200_520" cx="0" cy="0" r="1" gradientUnits="userSpaceOnUse" gradientTransform="translate(24.531 24.5493) scale(13.0962 13.0962)">
<stop stop-color="#FCE86D"/>
<stop offset="1" stop-color="#F6801E"/>
</radialGradient>
</defs>
</svg>
