<svg width="40" height="40" viewBox="0 0 40 40" fill="none" xmlns="http://www.w3.org/2000/svg">
<path d="M31.0443 20.008L31.8322 19.2221V12.0331L24.7991 5H15.2524L8.1573 11.9991V19.2221L8.9572 20.022L8.1573 20.8119V27.9629L15.1944 35H24.7931L31.8421 27.9489V20.7939L31.0443 20.008ZM20.0017 32.5023L11.8348 24.3394L12.5787 23.5975L15.2424 26.2612H24.7791L27.3907 23.6515L28.1226 24.3814L20.0017 32.5023ZM16.2602 20.078L20.0017 16.3345L23.7452 20.078L20.0017 23.8195L16.2602 20.078ZM27.3907 16.3825L24.7791 13.7708H15.2424L12.5787 16.4365L11.8348 15.6926L20.0017 7.53166L28.1226 15.6526L27.3907 16.3825Z" fill="#ED1C24"/>
</svg>
