<svg width="40" height="40" viewBox="0 0 40 40" fill="none" xmlns="http://www.w3.org/2000/svg">
<path d="M1.83978 21.0277C2.07288 21.0276 2.306 21.0298 2.53904 21.0264C2.61506 21.0253 2.65278 21.0445 2.66387 21.1308C2.68937 21.329 2.80835 21.4602 2.98241 21.539C3.27061 21.6694 3.56218 21.6567 3.84732 21.5341C4.00087 21.468 4.09658 21.3457 4.09164 21.1631C4.08672 20.9809 3.97271 20.8898 3.82247 20.8301C3.53685 20.7167 3.24342 20.6286 2.94866 20.5441C2.60879 20.4467 2.28071 20.319 1.98081 20.1241C1.57647 19.8612 1.43819 19.475 1.48681 19.0034C1.50451 18.8317 1.51243 18.6591 1.56527 18.4919C1.71821 18.008 2.02478 17.6545 2.45196 17.4119C3.2543 16.9561 4.10733 16.8906 4.97231 17.1561C5.71805 17.385 5.97563 17.9202 5.98883 18.6729C5.99034 18.7593 5.95431 18.7866 5.87417 18.7863C5.408 18.7843 4.94181 18.7843 4.47562 18.7864C4.39569 18.7868 4.36254 18.7567 4.35435 18.6744C4.33888 18.519 4.24665 18.4176 4.10735 18.3671C3.88172 18.2841 3.63582 18.2789 3.40703 18.3522C3.27058 18.3946 3.17587 18.484 3.16204 18.6396C3.14871 18.7895 3.22652 18.8885 3.34373 18.9596C3.51056 19.0608 3.69647 19.1114 3.88155 19.1637C4.22022 19.2595 4.56455 19.3364 4.88761 19.484C5.64575 19.8303 5.96008 20.3055 5.69178 21.2892C5.54894 21.8129 5.24065 22.2145 4.76919 22.4745C3.97954 22.9098 3.14119 23.032 2.27443 22.8086C1.68515 22.6567 1.24325 22.2961 1.05315 21.6736C1.00062 21.5017 0.997881 21.3242 1.00078 21.1455C1.00228 21.0529 1.04179 21.0253 1.1268 21.0265C1.36442 21.03 1.60212 21.0277 1.83978 21.0277Z" fill="#0C4DA1"/>
<path d="M19.1323 20.0685C19.2606 19.9512 19.4004 19.8479 19.5494 19.7602C19.868 19.5768 20.2052 19.5379 20.5566 19.625C20.7658 19.6768 20.9369 19.7923 21.027 19.9986C21.0739 20.1058 21.1067 20.0881 21.1758 20.0218C21.575 19.6385 22.0492 19.5157 22.5822 19.6128C22.9747 19.6843 23.1753 19.9249 23.1978 20.3358C23.216 20.6675 23.1373 20.9863 23.0818 21.3081C23.0144 21.6993 22.9371 22.0889 22.8716 22.4805C22.8543 22.584 22.8155 22.6197 22.712 22.6176C22.3969 22.6112 22.0815 22.6122 21.7662 22.617C21.6646 22.6186 21.6324 22.5986 21.6545 22.4833C21.7494 21.9879 21.8337 21.4904 21.9219 20.9936C21.9244 20.9798 21.9273 20.9661 21.9292 20.9522C21.9618 20.7116 21.9158 20.581 21.7807 20.5295C21.5745 20.4509 21.3012 20.5396 21.1996 20.7221C21.0907 20.9178 21.0725 21.14 21.0327 21.3552C20.9637 21.7272 20.896 22.0995 20.8336 22.4727C20.8162 22.5769 20.7805 22.6215 20.6675 22.6183C20.357 22.6095 20.0461 22.6115 19.7355 22.6172C19.6242 22.6193 19.5937 22.5885 19.6162 22.4722C19.7033 22.0228 19.7842 21.5722 19.8616 21.121C19.881 21.0058 19.889 20.889 19.8855 20.7722C19.8807 20.6114 19.7913 20.5255 19.6363 20.5107C19.4048 20.4886 19.2358 20.5905 19.1328 20.8155C19.0185 21.0653 18.9998 21.3389 18.9482 21.604C18.8902 21.902 18.8358 22.2008 18.7872 22.5005C18.7729 22.5882 18.7385 22.6176 18.6536 22.6166C18.3292 22.613 18.0048 22.613 17.6803 22.6167C17.5826 22.6179 17.564 22.5777 17.58 22.4891C17.7448 21.579 17.9083 20.6687 18.0703 19.7581C18.0845 19.6779 18.1197 19.6493 18.1982 19.6502C18.4951 19.6534 18.7921 19.6534 19.0892 19.6504C19.1756 19.6495 19.2038 19.6784 19.1826 19.767C19.1622 19.8523 19.1531 19.9406 19.1323 20.0685Z" fill="#0C4DA1"/>
<path d="M36.7286 20.4091C37.004 20.147 37.2619 19.91 37.5091 19.6619C37.5496 19.6186 37.5989 19.5849 37.6535 19.5632C37.708 19.5415 37.7666 19.5323 37.825 19.5363C38.1677 19.5439 38.5107 19.5382 38.8535 19.5396C38.9019 19.5398 38.9536 19.5254 39.0001 19.5573C39.0011 19.6107 38.9556 19.6253 38.9268 19.65C38.5597 19.9666 38.1937 20.2846 37.8216 20.5951C37.7402 20.663 37.7376 20.7146 37.7817 20.8048C38.0495 21.3529 38.3115 21.9039 38.5752 22.454C38.6513 22.6129 38.651 22.6134 38.4728 22.6135C38.1025 22.6138 37.732 22.6067 37.362 22.6173C37.232 22.6211 37.1777 22.5719 37.1357 22.4546C37.0319 22.1649 36.9123 21.8812 36.8061 21.5923C36.7666 21.4848 36.7391 21.4508 36.6342 21.5398C36.5826 21.581 36.5395 21.6322 36.5073 21.6905C36.4751 21.7488 36.4544 21.813 36.4466 21.8795C36.4168 22.0876 36.3702 22.2931 36.3349 22.5004C36.321 22.5822 36.2883 22.6185 36.2002 22.6172C35.8757 22.6122 35.5512 22.6121 35.2265 22.6169C35.1294 22.6182 35.1026 22.5955 35.1219 22.4892C35.3607 21.1788 35.5966 19.8679 35.8297 18.5565C35.8685 18.3403 35.9157 18.1253 35.9447 17.9078C35.9596 17.7958 36.0107 17.7725 36.1076 17.7737C36.4184 17.7776 36.7294 17.7797 37.0402 17.7728C37.1567 17.7702 37.1785 17.8122 37.1585 17.9204C37.0244 18.6465 36.8927 19.3731 36.7633 20.1001C36.7471 20.1909 36.7158 20.2805 36.7286 20.4091Z" fill="#0C4DA1"/>
<path d="M32.7027 20.1057C32.8005 20.022 32.8709 19.9565 32.9464 19.8979C33.3455 19.5881 33.7896 19.508 34.269 19.6421C34.5894 19.7317 34.7645 19.9518 34.8082 20.2921C34.8481 20.6022 34.7718 20.8968 34.7187 21.1951C34.6425 21.623 34.5592 22.0496 34.4858 22.4779C34.4685 22.579 34.4354 22.6201 34.3288 22.6177C34.0135 22.6105 33.6979 22.6125 33.3826 22.6166C33.2851 22.6178 33.2543 22.5906 33.2742 22.4864C33.3611 22.032 33.4405 21.5762 33.5248 21.1212C33.5455 21.006 33.5501 20.8884 33.5384 20.7718C33.5362 20.7199 33.5192 20.6698 33.4896 20.6276C33.4599 20.5855 33.4188 20.5532 33.3714 20.5347C33.2511 20.4866 33.1175 20.4871 32.9975 20.5359C32.8775 20.5848 32.7801 20.6784 32.7248 20.798C32.6232 21.0268 32.6007 21.2762 32.5549 21.519C32.4943 21.8405 32.4373 22.1626 32.3839 22.4854C32.3685 22.5774 32.3369 22.6201 32.2346 22.6178C31.9147 22.6104 31.5945 22.6115 31.2746 22.617C31.1667 22.6189 31.1416 22.5837 31.1612 22.4774C31.3265 21.5812 31.4892 20.6846 31.6492 19.7874C31.6667 19.689 31.7011 19.6456 31.8074 19.6485C32.0907 19.6563 32.3743 19.6543 32.6577 19.6496C32.7596 19.6479 32.7875 19.6861 32.7645 19.7835C32.7422 19.8786 32.7273 19.9755 32.7027 20.1057Z" fill="#0C4DA1"/>
<path d="M12.8414 20.7895C12.6769 20.7895 12.5124 20.7872 12.3479 20.7905C12.2728 20.792 12.2351 20.7769 12.228 20.6854C12.2117 20.4764 12.0895 20.3693 11.8849 20.3632C11.621 20.3552 11.4398 20.4723 11.335 20.7207C11.244 20.9408 11.187 21.1741 11.1663 21.4122C11.1497 21.5863 11.1924 21.7505 11.3555 21.8485C11.5132 21.9433 11.7638 21.9201 11.9134 21.8014C11.9755 21.7522 12.035 21.6956 12.0636 21.6218C12.1133 21.4931 12.1965 21.4608 12.3278 21.4658C12.6244 21.4772 12.9218 21.4728 13.2187 21.4676C13.3227 21.4659 13.3454 21.4939 13.3086 21.5954C13.1897 21.9239 12.9904 22.1864 12.6952 22.3612C12.0758 22.728 11.4126 22.7896 10.737 22.5811C10.1305 22.3939 9.85913 21.8435 9.99074 21.1551C10.1634 20.2518 10.8711 19.6378 11.7994 19.5889C12.1434 19.5707 12.4852 19.5815 12.8126 19.7103C13.2519 19.883 13.4753 20.2157 13.4618 20.6616C13.459 20.757 13.4316 20.795 13.3349 20.7913C13.1706 20.7849 13.0059 20.7895 12.8414 20.7895Z" fill="#0C4DA1"/>
<path d="M27.0827 20.5576C27.0363 20.0448 26.708 19.6815 26.2383 19.602C25.9109 19.5465 25.5904 19.5802 25.3071 19.786C25.2445 19.8315 25.18 19.8742 25.092 19.935C25.0966 19.8759 25.0964 19.8435 25.102 19.8121C25.213 19.1817 25.3222 18.5509 25.4387 17.9215C25.4613 17.7995 25.4308 17.7648 25.3124 17.7671C25.0018 17.7733 24.6908 17.7748 24.3802 17.7663C24.2659 17.7631 24.2296 17.8101 24.2156 17.9145C24.1957 18.0626 24.1646 18.2091 24.1384 18.3563C23.8934 19.7318 23.6478 21.1071 23.4018 22.4823C23.3844 22.5791 23.3987 22.6187 23.504 22.6168C23.7873 22.6116 24.0706 22.6116 24.3541 22.617C24.447 22.6187 24.4817 22.582 24.4973 22.4924C24.5111 22.4133 24.5164 22.3287 24.5706 22.237C24.6852 22.4786 24.8645 22.6233 25.1059 22.671C25.5591 22.7607 25.9873 22.6857 26.3488 22.3853C26.9129 21.9165 27.1491 21.2916 27.0827 20.5576ZM25.6983 21.5575C25.6577 21.6256 25.6059 21.6861 25.5453 21.7362C25.3879 21.8628 25.1576 21.8909 25.0036 21.8023C24.864 21.7219 24.7822 21.5168 24.8199 21.3075C24.8523 21.1086 24.9155 20.9163 25.0071 20.7379C25.1241 20.5183 25.4254 20.4114 25.6489 20.5128C25.8529 20.6054 25.8625 20.7966 25.8661 20.9226C25.8671 21.1953 25.8056 21.3837 25.6983 21.5575Z" fill="#0C4DA1"/>
<path d="M30.8842 20.4964C30.9392 20.0025 30.7456 19.741 30.2657 19.6392C29.8856 19.5586 29.5009 19.5746 29.1179 19.5959C28.8203 19.6124 28.5284 19.6721 28.2583 19.8117C27.9886 19.9511 27.7981 20.1593 27.7147 20.4636C27.6926 20.5438 27.7052 20.5725 27.791 20.5717C28.1202 20.5684 28.4493 20.57 28.7785 20.5708C28.8007 20.5728 28.823 20.5684 28.8428 20.5581C28.8627 20.5478 28.8794 20.532 28.8911 20.5126C28.9653 20.4079 29.0716 20.3318 29.193 20.2964C29.3144 20.261 29.4439 20.2684 29.5608 20.3173C29.7146 20.3835 29.7349 20.5437 29.6016 20.6486C29.5348 20.6986 29.4568 20.7305 29.3747 20.7413C28.9825 20.8062 28.5892 20.8652 28.1982 20.9367C27.6855 21.0305 27.3699 21.3451 27.2718 21.8443C27.2131 22.1429 27.3165 22.3811 27.5718 22.5346C27.7499 22.642 27.9521 22.7004 28.1587 22.7043C28.606 22.7229 29.0459 22.5839 29.4054 22.3106C29.4375 22.3915 29.4238 22.4571 29.4243 22.5206C29.4247 22.5831 29.442 22.6157 29.5097 22.6154C29.8754 22.6138 30.2411 22.6151 30.6068 22.6141C30.6727 22.6139 30.7122 22.5847 30.656 22.5218C30.5564 22.4102 30.5712 22.2877 30.5943 22.1532C30.689 21.6006 30.822 21.0546 30.8842 20.4964ZM29.5259 21.3868C29.4586 21.7357 29.2434 22.0372 28.8527 22.0356C28.6682 22.0346 28.5688 21.9792 28.5455 21.8645C28.5162 21.7207 28.5991 21.5991 28.7625 21.5226C28.9896 21.4163 29.2439 21.4232 29.4749 21.3348C29.5163 21.319 29.5342 21.3437 29.5259 21.3868Z" fill="#0C4DA1"/>
<path d="M9.55028 20.5234C9.62768 20.0321 9.42151 19.7398 8.94846 19.6415C8.53684 19.556 8.12084 19.5721 7.7057 19.6043C7.43575 19.6208 7.17162 19.6917 6.92846 19.813C6.66783 19.9473 6.48164 20.149 6.39117 20.4377C6.36449 20.5228 6.36003 20.5753 6.4783 20.5728C6.7981 20.566 7.11814 20.5697 7.43808 20.5711C7.4624 20.5736 7.48693 20.5691 7.5088 20.5579C7.53067 20.5467 7.54898 20.5293 7.56156 20.5078C7.70187 20.2973 8.00231 20.216 8.23362 20.3183C8.37977 20.3829 8.40208 20.538 8.27887 20.6429C8.21373 20.6953 8.13598 20.7286 8.05385 20.7395C7.66183 20.8051 7.26773 20.8596 6.87809 20.9375C6.54669 21.0038 6.23852 21.1413 6.07554 21.4667C5.76889 22.0789 5.9238 22.5351 6.61386 22.6751C7.09537 22.7728 7.54819 22.6583 7.96309 22.3891C7.99987 22.3652 8.03642 22.3109 8.07937 22.3332C8.12391 22.3563 8.10616 22.4197 8.10103 22.463C8.08581 22.5915 8.14166 22.6243 8.25834 22.6175C8.41323 22.6084 8.56901 22.6152 8.72441 22.6151C8.90267 22.6149 9.08092 22.6149 9.25918 22.615C9.34549 22.6152 9.37471 22.5823 9.31346 22.5083C9.2348 22.4133 9.23213 22.3119 9.2543 22.1933C9.35813 21.6376 9.4623 21.0818 9.55028 20.5234ZM8.18981 21.4007C8.1177 21.7625 7.88893 22.0371 7.53121 22.0332C7.50839 22.0332 7.48546 22.0346 7.46275 22.0329C7.34712 22.0245 7.24246 21.9953 7.21041 21.8613C7.18356 21.7491 7.26165 21.6078 7.37214 21.5491C7.61202 21.4217 7.88671 21.427 8.13641 21.3368C8.19264 21.3165 8.1979 21.3602 8.18981 21.4007H8.18981Z" fill="#0C4DA1"/>
<path d="M17.3836 20.6481C17.362 20.3094 17.2153 20.042 16.9278 19.8608C16.6065 19.6581 16.2549 19.579 15.8818 19.5834C14.7342 19.5799 14.0206 20.2124 13.8615 21.374C13.7879 21.9114 14.044 22.3442 14.5747 22.56C14.995 22.7308 15.4279 22.7418 15.8674 22.6452C16.8512 22.429 17.4474 21.6479 17.3836 20.6481ZM15.99 21.6005C15.9327 21.7047 15.8596 21.7933 15.752 21.8435C15.582 21.923 15.4052 21.9458 15.242 21.838C15.0853 21.7346 15.0624 21.5615 15.08 21.3891C15.1031 21.1424 15.1665 20.9014 15.2675 20.6761C15.3223 20.5589 15.4152 20.4649 15.5302 20.41C15.6453 20.3552 15.7753 20.3431 15.8981 20.3757C16.0372 20.4135 16.1082 20.5195 16.1391 20.6539C16.1533 20.7264 16.1632 20.7998 16.1689 20.8735C16.1581 21.1587 16.1066 21.3883 15.99 21.6005V21.6005Z" fill="#0C4DA1"/>
</svg>
