<svg width="40" height="40" viewBox="0 0 40 40" fill="none" xmlns="http://www.w3.org/2000/svg">
<path d="M26.0776 15.8253C25.9243 15.7425 25.7775 15.6615 25.6345 15.5825C25.3348 15.4171 25.0522 15.261 24.7628 15.1184C23.1175 14.3079 21.3839 13.8989 19.5466 14.09C17.7498 14.2768 16.1668 14.9477 14.9543 16.3357C13.3506 18.1716 13.4465 20.5371 15.1713 22.2589C15.9315 23.0178 16.8281 23.5668 17.803 23.9989C17.925 24.053 18.0477 24.1053 18.1823 24.1627L18.1829 24.1629C18.249 24.1911 18.3182 24.2206 18.3914 24.2521L17.8289 25.8271C17.6276 25.7436 17.4266 25.6641 17.2269 25.5851C16.7901 25.4122 16.3593 25.2417 15.945 25.038C14.6311 24.3917 13.3965 23.6203 12.4049 22.5189C11.5183 21.534 10.9345 20.4041 10.8873 19.0548C10.8308 17.438 11.5047 16.1271 12.6797 15.0669C14.0312 13.8475 15.6668 13.2552 17.4468 13.0318C20.1431 12.6935 22.7317 13.1743 25.2564 14.1014C25.3253 14.1267 25.4002 14.149 25.4758 14.1715C25.6964 14.2372 25.923 14.3048 26.0247 14.4534C26.1207 14.5938 26.1047 14.8114 26.0887 15.0283C26.0819 15.1204 26.0751 15.2123 26.077 15.2982C26.0792 15.4038 26.0787 15.5095 26.0781 15.6314C26.0779 15.6914 26.0776 15.7555 26.0776 15.8253Z" fill="#0066AE"/>
<path d="M29.887 21.222L29.8873 21.2213L29.8882 21.2195C29.9304 21.1328 29.9731 21.0452 30.0168 20.9566L16.6524 20.9565C16.6573 20.9856 16.6651 21.0141 16.6757 21.0416C16.7413 21.1489 16.8117 21.2541 16.8822 21.3594C17.0354 21.5882 17.1886 21.817 17.2915 22.0666C17.56 22.718 18.0026 22.8921 18.6565 22.7415C18.8333 22.7008 19.0194 22.6999 19.2211 22.699C19.3178 22.6985 19.4182 22.6981 19.5229 22.6932L17.823 28.0264C17.9746 28.0317 18.1241 28.0372 18.272 28.0426C18.7831 28.0615 19.275 28.0796 19.767 28.0836C19.8326 28.0841 19.9309 27.9553 19.9608 27.8683C20.534 26.1988 21.1044 24.5282 21.6605 22.853C21.7418 22.6082 21.8574 22.5013 22.1183 22.4883C22.9698 22.4459 23.8208 22.3933 24.6718 22.3408C24.9265 22.325 25.1814 22.3093 25.4361 22.2938C26.7211 22.2179 28.0058 22.1382 29.2904 22.0545C29.369 22.0494 29.4833 22.0145 29.5147 21.9571C29.645 21.7188 29.7641 21.4744 29.887 21.222Z" fill="#0066AE"/>
<path d="M17.3199 16.6619C17.8801 15.9914 18.5775 15.4487 19.3652 15.0704L19.3761 15.0651C20.1004 14.7094 20.1016 14.7087 20.7226 15.2264C20.8163 15.3045 20.9206 15.3773 21.0249 15.4501C21.2615 15.6152 21.4979 15.7801 21.6098 16.0067C21.7261 16.2421 21.7005 16.5512 21.6754 16.8544C21.6669 16.9568 21.6584 17.0586 21.6555 17.1566C21.6493 17.3682 21.7398 17.4569 21.9259 17.5163C22.3293 17.6451 22.7318 17.7767 23.1343 17.9083C23.6317 18.071 24.1293 18.2337 24.6284 18.391C24.9455 18.4909 25.1468 18.6615 25.1923 19.0082C25.2017 19.0804 25.3136 19.1666 25.3961 19.1955C25.5307 19.2325 25.6688 19.255 25.8081 19.2626C26.3081 19.3228 26.3219 19.3381 26.3095 19.8887C26.2773 19.8907 26.2449 19.8933 26.2122 19.8958C26.1412 19.9014 26.0692 19.9071 25.9971 19.9072C24.2408 19.9081 22.4844 19.908 20.728 19.9069C20.3243 19.9066 20.3242 19.9039 20.3127 19.5183C20.2881 18.6956 20.2881 18.6954 19.4636 18.696C18.6661 18.6966 18.6659 18.6966 18.6577 19.4932C18.6569 19.5716 18.6571 19.65 18.6573 19.7424C18.6574 19.7896 18.6575 19.841 18.6575 19.8974H15.0645C15.1679 19.7826 15.2654 19.662 15.3626 19.5417C15.7244 19.094 16.0823 18.6513 16.723 18.5304C16.8196 18.5122 16.9451 18.3646 16.9619 18.2615C17.0046 17.9995 17.1376 17.8654 17.3817 17.7882C17.5895 17.7225 17.7909 17.6354 17.9918 17.5486C18.029 17.5325 18.0662 17.5164 18.1034 17.5005C18.355 17.3928 18.319 17.2077 18.2837 17.0261C18.2697 16.9545 18.2559 16.8834 18.2599 16.8178C18.2626 16.7723 18.0621 16.6836 17.9484 16.6689C17.8153 16.6515 17.6796 16.6549 17.5295 16.6586C17.4628 16.6602 17.3933 16.6619 17.3199 16.6619Z" fill="#0066AE"/>
<path d="M21.3722 24.6607L21.2431 26.1224C21.4374 26.0822 21.6263 26.0459 21.8111 26.0103C22.208 25.934 22.5858 25.8613 22.9567 25.7628C23.9332 25.5035 24.8747 25.1502 25.7137 24.5684C25.7179 24.5655 25.7221 24.5625 25.7265 24.5595C25.7962 24.5114 25.8857 24.4497 25.8953 24.3846C25.9539 23.9867 26.0015 23.5873 26.0524 23.1604C26.0686 23.0238 26.0853 22.8844 26.1027 22.7414C24.6232 23.7275 23.1327 24.5102 21.3722 24.6607Z" fill="#0066AE"/>
<path fill-rule="evenodd" clip-rule="evenodd" d="M5.14561 19.9918C5.12148 19.2917 5.42922 18.7185 5.91951 18.2239C9.63072 14.4796 13.3419 10.7353 17.053 6.99087C17.2088 6.83367 17.365 6.67689 17.5212 6.52011L17.5218 6.51957C17.7881 6.25233 18.0545 5.98501 18.3187 5.71572C19.2562 4.76023 20.7165 4.76217 21.6622 5.71709C25.7933 9.88832 29.9253 14.0586 34.0584 18.2279C35.092 19.2704 35.1343 20.6674 34.1046 21.7222C32.7406 23.1194 31.3643 24.5045 29.988 25.8896C29.4224 26.4588 28.8568 27.028 28.292 27.5981C26.1348 29.7756 23.9786 31.9541 21.8233 34.1336C21.3503 34.6143 20.826 34.9596 20.1369 34.9961C19.4061 35.035 18.7942 34.7799 18.2801 34.2577C16.9351 32.8917 15.5862 31.5294 14.2334 30.171C11.4717 27.385 8.70955 24.5992 5.94706 21.8139C5.44944 21.3124 5.12626 20.7387 5.14561 19.9918ZM5.95203 20.0348C5.98432 20.1159 6.01249 20.2 6.04066 20.2841C6.10387 20.4728 6.16709 20.6614 6.27694 20.8172C6.45219 21.0658 6.67219 21.284 6.89108 21.5011C6.9419 21.5515 6.99267 21.6018 7.0428 21.6525C9.11362 23.7448 11.1859 25.8358 13.2596 27.9253C15.1632 29.8473 17.0662 31.7701 18.9684 33.6935C19.1014 33.83 19.2605 33.9385 19.4361 34.0124C19.6118 34.0864 19.8005 34.1244 19.9911 34.1241C20.1817 34.1239 20.3704 34.0854 20.5458 34.011C20.7213 33.9365 20.88 33.8277 21.0127 33.6908C22.048 32.6508 23.0805 31.6081 24.1101 30.5625C27.2283 27.4143 30.3471 24.2665 33.4665 21.1194C34.1229 20.4578 34.1382 19.5715 33.4861 18.9129C32.7699 18.1895 32.0535 17.4663 31.3368 16.7433C27.9096 13.2802 24.4823 9.81708 21.0549 6.35409C20.443 5.73615 19.5675 5.73209 18.9403 6.3369C18.878 6.39699 18.8186 6.46009 18.7592 6.52319C18.716 6.5691 18.6727 6.61509 18.6283 6.65985C14.567 10.7592 10.5059 14.8586 6.4448 18.9582C6.15886 19.2469 6.0077 19.5975 5.95203 20.0348Z" fill="#0066AE"/>
</svg>
