<svg width="40" height="40" viewBox="0 0 40 40" fill="none" xmlns="http://www.w3.org/2000/svg">
<path d="M18.2678 5.10783C19.4046 4.96663 20.5577 4.96255 21.6946 5.10477C22.1665 5.11035 22.6199 5.25367 23.0857 5.31025C24.2602 5.5789 25.42 5.94138 26.4967 6.48788C22.1613 6.49708 17.8255 6.4904 13.4902 6.49095C14.3014 6.07747 15.1656 5.77975 16.0375 5.52233C16.333 5.47235 16.6158 5.3684 16.9093 5.31025C17.3644 5.25721 17.8072 5.11443 18.2678 5.10783Z" fill="#EA0A2A"/>
<path d="M11.051 7.95803C11.1198 7.90499 11.1952 7.84432 11.2879 7.85399C15.9433 7.85548 20.5986 7.85399 25.2535 7.85446C26.4346 7.86004 27.6163 7.84377 28.7964 7.86263C29.4323 8.29905 30.0101 8.82159 30.5686 9.35434C23.525 9.34876 16.4813 9.35332 9.43762 9.3523C9.9365 8.84508 10.4848 8.38776 11.051 7.95803Z" fill="#EA0A2A"/>
<path d="M7.17883 12.2054C7.50186 11.6839 7.85756 11.1837 8.22701 10.6943C11.7506 10.6968 15.2737 10.6953 18.7968 10.6947C18.303 11.2066 17.8011 11.7129 17.2874 12.2059C13.9177 12.2054 10.5481 12.2059 7.17883 12.2054Z" fill="#EA0A2A"/>
<path d="M21.2042 10.6954C24.7283 10.6954 28.2519 10.6954 31.7756 10.6954C32.0003 11.0304 32.2642 11.3393 32.4787 11.6829C32.5995 11.8527 32.6973 12.0378 32.8226 12.205C29.4478 12.205 26.073 12.2091 22.6982 12.2025C22.2727 11.7885 21.8548 11.3664 21.437 10.9448C21.3509 10.8693 21.272 10.7872 21.2042 10.6954Z" fill="#EA0A2A"/>
<path d="M6.46456 13.5425C9.62589 13.5456 12.7872 13.5379 15.9485 13.546C15.469 14.064 14.9385 14.5351 14.4631 15.0572C11.5897 15.0627 8.71673 15.0576 5.84387 15.0597C6.01006 14.5387 6.22557 14.0335 6.46456 13.5425Z" fill="#EA0A2A"/>
<path d="M24.0333 13.5461C27.2043 13.54 30.3753 13.5416 33.5463 13.5457C33.771 14.0427 33.9784 14.5454 34.1623 15.0588C31.3287 15.0613 28.495 15.0578 25.6609 15.0603C25.6293 15.0578 25.5656 15.0527 25.5335 15.0506C25.0402 14.5428 24.5353 14.0458 24.0333 13.5461Z" fill="#EA0A2A"/>
<path d="M5.44097 16.3966C7.99943 16.3981 10.558 16.3936 13.1164 16.3987C12.6069 16.8723 12.1346 17.3851 11.6331 17.867C11.5618 17.9113 11.4736 17.8889 11.3946 17.8955C9.30953 17.8924 7.22489 17.8949 5.13977 17.8945C5.18611 17.5814 5.25648 17.273 5.31711 16.963C5.33698 16.7699 5.38442 16.5818 5.44097 16.3966Z" fill="#EA0A2A"/>
<path d="M5.02058 19.2503C15.007 19.2499 24.9933 19.2503 34.9791 19.2503C35.0336 20.1875 34.9797 21.1287 34.8446 22.0577C34.8272 22.4934 34.6851 22.9093 34.6224 23.3383C34.2367 24.9852 33.5875 26.5721 32.679 28.0015C31.1065 30.4919 28.7875 32.5063 26.0934 33.6988C25.2261 34.0891 24.3197 34.3831 23.3964 34.6104C23.0081 34.6634 22.6345 34.798 22.2412 34.8142C20.7589 35.0614 19.2359 35.0624 17.7535 34.8137C17.3591 34.7984 16.9841 34.6644 16.5963 34.6083C14.9561 34.2164 13.3775 33.5621 11.9553 32.6519C9.49766 31.0946 7.51189 28.803 6.32211 26.1485C6.25991 25.9707 6.14532 25.8143 6.10708 25.6277C9.12264 25.6242 12.1377 25.6273 15.1528 25.6262C16.3997 26.8961 17.668 28.1457 18.9236 29.4074C19.2844 29.7621 19.6334 30.13 20.0019 30.477C22.49 27.9846 24.9859 25.4988 27.4705 23.0033C27.5026 22.2537 27.4745 21.4985 27.4842 20.7468C19.9962 20.7468 12.5087 20.7474 5.02073 20.7468C4.99403 20.2487 4.99254 19.7488 5.02058 19.2503Z" fill="#EA0A2A"/>
<path d="M5.74695 21.6704C6.37369 21.6704 7.00097 21.6715 7.62771 21.67C7.97933 21.6542 8.32482 21.8641 8.4848 22.1755C8.60402 22.4706 8.59844 22.8379 8.39715 23.0968C8.59891 23.2512 8.76455 23.4754 8.74924 23.7419C8.80531 24.2133 8.39919 24.6704 7.92576 24.672C7.19968 24.6847 6.47304 24.6735 5.74687 24.6771C5.74695 23.6752 5.7464 22.6728 5.74695 21.6704ZM6.41547 22.8868C6.80321 22.8838 7.19151 22.8945 7.57933 22.8827C7.79335 22.8817 7.94822 22.5989 7.8239 22.4221C7.76476 22.336 7.68936 22.2351 7.57218 22.2407C7.1875 22.231 6.80227 22.2421 6.41751 22.2361C6.4139 22.4532 6.41547 22.6697 6.41547 22.8868ZM6.41547 23.454C6.41547 23.6726 6.41547 23.8912 6.41547 24.1104C6.83589 24.1099 7.25677 24.1109 7.67711 24.1109C7.8111 24.117 7.96346 24.0619 8.01702 23.9289C8.13373 23.7313 7.95027 23.452 7.72808 23.4566C7.29086 23.4499 6.85316 23.4566 6.41547 23.454Z" fill="#1A25AB"/>
<path d="M10.5255 21.6731C10.7176 21.6696 10.9098 21.6701 11.1019 21.6711C11.3994 22.3147 11.7011 22.9568 12.0028 23.5984C12.1811 23.9556 12.3258 24.3296 12.5225 24.6777C12.2637 24.6782 12.0048 24.6747 11.746 24.6802C11.6624 24.4617 11.5426 24.2563 11.4494 24.0447C11.0244 24.033 10.5989 24.0443 10.1735 24.0402C10.1113 24.2644 9.9691 24.4535 9.89629 24.6731C9.63798 24.6813 9.37912 24.6772 9.12073 24.6756C9.46111 24.006 9.75461 23.3134 10.0894 22.6413C10.2188 22.3111 10.4027 22.0048 10.5255 21.6731ZM10.8186 22.679C10.7176 22.941 10.5632 23.1805 10.4787 23.448C10.707 23.4484 10.9352 23.447 11.1635 23.4495C11.0723 23.182 10.9184 22.943 10.8186 22.679Z" fill="#1A25AB"/>
<path d="M13.1459 21.671C13.3717 21.671 13.5979 21.67 13.8237 21.6715C14.2175 22.1902 14.6471 22.683 15.0532 23.1921C15.2025 23.3623 15.3269 23.5554 15.4966 23.7068C15.4956 23.028 15.4966 22.3497 15.496 21.6715C15.7146 21.6704 15.9333 21.6704 16.1524 21.6715C16.1519 22.6733 16.1524 23.6752 16.1519 24.677C15.9374 24.6775 15.7234 24.6755 15.5088 24.6795C15.0456 24.1567 14.6217 23.5992 14.1723 23.0641C14.0576 22.9173 13.9282 22.7823 13.8243 22.6274C13.8161 23.3107 13.8237 23.9941 13.8202 24.6775C13.5955 24.677 13.3708 24.677 13.1466 24.6775C13.1449 23.6752 13.1459 22.6728 13.1459 21.671Z" fill="#1A25AB"/>
<path d="M17.0012 21.6705C17.2224 21.6705 17.4436 21.6736 17.6642 21.667C17.6744 22.0859 17.6697 22.5053 17.6667 22.9246C18.1467 22.5246 18.5956 22.0869 19.0639 21.6726C19.3462 21.6726 19.6295 21.6624 19.9123 21.6802C19.413 22.1465 18.8871 22.5863 18.3995 23.0643C18.7546 23.4526 19.1464 23.8067 19.5083 24.1889C19.6789 24.351 19.8339 24.5298 20.0163 24.6792C19.6993 24.6757 19.3824 24.6772 19.066 24.6787C18.6558 24.3133 18.2951 23.8959 17.8894 23.527C17.8181 23.5845 17.7376 23.633 17.6789 23.7043C17.655 24.0274 17.6764 24.353 17.6693 24.6772C17.4466 24.6776 17.2234 24.6772 17.0008 24.6772C17.0008 23.6753 17.0002 22.6729 17.0012 21.6705Z" fill="#1A25AB"/>
</svg>
