<svg width="40" height="40" viewBox="0 0 40 40" fill="none" xmlns="http://www.w3.org/2000/svg">
<path d="M35 5H5V35H35V5Z" fill="#C4261C"/>
<path d="M19.9929 6.28174V6.33103V6.28174C12.4135 6.28174 6.27441 12.4263 6.27441 20.0002C6.27441 27.5797 12.4135 33.7188 19.9929 33.7242C27.5724 33.7242 33.7115 27.5797 33.7115 20.0002C33.7115 12.4263 27.5724 6.28174 19.9929 6.28174ZM11.9973 20.0002C13.8648 19.3157 15.5241 18.2533 16.8823 16.8896C18.2459 15.5315 19.3084 13.8721 19.9929 12.0046C20.6775 13.8666 21.7399 15.526 23.1036 16.8896C24.4617 18.2533 26.1211 19.3157 27.9831 20.0002C26.1211 20.6848 24.4617 21.7527 23.1036 23.1109C21.7454 24.469 20.6775 26.1284 19.9929 27.9959C19.3084 26.1284 18.2459 24.4745 16.8823 23.1109C15.5241 21.7527 13.8648 20.6903 11.9973 20.0002ZM8.08164 19.0638C8.54714 13.2149 13.2076 8.55446 19.0565 8.09444C18.5307 14.1185 14.1112 18.5435 8.08164 19.0638ZM8.08164 20.9422C14.1167 21.4679 18.5362 25.8874 19.0565 31.917C13.2021 31.4515 8.54714 26.7911 8.08164 20.9422ZM31.9042 20.9422C31.4387 26.7911 26.7837 31.4515 20.9349 31.917C21.4497 25.882 25.8747 21.4625 31.9042 20.9422ZM31.9042 19.0638C25.8747 18.538 21.4551 14.1185 20.9349 8.09444C26.7783 8.55994 31.4387 13.2149 31.9042 19.0638Z" fill="white"/>
</svg>
