<svg width="40" height="40" viewBox="0 0 40 40" fill="none" xmlns="http://www.w3.org/2000/svg">
<path d="M20.0001 33.1777H18.2279L18.4811 32.9895C22.0254 30.6049 23.8608 28.5969 24.6836 26.9654C25.4431 25.3338 25.1266 23.9533 24.4304 22.761C23.6077 21.3805 22.152 20.1882 20.633 18.996C19.1773 17.8037 17.7216 16.6742 16.9621 15.3564C16.3925 14.2896 16.4558 13.0974 17.3418 11.7168C18.2279 10.3363 19.9368 8.8303 22.6583 7.01052C22.6583 7.01052 22.7849 6.94777 22.8482 6.88502H23.1646L22.9115 7.01052C22.9115 7.01052 22.7849 7.07327 22.7849 7.13602C20.4431 8.8303 19.114 10.2736 18.5444 11.5286C17.9747 12.7836 18.1013 13.8504 18.6709 14.8544C19.4304 16.1722 21.0127 17.3644 22.5317 18.5567C23.2912 19.1215 24.0507 19.6862 24.7469 20.3137C25.4431 20.9413 26.076 21.5688 26.4558 22.259C27.2785 23.5768 27.5317 25.0201 26.5823 26.8399C25.8228 28.5341 23.7342 30.6049 20.0001 33.1777ZM20.4431 6.82227H20.7596L20.5064 7.01052C18.1646 8.7048 16.6456 10.1481 15.8861 11.4031C15.1266 12.6581 15.1266 13.7249 15.633 14.6661C16.3292 15.9839 17.7849 17.1762 19.3039 18.3685C20.0001 18.9332 20.7596 19.498 21.3925 20.1255C22.0254 20.753 22.595 21.3805 23.038 22.0708C23.7975 23.3885 24.114 24.8318 23.1646 26.6516C22.2785 28.4714 20.1899 30.5422 16.1393 33.1777H16.076H14.557L14.8102 32.9895C18.3545 30.6049 20.3165 28.7224 21.2659 27.0281C22.2153 25.3966 22.0887 24.0161 21.4558 22.8238C21.076 22.1335 20.5697 21.506 19.9368 20.8785C19.3039 20.251 18.6077 19.6862 17.8482 19.0587C17.152 18.494 16.4558 17.8665 15.8228 17.3017C15.1899 16.6742 14.6836 16.0467 14.3671 15.4192C13.8608 14.3524 13.7975 13.0974 14.6836 11.7168C15.633 10.3363 17.4051 8.76755 20.4431 6.82227ZM25.1899 6.82227H34.9368H35.0001V6.88502V33.0522V33.1777H34.9368H22.0887L22.3418 32.9895C25.633 30.6677 27.4051 28.7224 28.1646 27.0281C28.9241 25.3966 28.6709 24.0161 27.9115 22.8238C27.4684 22.1335 26.8355 21.506 26.1393 20.8785C25.4431 20.251 24.6836 19.6862 23.8608 19.0587C22.3418 17.8665 20.7596 16.7369 20.0001 15.4192C19.3672 14.3524 19.2406 13.0974 19.9368 11.7168C20.6963 10.3991 22.3418 8.76755 25.1899 6.82227ZM5.06335 6.82227H18.3545L18.1013 7.01052C15.5064 8.7048 14.0507 10.2108 13.2912 11.4658C12.595 12.7209 12.595 13.7876 13.1013 14.7916C13.4178 15.4819 13.9241 16.1094 14.557 16.6742C15.1899 17.3017 15.8861 17.8665 16.6456 18.494C17.3418 19.0587 18.038 19.6235 18.6709 20.251C19.3039 20.8785 19.8102 21.506 20.1899 22.1963C20.8861 23.514 20.9494 24.9573 19.8735 26.7771C18.7975 28.5341 16.519 30.6049 12.5317 33.1777H12.4684H5.06335H5.00006V33.115V6.94777V6.82227H5.06335Z" fill="#F58220"/>
</svg>
