<svg width="40" height="40" viewBox="0 0 40 40" fill="none" xmlns="http://www.w3.org/2000/svg">
<path d="M19.3271 5C11.0638 5.38564 4.67412 12.3754 5.05846 20.6666C5.4428 28.9579 12.409 35.3691 20.6723 34.9835C28.9357 34.5978 35.3253 27.6081 34.941 19.3169C34.5567 11.2666 27.9748 5 19.9997 5C19.7595 5 19.5673 5 19.3271 5Z" fill="url(#paint0_radial_6200_705)"/>
<path d="M9.23808 25.6315C9.71851 27.2705 10.6794 29.1987 12.2648 30.5484C13.9943 32.0427 15.964 32.573 17.5975 32.7176C18.8946 32.8622 20.0477 32.6212 20.0477 32.1874C19.9996 31.5125 18.0299 31.7053 16.3484 30.1628C17.4534 29.3915 17.9338 28.6684 18.2701 28.1864C18.9907 27.2223 18.5584 27.0776 17.8377 27.1258C15.868 27.2705 15.0032 27.6079 14.6189 27.6079C14.1865 27.6079 14.4747 25.8725 14.3786 24.4264C14.2826 23.2694 13.7541 23.3659 13.2737 23.7997C12.4569 24.5228 11.8804 25.7761 11.7363 25.6315C11.352 25.3423 10.9676 24.9084 10.4872 24.0889C10.0068 23.3177 9.57438 22.2089 9.33417 22.1607C9.28613 22.1607 9.28612 22.1607 9.23808 22.1607C8.56548 22.1125 8.75765 23.9925 9.23808 25.6315ZM21.7772 8.1813C21.4889 8.80797 23.1704 9.82027 22.4978 11.5074C22.0174 12.7608 21.537 13.5321 21.3448 15.171C21.2487 15.9423 21.2487 16.569 21.3929 17.051C21.3929 17.051 21.6811 18.449 23.2185 18.7382C23.5548 18.7864 26.3893 18.8828 25.2843 15.9423C24.7078 14.6408 24.2754 13.291 24.9961 12.9536C25.7647 12.6644 26.4854 13.1946 26.8217 14.2551C27.3982 16.3761 28.8875 16.81 30.3768 15.7495C31.674 14.7854 31.6259 12.9536 29.7042 12.4715C29.0316 12.2787 28.6953 12.2787 28.0227 11.5074C27.4462 10.688 28.4071 10.4951 29.1758 10.8326C30.2327 11.3628 31.0975 10.5433 30.521 9.86848C29.8964 9.1454 28.5032 8.75976 27.3502 8.56694C26.4854 8.47053 25.8128 8.51874 24.6598 8.42233C23.6989 8.37412 22.8341 7.79566 22.3057 7.79566C22.0174 7.84387 21.8733 7.94028 21.7772 8.1813ZM11.9285 12.5197C11.9285 12.5197 11.448 16.4726 17.3092 21.5341C17.3092 21.5341 23.4587 26.8848 24.1313 27.5115C25.7167 29.0058 26.9658 31.8981 22.5459 32.7658C22.5459 32.7658 22.0655 32.8622 22.0655 33.1997C22.0655 33.5371 22.4018 33.6335 22.5939 33.5853C24.5637 33.4889 26.101 33.0068 27.4462 32.091C29.2238 30.8376 30.8573 27.2705 26.1491 23.3659C26.1491 23.3659 24.7078 22.0643 22.0174 19.6059C20.6242 18.3043 19.9516 17.6777 19.9516 17.6777C19.4712 17.2438 18.9907 16.81 18.5584 16.3761C15.0993 13.05 14.3306 10.0613 16.9249 8.32592C17.5975 7.84387 18.5583 7.74746 19.5672 7.69925C19.5672 7.69925 20.0477 7.69925 20.1438 7.31361C20.1918 6.97618 19.9996 6.78336 19.6153 6.73516C19.327 6.68695 19.0388 6.68695 18.7505 6.68695C15.7238 6.68695 12.1687 8.08489 11.9285 12.5197Z" fill="url(#paint1_radial_6200_705)"/>
<defs>
<radialGradient id="paint0_radial_6200_705" cx="0" cy="0" r="1" gradientUnits="userSpaceOnUse" gradientTransform="translate(22.313 15.7095) scale(22.0934 22.1681)">
<stop offset="0.0518771" stop-color="#00C0F3"/>
<stop offset="0.1134" stop-color="#00B3EA"/>
<stop offset="0.2068" stop-color="#0097D6"/>
<stop offset="0.2329" stop-color="#0092D2"/>
<stop offset="0.4153" stop-color="#0072BC"/>
<stop offset="0.5163" stop-color="#0066B3"/>
<stop offset="1" stop-color="#0066B3"/>
</radialGradient>
<radialGradient id="paint1_radial_6200_705" cx="0" cy="0" r="1" gradientUnits="userSpaceOnUse" gradientTransform="translate(22.5408 16.5727) scale(20.3993 20.4682)">
<stop offset="0.0530481" stop-color="white"/>
<stop offset="0.2035" stop-color="#F3E4CE"/>
<stop offset="0.4575" stop-color="#E0BA80"/>
<stop offset="0.6387" stop-color="#D4A050"/>
<stop offset="0.7283" stop-color="#CF963D"/>
</radialGradient>
</defs>
</svg>
