<svg width="40" height="40" viewBox="0 0 40 40" fill="none" xmlns="http://www.w3.org/2000/svg">
<path fill-rule="evenodd" clip-rule="evenodd" d="M10.795 32.0652L10.8046 32.1903L10.8335 32.3538L10.8816 32.5174L10.9586 32.6905L11.074 32.8733L11.2279 33.0561L11.4203 33.2581L11.6031 33.4216L11.6608 33.4697L11.959 33.7103L12.0071 33.7583L12.1514 33.8834L12.315 34.0277L12.44 34.172L12.5362 34.2971L12.6132 34.4318L12.6613 34.5568L12.6805 34.6915L12.6902 34.8069V34.8839L12.6805 34.9993L12.6324 35.1436L12.5651 35.2783L12.4689 35.4034L12.3438 35.5092L12.1899 35.5862L12.0071 35.6439L11.8532 35.6631H11.7763L11.6993 35.6535L11.5742 35.6439L11.4396 35.615L11.3049 35.5573L11.1702 35.4803L11.0451 35.3745L10.9489 35.2206L10.9008 35.0859L10.8912 35.0378L10.8816 35.0186L10.872 34.9128V34.7877L10.8624 34.7685V34.7492L10.8431 34.7107L10.8335 34.7011L10.8046 34.6915L10.7854 34.6819H10.7662L10.7469 34.6915L10.7181 34.7011L10.7084 34.7204L10.6892 34.7396V34.7685L10.6796 34.7877V34.8166L10.67 34.8262V34.9416L10.6603 35.0282L10.6507 35.1725L10.6411 35.336V35.6439L10.6603 35.7208L10.6988 35.7689L10.7469 35.8074L10.7662 35.817L10.9586 35.894L11.1798 35.9517L11.4107 35.9902L11.6031 35.9998H11.7378L11.9494 35.9806L12.2188 35.9229L12.4593 35.8363L12.6228 35.7497L12.6805 35.7208L12.719 35.692L12.8248 35.5958L12.9499 35.4611L13.0461 35.3168L13.1231 35.1725L13.1808 35.0282L13.2193 34.8743L13.2481 34.73L13.2577 34.6338V34.5472L13.2481 34.4125L13.2193 34.2297L13.1615 34.0469L13.075 33.8642L12.9403 33.6718L12.7767 33.4697L12.5555 33.2581L12.3535 33.0849L12.2765 33.0368L12.0937 32.8925L12.0456 32.8444L11.8821 32.7098L11.7089 32.5558L11.5742 32.4212L11.478 32.2961L11.4011 32.1807L11.353 32.0652L11.3241 31.9498L11.3145 31.8632V31.7959L11.3337 31.6804L11.3722 31.5457L11.4396 31.4303L11.5261 31.3245L11.6416 31.2379L11.7666 31.1802L11.9109 31.1417L12.036 31.1321H12.1226L12.2573 31.1417L12.4112 31.1609L12.5459 31.209L12.6421 31.2571L12.719 31.3052L12.7767 31.3533L12.8248 31.4014L12.8441 31.4399V31.4495L12.8537 31.4592L12.8729 31.5169L12.9018 31.5938L12.921 31.6804V31.7381L12.9307 31.7574V31.7959L12.9595 31.8536L12.9788 31.8728L12.998 31.8824H13.0557L13.0846 31.8632L13.0942 31.8343L13.1134 31.8055V31.7766L13.1231 31.7478V31.4495L13.1327 31.2668L13.1423 31.1321V31.0455L13.1519 30.9974V30.9878L13.1423 30.9589L13.1231 30.9204L13.0461 30.9012H12.998L12.9595 30.8916L12.8922 30.882L12.8345 30.8723H12.8152L12.7671 30.8627L12.5266 30.8242L12.2765 30.805H12.1226L11.9013 30.8242L11.6223 30.8916L11.3915 30.9974L11.1798 31.1417L11.0163 31.3149L10.9008 31.5265L10.8239 31.7574L10.795 31.9594V32.0652Z" fill="#005B47"/>
<path fill-rule="evenodd" clip-rule="evenodd" d="M18.8037 30.9418L18.7941 30.9514L18.7653 31.038L18.7268 31.1149L18.6883 31.2015L18.6402 31.3073L18.5921 31.4228L18.5344 31.5575L18.467 31.7018L18.3997 31.8557L18.3324 32.0288L18.2554 32.1924L18.0245 32.7407L17.9379 32.9235L17.861 33.1159L17.7744 33.2987L17.6974 33.4718L17.6205 33.6546L17.5435 33.8278L17.4762 33.9913L17.4088 34.1453L17.3415 34.2895L17.2838 34.4242L17.2261 34.5493L17.1876 34.6551L17.1395 34.7417L17.1106 34.8187L17.0914 34.8764L17.0721 34.9052V34.9149L17.0625 34.9245V34.9149L17.0144 34.8187L16.9856 34.7513L16.9471 34.6551L16.899 34.5493L16.8413 34.4242L16.7739 34.2992L16.7162 34.1453L16.6392 33.9913L16.5623 33.8278L16.4853 33.6546L16.4084 33.4718L16.3218 33.2891L16.2448 33.1063L16.1582 32.9235L16.0717 32.7311L15.9851 32.5483L15.9081 32.3655L15.8215 32.1924L15.7446 32.0192L15.6772 31.8557L15.6003 31.7018L15.5426 31.5478L15.4752 31.4228L15.4271 31.2977L15.379 31.1919L15.3309 31.0957L15.3021 31.0284L15.2732 30.9706L15.2636 30.9418L15.254 30.9322V30.9225L15.2347 30.8841L15.2059 30.8456L15.177 30.8167L15.1385 30.8071H15.0904L15.0327 30.8648L15.0231 30.8937V30.9129L15.0134 30.9418V30.9706L15.0038 31.0091L14.9942 31.1438L14.9654 31.3554L14.9461 31.6248L14.9076 31.9519L14.8691 32.3078L14.7537 33.4911L14.7056 33.8759L14.6767 34.2414L14.6383 34.5589L14.6094 34.8379L14.5902 35.0399L14.5709 35.1842V35.2516L14.5613 35.3093L14.5517 35.3959L14.5421 35.4728L14.5228 35.5402L14.494 35.5979L14.4651 35.646L14.4266 35.6845L14.3881 35.7037H14.3593L14.3112 35.7133H14.2727L14.2342 35.7229H14.1573L14.1188 35.7422L14.0995 35.771L14.0899 35.7903V35.8191L14.0995 35.8288V35.848L14.1188 35.8672L14.138 35.8769L14.1573 35.8961H14.1957L14.2246 35.9057H14.3304L14.4362 35.8961H14.5421L14.5902 35.8865H14.9461L15.0615 35.8961H15.1866L15.2828 35.9057H15.3598L15.379 35.8961L15.4079 35.8865L15.4271 35.8769L15.4656 35.8384V35.7903L15.456 35.771L15.4367 35.7422L15.4079 35.7229H15.3598L15.3213 35.7133H15.2732L15.2155 35.7037L15.1674 35.6941H15.1578L15.1385 35.6845L15.1 35.6748L15.0712 35.6364L15.0423 35.5883L15.0327 35.5498V35.2323L15.0423 35.2035V35.1746L15.0519 35.0784L15.0615 34.9437L15.0712 34.7609L15.0904 34.5397L15.1097 34.2992L15.1289 34.0394L15.1674 33.5007L15.1962 33.241L15.2155 33.0005L15.2251 32.7888L15.2443 32.5964L15.254 32.4617L15.2636 32.3655V32.3367L15.2828 32.3752L15.3309 32.481L15.3983 32.6349L15.4945 32.8465L15.6003 33.087L15.7253 33.366L15.9947 33.9625L16.1294 34.2703L16.2641 34.5589L16.3891 34.8379L16.5046 35.0784L16.6008 35.29L16.6681 35.4536L16.8605 35.8384L16.9086 35.8769L16.9375 35.8865H16.9663L17.0048 35.8769L17.0433 35.8384L17.0914 35.7518L17.1395 35.646L17.1491 35.6171L17.1683 35.5786L17.2164 35.4728L17.2838 35.3093L17.38 35.088L17.4954 34.8379L17.6205 34.5589L17.7455 34.2511L17.8898 33.9432L18.1592 33.3275L18.2746 33.0486L18.3901 32.7984L18.4863 32.5772L18.5536 32.4136L18.6017 32.3078L18.621 32.2693V32.3078L18.6306 32.4136L18.6402 32.5676L18.6594 32.7696L18.6787 33.0197L18.7075 33.2891L18.7268 33.5777L18.7845 34.1741L18.8037 34.4627L18.8326 34.7321L18.8518 34.9726L18.8711 35.1842L18.8807 35.3381L18.8903 35.444L18.8999 35.4824V35.6845L18.8903 35.7037H18.8807L18.8615 35.7133L18.8422 35.7326L18.8326 35.7614V35.8095L18.8422 35.8384L18.8615 35.848L18.8903 35.8672L18.9192 35.8769L18.9577 35.8865H18.9961L19.0346 35.8961H19.1501L19.2847 35.9057H20.0736L20.1505 35.8865L20.1794 35.8769L20.2083 35.8576L20.2179 35.8384L20.2275 35.8288V35.7807L20.2179 35.7518L20.189 35.7326L20.1505 35.7229H20.0736L19.987 35.7133L19.8812 35.6941L19.785 35.6748L19.7561 35.6652L19.6792 35.6267L19.6118 35.5594L19.5637 35.4824L19.5252 35.3862L19.4675 35.0976V35.0399L19.4579 35.0111L19.0539 31.0187V30.9899L19.0442 30.9514V30.9129L19.0346 30.8744L19.0154 30.8456L18.9961 30.8263L18.9673 30.8071H18.9192L18.8807 30.8167L18.823 30.8937L18.8037 30.9322V30.9418Z" fill="#005B47"/>
<path fill-rule="evenodd" clip-rule="evenodd" d="M21.9025 31.223L21.9121 31.2134H21.9217L21.941 31.2037H21.9698L22.1045 31.1845L22.2103 31.1749H22.3065L22.4604 31.1941L22.6432 31.2711L22.7779 31.3769L22.8933 31.5116L22.9799 31.6751L23.0377 31.8579L23.0665 32.0503L23.0857 32.1946V32.2908L23.0665 32.4159L23.028 32.5794L22.9511 32.7333L22.8837 32.8391L22.8452 32.8776L22.8164 32.9161L22.7683 32.9546L22.7202 32.9834L22.6721 33.0027L22.6047 33.0123L22.5182 33.0219H22.1526L22.0372 33.0123L21.9602 33.0027H21.9313L21.9217 32.9931H21.9121L21.9025 32.9738V31.223ZM21.8544 30.9055L21.6043 30.9151H21.5273L21.4888 30.9055H21.3926L21.2291 30.8959H20.8058L20.7769 30.9055L20.7577 30.9151L20.7385 30.9344L20.7288 30.9632L20.7192 30.9825V31.0017L20.7288 31.0306L20.7481 31.0594L20.7769 31.0787L20.8058 31.0883H20.9886L21.0174 31.0979H21.0271L21.1425 31.1364L21.2098 31.1941L21.2579 31.2903L21.2676 31.3865L21.2772 31.425V31.5885L21.2868 31.6944V34.8016L21.2772 35.1287L21.2579 35.3115V35.3788L21.2483 35.4077L21.2291 35.5039L21.2002 35.6001L21.1617 35.6674L21.104 35.6963H21.0848L20.9982 35.7155H20.902L20.8731 35.7251L20.8443 35.7444L20.825 35.7732L20.8154 35.8021V35.8117L20.825 35.8406L20.8347 35.8598L20.8539 35.8791L20.8828 35.8983H20.902L20.9309 35.9079H21.0848L21.2098 35.8983H21.3445L21.4311 35.8887H21.6043L21.864 35.8983H21.9025L22.0372 35.9079L22.2199 35.9175L22.3739 35.9272H22.5278L22.6817 35.9175L22.8741 35.8887L23.0569 35.8502L23.2204 35.8021L23.3744 35.7348L23.5187 35.6578L23.6437 35.5616L23.7592 35.4654L23.8554 35.3596L23.9419 35.2441L24.0189 35.1191L24.0862 34.994L24.1343 34.869L24.1632 34.7343L24.1824 34.5996L24.1921 34.4938V34.388L24.1632 34.1763L24.0862 33.9262L23.9612 33.7049L23.8169 33.5222L23.6437 33.3586L23.4609 33.2336L23.2782 33.1374L23.1435 33.0796L23.0954 33.07L23.1338 33.0508L23.2204 32.9738L23.3263 32.868L23.4225 32.7429L23.509 32.6083L23.5764 32.4543L23.6341 32.2908L23.663 32.108L23.6726 31.9637V31.8387L23.663 31.7617L23.6437 31.6847L23.6149 31.5982L23.5764 31.5116L23.5283 31.425L23.4706 31.348L23.4032 31.2615L23.3166 31.1845L23.2204 31.1172L23.105 31.0594L22.9799 31.0017L22.8452 30.9536L22.6817 30.9248L22.5085 30.9055L22.3642 30.8959H22.066L21.8832 30.9055H21.8544ZM22.1045 35.5231H22.0949L22.0468 35.4943L22.0083 35.4654L21.9506 35.3884L21.941 35.3403L21.9313 35.273L21.9217 35.1864L21.9121 35.1191V34.869L21.9025 34.7054V33.2913H22.0949L22.2392 33.3009H22.4027L22.4316 33.3105L22.5182 33.3201L22.6432 33.349L22.7683 33.3971L22.8837 33.4644L22.9222 33.4837L22.9703 33.5222L23.105 33.6376L23.2493 33.8108L23.3551 33.9839L23.4321 34.1667L23.4802 34.3399L23.5187 34.4938L23.5283 34.6381V34.8978L23.4994 35.0229L23.4609 35.1383L23.4128 35.2441L23.2782 35.3981L23.2108 35.4558L23.1338 35.5039L23.0473 35.5424L22.9799 35.5712L22.903 35.5905L22.8356 35.6001L22.7202 35.6193H22.5085L22.4316 35.6097L22.345 35.6001L22.2584 35.5808L22.1815 35.5616L22.1045 35.5231Z" fill="#005B47"/>
<path fill-rule="evenodd" clip-rule="evenodd" d="M25.7609 31.5544L25.7128 31.6121L25.5878 31.7757L25.4435 32.0066L25.3377 32.2471L25.2511 32.4876L25.1837 32.7281L25.1453 32.9589L25.126 33.1802L25.1164 33.3245V33.4592L25.1356 33.6804L25.1837 33.9594L25.2511 34.2288L25.3377 34.4789L25.4435 34.7194L25.5782 34.931L25.7417 35.1331L25.8668 35.2774L25.9149 35.3158L25.963 35.3639L26.1169 35.4794L26.3381 35.6237L26.5594 35.7391L26.8095 35.8353L27.0693 35.9027L27.3482 35.9508L27.6465 35.97L27.887 35.9796H27.9639L28.0409 35.97L28.2525 35.9604L28.5604 35.9219L28.8393 35.8738L29.0125 35.8161L29.0702 35.7872H29.0798L29.1087 35.768L29.1472 35.7487L29.176 35.7295L29.1953 35.7103L29.2049 35.6814L29.2241 35.6525L29.2338 35.6141L29.2434 35.5852L29.253 35.566V35.5467L29.2722 35.4698L29.2915 35.3447L29.33 35.0753L29.3396 34.9503L29.3492 34.8445L29.3588 34.7675V34.6809L29.3492 34.6424L29.3396 34.6232L29.3107 34.5943L29.2915 34.5847H29.2434L29.2145 34.5943L29.2049 34.6136L29.1857 34.6328L29.176 34.6521V34.6713L29.1664 34.7002V34.7194L29.1568 34.7483L29.1376 34.8348L29.0991 34.9791L29.0414 35.1234L28.9836 35.2196L28.9644 35.2485L28.8778 35.3351L28.772 35.412L28.6662 35.4698L28.5411 35.5082L28.4064 35.5467L28.2718 35.566L28.1178 35.5756L27.9928 35.5852H27.8966L27.733 35.5756L27.5214 35.5467L27.3098 35.4986L27.1077 35.4217L26.9153 35.3255L26.7326 35.21L26.5594 35.0753L26.4343 34.9599L26.3574 34.8829L26.2612 34.7579L26.1361 34.5751L26.0303 34.3827L25.9341 34.1807L25.8668 33.969L25.809 33.7574L25.7706 33.5361L25.7609 33.363V33.3149L25.7513 33.2572V33.1032L25.7609 32.882L25.7802 32.6703L25.8187 32.4491L25.886 32.2374L25.9726 32.0258L26.088 31.8238L26.2035 31.6699L26.3574 31.5159L26.4824 31.4197L26.6364 31.3332L26.7903 31.2658L26.9634 31.2177L27.1558 31.1696L27.3675 31.1504L27.531 31.1311H27.6368L27.7811 31.1408L27.9735 31.1504L28.1467 31.1889L28.3102 31.2273L28.4545 31.2754L28.5796 31.3332L28.6854 31.4005L28.7528 31.439L28.8009 31.4871L28.8682 31.5737L28.9452 31.718L29.0029 31.8911L29.0221 32.0354L29.0317 32.0835V32.1412L29.0606 32.2278L29.0798 32.2471L29.0991 32.2567L29.1279 32.2663L29.1376 32.2567H29.1568L29.1857 32.2471L29.2049 32.2182L29.2145 32.199L29.2241 32.1701V31.3716L29.2338 31.237L29.2434 31.1408V30.9965L29.2145 30.958L29.176 30.9387L29.1376 30.9291H29.0798L28.8393 30.9003L28.5892 30.8618L28.5315 30.8522H28.5123L28.4449 30.8329L28.2333 30.8137L27.9832 30.7944H27.5406L27.3194 30.8137L27.0404 30.8522L26.7807 30.9195L26.5402 30.9965L26.3189 31.1023L26.1169 31.237L25.9245 31.3813L25.7994 31.5063L25.7609 31.5544Z" fill="#005B47"/>
<path fill-rule="evenodd" clip-rule="evenodd" d="M11.5891 16.3548V28.7165L16.6685 26.5713V14.2096L11.5891 16.3548Z" fill="#B3D056"/>
<path fill-rule="evenodd" clip-rule="evenodd" d="M23.087 6.14526V18.507L28.1664 16.3617V4L23.087 6.14526Z" fill="#B3D056"/>
<path fill-rule="evenodd" clip-rule="evenodd" d="M17.338 13.9302V26.2919L22.4174 18.7787V6.4266L17.338 13.9302Z" fill="#B3D056"/>
</svg>
