<svg width="40" height="40" viewBox="0 0 40 40" fill="none" xmlns="http://www.w3.org/2000/svg">
<path fill-rule="evenodd" clip-rule="evenodd" d="M25.2059 34.5591L12.6214 26.3738C12.6214 26.3738 11.0429 25.4675 10.6815 23.7785C10.1742 21.4072 11.8474 19.3744 11.8474 19.3744L28.1802 30.0012C29.4401 30.8218 29.7841 32.5 28.9742 33.7659C28.1423 35.0662 26.4326 35.3532 25.2059 34.5591Z" fill="#38D200"/>
<path fill-rule="evenodd" clip-rule="evenodd" d="M13.2856 17.6201C13.2856 17.6201 11.3578 16.4572 11.3578 13.7676C11.3578 11.0869 13.2848 9.93877 13.2848 9.93877L20.1648 5.43986C21.4258 4.62098 23.1124 4.97842 23.932 6.23815C24.7517 7.49788 24.3939 9.18294 23.133 10.0018L17.3344 13.7742L27.2144 20.2026C27.2144 20.2026 28.9928 21.2208 29.3432 22.939C29.8322 25.3363 28.1806 27.3113 28.1806 27.3113L13.2856 17.6201Z" fill="#0473EA"/>
<path fill-rule="evenodd" clip-rule="evenodd" d="M26.2359 11.0936C25.5898 11.0937 25.1301 11.2971 24.6816 11.5888L21.3228 13.7743L24.6816 15.9597C25.1345 16.251 25.6096 16.4549 26.2359 16.4549C27.7178 16.4549 28.9191 15.2548 28.9191 13.7743C28.9191 12.2937 27.7178 11.0933 26.2359 11.0936" fill="#38D200"/>
<path fill-rule="evenodd" clip-rule="evenodd" d="M13.2496 34.9929C13.8957 34.9928 14.3554 34.7893 14.8038 34.4977L18.1626 32.3122L14.8038 30.1268C14.3511 29.8355 13.8759 29.6315 13.2496 29.6315C11.7677 29.6315 10.5664 30.8317 10.5664 32.3122C10.5664 33.7928 11.7677 34.9932 13.2496 34.9929Z" fill="#0473EA"/>
</svg>
