<svg width="40" height="40" viewBox="0 0 40 40" fill="none" xmlns="http://www.w3.org/2000/svg">
<mask id="mask0_6300_306" style="mask-type:alpha" maskUnits="userSpaceOnUse" x="7" y="6" width="28" height="10">
<path d="M7.54478 6.87549C7.36784 6.87549 7.19643 6.88632 7.03607 6.90257C7.24066 6.92424 7.43419 6.97299 7.61113 7.04882L15.4353 10.3041L27.7161 15.4119L34.3735 10.4991C34.4178 10.4666 34.4565 10.4341 34.4952 10.4016L34.5173 10.3583C35.0647 9.42667 35.1477 8.54919 34.7606 7.89379C34.3735 7.2384 33.5497 6.87549 32.4548 6.87549H7.54478V6.87549Z" fill="#C4C4C4"/>
</mask>
<g mask="url(#mask0_6300_306)">
<path d="M8.52103 0.711426L37.1082 7.33041L33.6688 21.5867L5.08173 14.9677L8.52103 0.711426Z" fill="url(#paint0_linear_6300_306)"/>
</g>
<mask id="mask1_6300_306" style="mask-type:alpha" maskUnits="userSpaceOnUse" x="5" y="6" width="14" height="27">
<path d="M5.23742 7.89425C4.85036 8.54965 4.93883 9.42713 5.48624 10.3588L18.0104 31.6782C18.1154 31.8569 18.226 32.0194 18.3477 32.1711C18.3422 32.1548 18.3311 32.1494 18.3256 32.1332C18.1873 31.8948 18.1044 31.6457 18.0767 31.3911L15.4392 10.31L7.60954 7.05469C7.42707 6.97886 7.23907 6.9247 7.03448 6.90845C6.18848 7.00053 5.56365 7.34177 5.23742 7.89425Z" fill="#C4C4C4"/>
</mask>
<g mask="url(#mask1_6300_306)">
<path d="M18.349 6.90845H4.85168V32.1711H18.349V6.90845Z" fill="url(#paint1_linear_6300_306)"/>
</g>
<mask id="mask2_6300_306" style="mask-type:alpha" maskUnits="userSpaceOnUse" x="17" y="10" width="18" height="24">
<path d="M34.3771 10.5052L27.7197 15.418L17.0589 23.2828L18.0708 31.3913C18.0985 31.6459 18.1814 31.9005 18.3197 32.1334C18.3252 32.1442 18.3362 32.155 18.3418 32.1713C18.8339 32.7888 19.4255 33.1246 20.0448 33.1246C20.8134 33.1246 21.5378 32.61 22.0852 31.673L34.4988 10.4077C34.46 10.4402 34.4158 10.4727 34.3771 10.5052Z" fill="#C4C4C4"/>
</mask>
<g mask="url(#mask2_6300_306)">
<path d="M46.0834 21.3381L26.1056 41.6608L5.46982 22.1939L25.4476 1.87109L46.0834 21.3381Z" fill="url(#paint2_linear_6300_306)"/>
</g>
<defs>
<linearGradient id="paint0_linear_6300_306" x1="7.35973" y1="7.96851" x2="31.2126" y2="13.7225" gradientUnits="userSpaceOnUse">
<stop stop-color="#F5B419"/>
<stop offset="0.5269" stop-color="#F68E20"/>
<stop offset="1" stop-color="#E16226"/>
</linearGradient>
<linearGradient id="paint1_linear_6300_306" x1="11.6005" y1="31.9528" x2="11.6005" y2="9.72779" gradientUnits="userSpaceOnUse">
<stop stop-color="#F5B419"/>
<stop offset="0.5269" stop-color="#F68E20"/>
<stop offset="1" stop-color="#E16226"/>
</linearGradient>
<linearGradient id="paint2_linear_6300_306" x1="35.9933" y1="11.377" x2="19.2528" y2="29.1205" gradientUnits="userSpaceOnUse">
<stop stop-color="#F5B419"/>
<stop offset="0.5269" stop-color="#F68E20"/>
<stop offset="1" stop-color="#E16226"/>
</linearGradient>
</defs>
</svg>
