<svg width="40" height="40" viewBox="0 0 40 40" fill="none" xmlns="http://www.w3.org/2000/svg">
<path d="M15.7023 9.0484C16.8203 9.0484 17.7265 8.14213 17.7265 7.02418C17.7265 5.90624 16.8203 4.99997 15.7023 4.99997C14.5844 4.99997 13.6781 5.90624 13.6781 7.02418C13.6781 8.14213 14.5844 9.0484 15.7023 9.0484Z" fill="#FBB814"/>
<path d="M24.242 9.0484C25.3599 9.0484 26.2662 8.14213 26.2662 7.02418C26.2662 5.90624 25.3599 4.99997 24.242 4.99997C23.1241 4.99997 22.2178 5.90624 22.2178 7.02418C22.2178 8.14213 23.1241 9.0484 24.242 9.0484Z" fill="#FBB814"/>
<path d="M26.7265 24.4533V11.0276H30.5466V24.4533C30.5466 25.8383 30.2738 27.2097 29.7438 28.4893C29.2137 29.7689 28.4369 30.9316 27.4575 31.9109C26.4781 32.8903 25.3155 33.6671 24.0359 34.1972C22.7563 34.7272 21.3848 35 19.9998 35C18.6148 35 17.2434 34.7272 15.9638 34.1971C14.6842 33.6671 13.5215 32.8903 12.5422 31.9109C11.5628 30.9316 10.786 29.7689 10.2559 28.4893C9.72592 27.2097 9.45312 25.8383 9.45313 24.4533V11.0276H13.2732V24.4533C13.2752 26.2367 13.9846 27.9464 15.2456 29.2075C16.5066 30.4685 18.2164 31.1779 19.9998 31.1799C21.7832 31.1779 23.493 30.4685 24.7541 29.2075C26.0151 27.9464 26.7245 26.2367 26.7265 24.4533Z" fill="#FBB814"/>
</svg>
