<svg width="40" height="40" viewBox="0 0 40 40" fill="none" xmlns="http://www.w3.org/2000/svg">
<path d="M29.0822 15.5108C27.9859 15.4944 26.9063 15.7798 25.9612 16.3356C25.7879 14.8135 25.039 13.4154 23.868 12.4277C22.697 11.4401 21.1926 10.9377 19.6631 11.0236C18.1336 11.1095 16.6949 11.7772 15.6418 12.8898C14.5888 14.0024 14.0012 15.4756 13.9995 17.0075V21.5658L13.9748 23.009C13.9741 23.7905 13.6668 24.5406 13.1191 25.0982C12.5713 25.6557 11.8268 25.9761 11.0453 25.9906C10.6453 25.9925 10.2488 25.9151 9.87875 25.763C9.50871 25.611 9.17243 25.3871 8.88929 25.1045C8.60614 24.8219 8.38173 24.486 8.22899 24.1162C8.07625 23.7465 7.9982 23.3501 7.99933 22.95V18.5044C7.99915 18.3077 7.96022 18.1129 7.88476 17.9311C7.8093 17.7494 7.69878 17.5844 7.55953 17.4454C7.42027 17.3064 7.255 17.1961 7.07314 17.121C6.89129 17.0459 6.69642 17.0073 6.49966 17.0075V17.0075C6.10229 17.0071 5.72105 17.1646 5.43981 17.4454C5.15857 17.7261 5.00037 18.107 5 18.5044V22.9098C4.99929 24.5197 5.63784 26.0639 6.77528 27.2032C7.91272 28.3425 9.45599 28.9835 11.0659 28.9854C12.6441 28.9694 14.1523 28.3316 15.2632 27.2104C16.3741 26.0893 16.998 24.5753 16.9996 22.997V17.0666C16.9984 16.6649 17.0768 16.267 17.2302 15.8957C17.3835 15.5244 17.6089 15.1871 17.8932 14.9033C18.1775 14.6195 18.5151 14.3948 18.8867 14.242C19.2583 14.0893 19.6564 14.0116 20.0581 14.0135C20.8427 14.028 21.5904 14.3498 22.1404 14.9096C22.6905 15.4694 22.999 16.2227 22.9997 17.0075V24.4939C23.0001 24.8914 23.1583 25.2724 23.4396 25.5532C23.7209 25.834 24.1022 25.9915 24.4997 25.9912V25.9912C24.8972 25.9915 25.2785 25.834 25.5598 25.5532C25.8411 25.2724 25.9994 24.8914 25.9997 24.4939V21.5585C25.9986 21.1568 26.077 20.7588 26.2304 20.3875C26.3837 20.0162 26.6091 19.6789 26.8934 19.3951C27.1777 19.1113 27.5154 18.8866 27.8869 18.7339C28.2585 18.5811 28.6566 18.5035 29.0583 18.5053C29.843 18.5199 30.5907 18.8417 31.1407 19.4015C31.6907 19.9613 31.9992 20.7145 31.9999 21.4993V27.4884C32 27.6852 32.039 27.8801 32.1145 28.0618C32.19 28.2436 32.3005 28.4087 32.4398 28.5478C32.5791 28.6868 32.7444 28.797 32.9263 28.8722C33.1082 28.9473 33.3031 28.9859 33.4999 28.9857V28.9857C33.6967 28.9859 33.8916 28.9473 34.0735 28.8722C34.2554 28.797 34.4207 28.6868 34.56 28.5478C34.6993 28.4087 34.8099 28.2436 34.8854 28.0618C34.9608 27.8801 34.9998 27.6852 35 27.4884V21.574C35.0057 19.9893 34.3886 18.4657 33.2817 17.3316C32.1748 16.1975 30.6667 15.5436 29.0822 15.5108V15.5108Z" fill="url(#paint0_linear_6200_1249)"/>
<defs>
<linearGradient id="paint0_linear_6200_1249" x1="5" y1="20.0021" x2="35" y2="20.0021" gradientUnits="userSpaceOnUse">
<stop stop-color="#00DCDC"/>
<stop offset="0.5" stop-color="#8C73FF"/>
<stop offset="1" stop-color="#3C78FF"/>
</linearGradient>
</defs>
</svg>
