<svg width="40" height="40" viewBox="0 0 40 40" fill="none" xmlns="http://www.w3.org/2000/svg">
<path d="M10.6905 24.275C10.6905 24.4875 10.9826 24.514 11.142 24.514H11.2748C11.6731 24.4878 11.6731 24.3282 11.6731 24.275V15.7248C11.6993 15.512 11.4074 15.4858 11.2216 15.4858H11.143C10.9826 15.4858 10.6905 15.512 10.6905 15.7248V24.275Z" fill="#E1091D"/>
<path d="M5.35449 24.275C5.35449 24.4875 5.64668 24.514 5.806 24.514H5.93888C6.33718 24.4878 6.33718 24.3282 6.33718 24.275V15.7248C6.33718 15.512 6.07147 15.4858 5.88567 15.4858H5.80706C5.61996 15.4858 5.35449 15.512 5.35449 15.7248V24.275Z" fill="#E1091D"/>
<path d="M7.13286 24.275C7.13286 24.4875 7.42506 24.514 7.58439 24.514H7.74371C8.14202 24.4878 8.14203 24.3282 8.14203 24.275V15.7248C8.14203 15.512 7.84984 15.4858 7.69052 15.4858H7.58439C7.42506 15.4858 7.13286 15.512 7.13286 15.7248V24.275Z" fill="#E1091D"/>
<path d="M8.9129 24.275C8.9129 24.4875 9.20508 24.514 9.36441 24.514H9.49727C9.89558 24.4878 9.89559 24.3282 9.89559 24.275V15.7248C9.89559 15.512 9.6034 15.4858 9.44408 15.4858H9.36547C9.20509 15.4858 8.9129 15.512 8.9129 15.7248V24.275Z" fill="#E1091D"/>
<path d="M4.2388 19.4954C4.02603 19.4954 3.99982 19.7876 3.99982 19.9469V20.1063C4.02603 20.5046 4.18561 20.5046 4.2388 20.5046H12.789C13.0015 20.5046 13.028 20.2124 13.028 20.0531V19.9469C13.028 19.7876 13.0018 19.4954 12.789 19.4954H4.2388Z" fill="#E1091D"/>
<path d="M25.4812 22.7082C24.074 22.7082 23.542 21.9381 23.542 19.9468C23.542 17.9814 24.0465 17.2649 25.455 17.2649H25.5074C26.8881 17.2649 27.4204 17.9819 27.4204 19.9468C27.3941 21.9383 26.8627 22.7082 25.4812 22.7082V22.7082ZM25.4812 16.1497C23.0913 16.1497 22.0027 17.3446 22.0027 19.9732C22.0027 22.5754 23.118 23.8235 25.4015 23.85H25.5077C27.8179 23.85 28.9329 22.5754 28.9329 19.9732C28.9329 17.3179 27.8711 16.1497 25.4812 16.1497" fill="#002469"/>
<path d="M15.8418 23.266C16.3198 23.6378 16.9835 23.7972 18.0456 23.7972H18.098C19.1601 23.7972 19.8239 23.6378 20.3286 23.266C21.0189 22.7351 21.1525 22.0991 21.1525 20.9028V16.5748C21.1557 16.5358 21.1503 16.4965 21.1368 16.4598C21.1232 16.4231 21.1017 16.3898 21.0739 16.3623C20.9664 16.2554 20.7274 16.203 20.3291 16.203C20.0789 16.171 19.8253 16.2274 19.6122 16.3623C19.5843 16.3898 19.5629 16.4231 19.5493 16.4598C19.5357 16.4965 19.5303 16.5358 19.5335 16.5748V21.0889C19.5335 21.8323 19.5336 21.9916 19.1884 22.2838C18.8474 22.4973 18.4484 22.5994 18.0467 22.576C17.6436 22.6122 17.2404 22.5085 16.9047 22.2825C16.5595 22.0171 16.5595 21.8577 16.5595 21.1143V16.5748C16.5628 16.5358 16.5574 16.4965 16.5438 16.4598C16.5302 16.4231 16.5088 16.3898 16.4809 16.3623C16.2673 16.2269 16.013 16.1706 15.7621 16.203C15.5119 16.171 15.2583 16.2274 15.0452 16.3623C15.0173 16.3898 14.9959 16.4231 14.9823 16.4598C14.9687 16.4965 14.9633 16.5358 14.9665 16.5748V20.9028C15.019 22.0978 15.1259 22.7351 15.8428 23.266" fill="#002469"/>
<path d="M33.049 22.6821H31.3496V20.4251H33.1551C34.1643 20.4251 34.35 20.8498 34.35 21.5668C34.3762 22.5228 34.0314 22.6821 33.049 22.6821ZM31.3496 17.2917H33.0754C33.9782 17.2917 34.0314 17.7432 34.0314 18.3273C34.0314 19.0443 33.7127 19.3362 32.9428 19.3362H31.3496V17.2917ZM34.9344 16.6544C34.5361 16.3622 34.0581 16.2561 33.1289 16.2561H30.0485C29.9781 16.2562 29.9107 16.2843 29.8609 16.334C29.8112 16.3838 29.7832 16.4512 29.783 16.5216V23.5317C29.7832 23.602 29.8112 23.6695 29.8609 23.7192C29.9107 23.769 29.9781 23.797 30.0485 23.7971H33.288C34.1642 23.7971 34.7748 23.7709 35.3057 23.3723C35.8898 22.9208 35.9962 22.2041 35.9962 21.6729C36.0157 21.3781 35.9658 21.0828 35.8505 20.8108C35.7353 20.5387 35.5578 20.2975 35.3325 20.1064C35.1426 19.9826 34.9372 19.8844 34.7216 19.8142L34.5888 19.7618L34.7216 19.7094C35.3589 19.4172 35.5715 18.9924 35.5715 18.1693C35.5453 17.7445 35.4653 17.0276 34.9341 16.6557" fill="#002469"/>
</svg>
