<svg width="40" height="40" viewBox="0 0 40 40" fill="none" xmlns="http://www.w3.org/2000/svg">
<path fill-rule="evenodd" clip-rule="evenodd" d="M34.9585 24.3985L34.9585 24.3984L34.9504 24.3427C34.8259 23.5161 34.5705 22.7045 34.2517 21.9317C33.4638 19.9599 32.3261 18.185 31.0769 16.4885C29.8684 14.8478 28.4631 13.3721 27.0592 11.8979C26.8834 11.7133 26.7076 11.5287 26.5322 11.3438C24.7981 9.51676 23.0125 7.74192 21.2263 5.96644C20.9845 5.72614 20.7427 5.48584 20.5011 5.24539C20.2428 4.9881 20.08 4.97806 19.8257 5.26047C19.2117 5.94388 18.5805 6.61523 17.9202 7.25442C17.5433 7.62024 17.5986 7.84236 17.9514 8.20618L17.9527 8.20757C21.3965 11.7609 24.8422 15.3162 27.9674 19.1589C29.3503 20.8594 30.4668 22.7186 30.7874 24.9488C30.9744 26.2513 30.9392 27.5156 30.1794 28.6693C29.689 29.4141 28.9664 29.8412 28.1885 30.205C28.1341 30.2175 28.0797 30.2302 28.0252 30.2429L28.0249 30.2429L28.0246 30.243L28.0243 30.2431C27.8856 30.2754 27.7466 30.3079 27.6076 30.3367C26.8838 30.4853 26.1533 30.4685 25.4236 30.4517C25.1715 30.4459 24.9195 30.4402 24.6679 30.4412C24.3001 30.4432 24.1825 30.5337 24.1895 30.9166C24.2085 31.8856 24.2063 32.8552 24.204 33.8249C24.2031 34.1887 24.2023 34.5526 24.2026 34.9165C24.385 34.915 24.5675 34.9132 24.7498 34.9115L24.7525 34.9114C24.9318 34.9097 25.111 34.908 25.29 34.9065L25.2888 34.8069C25.2879 34.7406 25.287 34.6743 25.287 34.608C25.284 34.0462 25.284 33.8432 25.5111 33.7809H26.282C26.4699 33.808 26.5553 33.8934 26.5342 34.1206C26.5286 34.1822 26.5311 34.2448 26.5336 34.3073C26.5364 34.3782 26.5393 34.4491 26.5302 34.5185C26.482 34.8904 26.6598 34.9819 26.9925 34.9326C27.033 34.9372 27.074 34.9358 27.1141 34.9286C27.3478 34.8888 27.5835 34.8881 27.8191 34.8874C28.0828 34.8866 28.3464 34.8859 28.6066 34.8301C31.9072 34.1079 35.1476 30.4583 34.995 26.8149V24.7963C34.995 24.6445 34.975 24.5097 34.9585 24.3985V24.3985ZM25.2248 32.7839V32.094C25.2302 32.0439 25.2302 31.9933 25.2248 31.9433V31.5578C25.2361 31.53 25.2531 31.5049 25.2747 31.4841C25.2963 31.4634 25.3221 31.4474 25.3503 31.4372C25.6669 31.3086 26.0367 31.3859 26.3764 31.4885C26.4245 31.5028 26.466 31.5334 26.4939 31.575C26.5218 31.6167 26.5343 31.6667 26.5292 31.7166C26.533 31.804 26.5316 31.8915 26.5303 31.9789L26.5294 32.0448L26.5292 32.0663C26.5242 32.993 26.4247 33.0744 25.48 32.997C25.305 32.983 25.2388 32.9153 25.2248 32.7839ZM27.7664 33.3346C27.5438 33.5586 27.2566 33.7072 26.9453 33.7598C26.8915 33.777 26.8347 33.7831 26.7784 33.7778C26.7421 33.7726 26.7078 33.7574 26.6795 33.734C26.6511 33.7106 26.6298 33.6799 26.6177 33.6452C26.602 33.6168 26.5921 33.5855 26.5887 33.5532C26.5852 33.521 26.5882 33.4883 26.5975 33.4572C26.8386 33.4154 27.0609 33.2999 27.2337 33.1266C27.4477 32.9142 27.5721 32.6279 27.5814 32.3266C27.5945 32.2053 27.5801 32.0827 27.5392 31.9678C27.4707 31.7491 27.3429 31.5536 27.1701 31.403C26.9973 31.2524 26.7862 31.1525 26.5602 31.1145C26.5398 31.0364 26.5469 30.9537 26.5805 30.8804C26.7242 30.5803 27.3513 30.8492 27.6056 31.0422C27.7943 31.1838 27.9475 31.3674 28.0529 31.5785C28.1582 31.7896 28.2129 32.0223 28.2126 32.2583C28.213 32.4583 28.1738 32.6563 28.0972 32.8411C28.0206 33.0258 27.9082 33.1936 27.7664 33.3346ZM11.5491 19.8517C12.737 18.1221 14.2245 16.6571 15.7113 15.193L15.7114 15.1929L15.7115 15.1928L15.7116 15.1927C16.0478 14.8616 16.3839 14.5306 16.7166 14.1965C16.9539 13.9582 17.1168 14.0737 17.2989 14.2606C19.878 16.9079 22.4589 19.5535 25.0417 22.1971C25.1138 22.2709 25.1838 22.3475 25.2542 22.4245C25.46 22.6496 25.6694 22.8786 25.9479 23.055C25.9672 22.997 25.9811 22.9374 25.9894 22.8768C25.99 22.3365 25.99 21.7962 25.9901 21.2559C25.9901 20.0554 25.9901 18.8548 25.9962 17.6543C25.9949 17.5553 25.9727 17.4576 25.9312 17.3677C25.8896 17.2777 25.8296 17.1975 25.7551 17.1322C22.988 14.226 20.225 11.3158 17.4662 8.40165C17.2079 8.12775 17.0799 8.16474 16.8444 8.40443C16.4916 8.76342 16.1251 9.10892 15.7586 9.45444L15.7586 9.45447L15.7586 9.4545L15.7585 9.45452L15.7585 9.45459L15.7584 9.45466L15.7583 9.45472C15.5654 9.63662 15.3725 9.81853 15.1815 10.0024C12.4687 12.6145 9.87232 15.336 7.65068 18.3847C6.0968 20.517 5.10899 22.8875 5.00021 25.5678L5.00507 26.9142C4.98146 28.1332 5.45331 29.207 6.0451 30.2226C7.63686 32.9544 11.262 34.7456 14.3819 34.9494C12.7826 34.4834 11.9742 32.3608 11.5077 30.7604C11.4741 30.6451 11.436 30.4503 11.7077 30.5376C12.2583 30.7146 12.5532 30.7998 12.7826 30.8654C12.8303 31.0105 12.8783 31.1631 12.9278 31.3204L12.9279 31.3206C13.2753 32.4248 13.6957 33.7607 14.5917 34.4048C15.0625 34.7138 15.6039 34.8986 16.1654 34.942C16.5954 34.9567 16.772 34.781 16.7672 34.351C16.7642 34.0767 16.7614 33.8024 16.7589 33.5281V31.6259C16.7617 31.3793 16.7652 31.1328 16.7713 30.8863C16.7735 30.8267 16.7693 30.7671 16.7589 30.7084V30.4294H15.6794V30.7871C15.677 30.8225 15.6766 30.858 15.6781 30.8934C15.6787 30.9056 15.6789 30.9179 15.6794 30.9301V33.3881C15.6414 33.6543 15.4718 33.7666 15.1682 33.7662C14.6126 33.7653 14.2341 33.4157 14.2155 32.8228C14.1951 32.1706 14.2031 31.5171 14.2145 30.8645C14.2149 30.8425 14.2146 30.8216 14.2141 30.8012V30.4098H13.6048C12.9975 30.3449 12.4004 30.2065 11.8265 29.9975C9.79127 29.3207 8.78157 27.6353 9.10415 25.5098C9.42338 23.4066 10.3692 21.5699 11.5491 19.8517ZM19.8104 23.0086C19.0551 22.2357 18.2998 21.4629 17.5403 20.6943C17.4181 20.5847 17.3214 20.4496 17.2572 20.2985C17.193 20.1475 17.1628 19.9841 17.1686 19.8201C17.1834 18.8469 17.1817 17.8734 17.1801 16.9V16.8994C17.1792 16.3999 17.1784 15.9005 17.1797 15.4012C17.1798 15.3653 17.1776 15.3289 17.1753 15.292V15.292V15.292C17.1674 15.1639 17.1591 15.0285 17.2458 14.8785C17.4282 15.0591 17.61 15.2377 17.7911 15.4154L17.7912 15.4156L17.7912 15.4156C18.1805 15.7979 18.5658 16.1761 18.9433 16.562C19.6801 17.3151 20.4154 18.0697 21.1507 18.8243C22.5978 20.3093 24.0449 21.7944 25.5034 23.2681C25.8607 23.6292 26.0163 23.9822 26.005 24.4944C25.9803 25.6158 25.9848 26.7378 25.9892 27.8355C25.9909 28.2576 25.9926 28.6761 25.9926 29.0896C25.6794 28.7931 25.3634 28.4981 25.047 28.2027C24.3437 27.5463 23.6383 26.8878 22.9569 26.2053C21.9006 25.1473 20.8555 24.0779 19.8104 23.0086ZM22.5982 32.2567C22.3124 32.1677 22.0305 32.064 21.752 31.9542C21.5843 31.8881 21.4701 31.761 21.5043 31.5663C21.5196 31.4836 21.5594 31.4075 21.6184 31.3476C21.6774 31.2877 21.753 31.2469 21.8354 31.2303C22.2266 31.1211 22.6202 31.1192 22.8089 31.5939C22.9501 31.9491 23.2098 31.8637 23.4137 31.7966L23.4397 31.7881C23.6866 31.7077 23.5984 31.4259 23.5293 31.2529C23.2823 30.6339 22.5437 30.3039 21.8111 30.4697C21.1902 30.6102 20.8214 30.9864 20.7703 31.5312C20.7138 32.1343 20.9723 32.5744 21.574 32.8277C21.7616 32.9067 21.9576 32.9657 22.1537 33.0247C22.2934 33.0667 22.4332 33.1088 22.5701 33.1582C22.8227 33.2493 23.014 33.4036 22.9632 33.7153C22.9163 34.003 22.7165 34.1522 22.4551 34.2011C21.9977 34.2866 21.593 34.1751 21.4428 33.6935C21.3208 33.3026 21.1333 33.3578 20.9381 33.4152C20.9127 33.4226 20.8871 33.4302 20.8615 33.4367C20.5758 33.5102 20.6565 33.7615 20.7067 33.9176C20.7121 33.9344 20.7171 33.9501 20.7213 33.9644C20.9232 34.6506 21.401 34.947 22.2139 34.9456C23.0835 34.9441 23.6229 34.5618 23.7254 33.8742C23.8504 33.0356 23.4996 32.5376 22.5982 32.2567ZM20.1434 31.054C20.4086 31.6177 20.2691 32.129 19.7962 32.5629C20.3492 32.8945 20.5646 33.3797 20.4305 33.9723C20.3186 34.4665 20.0527 34.8686 19.4852 34.9494L17.2696 34.9239L17.2688 34.3556H17.2561V30.4294H18.8846C18.8933 30.4294 18.9016 30.4305 18.9099 30.4316C18.9153 30.4324 18.9206 30.4331 18.9261 30.4335C19.4328 30.4353 19.9006 30.5378 20.1434 31.054ZM19.1186 31.2179H18.0719V32.2464C18.0983 32.2464 18.1521 32.2467 18.2209 32.2471C18.4559 32.2483 18.866 32.2504 18.9558 32.2454C19.2873 32.2271 19.4902 32.065 19.4899 31.718C19.4896 31.4295 19.3586 31.2623 19.1186 31.2179ZM18.388 34.1915C18.6447 34.1918 18.9347 34.1921 19.015 34.1913C19.4103 34.1875 19.6656 34.0088 19.652 33.5941C19.6395 33.2132 19.3965 33.0354 19.0229 33.0313C18.7895 33.0286 18.1854 33.0264 18.0719 33.0264C18.0719 33.1799 18.0742 33.3792 18.0766 33.583C18.079 33.7965 18.0816 34.0151 18.0816 34.1913C18.1616 34.1913 18.2713 34.1914 18.388 34.1915Z" fill="#DD127B"/>
</svg>
