<svg width="40" height="40" viewBox="0 0 40 40" fill="none" xmlns="http://www.w3.org/2000/svg">
<path d="M22.6718 16.8225H18.6149V18.494H22.3235C22.6665 18.494 23.0061 18.5616 23.323 18.6928C23.6398 18.8241 23.9278 19.0164 24.1703 19.259C24.4128 19.5015 24.6052 19.7894 24.7364 20.1063C24.8677 20.4231 24.9352 20.7627 24.9352 21.1057V21.1057C24.9352 21.7984 24.6601 22.4627 24.1703 22.9525C23.6805 23.4423 23.0162 23.7174 22.3235 23.7174H20.6869V18.9119H18.6149V25.3541H22.6718C23.8031 25.3541 24.8881 24.9047 25.6881 24.1047C26.4881 23.3047 26.9376 22.2197 26.9376 21.0883C26.9376 19.9569 26.4881 18.8719 25.6881 18.0719C24.8881 17.2719 23.8031 16.8225 22.6718 16.8225V16.8225Z" fill="#D82819"/>
<path d="M33.1955 20.9607C33.5965 20.815 33.9429 20.5494 34.1878 20.2C34.4327 19.8506 34.5642 19.4343 34.5644 19.0077V19.0077C34.5644 18.7344 34.5106 18.4639 34.406 18.2114C34.3015 17.959 34.1482 17.7296 33.955 17.5364C33.7618 17.3432 33.5324 17.1899 33.28 17.0854C33.0276 16.9808 32.757 16.927 32.4838 16.927H27.3561V18.5289H31.7677C31.9934 18.5289 32.2099 18.6185 32.3695 18.7781C32.529 18.9377 32.6187 19.1541 32.6187 19.3798C32.6187 19.6055 32.529 19.822 32.3695 19.9816C32.2099 20.1412 31.9934 20.2308 31.7677 20.2308H29.4193V18.9467H27.3561V25.2148H32.8581C33.1393 25.2148 33.4178 25.1594 33.6777 25.0518C33.9375 24.9441 34.1736 24.7864 34.3725 24.5875C34.5713 24.3886 34.7291 24.1526 34.8367 23.8927C34.9443 23.6329 34.9997 23.3544 34.9997 23.0732C34.9994 22.564 34.8176 22.0716 34.4869 21.6844C34.1562 21.2973 33.6983 21.0407 33.1955 20.9607V20.9607ZM32.8059 22.6554C32.8059 22.9093 32.705 23.1529 32.5254 23.3325C32.3458 23.5121 32.1022 23.613 31.8482 23.613H29.4193V21.6977H31.8482C32.1022 21.6977 32.3458 21.7986 32.5254 21.9782C32.705 22.1578 32.8059 22.4014 32.8059 22.6553V22.6554Z" fill="#D82819"/>
<path d="M14.1326 22.3074C14.0064 22.1192 13.9246 21.9048 13.8934 21.6803C13.844 21.3528 13.9314 20.4092 12.4166 18.8073C10.6984 16.9903 12.2612 15.6554 13.8618 14.646H6.21815L12.9564 25.1973H14.7671L14.756 25.18H14.8542L18.023 16.8225H16.2123L14.1326 22.3074Z" fill="#D82819"/>
<path d="M4.99992 14.646L11.7904 25.1974H12.6522L5.86185 14.646H4.99992Z" fill="#D82819"/>
<path d="M10.3269 14.9656L10.6437 15.6074L11.352 15.7104L10.8395 16.2099L10.9605 16.9154L10.3269 16.5824L9.6934 16.9154L9.81434 16.2099L9.30188 15.7104L10.0102 15.6074L10.3269 14.9656Z" fill="#EDEB1C"/>
</svg>
