<svg width="40" height="40" viewBox="0 0 40 40" fill="none" xmlns="http://www.w3.org/2000/svg">
<path fill-rule="evenodd" clip-rule="evenodd" d="M32.4279 12.8628C31.6239 12.8628 31.3023 13.061 30.86 13.4972L29.855 14.5678L28.8499 13.4972C28.4077 13.061 28.0861 12.8628 27.2821 12.8628H26.1162C26.1162 12.8628 27.9253 15.0833 28.1665 15.3608C28.5685 15.797 28.8097 15.9952 29.3726 15.9952H30.3374C30.86 15.9952 31.1415 15.797 31.5435 15.3608C31.7445 15.0833 33.5938 12.8628 33.5938 12.8628H32.4279Z" fill="#FCB813"/>
<path fill-rule="evenodd" clip-rule="evenodd" d="M31.7839 15.7573C31.2211 15.8762 30.8994 15.9952 30.618 16.471L30.3768 16.8675L30.1356 17.264C29.8542 17.7399 29.8944 18.0571 30.0954 18.6122C30.216 18.9294 31.2613 21.6257 31.2613 21.6257L31.8643 20.6344C32.2663 19.9603 32.2663 19.5638 32.1055 18.969L31.6633 17.5813L33.1106 17.264C33.7136 17.1054 34.0754 16.9072 34.4372 16.2331L35 15.2418C35 15.2815 32.1055 15.7176 31.7839 15.7573Z" fill="#F37920"/>
<path fill-rule="evenodd" clip-rule="evenodd" d="M29.5733 17.3037L29.3321 16.9072L29.0909 16.5107C28.8094 16.0348 28.4878 15.8762 27.925 15.7573C27.6034 15.678 24.7088 15.2418 24.7088 15.2418L25.3119 16.2331C25.7139 16.9072 26.0355 17.1054 26.6385 17.264L28.0858 17.5813L27.6436 18.969C27.4828 19.5638 27.4828 19.9603 27.8848 20.6344L28.4476 21.6257C28.4476 21.6257 29.4929 18.969 29.6135 18.6122C29.7743 18.0967 29.8547 17.7399 29.5733 17.3037Z" fill="#F6921E"/>
<path fill-rule="evenodd" clip-rule="evenodd" d="M24.3064 22.4188C24.3868 22.3791 24.3868 22.3791 24.427 22.3394C25.03 22.0222 25.5125 21.3878 25.5125 20.6344C25.5125 19.1673 24.3466 18.6122 22.6581 18.6122C22.6581 18.6122 19.2812 18.6122 19.04 18.6122C18.7585 18.6122 18.5977 18.7708 18.5977 19.0484V26.5028C18.5977 26.8597 18.7585 26.9787 18.9998 26.9787C19.241 26.9787 23.0602 26.9787 23.0602 26.9787C24.7888 26.9787 26.0753 26.1856 26.0753 24.5203C26.0753 23.4497 25.3919 22.6567 24.3064 22.4188ZM20.4872 20H22.3767C23.1406 20 23.5828 20.3172 23.5828 20.912C23.5828 21.5464 23.1004 21.8636 22.4571 21.8636H20.4872V20ZM22.6179 25.5512H20.4872V23.2911H22.6581C23.5426 23.2911 24.1456 23.6479 24.1456 24.441C24.1054 25.3133 23.3416 25.5512 22.6179 25.5512ZM16.5474 18.5726H15.3816C15.1806 18.5726 15.0198 18.7312 15.0198 18.9294V26.5821C15.0198 26.7804 15.1806 26.939 15.3816 26.939H16.5474C16.7484 26.939 16.9093 26.7804 16.9093 26.5821V18.9294C16.9093 18.7312 16.7484 18.5726 16.5474 18.5726ZM13.2911 18.5726H12.2458C11.9242 18.5726 11.8036 18.6915 11.683 19.1673C11.281 20.793 10.8388 23.3307 9.91411 24.6789C9.91411 24.6789 9.7131 25.0357 9.43169 25.0357C9.15027 25.0357 8.90906 24.6789 8.90906 24.6789C8.02462 23.3704 7.38139 20.793 7.01957 19.1673C6.89896 18.6915 6.81856 18.5726 6.45674 18.5726H5.41149C5.04967 18.5726 4.96927 18.8501 5.00947 19.1277C5.33108 20.793 5.89391 23.3307 7.22058 25.5116C7.82361 26.5425 8.42664 27.1373 9.43169 27.1373C10.4769 27.1373 11.0398 26.5821 11.6428 25.5116C12.9695 23.3307 13.3313 20.793 13.6931 19.1277C13.7735 18.8898 13.6529 18.5726 13.2911 18.5726Z" fill="#0066B2"/>
</svg>
