<svg width="40" height="40" viewBox="0 0 40 40" fill="none" xmlns="http://www.w3.org/2000/svg">
<path d="M7.06596 26.4444C7.06596 26.4444 7.08291 27.3837 9.06238 28.4991C11.0419 29.6145 20.1833 34.895 20.1833 34.895L22.6504 31.9273L8.2756 24.4898L7.06596 26.4444Z" fill="#F7941D"/>
<path d="M26.5628 12.4128H31.6291C32.029 12.4128 32.4125 12.5717 32.6953 12.8544C32.978 13.1372 33.1369 13.5207 33.1369 13.9205V27.5686H26.5628V12.4128Z" fill="#F7941D"/>
<path d="M19.8447 34.6399L16.4919 30.8766L29.5543 22.1916L33.0879 27.4283C33.1098 27.4605 33.125 27.4969 33.1324 27.5351C33.1398 27.5734 33.1394 27.6128 33.131 27.6508C33.1227 27.6889 33.1066 27.7249 33.0839 27.7566C33.0612 27.7882 33.0322 27.8149 32.9988 27.835L21.1848 34.8525C20.9714 34.9781 20.721 35.0256 20.4765 34.9868C20.232 34.9481 20.0086 34.8254 19.8447 34.6399V34.6399Z" fill="#FFDE40"/>
<path d="M6.86189 12.7702V26.193C6.86188 26.3789 6.91079 26.5615 7.00372 26.7224C7.09665 26.8834 7.23032 27.0171 7.39129 27.11L19.0158 33.8214C19.1767 33.9143 19.3593 33.9632 19.5452 33.9632C19.731 33.9632 19.9136 33.9143 20.0745 33.8214L31.699 27.11C31.86 27.017 31.9937 26.8834 32.0866 26.7224C32.1795 26.5614 32.2284 26.3788 32.2284 26.193V12.7702C32.2284 12.5843 32.1795 12.4017 32.0866 12.2408C31.9937 12.0798 31.86 11.9461 31.699 11.8532L20.0745 5.14187C19.9136 5.04895 19.731 5.00003 19.5452 5.00003C19.3593 5.00003 19.1767 5.04895 19.0158 5.14187L7.39129 11.8533C7.23033 11.9462 7.09667 12.0799 7.00374 12.2408C6.91082 12.4018 6.86189 12.5843 6.86189 12.7702V12.7702Z" fill="#FFC20E"/>
<path d="M26.4838 19.6358C26.9059 19.4402 27.2632 19.1279 27.5137 18.7358C27.7641 18.3438 27.8971 17.8882 27.8971 17.423V17.423C27.8971 17.1027 27.834 16.7855 27.7115 16.4896C27.5889 16.1937 27.4093 15.9248 27.1828 15.6983C26.9563 15.4719 26.6874 15.2922 26.3915 15.1696C26.0956 15.0471 25.7784 14.984 25.4581 14.984H17.9541L16.3046 19.8855L14.7492 14.984H10.5782L13.9362 24.469C13.9362 24.469 16.1316 24.4902 18.017 24.49H25.816C26.4719 24.4899 27.1009 24.2294 27.5647 23.7656C28.0285 23.3018 28.289 22.6728 28.289 22.0169V22.0169C28.2889 21.4775 28.1124 20.9529 27.7865 20.523C27.4606 20.0931 27.0032 19.7816 26.4838 19.6358ZM23.6392 21.8769H21.7953V21.0167H23.6392C23.7533 21.0167 23.8627 21.062 23.9433 21.1427C24.024 21.2233 24.0693 21.3327 24.0693 21.4468C24.0693 21.5609 24.024 21.6702 23.9433 21.7509C23.8627 21.8315 23.7533 21.8769 23.6392 21.8769V21.8769ZM23.6392 18.6013H21.7953V17.7412H23.6392C23.7533 17.7412 23.8627 17.7865 23.9433 17.8671C24.024 17.9478 24.0693 18.0572 24.0693 18.1712C24.0693 18.2853 24.024 18.3947 23.9433 18.4753C23.8627 18.556 23.7533 18.6013 23.6392 18.6013V18.6013Z" fill="#DA202C"/>
</svg>
