<svg width="40" height="40" viewBox="0 0 40 40" fill="none" xmlns="http://www.w3.org/2000/svg">
<path d="M31.073 30.2045C30.4421 27.9108 28.97 26.2427 27.1825 24.8874C25.7104 23.7405 24.2383 22.8022 22.8714 21.5511C22.0302 20.8213 21.2942 19.9873 21.189 18.8404C20.9787 17.4851 21.8199 16.0255 23.1869 15.2957C24.4486 14.7744 26.131 15.0872 27.0774 16.1297C27.1825 15.9212 27.1825 15.817 27.0774 15.6084C26.5516 13.9403 25.5001 12.7935 23.9229 12.0637C23.7126 11.9594 23.5023 11.8552 23.3972 11.6467C22.1354 10.0828 19.9273 9.66577 18.0346 10.3956C17.2986 10.7083 16.5625 11.1254 15.7213 11.1254C14.2492 11.2296 12.9875 10.7083 11.936 9.45725C11.7257 10.0828 11.7257 10.7083 11.8308 11.3339C12.0411 12.1679 12.5669 12.7935 13.3029 13.3148C13.5132 13.419 13.6184 13.5233 13.5132 13.7318C13.1978 15.0872 13.4081 16.3382 13.8287 17.5893C14.2492 19.0489 14.9853 20.5085 15.7213 21.8639C16.5625 23.4278 17.1934 24.9916 17.2986 26.764C17.5089 28.3279 16.5625 29.8917 15.0904 30.413C13.6184 30.9343 11.936 30.413 11.0948 29.2662C10.5691 28.5364 10.4639 27.8066 10.4639 26.9725C10.4639 25.5129 10.7793 24.1576 11.1999 22.698C11.6205 21.3426 12.0411 20.0915 12.2514 18.7362C12.672 15.7127 11.7257 13.2105 9.72786 10.9169C9.62271 10.7083 9.41242 10.6041 9.20212 10.3956C8.78152 9.97854 8.78152 9.97854 9.20212 9.45725C15.1956 3.51457 24.7641 3.51457 30.6524 9.45725C30.8627 9.66577 30.9678 9.87428 30.7576 10.1871C29.2855 12.7935 28.6546 15.6084 28.8649 18.5277C29.0752 21.8639 30.337 24.7831 32.5451 27.181C32.6502 27.2853 32.7554 27.3895 32.6502 27.5981C32.3348 28.7449 31.809 29.4747 31.073 30.2045Z" fill="url(#paint0_linear_6200_36)"/>
<path d="M17.7192 14.7742C18.0346 15.6082 18.5603 16.0252 19.2964 16.0252C19.6118 16.0252 19.6118 16.1295 19.6118 16.338C19.0861 18.9445 19.8221 21.2381 21.9251 23.0105C23.1869 24.0531 24.4487 24.9914 25.5001 26.2425C27.0774 28.0149 27.9186 30.1 27.8134 32.4979C27.8134 32.8107 27.7083 33.0192 27.3928 33.1235C17.9295 38.2321 6.46828 32.3937 5.10135 21.8637C4.7859 19.153 5.20649 16.5465 6.36313 14.0444C6.46827 13.7316 6.57342 13.6273 6.88887 13.8358C9.62273 15.3997 10.9897 18.7359 10.1485 21.7594C9.83302 22.9062 9.41243 24.1573 9.30729 25.4084C8.99184 27.3893 9.30728 29.266 10.6742 30.8298C12.0411 32.3937 14.3544 33.0192 16.4574 32.3937C18.5603 31.7681 20.0324 29.9958 20.2427 27.9106C20.453 26.451 20.0324 25.0957 19.0861 23.8446C18.35 22.802 17.5089 21.8637 16.7728 20.9254C15.8265 19.6743 15.0904 18.3189 14.8801 16.7551C14.4596 13.6273 16.9831 11.0209 20.2427 11.4379C21.1891 11.5422 21.8199 12.1677 21.9251 13.0018C21.9251 13.7316 21.5045 14.4614 20.5582 14.7742C19.717 15.0869 18.8758 14.9827 18.0346 14.8784C17.9295 14.7742 17.8243 14.7742 17.7192 14.7742Z" fill="url(#paint1_linear_6200_36)"/>
<path d="M33.3863 13.4188C34.1224 14.8784 34.6481 16.338 34.8584 17.9019C35.279 21.0296 34.7533 23.9488 33.3863 26.868C33.2812 26.9723 33.2812 27.1808 33.176 27.1808C33.0709 27.1808 32.9658 26.9723 32.9658 26.868C30.5473 22.4892 30.6525 18.1104 33.176 13.7316C33.176 13.7316 33.2812 13.6273 33.3863 13.4188C33.3863 13.5231 33.3863 13.5231 33.3863 13.4188Z" fill="url(#paint2_linear_6200_36)"/>
<defs>
<linearGradient id="paint0_linear_6200_36" x1="7.10682" y1="23.5488" x2="27.6375" y2="16.5572" gradientUnits="userSpaceOnUse">
<stop stop-color="#762A32"/>
<stop offset="1" stop-color="#D63B42"/>
</linearGradient>
<linearGradient id="paint1_linear_6200_36" x1="8.11616" y1="26.5122" x2="28.6467" y2="19.5206" gradientUnits="userSpaceOnUse">
<stop stop-color="#762A32"/>
<stop offset="1" stop-color="#D63B42"/>
</linearGradient>
<linearGradient id="paint2_linear_6200_36" x1="8.80839" y1="28.5451" x2="29.3391" y2="21.5535" gradientUnits="userSpaceOnUse">
<stop stop-color="#762A32"/>
<stop offset="1" stop-color="#D63B42"/>
</linearGradient>
</defs>
</svg>
