<svg width="40" height="40" viewBox="0 0 40 40" fill="none" xmlns="http://www.w3.org/2000/svg">
<path fill-rule="evenodd" clip-rule="evenodd" d="M15.5994 15.4252H24.4009V23.5192C27.6746 24.0335 30.7604 25.1164 33.578 26.6864C34.4903 24.6562 35.0002 22.4093 35.0002 20.0001C35.0002 11.3376 28.2649 4.32642 20.0002 4.32642C11.7086 4.32642 5.00015 11.3376 5.00015 20.0001C5.00015 22.3823 5.50999 24.6562 6.42233 26.6594C9.23986 25.0893 12.3257 24.0065 15.5994 23.4921V15.4252Z" fill="#005993"/>
<path fill-rule="evenodd" clip-rule="evenodd" d="M19.9977 35.6736C25.2303 35.6736 29.8457 32.8583 32.529 28.5812C28.7723 26.4968 24.5058 25.3328 19.9709 25.3328C15.436 25.3328 11.1695 26.4968 7.43959 28.5812C10.123 32.8312 14.7383 35.6736 19.9977 35.6736Z" fill="#D61D4B"/>
</svg>
