<svg width="40" height="40" viewBox="0 0 40 40" fill="none" xmlns="http://www.w3.org/2000/svg">
<path d="M15.6738 5.88181C15.6738 5.88181 15.6537 5.88181 15.6738 5.88181C15.6537 5.88181 15.6738 5.88181 15.6738 5.88181ZM21.1901 5.50293C19.2373 5.50293 17.3851 5.62258 15.6335 5.88181H15.5933C15.6134 5.88181 15.6134 5.88181 15.6335 5.88181C13.5398 6.26068 13.0969 7.4372 13.0969 7.4372C12.5533 8.51401 13.6002 11.4653 15.6939 14.9749C16.2576 14.8951 19.8412 14.4165 23.6664 14.4963C27.4916 14.576 29.7061 15.0546 30.6725 15.6329C31.6389 16.2112 31.357 17.3478 31.2362 17.6469C31.9408 16.3907 33.4709 13.4195 33.9138 11.6248C34.3769 9.8301 33.9742 9.05241 33.8937 8.853C33.4709 7.83601 32.6656 7.37737 32.4643 7.25773C30.3906 6.24074 27.0285 5.84192 24.8341 5.66246C23.7067 5.56275 22.539 5.50293 21.331 5.50293H21.1901Z" fill="url(#paint0_linear_6200_123)"/>
<path d="M15.6524 5.88184C15.6323 5.88184 15.6122 5.88184 15.592 5.90178C9.69321 6.69941 7.13639 8.49409 6.12976 9.49114C6.12976 9.49114 4.94195 10.5879 5.00235 12.3227C5.08288 14.5761 6.47202 17.7068 7.09613 18.983C8.42487 21.6351 10.2771 24.3272 10.8206 25.045C11.8474 26.4409 13.6392 28.5945 15.4712 30.2895C16.8805 31.5657 18.8132 33.2009 20.4037 34.0184C21.3097 34.4771 22.3767 34.497 22.4773 34.497C22.7189 34.497 24.0678 34.4372 25.2959 33.3604C26.7857 32.0244 28.2554 29.4719 29.262 27.757C30.8122 25.1447 32.1007 22.0738 32.7449 20.4188C33.2281 19.1824 34.5568 15.3538 34.9393 12.5421C35.1608 10.9867 34.7179 9.81019 34.5568 9.45126C34.3152 8.91285 34.0334 8.49409 33.7112 8.1551C33.5502 7.99557 33.3086 7.77622 33.067 7.61669C32.7852 7.41729 32.5033 7.29764 32.5033 7.29764C32.7046 7.39734 33.5099 7.85598 33.9327 8.89291C34.0132 9.09232 34.3958 9.87002 33.9528 11.6647C33.4898 13.4594 32 16.4106 31.2752 17.6669C31.2752 17.6669 31.2752 17.6669 31.2752 17.6868C31.094 18.0059 26.987 25.1846 24.9939 25.1647C23.0209 25.1447 18.6924 19.4217 17.6254 17.9062C16.9208 16.9092 16.2765 15.952 15.733 15.0148C13.6392 11.5251 12.6124 8.57386 13.156 7.49705C13.0956 7.43723 13.5385 6.26071 15.6524 5.88184Z" fill="url(#paint1_linear_6200_123)"/>
<defs>
<linearGradient id="paint0_linear_6200_123" x1="12.9504" y1="11.5678" x2="34.1319" y2="11.5678" gradientUnits="userSpaceOnUse">
<stop stop-color="#034C2D"/>
<stop offset="0.3159" stop-color="#366B36"/>
<stop offset="0.9121" stop-color="#92C03E"/>
<stop offset="1" stop-color="#92C03E"/>
</linearGradient>
<linearGradient id="paint1_linear_6200_123" x1="9.75436" y1="12.3246" x2="36.4611" y2="25.8599" gradientUnits="userSpaceOnUse">
<stop stop-color="#92C03E"/>
<stop offset="0.0989011" stop-color="#92C03E"/>
<stop offset="0.3486" stop-color="#66953D"/>
<stop offset="0.7887" stop-color="#255E33"/>
<stop offset="1" stop-color="#034C2D"/>
</linearGradient>
</defs>
</svg>
