<svg width="40" height="40" viewBox="0 0 40 40" fill="none" xmlns="http://www.w3.org/2000/svg">
<path d="M20.8227 35.5556H27.3466C28.1866 35.3868 28.9776 35.0301 29.6603 34.5122H21.5609L20.8227 35.5556Z" fill="#048B3F"/>
<path d="M22.1134 33.7375H30.4945C30.7769 33.4186 31.0219 33.0686 31.2249 32.6941H22.8516L22.1134 33.7375Z" fill="#048B3F"/>
<path d="M23.4007 31.9167H31.5757C31.6979 31.5783 31.787 31.2289 31.8418 30.8733H24.1389L23.4007 31.9167Z" fill="#048B3F"/>
<path d="M24.6891 30.0959H31.9094C31.912 30.0594 31.912 30.0202 31.912 29.9837V29.0525H25.4299L24.6891 30.0959Z" fill="#048B3F"/>
<path d="M25.9809 28.2752H31.9126V27.2318H26.7191L25.9809 28.2752Z" fill="#048B3F"/>
<path d="M27.2704 26.4545H31.9135V25.4111H28.0112L27.2704 26.4545Z" fill="#048B3F"/>
<path d="M28.5566 24.6364H31.9111V23.593H29.2948L28.5566 24.6364Z" fill="#048B3F"/>
<path d="M29.8461 22.8156H31.9121V21.7722H30.5869L29.8461 22.8156Z" fill="#048B3F"/>
<path d="M31.6914 20.2124L31.3236 20.7341H31.9131V20.2124H31.6914Z" fill="#048B3F"/>
<path d="M19.1763 35.5556H12.6524C11.8123 35.3868 11.0213 35.0301 10.3387 34.5122H18.4381L19.1763 35.5556Z" fill="#048B3F"/>
<path d="M17.8872 33.7375H9.50606C9.22365 33.4186 8.97861 33.0686 8.77568 32.6941H17.149L17.8872 33.7375Z" fill="#048B3F"/>
<path d="M16.599 31.9167H8.42397C8.30175 31.5783 8.21265 31.2289 8.15791 30.8733H15.8608L16.599 31.9167Z" fill="#048B3F"/>
<path d="M15.31 30.0959H8.08963C8.08702 30.0594 8.08702 30.0202 8.08702 29.9837V29.0525H14.5692L15.31 30.0959Z" fill="#048B3F"/>
<path d="M14.0188 28.2752H8.08702V27.2318H13.2806L14.0188 28.2752Z" fill="#048B3F"/>
<path d="M12.7302 26.4545H8.08702V25.4111H11.9893L12.7302 26.4545Z" fill="#048B3F"/>
<path d="M11.4416 24.6364H8.08702V23.593H10.7034L11.4416 24.6364Z" fill="#048B3F"/>
<path d="M10.153 22.8156H8.08702V21.7722H9.41214L10.153 22.8156Z" fill="#048B3F"/>
<path d="M8.30874 20.2124L8.67654 20.7341H8.08702V20.2124H8.30874Z" fill="#048B3F"/>
<path d="M19.9998 4.44446L9.57573 19.163L19.9998 33.8815L30.424 19.163L19.9998 4.44446Z" fill="#FFB93E"/>
<path d="M14.5241 23.1025L13.1473 15.2338H14.4583L14.8767 18.4352C15.0134 19.4948 15.1834 20.6081 15.2541 21.5134H15.2762C15.3455 20.6599 15.5274 19.5363 15.6536 18.4602L16.0465 15.2338H17.3458L16.005 23.1026L14.5241 23.1025Z" fill="white"/>
<path d="M19.3739 20.7865V21.2728C19.3739 21.8584 19.5496 22.1844 20.0108 22.1844C20.4838 22.1844 20.6062 21.7363 20.6062 21.2252C20.6062 20.3796 20.4239 20.1172 19.5799 19.4515C18.7332 18.7828 18.2809 18.3555 18.2809 17.1906C18.2809 16.1536 18.5946 15.107 20.0149 15.1084C21.4674 15.1098 21.6916 16.1452 21.6916 16.9989V17.4193H20.4884V17.0314C20.4884 16.4836 20.396 16.1518 19.9928 16.1518C19.5986 16.1518 19.4943 16.4948 19.4943 17.0163C19.4943 17.5722 19.5999 17.8445 20.2916 18.3506C21.4691 19.2214 21.83 19.727 21.83 21.0434C21.83 22.1597 21.4389 23.2176 19.9706 23.2176C18.5151 23.2176 18.1603 22.2902 18.1603 21.2536V20.7867L19.3739 20.7865Z" fill="white"/>
<path d="M23.2071 15.2338H24.8225C26.1848 15.2338 26.7082 15.8713 26.7082 17.0252V17.3145C26.7082 18.4308 26.3219 18.7531 25.978 18.8958C26.3289 19.0357 26.854 19.3292 26.854 20.4743V21.0708C26.854 22.4014 26.2993 23.1026 24.9294 23.1026H23.2071V15.2338ZM24.6858 18.4377C25.3642 18.4377 25.5675 18.228 25.5675 17.4479V17.1406C25.5675 16.4876 25.3351 16.2356 24.7548 16.2356H24.3792V18.4376L24.6858 18.4377ZM24.3792 22.1108H24.7844C25.4849 22.1108 25.6597 21.8014 25.6597 21.0397V20.5157C25.6597 19.7482 25.4652 19.4189 24.6919 19.4189H24.3792V22.1108Z" fill="white"/>
</svg>
