<svg width="40" height="40" viewBox="0 0 40 40" fill="none" xmlns="http://www.w3.org/2000/svg">
<path d="M13.4375 7.40672C13.2152 7.41809 13.0241 7.53102 13.0241 7.76291V15.3127C13.0241 15.3127 13.0511 16.5325 14.1328 17.7523C15.2146 18.9721 19.5888 24.0125 19.5888 24.0125V14.1354L14.038 7.66013C13.913 7.48559 13.6597 7.39536 13.4375 7.40672ZM26.5289 7.4194C26.3331 7.42543 26.1058 7.53094 25.9166 7.74065L20.4112 14.1388V24.0125L26.1468 17.3609C26.1468 17.3609 26.9806 16.2793 26.9806 15.0134V7.8786C26.9806 7.56812 26.7807 7.41164 26.5289 7.4194ZM5.50721 16.6031C5.00128 16.6031 4.78729 17.2389 5.27375 17.7318C5.27375 17.7318 14.4777 28.4536 16.3263 30.5551C18.1749 32.6567 19.5888 32.5938 19.5888 32.5938V25.3792C19.5888 25.3792 16.0928 21.2149 14.1469 18.9577C12.201 16.7004 9.32124 16.6031 9.32124 16.6031H5.50721ZM30.6787 16.6031C30.6787 16.6031 27.7989 16.7004 25.853 18.9577C23.9072 21.2149 20.4112 25.3792 20.4112 25.3792V32.5938C20.4112 32.5938 21.8249 32.6567 23.6734 30.5551C25.522 28.4536 34.7262 17.7318 34.7262 17.7318C35.2126 17.2389 34.9987 16.6031 34.4927 16.6031H30.6787Z" fill="#E00500"/>
</svg>
