<svg width="40" height="40" viewBox="0 0 40 40" fill="none" xmlns="http://www.w3.org/2000/svg">
<path d="M34.1118 25.3287H5.8878C4.8478 25.3287 3.9998 24.4793 3.9998 23.4377V16.5627C3.9998 15.521 4.8478 14.6716 5.8878 14.6716H34.1118C35.1518 14.6716 35.9998 15.521 35.9998 16.5627V23.4377C35.9998 24.4793 35.1518 25.3287 34.1118 25.3287Z" fill="#22599D"/>
<path d="M35.9998 19.9921H3.9998V16.5146C3.9998 15.4889 4.8158 14.6716 5.8398 14.6716H34.1598C35.1678 14.6716 35.9998 15.4889 35.9998 16.5146V19.9921Z" fill="#E42329"/>
<path d="M11.4392 23.3735L8.60724 17.1235H10.3352L12.3352 21.7549L14.2712 17.1235H15.9672L13.1352 23.3735H11.4392Z" fill="white"/>
<path d="M16.7845 23.3735V17.1235H20.1445C20.9925 17.1235 21.6005 17.1876 21.9845 17.2998C22.3685 17.412 22.6725 17.6203 22.8965 17.8928C23.1205 18.1812 23.2485 18.5017 23.2485 18.8864C23.2485 19.3511 23.0725 19.7517 22.7205 20.0562C22.3685 20.3607 21.8565 20.553 21.1525 20.6332C21.5045 20.7934 21.7765 20.9697 22.0005 21.162C22.2245 21.3543 22.5285 21.6908 22.9125 22.1716L23.8725 23.3896H21.9685L20.8165 22.0274C20.4005 21.5466 20.1285 21.2261 19.9685 21.1139C19.8245 20.9857 19.6645 20.9056 19.4885 20.8575C19.3125 20.8094 19.0565 20.7934 18.6885 20.7934H18.3685V23.4056H16.7845V23.3735ZM18.3845 19.7678H19.5685C20.3365 19.7678 20.8165 19.7357 21.0085 19.6876C21.2005 19.6396 21.3445 19.5434 21.4565 19.4152C21.5685 19.287 21.6165 19.1267 21.6165 18.9505C21.6165 18.7421 21.5525 18.5658 21.4085 18.4376C21.2645 18.3094 21.0725 18.2293 20.8005 18.1973C20.6725 18.1812 20.2885 18.1812 19.6325 18.1812H18.3845V19.7678V19.7678Z" fill="white"/>
<path d="M24.7514 17.1235H27.9034C28.5274 17.1235 28.9914 17.1396 29.2954 17.1876C29.5994 17.2357 29.8714 17.3158 30.1274 17.444C30.3674 17.5723 30.5754 17.7485 30.7354 17.9729C30.8954 18.1973 30.9754 18.4376 30.9754 18.7101C30.9754 18.9985 30.8794 19.271 30.6714 19.5114C30.4794 19.7517 30.2074 19.944 29.8554 20.0562C30.3354 20.1684 30.7034 20.3607 30.9594 20.6171C31.2154 20.8896 31.3434 21.194 31.3434 21.5626C31.3434 21.8511 31.2634 22.1235 31.0874 22.396C30.9274 22.6684 30.6874 22.8767 30.3994 23.037C30.1114 23.1973 29.7594 23.2934 29.3274 23.3415C29.0554 23.3575 28.4154 23.3735 27.4074 23.3896H24.7194V17.1235H24.7514ZM26.3514 18.1652V19.6075H27.3914C28.0154 19.6075 28.3994 19.6075 28.5434 19.5915C28.8154 19.5594 29.0234 19.4953 29.1834 19.3671C29.3434 19.2389 29.4234 19.0787 29.4234 18.8703C29.4234 18.678 29.3594 18.5178 29.2154 18.4056C29.0874 18.2774 28.8794 18.2133 28.6074 18.1812C28.4474 18.1652 27.9994 18.1652 27.2474 18.1652H26.3514ZM26.3514 20.6492V22.3158H27.8234C28.3994 22.3158 28.7674 22.2998 28.9114 22.2838C29.1514 22.2517 29.3434 22.1716 29.4874 22.0274C29.6314 21.8992 29.7114 21.7229 29.7114 21.4985C29.7114 21.3062 29.6474 21.146 29.5354 21.0178C29.4234 20.8896 29.2474 20.7934 29.0394 20.7293C28.8154 20.6652 28.3514 20.6332 27.6314 20.6332H26.3514V20.6492Z" fill="white"/>
</svg>
