<svg width="40" height="40" viewBox="0 0 40 40" fill="none" xmlns="http://www.w3.org/2000/svg">
<ellipse cx="19.9935" cy="20" rx="14.9303" ry="15" fill="white"/>
<path d="M14.1476 14.0011C13.7878 13.8549 13.5001 13.8549 13.3562 14.2936C13.2842 14.6592 13.5001 14.7323 13.7878 14.8054C14.0756 14.8785 14.2915 15.0247 14.2915 15.3903C14.2915 15.7559 14.0037 15.9752 13.7159 15.9752C13.3562 15.9752 13.2123 16.1214 13.2123 16.487C13.2123 16.7064 12.9965 16.8526 12.7806 16.8526C12.349 16.7795 12.2051 16.8526 12.277 17.3644C12.349 17.9493 11.7014 17.73 11.4137 17.8762C11.4856 17.5106 11.1259 16.8526 11.9173 16.9257C12.4209 16.9257 12.277 16.6332 12.349 16.3408C12.349 16.1214 12.349 15.9021 12.0612 15.9021C11.7734 15.9021 11.4137 15.9752 11.3417 16.2677C11.2698 16.487 11.4137 16.9257 10.9101 16.9257C10.4064 16.9257 10.4064 16.6332 10.3345 16.2677C10.2626 16.0483 10.1187 15.9752 9.90283 15.9752C9.68699 15.9752 9.61505 16.1214 9.5431 16.3408C9.5431 16.487 9.61505 16.7064 9.75894 16.7064C10.5503 16.7795 10.4784 17.2913 10.3345 17.8031C9.97477 17.73 9.39921 17.9493 9.32727 17.2182C9.32727 16.9988 9.11143 16.8526 8.8956 16.8526C8.67977 16.8526 8.53588 16.9988 8.53588 17.2182C8.46393 17.5106 8.60782 17.73 8.8956 17.73C9.47116 17.8031 9.61505 18.0955 9.25532 18.5342C8.96754 18.8998 8.53588 18.8998 8.39199 18.3149C8.32004 18.0955 8.2481 17.8762 7.88837 17.8762C7.67254 17.8762 7.52865 18.0224 7.52865 18.2418C7.4567 18.5342 7.67254 18.6805 7.96032 18.6805C8.2481 18.7536 8.46393 18.8998 8.39199 19.2654C8.32004 19.5578 8.17615 19.7041 7.88837 19.7041C7.52865 19.7772 7.4567 19.4847 7.38476 19.1923C7.31281 18.9729 7.24087 18.7536 6.95309 18.8267C6.8092 18.8267 6.66531 18.8998 6.59337 19.046C6.52142 19.3385 6.73726 19.4847 6.95309 19.6309C7.52865 19.9234 7.67254 20.289 7.02503 20.6546C6.66531 20.8008 6.37753 20.947 6.52142 21.3126C6.66531 21.6782 7.02503 21.6782 7.38476 21.605C7.24087 21.9706 7.4567 22.7018 6.59337 22.5555C6.37753 22.4824 6.37753 22.7749 6.37753 22.9211C6.44948 23.3598 6.23364 23.5791 5.87392 23.5791C5.3703 23.6523 5.44225 23.2136 5.3703 22.9211C4.57891 18.7536 5.29836 14.8785 7.74448 11.4421C11.6295 6.25096 16.7376 4.05752 22.9968 5.37359C29.184 6.61654 33.0691 10.6378 34.5799 16.9257C34.9396 18.4611 35.0116 20.0696 34.8677 21.605C34.7238 22.848 34.7238 22.848 33.5727 22.7749C33.5727 22.4093 33.4288 22.0437 33.5727 21.6782C33.7166 21.6782 33.8605 21.6782 34.0043 21.605C34.2202 21.5319 34.3641 21.3857 34.2921 21.1664C34.2921 21.0201 34.1482 20.8739 34.0043 20.8739C33.7885 20.8739 33.6446 21.0201 33.5727 21.2395C33.5727 21.3857 33.5727 21.5319 33.5727 21.6782C33.213 21.6782 32.7813 21.8975 32.5654 21.3126C32.4216 20.8008 32.7813 20.7277 33.141 20.5814C33.3568 20.5083 33.4288 20.289 33.3568 20.0696C33.2849 19.9234 33.213 19.7772 33.0691 19.7772C32.8532 19.7772 32.6374 19.7772 32.6374 20.0696C32.5655 20.4352 32.4216 20.6546 32.0618 20.6546C31.7741 20.6546 31.6302 20.3621 31.6302 20.0696C31.6302 19.7041 31.4143 19.7041 31.1985 19.7041C30.9107 19.7041 30.6949 19.5578 30.6949 19.2654C30.6949 18.8267 30.551 18.6805 30.1193 18.6805C29.8315 18.6805 29.5438 18.4611 29.6157 18.1687C29.6877 17.9493 29.9035 17.6569 30.1913 17.73C30.3352 17.73 30.551 17.73 30.6949 17.8031C30.6949 17.9493 30.6229 18.0955 30.6229 18.1687C30.7668 18.388 30.2632 18.7536 30.7668 18.7536C30.9827 18.7536 31.4143 18.8998 31.4863 18.388C31.5582 17.9493 31.1985 18.0224 30.9827 17.9493C30.8388 17.9493 30.7668 17.8762 30.6949 17.8031C30.6229 17.2913 30.551 16.8526 29.9035 16.7795C29.6157 16.7064 29.4718 16.487 29.4718 16.1946C29.4718 15.9752 29.3279 15.9021 29.1121 15.9021C28.9682 15.9021 28.6804 15.9752 28.7524 16.1946C28.7524 16.6332 28.4646 16.7795 28.1768 16.8526C27.889 16.9257 27.7451 16.9988 27.7451 17.3644C27.7451 17.6569 27.5293 17.8031 27.2415 17.73C27.0257 17.6569 26.9538 17.5106 26.9538 17.3644C26.9538 17.0719 27.0976 16.9257 27.3854 16.9257C27.7451 16.9257 27.889 16.9257 27.8171 16.487C27.7451 16.1214 27.889 15.9021 28.3207 15.9021C28.6085 15.9021 28.8243 15.7559 28.8243 15.4634C28.8243 15.2441 28.6804 15.0247 28.4646 15.0247C28.1768 14.9516 27.889 15.0247 27.8171 15.3903C27.7451 16.0483 27.2415 15.9021 26.8818 15.9021C26.7379 15.4634 26.7379 14.8785 26.0185 14.8054C25.8746 14.8054 25.6587 14.2205 25.9465 13.928C26.0904 13.928 26.2343 13.928 26.3782 13.928C26.594 13.928 26.7379 13.7818 26.7379 13.5624C26.7379 13.3431 26.594 13.1237 26.3782 13.1237C26.1624 13.1237 26.0185 13.27 25.9465 13.4893C25.9465 13.6355 25.9465 13.7818 25.9465 13.928C25.6587 14.2936 25.2271 13.7818 24.9393 14.1473C24.8674 14.0742 24.7954 14.0011 24.7235 13.928C24.8674 13.6355 25.0112 13.4162 24.7235 13.1237C24.5796 12.9775 24.3637 12.9775 24.2198 13.1237C23.9321 13.3431 24.004 13.6355 24.1479 13.928C24.076 14.0011 24.004 14.0742 23.9321 14.1473C23.5004 13.928 22.9968 14.0011 22.781 13.3431C22.709 13.1237 22.1334 12.9044 22.0615 13.4893C21.9896 13.7818 21.9176 13.928 21.6298 13.928C21.3421 13.928 21.1262 13.7818 21.1262 13.4162C21.1262 13.1237 20.9823 12.9775 20.6946 12.9775C20.4068 12.9775 20.1909 13.0506 20.119 13.4162C20.119 13.7818 19.8312 13.8549 19.5434 13.8549C19.2557 13.8549 19.0398 13.7087 19.0398 13.3431C19.0398 13.0506 18.8959 12.9044 18.6801 12.9775C18.3923 12.9775 18.3204 13.1969 18.2484 13.4893C18.1765 13.7818 18.3204 13.928 18.6082 13.928C18.8959 13.928 19.1837 14.1473 19.1837 14.5129C19.1837 14.7323 18.9679 15.0247 18.6082 15.0247C18.2484 14.9516 18.1765 15.171 18.1765 15.4634C18.1765 15.7559 17.9606 15.9021 17.6729 15.9021C17.457 15.9021 17.3131 15.6828 17.3131 15.4634C17.3131 15.171 17.457 14.9516 17.8168 15.0247C18.0326 15.0247 18.2484 15.171 18.1765 14.8054C18.1045 14.5129 18.1765 14.1473 17.7448 14.1473C17.529 14.1473 17.2412 14.0011 17.3131 14.4398C17.3131 14.7323 17.0973 14.9516 16.8095 14.9516C16.4498 14.9516 16.3059 14.7323 16.234 14.4398C16.162 13.8549 15.7304 14.0742 15.4426 14.1473C15.3706 14.0742 15.2987 14.0011 15.2267 13.928C15.3706 13.5624 15.2987 13.1969 14.867 13.1969C14.4354 13.1969 14.3634 13.5624 14.5073 13.928C14.2915 13.8549 14.2195 13.928 14.1476 14.0011ZM27.3135 13.928C27.0976 14.0011 26.8099 14.0011 26.8099 14.3667C26.8099 14.586 26.8818 14.8785 27.0976 14.8054C27.3854 14.7323 27.7451 14.7323 27.7451 14.3667C27.7451 14.1473 27.6013 14.0011 27.3135 13.928ZM23.8601 12.4657C23.7882 12.2464 23.7162 12.1001 23.5004 12.1001C23.2846 12.1001 23.1407 12.2464 23.1407 12.5388C23.1407 12.7582 23.2846 12.9044 23.5004 12.9044C23.7162 12.9044 23.7882 12.6851 23.8601 12.4657ZM18.1045 12.3926C18.0326 12.1733 17.9606 12.027 17.6729 12.027C17.457 12.027 17.2412 12.1733 17.2412 12.3926C17.2412 12.6851 17.3851 12.8313 17.6729 12.8313C17.9606 12.8313 18.0326 12.6851 18.1045 12.3926ZM17.1693 13.4893C17.1693 13.27 17.0973 12.9775 16.7376 12.9044C16.4498 12.9044 16.3059 13.0506 16.234 13.3431C16.162 13.7087 16.4498 13.7818 16.7376 13.7818C16.9534 13.8549 17.2412 13.928 17.1693 13.4893ZM11.3417 14.3667C11.4137 14.6592 11.6295 14.7323 11.9173 14.6592C12.1331 14.6592 12.349 14.5129 12.349 14.2936C12.349 14.0011 12.1331 13.8549 11.8453 13.928C11.5576 14.0011 11.3417 14.0742 11.3417 14.3667ZM19.9751 12.4657C19.9751 12.2464 19.8312 12.027 19.6154 12.027C19.3995 12.027 19.1837 12.1733 19.1837 12.3926C19.1118 12.6851 19.3276 12.8313 19.6154 12.8313C19.8312 12.9044 19.9751 12.6851 19.9751 12.4657ZM31.5582 16.4139C31.5582 16.1946 31.4143 16.0483 31.1985 16.0483C30.9827 16.0483 30.9107 16.1946 30.8388 16.4139C30.8388 16.6332 30.9107 16.7795 31.1266 16.7795C31.3424 16.7064 31.4863 16.6332 31.5582 16.4139ZM21.9896 12.4657C21.9176 12.2464 21.8457 12.1001 21.6298 12.027C21.414 12.027 21.1982 12.1733 21.1982 12.3926C21.1262 12.6851 21.3421 12.8313 21.6298 12.8313C21.7737 12.9044 21.9176 12.6851 21.9896 12.4657ZM11.2698 15.3172C11.2698 15.0247 11.0539 14.9516 10.8381 14.8785C10.5503 14.8785 10.5503 15.0247 10.5503 15.2441C10.5503 15.5365 10.6223 15.7559 10.9101 15.7559C11.1259 15.7559 11.2698 15.6096 11.2698 15.3172ZM12.7806 13.7818C12.9965 13.7818 13.2123 13.6355 13.2123 13.4162C13.2123 13.1969 13.0684 13.0506 12.8526 13.0506C12.5648 13.0506 12.4928 13.1969 12.4209 13.4162C12.4928 13.6355 12.6367 13.7818 12.7806 13.7818ZM15.7304 12.1001C15.5145 12.1001 15.3706 12.2464 15.3706 12.4657C15.3706 12.6851 15.5145 12.9044 15.7304 12.8313C15.9462 12.8313 16.0901 12.6851 16.0901 12.4657C16.0901 12.2464 15.9462 12.1001 15.7304 12.1001ZM30.2632 15.7559C30.4791 15.6828 30.551 15.5365 30.551 15.3903C30.551 15.171 30.4071 15.0247 30.1913 15.0247C29.9754 15.0247 29.8315 15.171 29.8315 15.4634C29.9035 15.6828 30.0474 15.7559 30.2632 15.7559ZM25.4429 12.8313C25.5868 12.7582 25.7307 12.7582 25.7307 12.5388C25.7307 12.3195 25.5868 12.1733 25.4429 12.1733C25.2271 12.1733 25.0832 12.2464 25.0832 12.4657C25.0832 12.6851 25.1551 12.7582 25.4429 12.8313ZM31.9899 19.7772C32.2777 19.7772 32.5654 19.7041 32.5654 19.3385C32.5654 18.9729 32.3496 18.8998 32.0618 18.8267C31.7021 18.7536 31.7021 19.046 31.7021 19.2654C31.6302 19.5578 31.5582 19.7772 31.9899 19.7772ZM6.52142 22.19C6.44948 22.0437 6.66531 21.6782 6.23364 21.6782C5.94586 21.6782 5.73003 21.7513 5.73003 22.1168C5.73003 22.4093 5.94586 22.4824 6.23364 22.5555C6.52142 22.6286 6.59337 22.4824 6.52142 22.19Z" fill="#096DAF"/>
<path d="M19.9766 23.7985C24.2933 23.7985 28.538 24.3834 32.7108 25.6995C33.5022 25.9919 33.6461 26.2113 33.2144 27.0155C30.1927 32.426 25.5883 35.2044 19.473 34.985C13.7893 34.7657 9.54457 31.9142 6.81067 26.8693C6.45095 26.2113 6.52289 25.9188 7.24234 25.6995C11.4151 24.3103 15.6599 23.7254 19.9766 23.7985Z" fill="#056BAD"/>
<path d="M10.4067 18.6804C10.3348 19.1191 10.4067 19.704 9.61532 19.5578C9.32754 19.5578 9.39949 19.9234 9.39949 20.1427C9.39949 20.3621 9.2556 20.5083 8.96782 20.5083C8.75198 20.5083 8.60809 20.3621 8.60809 20.1427C8.60809 19.9234 8.75198 19.704 8.96782 19.704C9.39949 19.704 9.54338 19.5578 9.54338 19.1191C9.54338 18.5342 10.1189 18.9729 10.4067 18.6804Z" fill="#096DAF"/>
<path d="M20.0469 14.9514C20.1908 14.5859 19.8311 14.1472 20.2628 13.9278C20.4786 13.7816 20.6225 13.9278 20.8383 14.074C21.3419 14.3665 20.9822 14.659 20.9103 15.0245C20.6225 14.9514 20.3347 14.9514 20.0469 14.9514Z" fill="#096DAF"/>
<path d="M23.9327 15.8291C23.7888 15.6829 23.6449 15.8291 23.573 15.8291C23.2133 15.9023 22.9974 15.6829 22.9974 15.3173C22.9974 15.0249 23.2852 14.8055 23.5011 14.8055C23.7888 14.8055 24.0047 15.098 23.9327 15.4636C23.8608 15.6098 23.7169 15.756 23.9327 15.8291Z" fill="#096DAF"/>
<path d="M10.4062 18.6806C10.694 18.3881 10.622 18.0957 10.4062 17.7301C10.7659 17.7301 11.1256 17.7301 11.4854 17.7301C11.4134 18.4613 10.9817 18.6806 10.4062 18.6806Z" fill="#096DAF"/>
<path d="M24.8683 15.829C24.7244 15.9021 24.7964 15.9752 24.7964 16.1214C24.9403 16.487 24.7244 16.7064 24.4366 16.7064C24.0769 16.7064 23.933 16.4139 24.0769 16.0483C24.1489 15.9021 24.1489 15.829 24.005 15.7559C24.2208 16.0483 24.5805 15.9752 24.8683 15.829Z" fill="#096DAF"/>
<path d="M20.9109 14.9516C21.9182 15.0247 21.9182 15.0247 21.9901 15.829C21.1987 16.0483 21.1268 15.3903 20.9109 14.9516Z" fill="#096DAF"/>
<path d="M33.5732 23.506C33.717 23.7985 34.5804 23.4329 34.2207 24.2372C34.1487 24.3834 34.1487 24.6028 33.8609 24.6028C33.6451 24.6028 33.6451 24.3834 33.5732 24.2372C33.5732 23.9447 34.0048 23.6523 33.5732 23.506Z" fill="#096DAF"/>
<path d="M29.6879 17.2914C29.6879 17.5839 29.472 17.8032 29.1843 17.8032C28.9684 17.8032 28.6087 17.7301 28.6087 17.3645C28.6087 16.9989 28.8245 16.8527 29.1843 16.7796C29.472 16.7796 29.6879 16.9989 29.6879 17.2914Z" fill="#096DAF"/>
<path d="M20.0476 14.9518C19.9756 14.9518 19.9756 14.9518 20.0476 14.9518C19.9756 15.3174 20.1195 15.7561 19.6159 15.8292C19.3281 15.8292 19.1842 15.6099 19.2562 15.3174C19.2562 14.7325 19.7598 15.0249 20.0476 14.9518Z" fill="#096DAF"/>
<path d="M15.2269 16.3408C15.155 16.6333 15.0111 16.7795 14.7233 16.7795C14.4355 16.7795 14.2916 16.5602 14.3636 16.2677C14.3636 16.0484 14.5794 15.9022 14.7952 15.9022C15.0111 15.9022 15.155 16.0484 15.2269 16.3408Z" fill="#096DAF"/>
<path d="M33.5741 23.506C33.4302 23.3597 33.2863 23.506 33.2143 23.506C32.9266 23.5791 32.7107 23.4328 32.7107 23.1404C32.7107 22.7748 32.9266 22.7017 33.2143 22.7748C33.3582 22.7748 33.5021 22.9942 33.5741 22.7748C33.2863 22.9942 33.4302 23.2135 33.5741 23.506Z" fill="#096DAF"/>
<path d="M22.9977 14.3665C22.9977 14.659 22.7819 14.8783 22.4941 14.8783C22.2063 14.8783 21.9905 14.7321 21.9185 14.4397C21.8466 14.0741 22.0624 13.8547 22.4222 13.8547C22.7819 13.8547 22.9258 14.0741 22.9977 14.3665Z" fill="#096DAF"/>
<path d="M21.9899 15.829C22.1338 16.1215 22.3496 15.9022 22.4935 15.9022C22.7094 15.9753 22.8532 16.1215 22.8532 16.3408C22.8532 16.5602 22.7094 16.7064 22.4935 16.7064C22.2777 16.7064 22.1338 16.5602 22.0618 16.3408C22.0618 16.1946 22.2777 15.9753 21.9899 15.829Z" fill="#096DAF"/>
<path d="M24.8679 15.829C25.0837 15.6827 24.8679 15.5365 24.9398 15.3903C25.0117 15.0978 25.1556 14.8785 25.4434 14.8785C25.7312 14.8785 25.947 15.0978 25.8751 15.3903C25.8751 15.6827 25.6593 15.829 25.2995 15.829C25.1556 15.829 25.0117 15.6096 24.8679 15.829Z" fill="#096DAF"/>
<path d="M7.52869 21.605C7.81647 21.4587 7.60063 21.2394 7.60063 21.0932C7.67258 20.8738 7.74452 20.7276 8.0323 20.7276C8.24813 20.7276 8.39202 20.8738 8.39202 21.1663C8.39202 21.3856 8.24813 21.5319 8.0323 21.605C7.88841 21.605 7.67258 21.3125 7.52869 21.605Z" fill="#096DAF"/>
<path d="M15.3705 14.0011C15.2266 14.3667 15.4424 14.8785 14.7949 14.8785C14.2194 14.8785 14.3633 14.3667 14.2194 14.0011C14.2913 13.928 14.3632 13.8549 14.4352 13.7087C14.651 13.8549 14.9388 13.8549 15.1546 13.7087C15.2266 13.7818 15.2985 13.928 15.3705 14.0011Z" fill="#096DAF"/>
<path d="M26.8111 15.829C26.6672 16.1215 26.955 16.7064 26.3794 16.7795C26.0916 16.7795 25.9477 16.6333 25.9477 16.3408C25.9477 15.6828 26.5233 16.0484 26.8111 15.829Z" fill="#096DAF"/>
<path d="M15.6584 14.8785C15.9462 14.8785 16.162 15.0247 16.162 15.3172C16.162 15.6096 16.0901 15.829 15.8023 15.829C15.5145 15.9021 15.2987 15.6827 15.2987 15.3903C15.2267 15.0978 15.4426 14.9516 15.6584 14.8785Z" fill="#096DAF"/>
<path d="M24.9409 14.0741C24.8689 14.4397 24.9409 14.8783 24.4373 14.8783C23.9336 14.8783 23.8617 14.4397 23.8617 14.0741C23.9336 14.001 24.0056 13.9279 24.0775 13.8547C24.2934 13.8547 24.4373 13.8547 24.6531 13.8547C24.797 13.9279 24.8689 14.001 24.9409 14.0741Z" fill="#096DAF"/>
</svg>
