<svg width="150" height="150" viewBox="0 0 150 150" fill="none" xmlns="http://www.w3.org/2000/svg">
<g clip-path="url(#clip0_1516_24871)">
<path d="M83.8903 72.0444C83.8903 75.3742 81.3041 78.5662 78.7179 78.5662C77.4327 78.5674 76.1928 77.9681 75.2375 76.8841C74.2823 75.8001 73.6794 74.3082 73.5455 72.6966H55.9593C55.6849 72.6966 55.4218 72.5592 55.2278 72.3146C55.0338 72.0699 54.9248 71.7382 54.9248 71.3922V51.1747C54.9248 50.8288 55.0338 50.497 55.2278 50.2524C55.4218 50.0078 55.6849 49.8704 55.9593 49.8704H77.6834C77.9578 49.8704 78.2209 50.0078 78.4149 50.2524C78.6089 50.497 78.7179 50.8288 78.7179 51.1747V65.5226C80.0783 65.5683 81.3729 66.2701 82.3352 67.4834C83.2975 68.6967 83.8541 70.3291 83.8903 72.0444Z" fill="#FAFAFA"/>
<path d="M75.6135 55.0887C75.6135 55.6046 75.4922 56.109 75.2648 56.538C75.0375 56.967 74.7144 57.3014 74.3363 57.4988C73.9583 57.6963 73.5423 57.7479 73.1409 57.6473C72.7396 57.5466 72.3709 57.2982 72.0816 56.9333C71.7922 56.5685 71.5952 56.1037 71.5153 55.5976C71.4355 55.0916 71.4765 54.5671 71.6331 54.0904C71.7897 53.6137 72.0549 53.2063 72.3951 52.9196C72.7353 52.633 73.1354 52.48 73.5446 52.48C74.0933 52.48 74.6195 52.7548 75.0075 53.2441C75.3955 53.7333 75.6135 54.3968 75.6135 55.0887Z" fill="#E0E0E0"/>
<path d="M55.6059 71.6356L63.3067 59.6412C63.3558 59.5649 63.4178 59.5035 63.4883 59.4616C63.5588 59.4197 63.6359 59.3985 63.7138 59.3994C63.7917 59.4004 63.8685 59.4235 63.9383 59.4671C64.0081 59.5107 64.0692 59.5737 64.1171 59.6512L67.3376 64.872L70.5727 60.7928C70.6224 60.7303 70.6816 60.6811 70.7468 60.6483C70.812 60.6156 70.8818 60.5999 70.952 60.6022C71.0221 60.6045 71.0912 60.6248 71.1549 60.6619C71.2187 60.6989 71.2758 60.7519 71.3227 60.8177L75.6134 66.8286C75.6134 66.8286 73.5444 68.1329 73.5444 72.6982H55.9582C55.8619 72.6946 55.7685 72.656 55.6891 72.5872C55.6096 72.5184 55.5476 72.4222 55.5105 72.3101C55.4733 72.198 55.4625 72.0747 55.4795 71.9551C55.4964 71.8355 55.5403 71.7246 55.6059 71.6356Z" fill="#E0E0E0"/>
<path d="M81.82 72.045C81.82 72.218 81.7655 72.3838 81.6685 72.5061C81.5715 72.6284 81.44 72.6972 81.3028 72.6972H79.2338V75.3059C79.2338 75.4788 79.1793 75.6447 79.0823 75.767C78.9853 75.8893 78.8538 75.958 78.7166 75.958C78.5794 75.958 78.4478 75.8893 78.3508 75.767C78.2538 75.6447 78.1994 75.4788 78.1994 75.3059V72.6972H76.1304C75.9932 72.6972 75.8616 72.6284 75.7646 72.5061C75.6676 72.3838 75.6131 72.218 75.6131 72.045C75.6131 71.872 75.6676 71.7061 75.7646 71.5838C75.8616 71.4615 75.9932 71.3928 76.1304 71.3928H78.1994V68.7841C78.1994 68.6111 78.2538 68.4452 78.3508 68.3229C78.4478 68.2006 78.5794 68.1319 78.7166 68.1319C78.8538 68.1319 78.9853 68.2006 79.0823 68.3229C79.1793 68.4452 79.2338 68.6111 79.2338 68.7841V71.3928H81.3028C81.44 71.3928 81.5715 71.4615 81.6685 71.5838C81.7655 71.7061 81.82 71.872 81.82 72.045ZM84.4062 72.045C84.4067 73.834 83.8769 75.5586 82.9207 76.8803C81.9645 78.202 80.6511 79.0254 79.2382 79.1888C77.8252 79.3521 76.4149 78.8437 75.284 77.7633C74.1531 76.683 73.3834 75.1086 73.1258 73.3493H55.958C55.5466 73.3488 55.1521 73.1425 54.8612 72.7757C54.5703 72.4089 54.4067 71.9115 54.4062 71.3928V51.1753C54.4067 50.6566 54.5703 50.1592 54.8612 49.7924C55.1521 49.4256 55.5466 49.2193 55.958 49.2188H77.6821C78.0935 49.2193 78.4879 49.4256 78.7788 49.7924C79.0698 50.1592 79.2334 50.6566 79.2338 51.1753V64.9041C80.6464 65.0684 81.9596 65.8914 82.9163 67.2122C83.8729 68.5329 84.4043 70.2563 84.4062 72.045ZM55.4407 51.1753V71.0015L62.8854 59.2676C62.9853 59.1102 63.1128 58.984 63.2579 58.8992C63.4029 58.8143 63.5616 58.773 63.7215 58.7785C63.8814 58.784 64.038 58.8361 64.1792 58.9308C64.3204 59.0255 64.4422 59.1602 64.5352 59.3243L67.3384 63.9475L70.1837 60.3599C70.2861 60.2294 70.4094 60.128 70.5454 60.0624C70.6815 59.9968 70.827 59.9686 70.9724 59.9797C71.1176 59.9899 71.2596 60.0386 71.3889 60.1226C71.5182 60.2066 71.6321 60.324 71.723 60.4673L75.6975 65.9751C76.4525 65.3735 77.3099 65.0064 78.1994 64.9041V51.1753C78.1992 51.0024 78.1446 50.8366 78.0477 50.7144C77.9507 50.5921 77.8192 50.5233 77.6821 50.5231H55.958C55.8208 50.5233 55.6894 50.5921 55.5924 50.7144C55.4955 50.8366 55.4409 51.0024 55.4407 51.1753ZM63.7032 60.0994L56.1037 72.045H70.9459L63.7032 60.0994ZM73.0269 72.045C73.0274 71.0524 73.1918 70.0709 73.5096 69.1628C73.8275 68.2548 74.2918 67.4402 74.8731 66.7708L70.9362 61.3137L67.9738 64.9955L72.2481 72.045H73.0269ZM83.3718 72.045C83.3718 70.8841 83.0987 69.7493 82.5872 68.784C82.0757 67.8188 81.3487 67.0664 80.4981 66.6222C79.6474 66.1779 78.7114 66.0617 77.8084 66.2882C76.9054 66.5146 76.0759 67.0737 75.4249 67.8945C74.7739 68.7154 74.3305 69.7613 74.1509 70.8999C73.9712 72.0385 74.0634 73.2187 74.4158 74.2912C74.7681 75.3637 75.3648 76.2804 76.1303 76.9254C76.8959 77.5703 77.7959 77.9146 78.7166 77.9146C79.9508 77.9129 81.1341 77.2939 82.0068 76.1935C82.8795 75.0931 83.3704 73.6012 83.3718 72.045ZM70.958 55.0884C70.958 54.4434 71.1097 53.8129 71.3938 53.2767C71.678 52.7404 72.0819 52.3225 72.5545 52.0757C73.027 51.8289 73.5471 51.7643 74.0487 51.8901C74.5504 52.0159 75.0112 52.3265 75.3729 52.7826C75.7346 53.2386 75.9809 53.8196 76.0807 54.4522C76.1805 55.0847 76.1293 55.7404 75.9335 56.3362C75.7378 56.9321 75.4063 57.4414 74.981 57.7997C74.5557 58.158 74.0557 58.3492 73.5442 58.3492C72.8585 58.3482 72.2012 58.0043 71.7163 57.393C71.2315 56.7817 70.9588 55.9529 70.958 55.0884ZM71.9925 55.0884C71.9925 55.4753 72.0835 55.8536 72.254 56.1753C72.4245 56.4971 72.6668 56.7479 72.9504 56.896C73.2339 57.044 73.5459 57.0828 73.8469 57.0073C74.1479 56.9318 74.4244 56.7455 74.6414 56.4718C74.8584 56.1982 75.0062 55.8496 75.0661 55.4701C75.126 55.0905 75.0952 54.6971 74.9778 54.3396C74.8603 53.9821 74.6615 53.6765 74.4063 53.4616C74.1511 53.2466 73.8511 53.1318 73.5442 53.1318C73.1328 53.1324 72.7383 53.3387 72.4474 53.7055C72.1565 54.0723 71.9929 54.5696 71.9925 55.0884Z" fill="#E5E5E5"/>
</g>
<rect x="0.5" y="0.5" width="149" height="149" rx="3.5" stroke="#E5E5E5" stroke-dasharray="6 6"/>
<path d="M44.8578 101L45.9778 93.95H48.8478C49.5745 93.95 50.1111 94.1133 50.4578 94.44C50.8045 94.7667 50.9311 95.2333 50.8378 95.84C50.7645 96.2933 50.5745 96.66 50.2678 96.94C49.9611 97.2133 49.5678 97.3967 49.0878 97.49L49.1078 97.35C49.6145 97.41 49.9878 97.6033 50.2278 97.93C50.4745 98.25 50.5578 98.66 50.4778 99.16C50.3845 99.7733 50.1078 100.233 49.6478 100.54C49.1945 100.847 48.5878 101 47.8278 101H44.8578ZM45.7678 100.33H47.8378C48.3445 100.33 48.7611 100.237 49.0878 100.05C49.4145 99.8567 49.6078 99.5533 49.6678 99.14C49.7278 98.7933 49.7045 98.52 49.5978 98.32C49.4978 98.12 49.3378 97.9767 49.1178 97.89C48.8978 97.8033 48.6278 97.76 48.3078 97.76H46.1678L45.7678 100.33ZM46.2778 97.1H48.1878C48.7345 97.1 49.1578 97 49.4578 96.8C49.7645 96.5933 49.9445 96.3067 49.9978 95.94C50.0711 95.4933 49.9978 95.16 49.7778 94.94C49.5578 94.72 49.2045 94.61 48.7178 94.61H46.6678L46.2778 97.1ZM53.5447 101.09C53.0847 101.09 52.698 100.983 52.3847 100.77C52.0713 100.55 51.8513 100.237 51.7247 99.83C51.598 99.4233 51.578 98.9333 51.6647 98.36C51.798 97.5533 52.098 96.94 52.5647 96.52C53.0313 96.1 53.5913 95.89 54.2447 95.89C54.6847 95.89 55.0547 96.0033 55.3547 96.23C55.6547 96.4567 55.838 96.7633 55.9047 97.15L55.7947 97.17L56.0847 95.98H56.8647C56.818 96.1733 56.768 96.37 56.7147 96.57C56.668 96.7633 56.6313 96.9533 56.6047 97.14L55.9947 101H55.1847L55.3747 99.8H55.5247C55.3513 100.2 55.0947 100.517 54.7547 100.75C54.4213 100.977 54.018 101.09 53.5447 101.09ZM53.7647 100.43C54.2247 100.43 54.6213 100.267 54.9547 99.94C55.288 99.6133 55.5047 99.1367 55.6047 98.51C55.7113 97.8567 55.6447 97.3667 55.4047 97.04C55.1647 96.7067 54.8013 96.54 54.3147 96.54C53.848 96.54 53.448 96.7033 53.1147 97.03C52.788 97.3567 52.5747 97.8333 52.4747 98.46C52.3747 99.1133 52.4413 99.6067 52.6747 99.94C52.908 100.267 53.2713 100.43 53.7647 100.43ZM54.6347 95.53C54.188 95.53 53.828 95.3967 53.5547 95.13C53.288 94.8633 53.1613 94.4967 53.1747 94.03L53.6347 93.98C53.6413 94.3067 53.7313 94.56 53.9047 94.74C54.0847 94.92 54.3347 95.01 54.6547 95.01C54.9813 95.01 55.2447 94.92 55.4447 94.74C55.6513 94.56 55.7847 94.3067 55.8447 93.98L56.3147 94.03C56.2413 94.4967 56.0547 94.8633 55.7547 95.13C55.4613 95.3967 55.088 95.53 54.6347 95.53ZM54.3447 94.39L55.3247 92.97H56.1747L54.9047 94.39H54.3447ZM59.4108 101.09C58.8708 101.09 58.4908 100.947 58.2708 100.66C58.0574 100.373 57.9941 99.9467 58.0808 99.38L58.5108 96.61H57.5308L57.6308 95.98H58.6208L58.8408 94.61L59.6808 94.38L59.4308 95.98H60.8708L60.7608 96.61H59.3208L58.9108 99.28C58.8441 99.6733 58.8641 99.96 58.9708 100.14C59.0841 100.313 59.2774 100.4 59.5508 100.4C59.6774 100.4 59.7908 100.39 59.8908 100.37C59.9908 100.343 60.0841 100.313 60.1708 100.28L60.0708 100.96C59.9641 101 59.8574 101.03 59.7508 101.05C59.6441 101.077 59.5308 101.09 59.4108 101.09ZM66.2143 101.09C65.7676 101.09 65.3943 100.977 65.0943 100.75C64.801 100.523 64.621 100.213 64.5543 99.82L64.6543 99.8L64.4643 101H63.6643L64.8343 93.64H65.6443L65.0843 97.15L64.9343 97.17C65.1076 96.7767 65.361 96.4667 65.6943 96.24C66.0343 96.0067 66.441 95.89 66.9143 95.89C67.381 95.89 67.7676 96 68.0743 96.22C68.3876 96.4333 68.6076 96.7433 68.7343 97.15C68.861 97.55 68.8776 98.0367 68.7843 98.61C68.6576 99.4167 68.361 100.033 67.8943 100.46C67.4276 100.88 66.8676 101.09 66.2143 101.09ZM66.1443 100.43C66.611 100.43 67.0076 100.267 67.3343 99.94C67.661 99.6133 67.8743 99.1367 67.9743 98.51C68.081 97.8567 68.0176 97.3667 67.7843 97.04C67.551 96.7067 67.1876 96.54 66.6943 96.54C66.2343 96.54 65.8376 96.7033 65.5043 97.03C65.171 97.3567 64.9543 97.8333 64.8543 98.46C64.7543 99.1133 64.821 99.6067 65.0543 99.94C65.2943 100.267 65.6576 100.43 66.1443 100.43ZM71.5004 101.09C70.9137 101.09 70.4804 100.923 70.2004 100.59C69.9204 100.257 69.8337 99.74 69.9404 99.04L70.4204 95.98H71.2304L70.7504 99C70.6771 99.5 70.7204 99.8633 70.8804 100.09C71.0404 100.31 71.3204 100.42 71.7204 100.42C72.1737 100.42 72.5471 100.277 72.8404 99.99C73.1337 99.6967 73.3171 99.31 73.3904 98.83L73.8404 95.98H74.6504L73.8604 101H73.0704L73.2404 99.87H73.3904C73.2037 100.257 72.9437 100.557 72.6104 100.77C72.2837 100.983 71.9137 101.09 71.5004 101.09ZM77.5619 101.09C77.0619 101.09 76.6452 100.983 76.3119 100.77C75.9785 100.557 75.7419 100.247 75.6019 99.84C75.4685 99.4333 75.4452 98.94 75.5319 98.36C75.6185 97.8267 75.7852 97.3767 76.0319 97.01C76.2852 96.6367 76.5985 96.3567 76.9719 96.17C77.3452 95.9833 77.7652 95.89 78.2319 95.89C78.7385 95.89 79.1552 95.9967 79.4819 96.21C79.8152 96.4233 80.0485 96.7333 80.1819 97.14C80.3219 97.54 80.3452 98.03 80.2519 98.61C80.1652 99.1433 79.9952 99.5967 79.7419 99.97C79.4952 100.337 79.1852 100.617 78.8119 100.81C78.4452 100.997 78.0285 101.09 77.5619 101.09ZM77.6219 100.43C78.0819 100.43 78.4752 100.267 78.8019 99.94C79.1352 99.6133 79.3519 99.1367 79.4519 98.51C79.5585 97.8567 79.4919 97.3667 79.2519 97.04C79.0119 96.7067 78.6519 96.54 78.1719 96.54C77.7052 96.54 77.3085 96.7033 76.9819 97.03C76.6552 97.3567 76.4419 97.8333 76.3419 98.46C76.2419 99.1133 76.3052 99.6067 76.5319 99.94C76.7652 100.267 77.1285 100.43 77.6219 100.43ZM76.7519 102.87L76.8919 101.99H77.8019L77.6619 102.87H76.7519ZM76.8719 95.49L78.1819 93.47H78.9519L79.8419 95.49H79.2819L78.5319 94.01L77.4419 95.49H76.8719ZM83.3348 101.09C82.8348 101.09 82.4114 100.983 82.0648 100.77C81.7181 100.55 81.4714 100.237 81.3248 99.83C81.1848 99.4167 81.1581 98.9267 81.2448 98.36C81.3781 97.5533 81.6881 96.94 82.1748 96.52C82.6614 96.1 83.2581 95.89 83.9648 95.89C84.2848 95.89 84.5848 95.94 84.8648 96.04C85.1514 96.14 85.3848 96.2867 85.5648 96.48L85.2448 97.04C85.0714 96.8733 84.8714 96.75 84.6448 96.67C84.4248 96.59 84.2081 96.55 83.9948 96.55C83.4948 96.55 83.0714 96.71 82.7248 97.03C82.3848 97.35 82.1648 97.82 82.0648 98.44C81.9648 99.0733 82.0381 99.5633 82.2848 99.91C82.5381 100.25 82.9214 100.42 83.4348 100.42C83.6681 100.42 83.9114 100.377 84.1648 100.29C84.4181 100.203 84.6514 100.06 84.8648 99.86L85.1548 100.44C84.9414 100.64 84.6648 100.8 84.3248 100.92C83.9914 101.033 83.6614 101.09 83.3348 101.09Z" fill="black"/>
<path d="M90.0534 97.34L89.5734 96.99L90.6634 95.73L89.1334 95.26L89.3534 94.69L90.8334 95.25L90.9134 93.64H91.5234L91.3434 95.25L92.9034 94.69L93.0534 95.26L91.4634 95.73L92.3534 96.99L91.8734 97.34L91.0834 96L90.0534 97.34Z" fill="#FF0000"/>
<defs>
<clipPath id="clip0_1516_24871">
<rect width="30" height="30" fill="white" transform="translate(53 45)"/>
</clipPath>
</defs>
</svg>
