<svg width="300" height="150" viewBox="0 0 300 150" fill="none" xmlns="http://www.w3.org/2000/svg">
<rect x="0.5" y="0.5" width="299" height="149" rx="3.5" stroke="#E5E5E5" stroke-dasharray="6 6"/>
<g clip-path="url(#clip0_2210_21847)">
<path d="M165.505 72.0444C165.505 75.3742 162.919 78.5662 160.333 78.5662C159.048 78.5674 157.808 77.9681 156.853 76.8841C155.897 75.8001 155.294 74.3082 155.16 72.6966H137.574C137.3 72.6966 137.037 72.5592 136.843 72.3146C136.649 72.0699 136.54 71.7382 136.54 71.3922V51.1747C136.54 50.8288 136.649 50.497 136.843 50.2524C137.037 50.0078 137.3 49.8704 137.574 49.8704H159.298C159.573 49.8704 159.836 50.0078 160.03 50.2524C160.224 50.497 160.333 50.8288 160.333 51.1747V65.5226C161.693 65.5683 162.988 66.2701 163.95 67.4834C164.912 68.6967 165.469 70.3291 165.505 72.0444Z" fill="#FAFAFA"/>
<path d="M157.229 55.0887C157.229 55.6046 157.107 56.109 156.88 56.538C156.652 56.967 156.329 57.3014 155.951 57.4988C155.573 57.6963 155.157 57.7479 154.756 57.6473C154.355 57.5466 153.986 57.2982 153.697 56.9333C153.407 56.5685 153.21 56.1037 153.13 55.5976C153.051 55.0916 153.091 54.5671 153.248 54.0904C153.405 53.6137 153.67 53.2063 154.01 52.9196C154.35 52.633 154.75 52.48 155.16 52.48C155.708 52.48 156.235 52.7548 156.623 53.2441C157.011 53.7333 157.229 54.3968 157.229 55.0887Z" fill="#E0E0E0"/>
<path d="M137.221 71.6356L144.922 59.6412C144.971 59.5649 145.033 59.5035 145.103 59.4616C145.174 59.4197 145.251 59.3985 145.329 59.3994C145.407 59.4004 145.483 59.4235 145.553 59.4671C145.623 59.5107 145.684 59.5737 145.732 59.6512L148.953 64.872L152.188 60.7928C152.237 60.7303 152.297 60.6811 152.362 60.6483C152.427 60.6156 152.497 60.5999 152.567 60.6022C152.637 60.6045 152.706 60.6248 152.77 60.6619C152.834 60.6989 152.891 60.7519 152.938 60.8177L157.228 66.8286C157.228 66.8286 155.159 68.1329 155.159 72.6982H137.573C137.477 72.6946 137.383 72.656 137.304 72.5872C137.225 72.5184 137.163 72.4222 137.125 72.3101C137.088 72.198 137.078 72.0747 137.094 71.9551C137.111 71.8355 137.155 71.7246 137.221 71.6356Z" fill="#E0E0E0"/>
<path d="M163.435 72.045C163.435 72.218 163.381 72.3838 163.284 72.5061C163.187 72.6284 163.055 72.6972 162.918 72.6972H160.849V75.3059C160.849 75.4788 160.794 75.6447 160.697 75.767C160.6 75.8893 160.469 75.958 160.332 75.958C160.194 75.958 160.063 75.8893 159.966 75.767C159.869 75.6447 159.814 75.4788 159.814 75.3059V72.6972H157.745C157.608 72.6972 157.477 72.6284 157.38 72.5061C157.283 72.3838 157.228 72.218 157.228 72.045C157.228 71.872 157.283 71.7061 157.38 71.5838C157.477 71.4615 157.608 71.3928 157.745 71.3928H159.814V68.7841C159.814 68.6111 159.869 68.4452 159.966 68.3229C160.063 68.2006 160.194 68.1319 160.332 68.1319C160.469 68.1319 160.6 68.2006 160.697 68.3229C160.794 68.4452 160.849 68.6111 160.849 68.7841V71.3928H162.918C163.055 71.3928 163.187 71.4615 163.284 71.5838C163.381 71.7061 163.435 71.872 163.435 72.045ZM166.021 72.045C166.022 73.834 165.492 75.5586 164.536 76.8803C163.58 78.202 162.266 79.0254 160.853 79.1888C159.44 79.3521 158.03 78.8437 156.899 77.7633C155.768 76.683 154.998 75.1086 154.741 73.3493H137.573C137.162 73.3488 136.767 73.1425 136.476 72.7757C136.185 72.4089 136.022 71.9115 136.021 71.3928V51.1753C136.022 50.6566 136.185 50.1592 136.476 49.7924C136.767 49.4256 137.162 49.2193 137.573 49.2188H159.297C159.709 49.2193 160.103 49.4256 160.394 49.7924C160.685 50.1592 160.848 50.6566 160.849 51.1753V64.9041C162.261 65.0684 163.575 65.8914 164.531 67.2122C165.488 68.5329 166.019 70.2563 166.021 72.045ZM137.056 51.1753V71.0015L144.5 59.2676C144.6 59.1102 144.728 58.984 144.873 58.8992C145.018 58.8143 145.177 58.773 145.336 58.7785C145.496 58.784 145.653 58.8361 145.794 58.9308C145.935 59.0255 146.057 59.1602 146.15 59.3243L148.953 63.9475L151.799 60.3599C151.901 60.2294 152.024 60.128 152.16 60.0624C152.296 59.9968 152.442 59.9686 152.587 59.9797C152.733 59.9899 152.875 60.0386 153.004 60.1226C153.133 60.2066 153.247 60.324 153.338 60.4673L157.312 65.9751C158.067 65.3735 158.925 65.0064 159.814 64.9041V51.1753C159.814 51.0024 159.76 50.8366 159.663 50.7144C159.566 50.5921 159.434 50.5233 159.297 50.5231H137.573C137.436 50.5233 137.304 50.5921 137.207 50.7144C137.11 50.8366 137.056 51.0024 137.056 51.1753ZM145.318 60.0994L137.719 72.045H152.561L145.318 60.0994ZM154.642 72.045C154.642 71.0524 154.807 70.0709 155.125 69.1628C155.442 68.2548 155.907 67.4402 156.488 66.7708L152.551 61.3137L149.589 64.9955L153.863 72.045H154.642ZM164.987 72.045C164.987 70.8841 164.714 69.7493 164.202 68.784C163.691 67.8188 162.964 67.0664 162.113 66.6222C161.262 66.1779 160.326 66.0617 159.423 66.2882C158.52 66.5146 157.691 67.0737 157.04 67.8945C156.389 68.7154 155.945 69.7613 155.766 70.8999C155.586 72.0385 155.678 73.2187 156.031 74.2912C156.383 75.3637 156.98 76.2804 157.745 76.9254C158.511 77.5703 159.411 77.9146 160.332 77.9146C161.566 77.9129 162.749 77.2939 163.622 76.1935C164.494 75.0931 164.985 73.6012 164.987 72.045ZM152.573 55.0884C152.573 54.4434 152.725 53.8129 153.009 53.2767C153.293 52.7404 153.697 52.3225 154.169 52.0757C154.642 51.8289 155.162 51.7643 155.664 51.8901C156.165 52.0159 156.626 52.3265 156.988 52.7826C157.35 53.2386 157.596 53.8196 157.696 54.4522C157.795 55.0847 157.744 55.7404 157.549 56.3362C157.353 56.9321 157.021 57.4414 156.596 57.7997C156.171 58.158 155.671 58.3492 155.159 58.3492C154.474 58.3482 153.816 58.0043 153.331 57.393C152.847 56.7817 152.574 55.9529 152.573 55.0884ZM153.607 55.0884C153.607 55.4753 153.698 55.8536 153.869 56.1753C154.039 56.4971 154.282 56.7479 154.565 56.896C154.849 57.044 155.161 57.0828 155.462 57.0073C155.763 56.9318 156.039 56.7455 156.256 56.4718C156.473 56.1982 156.621 55.8496 156.681 55.4701C156.741 55.0905 156.71 54.6971 156.593 54.3396C156.475 53.9821 156.276 53.6765 156.021 53.4616C155.766 53.2466 155.466 53.1318 155.159 53.1318C154.748 53.1324 154.353 53.3387 154.062 53.7055C153.772 54.0723 153.608 54.5696 153.607 55.0884Z" fill="#E5E5E5"/>
</g>
<path d="M125.857 101L126.977 93.95H129.847C130.573 93.95 131.11 94.1133 131.457 94.44C131.803 94.7667 131.93 95.2333 131.837 95.84C131.763 96.2933 131.573 96.66 131.267 96.94C130.96 97.2133 130.567 97.3967 130.087 97.49L130.107 97.35C130.613 97.41 130.987 97.6033 131.227 97.93C131.473 98.25 131.557 98.66 131.477 99.16C131.383 99.7733 131.107 100.233 130.647 100.54C130.193 100.847 129.587 101 128.827 101H125.857ZM126.767 100.33H128.837C129.343 100.33 129.76 100.237 130.087 100.05C130.413 99.8567 130.607 99.5533 130.667 99.14C130.727 98.7933 130.703 98.52 130.597 98.32C130.497 98.12 130.337 97.9767 130.117 97.89C129.897 97.8033 129.627 97.76 129.307 97.76H127.167L126.767 100.33ZM127.277 97.1H129.187C129.733 97.1 130.157 97 130.457 96.8C130.763 96.5933 130.943 96.3067 130.997 95.94C131.07 95.4933 130.997 95.16 130.777 94.94C130.557 94.72 130.203 94.61 129.717 94.61H127.667L127.277 97.1ZM134.544 101.09C134.084 101.09 133.697 100.983 133.384 100.77C133.07 100.55 132.85 100.237 132.724 99.83C132.597 99.4233 132.577 98.9333 132.664 98.36C132.797 97.5533 133.097 96.94 133.564 96.52C134.03 96.1 134.59 95.89 135.244 95.89C135.684 95.89 136.054 96.0033 136.354 96.23C136.654 96.4567 136.837 96.7633 136.904 97.15L136.794 97.17L137.084 95.98H137.864C137.817 96.1733 137.767 96.37 137.714 96.57C137.667 96.7633 137.63 96.9533 137.604 97.14L136.994 101H136.184L136.374 99.8H136.524C136.35 100.2 136.094 100.517 135.754 100.75C135.42 100.977 135.017 101.09 134.544 101.09ZM134.764 100.43C135.224 100.43 135.62 100.267 135.954 99.94C136.287 99.6133 136.504 99.1367 136.604 98.51C136.71 97.8567 136.644 97.3667 136.404 97.04C136.164 96.7067 135.8 96.54 135.314 96.54C134.847 96.54 134.447 96.7033 134.114 97.03C133.787 97.3567 133.574 97.8333 133.474 98.46C133.374 99.1133 133.44 99.6067 133.674 99.94C133.907 100.267 134.27 100.43 134.764 100.43ZM135.634 95.53C135.187 95.53 134.827 95.3967 134.554 95.13C134.287 94.8633 134.16 94.4967 134.174 94.03L134.634 93.98C134.64 94.3067 134.73 94.56 134.904 94.74C135.084 94.92 135.334 95.01 135.654 95.01C135.98 95.01 136.244 94.92 136.444 94.74C136.65 94.56 136.784 94.3067 136.844 93.98L137.314 94.03C137.24 94.4967 137.054 94.8633 136.754 95.13C136.46 95.3967 136.087 95.53 135.634 95.53ZM135.344 94.39L136.324 92.97H137.174L135.904 94.39H135.344ZM140.41 101.09C139.87 101.09 139.49 100.947 139.27 100.66C139.056 100.373 138.993 99.9467 139.08 99.38L139.51 96.61H138.53L138.63 95.98H139.62L139.84 94.61L140.68 94.38L140.43 95.98H141.87L141.76 96.61H140.32L139.91 99.28C139.843 99.6733 139.863 99.96 139.97 100.14C140.083 100.313 140.276 100.4 140.55 100.4C140.676 100.4 140.79 100.39 140.89 100.37C140.99 100.343 141.083 100.313 141.17 100.28L141.07 100.96C140.963 101 140.856 101.03 140.75 101.05C140.643 101.077 140.53 101.09 140.41 101.09ZM147.213 101.09C146.767 101.09 146.393 100.977 146.093 100.75C145.8 100.523 145.62 100.213 145.553 99.82L145.653 99.8L145.463 101H144.663L145.833 93.64H146.643L146.083 97.15L145.933 97.17C146.107 96.7767 146.36 96.4667 146.693 96.24C147.033 96.0067 147.44 95.89 147.913 95.89C148.38 95.89 148.767 96 149.073 96.22C149.387 96.4333 149.607 96.7433 149.733 97.15C149.86 97.55 149.877 98.0367 149.783 98.61C149.657 99.4167 149.36 100.033 148.893 100.46C148.427 100.88 147.867 101.09 147.213 101.09ZM147.143 100.43C147.61 100.43 148.007 100.267 148.333 99.94C148.66 99.6133 148.873 99.1367 148.973 98.51C149.08 97.8567 149.017 97.3667 148.783 97.04C148.55 96.7067 148.187 96.54 147.693 96.54C147.233 96.54 146.837 96.7033 146.503 97.03C146.17 97.3567 145.953 97.8333 145.853 98.46C145.753 99.1133 145.82 99.6067 146.053 99.94C146.293 100.267 146.657 100.43 147.143 100.43ZM152.499 101.09C151.913 101.09 151.479 100.923 151.199 100.59C150.919 100.257 150.833 99.74 150.939 99.04L151.419 95.98H152.229L151.749 99C151.676 99.5 151.719 99.8633 151.879 100.09C152.039 100.31 152.319 100.42 152.719 100.42C153.173 100.42 153.546 100.277 153.839 99.99C154.133 99.6967 154.316 99.31 154.389 98.83L154.839 95.98H155.649L154.859 101H154.069L154.239 99.87H154.389C154.203 100.257 153.943 100.557 153.609 100.77C153.283 100.983 152.913 101.09 152.499 101.09ZM158.561 101.09C158.061 101.09 157.644 100.983 157.311 100.77C156.977 100.557 156.741 100.247 156.601 99.84C156.467 99.4333 156.444 98.94 156.531 98.36C156.617 97.8267 156.784 97.3767 157.031 97.01C157.284 96.6367 157.597 96.3567 157.971 96.17C158.344 95.9833 158.764 95.89 159.231 95.89C159.737 95.89 160.154 95.9967 160.481 96.21C160.814 96.4233 161.047 96.7333 161.181 97.14C161.321 97.54 161.344 98.03 161.251 98.61C161.164 99.1433 160.994 99.5967 160.741 99.97C160.494 100.337 160.184 100.617 159.811 100.81C159.444 100.997 159.027 101.09 158.561 101.09ZM158.621 100.43C159.081 100.43 159.474 100.267 159.801 99.94C160.134 99.6133 160.351 99.1367 160.451 98.51C160.557 97.8567 160.491 97.3667 160.251 97.04C160.011 96.7067 159.651 96.54 159.171 96.54C158.704 96.54 158.307 96.7033 157.981 97.03C157.654 97.3567 157.441 97.8333 157.341 98.46C157.241 99.1133 157.304 99.6067 157.531 99.94C157.764 100.267 158.127 100.43 158.621 100.43ZM157.751 102.87L157.891 101.99H158.801L158.661 102.87H157.751ZM157.871 95.49L159.181 93.47H159.951L160.841 95.49H160.281L159.531 94.01L158.441 95.49H157.871ZM164.334 101.09C163.834 101.09 163.41 100.983 163.064 100.77C162.717 100.55 162.47 100.237 162.324 99.83C162.184 99.4167 162.157 98.9267 162.244 98.36C162.377 97.5533 162.687 96.94 163.174 96.52C163.66 96.1 164.257 95.89 164.964 95.89C165.284 95.89 165.584 95.94 165.864 96.04C166.15 96.14 166.384 96.2867 166.564 96.48L166.244 97.04C166.07 96.8733 165.87 96.75 165.644 96.67C165.424 96.59 165.207 96.55 164.994 96.55C164.494 96.55 164.07 96.71 163.724 97.03C163.384 97.35 163.164 97.82 163.064 98.44C162.964 99.0733 163.037 99.5633 163.284 99.91C163.537 100.25 163.92 100.42 164.434 100.42C164.667 100.42 164.91 100.377 165.164 100.29C165.417 100.203 165.65 100.06 165.864 99.86L166.154 100.44C165.94 100.64 165.664 100.8 165.324 100.92C164.99 101.033 164.66 101.09 164.334 101.09Z" fill="black"/>
<path d="M171.052 97.34L170.572 96.99L171.662 95.73L170.132 95.26L170.352 94.69L171.832 95.25L171.912 93.64H172.522L172.342 95.25L173.902 94.69L174.052 95.26L172.462 95.73L173.352 96.99L172.872 97.34L172.082 96L171.052 97.34Z" fill="#FF0000"/>
<defs>
<clipPath id="clip0_2210_21847">
<rect width="30" height="30" fill="white" transform="translate(134.615 45)"/>
</clipPath>
</defs>
</svg>
