<svg width="50" height="50" viewBox="0 0 50 50" fill="none" xmlns="http://www.w3.org/2000/svg">
<path d="M4.25405 43.8812C4.13238 43.9624 4.03593 44.076 3.97567 44.2093C3.91541 44.3425 3.89375 44.49 3.91317 44.6349C3.93258 44.7799 3.99228 44.9165 4.08549 45.0291C4.17869 45.1418 4.30165 45.2261 4.44038 45.2724L9.12788 46.8349C9.30627 46.8943 9.50013 46.8874 9.67387 46.8155C9.84761 46.7435 9.98956 46.6113 10.0737 46.4432L12.6861 41.2185L18.3691 47.5323C18.6256 47.817 18.939 48.0446 19.289 48.2006C19.639 48.3565 20.0178 48.4372 20.401 48.4375H32.8124C32.8964 48.4375 34.8339 47.8059 34.8339 47.8059C35.3756 48.2179 36.0381 48.4399 36.7187 48.4375H38.2812C39.11 48.4375 39.9049 48.1083 40.4909 47.5222C41.077 46.9361 41.4062 46.1413 41.4062 45.3125C41.4062 44.4837 41.077 43.6888 40.4909 43.1028C39.9049 42.5167 39.11 42.1875 38.2812 42.1875H36.7187C36.6838 42.1875 36.6493 42.1891 36.6146 42.1901L36.7096 41.5255L37.4482 37.0941L39.6149 34.9274C39.7309 34.8115 39.8074 34.662 39.8337 34.5002C39.86 34.3383 39.8347 34.1723 39.7614 34.0256L38.9801 32.4631C38.9006 32.3041 38.7693 32.177 38.6078 32.1027C38.4463 32.0285 38.2644 32.0115 38.0919 32.0546L37.3672 32.2357L37.4454 31.6914L39.4823 30.2363C39.4986 30.2594 39.5135 30.2834 39.5304 30.306L40.4657 31.5577C40.7105 31.8873 41.0183 32.165 41.3711 32.3748C41.724 32.5846 42.115 32.7223 42.5215 32.78C42.6719 32.8019 42.8237 32.8129 42.9756 32.8129C43.555 32.8116 44.1225 32.6492 44.615 32.3441C45.1074 32.0389 45.5053 31.6028 45.7643 31.0846C46.0233 30.5664 46.1332 29.9864 46.0816 29.4093C46.0301 28.8323 45.8191 28.2809 45.4724 27.8168L44.5373 26.565C44.1935 26.1078 43.7314 25.7533 43.2008 25.5396L43.6942 21.5921C43.7235 21.363 43.7071 21.1304 43.6458 20.9077C43.5846 20.685 43.4798 20.4767 43.3375 20.2948C43.3375 20.2948 38.055 13.5133 38.0494 13.5077C38.0362 13.4946 29.4645 9.55175 29.4645 9.55175L25.6829 2.7456C25.632 2.654 25.5632 2.57357 25.4806 2.50911C25.398 2.44464 25.3032 2.39745 25.202 2.37034C25.1008 2.34324 24.9952 2.33677 24.8914 2.35132C24.7876 2.36588 24.6878 2.40116 24.598 2.45507L20.6917 4.79882C20.5788 4.86661 20.4848 4.96187 20.4185 5.07574C20.3522 5.18962 20.3158 5.3184 20.3127 5.45012C20.3095 5.58184 20.3398 5.71222 20.4005 5.82912C20.4613 5.94602 20.5507 6.04565 20.6603 6.11874L22.7282 7.49726L23.4297 11.3559L16.8261 7.15331C16.6921 7.06807 16.5354 7.02568 16.3767 7.03178C16.218 7.03789 16.065 7.0922 15.9379 7.18749L12.8129 9.53124C12.6989 9.61678 12.6104 9.7319 12.5571 9.86412C12.5038 9.99634 12.4877 10.1406 12.5106 10.2814C12.5334 10.4221 12.5943 10.5539 12.6867 10.6624C12.779 10.771 12.8994 10.8523 13.0346 10.8974L15.1409 11.5995L20.6584 19.1864C20.9126 19.5347 21.2452 19.8181 21.6294 20.0138C22.0136 20.2094 22.4385 20.3118 22.8696 20.3125H30.1028L33.4682 24.3511L31.3131 29.3798C31.2714 29.477 31.2499 29.5817 31.2499 29.6875V34.2788L29.8587 39.8437H27.7164L30.0871 33.917C30.2303 33.5584 30.2961 33.1736 30.2801 32.7878C30.264 32.4021 30.1665 32.024 29.994 31.6786L26.5624 24.8155V22.6562C26.5625 22.5286 26.5312 22.4028 26.4713 22.2901C26.4115 22.1773 26.3249 22.0809 26.2192 22.0093C26.1135 21.9377 25.9918 21.8932 25.8649 21.8795C25.738 21.8658 25.6096 21.8834 25.4911 21.9309L21.5848 23.4934C21.4153 23.5611 21.2748 23.6862 21.1879 23.8467C21.1009 24.0073 21.073 24.1932 21.1088 24.3723L22.6105 31.8806L19.3433 37.108L16.5709 34.7977C15.9307 34.2641 15.1714 33.8925 14.3572 33.7142C13.5431 33.5358 12.6979 33.5561 11.8933 33.7732C11.0886 33.9903 10.348 34.398 9.73402 34.9616C9.12006 35.5253 8.6508 36.2285 8.36587 37.0117L6.38452 42.4609L4.25405 43.8812ZM38.6306 46.0112C38.7604 45.9463 38.8695 45.8466 38.9458 45.7232C39.022 45.5998 39.0624 45.4576 39.0624 45.3125V43.9614C39.3603 44.1332 39.5932 44.3985 39.7249 44.7161C39.8565 45.0338 39.8796 45.386 39.7905 45.7182C39.7015 46.0503 39.5053 46.3437 39.2323 46.5529C38.9594 46.7621 38.6251 46.8753 38.2812 46.875H36.9031L38.6306 46.0112ZM37.4999 43.75V44.8297L36.1405 45.5094L36.3868 43.7855C36.4949 43.7622 37.4999 43.75 37.4999 43.75ZM37.8626 33.7224L38.1119 34.2204L36.9328 35.4004L36.2905 34.1159L37.8626 33.7224ZM41.1878 29.9145L40.7816 29.3709C40.7718 29.3571 40.7621 29.3428 40.7523 29.3288L41.7058 28.6477L41.8185 29.0404L41.1878 29.9145ZM43.4252 28.9743L42.9695 27.3863L42.9925 27.2021C43.1029 27.2881 43.2012 27.3884 43.285 27.5004L44.2203 28.7521C44.4312 29.0338 44.5409 29.3784 44.5314 29.7301C44.522 30.0819 44.3941 30.4201 44.1684 30.6901C43.9427 30.96 43.6325 31.1459 43.288 31.2174C42.9435 31.289 42.5849 31.2422 42.2704 31.0845L43.3078 29.647C43.3769 29.5511 43.4235 29.4408 43.4438 29.3243C43.4642 29.2078 43.4578 29.0883 43.4252 28.9746V28.9743ZM28.2233 10.5356C28.3045 10.682 28.4305 10.7984 28.5829 10.8677L33.3144 13.0184L25.2496 12.5142L25.2256 12.499L24.5059 8.54042L26.7071 7.80673L28.2233 10.5356ZM22.5542 5.50351L24.7092 4.21044L25.935 6.41689L24.2236 6.98739L24.2061 6.89149C24.1873 6.78829 24.148 6.68993 24.0904 6.60226C24.0328 6.5146 23.9581 6.43943 23.8708 6.38124L22.5542 5.50351ZM16.8902 11.3484L16.2572 10.4779C16.1614 10.3463 16.0269 10.2478 15.8724 10.1964L14.9432 9.88661L16.4427 8.76171L17.763 9.60155L16.8902 11.3484ZM32.6953 20.983L31.0686 19.031C30.9953 18.9431 30.9036 18.8724 30.7999 18.8238C30.6962 18.7752 30.5832 18.75 30.4687 18.75H22.8696C22.6848 18.7497 22.5026 18.7059 22.3379 18.622C22.1733 18.5382 22.0307 18.4167 21.9217 18.2674L17.9249 12.7718L19.0882 10.4453L24.5805 13.9404C24.692 14.0113 24.8197 14.0528 24.9516 14.0609L37.1 14.8202L38.4802 16.5947L32.6953 20.983ZM32.8124 29.8478L35.093 24.5265C35.1498 24.394 35.1688 24.2485 35.148 24.1059C35.1272 23.9633 35.0674 23.8292 34.9751 23.7185L33.6969 22.1847L39.4391 17.8282L42.1038 21.2542C42.1195 21.2744 42.1311 21.2975 42.1379 21.3223C42.1447 21.347 42.1465 21.3728 42.1433 21.3982L41.4547 26.907L36.2646 30.6142C36.1786 30.6757 36.106 30.7539 36.0511 30.8442C35.9963 30.9345 35.9603 31.0349 35.9454 31.1395L35.7305 32.6449L32.8124 33.3744V29.8478ZM29.6874 41.4062V43.75C29.6874 43.9572 29.7698 44.1559 29.9163 44.3024C30.0628 44.4489 30.2615 44.5312 30.4687 44.5312C30.6759 44.5312 30.8746 44.4489 31.0211 44.3024C31.1676 44.1559 31.2499 43.9572 31.2499 43.75V40.7212L32.6757 35.0195L34.738 34.504L35.9066 36.8412L35.1671 41.2781C35.1662 41.2841 35.1652 41.29 35.1644 41.2961L34.4515 46.2863L32.6855 46.875H26.5683L27.2519 41.4062H29.6874ZM24.9999 23.8101V25C24.9999 25.1213 25.0282 25.2409 25.0825 25.3494L25.3414 25.867L23.1128 26.4236L22.7685 24.7021L24.9999 23.8101ZM9.83393 37.5461C10.0331 36.9985 10.3611 36.5068 10.7903 36.1127C11.2195 35.7186 11.7372 35.4335 12.2998 35.2817C12.8624 35.1298 13.4532 35.1156 14.0224 35.2403C14.5917 35.3649 15.1225 35.6247 15.5702 35.9977L19.0305 38.8814C19.1162 38.9529 19.2162 39.0051 19.3238 39.0346C19.4314 39.0642 19.544 39.0703 19.6542 39.0527C19.7643 39.0351 19.8694 38.9941 19.9624 38.9324C20.0554 38.8708 20.1341 38.7899 20.1932 38.6953L24.0995 32.4453C24.2051 32.2763 24.2421 32.0734 24.2031 31.878L23.4191 27.9582L25.9702 27.3204C25.9987 27.3132 26.0267 27.3043 26.0542 27.2939L28.5959 32.3773C28.6699 32.5254 28.7116 32.6874 28.7185 32.8528C28.7254 33.0181 28.6972 33.183 28.6359 33.3367C28.6359 33.3367 25.7885 40.5164 25.7875 40.5242C25.7875 40.5256 25.0055 46.7784 25.0055 46.7784C25.0017 46.8106 24.9999 46.8429 25 46.8753H20.4004C20.2362 46.8752 20.0738 46.8406 19.9238 46.7738C19.7737 46.707 19.6394 46.6094 19.5294 46.4874L13.08 39.3214C12.9949 39.2268 12.8879 39.1545 12.7685 39.1107C12.649 39.0669 12.5207 39.0529 12.3946 39.0699C12.2685 39.087 12.1485 39.1346 12.045 39.2086C11.9415 39.2827 11.8577 39.3808 11.8007 39.4946L10.8657 41.3646L8.64712 40.81L9.83393 37.5461ZM7.4646 43.6187C7.6031 43.5264 7.70851 43.3922 7.76547 43.2357L8.11069 42.2861L10.1503 42.796L8.97915 45.1383L6.44985 44.2952L7.4646 43.6187Z" fill="black"/>
</svg>
