<svg width="50" height="50" viewBox="0 0 50 50" fill="none" xmlns="http://www.w3.org/2000/svg">
<g clip-path="url(#clip0_23715_49116)">
<path d="M23.7188 14.1836V6.98281C23.7188 5.73262 24.5121 4.62012 25.6942 4.21289L35.0204 1L35.9746 3.76992L26.6484 6.98281V14.1836" stroke="black" stroke-width="1.5" stroke-miterlimit="10" stroke-linecap="round" stroke-linejoin="round"/>
<path d="M12.9297 21.5078L15.9085 49.5352H34.4626L37.4414 21.5078" stroke="black" stroke-width="1.5" stroke-miterlimit="10" stroke-linecap="round" stroke-linejoin="round"/>
<path d="M16.0283 18.5781H38.9062C39.7152 18.5781 40.3711 19.234 40.3711 20.043C40.3711 20.852 39.7152 21.5078 38.9062 21.5078H11.4648C10.6558 21.5078 10 20.8521 10 20.043C10 19.234 10.6558 18.5781 11.4648 18.5781H12.9297L14.4436 14.1836C22.8335 14.1836 27.5375 14.1836 35.9274 14.1836L37.4414 18.5781" stroke="black" stroke-width="1.5" stroke-miterlimit="10" stroke-linecap="round" stroke-linejoin="round"/>
</g>
<defs>
<clipPath id="clip0_23715_49116">
<rect width="50" height="50" fill="white"/>
</clipPath>
</defs>
</svg>
