<svg width="51" height="51" viewBox="0 0 51 51" fill="none" xmlns="http://www.w3.org/2000/svg">
<path d="M38.2627 45.8124C38.5388 45.8124 38.7627 45.5885 38.7627 45.3124V24.8414C38.7627 17.0394 34.7366 11.0153 26.0925 5.88245C25.9348 5.78918 25.7395 5.78918 25.5818 5.88245C16.9446 11.0111 12.9219 17.0353 12.9219 24.8414V45.3124C12.9219 45.5885 13.1458 45.8124 13.4219 45.8124H38.2627ZM13.9219 24.8414C13.9219 17.5001 17.71 11.7911 25.8372 6.8949C33.9712 11.7953 37.7627 17.5043 37.7627 24.8414V44.8124H13.9219V24.8414Z" fill="black"/>
<path d="M26.095 10.6979C25.9373 10.6046 25.7419 10.6046 25.5842 10.6979C20.0544 13.9816 16.8828 19.0677 16.8828 24.6527V41.2675C16.8828 41.5436 17.1067 41.7675 17.3828 41.7675H34.3066C34.5828 41.7675 34.8066 41.5436 34.8066 41.2675V24.6527C34.8066 19.0717 31.6313 13.9852 26.095 10.6979V10.6979ZM17.8828 27.5492C17.8828 25.1141 19.2375 22.8778 21.6113 21.3732C23.9883 22.8795 25.3447 25.1158 25.3447 27.5492V40.7675H17.8828V27.5492ZM33.8066 40.7675H26.3447V27.5492C26.3447 25.1141 27.6995 22.8778 30.073 21.3732C32.4502 22.8795 33.8066 25.1158 33.8066 27.5492V40.7675V40.7675ZM30.3284 20.3568C30.1707 20.2635 29.9753 20.2635 29.8176 20.3568C27.894 21.4993 26.5279 23.07 25.8442 24.859C25.1595 23.071 23.7922 21.5004 21.8667 20.3568C21.709 20.2635 21.5137 20.2635 21.356 20.3568C19.8432 21.2551 18.6779 22.4194 17.9148 23.7451C18.235 18.9642 21.0783 14.6299 25.8396 11.7118C30.6079 14.6337 33.455 18.9698 33.7747 23.7487C33.0107 22.4222 31.8437 21.2566 30.3284 20.3568V20.3568Z" fill="black"/>
<path d="M27.436 16.5696H26.3469V15.0713C26.3469 14.7952 26.123 14.5713 25.8469 14.5713C25.5708 14.5713 25.3469 14.7952 25.3469 15.0713V16.5696H24.2578C23.9817 16.5696 23.7578 16.7935 23.7578 17.0696C23.7578 17.3457 23.9817 17.5696 24.2578 17.5696H25.3469V20.2874C25.3469 20.5635 25.5708 20.7874 25.8469 20.7874C26.123 20.7874 26.3469 20.5635 26.3469 20.2874V17.5696H27.436C27.7122 17.5696 27.936 17.3457 27.936 17.0696C27.936 16.7935 27.7122 16.5696 27.436 16.5696Z" fill="black"/>
</svg>
