<svg width="51" height="51" viewBox="0 0 51 51" fill="none" xmlns="http://www.w3.org/2000/svg">
<g clip-path="url(#clip0_23715_50325)">
<path d="M41.0332 21.7628C40.1535 21.7655 39.2784 21.8905 38.4332 22.1342L34.9689 12.777C35.6335 12.4403 36.3868 12.3199 37.1233 12.4326C37.8597 12.5453 38.5425 12.8855 39.076 13.4056C39.1417 13.4787 39.2218 13.5374 39.3112 13.5781C39.4007 13.6188 39.4975 13.6406 39.5958 13.6422C39.694 13.6437 39.7916 13.625 39.8822 13.5872C39.9729 13.5493 40.0548 13.4932 40.1228 13.4222C40.1908 13.3513 40.2434 13.267 40.2774 13.1748C40.3113 13.0826 40.3259 12.9844 40.3202 12.8863C40.3144 12.7882 40.2885 12.6923 40.2441 12.6047C40.1996 12.5171 40.1375 12.4396 40.0617 12.377C39.2191 11.5788 38.1301 11.091 36.9735 10.9936C35.8169 10.8963 34.6616 11.1952 33.6974 11.8413C33.564 11.9308 33.4646 12.0627 33.4154 12.2156C33.3661 12.3686 33.3699 12.5336 33.426 12.6842L35.0046 16.9699H21.0117L20.2974 14.9413H22.576C22.7654 14.9413 22.9471 14.8661 23.0811 14.7321C23.215 14.5982 23.2903 14.4165 23.2903 14.227C23.2903 14.0376 23.215 13.8559 23.0811 13.722C22.9471 13.588 22.7654 13.5128 22.576 13.5128H17.9831C17.7106 13.5141 17.4462 13.4197 17.236 13.2461C17.0259 13.0725 16.8833 12.8307 16.8331 12.5628C16.8158 12.469 16.7801 12.3795 16.7282 12.2995C16.6763 12.2195 16.6091 12.1504 16.5305 12.0964C16.3718 11.9872 16.1762 11.9456 15.9867 11.9806C15.7973 12.0157 15.6295 12.1245 15.5203 12.2833C15.4112 12.442 15.3695 12.6376 15.4046 12.827C15.5118 13.4274 15.8267 13.971 16.2941 14.3627C16.7616 14.7544 17.3518 14.9694 17.9617 14.9699H18.7189L19.7046 17.6628L15.576 23.1699C13.5008 21.9103 11.0182 21.5038 8.64958 22.0357C6.28097 22.5676 4.21059 23.9965 2.87316 26.0225C1.53574 28.0485 1.03532 30.5138 1.47699 32.9009C1.91866 35.288 3.26805 37.4111 5.24182 38.8244C7.21559 40.2377 9.66019 40.8313 12.0623 40.4805C14.4644 40.1297 16.6372 38.8619 18.1244 36.9431C19.6116 35.0244 20.2974 32.6041 20.038 30.1904C19.7786 27.7767 18.5941 25.5574 16.7331 23.9985L20.3046 19.2056L23.6974 28.427C23.3397 28.7131 23.0511 29.0761 22.8532 29.4892C22.6553 29.9023 22.5532 30.3547 22.5546 30.8128C22.5546 31.6293 22.8789 32.4123 23.4563 32.9896C24.0336 33.567 24.8167 33.8913 25.6331 33.8913H25.9046L26.226 34.8342L25.4117 35.0985C25.3218 35.1276 25.2386 35.1742 25.1669 35.2357C25.0951 35.2972 25.0363 35.3722 24.9938 35.4566C24.9513 35.541 24.9259 35.633 24.9192 35.7272C24.9124 35.8214 24.9245 35.9161 24.9546 36.0056C25.0043 36.1535 25.101 36.281 25.23 36.3687C25.359 36.4564 25.5131 36.4995 25.6689 36.4913C25.742 36.5051 25.8171 36.5051 25.8903 36.4913L28.9332 35.4842C29.0255 35.4578 29.1116 35.4131 29.1863 35.3527C29.261 35.2923 29.3227 35.2175 29.3678 35.1327C29.4129 35.0479 29.4404 34.9548 29.4487 34.8591C29.457 34.7634 29.446 34.6671 29.4162 34.5757C29.3864 34.4844 29.3385 34.4001 29.2753 34.3277C29.2122 34.2553 29.1351 34.1964 29.0486 34.1545C28.9622 34.1127 28.8682 34.0886 28.7723 34.0839C28.6763 34.0792 28.5804 34.0939 28.4903 34.127L27.6189 34.4199L27.2689 33.3985C27.6311 33.1759 27.9427 32.88 28.1836 32.5296C28.4245 32.1793 28.5892 31.7824 28.6673 31.3645C28.7454 30.9465 28.735 30.5169 28.6368 30.1032C28.5387 29.6896 28.3549 29.3011 28.0974 28.9628L35.7903 19.0985L37.0974 22.6342C34.9872 23.6105 33.3122 25.3321 32.3941 27.4682C31.476 29.6044 31.3795 32.0045 32.1233 34.2074C32.8671 36.4104 34.3986 38.2608 36.4237 39.4032C38.4488 40.5457 40.8246 40.8996 43.0947 40.3969C45.3648 39.8943 47.3692 38.5706 48.7227 36.68C50.0763 34.7895 50.6835 32.4655 50.4278 30.1545C50.1722 27.8435 49.0716 25.7085 47.3375 24.1595C45.6035 22.6106 43.3583 21.757 41.0332 21.7628V21.7628ZM18.6974 31.2056C18.7024 32.9792 18.1204 34.7046 17.0423 36.1129C15.9641 37.5212 14.4503 38.5332 12.7368 38.9912C11.0234 39.4492 9.20654 39.3275 7.5695 38.645C5.93247 37.9625 4.56722 36.7576 3.68658 35.218C2.80593 33.6785 2.45936 31.8908 2.7009 30.1338C2.94243 28.3767 3.75849 26.7488 5.02188 25.504C6.28527 24.2592 7.925 23.4674 9.68547 23.2519C11.446 23.0364 13.2283 23.4094 14.7546 24.3128L9.88315 30.8128C9.76948 30.9643 9.72068 31.1548 9.74747 31.3423C9.77426 31.5299 9.87445 31.6991 10.026 31.8128C10.1496 31.9055 10.3 31.9556 10.4546 31.9556C10.5661 31.9548 10.6758 31.9279 10.7751 31.877C10.8743 31.8262 10.9602 31.7528 11.026 31.6628L15.876 25.177C16.7526 25.9196 17.4585 26.8426 17.9454 27.8831C18.4324 28.9235 18.6889 30.0569 18.6974 31.2056V31.2056ZM26.8189 31.977L26.3474 30.5485C26.3174 30.4594 26.2701 30.377 26.2083 30.3062C26.1465 30.2354 26.0713 30.1774 25.9871 30.1356C25.9028 30.0938 25.8112 30.069 25.7174 30.0627C25.6236 30.0563 25.5294 30.0685 25.4403 30.0985C25.3512 30.1285 25.2689 30.1758 25.198 30.2376C25.1272 30.2994 25.0692 30.3746 25.0274 30.4589C24.9856 30.5431 24.9608 30.6347 24.9545 30.7285C24.9481 30.8224 24.9603 30.9165 24.9903 31.0056L25.4617 32.4342C25.0929 32.386 24.7513 32.214 24.4929 31.9464C24.2346 31.6788 24.0746 31.3314 24.0393 30.9611C24.004 30.5908 24.0954 30.2195 24.2986 29.9079C24.5017 29.5963 24.8046 29.3629 25.1577 29.2458C25.5108 29.1288 25.8931 29.135 26.2422 29.2635C26.5913 29.3919 26.8864 29.6351 27.0794 29.9531C27.2723 30.2712 27.3516 30.6453 27.3043 31.0142C27.2569 31.3832 27.0858 31.7251 26.8189 31.9842V31.977ZM27.026 28.0485C26.6061 27.8327 26.1409 27.7201 25.6689 27.7199C25.4501 27.7182 25.232 27.7422 25.0189 27.7913L21.5546 18.3699H34.5474L27.026 28.0485ZM41.0332 39.227C39.2154 39.2248 37.4525 38.6046 36.0336 37.4684C34.6148 36.3322 33.6244 34.7474 33.2249 32.9742C32.8253 31.2009 33.0405 29.3445 33.8351 27.7096C34.6296 26.0748 35.9563 24.7586 37.5974 23.977L40.3689 31.4556C40.4184 31.5925 40.5085 31.7111 40.6272 31.7953C40.7459 31.8796 40.8876 31.9255 41.0332 31.927C41.1191 31.9285 41.2044 31.9114 41.2832 31.877C41.4599 31.8112 41.6034 31.6781 41.6823 31.5068C41.7613 31.3355 41.7693 31.1399 41.7046 30.9628L38.9332 23.477C39.6177 23.2907 40.3237 23.1947 41.0332 23.1913C42.1062 23.1593 43.1748 23.343 44.1755 23.7315C45.1763 24.12 46.0889 24.7055 46.8592 25.4532C47.6296 26.2009 48.242 27.0956 48.6602 28.0843C49.0784 29.073 49.2939 30.1357 49.2939 31.2092C49.2939 32.2827 49.0784 33.3453 48.6602 34.3341C48.242 35.3228 47.6296 36.2175 46.8592 36.9652C46.0889 37.7129 45.1763 38.2983 44.1755 38.6869C43.1748 39.0754 42.1062 39.2591 41.0332 39.227V39.227Z" fill="black"/>
</g>
<defs>
<clipPath id="clip0_23715_50325">
<rect width="50" height="50" fill="white" transform="translate(0.84375 0.8125)"/>
</clipPath>
</defs>
</svg>
