<svg width="50" height="50" viewBox="0 0 50 50" fill="none" xmlns="http://www.w3.org/2000/svg">
<g clip-path="url(#clip0_23715_48935)">
<path d="M47.6717 25.6948C47.0613 21.3127 40.9288 19.9968 37.8931 22.7848C38.0397 21.6592 38.0895 20.523 38.042 19.3889C38.5217 17.2784 31.8496 15.5451 30.1932 15.2753C24.5721 14.0095 10.0073 14.0143 5.71302 17.9827C5.36762 18.0524 5.02818 18.6479 5.10269 18.9849C4.15791 25.867 6.5455 32.9101 9.07469 39.2587C6.73836 39.6175 3.5928 39.825 2.48318 42.2737C2.34695 42.325 2.27811 42.4772 2.32957 42.6134C2.33982 42.6407 2.35467 42.6661 2.37332 42.6887C2.13524 45.2862 5.01236 46.48 6.93123 47.4834C10.526 49.2985 14.6519 49.4524 18.5946 49.755C23.0122 50.2055 27.5053 50.0517 31.8533 49.1556C34.2214 48.7211 36.5919 48.2108 38.7671 47.1452C40.6188 46.331 42.7659 45.2435 42.8429 42.9402C42.9441 41.2874 41.4367 40.3768 39.9756 40.168C37.862 39.737 35.7244 39.4333 33.5745 39.2587C34.0151 38.2821 34.429 37.3056 34.7891 36.2962C36.9936 37.8403 40.2223 36.6391 42.2864 35.3661C45.1779 33.3043 47.8743 29.3433 47.6717 25.6948ZM6.16954 18.9812C6.35274 18.7872 6.55107 18.608 6.76278 18.4453C12.2533 14.466 31.7348 14.5258 36.8372 18.9568C36.125 19.4699 35.3475 19.8853 34.5253 20.1921C26.6338 16.164 16.1264 15.9735 8.09573 19.9981C7.40855 19.8186 6.74012 19.5734 6.10001 19.2657C6.12198 19.1643 6.1464 19.0728 6.17452 18.9788L6.16954 18.9812ZM41.555 43.8898C39.6837 46.9707 31.4236 48.3305 27.9252 48.7004C21.3459 49.2496 8.13606 49.1886 3.67707 43.9813C8.16906 47.0634 15.1658 47.1282 20.4135 47.3246C24.8859 47.4748 29.3767 47.2942 33.749 46.2578C36.5248 45.8403 39.2871 45.0371 41.6735 43.526C41.638 43.6481 41.599 43.7702 41.555 43.8898ZM34.258 40.3413C36.2538 40.5599 39.2895 40.9517 40.8776 41.4972C41.5734 41.8207 41.6735 42.0428 41.8163 42.8058C39.5215 44.4061 36.6786 45.2825 33.8906 45.7098C28.599 46.9597 23.5151 46.9646 18.1893 46.7364C13.7535 46.546 6.81531 46.126 3.38167 43.0684C3.83087 40.6478 7.58559 40.5831 9.49957 40.2425C9.91948 41.0872 10.2515 42.054 10.8874 42.7558C12.5097 44.3426 15.5393 44.3036 17.7072 44.6612C21.6133 45.1872 25.545 44.7832 29.3034 43.6285C29.9541 43.3624 32.8617 42.7863 32.3672 41.8561C32.6114 41.3202 32.8702 40.7904 33.1192 40.2559C33.495 40.2816 33.8771 40.3097 34.258 40.3413ZM33.7807 36.2192C33.1081 38.1235 32.2292 39.8042 31.3101 41.8074C26.7448 43.8605 20.5781 44.2585 15.947 43.4138C14.4345 43.1537 13.0016 43.0025 11.6442 42.1723C8.21291 35.4771 5.71546 27.953 5.94621 20.3288C14.7447 23.2584 28.7394 24.6683 37.0874 20.0481C36.9507 25.5386 35.7398 31.0205 33.7807 36.2192ZM37.1363 28.2923C38.4668 27.8565 39.7839 26.5504 40.9642 26.2648C42.9405 25.8462 43.6436 27.953 43.01 29.4092C41.8467 31.8725 38.4143 33.701 36.3172 31.615C36.6345 30.5164 36.9166 29.4178 37.1363 28.2923ZM46.4205 27.8993C45.4037 30.9008 43.1858 34.2467 40.006 35.3697C38.2251 36.1485 36.8836 36.113 35.0599 35.4917C35.3833 34.5653 35.6971 33.6352 35.99 32.6989C38.7975 34.8753 42.8196 32.5768 44.0182 29.657C44.819 27.6893 43.7106 25.1553 41.4 25.1626C39.8338 25.2101 38.6718 26.4137 37.3461 27.0815C37.4866 26.1782 37.5903 25.27 37.6989 24.3618C40.8263 20.4704 48.1612 22.6298 46.4205 27.8993ZM13.463 11.9527C14.271 12.6338 15.3525 13.348 16.384 13.5163C16.6601 13.435 16.8181 13.1451 16.7367 12.869C16.6985 12.7394 16.6114 12.6296 16.4939 12.5629C14.3285 9.69197 16.1716 9.27695 16.9651 6.63184C17.5461 3.90608 15.9886 0.803188 13.2641 0C12.6098 0.0377913 12.6537 0.804458 13.0821 1.13032C15.9885 4.36397 9.36032 7.33738 13.463 11.9527ZM13.463 7.00907C14.088 5.47838 15.2158 3.95745 14.8277 2.22295C15.8847 3.18609 16.3169 5.34167 15.853 6.74912C15.084 8.4971 13.8145 9.59441 14.7544 11.6672C13.2006 10.6907 12.7807 8.65461 13.4691 7.00917L13.463 7.00907ZM22.9059 12.502C22.9803 12.524 23.0585 12.5484 23.1366 12.5692C23.7616 13.1478 24.4024 12.1701 23.7469 11.694C23.8239 11.7966 23.775 11.7318 23.7201 11.6599L23.7396 11.6843C21.8061 9.17705 24.6733 6.74307 24.1058 4.02219C24.2278 1.54183 20.7112 -1.06304 20.6782 0.970564C22.1881 3.53393 21.4435 4.34933 19.9886 6.66612C18.9291 8.91095 20.8003 11.6524 22.9121 12.4959L22.9059 12.502ZM20.6966 7.85005C20.6979 7.82086 20.7015 7.79195 20.7076 7.76344C20.7076 7.78541 20.7076 7.80855 20.7003 7.82808C21.3033 5.87504 23.2843 4.32237 22.3493 2.09102C23.3258 3.42153 23.2184 4.90702 22.8815 6.39016C22.4409 7.84517 21.5852 9.30624 22.1869 10.8566C21.3825 10.1242 20.7002 9.08174 20.6965 7.85376C20.6976 7.88062 20.6953 7.89156 20.7025 7.844L20.6966 7.85005ZM20.6965 7.85376C20.6961 7.84517 20.6962 7.83668 20.6966 7.82818L20.6965 7.85376ZM27.7238 10.367C28.09 10.9481 30.4618 13.8032 30.7364 12.0759C30.9231 11.567 30.4763 11.042 30.4507 10.5196C30.2859 8.74835 31.5848 7.73404 31.9606 6.14603C32.3756 4.0428 31.6725 1.52952 29.6853 0.469999C29.213 0.244228 28.4964 -0.100093 28.0386 0.305163C27.7481 0.594506 27.8861 0.992438 28.0948 1.28168C30.7582 4.74345 25.4728 6.74287 27.7298 10.3609L27.7238 10.367ZM29.379 1.4722C30.7962 2.33398 31.1893 4.24552 31.0062 5.6603C30.64 7.30945 28.9933 9.05977 29.4694 10.8347C25.728 7.44607 31.6518 5.65542 29.379 1.4722Z" fill="black"/>
</g>
<defs>
<clipPath id="clip0_23715_48935">
<rect width="50" height="50" fill="white"/>
</clipPath>
</defs>
</svg>
