<svg width="50" height="50" viewBox="0 0 50 50" fill="none" xmlns="http://www.w3.org/2000/svg">
<path d="M24.5553 43.1048C18.3881 43.1048 14.1363 41.1902 12.98 40.6031C10.6651 39.4332 10.5682 37.9092 10.7168 37.1047C10.8297 36.5592 11.1043 36.0604 11.5048 35.6732C11.9053 35.286 12.4131 35.0285 12.9621 34.9341C13.8166 34.7693 15.892 33.7489 16.8046 32.3886C16.9663 32.1796 17.0835 31.9397 17.1489 31.6837C17.2143 31.4277 17.2265 31.161 17.1848 30.9001C17.0849 30.4957 16.881 30.1244 16.5933 29.8232C15.2684 28.3328 15.1849 26.3373 16.3766 24.6165C18.8612 21.0286 26.0166 19.1964 36.4002 23.1904C40.8138 24.8879 43.0627 27.2124 43.478 30.5052C43.7212 32.4038 42.9519 34.4283 41.2528 36.3589C37.7019 40.3937 30.9917 43.1048 24.5553 43.1048V43.1048ZM25.6248 22.5033C21.6291 22.5033 18.8726 23.7567 17.6612 25.5061C16.8779 26.6371 16.9147 27.833 17.7621 28.7863C18.2339 29.2927 18.5631 29.915 18.7162 30.5899C18.801 31.0532 18.7903 31.5289 18.6847 31.9879C18.5792 32.4469 18.3809 32.8794 18.1022 33.2591C16.9588 34.9635 14.553 36.2185 13.256 36.4687C13.0166 36.5034 12.793 36.6091 12.6144 36.7723C12.4357 36.9355 12.3102 37.1485 12.2541 37.3839C12.1002 38.2178 12.948 38.8361 13.6859 39.2092C14.7653 39.757 18.7351 41.5423 24.5553 41.5423C31.5008 41.5423 37.3571 38.4203 40.08 35.3266C41.4735 33.7431 42.1127 32.144 41.9279 30.7021C41.6988 28.8851 40.8 26.5566 35.8394 24.6487C31.8895 23.1295 28.4477 22.5033 25.6248 22.5033V22.5033Z" fill="black"/>
<path d="M12.656 39.8935C12.5827 39.8934 12.5108 39.8727 12.4486 39.8338C12.3865 39.7948 12.3365 39.739 12.3046 39.673C12.2726 39.6069 12.2599 39.5332 12.268 39.4603C12.276 39.3874 12.3044 39.3182 12.3499 39.2606C12.7382 38.7805 13.2882 38.4584 13.8969 38.3546C15.3179 38.0899 18.9699 36.5178 19.5854 34.6761C19.7989 34.0371 19.6217 33.4195 19.0435 32.7886C19.0081 32.7505 18.8513 32.5971 18.6602 32.4102C17.9674 31.7319 17.7723 31.5343 17.7118 31.4496C17.6521 31.3659 17.6277 31.262 17.6441 31.1605C17.6605 31.0589 17.7162 30.9679 17.7993 30.9072C17.8823 30.8466 17.986 30.8211 18.0877 30.8364C18.1894 30.8516 18.281 30.9064 18.3426 30.9888C18.421 31.0827 18.9316 31.5824 19.2066 31.8521C19.4111 32.052 19.5786 32.2164 19.618 32.2591C20.5864 33.3166 20.5376 34.2916 20.3264 34.9237C19.5688 37.1912 15.5212 38.8467 14.0385 39.1233C13.6169 39.1949 13.235 39.4155 12.9625 39.7451C12.926 39.7914 12.8795 39.8289 12.8264 39.8546C12.7733 39.8803 12.715 39.8936 12.656 39.8935Z" fill="black"/>
<path d="M42.5266 31.5316C42.4742 31.4942 41.9847 31.176 37.4887 28.5535C32.0171 25.3611 24.794 25.5078 20.4868 27.3011C18.9188 27.9542 17.9025 28.7804 17.6986 29.5678C17.6726 29.6681 17.6079 29.754 17.5185 29.8065C17.4292 29.8591 17.3227 29.874 17.2224 29.848C17.1221 29.822 17.0362 29.7572 16.9836 29.6678C16.9311 29.5785 16.9162 29.472 16.9422 29.3717C17.2121 28.3303 18.3641 27.3388 20.1864 26.5801C24.6715 24.712 32.1905 24.5585 37.8824 27.8782C39.9696 29.0959 41.4547 29.9691 42.2964 30.4741C43.1826 31.0055 43.2548 31.0486 43.1263 31.3679L42.4084 31.0605L42.7639 31.2222L42.5266 31.5316Z" fill="black"/>
<path d="M13.6233 25.7798H10.6114C10.2712 25.7795 9.945 25.6442 9.70442 25.4037C9.46384 25.1631 9.32851 24.837 9.32812 24.4968V20.4805C9.32812 20.2733 9.41044 20.0746 9.55695 19.928C9.70346 19.7815 9.90217 19.6992 10.1094 19.6992C10.3166 19.6992 10.5153 19.7815 10.6618 19.928C10.8083 20.0746 10.8906 20.2733 10.8906 20.4805V24.2175H13.344V20.4805C13.344 20.2733 13.4264 20.0746 13.5729 19.928C13.7194 19.7815 13.9181 19.6992 14.1253 19.6992C14.3325 19.6992 14.5312 19.7815 14.6777 19.928C14.8242 20.0746 14.9065 20.2733 14.9065 20.4805V24.4968C14.9062 24.837 14.7708 25.1631 14.5303 25.4037C14.2897 25.6442 13.9635 25.7795 13.6233 25.7798Z" fill="black"/>
<path d="M7.89897 21.264C7.62522 21.2631 7.35731 21.1848 7.12619 21.0381C6.89508 20.8914 6.7102 20.6823 6.59294 20.4349C6.47567 20.1876 6.4308 19.9121 6.46352 19.6403C6.49624 19.3685 6.60521 19.1115 6.77783 18.8991L9.23869 15.8696C9.31195 15.7795 9.40439 15.7068 9.50928 15.6569C9.61417 15.607 9.72887 15.5811 9.84503 15.5811H14.3845C14.5009 15.581 14.6159 15.6069 14.7211 15.6568C14.8262 15.7068 14.919 15.7794 14.9926 15.8696L17.4535 18.8991C17.6294 19.1157 17.7392 19.3784 17.7696 19.6559C17.7999 19.9333 17.7496 20.2136 17.6246 20.4631C17.4996 20.7126 17.3053 20.9208 17.0649 21.0626C16.8246 21.2044 16.5484 21.2739 16.2696 21.2627H7.96153C7.94074 21.2636 7.91976 21.264 7.89897 21.264ZM8.14025 19.7002H16.091L14.0143 17.1436H10.217L8.14025 19.7002Z" fill="black"/>
<path d="M16.0145 17.2434C15.9832 17.2434 15.9515 17.2422 15.9199 17.2403L14.3593 17.1428H9.86691L8.30613 17.2403C8.02636 17.2577 7.74753 17.1937 7.50339 17.0559C7.25925 16.9182 7.06025 16.7127 6.93046 16.4642C6.80068 16.2158 6.74566 15.935 6.77208 15.656C6.7985 15.3769 6.90522 15.1115 7.07932 14.8918L9.2001 12.2167C9.27326 12.1245 9.36634 12.0499 9.47236 11.9987C9.57838 11.9475 9.69461 11.9209 9.81236 11.9209H14.4121C14.5301 11.9209 14.6466 11.9474 14.7529 11.9987C14.8592 12.0499 14.9526 12.1244 15.0261 12.2167L17.1469 14.8916V14.8918C17.316 15.1052 17.4216 15.3619 17.4516 15.6325C17.4817 15.9031 17.435 16.1768 17.3169 16.4221C17.1987 16.6674 17.0139 16.8745 16.7836 17.0198C16.5533 17.165 16.2868 17.2425 16.0145 17.2433V17.2434ZM15.9222 15.8621L15.9223 15.8622L15.9222 15.8621ZM9.84246 15.5803H14.382C14.3982 15.5803 14.4161 15.5809 14.4323 15.5819L15.7661 15.6652L14.0362 13.4834H10.19L8.46003 15.6652L9.79384 15.5819C9.81005 15.5809 9.82629 15.5803 9.84248 15.5803H9.84246Z" fill="black"/>
<path d="M8.69832 13.5522C8.41753 13.5518 8.14288 13.4699 7.90772 13.3165C7.67257 13.163 7.48701 12.9446 7.37359 12.6878C7.26016 12.4309 7.22374 12.1466 7.26875 11.8695C7.31377 11.5923 7.43827 11.3342 7.62715 11.1264L11.0419 7.37025C11.1778 7.22072 11.3435 7.10125 11.5283 7.01949C11.7131 6.93774 11.913 6.89551 12.115 6.89551C12.3171 6.89551 12.517 6.93774 12.7018 7.01949C12.8866 7.10125 13.0523 7.22072 13.1882 7.37025L16.6028 11.1264C16.797 11.34 16.923 11.6067 16.9647 11.8924C17.0065 12.1781 16.962 12.4697 16.8369 12.73C16.7119 12.9902 16.512 13.2072 16.2629 13.3532C16.0138 13.4991 15.7268 13.5674 15.4387 13.5493L14.3914 13.4837H9.83872L8.79121 13.5493C8.76012 13.5512 8.72922 13.5522 8.69832 13.5522V13.5522ZM12.115 8.51258L8.96954 11.9725L9.76548 11.9227C9.78169 11.9218 9.7981 11.9212 9.81431 11.9212H14.4141C14.4303 11.9212 14.4484 11.9218 14.4646 11.9227L15.2604 11.9725L12.115 8.51258Z" fill="black"/>
<path d="M33.2175 29.8776C33.157 29.8775 33.0973 29.8634 33.0432 29.8364C32.1562 29.3651 31.1808 29.0835 30.1791 29.0098C30.0755 29.0096 29.9762 28.9683 29.9031 28.8949C29.8299 28.8216 29.7889 28.7222 29.7891 28.6186C29.7892 28.515 29.8305 28.4157 29.9039 28.3425C29.9772 28.2694 30.0767 28.2284 30.1803 28.2285C31.3039 28.2975 32.3995 28.6076 33.3926 29.1376C33.4714 29.1769 33.5345 29.2417 33.5718 29.3215C33.6091 29.4012 33.6184 29.4912 33.5981 29.5769C33.5779 29.6626 33.5292 29.7389 33.4602 29.7935C33.3911 29.8481 33.3056 29.8777 33.2175 29.8776H33.2175Z" fill="black"/>
<path d="M38.8596 32.0475C38.7651 32.0475 38.6737 32.0133 38.6025 31.951C38.5313 31.8888 38.4851 31.8029 38.4724 31.7092C38.0226 31.2938 37.5081 30.9544 36.9492 30.7044C36.8569 30.6579 36.7868 30.5766 36.7542 30.4785C36.7217 30.3803 36.7294 30.2733 36.7756 30.1808C36.8219 30.0883 36.9029 30.0179 37.0009 29.9851C37.099 29.9522 37.206 29.9596 37.2987 30.0055C39.2503 30.9813 39.2502 31.4898 39.2502 31.6569C39.2503 31.7082 39.2402 31.759 39.2205 31.8064C39.2009 31.8538 39.1721 31.8969 39.1359 31.9332C39.0996 31.9694 39.0565 31.9982 39.0091 32.0178C38.9617 32.0375 38.9109 32.0476 38.8596 32.0475V32.0475Z" fill="black"/>
</svg>
