<svg width="65" height="65" viewBox="0 0 65 65" fill="none" xmlns="http://www.w3.org/2000/svg">
<path d="M16.4268 17.0937C16.4268 14.9116 14.6475 13.1362 12.461 13.1362C10.2725 13.1362 8.49219 14.9116 8.49219 17.0937C8.49219 19.2783 10.2725 21.0551 12.461 21.0551C14.6475 21.0551 16.4268 19.2782 16.4268 17.0937ZM10.4922 17.0937C10.4922 16.0141 11.375 15.1362 12.461 15.1362C13.545 15.1362 14.4268 16.0141 14.4268 17.0937C14.4268 18.1752 13.545 19.0551 12.461 19.0551C11.375 19.0551 10.4922 18.1752 10.4922 17.0937Z" fill="black"/>
<path d="M61.4991 8.85211H18.7353V7.33891C18.7353 4.68411 16.5712 2.52441 13.9111 2.52441C11.251 2.52441 9.08595 4.68411 9.08595 7.33891V8.92141C5.01095 9.42461 1.84375 12.894 1.84375 17.0938C1.84375 21.2957 5.01095 24.7666 9.08595 25.27V30.3798C7.71585 30.5058 6.63475 31.6484 6.63475 33.0508V52.7403H4.74125C3.75005 52.7403 2.94335 53.546 2.94335 54.5362V61.3048C2.94335 62.295 3.74995 63.1007 4.74125 63.1007H23.0802C24.0714 63.1007 24.878 62.295 24.878 61.3048V54.5362C24.878 53.546 24.0715 52.7403 23.0802 52.7403H21.1866V33.0508C21.1866 31.6484 20.1054 30.5058 18.7353 30.3798V25.3394H61.4991C62.7921 25.3394 63.8438 24.2891 63.8438 22.9986V11.1929C63.8438 9.90231 62.792 8.85211 61.4991 8.85211ZM61.8438 11.1929V14.7696L55.1419 23.3394H50.0017L59.7701 10.8521H61.499C61.6895 10.8521 61.8438 11.0049 61.8438 11.1929ZM41.6838 23.3394L51.4488 10.8521H57.2298L47.4613 23.3394H41.6838ZM34.0061 23.3394L43.7711 10.8521H48.909L39.1438 23.3394H34.0061ZM25.6861 23.3394L35.4537 10.8521H41.2313L31.4662 23.3394H25.6861ZM18.0079 23.3394L27.7731 10.8521H32.9134L23.1458 23.3394H18.0079ZM13.9111 4.52441C15.4688 4.52441 16.7353 5.78711 16.7353 7.33891V8.85211H11.0859V7.33891C11.0859 5.78711 12.3535 4.52441 13.9111 4.52441ZM3.84375 17.0938C3.84375 13.6519 6.65235 10.8521 10.1045 10.8521H25.2332L15.4681 23.3394H10.1045C6.65235 23.3394 3.84375 20.5376 3.84375 17.0938ZM22.878 61.1006H4.94335V54.7402H22.878V61.1006ZM19.1866 33.0508V52.7403H8.63475V33.0508C8.63475 32.6738 8.95405 32.355 9.33105 32.355H18.4902C18.874 32.355 19.1866 32.667 19.1866 33.0508ZM16.7353 30.355H11.0859V25.3394H16.7353V30.355ZM61.4991 23.3394H57.6819L61.8438 18.0175V22.9986C61.8438 23.1865 61.6895 23.3394 61.4991 23.3394Z" fill="black"/>
</svg>
