<svg width="50" height="50" viewBox="0 0 50 50" fill="none" xmlns="http://www.w3.org/2000/svg">
<path d="M39.0251 34.2251L30.4688 32.3236V30.6892C32.8822 29.2913 34.6728 27.027 35.4767 24.3564H35.547C36.4442 24.3581 37.3079 24.0158 37.9604 23.3999C38.6128 22.7841 39.0044 21.9415 39.0544 21.0457C39.1045 20.1499 38.8092 19.269 38.2294 18.5843C37.6496 17.8996 36.8294 17.4632 35.9376 17.365V16.4001C36.383 16.2439 36.7707 15.9564 37.0495 15.5756C37.3283 15.1947 37.4851 14.7383 37.4994 14.2665C37.5137 13.7947 37.3848 13.3297 37.1295 12.9326C36.8743 12.5356 36.5048 12.2252 36.0696 12.0423L37.4852 4.8384C37.5075 4.7252 37.5044 4.60848 37.4762 4.49662C37.448 4.38475 37.3954 4.28052 37.3221 4.19141C37.2488 4.10231 37.1567 4.03053 37.0524 3.98125C36.9481 3.93196 36.8342 3.90639 36.7188 3.90637H35.3212C31.8015 3.91 28.3602 2.86802 25.4337 0.912617C25.3053 0.826961 25.1544 0.78125 25.0001 0.78125C24.8458 0.78125 24.6949 0.826961 24.5665 0.912617C21.64 2.86802 18.1986 3.91 14.679 3.90637H13.2813C13.166 3.90639 13.052 3.93196 12.9477 3.98125C12.8434 4.03053 12.7513 4.10231 12.6781 4.19141C12.6048 4.28052 12.5522 4.38475 12.5239 4.49662C12.4957 4.60848 12.4927 4.7252 12.5149 4.8384L13.9306 12.0423C13.4954 12.2252 13.1259 12.5356 12.8706 12.9326C12.6154 13.3297 12.4864 13.7947 12.5007 14.2665C12.515 14.7383 12.6719 15.1947 12.9507 15.5756C13.2295 15.9564 13.6172 16.2439 14.0626 16.4001V17.365C13.1708 17.4632 12.3506 17.8996 11.7708 18.5843C11.191 19.269 10.8957 20.1499 10.9458 21.0457C10.9958 21.9415 11.3874 22.7841 12.0398 23.3999C12.6923 24.0158 13.556 24.3581 14.4532 24.3564H14.5235C15.3274 27.027 17.118 29.2913 19.5313 30.6892V32.3236L10.9751 34.2251C9.40964 34.5647 8.00839 35.4318 7.00599 36.6812C6.00359 37.9307 5.46091 39.4866 5.46884 41.0884V48.4376C5.46884 48.6448 5.55115 48.8435 5.69766 48.99C5.84417 49.1366 6.04289 49.2189 6.25009 49.2189H43.7501C43.9573 49.2189 44.156 49.1366 44.3025 48.99C44.449 48.8435 44.5313 48.6448 44.5313 48.4376V41.0884C44.5393 39.4866 43.9966 37.9307 42.9942 36.6812C41.9918 35.4318 40.5905 34.5647 39.0251 34.2251ZM42.5727 39.0626H42.1876C41.1446 39.0607 40.132 38.7113 39.3097 38.0697C38.4875 37.4281 37.9024 36.5309 37.647 35.5196L38.6868 35.7501C39.5567 35.9409 40.3662 36.3429 41.0439 36.9206C41.7216 37.4983 42.2467 38.2339 42.5727 39.0626ZM31.5876 34.1728L28.6079 39.4439L26.1329 37.472L29.8243 33.7806L31.5876 34.1728ZM24.829 42.9689H25.1712L26.3431 47.6564H23.6571L24.829 42.9689ZM25.3634 41.4064H24.6368L23.5032 39.7056L24.9657 38.54L26.4735 39.7407L25.3634 41.4064ZM37.5001 20.8407C37.498 21.3104 37.3268 21.7637 37.0177 22.1174C36.7086 22.4711 36.2825 22.7015 35.8173 22.7665C35.8934 22.2583 35.9336 21.7453 35.9376 21.2314V18.9275C36.3786 19.0175 36.775 19.2571 37.0597 19.6057C37.3444 19.9543 37.5 20.3906 37.5001 20.8407ZM35.1563 14.9814H14.8438C14.6366 14.9814 14.4379 14.8991 14.2914 14.7525C14.1449 14.606 14.0626 14.4073 14.0626 14.2001C14.0626 13.9929 14.1449 13.7942 14.2914 13.6477C14.4379 13.5012 14.6366 13.4189 14.8438 13.4189H35.1563C35.3635 13.4189 35.5623 13.5012 35.7088 13.6477C35.8553 13.7942 35.9376 13.9929 35.9376 14.2001C35.9376 14.4073 35.8553 14.606 35.7088 14.7525C35.5623 14.8991 35.3635 14.9814 35.1563 14.9814ZM33.2181 16.5439C30.9539 18.5569 28.0297 19.6689 25.0001 19.6689C21.9705 19.6689 19.0462 18.5569 16.7821 16.5439H33.2181ZM14.679 5.46887C18.3315 5.47295 21.9104 4.4411 25.0001 2.49309C28.0898 4.4411 31.6686 5.47295 35.3212 5.46887H35.7688L34.5134 11.8564H15.4868L14.2313 5.46887H14.679ZM12.5001 20.8407C12.5002 20.3906 12.6557 19.9543 12.9404 19.6057C13.2252 19.2571 13.6216 19.0175 14.0626 18.9275V21.2314C14.0665 21.7453 14.1068 22.2583 14.1829 22.7665C13.7177 22.7015 13.2915 22.4711 12.9825 22.1174C12.6734 21.7637 12.5021 21.3104 12.5001 20.8407ZM15.6251 21.2314V17.6009C18.1887 19.9368 21.5319 21.2315 25.0001 21.2315C28.4683 21.2315 31.8115 19.9368 34.3751 17.6009V21.2314C34.3751 23.7178 33.3874 26.1023 31.6292 27.8605C29.8711 29.6186 27.4865 30.6064 25.0001 30.6064C22.5137 30.6064 20.1291 29.6186 18.371 27.8605C16.6128 26.1023 15.6251 23.7178 15.6251 21.2314ZM25.0001 32.1689C26.3362 32.1668 27.6605 31.9181 28.9063 31.4353V32.4892L24.9313 36.4642L21.0938 32.6267V31.4353C22.3397 31.9181 23.664 32.1668 25.0001 32.1689ZM20.0634 33.8056L23.7602 37.5001L21.3282 39.4392L18.4032 34.1743L20.0634 33.8056ZM11.3134 35.7501L12.3532 35.5196C12.0978 36.5309 11.5127 37.4281 10.6904 38.0697C9.86815 38.7113 8.85555 39.0607 7.81259 39.0626H7.42743C7.75352 38.2339 8.2786 37.4983 8.95631 36.9206C9.63402 36.3429 10.4435 35.9409 11.3134 35.7501ZM7.03134 41.0884C7.03134 40.9321 7.0579 40.7759 7.0704 40.6251H7.81259C9.33451 40.6226 10.8033 40.0655 11.944 39.0579C13.0847 38.0504 13.819 36.6616 14.0095 35.1517L16.8134 34.5267L20.411 41.0032C20.4657 41.1031 20.5416 41.1899 20.6334 41.2573C20.7252 41.3248 20.8306 41.3714 20.9423 41.3939C20.9923 41.4031 21.043 41.4073 21.0938 41.4064C21.2707 41.4063 21.4423 41.3463 21.5806 41.2361L22.2766 40.6821L23.3766 42.3329L22.0462 47.6564H14.0626V42.1876H12.5001V47.6564H7.03134V41.0884ZM42.9688 47.6564H37.5001V42.1876H35.9376V47.6564H27.954L26.6259 42.3329L27.7024 40.7181L28.3532 41.2361C28.4915 41.3463 28.6631 41.4063 28.8399 41.4064C28.89 41.4065 28.94 41.4015 28.9891 41.3915C29.1001 41.37 29.205 41.3248 29.2967 41.2588C29.3884 41.1929 29.4647 41.1078 29.5204 41.0095L33.1852 34.5251L35.9931 35.1501C36.1831 36.66 36.9169 38.0488 38.0571 39.0566C39.1974 40.0644 40.6658 40.622 42.1876 40.6251H42.9298C42.9423 40.7814 42.9688 40.9306 42.9688 41.0884V47.6564Z" fill="black"/>
<path d="M23.6219 10.3405L24.6508 10.8553C24.7592 10.9095 24.8788 10.9377 25 10.9377C25.1212 10.9377 25.2408 10.9095 25.3492 10.8553L26.3782 10.3405C27.1397 9.96293 27.7802 9.37958 28.227 8.65656C28.6739 7.93355 28.9092 7.09979 28.9063 6.24983C28.9063 6.04263 28.824 5.84392 28.6775 5.69741C28.5309 5.55089 28.3322 5.46858 28.125 5.46858C27.7321 5.46982 27.3428 5.39305 26.9798 5.24271C26.6168 5.09238 26.2872 4.87147 26.0102 4.5928L25.5524 4.13499C25.4059 3.98853 25.2072 3.90625 25 3.90625C24.7929 3.90625 24.5942 3.98853 24.4477 4.13499L23.9899 4.5928C23.7129 4.87147 23.3833 5.09238 23.0202 5.24271C22.6572 5.39305 22.268 5.46982 21.875 5.46858C21.6678 5.46858 21.4691 5.55089 21.3226 5.69741C21.1761 5.84392 21.0938 6.04263 21.0938 6.24983C21.0909 7.09979 21.3262 7.93355 21.773 8.65656C22.2199 9.37958 22.8604 9.96293 23.6219 10.3405ZM25 5.78968C25.6279 6.38686 26.4144 6.79069 27.2657 6.95296C27.1645 7.38108 26.9703 7.78164 26.6967 8.12611C26.4231 8.47059 26.0769 8.7505 25.6828 8.94593L25.0032 9.28577L24.3235 8.94593C23.9282 8.75122 23.5808 8.47163 23.3061 8.12711C23.0314 7.78259 22.8362 7.38166 22.7344 6.95296C23.5856 6.79069 24.3721 6.38686 25 5.78968Z" fill="black"/>
</svg>
