<svg width="50" height="50" viewBox="0 0 50 50" fill="none" xmlns="http://www.w3.org/2000/svg">
<g clip-path="url(#clip0_23715_49360)">
<path d="M13.9141 7.08184L15.0679 0.732522H17.4334L18.2396 3.59004H21.6782L22.4844 0.732522H24.8499L25.6561 3.59004H29.0947L29.9009 0.732522H32.2663L33.0725 3.59004H36.5112L37.3173 0.732522H39.6828L46.5006 38.249" stroke="black" stroke-width="1.5" stroke-miterlimit="10" stroke-linecap="round" stroke-linejoin="round"/>
<path d="M9.75781 29.9346L13.2498 10.7187" stroke="black" stroke-width="1.5" stroke-miterlimit="10" stroke-linecap="round" stroke-linejoin="round"/>
<path d="M26.957 49.2676H4.39844" stroke="black" stroke-width="1.5" stroke-miterlimit="10" stroke-linecap="round" stroke-linejoin="round"/>
<path d="M36.9844 32.311C37.7221 31.7581 38.723 31.4283 39.5966 31.8586C40.2322 32.1717 40.691 32.7732 41.0984 33.3329C42.251 34.9161 43.2771 36.5824 45.0165 37.5969C46.3032 38.3473 47.7874 38.6445 49.2659 38.6445" stroke="black" stroke-width="1.5" stroke-miterlimit="10" stroke-linecap="round" stroke-linejoin="round"/>
<path d="M18.5859 38.6445C19.9443 38.6446 21.3153 38.3909 22.5003 37.7022C23.3722 37.1954 24.0789 36.4823 24.7265 35.7187C25.2415 35.1113 25.7284 34.4309 26.3908 33.9725C27.3549 33.3054 28.5676 33.397 29.5843 33.8896C30.8435 34.4997 32.0227 35.4698 33.5129 35.0462" stroke="black" stroke-width="1.5" stroke-miterlimit="10" stroke-linecap="round" stroke-linejoin="round"/>
<path d="M0.734375 38.6445H6.95469" stroke="black" stroke-width="1.5" stroke-miterlimit="10" stroke-linecap="round" stroke-linejoin="round"/>
<path d="M17.8638 14.0107C18.8063 14.0107 18.8078 12.5459 17.8638 12.5459C16.9212 12.5459 16.9196 14.0107 17.8638 14.0107Z" fill="black"/>
<path d="M20.5747 20.7095C21.5173 20.7095 21.5188 19.2446 20.5747 19.2446C19.6321 19.2446 19.6306 20.7095 20.5747 20.7095Z" fill="black"/>
<path d="M27.5825 9.17676C28.5251 9.17676 28.5266 7.71191 27.5825 7.71191C26.6399 7.71191 26.6384 9.17676 27.5825 9.17676Z" fill="black"/>
<path d="M36.0981 12.209C37.0407 12.209 37.0422 10.7441 36.0981 10.7441C35.1556 10.7441 35.154 12.209 36.0981 12.209Z" fill="black"/>
<path d="M14.6372 30.2695C15.5798 30.2695 15.5813 28.8047 14.6372 28.8047C13.6946 28.8047 13.6931 30.2695 14.6372 30.2695Z" fill="black"/>
<path d="M28.1919 28.2188C29.1345 28.2188 29.136 26.7539 28.1919 26.7539C27.2493 26.7539 27.2478 28.2188 28.1919 28.2188Z" fill="black"/>
<path d="M39.3246 25.7324C40.2672 25.7324 40.2688 24.2676 39.3246 24.2676C38.3822 24.2676 38.3806 25.7324 39.3246 25.7324Z" fill="black"/>
<path d="M13.8086 35.7923L12.4887 36.3533L4.54518 17.6652C4.11637 16.6567 2.95133 16.1867 1.94283 16.6154C0.934338 17.0441 0.464317 18.2091 0.893028 19.2177L8.83658 37.9058L7.51686 38.4667C5.84244 39.1784 5.06217 41.1127 5.77379 42.7871L8.52848 49.2676H23.1159L18.129 37.5355C17.4172 35.861 15.483 35.0806 13.8086 35.7923Z" stroke="black" stroke-width="1.5" stroke-miterlimit="10" stroke-linecap="round" stroke-linejoin="round"/>
<path d="M15.8203 39.9412L17.8618 44.708" stroke="black" stroke-width="1.5" stroke-miterlimit="10" stroke-linecap="round" stroke-linejoin="round"/>
<path d="M28.1919 43.4526C29.1345 43.4526 29.136 41.9878 28.1919 41.9878C27.2493 41.9878 27.2478 43.4526 28.1919 43.4526Z" fill="black"/>
<path d="M37.27 40.6738C38.2126 40.6738 38.2141 39.209 37.27 39.209C36.3274 39.209 36.3259 40.6738 37.27 40.6738Z" fill="black"/>
<path d="M45.3247 47.9932C46.2673 47.9932 46.2688 46.5283 45.3247 46.5283C44.3821 46.5283 44.3806 47.9932 45.3247 47.9932Z" fill="black"/>
<path d="M30.5356 18.1118C31.4781 18.1118 31.4797 16.647 30.5356 16.647C29.5931 16.647 29.5915 18.1118 30.5356 18.1118Z" fill="black"/>
</g>
<defs>
<clipPath id="clip0_23715_49360">
<rect width="50" height="50" fill="white"/>
</clipPath>
</defs>
</svg>
