<svg width="50" height="50" viewBox="0 0 50 50" fill="none" xmlns="http://www.w3.org/2000/svg">
<g clip-path="url(#clip0_23715_50463)">
<path d="M18.7518 49.2408C22.6101 49.2408 25.7379 46.113 25.7379 42.2547C25.7379 38.3964 22.6101 35.2686 18.7518 35.2686C14.8934 35.2686 11.7656 38.3964 11.7656 42.2547C11.7656 46.113 14.8934 49.2408 18.7518 49.2408Z" stroke="black" stroke-width="1.46484" stroke-miterlimit="10" stroke-linecap="round" stroke-linejoin="round"/>
<path d="M18.7545 45.5637C20.5821 45.5637 22.0637 44.0821 22.0637 42.2545C22.0637 40.4269 20.5821 38.9453 18.7545 38.9453C16.9269 38.9453 15.4453 40.4269 15.4453 42.2545C15.4453 44.0821 16.9269 45.5637 18.7545 45.5637Z" stroke="black" stroke-width="1.46484" stroke-miterlimit="10" stroke-linecap="round" stroke-linejoin="round"/>
<path d="M36.7707 36.0041V34.2882C36.7707 33.2047 35.8932 32.3271 34.8097 32.3271C34.3698 32.3271 33.5345 32.3271 33.0938 32.3271" stroke="black" stroke-width="1.46484" stroke-miterlimit="10" stroke-linecap="round" stroke-linejoin="round"/>
<path d="M23.0391 36.7393C24.6026 36.7393 35.1624 36.7393 36.7682 36.7393" stroke="black" stroke-width="1.46484" stroke-miterlimit="10" stroke-linecap="round" stroke-linejoin="round"/>
<path d="M36.7656 36.0039C36.7656 36.7942 36.7656 42.2177 36.7656 43.3577" stroke="black" stroke-width="1.46484" stroke-miterlimit="10" stroke-linecap="round" stroke-linejoin="round"/>
<path d="M36.7696 49.2404C38.3942 49.2404 39.7111 47.9235 39.7111 46.2989C39.7111 44.6744 38.3942 43.3574 36.7696 43.3574C35.1451 43.3574 33.8281 44.6744 33.8281 46.2989C33.8281 47.9235 35.1451 49.2404 36.7696 49.2404Z" stroke="black" stroke-width="1.46484" stroke-miterlimit="10" stroke-linecap="round" stroke-linejoin="round"/>
<path d="M20.5914 26.4437V23.5021C20.5914 21.4715 18.9451 19.8252 16.9145 19.8252C14.5502 19.8252 14.4631 19.8252 12.9169 19.8252C11.9031 19.8252 11.0442 20.6263 11.0314 21.6411C11.0197 22.6685 11.8474 23.5021 12.8698 23.5021C13.9369 23.5021 14.8773 23.5021 15.9418 23.5021C16.4791 23.5021 16.9145 23.9375 16.9145 24.4748V35.5134" stroke="black" stroke-width="1.46484" stroke-miterlimit="10" stroke-linecap="round" stroke-linejoin="round"/>
<path d="M20.5859 35.5139V32.3271" stroke="black" stroke-width="1.46484" stroke-miterlimit="10" stroke-linecap="round" stroke-linejoin="round"/>
<path d="M33.0874 32.3264H20.5859V26.4434H29.8105C31.6206 26.4434 33.0874 27.9102 33.0874 29.7192V32.3264Z" stroke="black" stroke-width="1.46484" stroke-miterlimit="10" stroke-linecap="round" stroke-linejoin="round"/>
<path d="M14.7031 19.8252V23.5021" stroke="black" stroke-width="1.46484" stroke-miterlimit="10" stroke-linecap="round" stroke-linejoin="round"/>
<path d="M32.3541 36.7393V37.3688C32.3541 39.4582 30.6607 41.1516 28.5713 41.1516H25.6484" stroke="black" stroke-width="1.46484" stroke-miterlimit="10" stroke-linecap="round" stroke-linejoin="round"/>
<path d="M40.6431 6.94741L47.1919 10.3449C48.4744 11.0106 49.2696 12.3294 49.2696 13.7629C49.2696 16.4799 46.5645 18.2772 44.122 17.3909C43.5856 17.1938 44.3299 17.537 28.5623 8.96147C26.3435 7.75151 23.6607 7.75151 21.4419 8.96147L6.42822 17.1437C3.86709 18.5428 0.734375 16.6887 0.734375 13.7628C0.734375 12.3245 1.53545 11.0066 2.81211 10.3448L17.9913 2.46929C22.3869 0.188623 27.617 0.188623 32.0126 2.46929L37.5976 5.36665" stroke="black" stroke-width="1.46484" stroke-miterlimit="10" stroke-linecap="round" stroke-linejoin="round"/>
<path d="M5.88281 30.6108V17.3906" stroke="black" stroke-width="1.46484" stroke-miterlimit="10" stroke-linecap="round" stroke-linejoin="round"/>
<path d="M44.1228 17.3906V43.0878C44.1228 46.4853 41.3686 49.2405 37.97 49.2405C35.2678 49.2405 15.6546 49.2405 12.0355 49.2405C8.63711 49.2405 5.88281 46.4853 5.88281 43.0878V34.0426" stroke="black" stroke-width="1.46484" stroke-miterlimit="10" stroke-linecap="round" stroke-linejoin="round"/>
<path d="M18.875 15.0059V16.1824" stroke="black" stroke-width="1.46484" stroke-miterlimit="10" stroke-linecap="round" stroke-linejoin="round"/>
<path d="M31.125 15.0059V16.1824" stroke="black" stroke-width="1.46484" stroke-miterlimit="10" stroke-linecap="round" stroke-linejoin="round"/>
<path d="M23.3906 16.1484C24.245 17.1289 25.764 17.129 26.6185 16.1484" stroke="black" stroke-width="1.46484" stroke-miterlimit="10" stroke-linecap="round" stroke-linejoin="round"/>
</g>
<defs>
<clipPath id="clip0_23715_50463">
<rect width="50" height="50" fill="white"/>
</clipPath>
</defs>
</svg>
