<svg width="49" height="45" viewBox="0 0 49 45" fill="none" xmlns="http://www.w3.org/2000/svg">
<g clip-path="url(#clip0_24246_47705)">
<path d="M28.5 44.2444V39.65V31.9097" stroke="black" stroke-width="1.45" stroke-linecap="round" stroke-linejoin="round"/>
<path d="M28.5 9.10688V6.46953V0.684082" stroke="black" stroke-width="1.45" stroke-linecap="round" stroke-linejoin="round"/>
<path d="M28.5 6.46924H34.0301L34.4549 10.0422L38.9635 11.9993L42.1975 9.70321L45.0902 12.7654L42.6224 15.744L44.6653 20.4922L48.3219 20.847V25.4414L44.8348 25.9522L42.8777 30.4607L45.0043 32.845L41.5173 36.5016L38.8799 34.2913L34.5408 36.0767L34.1137 39.6497H28.5" stroke="black" stroke-width="1.45" stroke-linecap="round" stroke-linejoin="round"/>
<path d="M28.5018 9.10645V31.9092H17.0981C17.0981 28.9035 14.6619 26.4673 11.6562 26.4673C8.65049 26.4673 6.21202 28.9035 6.21202 31.9092H0.679688V22.2344L13.4416 18.5507C13.4416 18.5507 17.3558 13.1043 18.888 10.8941C20.418 8.68158 22.6734 9.10645 22.6734 9.10645H28.5018Z" stroke="black" stroke-width="1.45" stroke-linecap="round" stroke-linejoin="round"/>
<path d="M38.8211 23.0594C38.8211 27.1951 35.4697 30.5466 31.334 30.5466C30.3305 30.5466 29.3746 30.35 28.5 29.9907V16.1282C29.3746 15.7689 30.3305 15.5723 31.334 15.5723C35.4697 15.5723 38.8211 18.9238 38.8211 23.0594Z" stroke="black" stroke-width="1.45" stroke-linecap="round" stroke-linejoin="round"/>
<path d="M17.0971 31.9092C17.0971 34.9172 14.6608 37.3534 11.6551 37.3534C8.64941 37.3534 6.21094 34.9172 6.21094 31.9092C6.21094 28.9012 8.64715 26.4673 11.6551 26.4673C14.6631 26.4673 17.0971 28.9035 17.0971 31.9092Z" stroke="black" stroke-width="1.45" stroke-linecap="round" stroke-linejoin="round"/>
</g>
<defs>
<clipPath id="clip0_24246_47705">
<rect width="49" height="44.9163" fill="white"/>
</clipPath>
</defs>
</svg>
