<svg id="Parking" height="512" viewBox="0 0 64 64" width="512" xmlns="http://www.w3.org/2000/svg"><path d="m8.04 18.87c.16.09.33.13.5.13.35 0 .68-.18.87-.5.4-.69 1.08-1.21 1.85-1.41.54-.14.86-.68.72-1.22s-.68-.86-1.22-.72c-1.29.33-2.41 1.19-3.08 2.34-.28.48-.11 1.09.36 1.37z"/><path d="m18.75 17.1c.77.2 1.45.71 1.85 1.41.19.32.52.5.87.5.17 0 .34-.04.5-.13.48-.28.64-.89.36-1.37-.67-1.16-1.79-2.01-3.08-2.34-.54-.14-1.08.18-1.22.72s.18 1.08.72 1.22z"/><path d="m64 7c0 .55-.45 1-1 1h-30v55c0 .55-.45 1-1 1s-1-.45-1-1v-55h-30c-.55 0-1-.45-1-1s.45-1 1-1h62c.55 0 1 .45 1 1z"/><path d="m1 2h62c.55 0 1-.45 1-1s-.45-1-1-1h-62c-.55 0-1 .45-1 1s.45 1 1 1z"/><path d="m28 27h-1v-7c0-4.96-4.04-9-9-9h-6c-4.96 0-9 4.04-9 9v7h-1c-.55 0-1 .45-1 1s.45 1 1 1h1v27c0 1.29.5 2.46 1.31 3.34.01.03.03.04.05.06.91.98 2.2 1.6 3.64 1.6h14c1.44 0 2.73-.62 3.64-1.6.02-.02.04-.03.05-.06.81-.88 1.31-2.05 1.31-3.34v-27h1c.55 0 1-.45 1-1s-.45-1-1-1zm-23 29v-26.15l2 2.5v21.37l-1.87 3.11c-.08-.26-.13-.54-.13-.83zm3.48-25-2.96-3.7c2.87-1.5 6.06-2.3 9.31-2.3h.34c3.25 0 6.44.8 9.31 2.3l-2.96 3.7zm12.52 2v20h-12v-20zm1 26h-14c-.57 0-1.11-.17-1.56-.45l2.13-3.55h12.86l2.13 3.55c-.45.28-.99.45-1.56.45zm3-3c0 .29-.05.57-.13.83l-1.87-3.11v-21.37l2-2.5zm0-30.68c-3.05-1.52-6.41-2.32-9.83-2.32h-.34c-3.42 0-6.78.8-9.83 2.32v-5.32c0-3.86 3.14-7 7-7h6c3.86 0 7 3.14 7 7z"/><path d="m43.64 21.85c-.49.26-.67.87-.4 1.36s.87.67 1.36.4c1.47-.8 3.34-.8 4.81 0 .15.08.31.12.48.12.35 0 .7-.19.88-.52.26-.49.08-1.09-.4-1.36-2.05-1.12-4.66-1.12-6.71 0z"/><path d="m51.8 20.23c.35 0 .69-.19.88-.52.27-.48.09-1.09-.39-1.36-1.63-.9-3.41-1.36-5.28-1.36s-3.66.46-5.28 1.36c-.48.27-.66.88-.39 1.36s.88.66 1.36.39c2.66-1.47 5.98-1.47 8.63 0 .15.08.32.12.48.12z"/><path d="m53.72 16.72c.35 0 .7-.19.88-.52.27-.48.09-1.09-.39-1.36-4.39-2.41-10.02-2.41-14.4 0-.48.27-.66.87-.39 1.36.27.48.87.66 1.36.39 3.8-2.09 8.68-2.09 12.48 0 .15.08.32.12.48.12z"/><path d="m49 31h-5c-.55 0-1 .45-1 1v6c0 .55.45 1 1 1h5c2.21 0 4-1.79 4-4s-1.79-4-4-4zm0 6h-4v-4h4c1.1 0 2 .9 2 2s-.9 2-2 2z"/><path d="m49 27h-9c-.55 0-1 .45-1 1v26c0 .55.45 1 1 1h4c.55 0 1-.45 1-1v-11h4c2.14 0 4.15-.83 5.66-2.34s2.34-3.52 2.34-5.66c0-4.41-3.59-8-8-8zm4.24 12.24c-1.13 1.13-2.64 1.76-4.24 1.76h-5c-.55 0-1 .45-1 1v11h-2v-24h8c3.31 0 6 2.69 6 6 0 1.6-.62 3.11-1.76 4.24z"/></svg>