<svg width="50" height="50" viewBox="0 0 50 50" fill="none" xmlns="http://www.w3.org/2000/svg">
<path d="M5.85443 8.68189L9.33147 9.79162C9.71309 9.92479 10.1371 9.70284 10.2643 9.25895C10.3915 8.85945 10.1795 8.41556 9.75549 8.28239L6.27846 7.17266C5.89683 7.03949 5.4728 7.26144 5.34559 7.70533C5.21838 8.14922 5.4728 8.54872 5.85443 8.68189Z" fill="black"/>
<path d="M33.2486 21.555L38.2946 23.153C38.6762 23.2862 39.1002 23.0642 39.2274 22.6647C39.3546 22.2652 39.1426 21.7769 38.7186 21.6882L33.6727 20.0901C33.291 19.957 32.867 20.1789 32.7398 20.6228C32.6126 20.9779 32.8246 21.4218 33.2486 21.555Z" fill="black"/>
<path d="M43.3812 29.3677L38.8017 27.9028C39.3953 27.4589 39.9042 26.8819 40.201 26.1717C42.2787 26.1717 43.9325 24.7956 44.4837 22.8869C45.9678 17.8709 43.254 12.5442 38.4201 10.9905L37.996 10.8574C37.6144 10.7242 37.1904 10.9462 37.0632 11.39L36.0455 14.8524C35.8759 15.4739 35.2398 15.7846 34.6886 15.607L32.2716 14.8524L33.6285 10.1028C33.883 9.17059 33.3741 8.19403 32.4837 7.8833L31.6356 7.61697C30.9572 7.39502 30.2363 7.66136 29.8123 8.2828L27.3529 7.4838C26.9713 7.35063 26.5472 7.57258 26.42 8.01647L25.4024 11.4788C25.2328 12.1003 24.5967 12.411 24.0455 12.2334L21.6709 11.4788L23.0278 6.72918C23.2822 5.79701 22.7734 4.82045 21.8829 4.50972L21.0349 4.24339C20.3564 4.02144 19.5932 4.28778 19.1691 4.90922L16.7522 4.15461C15.3529 3.71072 13.8264 4.24339 12.9783 5.48628L8.61081 4.11022C8.22919 3.97705 7.80516 4.199 7.67795 4.64289C7.55074 5.08678 7.76276 5.48628 8.18678 5.61945L12.3847 6.95113C11.8334 8.85986 10.943 11.9671 10.8158 12.3222L7.16911 11.1681C6.78749 11.0349 6.36346 11.2569 6.23625 11.7008C6.10904 12.1003 6.32105 12.5442 6.74508 12.6773L10.6462 13.9202C10.731 15.4739 11.579 16.8499 12.8511 17.6489C12.7663 18.3592 12.8511 19.1138 13.1055 19.824L7.88996 18.1816C6.78749 17.8265 5.60021 18.4923 5.26098 19.6464L5.09137 20.2679C4.75215 21.422 5.38819 22.6649 6.49067 23.02L7.16911 23.242V44.682C7.16911 45.1258 7.50834 45.4366 7.88996 45.481H11.2398C11.6638 45.481 12.003 45.1258 12.003 44.682V24.84L17.5154 26.5712V44.682C17.5154 45.1258 17.8547 45.4366 18.2363 45.481H21.5861C22.0101 45.481 22.3494 45.1258 22.3494 44.682V28.1248L27.8617 29.856V44.682C27.8617 45.1258 28.201 45.481 28.625 45.481H31.9748C32.3989 45.481 32.6957 45.1258 32.7381 44.7263V31.4096L38.2505 33.1408V44.682C38.2505 45.1258 38.5897 45.481 39.0137 45.481H42.3635C42.7876 45.481 43.0844 45.1258 43.1268 44.7263V34.3837C43.89 34.2061 44.5261 33.629 44.7381 32.83L44.9501 32.1198C45.1197 30.9657 44.4837 29.7228 43.3812 29.3677ZM34.0102 24.4405L38.6321 25.9053C37.2752 28.0804 34.0102 27.015 34.0102 24.4405ZM20.4412 20.1347L22.6886 20.8449C22.6038 21.5552 22.6886 22.221 22.943 22.8869L19.1267 21.644C19.678 21.2445 20.1444 20.7562 20.4412 20.1347ZM24.1727 21.2888L28.7946 22.7537C27.4377 24.9288 24.1727 23.9078 24.1727 21.2888ZM30.2787 23.242L32.5261 23.9522C32.4413 24.6624 32.5261 25.3283 32.7805 25.9941L28.9218 24.7512C29.5155 24.3961 29.9819 23.8634 30.2787 23.242ZM31.2116 9.17059L32.0596 9.43692C32.1868 9.48131 32.2292 9.57009 32.1868 9.70326L30.8299 14.4529L29.5579 14.0534L30.9148 9.34814C30.9996 9.17059 31.1268 9.1262 31.2116 9.17059ZM20.6108 5.75262L21.4589 6.01895C21.5861 6.06334 21.6285 6.15212 21.5861 6.28529L20.2292 11.0349L18.9571 10.6354L20.314 5.88579C20.3988 5.79701 20.526 5.70823 20.6108 5.75262ZM13.8264 7.39502L14.844 7.70574C15.3105 7.83891 15.8193 7.4838 15.8193 6.95113C15.8193 6.59601 15.6073 6.28529 15.3105 6.19651L14.632 5.97457C14.7168 5.88579 14.844 5.8414 14.9288 5.75262C15.3953 5.48628 15.9041 5.44189 16.413 5.61945L18.7451 6.37407L17.3458 10.9462C17.2186 11.3457 17.4306 11.7896 17.8547 11.9227L23.6214 13.7427C24.9783 14.1866 26.42 13.3876 26.8441 11.9227L27.6073 9.21498L29.261 9.74765L27.9466 14.2753C27.8193 14.6749 28.0314 15.1187 28.413 15.2519C28.9642 15.4295 26.2928 14.5861 34.1798 17.0719C35.5367 17.5158 36.9784 16.7168 37.4024 15.2519L38.1657 12.5442C42.0243 13.9646 44.1445 18.3148 42.9572 22.3986C42.4483 24.0854 40.7522 24.9288 39.3105 24.4405L14.1656 16.4504C13.1479 16.1397 12.3847 15.2519 12.1727 14.1866C12.5543 14.0978 12.8087 13.6539 12.6815 13.2544C12.5967 12.9881 12.4271 12.8105 12.1727 12.7217C12.3423 12.4554 13.0631 10.0584 13.8264 7.39502ZM14.3352 18.1816L18.9571 19.6464C17.6002 21.8215 14.3352 20.8006 14.3352 18.1816ZM43.3812 31.6759L43.1692 32.3861C43.0844 32.7413 42.7452 32.9188 42.4059 32.83C42.1939 32.7856 41.9395 32.83 41.7699 32.9632C41.6003 33.0964 41.4731 33.3183 41.4731 33.5847V43.8829H39.6074V32.5637C39.6074 32.2086 39.3953 31.9422 39.0985 31.8091L32.102 29.5896C31.6356 29.4565 31.1268 29.8116 31.1268 30.3442V43.9273H29.3034V29.2789C29.3034 28.9238 29.0914 28.6131 28.7946 28.5243L21.7981 26.3048C21.3317 26.1717 20.8229 26.5268 20.8229 27.0594V43.9273H18.9571V25.9941C18.9571 25.639 18.7451 25.3283 18.4483 25.2395L11.4518 23.02C11.0702 22.8869 10.6462 23.1088 10.5189 23.5527C10.4765 23.6415 10.4765 23.6859 10.4765 23.7746V43.9273H8.61081V22.7093C8.61081 22.3542 8.3988 22.0435 8.10198 21.9547L6.9147 21.5996C6.57547 21.5108 6.40586 21.1113 6.49067 20.7562L6.70268 20.0459C6.78749 19.6908 7.16911 19.5133 7.50834 19.6021C14.9288 21.9547 34.8158 28.2579 42.9572 30.8769C43.2964 30.9657 43.466 31.3208 43.3812 31.6759Z" fill="black"/>
</svg>
