<svg width="50" height="50" viewBox="0 0 50 50" fill="none" xmlns="http://www.w3.org/2000/svg">
<path d="M46.1529 14.8097L47.5485 13.306L45.7884 11.6728L42.8776 14.8097H41.2003V13.0999L44.2444 10.0559L42.5468 8.35804L41.2003 9.70452V7H38.7994V9.7042L37.4532 8.35804L35.7553 10.0559L38.7994 13.0999V14.8097H37.1099L34.0556 11.7553L32.358 13.4532L33.7145 14.8097H31V17.2106H33.6942L32.358 18.5468L34.0556 20.2447L37.0896 17.2106H38.7994V18.9004L35.7553 21.9444L37.4532 23.642L38.7994 22.2958V25H41.2003V22.2955L42.5468 23.642L44.2444 21.9444L41.2003 18.9001V17.2106H42.9316L46.1057 20.1559L47.7386 18.3958L46.4615 17.2106H49V14.8097H46.1529Z" fill="black"/>
<path d="M30 36H50V38H30V36Z" fill="black"/>
<path d="M30 42H50V44H30V42Z" fill="black"/>
<path d="M17 42H23V44H17V42Z" fill="black"/>
<path d="M17 36H23V38H17V36Z" fill="black"/>
<path d="M0 36H7V38H0V36Z" fill="black"/>
<path d="M23.2329 22C21.156 22 19.4662 23.6898 19.4662 25.7671V27.4412H21.9774V25.7671C21.9774 25.0745 22.5404 24.5112 23.2329 24.5112C23.9255 24.5112 24.4888 25.0745 24.4888 25.7671V31.2082H14.5338V25.7671C14.5338 23.6898 12.844 22 10.7667 22C8.6898 22 7 23.6898 7 25.7671V27.4412H9.51116V25.7671C9.51116 25.0745 10.0745 24.5112 10.7667 24.5112C11.4593 24.5112 12.0226 25.0745 12.0226 25.7671V43.7647H14.5338V33.7194H24.4888V43.7647H27V25.7671C27 23.6898 25.3102 22 23.2329 22Z" fill="black"/>
<path d="M0 42H7V44H0V42Z" fill="black"/>
<path d="M0 47H50V49H0V47Z" fill="black"/>
</svg>
