<svg width="51" height="51" viewBox="0 0 51 51" fill="none" xmlns="http://www.w3.org/2000/svg">
<g clip-path="url(#clip0_23715_49905)">
<path d="M45.722 12.9658H42.3902C41.9801 12.9658 41.6476 13.2983 41.6476 13.7084C41.6476 14.1185 41.9801 14.451 42.3902 14.451H45.722C47.7261 14.451 49.3565 16.0813 49.3565 18.0854C49.3565 20.0896 47.7261 21.7199 45.722 21.7199H38.3083C38.1114 21.7199 37.9225 21.7981 37.7833 21.9374L24.8269 34.8937C24.5369 35.1837 24.5369 35.6538 24.8269 35.9438C24.9718 36.0887 25.162 36.1612 25.352 36.1612C25.542 36.1612 25.7321 36.0888 25.877 35.9438L38.6159 23.2051H45.722C48.545 23.2051 50.8417 20.9084 50.8417 18.0854C50.8417 15.2625 48.545 12.9658 45.722 12.9658Z" fill="black"/>
<path d="M39.917 12.9662H36.4973C35.1298 12.9662 33.8442 13.4987 32.8771 14.4657L26.5509 20.792V19.1422C26.5509 18.0716 26.1342 17.0646 25.377 16.3062C25.2477 16.1769 25.1105 16.0583 24.9677 15.9492C26.3593 15.1194 27.2938 13.5996 27.2938 11.865C27.2938 9.24463 25.162 7.11279 22.5416 7.11279C19.9212 7.11279 17.7894 9.24463 17.7894 11.865C17.7894 13.6007 18.7251 15.1212 20.1181 15.9507C19.1552 16.6838 18.5322 17.8414 18.5322 19.1422V28.8108L13.0695 34.2735H5.96338C3.14043 34.2734 0.84375 36.5701 0.84375 39.393C0.84375 42.2158 3.14043 44.5126 5.96338 44.5126H15.1901C16.5575 44.5126 17.8432 43.9801 18.8103 43.0131L24.0228 37.8006C24.3128 37.5105 24.3128 37.0404 24.0228 36.7505C23.7328 36.4604 23.2627 36.4604 22.9727 36.7504L17.7602 41.9629C17.0736 42.6493 16.1609 43.0273 15.1901 43.0273H5.96338C3.95928 43.0274 2.32891 41.3971 2.32891 39.393C2.32891 37.3889 3.95928 35.7585 5.96338 35.7585H13.3771C13.574 35.7585 13.7629 35.6803 13.9021 35.541L33.9273 15.5158C34.6139 14.8294 35.5266 14.4514 36.4974 14.4514H39.9171C40.3271 14.4514 40.6597 14.1188 40.6597 13.7088C40.6597 13.2987 40.3271 12.9662 39.917 12.9662ZM19.2744 11.865C19.2744 10.0636 20.74 8.59795 22.5415 8.59795C24.343 8.59795 25.8086 10.0636 25.8086 11.865C25.8086 13.6665 24.343 15.1321 22.5415 15.1321C20.7401 15.1322 19.2744 13.6666 19.2744 11.865ZM25.0658 22.2771L20.0173 27.3257V19.1422C20.0173 17.75 21.1499 16.6175 22.5421 16.6175C23.2165 16.6175 23.8504 16.8799 24.3265 17.3559C24.8032 17.8335 25.0659 18.4679 25.0659 19.1422V22.2771H25.0658Z" fill="black"/>
<path d="M39.5286 30.3739C39.3598 30.2049 39.1201 30.1276 38.8845 30.1659L33.4475 31.0486C33.0426 31.1143 32.7678 31.4958 32.8334 31.9005C32.8993 32.3054 33.2807 32.58 33.6854 32.5146L36.8517 32.0006L27.9753 40.8769C27.6853 41.1669 27.6853 41.6371 27.9753 41.927C28.1203 42.0719 28.3104 42.1445 28.5004 42.1445C28.6905 42.1445 28.8805 42.072 29.0254 41.927L37.9018 33.0507L37.3877 36.2169C37.322 36.6217 37.5969 37.0032 38.0018 37.0689C38.0421 37.0754 38.0822 37.0786 38.1217 37.0786C38.4794 37.0786 38.7946 36.8194 38.8539 36.4549L39.7366 31.0179C39.7747 30.7823 39.6973 30.5426 39.5286 30.3739Z" fill="black"/>
</g>
<defs>
<clipPath id="clip0_23715_49905">
<rect width="50" height="50" fill="white" transform="translate(0.84375 0.8125)"/>
</clipPath>
</defs>
</svg>
