<svg width="50" height="51" viewBox="0 0 50 51" fill="none" xmlns="http://www.w3.org/2000/svg">
<g clip-path="url(#clip0_23715_48593)">
<path d="M44.0615 17.5083C44.0615 27.4848 35.976 35.5722 25.9995 35.5722C16.023 35.5722 7.9375 27.4848 7.9375 17.5083H44.0615Z" stroke="black" stroke-width="1.87599" stroke-linecap="round" stroke-linejoin="round"/>
<path d="M44.0615 17.5083H7.9375" stroke="black" stroke-width="1.87599" stroke-linecap="round" stroke-linejoin="round"/>
<path d="M18.9591 34.1445L15.9688 49.6683" stroke="black" stroke-width="1.87599" stroke-linecap="round" stroke-linejoin="round"/>
<path d="M32.6094 34.3291L35.6729 49.6691" stroke="black" stroke-width="1.87599" stroke-linecap="round" stroke-linejoin="round"/>
<path d="M17.5547 41.3882H34.009" stroke="black" stroke-width="1.87599" stroke-linecap="round" stroke-linejoin="round"/>
<path d="M18.2936 0.937988C18.2936 0.937988 20.89 3.17979 19.725 5.50977C18.56 7.83975 17.1287 9.78327 19.4286 12.2727" stroke="black" stroke-width="1.87599" stroke-linecap="round" stroke-linejoin="round"/>
<path d="M25.0983 0.937988C25.0983 0.937988 27.6947 3.17979 26.5297 5.50977C25.3647 7.83975 23.9333 9.78327 26.2333 12.2727" stroke="black" stroke-width="1.87599" stroke-linecap="round" stroke-linejoin="round"/>
<path d="M31.9108 0.937988C31.9108 0.937988 34.5072 3.17979 33.3422 5.50977C32.1772 7.83975 30.7458 9.78327 33.0458 12.2727" stroke="black" stroke-width="1.87599" stroke-linecap="round" stroke-linejoin="round"/>
</g>
<defs>
<clipPath id="clip0_23715_48593">
<rect width="38" height="50.6066" fill="white" transform="translate(7)"/>
</clipPath>
</defs>
</svg>
