<svg width="50" height="50" viewBox="0 0 50 50" fill="none" xmlns="http://www.w3.org/2000/svg">
<g clip-path="url(#clip0_23715_49148)">
<path d="M47.7535 23.4551C48.8314 21.8141 49.397 19.9226 49.397 17.9339C49.397 15.2934 48.3843 12.7962 46.5453 10.9022C45.0077 9.31865 43.0319 8.29893 40.8848 7.96104C40.9784 7.51602 41.0256 7.06074 41.0256 6.59854C41.0257 2.96016 38.0655 0 34.4271 0C30.7885 0 27.8284 2.96016 27.8284 6.59854C27.8284 7.37773 27.9631 8.13828 28.2243 8.85478C23.1656 9.15137 19.1406 13.3608 19.1406 18.4926C19.1406 20.8856 19.9992 23.1316 21.5741 24.8986C20.8717 26.1482 20.5036 27.5514 20.5036 29.0007C20.5036 33.6297 24.2695 37.3956 28.8986 37.3956C30.9341 37.3956 32.8721 36.6511 34.375 35.3585V48.0469H24.0234V44.4308C25.1739 43.9086 25.9766 42.7497 25.9766 41.4062C25.9766 39.5754 24.4871 38.0859 22.6562 38.0859H3.32031C1.48945 38.0859 0 39.5754 0 41.4062C0 42.7498 0.802637 43.9087 1.95312 44.4308V49.0234C1.95312 49.5628 2.39043 50 2.92969 50H6.83594C7.3752 50 7.8125 49.5628 7.8125 49.0234V44.7266H18.1641V48.0469H17.2363C16.6971 48.0469 16.2598 48.4841 16.2598 49.0234C16.2598 49.5628 16.6971 50 17.2363 50H39.7461C40.2854 50 40.7227 49.5628 40.7227 49.0234C40.7227 48.4841 40.2854 48.0469 39.7461 48.0469H36.3281V35.3903C37.8078 36.6632 39.7151 37.3957 41.7253 37.3957C46.2881 37.3957 50 33.6837 50 29.121C50 27.0028 49.1906 24.983 47.7535 23.4551ZM5.85938 48.0469H3.90625V44.7266H5.85938V48.0469ZM22.0703 48.0469H20.1172V44.7266H22.0703V48.0469ZM22.6562 42.7734H19.1406H6.83594H3.32031C2.56641 42.7734 1.95312 42.1602 1.95312 41.4062C1.95312 40.6523 2.56641 40.0391 3.32031 40.0391H22.6562C23.4102 40.0391 24.0234 40.6523 24.0234 41.4062C24.0234 42.1602 23.4102 42.7734 22.6562 42.7734ZM41.7253 35.4426C39.5189 35.4426 37.4742 34.287 36.3281 32.4107V27.8614C36.3361 27.854 36.3444 27.8474 36.3522 27.8396L41.9022 22.2896C42.2836 21.9083 42.2836 21.2899 41.9022 20.9085C41.5209 20.5272 40.9027 20.5271 40.5211 20.9085L36.3281 25.1016V15.9898C36.3281 15.4505 35.8908 15.0133 35.3516 15.0133C34.8123 15.0133 34.375 15.4505 34.375 15.9898V18.524L33.5969 17.7459C33.2156 17.3646 32.5975 17.3646 32.2157 17.7459C31.8344 18.1272 31.8344 18.7456 32.2157 19.127L34.375 21.2861V27.5493L31.7031 24.8775L31.7005 24.8748L29.3404 22.5147C28.959 22.1334 28.3408 22.1334 27.9593 22.5147C27.5779 22.8961 27.5779 23.5145 27.9593 23.8958L29.4099 25.3463L26.7587 26.7955C26.2854 27.0542 26.1115 27.6476 26.3702 28.1208C26.5476 28.4454 26.8824 28.6292 27.2279 28.6292C27.3862 28.6292 27.5469 28.5906 27.6955 28.5093L30.849 26.7854L34.375 30.3115V32.39C33.2031 34.2788 31.127 35.4425 28.8986 35.4425C25.3466 35.4425 22.4567 32.5527 22.4567 29.0007C22.4567 27.68 22.8549 26.4097 23.608 25.3272C23.883 24.9321 23.829 24.3954 23.4807 24.063C21.9415 22.594 21.0938 20.6157 21.0938 18.4926C21.0938 14.2461 24.5485 10.7913 28.795 10.7913C29.1026 10.7913 29.4138 10.8112 29.746 10.8521C30.1318 10.8994 30.5082 10.7143 30.7058 10.3802C30.9034 10.046 30.8845 9.62656 30.6573 9.31172C30.0844 8.51729 29.7814 7.5791 29.7814 6.59873C29.7814 4.03721 31.8654 1.95332 34.427 1.95332C36.9884 1.95332 39.0724 4.03721 39.0724 6.59873C39.0724 7.23506 38.9456 7.85195 38.6958 8.43252C38.5681 8.7293 38.5954 9.06992 38.7687 9.34248C38.9419 9.61504 39.2388 9.78437 39.5617 9.79463C43.9815 9.93555 47.4438 13.5107 47.4438 17.9339C47.4438 19.7789 46.84 21.5201 45.698 22.9695C45.3737 23.3812 45.432 23.9754 45.8303 24.316C47.2391 25.5208 48.0469 27.2722 48.0469 29.1209C48.0469 32.6067 45.211 35.4426 41.7253 35.4426Z" fill="black"/>
<path d="M44.4403 48.333C44.2588 48.1514 44.0068 48.0469 43.75 48.0469C43.4931 48.0469 43.2411 48.1514 43.0596 48.333C42.8779 48.5146 42.7734 48.7666 42.7734 49.0234C42.7734 49.2803 42.8778 49.5322 43.0596 49.7139C43.2411 49.8955 43.4931 50 43.75 50C44.0068 50 44.2588 49.8955 44.4403 49.7139C44.622 49.5322 44.7266 49.2803 44.7266 49.0234C44.7266 48.7666 44.6221 48.5146 44.4403 48.333Z" fill="black"/>
<path d="M10.2225 16.7956C8.77193 16.3592 7.26187 16.8064 6.2732 17.8254C5.99468 17.5377 5.67027 17.2918 5.30747 17.0967C4.38462 16.6006 3.32368 16.4938 2.32046 16.7956C1.80406 16.9509 1.51128 17.4956 1.66665 18.0121C1.82193 18.5284 2.36675 18.821 2.88316 18.6658C3.38687 18.5143 3.91949 18.5679 4.38277 18.817C4.84615 19.066 5.18472 19.4805 5.33628 19.9842C5.4604 20.397 5.84048 20.6796 6.27144 20.6796C6.7024 20.6796 7.08247 20.397 7.20659 19.9843C7.51949 18.9446 8.61997 18.3531 9.65982 18.6659C10.1763 18.8213 10.7209 18.5286 10.8763 18.0121C11.0317 17.4956 10.7389 16.9509 10.2225 16.7956Z" fill="black"/>
<path d="M16.449 9.59252C15.446 9.29076 14.385 9.3976 13.4621 9.89359C13.1 10.0882 12.7761 10.3336 12.498 10.6205C12.2199 10.3336 11.8961 10.0882 11.5339 9.89359C10.611 9.3975 9.54986 9.29066 8.54703 9.59252C8.03053 9.74789 7.73785 10.2925 7.89322 10.8091C8.04859 11.3256 8.59361 11.6181 9.10973 11.4629C9.61315 11.3115 10.1459 11.365 10.6092 11.6141C11.0726 11.8631 11.4113 12.2777 11.5629 12.7815C11.687 13.1942 12.0671 13.4767 12.498 13.4767C12.929 13.4767 13.309 13.1942 13.4332 12.7815C13.5847 12.2778 13.9234 11.8632 14.3868 11.6141C14.8501 11.3651 15.3826 11.3115 15.8863 11.4629C16.4027 11.6182 16.9472 11.3255 17.1028 10.8091C17.2582 10.2926 16.9655 9.74799 16.449 9.59252Z" fill="black"/>
<path d="M28.7929 12.7769H28.7853C28.246 12.7769 27.8125 13.2141 27.8125 13.7534C27.8125 14.2928 28.2536 14.73 28.7929 14.73C29.3321 14.73 29.7694 14.2928 29.7694 13.7534C29.7694 13.2141 29.3322 12.7769 28.7929 12.7769Z" fill="black"/>
<path d="M26.0367 14.5163C25.6464 14.1441 25.0281 14.159 24.6561 14.5493C23.6385 15.6168 23.0781 17.0172 23.0781 18.4924C23.0781 19.0318 23.5154 19.469 24.0547 19.469C24.5939 19.469 25.0313 19.0318 25.0313 18.4924C25.0313 17.5213 25.4 16.5995 26.0698 15.897C26.442 15.5066 26.4271 14.8884 26.0367 14.5163Z" fill="black"/>
</g>
<defs>
<clipPath id="clip0_23715_49148">
<rect width="50" height="50" fill="white"/>
</clipPath>
</defs>
</svg>
