<svg width="50" height="50" viewBox="0 0 50 50" fill="none" xmlns="http://www.w3.org/2000/svg">
<path d="M39.2992 43.1858C40.9773 41.2888 42.3037 39.0747 43.1765 36.6459C43.2009 36.5952 43.22 36.5417 43.233 36.4857C43.9593 34.4078 44.3556 32.1762 44.3556 29.8534C44.3556 27.5307 43.9593 25.2991 43.2326 23.2208C43.22 23.1651 43.2009 23.1121 43.1765 23.0618C42.3041 20.6326 40.9773 18.4181 39.2992 16.5211C39.2558 16.4524 39.202 16.3914 39.139 16.3406C36.2971 13.2038 32.4831 10.9638 28.1771 10.1002V7.20367C28.1771 6.79932 27.8494 6.47125 27.4447 6.47125H26.5593V0.732422C26.5593 0.327683 26.2312 0 25.8269 0C25.4225 0 25.0945 0.327683 25.0945 0.732422V6.47125H23.3237V0.732422C23.3237 0.327683 22.996 0 22.5912 0C22.1869 0 21.8588 0.327683 21.8588 0.732422V6.47125H20.9734C20.5691 6.47125 20.241 6.79932 20.241 7.20367V10.1051C16.0052 10.9592 12.1283 13.1599 9.21883 16.3948C9.19937 16.4146 9.18144 16.4356 9.16428 16.4574C8.65578 17.0273 8.17627 17.6277 7.73109 18.2594C7.49802 18.5898 7.57736 19.0468 7.90771 19.2799C8.23845 19.5129 8.69545 19.434 8.92853 19.1032C9.28673 18.5947 9.66934 18.1087 10.0722 17.6434H13.3173C12.5224 19.1799 11.8876 20.8637 11.4264 22.6498H6.96815C7.07039 22.4056 7.17644 22.163 7.28973 21.9223C7.4614 21.5561 7.30423 21.1197 6.93802 20.948C6.57181 20.776 6.13579 20.9335 5.96375 21.2997C4.70222 23.9857 4.0625 26.8639 4.0625 29.8534C4.0625 32.177 4.45923 34.4093 5.18631 36.488C5.19852 36.5425 5.21759 36.5948 5.24124 36.6444C6.11404 39.0739 7.4408 41.2888 9.11926 43.1858C9.16237 43.2549 9.21654 43.3159 9.27948 43.3666C12.953 47.4216 18.2516 49.9783 24.1366 49.9992C24.1606 49.9996 24.185 50 24.2091 50C24.2331 50 24.2571 49.9996 24.2815 49.9992C30.1665 49.9783 35.4647 47.4216 39.1386 43.3666C39.202 43.3159 39.2558 43.2545 39.2992 43.1858V43.1858ZM10.5441 30.5859C10.5853 32.3021 10.7706 33.9817 11.0922 35.5927H6.43066C5.91682 34.0054 5.6105 32.3257 5.54298 30.5859H10.5441ZM41.9878 35.5927H37.3263C37.6479 33.9817 37.8333 32.3021 37.8745 30.5859H42.8751C42.8076 32.3257 42.5013 34.0054 41.9878 35.5927V35.5927ZM27.606 47.7989C28.2496 46.8735 28.8889 45.5864 29.4798 43.8129C29.5111 43.7191 29.542 43.6241 29.5725 43.5287H32.5182C31.1388 45.4922 29.463 46.9746 27.606 47.7989V47.7989ZM15.8999 43.5287H18.846C18.8765 43.6241 18.9074 43.7191 18.9387 43.8129C19.5296 45.5864 20.1685 46.8735 20.8121 47.7989C18.9551 46.9746 17.2797 45.4922 15.8999 43.5287V43.5287ZM32.5182 16.1785H29.5725C29.542 16.0831 29.5111 15.9878 29.4798 15.8939C28.8889 14.1209 28.25 12.8334 27.6064 11.9083C29.4634 12.7323 31.1388 14.2147 32.5182 16.1785ZM31.4078 29.121C31.3868 27.404 31.2933 25.7244 31.1304 24.1146H35.829C36.1647 25.7019 36.365 27.3811 36.4092 29.121H31.4078ZM30.9603 22.6498C30.7257 20.8607 30.403 19.1757 29.9986 17.6434H33.4433C34.2825 19.1269 34.9715 20.8145 35.4746 22.6498H30.9603ZM28.0264 16.1785H24.9415V11.3533C26.0394 11.8881 27.1387 13.5887 28.0264 16.1785ZM28.4792 17.6434C28.887 19.1093 29.2307 20.7901 29.4829 22.6498H24.9415V17.6434H28.4792ZM29.6584 24.1146C29.822 25.6802 29.9212 27.3552 29.9429 29.121H24.9415V24.1146H29.6584ZM29.9429 30.5859C29.9212 32.3517 29.8216 34.0271 29.6584 35.5927H24.9415V30.5859H29.9429ZM29.4829 37.0575C29.2307 38.9172 28.887 40.5979 28.4792 42.0639H24.9415V37.0575H29.4829ZM23.4766 35.5927H18.7598C18.5965 34.0271 18.4969 32.3517 18.4752 30.5859H23.4766V35.5927ZM23.4766 37.0575V42.0639H19.9389C19.5311 40.5979 19.1874 38.9172 18.9352 37.0575H23.4766ZM18.4199 42.0639H14.9752C14.136 40.58 13.447 38.8927 12.9439 37.0575H17.4582C17.6928 38.8466 18.0151 40.5315 18.4199 42.0639ZM20.3917 43.5287H23.4766V48.3536C22.3792 47.8188 21.2798 46.1182 20.3917 43.5287ZM28.0264 43.5287C27.1384 46.1182 26.039 47.8188 24.9415 48.3536V43.5287H28.0264ZM29.9986 42.0639C30.403 40.5312 30.7257 38.8466 30.9599 37.0575H35.4746C34.9715 38.8927 34.2822 40.58 33.4429 42.0639H29.9986ZM31.1304 35.5927C31.2933 33.9828 31.3868 32.3029 31.4078 30.5859H36.4092C36.365 32.3257 36.1651 34.0054 35.829 35.5927H31.1304ZM37.8745 29.121C37.8333 27.4048 37.6479 25.7256 37.3263 24.1146H41.9878C42.5013 25.7019 42.8076 27.3811 42.8751 29.121H37.8745ZM36.9921 22.6498C36.5309 20.8637 35.8958 19.1799 35.1012 17.6434H38.3372C39.6212 19.1269 40.6756 20.8145 41.4454 22.6498H36.9921ZM34.2661 16.1785C34.1689 16.0236 34.0708 15.8703 33.9705 15.7196C33.1431 14.4783 32.2249 13.4167 31.238 12.5458C33.3529 13.4079 35.2755 14.6465 36.9223 16.1785H34.2661ZM20.8121 11.9083C20.1685 12.8334 19.5296 14.1205 18.9387 15.8939C18.9074 15.9878 18.8765 16.0831 18.846 16.1781H15.8999C17.2793 14.2147 18.9551 12.7323 20.8121 11.9083ZM23.4766 11.3533V16.1785H20.3917C21.2798 13.5887 22.3792 11.8881 23.4766 11.3533ZM23.4766 17.6434V22.6498H18.9352C19.1874 20.7901 19.5311 19.1093 19.9389 17.6434H23.4766ZM23.4766 24.1146V29.121H18.4752C18.4969 27.3552 18.5965 25.6802 18.7598 24.1146H23.4766ZM17.0103 29.121H12.0093C12.0531 27.3811 12.2534 25.7019 12.5891 24.1146H17.2881C17.1252 25.7244 17.0313 27.404 17.0103 29.121ZM17.0103 30.5859C17.0313 32.3029 17.1248 33.9828 17.2881 35.5927H12.5891C12.2534 34.0054 12.0531 32.3257 12.0093 30.5859H17.0103ZM11.4264 37.0575C11.8876 38.8435 12.5224 40.5273 13.3173 42.0639H10.0813C8.7973 40.5804 7.74292 38.8927 6.97273 37.0575H11.4264ZM14.1524 43.5287C14.2493 43.6832 14.3473 43.8366 14.448 43.9877C15.2754 45.2286 16.1932 46.2902 17.1805 47.1615C15.0656 46.2994 13.143 45.0607 11.4962 43.5287H14.1524ZM33.9705 43.9877C34.0708 43.837 34.1689 43.6832 34.2657 43.5287H36.9223C35.2755 45.0607 33.3529 46.2994 31.2376 47.1615C32.2249 46.2902 33.1431 45.2286 33.9705 43.9877V43.9877ZM35.1012 42.0639C35.8958 40.5273 36.5305 38.8432 36.9917 37.0575H41.4454C40.6756 38.8927 39.6212 40.58 38.3372 42.0639H35.1012ZM21.7059 7.9361H26.7123V9.86252C25.9154 9.76334 25.1044 9.71069 24.2819 9.70802C24.2575 9.70726 24.2331 9.70688 24.2091 9.70688C24.182 9.70688 24.1549 9.70764 24.127 9.7084C23.3126 9.71146 22.5043 9.76448 21.7062 9.86481V7.9361H21.7059ZM11.4851 16.1785C13.1518 14.6301 15.082 13.4037 17.1729 12.5523C16.1887 13.4224 15.2731 14.4817 14.448 15.7196C14.3473 15.8703 14.2493 16.0236 14.1524 16.1785H11.4851ZM14.9752 17.6434H18.4195C18.0151 19.1757 17.6924 20.8607 17.4582 22.6498H12.9439C13.4467 20.8145 14.136 19.1269 14.9752 17.6434ZM11.0922 24.1146C10.7706 25.7256 10.5853 27.4052 10.5441 29.121H5.54298C5.60822 27.4033 5.90385 25.7282 6.42532 24.1146H11.0922Z" fill="black"/>
<path d="M9.64648 6.3185H10.5319V7.20389C10.5319 7.60863 10.8599 7.93631 11.2643 7.93631C11.669 7.93631 11.9967 7.60863 11.9967 7.20389V6.3185H12.8821C13.2868 6.3185 13.6145 5.99081 13.6145 5.58607C13.6145 5.18172 13.2868 4.85365 12.8821 4.85365H11.9967V3.96826C11.9967 3.56352 11.669 3.23584 11.2643 3.23584C10.8599 3.23584 10.5319 3.56352 10.5319 3.96826V4.85365H9.64648C9.24213 4.85365 8.91406 5.18172 8.91406 5.58607C8.91406 5.99081 9.24213 6.3185 9.64648 6.3185Z" fill="black"/>
<path d="M46.8587 43.6818H45.9733V42.7964C45.9733 42.392 45.6456 42.064 45.2409 42.064C44.8365 42.064 44.5084 42.392 44.5084 42.7964V43.6818H43.623C43.2187 43.6818 42.8906 44.0098 42.8906 44.4142C42.8906 44.8189 43.2187 45.1466 43.623 45.1466H44.5084V46.032C44.5084 46.4368 44.8365 46.7644 45.2409 46.7644C45.6456 46.7644 45.9733 46.4368 45.9733 46.032V45.1466H46.8587C47.2634 45.1466 47.5911 44.8189 47.5911 44.4142C47.5911 44.0098 47.2634 43.6818 46.8587 43.6818V43.6818Z" fill="black"/>
<path d="M4.78773 12.7893C5.19247 12.7893 5.52016 12.4617 5.52016 12.0569V11.1715H6.40555C6.80991 11.1715 7.13797 10.8438 7.13797 10.4391C7.13797 10.0347 6.80991 9.70668 6.40555 9.70668H5.52016V8.82129C5.52016 8.41693 5.19247 8.08887 4.78773 8.08887C4.38338 8.08887 4.05531 8.41693 4.05531 8.82129V9.70668H3.16992C2.76556 9.70668 2.4375 10.0347 2.4375 10.4391C2.4375 10.8438 2.76556 11.1715 3.16992 11.1715H4.05531V12.0569C4.05531 12.4617 4.38338 12.7893 4.78773 12.7893Z" fill="black"/>
</svg>
