<svg width="51" height="51" viewBox="0 0 51 51" fill="none" xmlns="http://www.w3.org/2000/svg">
<g clip-path="url(#clip0_23715_50278)">
<path fill-rule="evenodd" clip-rule="evenodd" d="M25.8255 27.526C23.8337 27.526 22.1348 26.1786 21.6369 24.3333C19.9966 25.2706 17.829 25.0363 16.4231 23.6596C16.3645 23.601 16.3352 23.5717 16.2766 23.4839C14.9878 22.1072 14.812 19.9982 15.6908 18.3872C13.8454 17.8892 12.4688 16.1904 12.4688 14.1986C12.4688 12.2068 13.8161 10.4786 15.6908 9.95134C14.7535 8.31104 14.9878 6.1142 16.3645 4.73751C17.2139 3.85878 18.327 3.41941 19.4986 3.41941C20.2602 3.41941 20.9632 3.62445 21.6076 4.00524C22.1348 2.15989 23.8337 0.8125 25.8255 0.8125C27.8173 0.8125 29.5455 2.15989 30.0727 4.03453C30.7171 3.65374 31.4494 3.47799 32.211 3.47799H32.2403C33.4412 3.47799 34.4957 3.91736 35.2866 4.76681C36.1067 5.58696 36.5461 6.64144 36.5461 7.81309C36.5461 8.57466 36.3703 9.36552 35.9895 10.0099C37.8642 10.4786 39.2116 12.2068 39.2116 14.1986C39.2116 16.1904 37.8642 17.8892 35.9895 18.4165C36.3703 19.0609 36.5461 19.7932 36.5461 20.5547C36.5461 21.6971 36.1653 22.7516 35.3744 23.5424C35.3451 23.5717 35.2866 23.601 35.2866 23.6596C33.8806 25.0656 31.713 25.2706 30.0727 24.3333C29.5455 26.1786 27.8173 27.526 25.8255 27.526ZM22.1934 22.2829C22.252 22.2829 22.3399 22.2829 22.4277 22.3122C22.7207 22.4001 22.8964 22.693 22.8964 23.0152V23.1616C22.8964 24.802 24.2438 26.0908 25.8255 26.0908C27.4658 26.0908 28.7546 24.7434 28.7546 23.1616V23.0152C28.7546 22.7223 28.9597 22.4294 29.2526 22.3122C29.5455 22.2243 29.8677 22.3122 30.0142 22.5465L30.102 22.693C31.2444 23.7475 33.0311 23.7768 34.1735 22.7516C34.2028 22.7223 34.2028 22.693 34.2321 22.6344C34.8179 22.1072 35.1108 21.3749 35.1108 20.5547C35.1108 19.7639 34.7593 19.0609 34.2321 18.5044L34.1149 18.3872C33.9099 18.1822 33.8513 17.86 33.9685 17.5963C34.0856 17.3034 34.32 17.157 34.6129 17.157H34.7593C36.3996 17.157 37.6884 15.8096 37.6884 14.2278C37.6884 12.6168 36.3703 11.2987 34.7593 11.2987H34.6129C34.32 11.2987 34.0856 11.1523 33.9685 10.8594C33.8513 10.5665 33.9099 10.3028 34.1149 10.0978L34.2321 9.95134C34.8179 9.39481 35.1108 8.66253 35.1108 7.84238C35.1108 7.08081 34.7593 6.34853 34.2321 5.792C33.7048 5.17688 32.9726 4.88397 32.211 4.88397C31.3908 4.88397 30.6586 5.20617 30.102 5.73341L29.9849 5.85058C29.7798 6.05562 29.4576 6.1142 29.194 6.02633C28.9304 5.90916 28.7546 5.64554 28.7546 5.38192V5.17688C28.7546 3.53658 27.4072 2.24777 25.8255 2.24777C24.2145 2.24777 22.8964 3.59516 22.8964 5.17688V5.32334C22.8964 5.61625 22.7499 5.85058 22.457 5.99703C22.1934 6.1142 21.9005 6.02633 21.6955 5.82129L21.5783 5.70412C20.9925 5.17688 20.2602 4.88397 19.4986 4.88397C18.6785 4.88397 17.9462 5.20617 17.3897 5.73341C16.2473 6.87577 16.2766 8.77969 17.3897 9.92205L17.5068 10.0392C17.7119 10.2443 17.7997 10.5665 17.6826 10.8301C17.5361 11.0937 17.3018 11.2694 17.0089 11.2694H16.8624C15.2221 11.2694 13.9333 12.6168 13.9333 14.1986C13.9333 15.8096 15.2807 17.1277 16.8624 17.1277H17.0089C17.3018 17.1277 17.5361 17.2741 17.6826 17.567C17.7997 17.86 17.7119 18.1236 17.5068 18.3286L17.3897 18.4458C16.2473 19.5881 16.2473 21.4628 17.3897 22.6051C17.419 22.6344 17.4775 22.693 17.4775 22.7223C18.5906 23.7475 20.4359 23.7475 21.5197 22.6344L21.6076 22.5172C21.7833 22.3415 21.9884 22.2829 22.1934 22.2829Z" fill="black"/>
<path fill-rule="evenodd" clip-rule="evenodd" d="M25.8252 19.3827C22.9839 19.3827 20.6406 17.0687 20.6406 14.1982C20.6406 11.2984 22.9546 8.98438 25.8252 8.98438C28.725 8.98438 31.039 11.357 31.039 14.1982C31.039 17.0394 28.725 19.3827 25.8252 19.3827ZM25.8252 10.4196C23.7748 10.4196 22.0466 12.1185 22.0466 14.1982C22.0466 16.2486 23.7748 17.9768 25.8252 17.9768C27.9048 17.9768 29.6037 16.2486 29.6037 14.1982C29.6037 12.0892 27.9048 10.4196 25.8252 10.4196Z" fill="black"/>
<path fill-rule="evenodd" clip-rule="evenodd" d="M25.8226 50.7836C25.7055 50.7836 25.559 50.7543 25.4125 50.6664C25.0903 50.4613 25.0318 50.022 25.2368 49.6998C31.3294 40.2973 25.2368 27.2628 25.1782 27.1456C25.0318 26.7941 25.1782 26.384 25.5004 26.2083C25.8812 26.0618 26.2913 26.2083 26.4377 26.5305C26.7306 27.1163 32.9404 40.4438 26.4084 50.4613C26.2913 50.6664 26.0862 50.7836 25.8226 50.7836Z" fill="black"/>
<path fill-rule="evenodd" clip-rule="evenodd" d="M31.8629 36.1381C31.6871 36.1381 31.4821 36.1381 31.3356 36.1381C30.9842 36.0795 30.7498 35.8745 30.6619 35.5523C30.1933 33.3262 30.8084 30.9536 32.3023 29.2254C33.8547 27.5265 36.0808 26.5892 38.3362 26.7356C38.6877 26.7942 38.9221 26.9993 39.0099 27.3215C39.4786 29.5476 38.8928 31.9495 37.3696 33.6484C35.9929 35.2008 33.9718 36.1381 31.8629 36.1381ZM37.7504 28.1123C36.1101 28.1709 34.4991 28.9032 33.386 30.1041C32.3023 31.3636 31.8043 33.0332 32.0093 34.6736C33.6496 34.615 35.2607 33.8827 36.3737 32.6818C37.4575 31.4222 37.9554 29.7819 37.7504 28.1123Z" fill="black"/>
<path fill-rule="evenodd" clip-rule="evenodd" d="M28.6687 39.2135C28.6394 39.2135 28.5515 39.2135 28.5222 39.1842C28.1415 39.0963 27.9071 38.6862 27.995 38.3054C28.6101 35.9914 30.9534 34.7905 31.0706 34.7319C31.4514 34.5855 31.8614 34.7026 32.0665 35.0834C32.2129 35.4349 32.0958 35.845 31.715 36.05C31.6857 36.05 29.8111 37.0459 29.3717 38.7155C29.2838 39.0084 28.9616 39.2135 28.6687 39.2135Z" fill="black"/>
<path fill-rule="evenodd" clip-rule="evenodd" d="M25.0333 41.4977C22.9536 41.4977 20.9325 40.5897 19.5851 39.008C18.062 37.3384 17.4762 34.9365 17.9155 32.7104C18.0034 32.3882 18.2377 32.1831 18.5599 32.1538C20.8739 31.9488 23.1587 32.8861 24.6232 34.6143C26.1171 36.2839 26.7322 38.6858 26.2928 40.9119C26.2049 41.2341 25.9413 41.4391 25.6191 41.4977C25.4141 41.4391 25.2383 41.4977 25.0333 41.4977ZM19.2044 33.4719C18.9993 35.1415 19.5266 36.8111 20.6396 38.0414C21.7234 39.3302 23.2758 40.0332 24.9747 40.0332C25.1797 38.3636 24.6525 36.694 23.5687 35.4637C22.4264 34.2042 20.8739 33.4719 19.2044 33.4719Z" fill="black"/>
<path fill-rule="evenodd" clip-rule="evenodd" d="M28.2828 44.5735C27.9313 44.5735 27.6677 44.3684 27.5798 44.0462C27.1404 42.3766 25.2365 41.3515 25.2365 41.3515C24.8557 41.205 24.7385 40.7656 24.9436 40.3848C25.09 40.0334 25.5587 39.9162 25.9102 40.0626C25.9981 40.1212 28.3414 41.3515 29.0151 43.6362C29.1322 44.0169 28.8686 44.427 28.5171 44.5442C28.3999 44.5735 28.3414 44.5735 28.2828 44.5735Z" fill="black"/>
</g>
<defs>
<clipPath id="clip0_23715_50278">
<rect width="50" height="50" fill="white" transform="translate(0.84375 0.8125)"/>
</clipPath>
</defs>
</svg>
