<svg width="50" height="50" viewBox="0 0 50 50" fill="none" xmlns="http://www.w3.org/2000/svg">
<g clip-path="url(#clip0_23715_49088)">
<path d="M49.9998 15.452C49.9998 14.9126 49.5626 14.4754 49.0232 14.4754H33.2877L32.4502 4.66961C32.2153 1.92021 30.6387 0 28.6165 0H21.3833C19.3609 0 17.7844 1.92021 17.5496 4.66961L16.712 14.4754H0.976559C0.437205 14.4754 0 14.9126 0 15.452C0 25.3312 7.21794 33.5656 16.6873 35.2209C16.0127 36.0122 15.5573 37.0431 15.4244 38.2141L14.2104 48.9134C14.179 49.1898 14.267 49.4664 14.4523 49.6739C14.6375 49.8814 14.9025 50 15.1807 50H34.8191C34.8197 50 34.8205 50 34.8211 50C35.3604 50 35.7977 49.5628 35.7977 49.0234C35.7977 48.9642 35.7923 48.9062 35.7823 48.8498L34.5755 38.2141C34.4426 37.0431 33.9872 36.0121 33.3126 35.2209C42.7819 33.5655 49.9998 25.3312 49.9998 15.452ZM19.4957 4.83582C19.6361 3.19237 20.4475 1.95312 21.3833 1.95312H28.6165C29.5522 1.95312 30.3637 3.19247 30.5041 4.83592L31.3274 14.4754H18.6723L19.4957 4.83582ZM33.7254 48.0468H16.2743L17.365 38.4342C17.524 37.0329 18.4775 35.5246 20.1949 35.5246H20.195H29.8045H29.8046C31.5221 35.5246 32.4758 37.0329 32.6346 38.4342L33.7254 48.0468ZM29.8045 33.5715H20.1952C10.4662 33.5715 2.49159 25.9676 1.97929 16.4286H17.6087H32.3909H32.3928H48.0204C47.5082 25.9676 39.5335 33.5715 29.8045 33.5715Z" fill="black"/>
<path d="M9.41346 18.1714H5.40625C4.86689 18.1714 4.42969 18.6086 4.42969 19.1479C4.42969 19.6873 4.86689 20.1245 5.40625 20.1245H9.41346C9.95281 20.1245 10.39 19.6873 10.39 19.1479C10.39 18.6086 9.95281 18.1714 9.41346 18.1714Z" fill="black"/>
<path d="M12.2468 18.1714H12.2187C11.6794 18.1714 11.2422 18.6086 11.2422 19.1479C11.2422 19.6873 11.6794 20.1245 12.2187 20.1245H12.2468C12.7861 20.1245 13.2233 19.6873 13.2233 19.1479C13.2233 18.6086 12.7861 18.1714 12.2468 18.1714Z" fill="black"/>
<path d="M13.294 7.48535C13.0638 6.8707 12.8976 6.42676 13.0945 5.56241C13.2144 5.03653 12.8852 4.51309 12.3594 4.39327C11.8338 4.27345 11.3101 4.60264 11.1902 5.12842C10.8633 6.56338 11.1968 7.45429 11.4649 8.17011C11.7452 8.91903 11.9305 9.41376 11.3828 10.7004C11.1716 11.1966 11.4027 11.7701 11.8989 11.9813C12.0237 12.0345 12.1533 12.0595 12.281 12.0595C12.6608 12.0595 13.0219 11.8367 13.18 11.4652C14.0334 9.46015 13.6233 8.36513 13.294 7.48535Z" fill="black"/>
<path d="M6.87208 7.48535C6.642 6.8707 6.47569 6.42676 6.67266 5.56241C6.79249 5.03653 6.46329 4.51309 5.93751 4.39327C5.41202 4.27345 4.8882 4.60264 4.76837 5.12842C4.44142 6.56338 4.77492 7.45429 5.04298 8.17011C5.32335 8.91903 5.50851 9.41376 4.96095 10.7004C4.74972 11.1966 4.98078 11.7701 5.47706 11.9813C5.60187 12.0345 5.73146 12.0595 5.85909 12.0595C6.23888 12.0595 6.60001 11.8367 6.75811 11.4652C7.61153 9.46015 7.20157 8.36513 6.87208 7.48535Z" fill="black"/>
<path d="M44.9737 7.48538C44.7435 6.87073 44.5773 6.42679 44.7743 5.56244C44.8942 5.03656 44.5649 4.51312 44.0391 4.3933C43.5127 4.27338 42.9898 4.60267 42.87 5.12845C42.5429 6.56341 42.8765 7.45432 43.1446 8.17014C43.425 8.91897 43.6101 9.41369 43.0626 10.7004C42.8513 11.1966 43.0824 11.7701 43.5787 11.9814C43.7034 12.0345 43.8331 12.0596 43.9606 12.0596C44.3404 12.0596 44.7015 11.8367 44.8596 11.4652C45.713 9.46018 45.3031 8.36526 44.9737 7.48538Z" fill="black"/>
<path d="M38.5518 7.48538C38.3217 6.87073 38.1554 6.42679 38.3524 5.56244C38.4723 5.03656 38.143 4.51312 37.6172 4.3933C37.0907 4.27338 36.5679 4.60267 36.4481 5.12845C36.1211 6.56341 36.4546 7.45432 36.7227 8.17014C37.0031 8.91897 37.1882 9.41369 36.6407 10.7004C36.4295 11.1966 36.6605 11.7701 37.1568 11.9814C37.2815 12.0345 37.4112 12.0596 37.5387 12.0596C37.9185 12.0596 38.2796 11.8367 38.4377 11.4652C39.2912 9.46018 38.8812 8.36526 38.5518 7.48538Z" fill="black"/>
</g>
<defs>
<clipPath id="clip0_23715_49088">
<rect width="50" height="50" fill="white"/>
</clipPath>
</defs>
</svg>
