<svg width="50" height="50" viewBox="0 0 50 50" fill="none" xmlns="http://www.w3.org/2000/svg">
<g clip-path="url(#clip0_23715_49110)">
<path d="M37.1665 2.23628L25.5736 13.8867L13.6874 25.7153C11.4484 27.9618 10.8649 31.3741 12.2304 34.2369C7.73981 38.7272 5.22211 41.2447 0.731514 45.7349C-0.243996 46.7107 -0.243824 48.2925 0.731945 49.268C1.70771 50.2435 3.28948 50.2433 4.26508 49.2676L15.7598 37.772C18.6218 39.1432 22.0376 38.5592 24.2814 36.315L47.7605 12.8359C49.6797 10.9487 50.4393 8.17715 49.7504 5.57519C49.0615 2.97323 47.0301 0.940592 44.4284 0.250305C41.8268 -0.439982 39.0547 0.318059 37.1665 2.23628ZM3.08777 48.0895C2.88261 48.3199 2.56683 48.4181 2.26714 48.3444C1.96745 48.2707 1.73311 48.0374 1.65821 47.738C1.58331 47.4387 1.68008 47.1225 1.90969 46.9163L13.1305 35.6921C13.4761 36.1288 13.8712 36.5238 14.3078 36.8694L3.08777 48.0895ZM46.5863 11.6562L45.7122 12.5304L39.7017 10.891C39.258 10.7701 38.8003 11.0318 38.6793 11.4755C38.5583 11.9192 38.8201 12.377 39.2638 12.4979L44.3559 13.8867L41.0022 17.2403L34.9909 15.6018C34.7008 15.5138 34.3858 15.5905 34.1685 15.8019C33.9512 16.0133 33.8661 16.3262 33.9462 16.6187C34.0264 16.911 34.2591 17.1368 34.5539 17.208L39.6459 18.5967L36.2923 21.9503L30.2844 20.3093C29.8443 20.1973 29.3956 20.4587 29.2759 20.8968C29.1562 21.335 29.4097 21.7881 29.8456 21.9155L34.9376 23.3051L31.584 26.6587L25.5736 25.0194C25.1299 24.8987 24.6723 25.1606 24.5516 25.6043C24.4309 26.048 24.6928 26.5056 25.1365 26.6263L30.2261 28.0167L26.8724 31.3712L20.8628 29.7318C20.4191 29.6108 19.9613 29.8726 19.8404 30.3163C19.7194 30.76 19.9811 31.2177 20.4248 31.3387L25.5162 32.7275L23.1016 35.142C20.8255 37.4181 17.1351 37.4181 14.859 35.142C12.5829 32.8659 12.5829 29.1755 14.859 26.8994L38.338 3.4203C39.8105 1.94787 41.9565 1.37286 43.9679 1.9118C45.9792 2.45073 47.5502 4.02174 48.0892 6.03311C48.6281 8.04449 48.0531 10.1905 46.5807 11.6629L46.5863 11.6562Z" fill="black"/>
<path fill-rule="evenodd" clip-rule="evenodd" d="M42.4619 3.37257C41.3574 3.36982 40.2975 3.80837 39.5179 4.59069C39.3073 4.80101 39.2249 5.10767 39.3017 5.39522C39.3785 5.68277 39.6029 5.90747 39.8903 5.98469C40.1777 6.06192 40.4845 5.97996 40.6951 5.76964C41.6836 4.82529 43.24 4.82529 44.2286 5.76964C44.5553 6.08516 45.0745 6.08069 45.3957 5.75948C45.7168 5.43835 45.7214 4.91905 45.4059 4.59233C44.6268 3.80897 43.5668 3.36973 42.4619 3.37257V3.37257Z" fill="black"/>
</g>
<defs>
<clipPath id="clip0_23715_49110">
<rect width="50" height="50" fill="white"/>
</clipPath>
</defs>
</svg>
