<svg width="50" height="50" viewBox="0 0 50 50" fill="none" xmlns="http://www.w3.org/2000/svg">
<g clip-path="url(#clip0_23715_50493)">
<path d="M20.8873 45.949C20.8873 46.3806 20.5377 46.7302 20.1061 46.7302H14.2574C11.0914 46.7302 8.51523 44.157 8.51523 40.9949V37.3191L6.56797 39.2634C6.41562 39.4158 6.21543 39.4919 6.01621 39.4919C5.81601 39.4919 5.61582 39.4158 5.46348 39.2625C5.15879 38.9568 5.15879 38.4626 5.46445 38.158L8.74473 34.8816C9.04941 34.5769 9.54355 34.5769 9.84824 34.8816L13.1314 38.158C13.4371 38.4626 13.4371 38.9578 13.1324 39.2625C12.8277 39.5681 12.3326 39.5681 12.0279 39.2634L10.0777 37.3171V40.9939C10.0777 43.2947 11.9527 45.1667 14.2574 45.1667H20.1061C20.5377 45.1677 20.8873 45.5173 20.8873 45.949ZM29.8971 4.83179H35.7437C38.0484 4.83179 39.9234 6.70386 39.9234 9.00464V12.6785L37.9762 10.7322C37.6715 10.4275 37.1764 10.4275 36.8717 10.7322C36.567 11.0369 36.567 11.532 36.8717 11.8367L40.152 15.116C40.3043 15.2683 40.5045 15.3445 40.7047 15.3445C40.9049 15.3445 41.1041 15.2683 41.2574 15.116L44.5377 11.8367C44.8424 11.532 44.8434 11.0369 44.5377 10.7322C44.233 10.4265 43.7379 10.4265 43.4332 10.7322L41.4869 12.6785V9.00464C41.4869 5.84155 38.9107 3.26929 35.7447 3.26929H29.898C29.4664 3.26929 29.1168 3.6189 29.1168 4.05054C29.1168 4.48218 29.4664 4.83179 29.8971 4.83179ZM49.8502 32.866L47.8678 35.5779C47.7145 35.7869 47.4771 35.8982 47.2359 35.8982C47.0768 35.8982 46.9156 35.8494 46.776 35.7478L46.1793 35.3132V45.949C46.1793 46.3806 45.8297 46.7302 45.398 46.7302H28.4937C28.0621 46.7302 27.7125 46.3806 27.7125 45.949V35.3132L27.1158 35.7478C26.7672 36.0017 26.2799 35.9255 26.025 35.5779L24.0406 32.866C23.9186 32.699 23.8668 32.489 23.899 32.2839C23.9312 32.0789 24.0426 31.8953 24.2105 31.7732L36.485 22.824C36.7594 22.6238 37.1314 22.6238 37.4059 22.824L49.6803 31.7732C49.8482 31.8953 49.9596 32.0789 49.9918 32.2839C50.024 32.489 49.9723 32.698 49.8502 32.866ZM39.0953 45.1677V37.6843H34.7975V45.1677H39.0953ZM44.6178 34.1746L36.9449 28.5808L29.275 34.1746V45.1687H33.235V36.9041C33.235 36.4724 33.5846 36.1228 34.0162 36.1228H39.8766C40.3082 36.1228 40.6578 36.4724 40.6578 36.9041V45.1687H44.6178V34.1746ZM48.1275 32.575L36.9459 24.4216L25.7643 32.574L26.8268 34.0251L36.4859 26.9812C36.7603 26.781 37.1324 26.781 37.4068 26.9812L47.068 34.0251L48.1275 32.575ZM23.3473 16.4929C23.1881 16.4929 23.027 16.4441 22.8873 16.3425L22.2906 15.908V26.5437C22.2906 26.9753 21.941 27.325 21.5094 27.325H4.60508C4.17344 27.325 3.82383 26.9753 3.82383 26.5437V15.908L3.22715 16.3425C2.87851 16.5964 2.39121 16.5203 2.13633 16.1726L0.150975 13.4607C0.0289046 13.2937 -0.0228532 13.0837 0.0093734 12.8787C0.0416 12.6736 0.152928 12.49 0.320897 12.3679L12.5953 3.4187C12.8697 3.21851 13.2418 3.21851 13.5162 3.4187L25.7906 12.3679C25.9586 12.49 26.0699 12.6736 26.1021 12.8787C26.1344 13.0837 26.0836 13.2927 25.9605 13.4597L23.9781 16.1716C23.8258 16.3826 23.5885 16.4929 23.3473 16.4929ZM15.2037 25.7625V18.2791H10.9088V25.7625H15.2037ZM20.7291 14.7693L13.0562 9.17554L5.38633 14.7693V25.7634H9.34629V17.4988C9.34629 17.0671 9.6959 16.7175 10.1275 16.7175H15.985C16.4166 16.7175 16.7662 17.0671 16.7662 17.4988V25.7634H20.7291V14.7693ZM24.2379 13.1707L13.0562 5.01733L1.87461 13.1697L2.93711 14.6209L12.5963 7.5769C12.8707 7.37671 13.2428 7.37671 13.5172 7.5769L23.1783 14.6209L24.2379 13.1707Z" fill="black"/>
</g>
<defs>
<clipPath id="clip0_23715_50493">
<rect width="50" height="50" fill="white"/>
</clipPath>
</defs>
</svg>
