<svg width="65" height="65" viewBox="0 0 65 65" fill="none" xmlns="http://www.w3.org/2000/svg">
<path d="M26.5921 49.1605H24.175V47.7547C24.175 47.3094 23.8139 46.9482 23.3686 46.9482C22.9233 46.9482 22.5621 47.3094 22.5621 47.7547V49.1605H20.1424C19.6971 49.1605 19.3359 49.5216 19.3359 49.9669V53.3999C19.3359 53.8452 19.6971 54.2063 20.1424 54.2063H26.5921C27.0374 54.2063 27.3985 53.8452 27.3985 53.3999V49.9669C27.3985 49.5215 27.0375 49.1605 26.5921 49.1605ZM25.7856 52.5934H20.9488V50.7734H25.7856V52.5934V52.5934Z" fill="black"/>
<path d="M32.8463 17.4003C34.1804 17.4003 35.2661 16.0851 35.2661 14.4683C35.2661 12.8531 34.1804 11.5391 32.8463 11.5391C31.5138 11.5391 30.4297 12.8531 30.4297 14.4683C30.4298 16.0851 31.5138 17.4003 32.8463 17.4003ZM32.8463 13.1519C33.2271 13.1519 33.6532 13.7149 33.6532 14.4683C33.6532 15.2231 33.2271 15.7874 32.8463 15.7874C32.4671 15.7874 32.0426 15.2231 32.0426 14.4683C32.0427 13.7149 32.4671 13.1519 32.8463 13.1519Z" fill="black"/>
<path d="M39.0285 38.2561H38.4067V35.6128C40.6956 34.0552 42.3248 31.4346 42.3248 27.792V24.9278C43.1249 24.0541 43.5821 23.0587 43.5821 22.0015V19.5196L46.6339 14.7458C46.7611 14.5469 46.7945 14.302 46.7257 14.0759C46.6568 13.8503 46.4921 13.6656 46.2756 13.5715L33.1664 7.87907C32.9616 7.79004 32.7285 7.79044 32.5237 7.87948L19.4177 13.5719C19.2011 13.666 19.0365 13.8503 18.9676 14.0763C18.8988 14.3024 18.9326 14.5469 19.0598 14.7462L22.1139 19.5195V22.0015C22.1139 23.057 22.5703 24.0509 23.3685 24.9236V27.792C23.3685 30.7162 24.399 33.1807 26.3482 34.9189C26.6426 35.1815 26.9599 35.4161 27.2866 35.6375V38.2561H26.6648C20.5353 38.2561 14.9531 43.3547 14.9531 48.9533V57.0061C14.9531 57.4514 15.3143 57.8125 15.7596 57.8125H49.9337C50.379 57.8125 50.7402 57.4514 50.7402 57.0061V48.9533C50.7402 43.3547 45.158 38.2561 39.0285 38.2561ZM39.0285 39.869C39.2976 39.869 39.5643 39.8876 39.8304 39.9095L37.7345 45.822L34.1367 43.3916L37.9176 39.869H39.0285ZM31.7452 50.3631H33.9065L35.6049 56.1996H30.0492L31.7452 50.3631ZM33.9038 48.7502H31.7474L30.896 45.7834L32.8454 44.4657L34.7618 45.7603L33.9038 48.7502ZM41.9692 21.1949H23.7268V20.09H41.9692V21.1949ZM23.8917 22.8079H41.8045C41.0312 24.7505 37.5702 26.6334 32.8509 26.6334C28.1286 26.6334 24.6654 24.7506 23.8917 22.8079ZM32.845 9.49827L44.765 14.6741L42.3339 18.4771H23.3618L20.9287 14.6741L32.845 9.49827ZM24.9814 27.7919V26.2355C26.9441 27.4687 29.7409 28.2463 32.851 28.2463C35.9571 28.2463 38.7506 27.4698 40.712 26.2383V27.792C40.712 33.2154 36.6348 35.6856 32.8467 35.6856C29.0587 35.6856 24.9814 33.2153 24.9814 27.7919ZM32.8466 37.2984C34.1967 37.2984 35.5479 37.0211 36.7938 36.4913V38.7118L32.8453 42.3903L28.8995 38.7119V36.5094C30.1141 37.0202 31.4521 37.2984 32.8466 37.2984ZM27.7756 39.869L31.5542 43.3917L27.9587 45.8217L25.8629 39.9095C26.1289 39.8876 26.3956 39.869 26.6647 39.869H27.7756ZM16.566 48.9533C16.566 44.9398 19.9996 41.2397 24.248 40.1805L26.7868 47.3428C26.8699 47.5782 27.0577 47.7613 27.2948 47.8393C27.3771 47.8665 27.4621 47.8798 27.5468 47.8798C27.7059 47.8798 27.8634 47.8326 27.9985 47.7416L29.4903 46.7334L30.3001 49.555L28.3695 56.1996H16.566V48.9533ZM49.1273 56.1996H37.2843L35.3511 49.555L36.1677 46.7098L37.6953 47.7417C37.8299 47.8331 37.9874 47.8799 38.1466 47.8799C38.2312 47.8799 38.3162 47.8665 38.3986 47.8394C38.6356 47.7614 38.8235 47.5783 38.9066 47.3428L41.4453 40.1806C45.6938 41.2398 49.1274 44.9399 49.1274 48.9534L49.1273 56.1996Z" fill="black"/>
</svg>
