<svg width="50" height="50" viewBox="0 0 50 50" fill="none" xmlns="http://www.w3.org/2000/svg">
<path d="M33.4831 22.5941C33.0048 22.5941 32.5239 22.5526 32.0443 22.4678C31.6864 22.404 31.4482 22.0625 31.5114 21.7053C31.5752 21.3474 31.9087 21.1086 32.2739 21.1717C34.4962 21.5671 36.7837 20.8487 38.3817 19.2513C41.0804 16.5526 41.0804 12.1619 38.3817 9.46317C35.6831 6.76448 31.2916 6.76448 28.5929 9.46317C26.989 11.0671 26.2732 13.3592 26.6771 15.5941C26.7416 15.9513 26.5041 16.2934 26.1462 16.3586C25.789 16.4263 25.4469 16.1855 25.3818 15.8283C24.9008 13.1691 25.7535 10.4415 27.662 8.5329C30.8732 5.32106 36.1002 5.32106 39.3114 8.5329C42.5232 11.7447 42.5232 16.9704 39.3114 20.1822C37.7554 21.7388 35.6508 22.5941 33.4831 22.5941V22.5941Z" fill="black"/>
<path d="M14.257 38.0896C14.0886 38.0896 13.9195 38.0245 13.7919 37.8969L9.95046 34.0547C9.70572 33.81 9.69256 33.4179 9.92019 33.1574L25.4768 15.3245C25.5965 15.187 25.7682 15.1054 25.9498 15.0995C26.1301 15.087 26.3084 15.1626 26.4373 15.2916L32.5557 21.41C32.6847 21.539 32.7544 21.7153 32.7478 21.8975C32.7419 22.0797 32.6603 22.2508 32.5228 22.3705L14.6893 37.9271C14.5649 38.035 14.4103 38.0896 14.257 38.0896V38.0896ZM11.3149 33.5587L14.2873 36.5317L31.1268 21.8423L26.0044 16.7199L11.3149 33.5587Z" fill="black"/>
<path d="M35.6673 18.5224C35.4988 18.5224 35.3304 18.458 35.2021 18.3297L27.3179 10.4455C27.0607 10.1882 27.0607 9.77243 27.3179 9.51519C27.5752 9.25796 27.991 9.25796 28.2482 9.51519L36.1324 17.3994C36.3896 17.6566 36.3896 18.0724 36.1324 18.3297C36.0041 18.4586 35.8357 18.5224 35.6673 18.5224V18.5224Z" fill="black"/>
<path d="M17.9243 34.4763C17.7559 34.4763 17.5875 34.4118 17.4592 34.2835L13.5836 30.4079C13.3263 30.1506 13.3263 29.7348 13.5836 29.4776C13.8408 29.2204 14.2566 29.2204 14.5138 29.4776L18.3895 33.3533C18.6467 33.6105 18.6467 34.0263 18.3895 34.2835C18.2605 34.4125 18.0928 34.4763 17.9243 34.4763Z" fill="black"/>
<path d="M23.7752 24.7289C23.6068 24.7289 23.4384 24.6644 23.3101 24.5361C23.0529 24.2789 23.0529 23.8631 23.3101 23.6058L25.2943 21.6216C25.5516 21.3644 25.9674 21.3644 26.2246 21.6216C26.4818 21.8789 26.4818 22.2947 26.2246 22.5519L24.2404 24.5361C24.1121 24.6651 23.9437 24.7289 23.7752 24.7289Z" fill="black"/>
<path d="M12.5165 44.7861C11.4317 44.7861 10.3468 44.3729 9.52048 43.5473C7.8685 41.8947 7.86785 39.2065 9.52048 37.5545L11.6797 35.396C11.9369 35.1387 12.3527 35.1387 12.61 35.396C12.8672 35.6532 12.8672 36.069 12.61 36.3262L10.4507 38.4848C9.31192 39.6236 9.31192 41.4782 10.4507 42.617C11.5902 43.7558 13.4442 43.7552 14.583 42.617L26.7422 30.4571C28.383 28.8177 31.0527 28.8164 32.6922 30.4571C33.4869 31.2519 33.9251 32.3085 33.9251 33.4322C33.9251 34.5558 33.4869 35.6124 32.6922 36.4065L24.6343 44.465C24.3771 44.7223 23.9613 44.7223 23.704 44.465C23.4468 44.2078 23.4468 43.792 23.704 43.5348L31.7619 35.4769C32.308 34.9308 32.6093 34.2045 32.6093 33.4328C32.6093 32.6611 32.308 31.9341 31.7619 31.3881C30.6349 30.2611 28.8007 30.2618 27.6725 31.3881L15.5132 43.5473C14.6869 44.3729 13.6021 44.7861 12.5165 44.7861V44.7861Z" fill="black"/>
<path d="M12.5655 15.5676C11.3708 15.5676 10.3984 14.5952 10.3984 13.4005C10.3984 12.2058 11.3708 11.2334 12.5655 11.2334C13.7603 11.2334 14.7326 12.2058 14.7326 13.4005C14.7326 14.5952 13.7609 15.5676 12.5655 15.5676ZM12.5655 12.5492C12.0965 12.5492 11.7142 12.9314 11.7142 13.4005C11.7142 13.8696 12.0965 14.2518 12.5655 14.2518C13.0346 14.2518 13.4169 13.8696 13.4169 13.4005C13.4169 12.9314 13.0353 12.5492 12.5655 12.5492Z" fill="black"/>
<path d="M18.7843 15.5676C17.5896 15.5676 16.6172 14.5952 16.6172 13.4005C16.6172 12.2058 17.5896 11.2334 18.7843 11.2334C19.979 11.2334 20.9514 12.2058 20.9514 13.4005C20.9514 14.5952 19.979 15.5676 18.7843 15.5676ZM18.7843 12.5492C18.3152 12.5492 17.933 12.9314 17.933 13.4005C17.933 13.8696 18.3152 14.2518 18.7843 14.2518C19.2534 14.2518 19.6356 13.8696 19.6356 13.4005C19.6356 12.9314 19.2534 12.5492 18.7843 12.5492Z" fill="black"/>
<path d="M20.291 14.0585C19.9279 14.0585 19.6331 13.7638 19.6331 13.4007V6.5717L14.7299 6.99473V13.4C14.7299 13.7632 14.4351 14.0579 14.072 14.0579C13.7088 14.0579 13.4141 13.7632 13.4141 13.4V6.54013C13.4141 6.11184 13.7364 5.76052 14.1634 5.72302L20.0581 5.21447C20.2851 5.19473 20.5134 5.2717 20.6825 5.42631C20.8516 5.58157 20.9489 5.80197 20.9489 6.03157V13.4C20.9489 13.7638 20.6542 14.0585 20.291 14.0585V14.0585Z" fill="black"/>
</svg>
