<svg width="52" height="37" viewBox="0 0 52 37" fill="none" xmlns="http://www.w3.org/2000/svg">
<path d="M13.9766 22.4268V25.2709" stroke="black" stroke-width="1.50905" stroke-miterlimit="10" stroke-linecap="round" stroke-linejoin="round"/>
<path d="M3.67969 27.6277V22.4268" stroke="black" stroke-width="1.50905" stroke-miterlimit="10" stroke-linecap="round" stroke-linejoin="round"/>
<path d="M7.38281 4.99219V12.155" stroke="black" stroke-width="1.50905" stroke-miterlimit="10" stroke-linecap="round" stroke-linejoin="round"/>
<path d="M7.28149 19.2109H2.54457C1.69155 19.2109 1 19.9025 1 20.7555C1 21.6085 1.69155 22.3001 2.54457 22.3001H7.16529" stroke="black" stroke-width="1.50905" stroke-miterlimit="10" stroke-linecap="round" stroke-linejoin="round"/>
<path d="M10.4719 18.3236V12.2721C10.4719 11.4191 9.7804 10.7275 8.92738 10.7275C8.07436 10.7275 7.38281 11.4191 7.38281 12.2721V22.2993H16.2634C17.1164 22.2993 17.808 21.6077 17.808 20.7547C17.808 19.9017 17.1164 19.2101 16.2634 19.2101H11.3585C10.8689 19.2101 10.4719 18.8133 10.4719 18.3236Z" stroke="black" stroke-width="1.50905" stroke-miterlimit="10" stroke-linecap="round" stroke-linejoin="round"/>
<path d="M28.75 22.4268V27.6568" stroke="black" stroke-width="1.50905" stroke-miterlimit="10" stroke-linecap="round" stroke-linejoin="round"/>
<path d="M23 27.6937V22.4268" stroke="black" stroke-width="1.50905" stroke-miterlimit="10" stroke-linecap="round" stroke-linejoin="round"/>
<path d="M39.2734 4.89453L44.1587 19.1916" stroke="black" stroke-width="1.50905" stroke-miterlimit="10" stroke-linecap="round" stroke-linejoin="round"/>
<path d="M39.7744 21.357L35.1484 18.6543" stroke="black" stroke-width="1.50905" stroke-miterlimit="10" stroke-linecap="round" stroke-linejoin="round"/>
<path d="M35.98 17.2275L34.3125 20.0818" stroke="black" stroke-width="1.50905" stroke-miterlimit="10" stroke-linecap="round" stroke-linejoin="round"/>
<path d="M38.6328 24.9578L40.3012 20.1377C40.471 19.6458 40.8866 19.3232 41.3487 19.3232H45.0646C46.9319 19.3232 48.4461 21.0563 48.4461 23.1938V27.6906" stroke="black" stroke-width="1.50905" stroke-miterlimit="10" stroke-linecap="round" stroke-linejoin="round"/>
<path d="M45.2656 27.7822H48.9678C50.0896 27.7822 50.9988 28.6916 50.9988 29.8132C50.9988 30.9349 50.0895 31.8442 48.9678 31.8442H45.3161" stroke="black" stroke-width="1.50905" stroke-miterlimit="10" stroke-linecap="round" stroke-linejoin="round"/>
<path d="M16.2656 27.7822H35.7787" stroke="black" stroke-width="1.50905" stroke-miterlimit="10" stroke-linecap="round" stroke-linejoin="round"/>
<path d="M6.68592 31.8442H3.03099C1.90926 31.8442 1 30.9348 1 29.8132C1 28.6915 1.90936 27.7822 3.03099 27.7822H6.70654" stroke="black" stroke-width="1.50905" stroke-miterlimit="10" stroke-linecap="round" stroke-linejoin="round"/>
<path d="M18.8625 31.8447H16.2344" stroke="black" stroke-width="1.50905" stroke-miterlimit="10" stroke-linecap="round" stroke-linejoin="round"/>
<path d="M35.7624 31.8447H22.1562" stroke="black" stroke-width="1.50905" stroke-miterlimit="10" stroke-linecap="round" stroke-linejoin="round"/>
<path d="M41.2989 24.819C41.0501 24.7812 40.7952 24.7617 40.5359 24.7617C37.746 24.7617 35.4844 27.0234 35.4844 29.8132C35.4844 32.6031 37.7459 34.8647 40.5359 34.8647C43.3258 34.8647 45.5874 32.6032 45.5874 29.8132C45.5874 28.5253 45.1054 27.35 44.312 26.4578" stroke="black" stroke-width="1.50905" stroke-miterlimit="10" stroke-linecap="round" stroke-linejoin="round"/>
<path d="M40.9968 31.7818C42.0859 31.5247 42.7602 30.4334 42.5031 29.3443C42.2459 28.2553 41.1546 27.581 40.0656 27.8381C38.9766 28.0952 38.3022 29.1865 38.5594 30.2756C38.8165 31.3646 39.9078 32.039 40.9968 31.7818Z" stroke="black" stroke-width="1.50905" stroke-miterlimit="10" stroke-linecap="round" stroke-linejoin="round"/>
<path d="M15.0361 33.3844C17.0088 31.4117 17.0088 28.2133 15.0361 26.2406C13.0634 24.2679 9.86495 24.2679 7.89223 26.2406C5.91952 28.2133 5.91952 31.4117 7.89223 33.3844C9.86495 35.3571 13.0634 35.3571 15.0361 33.3844Z" stroke="black" stroke-width="1.50905" stroke-miterlimit="10" stroke-linecap="round" stroke-linejoin="round"/>
<path d="M12.8996 31.2452C13.6909 30.4539 13.6909 29.1711 12.8996 28.3798C12.1084 27.5886 10.8255 27.5885 10.0343 28.3798C9.243 29.1711 9.243 30.4539 10.0343 31.2452C10.8255 32.0365 12.1084 32.0365 12.8996 31.2452Z" stroke="black" stroke-width="1.50905" stroke-miterlimit="10" stroke-linecap="round" stroke-linejoin="round"/>
<path d="M34.1 1H46.0198C47.0785 1 47.9366 1.85825 47.9366 2.9168C47.9366 3.97545 47.0784 4.8337 46.0198 4.8337H5.7294C4.67075 4.8337 3.8125 3.97545 3.8125 2.9168C3.8125 1.85815 4.67065 1 5.7294 1H30.8116" stroke="black" stroke-width="1.50905" stroke-miterlimit="10" stroke-linecap="round" stroke-linejoin="round"/>
<path d="M23.7454 18.3236V12.2721C23.7454 11.4191 23.0538 10.7275 22.2008 10.7275C21.3478 10.7275 20.6562 11.4191 20.6562 12.2721V20.8124C20.6562 21.6336 21.3218 22.2993 22.143 22.2993H29.5367C30.3898 22.2993 31.0813 21.6077 31.0813 20.7547C31.0813 19.9017 30.3898 19.2101 29.5367 19.2101H24.632C24.1424 19.2101 23.7454 18.8133 23.7454 18.3236Z" stroke="black" stroke-width="1.50905" stroke-miterlimit="10" stroke-linecap="round" stroke-linejoin="round"/>
</svg>
