<svg width="65" height="65" viewBox="0 0 65 65" fill="none" xmlns="http://www.w3.org/2000/svg">
<path d="M62.8438 47.8125H58.8438C58.5785 47.8125 58.3242 47.9179 58.1366 48.1054C57.9491 48.2929 57.8438 48.5473 57.8438 48.8125V57.8125H48.8438C48.5785 57.8125 48.3242 57.9179 48.1366 58.1054C47.9491 58.2929 47.8438 58.5473 47.8438 58.8125V62.8125C47.8438 63.0777 47.9491 63.3321 48.1366 63.5196C48.3242 63.7071 48.5785 63.8125 48.8438 63.8125H58.8438C60.1693 63.8109 61.4402 63.2836 62.3775 62.3463C63.3149 61.4089 63.8422 60.1381 63.8438 58.8125V48.8125C63.8438 48.5473 63.7384 48.2929 63.5509 48.1054C63.3633 47.9179 63.109 47.8125 62.8438 47.8125ZM61.8438 58.8125C61.8438 59.6081 61.5277 60.3712 60.9651 60.9338C60.4025 61.4964 59.6394 61.8125 58.8438 61.8125H49.8438V59.8125H58.8438C59.109 59.8125 59.3633 59.7071 59.5509 59.5196C59.7384 59.3321 59.8438 59.0777 59.8438 58.8125V49.8125H61.8438V58.8125Z" fill="#303035"/>
<path d="M58.8438 1.8125H48.8438C48.5785 1.8125 48.3242 1.91786 48.1366 2.10539C47.9491 2.29293 47.8438 2.54728 47.8438 2.8125V6.8125C47.8438 7.07772 47.9491 7.33207 48.1366 7.51961C48.3242 7.70714 48.5785 7.8125 48.8438 7.8125H57.8438V16.8125C57.8438 17.0777 57.9491 17.3321 58.1366 17.5196C58.3242 17.7071 58.5785 17.8125 58.8438 17.8125H62.8438C63.109 17.8125 63.3633 17.7071 63.5509 17.5196C63.7384 17.3321 63.8438 17.0777 63.8438 16.8125V6.8125C63.8422 5.4869 63.3149 4.21606 62.3775 3.27872C61.4402 2.34138 60.1693 1.81409 58.8438 1.8125V1.8125ZM61.8438 15.8125H59.8438V6.8125C59.8438 6.54728 59.7384 6.29293 59.5509 6.10539C59.3633 5.91786 59.109 5.8125 58.8438 5.8125H49.8438V3.8125H58.8438C59.6394 3.8125 60.4025 4.12857 60.9651 4.69118C61.5277 5.25379 61.8438 6.01685 61.8438 6.8125V15.8125Z" fill="#303035"/>
<path d="M16.8438 57.8125H7.84375V48.8125C7.84375 48.5473 7.73839 48.2929 7.55086 48.1054C7.36332 47.9179 7.10897 47.8125 6.84375 47.8125H2.84375C2.57853 47.8125 2.32418 47.9179 2.13664 48.1054C1.94911 48.2929 1.84375 48.5473 1.84375 48.8125V58.8125C1.84534 60.1381 2.37263 61.4089 3.30997 62.3463C4.24731 63.2836 5.51815 63.8109 6.84375 63.8125H16.8438C17.109 63.8125 17.3633 63.7071 17.5509 63.5196C17.7384 63.3321 17.8438 63.0777 17.8438 62.8125V58.8125C17.8438 58.5473 17.7384 58.2929 17.5509 58.1054C17.3633 57.9179 17.109 57.8125 16.8438 57.8125ZM15.8438 61.8125H6.84375C6.0481 61.8125 5.28504 61.4964 4.72243 60.9338C4.15982 60.3712 3.84375 59.6081 3.84375 58.8125V49.8125H5.84375V58.8125C5.84375 59.0777 5.94911 59.3321 6.13664 59.5196C6.32418 59.7071 6.57853 59.8125 6.84375 59.8125H15.8438V61.8125Z" fill="#303035"/>
<path d="M2.84375 17.8125H6.84375C7.10897 17.8125 7.36332 17.7071 7.55086 17.5196C7.73839 17.3321 7.84375 17.0777 7.84375 16.8125V7.8125H16.8438C17.109 7.8125 17.3633 7.70714 17.5509 7.51961C17.7384 7.33207 17.8438 7.07772 17.8438 6.8125V2.8125C17.8438 2.54728 17.7384 2.29293 17.5509 2.10539C17.3633 1.91786 17.109 1.8125 16.8438 1.8125H6.84375C5.51815 1.81409 4.24731 2.34138 3.30997 3.27872C2.37263 4.21606 1.84534 5.4869 1.84375 6.8125V16.8125C1.84375 17.0777 1.94911 17.3321 2.13664 17.5196C2.32418 17.7071 2.57853 17.8125 2.84375 17.8125ZM3.84375 6.8125C3.84375 6.01685 4.15982 5.25379 4.72243 4.69118C5.28504 4.12857 6.0481 3.8125 6.84375 3.8125H15.8438V5.8125H6.84375C6.57853 5.8125 6.32418 5.91786 6.13664 6.10539C5.94911 6.29293 5.84375 6.54728 5.84375 6.8125V15.8125H3.84375V6.8125Z" fill="#303035"/>
<path d="M44.8431 40.8126C45.853 40.8161 46.84 40.5128 47.6735 39.9427C48.507 39.3726 49.1476 38.5627 49.5103 37.6203C49.8731 36.6779 49.9409 35.6475 49.7048 34.6657C49.4686 33.6838 48.9397 32.797 48.1881 32.1226C50.1061 28.8366 50.6161 22.3906 48.2571 17.1856C47.358 15.0213 45.842 13.1695 43.8979 11.8608C41.9538 10.552 39.6676 9.84423 37.3241 9.82555C27.9901 9.51755 24.9811 14.0326 24.1521 15.8336C22.8416 15.8872 21.5582 16.2245 20.3906 16.8222C19.2231 17.4199 18.199 18.2637 17.3891 19.2956C15.3361 22.1866 15.3641 26.5296 17.4261 32.1816C16.6941 32.8655 16.185 33.754 15.9653 34.7315C15.7455 35.7089 15.8251 36.7298 16.1939 37.6613C16.5627 38.5928 17.2034 39.3916 18.0327 39.9537C18.862 40.5158 19.8413 40.815 20.8431 40.8126H23.0571C23.531 41.7342 24.1323 42.5845 24.8431 43.3386V47.8126C24.8431 49.9343 25.686 51.9691 27.1863 53.4694C28.6866 54.9697 30.7214 55.8126 32.8431 55.8126C34.9649 55.8126 36.9997 54.9697 38.5 53.4694C40.0003 51.9691 40.8431 49.9343 40.8431 47.8126V43.3386C41.554 42.5845 42.1553 41.7342 42.6291 40.8126H44.8431ZM44.8431 38.8126H43.4172C43.6973 37.8371 43.8407 36.8274 43.8431 35.8126V32.8126H44.8431C45.6388 32.8126 46.4019 33.1286 46.9645 33.6912C47.5271 34.2538 47.8431 35.0169 47.8431 35.8126C47.8431 36.6082 47.5271 37.3713 46.9645 37.9339C46.4019 38.4965 45.6388 38.8126 44.8431 38.8126ZM32.8431 44.8126C30.4571 44.8096 28.1696 43.8605 26.4824 42.1733C24.7952 40.4861 23.8461 38.1986 23.8431 35.8126V28.8016C32.0571 28.6236 36.2531 26.2716 37.8221 25.1246C39.0723 26.0504 40.4208 26.8355 41.8431 27.4656V35.8126C41.8405 38.1987 40.8914 40.4863 39.2042 42.1736C37.5169 43.8608 35.2293 44.8099 32.8431 44.8126V44.8126ZM19.0111 20.4666C20.9361 17.7386 24.7711 17.8076 24.8111 17.8126C25.0363 17.8242 25.2586 17.7579 25.4407 17.625C25.6228 17.4921 25.7536 17.3005 25.8111 17.0826C25.8771 16.8546 27.5401 11.5206 37.2652 11.8246C39.235 11.8307 41.1586 12.4223 42.7916 13.5241C44.4245 14.6259 45.6931 16.1882 46.4361 18.0126C48.4881 22.5416 48.1361 28.3456 46.4771 31.1126C45.9534 30.9208 45.4009 30.8194 44.8431 30.8126H43.8431V26.8126C43.8431 26.6147 43.7844 26.4213 43.6744 26.2568C43.5644 26.0923 43.408 25.9641 43.2251 25.8886C41.5335 25.2058 39.9567 24.2672 38.5501 23.1056C38.3571 22.9257 38.1028 22.8263 37.839 22.8274C37.5751 22.8285 37.3217 22.9301 37.1301 23.1116C37.0931 23.1486 33.3091 26.8126 22.8431 26.8126C22.5779 26.8126 22.3236 26.9179 22.136 27.1054C21.9485 27.293 21.8431 27.5473 21.8431 27.8126V30.8126H20.8431C20.2715 30.8182 19.7051 30.9227 19.1691 31.1216C17.4791 26.3266 17.4101 22.7336 19.0111 20.4666ZM20.8431 38.8126C20.0475 38.8126 19.2844 38.4965 18.7218 37.9339C18.1592 37.3713 17.8431 36.6082 17.8431 35.8126C17.8431 35.0169 18.1592 34.2538 18.7218 33.6912C19.2844 33.1286 20.0475 32.8126 20.8431 32.8126H21.8431V35.8126C21.8456 36.8274 21.989 37.8371 22.2691 38.8126H20.8431ZM38.8431 47.8126C38.8431 49.4039 38.211 50.93 37.0858 52.0552C35.9606 53.1804 34.4344 53.8126 32.8431 53.8126C31.2519 53.8126 29.7257 53.1804 28.6005 52.0552C27.4753 50.93 26.8431 49.4039 26.8431 47.8126V45.0366C28.6296 46.1957 30.7136 46.8126 32.8431 46.8126C34.9727 46.8126 37.0567 46.1957 38.8431 45.0366V47.8126Z" fill="#303035"/>
</svg>
