<svg width="51" height="51" viewBox="0 0 51 51" fill="none" xmlns="http://www.w3.org/2000/svg">
<path fill-rule="evenodd" clip-rule="evenodd" d="M25.8431 12.5332C18.5125 12.5332 12.5625 18.4832 12.5625 25.8138C12.5625 33.1443 18.5125 39.0957 25.8431 39.0957C33.1736 39.0957 39.1236 33.1443 39.1236 25.8138C39.1236 18.4832 33.1736 12.5332 25.8431 12.5332V12.5332ZM25.8431 14.0957C32.3111 14.0957 37.5611 19.3457 37.5611 25.8138C37.5611 32.2818 32.3111 37.5332 25.8431 37.5332C19.375 37.5332 14.125 32.2818 14.125 25.8138C14.125 19.3457 19.375 14.0957 25.8431 14.0957Z" fill="black"/>
<path fill-rule="evenodd" clip-rule="evenodd" d="M19.1656 12.5546C21.1743 11.539 23.4434 10.9678 25.8444 10.9678C34.0371 10.9678 40.6882 17.6188 40.6882 25.8115C40.6882 28.2125 40.117 30.4816 39.1014 32.4903C38.9069 32.8757 39.0614 33.3462 39.4468 33.5407C39.8323 33.7351 40.3027 33.5806 40.4972 33.1952C41.6187 30.9747 42.2507 28.466 42.2507 25.8115C42.2507 16.756 34.9 9.40527 25.8444 9.40527C23.1899 9.40527 20.6812 10.0372 18.4607 11.1587C18.0753 11.3532 17.9208 11.8237 18.1153 12.2091C18.3097 12.5945 18.7802 12.749 19.1656 12.5546V12.5546Z" fill="black"/>
<path fill-rule="evenodd" clip-rule="evenodd" d="M32.5225 39.0688C30.5139 40.0844 28.2448 40.6556 25.8437 40.6556C17.651 40.6556 11 34.0045 11 25.8118C11 23.9855 11.3299 22.2337 11.9358 20.6174C12.0868 20.2129 11.8819 19.7632 11.4774 19.6122C11.0747 19.4612 10.6233 19.666 10.4722 20.0688C9.80382 21.857 9.4375 23.7928 9.4375 25.8118C9.4375 34.8674 16.7882 42.2181 25.8437 42.2181C28.4982 42.2181 31.0069 41.5861 33.2274 40.4646C33.6128 40.2702 33.7673 39.7997 33.5729 39.4143C33.3784 39.0289 32.908 38.8743 32.5225 39.0688V39.0688Z" fill="black"/>
<path fill-rule="evenodd" clip-rule="evenodd" d="M39.1253 38.1242V36.7495C39.1253 36.3185 39.4753 35.9688 39.9065 35.9688H43.0315C43.4628 35.9688 43.8128 36.3185 43.8128 36.7495V38.1242L44.9815 37.4422C45.162 37.3373 45.376 37.3082 45.5776 37.3626C45.7784 37.4162 45.9503 37.5486 46.0534 37.7292L47.6159 40.4633C47.8292 40.8361 47.7018 41.3099 47.3315 41.5257L46.1448 42.2185L47.3315 42.9112C47.7018 43.127 47.8292 43.6008 47.6159 43.9736L46.0534 46.7077C45.9503 46.8883 45.7784 47.0207 45.5776 47.0743C45.376 47.1287 45.162 47.0996 44.9815 46.9947L43.8128 46.3127V47.6874C43.8128 48.1184 43.4628 48.4682 43.0315 48.4682H39.9065C39.4753 48.4682 39.1253 48.1184 39.1253 47.6874V46.3127L37.9565 46.9947C37.776 47.0996 37.562 47.1287 37.3604 47.0743C37.1596 47.0207 36.9878 46.8883 36.8846 46.7077L35.3221 43.9736C35.1088 43.6008 35.2362 43.127 35.6065 42.9112L36.7932 42.2185L35.6065 41.5257C35.2362 41.3099 35.1088 40.8361 35.3221 40.4633L36.8846 37.7292C36.9878 37.5486 37.1596 37.4162 37.3604 37.3626C37.562 37.3082 37.776 37.3373 37.9565 37.4422L39.1253 38.1242ZM42.2503 37.531H40.6878V39.4844C40.6878 39.7637 40.5385 40.0224 40.2956 40.1618C40.0534 40.3011 39.7542 40.2995 39.5128 40.1587L37.8503 39.1889L37.0628 40.5667L38.7378 41.5434C38.9776 41.6834 39.1253 41.9406 39.1253 42.2185C39.1253 42.4963 38.9776 42.7535 38.7378 42.8936L37.0628 43.8703L37.8503 45.248L39.5128 44.2782C39.7542 44.1374 40.0534 44.1359 40.2956 44.2752C40.5385 44.4145 40.6878 44.6732 40.6878 44.9526V46.906H42.2503V44.9526C42.2503 44.6732 42.3995 44.4145 42.6424 44.2752C42.8846 44.1359 43.1838 44.1374 43.4253 44.2782L45.0878 45.248L45.8753 43.8703L44.2003 42.8936C43.9604 42.7535 43.8128 42.4963 43.8128 42.2185C43.8128 41.9406 43.9604 41.6834 44.2003 41.5434L45.8753 40.5667L45.0878 39.1889L43.4253 40.1587C43.1838 40.2995 42.8846 40.3011 42.6424 40.1618C42.3995 40.0224 42.2503 39.7637 42.2503 39.4844V37.531Z" fill="black"/>
<path fill-rule="evenodd" clip-rule="evenodd" d="M23.3873 23.8758C23.4857 23.4758 23.4326 23.0461 23.2279 22.675L22.492 21.3438C22.1771 20.7758 22.013 20.1375 22.013 19.4875C22.013 17.3727 23.7279 15.6562 25.8396 15.6562C27.9513 15.6562 29.6662 17.3727 29.6662 19.4875C29.6662 20.1375 29.5021 20.7758 29.1873 21.3438L28.4513 22.675C28.2466 23.0461 28.1935 23.4758 28.292 23.8758C28.4818 24.1164 28.6373 24.3844 28.7505 24.6742C29.0474 24.9609 29.4459 25.1305 29.8693 25.1383L31.3888 25.1656C32.038 25.1773 32.6732 25.3539 33.2349 25.6781C35.063 26.7359 35.6912 29.0805 34.6357 30.9117C33.5795 32.7438 31.2365 33.3719 29.4068 32.3141C28.8451 31.9898 28.3755 31.5273 28.0412 30.9703L27.2576 29.6664C27.0295 29.2852 26.6607 29.0172 26.2404 28.9117C26.1091 28.9289 25.9755 28.9375 25.8396 28.9375C25.7037 28.9375 25.5701 28.9289 25.4388 28.9117C25.0185 29.0172 24.6498 29.2852 24.4216 29.6664L23.638 30.9703C23.3037 31.5273 22.8341 31.9898 22.2724 32.3141C20.4427 33.3719 18.0998 32.7438 17.0435 30.9117C15.988 29.0805 16.6162 26.7359 18.4443 25.6781C19.006 25.3539 19.6412 25.1773 20.2904 25.1656L21.8099 25.1383C22.2334 25.1305 22.6318 24.9609 22.9287 24.6742C23.042 24.3844 23.1974 24.1164 23.3873 23.8758V23.8758ZM28.8802 26.5352C28.7357 27.1469 28.4107 27.6891 27.9646 28.1023C28.2099 28.3188 28.424 28.5734 28.5974 28.8617L29.381 30.1664C29.5787 30.4961 29.8568 30.7695 30.1888 30.9617C31.2716 31.5875 32.6568 31.2148 33.2818 30.1313C33.9068 29.0469 33.5357 27.657 32.4529 27.0313C32.1209 26.8391 31.7451 26.7344 31.3615 26.7273L29.842 26.7008C29.5099 26.6945 29.1865 26.6375 28.8802 26.5352V26.5352ZM22.799 26.5352C22.4927 26.6375 22.1693 26.6945 21.8373 26.7008L20.3177 26.7273C19.9341 26.7344 19.5584 26.8391 19.2263 27.0313C18.1435 27.657 17.7724 29.0469 18.3974 30.1313C19.0224 31.2148 20.4076 31.5875 21.4904 30.9617C21.8224 30.7695 22.1005 30.4961 22.2982 30.1664L23.0818 28.8617C23.2552 28.5734 23.4693 28.3188 23.7146 28.1023C23.2685 27.6891 22.9435 27.1469 22.799 26.5352V26.5352ZM25.8396 24.25C26.7021 24.25 27.4021 24.95 27.4021 25.8125C27.4021 26.675 26.7021 27.375 25.8396 27.375C24.9771 27.375 24.2771 26.675 24.2771 25.8125C24.2771 24.95 24.9771 24.25 25.8396 24.25V24.25ZM26.749 22.8219C26.8138 22.5102 26.9255 22.2055 27.0841 21.9195L27.8201 20.5875C28.006 20.2508 28.1037 19.8727 28.1037 19.4875C28.1037 18.2359 27.0896 17.2188 25.8396 17.2188C24.5896 17.2188 23.5755 18.2359 23.5755 19.4875C23.5755 19.8727 23.6732 20.2508 23.8591 20.5875L24.5951 21.9195C24.7537 22.2055 24.8654 22.5102 24.9302 22.8219C25.2177 22.7344 25.5232 22.6875 25.8396 22.6875C26.156 22.6875 26.4615 22.7344 26.749 22.8219Z" fill="black"/>
<path fill-rule="evenodd" clip-rule="evenodd" d="M29.75 44.5625C29.75 44.7697 29.6677 44.9684 29.5212 45.1149C29.3747 45.2614 29.176 45.3438 28.9688 45.3438C28.7615 45.3438 28.5628 45.2614 28.4163 45.1149C28.2698 44.9684 28.1875 44.7697 28.1875 44.5625C28.1875 44.3553 28.2698 44.1566 28.4163 44.0101C28.5628 43.8636 28.7615 43.7812 28.9688 43.7812C29.176 43.7812 29.3747 43.8636 29.5212 44.0101C29.6677 44.1566 29.75 44.3553 29.75 44.5625Z" fill="black"/>
<path fill-rule="evenodd" clip-rule="evenodd" d="M21.9375 7.0625C21.9375 7.2697 22.0198 7.46841 22.1663 7.61493C22.3128 7.76144 22.5115 7.84375 22.7188 7.84375C22.926 7.84375 23.1247 7.76144 23.2712 7.61493C23.4177 7.46841 23.5 7.2697 23.5 7.0625C23.5 6.8553 23.4177 6.65659 23.2712 6.51007C23.1247 6.36356 22.926 6.28125 22.7188 6.28125C22.5115 6.28125 22.3128 6.36356 22.1663 6.51007C22.0198 6.65659 21.9375 6.8553 21.9375 7.0625Z" fill="black"/>
<path fill-rule="evenodd" clip-rule="evenodd" d="M22.7187 45.3428H25.8437C26.2749 45.3428 26.625 44.9928 26.625 44.5615C26.625 44.1303 26.2749 43.7803 25.8437 43.7803H22.7187C22.2875 43.7803 21.9375 44.1303 21.9375 44.5615C21.9375 44.9928 22.2875 45.3428 22.7187 45.3428Z" fill="black"/>
<path fill-rule="evenodd" clip-rule="evenodd" d="M28.9687 6.28027H25.8437C25.4126 6.28027 25.0625 6.63027 25.0625 7.06152C25.0625 7.49277 25.4126 7.84277 25.8437 7.84277H28.9687C29.4 7.84277 29.75 7.49277 29.75 7.06152C29.75 6.63027 29.4 6.28027 28.9687 6.28027V6.28027Z" fill="black"/>
<path fill-rule="evenodd" clip-rule="evenodd" d="M10.0539 3.45703C9.90547 3.26719 9.67812 3.15625 9.4375 3.15625C9.19687 3.15625 8.96953 3.26719 8.82109 3.45703C8.82109 3.45703 6.47656 6.46875 5.06953 9.17813C4.40937 10.4477 3.96875 11.6672 3.96875 12.5312C3.96875 15.5492 6.41953 18 9.4375 18C12.4555 18 14.9062 15.5492 14.9062 12.5312C14.9062 11.6672 14.4656 10.4477 13.8055 9.17813C12.3984 6.46875 10.0539 3.45703 10.0539 3.45703V3.45703ZM9.4375 12.2117C9.075 12.6797 8.61797 13.3078 8.27813 13.9023C8.06406 14.2773 7.875 14.6203 7.875 14.875C7.875 15.7375 8.575 16.4375 9.4375 16.4375C10.3 16.4375 11 15.7375 11 14.875C11 14.6203 10.8109 14.2773 10.5969 13.9023C10.257 13.3078 9.8 12.6797 9.4375 12.2117ZM12.5625 14.8742C13.0531 14.2211 13.3438 13.4102 13.3438 12.5312C13.3438 11.8484 12.9406 10.9023 12.4195 9.89844C11.5133 8.15469 10.2016 6.28125 9.4375 5.23906C8.67344 6.28125 7.36172 8.15469 6.45547 9.89844C5.93438 10.9023 5.53125 11.8484 5.53125 12.5312C5.53125 13.4102 5.82187 14.2211 6.3125 14.8742C6.3125 14.4258 6.54531 13.7852 6.92187 13.1266C7.64297 11.8641 8.84453 10.4602 8.84453 10.4602C8.99297 10.2875 9.20937 10.1875 9.4375 10.1875C9.66562 10.1875 9.88203 10.2875 10.0305 10.4602C10.0305 10.4602 11.232 11.8641 11.9531 13.1266C12.3297 13.7852 12.5625 14.4258 12.5625 14.8742Z" fill="black"/>
<path fill-rule="evenodd" clip-rule="evenodd" d="M5.53125 4.71875C5.53125 4.92595 5.44894 5.12466 5.30243 5.27118C5.15591 5.41769 4.9572 5.5 4.75 5.5C4.5428 5.5 4.34409 5.41769 4.19757 5.27118C4.05106 5.12466 3.96875 4.92595 3.96875 4.71875C3.96875 4.51155 4.05106 4.31284 4.19757 4.16632C4.34409 4.01981 4.5428 3.9375 4.75 3.9375C4.9572 3.9375 5.15591 4.01981 5.30243 4.16632C5.44894 4.31284 5.53125 4.51155 5.53125 4.71875Z" fill="black"/>
<path fill-rule="evenodd" clip-rule="evenodd" d="M14.9062 4.71875C14.9062 4.92595 14.8239 5.12466 14.6774 5.27118C14.5309 5.41769 14.3322 5.5 14.125 5.5C13.9178 5.5 13.7191 5.41769 13.5726 5.27118C13.4261 5.12466 13.3438 4.92595 13.3438 4.71875C13.3438 4.51155 13.4261 4.31284 13.5726 4.16632C13.7191 4.01981 13.9178 3.9375 14.125 3.9375C14.3322 3.9375 14.5309 4.01981 14.6774 4.16632C14.8239 4.31284 14.9062 4.51155 14.9062 4.71875Z" fill="black"/>
</svg>
