<svg width="51" height="51" viewBox="0 0 51 51" fill="none" xmlns="http://www.w3.org/2000/svg">
<g clip-path="url(#clip0_23715_50099)">
<path d="M46.3938 8.63867H5.29365C2.83994 8.63867 0.84375 10.635 0.84375 13.0886V22.9085C0.84375 25.3622 2.83994 27.3584 5.29365 27.3584H46.3938C48.8476 27.3584 50.8438 25.3622 50.8438 22.9085V13.0886C50.8438 10.635 48.8476 8.63867 46.3938 8.63867ZM44.0138 25.8434H7.67344V24.9741C7.67344 23.9862 8.47725 23.1824 9.46514 23.1824H42.2221C43.21 23.1824 44.0138 23.9862 44.0138 24.9741V25.8434ZM49.3286 22.9086C49.3286 24.5269 48.012 25.8434 46.3938 25.8434H45.5289V24.9741C45.5289 23.1507 44.0454 21.6673 42.2221 21.6673H9.46514C7.6417 21.6673 6.1583 23.1507 6.1583 24.9741V25.8434H5.29365C3.67539 25.8434 2.35889 24.5269 2.35889 22.9086V13.0886C2.35889 11.4703 3.67539 10.1538 5.29365 10.1538H46.3938C48.0121 10.1538 49.3286 11.4703 49.3286 13.0886V22.9086ZM43.2533 13.7875C41.8655 13.7875 40.7364 14.9166 40.7364 16.3044C40.7364 17.6922 41.8655 18.8213 43.2533 18.8213C44.6412 18.8213 45.7702 17.6922 45.7702 16.3044C45.7702 14.9166 44.6411 13.7875 43.2533 13.7875ZM43.2533 17.3062C42.701 17.3062 42.2516 16.8567 42.2516 16.3044C42.2516 15.7521 42.7009 15.3026 43.2533 15.3026C43.8058 15.3026 44.2551 15.752 44.2551 16.3044C44.2551 16.8568 43.8057 17.3062 43.2533 17.3062ZM33.9301 32.2218C33.862 30.114 32.2544 28.6779 32.186 28.6179C31.8717 28.3417 31.3931 28.3727 31.1169 28.6869C30.8407 29.0013 30.8717 29.4799 31.1859 29.7561C31.1978 29.7665 32.3693 30.8348 32.4157 32.2706C32.4449 33.1757 32.0191 34.0751 31.1503 34.944C29.1473 36.947 29.2617 38.988 29.7104 40.3476C30.1793 41.7679 31.1071 42.7202 31.1464 42.7601C31.2944 42.9103 31.4894 42.9855 31.6846 42.9855C31.8758 42.9855 32.0673 42.9133 32.2149 42.7688C32.5132 42.4769 32.5183 41.9977 32.2273 41.6983C32.2199 41.6907 31.4835 40.9246 31.1348 39.8281C30.6983 38.4558 31.064 37.173 32.2216 36.0152C33.3986 34.8386 33.9734 33.5622 33.9301 32.2218V32.2218ZM37.2976 33.7344C37.2529 32.3523 36.2527 31.4348 36.1388 31.3348C35.8244 31.0586 35.3458 31.0896 35.0696 31.4038C34.7935 31.7182 34.8244 32.1968 35.1387 32.473C35.1448 32.4784 35.7595 33.0504 35.7831 33.7833C35.798 34.2464 35.5692 34.7176 35.103 35.1838C34.0716 36.2152 33.7358 37.4869 34.1577 38.7646C34.4584 39.6757 35.0345 40.2776 35.0992 40.3433C35.2475 40.4938 35.4431 40.5691 35.6389 40.5691C35.8309 40.5691 36.023 40.4966 36.1706 40.3512C36.4687 40.0575 36.4721 39.5778 36.1784 39.2799C36.1746 39.276 35.7864 38.8649 35.5966 38.2897C35.3533 37.5529 35.5424 36.8874 36.1746 36.2552C36.9487 35.481 37.3266 34.6328 37.2976 33.7344V33.7344ZM28.7771 33.7344C28.7325 32.3523 27.7323 31.4348 27.6184 31.3348C27.304 31.0586 26.8254 31.0896 26.5492 31.4038C26.273 31.7182 26.304 32.1968 26.6184 32.473C26.6245 32.4784 27.2392 33.0504 27.2628 33.7833C27.2777 34.2464 27.0489 34.7176 26.5827 35.1838C25.5513 36.2152 25.2155 37.4869 25.6374 38.7646C25.9382 39.6757 26.5142 40.2776 26.5789 40.3433C26.7271 40.4938 26.9228 40.5691 27.1186 40.5691C27.3105 40.5691 27.5027 40.4966 27.6503 40.3512C27.9483 40.0575 27.9519 39.5778 27.6581 39.2799C27.6543 39.276 27.2661 38.8649 27.0763 38.2897C26.833 37.5529 27.0221 36.8874 27.6543 36.2552C28.4283 35.481 28.8062 34.6328 28.7771 33.7344V33.7344ZM19.8206 33.7508C19.6114 33.3885 19.1481 33.2644 18.7857 33.4734L16.8916 34.567V32.15C16.8916 31.7315 16.5524 31.3924 16.134 31.3924C15.7155 31.3924 15.3764 31.7315 15.3764 32.15V34.567L13.2831 33.3585C12.9207 33.1492 12.4574 33.2734 12.2482 33.6357C12.0391 33.9981 12.1632 34.4614 12.5255 34.6706L14.6187 35.8791L12.5255 37.0876C12.1632 37.2968 12.039 37.7602 12.2482 38.1225C12.3886 38.3655 12.6433 38.5014 12.905 38.5014C13.0335 38.5014 13.1638 38.4686 13.2831 38.3997L15.3764 37.1912V39.3783C15.3764 39.7968 15.7155 40.1359 16.134 40.1359C16.5523 40.1359 16.8916 39.7968 16.8916 39.3783V37.1911L18.7857 38.2847C18.9051 38.3535 19.0353 38.3863 19.1639 38.3863C19.4257 38.3863 19.6804 38.2504 19.8206 38.0074C20.0298 37.6451 19.9057 37.1817 19.5434 36.9726L17.6492 35.879L19.5434 34.7854C19.9057 34.5765 20.0298 34.1131 19.8206 33.7508V33.7508Z" fill="black"/>
</g>
<defs>
<clipPath id="clip0_23715_50099">
<rect width="50" height="50" fill="white" transform="translate(0.84375 0.8125)"/>
</clipPath>
</defs>
</svg>
