<svg width="50" height="50" viewBox="0 0 50 50" fill="none" xmlns="http://www.w3.org/2000/svg">
<path d="M40.2373 11.7951V4.6875H41.445C41.65 4.68419 41.8455 4.60043 41.9893 4.45428C42.1332 4.30812 42.2138 4.1113 42.2138 3.90625C42.2138 3.7012 42.1332 3.50438 41.9893 3.35822C41.8455 3.21207 41.65 3.12831 41.445 3.125H12.8382C11.4955 3.12649 10.2082 3.66053 9.25866 4.60995C8.30916 5.55937 7.77503 6.84665 7.77344 8.18939V41.9045C7.77505 43.2223 8.2993 44.4857 9.23119 45.4175C10.1631 46.3493 11.4265 46.8735 12.7444 46.875H39.5415C40.2532 46.8741 40.9356 46.5909 41.4389 46.0876C41.9422 45.5844 42.2253 44.902 42.2262 44.1902V14.3768C42.2243 13.7878 42.0284 13.2158 41.6689 12.7492C41.3094 12.2825 40.8063 11.9473 40.2373 11.7951V11.7951ZM12.8382 4.6875H38.6748V7.40814H16.5095C16.305 7.41224 16.1102 7.49635 15.9671 7.64242C15.8239 7.7885 15.7437 7.98488 15.7437 8.18942C15.7437 8.39395 15.8239 8.59033 15.9671 8.7364C16.1103 8.88246 16.305 8.96656 16.5095 8.97064H38.6748V11.692H12.8382C11.9148 11.6838 11.032 11.3111 10.3819 10.6552C9.73189 9.99933 9.36718 9.11323 9.36718 8.18977C9.36718 7.26631 9.73189 6.38022 10.3819 5.72431C11.032 5.06841 11.9148 4.69578 12.8382 4.6875V4.6875ZM9.33594 41.9045V11.8454C10.084 12.5612 11.0338 13.03 12.057 13.1884V45.2427C11.289 45.0835 10.5992 44.6647 10.1036 44.0568C9.60809 43.4488 9.33699 42.6888 9.33594 41.9045V41.9045ZM40.6637 44.1902C40.6634 44.4878 40.545 44.773 40.3346 44.9834C40.1242 45.1938 39.839 45.3121 39.5415 45.3125H13.6195V13.2545H39.5415C39.839 13.2549 40.1242 13.3733 40.3346 13.5837C40.545 13.794 40.6634 14.0793 40.6637 14.3768V44.1902Z" fill="black"/>
<path d="M36.7004 17.8105H17.5781C17.4755 17.8105 17.3739 17.8307 17.2791 17.87C17.1843 17.9092 17.0982 17.9668 17.0256 18.0393C16.9531 18.1119 16.8955 18.198 16.8563 18.2928C16.817 18.3876 16.7968 18.4892 16.7969 18.5918V24.3283C16.7968 24.4309 16.817 24.5325 16.8563 24.6273C16.8955 24.7221 16.9531 24.8083 17.0256 24.8808C17.0982 24.9534 17.1843 25.0109 17.2791 25.0502C17.3739 25.0894 17.4755 25.1096 17.5781 25.1096H36.7004C36.803 25.1097 36.9047 25.0895 36.9995 25.0502C37.0943 25.011 37.1804 24.9535 37.253 24.8809C37.3256 24.8083 37.3831 24.7222 37.4223 24.6274C37.4616 24.5326 37.4817 24.431 37.4817 24.3283V18.5918C37.4817 18.4892 37.4616 18.3876 37.4223 18.2928C37.3831 18.1979 37.3256 18.1118 37.253 18.0392C37.1804 17.9667 37.0943 17.9091 36.9995 17.8699C36.9047 17.8307 36.803 17.8105 36.7004 17.8105V17.8105ZM35.9192 23.5471H18.3594V19.373H35.9192V23.5471Z" fill="black"/>
<path d="M33.6417 34.792H19.797C19.5925 34.7961 19.3978 34.8802 19.2546 35.0263C19.1114 35.1723 19.0312 35.3687 19.0313 35.5733C19.0313 35.7778 19.1115 35.9742 19.2546 36.1202C19.3978 36.2663 19.5926 36.3504 19.7971 36.3545H33.6417C33.8462 36.3504 34.0409 36.2663 34.1841 36.1202C34.3273 35.9742 34.4075 35.7778 34.4075 35.5732C34.4075 35.3687 34.3273 35.1723 34.1841 35.0263C34.0409 34.8802 33.8462 34.7961 33.6417 34.792V34.792Z" fill="black"/>
<path d="M30.9675 38.8027H22.4771C22.2725 38.8067 22.0777 38.8908 21.9344 39.0369C21.7912 39.183 21.7109 39.3794 21.7109 39.584C21.7109 39.7886 21.7912 39.9851 21.9345 40.1311C22.0777 40.2772 22.2726 40.3613 22.4771 40.3652H30.9675C31.172 40.3612 31.3669 40.2772 31.5101 40.1311C31.6534 39.985 31.7337 39.7886 31.7337 39.584C31.7337 39.3794 31.6534 39.1829 31.5101 39.0369C31.3669 38.8908 31.172 38.8067 30.9675 38.8027Z" fill="black"/>
</svg>
