<svg width="51" height="51" viewBox="0 0 51 51" fill="none" xmlns="http://www.w3.org/2000/svg">
<g clip-path="url(#clip0_23715_49888)">
<path d="M50.5849 32.5992L47.7464 30.2612C47.7373 30.2535 47.7281 30.2459 47.7186 30.2383L31.4371 16.8281C31.4222 16.8143 31.4065 16.8014 31.3901 16.7892L16.9507 4.89609C16.8195 4.78813 16.6551 4.729 16.4853 4.729H10.6107C10.2063 4.729 9.87828 5.05669 9.87828 5.46143C9.87828 5.86617 10.2063 6.19385 10.6107 6.19385H13.1868V15.2984H12.3735C11.9687 15.2984 11.6411 15.6265 11.6411 16.0308C11.6411 16.4355 11.9687 16.7632 12.3735 16.7632H15.2582V18.595H6.90892V16.7632H9.44379C9.84815 16.7632 10.1762 16.4355 10.1762 16.0308C10.1762 15.6265 9.84815 15.2984 9.44379 15.2984H2.09134C1.40775 15.2984 0.851562 15.8546 0.851562 16.5382V45.7008C0.851562 46.3844 1.40775 46.9402 2.09096 46.9402H21.4391C21.8435 46.9402 22.1715 46.6125 22.1715 46.2077C22.1715 45.8034 21.8435 45.4753 21.4391 45.4753H2.31641V16.7632H5.44408V19.3275C5.44408 19.7322 5.77176 20.0599 6.1765 20.0599H13.6026V26.0478C13.6026 26.4522 13.9306 26.7802 14.335 26.7802H21.7615V32.7678C21.7615 33.1722 22.0895 33.5002 22.4939 33.5002H29.9203V39.4878C29.9203 39.8921 30.2484 40.2202 30.6528 40.2202H38.0792V45.4753H24.3688C23.9644 45.4753 23.6364 45.803 23.6364 46.2077C23.6364 46.6125 23.9644 46.9402 24.3688 46.9402H38.804H38.8116H48.3724C48.916 46.9402 49.3585 46.498 49.3585 45.9541V43.1648C49.3585 42.6212 48.916 42.1787 48.3724 42.1787H47.9997V32.3676L49.6534 33.7299C49.79 33.842 49.9547 33.8969 50.1188 33.8969C50.3301 33.8969 50.5399 33.8058 50.6845 33.6299C50.9416 33.3179 50.897 32.8563 50.5849 32.5992ZM15.0674 25.3154V23.4836H23.417V25.3154H15.0674ZM23.8962 26.7802C24.4398 26.7802 24.8819 26.3377 24.8819 25.7941V23.0048C24.8819 22.4609 24.4398 22.0187 23.8962 22.0187H15.0674V20.0599H15.7373C16.2809 20.0599 16.723 19.6178 16.723 19.0742V16.2845C16.723 15.7409 16.2809 15.2984 15.7373 15.2984H14.6516V6.19385H16.2225L30.2164 17.7203V28.7387H23.2263V26.7802H23.8962ZM23.2263 32.0354V30.2036H31.5759V32.0354H23.2263ZM31.3852 38.7553V36.9235H39.7348V38.7553H31.3852ZM47.8937 45.4753H39.5441V43.6435H47.8937V45.4753ZM46.5349 42.1787H39.5441V40.2202H40.2135C40.7571 40.2202 41.1996 39.7781 41.1996 39.2341V36.4448C41.1996 35.9012 40.7571 35.4587 40.2135 35.4587H31.3852V33.5002H32.0547C32.5982 33.5002 33.0408 33.0577 33.0408 32.5141V29.7244C33.0408 29.1808 32.5986 28.7387 32.0547 28.7387H31.6812V18.9265L46.5349 31.161V42.1787Z" fill="black"/>
</g>
<defs>
<clipPath id="clip0_23715_49888">
<rect width="50" height="50" fill="white" transform="translate(0.84375 0.8125)"/>
</clipPath>
</defs>
</svg>
