<svg width="50" height="50" viewBox="0 0 50 50" fill="none" xmlns="http://www.w3.org/2000/svg">
<path d="M49.7483 45.8017L44.4186 35.7432C44.0443 35.0425 43.348 34.6242 42.5559 34.6242H32.2037C36.6987 28.9604 41.0674 22.6173 41.0674 17.1697C41.0674 8.31074 33.8602 1.10352 25.0011 1.10352C16.1407 1.10352 8.93219 8.31074 8.93219 17.1697C8.93219 22.6111 13.3029 28.9567 17.8 34.6242H7.44635C6.64996 34.6242 5.95299 35.0438 5.58229 35.7455L0.255726 45.7984C-0.102966 46.4676 -0.0838252 47.225 0.310022 47.8797C0.703186 48.5264 1.36217 48.8973 2.11793 48.8973H9.9736H15.8004H47.8844C48.6428 48.8973 49.3016 48.5252 49.6916 47.8766C50.0819 47.2273 50.1027 46.4712 49.7483 45.8017ZM42.5559 36.1866C42.7707 36.1866 42.9382 36.2879 43.0392 36.477L44.0214 38.3306H29.1952C29.7685 37.6327 30.3563 36.917 30.9488 36.1866H42.5559ZM25.0011 2.66582C32.9986 2.66582 39.505 9.17227 39.505 17.1696C39.505 23.3222 32.7971 31.4858 27.8993 37.4468C26.8564 38.7159 25.8625 39.9255 25.0012 41.0286C24.1407 39.9266 23.1479 38.7179 22.1061 37.4497C17.2058 31.4844 10.4946 23.3146 10.4946 17.1697C10.4946 9.17227 17.0022 2.66582 25.0011 2.66582ZM7.44635 36.1866H13.1428L12.4255 38.3306H5.98082L6.96344 36.4761C7.06334 36.2867 7.23043 36.1866 7.44635 36.1866ZM1.64694 47.0713C1.54137 46.8958 1.53659 46.7159 1.63453 46.5332L3.29176 43.4056H10.7263L9.41129 47.3349H2.11793C1.91168 47.335 1.7527 47.2451 1.64694 47.0713ZM11.0588 47.335L12.5523 42.8724C12.6321 42.6341 12.5923 42.372 12.4456 42.1681C12.2987 41.9642 12.0628 41.8433 11.8115 41.8433H4.11959L5.15289 39.893H12.988C13.3239 39.893 13.6222 39.6782 13.7288 39.3596L14.7903 36.1866H19.0545C19.6782 36.9556 20.2968 37.7087 20.8987 38.4415C22.0964 39.8995 23.229 41.2781 24.1582 42.4927C24.3242 42.7963 24.6433 42.9902 25.0007 42.9903H25.001C25.3586 42.9903 25.6779 42.7964 25.8439 42.4928C26.4582 41.6898 27.1623 40.8146 27.9142 39.893H44.8492L45.8826 41.8433H28.6549C28.3351 41.8433 28.0476 42.0382 27.9293 42.3354C27.8108 42.6324 27.8856 42.9718 28.1178 43.1916L32.4929 47.335H27.9586L19.1883 39.029C18.9945 38.8455 18.7208 38.7735 18.4618 38.8383C18.203 38.9029 17.995 39.0952 17.9103 39.3482L15.2379 47.3349H11.0588V47.335ZM25.6865 47.335H16.8855L19.0035 41.0057L25.6865 47.335ZM48.3525 47.0714C48.2474 47.2463 48.0899 47.335 47.8843 47.335H34.7651L30.6159 43.4057H46.7105L48.3676 46.533C48.4635 46.7141 48.4585 46.8952 48.3525 47.0714ZM34.8724 17.1697C34.8724 11.7267 30.4442 7.29834 25.001 7.29834C19.5579 7.29834 15.1297 11.7266 15.1297 17.1697C15.1297 22.6144 19.5579 27.0438 25.001 27.0438C30.4442 27.0438 34.8724 22.6143 34.8724 17.1697ZM16.6922 17.1697C16.6922 12.5881 20.4195 8.86074 25.0011 8.86074C29.5828 8.86074 33.3101 12.5881 33.3101 17.1697C33.3101 21.7528 29.5828 25.4814 25.0011 25.4814C20.4195 25.4814 16.6922 21.7527 16.6922 17.1697Z" fill="black"/>
</svg>
