<svg width="51" height="51" viewBox="0 0 51 51" fill="none" xmlns="http://www.w3.org/2000/svg">
<g clip-path="url(#clip0_23715_49922)">
<path d="M24.6139 45.8165H8.19921C3.67265 45.8165 0.744619 40.6627 3.18192 36.763L13.3338 20.5194C13.5484 20.1759 13.444 19.7236 13.1007 19.509C12.7571 19.2944 12.3048 19.3988 12.0903 19.7422L1.93837 35.9859C-1.07794 40.8118 2.5077 47.283 8.19921 47.283H24.6139C25.0188 47.283 25.3471 46.9548 25.3471 46.5498C25.3471 46.1447 25.0188 45.8165 24.6139 45.8165Z" fill="black"/>
<path d="M49.7492 35.9857L32.1054 7.75392C29.2605 3.20499 22.4267 3.20509 19.5819 7.75411L13.7834 17.032C13.5688 17.3755 13.6732 17.8278 14.0165 18.0424C14.3601 18.2569 14.8124 18.1526 15.0269 17.8092L20.8252 8.53146C23.0802 4.9257 28.5926 4.90284 30.8619 8.53126L48.5054 36.7628C50.9427 40.6625 48.0148 45.8163 43.4882 45.8163H27.8098C27.4048 45.8163 27.0766 46.1445 27.0766 46.5495C27.0766 46.9545 27.4048 47.2827 27.8098 47.2827H43.4883C49.1798 47.2827 52.7653 40.8115 49.7492 35.9857V35.9857Z" fill="black"/>
<path d="M36.4004 21.779C36.7439 21.5643 36.8483 21.112 36.6336 20.7686L29.5135 9.37636C27.8681 6.74101 23.8368 6.72431 22.1811 9.37616L4.53656 37.6075C2.79115 40.4 4.88343 44.2228 8.20277 44.2228H43.4919C46.785 44.2228 48.9174 40.4222 47.1581 37.6076L38.3281 23.4797C38.1134 23.1361 37.6608 23.0318 37.3177 23.2465C36.9743 23.4611 36.8699 23.9136 37.0845 24.2568L45.9147 38.3849C47.0833 40.2544 45.6967 42.7563 43.492 42.7563H8.20277C5.99788 42.7563 4.61156 40.2544 5.78011 38.3848L23.4248 10.1531C24.5252 8.39072 27.1696 8.39091 28.2699 10.1533L35.3901 21.5458C35.6046 21.8893 36.0573 21.9935 36.4004 21.779Z" fill="black"/>
<path d="M28.3931 17.7903C28.0933 17.4651 27.6366 17.3663 27.2292 17.5389C23.3426 19.1847 21.8079 22.12 21.205 24.2926C20.8565 25.5484 20.7724 26.6898 20.7708 27.4884C20.5091 27.3162 20.2372 27.0788 19.9709 26.7858C19.3401 26.2757 18.7816 26.3452 18.2952 26.9943C17.6063 28.2862 17.2422 29.7494 17.2422 31.2256C17.2422 36.0587 21.2938 40.1846 26.1383 40.1846C30.9665 40.1839 34.9433 36.2681 35.032 31.3934C35.0782 28.8541 34.0476 26.4046 32.2045 24.6731C31.3169 23.7855 30.5935 24.8693 30.3964 25.5768C30.0265 24.603 29.4509 24.059 28.9516 23.5872C27.6113 22.3205 27.74 20.5243 28.5497 18.9737C28.7551 18.5805 28.6936 18.116 28.3931 17.7903V17.7903ZM29.431 35.3915C29.3139 37.1546 27.9999 38.7181 26.1374 38.7181C24.3227 38.7179 22.8458 37.2275 22.8451 35.3957C22.8451 35.3928 22.8451 35.3881 22.8451 35.3851C22.837 34.7292 22.9642 34.0242 23.2233 33.2844L24.2262 33.5798C24.7671 33.6602 25.0806 33.4304 25.1664 32.8903C25.1974 31.2481 26.1099 30.2494 26.8925 29.6933C27.2354 31.2702 28.1173 32.5324 29.0275 33.846C29.2868 34.2206 29.4338 34.7839 29.431 35.3915ZM27.9444 24.653C28.6656 25.3345 29.2885 25.9233 29.3132 27.8995C29.5209 28.6428 29.9474 28.8028 30.5926 28.3794C30.6253 28.3429 31.2865 27.593 31.7163 26.2775C32.9329 27.6742 33.6 29.4909 33.5658 31.3666C33.5217 33.7915 32.3287 35.9326 30.5204 37.2696C31.0529 36.0092 31.0434 34.1822 30.2332 33.0111C29.3032 31.6692 28.4649 30.4746 28.2289 28.8447C27.9895 28.0631 27.4848 27.8083 26.715 28.0802C25.9292 28.5041 24.2167 29.6685 23.7945 31.924L23.252 31.7641C22.7387 31.6129 22.2005 31.8745 22.0002 32.3725C21.5761 33.4259 21.3669 34.4456 21.3786 35.396C21.3788 36.058 21.5133 36.6891 21.7559 37.263C19.9114 35.8938 18.7086 33.6897 18.7086 31.2255C18.7086 30.189 18.9227 29.1606 19.3312 28.2187C19.9048 28.7398 20.6631 29.2269 21.5217 29.2716C22.0379 29.2333 22.2927 28.9553 22.2859 28.4375C22.2836 28.4201 22.053 26.6783 22.6324 24.6333C23.29 22.3127 24.6812 20.5528 26.7749 19.3884C26.0803 21.3785 26.4294 23.2213 27.9444 24.653V24.653Z" fill="black"/>
</g>
<defs>
<clipPath id="clip0_23715_49922">
<rect width="50" height="50" fill="white" transform="translate(0.84375 0.8125)"/>
</clipPath>
</defs>
</svg>
