<svg width="65" height="65" viewBox="0 0 65 65" fill="none" xmlns="http://www.w3.org/2000/svg">
<path d="M2.84375 14.9629C3.39595 14.9629 3.84375 14.5151 3.84375 13.9629V5.76709H12.063C12.6152 5.76709 13.063 5.31929 13.063 4.76709C13.063 4.21489 12.6152 3.76709 12.063 3.76709H2.84375C2.29155 3.76709 1.84375 4.21489 1.84375 4.76709V13.9629C1.84375 14.5151 2.29155 14.9629 2.84375 14.9629Z" fill="black"/>
<path d="M62.8399 3.76709H53.6172C53.065 3.76709 52.6172 4.21489 52.6172 4.76709C52.6172 5.31929 53.065 5.76709 53.6172 5.76709H61.8399V13.9629C61.8399 14.5151 62.2877 14.9629 62.8399 14.9629C63.3921 14.9629 63.8399 14.5151 63.8399 13.9629V4.76709C63.8399 4.21479 63.3921 3.76709 62.8399 3.76709Z" fill="black"/>
<path d="M12.063 59.8574H3.84375V51.6621C3.84375 51.1094 3.39595 50.6621 2.84375 50.6621C2.29155 50.6621 1.84375 51.1094 1.84375 51.6621V60.8574C1.84375 61.4101 2.29155 61.8574 2.84375 61.8574H12.063C12.6152 61.8574 13.063 61.4101 13.063 60.8574C13.063 60.3047 12.6153 59.8574 12.063 59.8574Z" fill="black"/>
<path d="M62.8399 50.6621C62.2877 50.6621 61.8399 51.1094 61.8399 51.6621V59.8574H53.6172C53.065 59.8574 52.6172 60.3047 52.6172 60.8574C52.6172 61.4101 53.065 61.8574 53.6172 61.8574H62.8399C63.3921 61.8574 63.8399 61.4101 63.8399 60.8574V51.6621C63.8399 51.1094 63.3921 50.6621 62.8399 50.6621Z" fill="black"/>
<path d="M32.8453 29.0732C30.2296 29.0732 28.1016 31.1972 28.1016 33.8076C28.1016 36.418 30.2295 38.542 32.8453 38.542C35.4611 38.542 37.5894 36.418 37.5894 33.8076C37.5894 31.1972 35.4611 29.0732 32.8453 29.0732ZM32.8453 36.542C31.3326 36.542 30.1016 35.3154 30.1016 33.8076C30.1016 32.2998 31.3326 31.0732 32.8453 31.0732C34.3585 31.0732 35.5894 32.2998 35.5894 33.8076C35.5894 35.3154 34.3585 36.542 32.8453 36.542Z" fill="black"/>
<path d="M25.5952 33.8076C25.5952 33.2554 25.1474 32.8076 24.5952 32.8076H23.0312C22.479 32.8076 22.0312 33.2554 22.0312 33.8076C22.0312 34.3603 22.479 34.8076 23.0312 34.8076H24.5952C25.1474 34.8076 25.5952 34.3604 25.5952 33.8076Z" fill="black"/>
<path d="M43.6499 33.8076C43.6499 33.2554 43.2021 32.8076 42.6499 32.8076H41.0859C40.5337 32.8076 40.0859 33.2554 40.0859 33.8076C40.0859 34.3603 40.5337 34.8076 41.0859 34.8076H42.6499C43.2021 34.8076 43.6499 34.3604 43.6499 33.8076Z" fill="black"/>
<path d="M38.7345 29.0527C38.9869 29.0527 39.2394 28.958 39.4342 28.7671L40.5499 27.6748C40.9444 27.2886 40.9513 26.6558 40.5645 26.2607C40.1777 25.8656 39.545 25.8588 39.1504 26.2461L38.0347 27.3384C37.6402 27.7246 37.6333 28.3574 38.0201 28.7525C38.216 28.9521 38.4752 29.0527 38.7345 29.0527Z" fill="black"/>
<path d="M26.2569 38.8468L25.1378 39.9386C24.7423 40.3243 24.7345 40.9572 25.1202 41.3527C25.316 41.5539 25.5763 41.6545 25.836 41.6545C26.088 41.6545 26.3399 41.5598 26.5342 41.3703L27.6533 40.2785C28.0488 39.8928 28.0566 39.2599 27.6709 38.8644C27.2858 38.4679 26.6525 38.462 26.2569 38.8468Z" fill="black"/>
<path d="M32.8438 26.5815C33.396 26.5815 33.8438 26.1337 33.8438 25.5815V24.0215C33.8438 23.4693 33.396 23.0215 32.8438 23.0215C32.2915 23.0215 31.8438 23.4693 31.8438 24.0215V25.5816C31.8437 26.1338 32.2915 26.5815 32.8438 26.5815Z" fill="black"/>
<path d="M32.8438 41.0332C32.2915 41.0332 31.8438 41.4805 31.8438 42.0332V43.5937C31.8438 44.1464 32.2915 44.5937 32.8438 44.5937C33.396 44.5937 33.8438 44.1464 33.8438 43.5937V42.0332C33.8438 41.4805 33.396 41.0332 32.8438 41.0332Z" fill="black"/>
<path d="M26.5343 26.2448C26.1398 25.8605 25.5074 25.8664 25.1202 26.2624C24.7345 26.6574 24.7423 27.2907 25.1378 27.6765L26.2569 28.7688C26.4512 28.9583 26.7032 29.053 26.9551 29.053C27.2149 29.053 27.4746 28.9524 27.6709 28.7512C28.0566 28.3562 28.0488 27.7229 27.6533 27.3371L26.5343 26.2448Z" fill="black"/>
<path d="M39.4337 38.8477C39.0401 38.462 38.4064 38.4678 38.0196 38.8633C37.6334 39.2578 37.6402 39.8906 38.0352 40.2774L39.1509 41.3692C39.3452 41.5596 39.5977 41.6544 39.8501 41.6544C40.1094 41.6544 40.3691 41.5538 40.5649 41.3536C40.9511 40.9591 40.9443 40.3263 40.5493 39.9395L39.4337 38.8477Z" fill="black"/>
<path d="M63.0285 34.4608C63.3854 34.077 63.3854 33.4833 63.0285 33.0995C54.9742 24.4335 44.678 19.5483 33.9302 19.2375L33.8415 10.9891C33.8356 10.4369 33.3859 9.97694 32.8308 9.99984C32.2786 10.0057 31.8357 10.4583 31.8415 11.0105L31.93 19.2325C21.1187 19.4945 10.7548 24.3861 2.6583 33.0995C2.3014 33.4833 2.3014 34.077 2.6583 34.4608C9.4867 41.8095 17.9277 46.4436 26.8895 47.8738C28.4974 48.2027 30.1966 48.3067 31.8524 48.3384L31.941 56.5741C31.9469 57.1229 32.3936 57.5634 32.941 57.5634C32.9444 57.5634 32.9483 57.5634 32.9517 57.5634C33.5039 57.5575 33.9468 57.1044 33.941 56.5527L33.8527 48.3471C35.5102 48.3267 37.2227 48.2263 38.8062 47.8721C47.7641 46.4394 56.2015 41.8059 63.0285 34.4608ZM60.9181 33.7802C55.8642 39.0074 49.9415 42.706 43.6171 44.6841C46.4768 41.8618 48.1701 37.97 48.1701 33.8075C48.1701 29.5915 46.4499 25.6759 43.5444 22.8538C49.8961 24.8264 55.845 28.5331 60.9181 33.7802ZM4.7687 33.7802C9.8404 28.5337 15.7878 24.8272 22.1384 22.8544C19.2333 25.6765 17.5133 29.5918 17.5133 33.8075C17.5133 37.97 19.2073 41.8624 22.0683 44.6846C15.744 42.7064 9.8217 39.0074 4.7687 33.7802ZM27.3559 45.9223C22.5867 43.7733 19.5133 39.0352 19.5133 33.8075C19.5133 28.4923 22.6562 23.724 27.5335 21.6137C29.2861 21.3503 31.0572 21.2074 32.8404 21.2074C32.8409 21.2074 32.8414 21.2074 32.8419 21.2074C34.6255 21.2074 36.397 21.3501 38.1501 21.6136C43.027 23.7243 46.17 28.4922 46.17 33.8075C46.17 39.0335 43.0983 43.772 38.3325 45.9215C34.7012 46.4861 30.9874 46.4873 27.3559 45.9223Z" fill="black"/>
</svg>
