<svg width="50" height="50" viewBox="0 0 50 50" fill="none" xmlns="http://www.w3.org/2000/svg">
<path d="M45.85 8.03743C44.4233 8.03743 43.2629 9.19786 43.2629 10.6246V25.8036H31.9244V10.6246C31.9244 9.19786 30.764 8.03743 29.3373 8.03743C27.9106 8.03743 26.7498 9.19786 26.7498 10.6246V25.3123H25.8045V12.7577C25.8045 12.7258 25.79 12.6986 25.7863 12.6676C25.78 12.6138 25.772 12.5629 25.7548 12.5116C25.7387 12.4639 25.7171 12.4217 25.6925 12.3786C25.668 12.3352 25.6429 12.2947 25.61 12.2562C25.5749 12.2151 25.5352 12.1821 25.4922 12.1491C25.4677 12.1301 25.4519 12.1038 25.4246 12.0875L11.5185 3.76726C11.3972 3.6944 11.2583 3.65625 11.1172 3.65625H2.34375C1.91231 3.65625 1.5625 4.00606 1.5625 4.4375V7.5625V14.1017V41.181C1.5625 41.6125 1.91231 41.9623 2.34375 41.9623H27.5311H31.1432H44.0441H47.6562C48.0877 41.9623 48.4375 41.6125 48.4375 41.181V10.6246C48.4375 9.19786 47.2767 8.03743 45.85 8.03743ZM31.9244 32.2314H43.2629V35.5345H31.9244V32.2314ZM43.2629 27.3661V30.6689H31.9244V27.3661H43.2629ZM3.125 5.21875H10.9013L24.242 13.2007V25.3123H22.5868V21.8672V14.3046C22.5868 14.2696 22.5714 14.2397 22.5669 14.2059C22.5602 14.1547 22.5533 14.1059 22.5368 14.057C22.5198 14.0068 22.4961 13.9629 22.4697 13.9179C22.4459 13.8767 22.4224 13.8377 22.391 13.8011C22.3544 13.7585 22.3123 13.725 22.2673 13.6911C22.2424 13.6722 22.2262 13.6459 22.1985 13.6298L10.6438 6.88768C10.5244 6.81787 10.3886 6.78125 10.2501 6.78125H5.54695C5.54647 6.78125 5.54609 6.78154 5.54562 6.78154C5.54514 6.78154 5.54476 6.78125 5.54428 6.78125C5.11284 6.78125 4.76303 7.13106 4.76303 7.5625V13.3204H3.125V7.5625V5.21875ZM15.9081 17.4487H10.9882V14.1017C10.9882 13.6702 10.6384 13.3204 10.207 13.3204H6.32553V8.34375H10.0388L21.0243 14.7537V21.0856H16.6893V18.2299C16.6893 17.7985 16.3395 17.4487 15.9081 17.4487ZM3.125 14.8829H5.54428H9.42574V18.2299C9.42574 18.6614 9.77554 19.0112 10.207 19.0112H15.1268V21.8669C15.1268 22.2983 15.4766 22.6481 15.9081 22.6481H21.0243V26.0898C21.0243 26.0911 21.0236 26.0922 21.0236 26.0935C21.0236 26.525 21.3734 26.8748 21.8048 26.8748H25.0233H26.7498V40.3998H3.125V14.8829ZM28.3123 10.6246C28.3123 10.0596 28.772 9.59993 29.3373 9.59993C29.9023 9.59993 30.3619 10.0596 30.3619 10.6246V26.5849V31.4501V36.3158V40.3998H28.3123V10.6246ZM31.9244 37.097H43.2629V40.3998H31.9244V37.097ZM46.875 40.3998H44.8254V36.3158V31.4501V26.5849V10.6246C44.8254 10.0596 45.285 9.59993 45.85 9.59993C46.4153 9.59993 46.875 10.0596 46.875 10.6246V40.3998Z" fill="black"/>
</svg>
