<svg width="51" height="51" viewBox="0 0 51 51" fill="none" xmlns="http://www.w3.org/2000/svg">
<path d="M36.4206 1.75H8.38937C8.22361 1.75 8.06464 1.81585 7.94743 1.93306C7.83022 2.05027 7.76437 2.20924 7.76437 2.375V44.0706H5.40625C5.24049 44.0706 5.08152 44.1365 4.96431 44.2537C4.8471 44.3709 4.78125 44.5299 4.78125 44.6956V49.25C4.78125 49.4158 4.8471 49.5747 4.96431 49.6919C5.08152 49.8092 5.24049 49.875 5.40625 49.875H39.3612C39.527 49.875 39.686 49.8092 39.8032 49.6919C39.9204 49.5747 39.9862 49.4158 39.9862 49.25V44.6956C39.9862 44.5299 39.9204 44.3709 39.8032 44.2537C39.686 44.1365 39.527 44.0706 39.3612 44.0706H37.0488V27.4375C37.3016 27.5159 37.5443 27.6237 37.7719 27.7587C38.2187 28.0291 38.5872 28.4114 38.841 28.8678C39.0948 29.3243 39.225 29.839 39.2188 30.3612V37.5237C39.219 37.9871 39.3105 38.4458 39.488 38.8738C39.6656 39.3017 39.9256 39.6905 40.2534 40.018C40.5812 40.3454 40.9703 40.6051 41.3985 40.7822C41.8266 40.9592 42.2854 41.0502 42.7487 41.05C43.2121 41.0498 43.6708 40.9583 44.0988 40.7807C44.5267 40.6032 44.9155 40.3431 45.243 40.0153C45.5704 39.6875 45.8301 39.2984 46.0072 38.8703C46.1842 38.4422 46.2752 37.9833 46.275 37.52L46.1869 22.3125C46.5774 22.1818 46.9172 21.9319 47.1584 21.5981C47.3995 21.2642 47.5299 20.8631 47.5312 20.4513V17.1156C47.5304 16.8104 47.4592 16.5094 47.3232 16.2362C47.1871 15.9629 46.9899 15.7247 46.7469 15.54L44.3531 13.7331L44.3369 13.7206L42.4619 12.3081C42.397 12.2526 42.3214 12.2109 42.2399 12.1857C42.1583 12.1605 42.0724 12.1522 41.9875 12.1615C41.9026 12.1708 41.8205 12.1974 41.7462 12.2396C41.672 12.2818 41.6072 12.3388 41.5559 12.4071C41.5045 12.4753 41.4677 12.5534 41.4477 12.6364C41.4277 12.7194 41.4249 12.8057 41.4395 12.8898C41.4542 12.9739 41.4859 13.0542 41.5327 13.1256C41.5795 13.197 41.6405 13.2581 41.7119 13.305L43.3438 14.5375L43.3375 20.4431C43.3417 20.6822 43.3933 20.9181 43.4893 21.137C43.5853 21.356 43.7238 21.5537 43.8969 21.7188C44.1879 22.0023 44.5449 22.2091 44.9356 22.3206L45.0256 37.5237C45.0256 38.1279 44.7856 38.7074 44.3584 39.1346C43.9311 39.5619 43.3517 39.8019 42.7475 39.8019C42.1433 39.8019 41.5639 39.5619 41.1366 39.1346C40.7094 38.7074 40.4694 38.1279 40.4694 37.5237V30.3612C40.4709 29.6237 40.2823 28.8983 39.922 28.2548C39.5616 27.6113 39.0415 27.0716 38.4119 26.6875C37.9879 26.4354 37.5268 26.2517 37.0456 26.1431V2.375C37.0456 2.20924 36.9798 2.05027 36.8626 1.93306C36.7454 1.81585 36.5864 1.75 36.4206 1.75V1.75ZM44.5887 20.4462V20.1337L44.7344 20.2588C44.7963 20.3127 44.8682 20.3539 44.946 20.38C45.0238 20.4062 45.106 20.4167 45.1879 20.4111C45.2698 20.4054 45.3497 20.3837 45.4232 20.3472C45.4967 20.3107 45.5623 20.26 45.6162 20.1981C45.6702 20.1362 45.7114 20.0643 45.7375 19.9865C45.7637 19.9087 45.7742 19.8265 45.7686 19.7446C45.7629 19.6627 45.7412 19.5828 45.7047 19.5093C45.6682 19.4358 45.6175 19.3702 45.5556 19.3163L44.5938 18.4744V15.48L45.995 16.5375C46.0841 16.6053 46.1563 16.6928 46.2062 16.793C46.2561 16.8933 46.2822 17.0037 46.2825 17.1156V20.4513C46.2823 20.6433 46.2059 20.8273 46.0701 20.9631C45.9343 21.0988 45.7501 21.175 45.5581 21.175C45.2668 21.1623 44.9906 21.0417 44.7831 20.8369C44.6714 20.7358 44.602 20.5963 44.5887 20.4462V20.4462ZM38.7362 48.625H6.03125V45.3206H38.7362V48.625ZM9.01437 44.0706V3H35.7956V44.0706H9.01437Z" fill="black"/>
<path d="M32.6097 5.61914H12.1953C12.0296 5.61914 11.8706 5.68499 11.7534 5.8022C11.6362 5.91941 11.5703 6.07838 11.5703 6.24414V19.9685C11.5703 20.1343 11.6362 20.2932 11.7534 20.4105C11.8706 20.5277 12.0296 20.5935 12.1953 20.5935H32.6097C32.7754 20.5935 32.9344 20.5277 33.0516 20.4105C33.1688 20.2932 33.2347 20.1343 33.2347 19.9685V6.24414C33.2347 6.07838 33.1688 5.91941 33.0516 5.8022C32.9344 5.68499 32.7754 5.61914 32.6097 5.61914V5.61914ZM31.9847 19.3435H12.8203V6.86914H31.9847V19.3435Z" fill="black"/>
</svg>
