<svg width="50" height="50" viewBox="0 0 50 50" fill="none" xmlns="http://www.w3.org/2000/svg">
<path d="M26.4297 11.0273C26.4297 13.543 26.4297 19.7097 26.4297 22.0581" stroke="black" stroke-width="1.46484" stroke-miterlimit="10" stroke-linecap="round" stroke-linejoin="round"/>
<path d="M23.4844 22.0585C23.4844 20.2827 23.4844 6.68594 23.4844 2.20322C23.4844 1.39141 24.1423 0.732422 24.9552 0.732422C25.7657 0.732422 26.426 1.39131 26.426 2.20322" stroke="black" stroke-width="1.46484" stroke-miterlimit="10" stroke-linecap="round" stroke-linejoin="round"/>
<path d="M26.4297 2.20312L32.9344 5.30059C34.1375 5.87324 34.1169 7.59209 32.9001 8.13623L26.4297 11.0277V2.20312Z" stroke="black" stroke-width="1.46484" stroke-miterlimit="10" stroke-linecap="round" stroke-linejoin="round"/>
<path d="M22.0547 22.0586C24.2353 22.0586 25.7785 22.0586 27.8966 22.0586" stroke="black" stroke-width="1.46484" stroke-miterlimit="10" stroke-linecap="round" stroke-linejoin="round"/>
<path d="M12.5015 49.268H10.6376C8.92264 49.268 7.62254 47.7227 7.91668 46.0333L13.0947 16.2582C13.3251 14.9355 14.4733 13.9697 15.8156 13.9697H16.8501" stroke="black" stroke-width="1.46484" stroke-miterlimit="10" stroke-linecap="round" stroke-linejoin="round"/>
<path d="M33.1562 13.9697H34.1907C35.533 13.9697 36.6813 14.9355 36.9116 16.2582L42.0896 46.0333C42.3838 47.7228 41.0836 49.268 39.3687 49.268H37.5048" stroke="black" stroke-width="1.46484" stroke-miterlimit="10" stroke-linecap="round" stroke-linejoin="round"/>
<path d="M26.4297 13.9697H33.1533L36.2969 39.4824" stroke="black" stroke-width="1.46484" stroke-miterlimit="10" stroke-linecap="round" stroke-linejoin="round"/>
<path d="M36.7109 42.874L37.499 49.2676H27.2031" stroke="black" stroke-width="1.46484" stroke-miterlimit="10" stroke-linecap="round" stroke-linejoin="round"/>
<path d="M22.7959 49.2676H12.5L15.54 24.5879" stroke="black" stroke-width="1.46484" stroke-miterlimit="10" stroke-linecap="round" stroke-linejoin="round"/>
<path d="M15.9531 21.1963L16.8437 13.9697H23.4854" stroke="black" stroke-width="1.46484" stroke-miterlimit="10" stroke-linecap="round" stroke-linejoin="round"/>
<path d="M26.4304 17.7822C29.1935 18.3137 31.2516 20.3561 31.2516 22.7936C31.2516 25.636 28.4532 27.9412 25.0008 27.9412C21.5483 27.9412 18.75 25.636 18.75 22.7936C18.75 20.3806 20.7669 18.3548 23.4888 17.7979" stroke="black" stroke-width="1.46484" stroke-miterlimit="10" stroke-linecap="round" stroke-linejoin="round"/>
<path d="M22.7962 46.3264H19.1192C18.3074 46.3264 17.6484 45.6675 17.6484 44.8556C17.6484 44.045 18.3073 43.3848 19.1192 43.3848H21.9716" stroke="black" stroke-width="1.46484" stroke-miterlimit="10" stroke-linecap="round" stroke-linejoin="round"/>
<path d="M28.0277 43.3848H30.88C31.6919 43.3848 32.3508 44.0437 32.3508 44.8556C32.3508 45.6661 31.6919 46.3264 30.88 46.3264H27.2031" stroke="black" stroke-width="1.46484" stroke-miterlimit="10" stroke-linecap="round" stroke-linejoin="round"/>
<path d="M27.2092 46.3262H22.7969V49.2677H27.2092V46.3262Z" stroke="black" stroke-width="1.46484" stroke-miterlimit="10" stroke-linecap="round" stroke-linejoin="round"/>
<path d="M21.9705 43.3843H28.032C30.1627 42.2842 31.6197 40.0643 31.6197 37.5013C31.6197 33.8459 28.6566 30.8828 25.0013 30.8828C21.3459 30.8828 18.3828 33.8459 18.3828 37.5013C18.3828 40.0643 19.8398 42.2841 21.9705 43.3843Z" stroke="black" stroke-width="1.46484" stroke-miterlimit="10" stroke-linecap="round" stroke-linejoin="round"/>
<path d="M21.9705 43.3843H28.032C30.1627 42.2842 31.6197 40.0643 31.6197 37.5013C31.6197 33.8459 28.6566 30.8828 25.0013 30.8828C21.3459 30.8828 18.3828 33.8459 18.3828 37.5013C18.3828 40.0643 19.8398 42.2841 21.9705 43.3843Z" stroke="black" stroke-width="1.46484" stroke-miterlimit="10" stroke-linecap="round" stroke-linejoin="round"/>
</svg>
