<svg width="50" height="50" viewBox="0 0 50 50" fill="none" xmlns="http://www.w3.org/2000/svg">
<path d="M38.438 0.732422H41.2245C41.7642 0.732422 42.2017 1.16992 42.2017 1.70957V48.291C42.2017 48.8304 41.7645 49.2676 41.2251 49.2676H22.9531" stroke="black" stroke-width="1.46484" stroke-miterlimit="10" stroke-linecap="round" stroke-linejoin="round"/>
<path d="M22.9531 11.4067V1.70957C22.9531 1.16992 23.3906 0.732422 23.9303 0.732422H35.4432" stroke="black" stroke-width="1.46484" stroke-miterlimit="10" stroke-linecap="round" stroke-linejoin="round"/>
<path d="M18.2237 49.2676H26.0508V12.3833C26.0508 11.8439 25.6136 11.4067 25.0742 11.4067H8.76562C8.22627 11.4067 7.78906 11.8439 7.78906 12.3833V48.291C7.78906 48.8304 8.22627 49.2676 8.76562 49.2676H15.3095" stroke="black" stroke-width="1.46484" stroke-miterlimit="10" stroke-linecap="round" stroke-linejoin="round"/>
<path d="M11.5469 15.918H22.2891" stroke="black" stroke-width="1.46484" stroke-miterlimit="10" stroke-linecap="round" stroke-linejoin="round"/>
<path d="M11.5469 19.8062H22.2891" stroke="black" stroke-width="1.46484" stroke-miterlimit="10" stroke-linecap="round" stroke-linejoin="round"/>
<path d="M11.5469 23.6948H22.2891" stroke="black" stroke-width="1.46484" stroke-miterlimit="10" stroke-linecap="round" stroke-linejoin="round"/>
<path d="M11.5469 27.583H22.2891" stroke="black" stroke-width="1.46484" stroke-miterlimit="10" stroke-linecap="round" stroke-linejoin="round"/>
<path d="M11.5469 31.4712H22.2891" stroke="black" stroke-width="1.46484" stroke-miterlimit="10" stroke-linecap="round" stroke-linejoin="round"/>
<path d="M11.5469 35.3594H22.2891" stroke="black" stroke-width="1.46484" stroke-miterlimit="10" stroke-linecap="round" stroke-linejoin="round"/>
<path d="M11.5469 39.248H22.2891" stroke="black" stroke-width="1.46484" stroke-miterlimit="10" stroke-linecap="round" stroke-linejoin="round"/>
<path d="M22.2891 49.2676V44.3359C22.2891 43.7966 21.8519 43.3594 21.3125 43.3594H12.5234C11.9841 43.3594 11.5469 43.7966 11.5469 44.3359V49.2676" stroke="black" stroke-width="1.46484" stroke-miterlimit="10" stroke-linecap="round" stroke-linejoin="round"/>
<path d="M42.2024 7.41748H31.6016C31.0622 7.41748 30.625 7.85469 30.625 8.39404V42.8832C30.625 43.4226 31.0622 43.8598 31.6016 43.8598H42.2024V7.41748Z" stroke="black" stroke-width="1.46484" stroke-miterlimit="10" stroke-linecap="round" stroke-linejoin="round"/>
<path d="M42.2024 12.0298H30.625V15.9181H42.2024V12.0298Z" stroke="black" stroke-width="1.46484" stroke-miterlimit="10" stroke-linecap="round" stroke-linejoin="round"/>
<path d="M42.2024 19.8062H30.625V23.6944H42.2024V19.8062Z" stroke="black" stroke-width="1.46484" stroke-miterlimit="10" stroke-linecap="round" stroke-linejoin="round"/>
<path d="M42.2024 27.583H30.625V31.4713H42.2024V27.583Z" stroke="black" stroke-width="1.46484" stroke-miterlimit="10" stroke-linecap="round" stroke-linejoin="round"/>
<path d="M42.2024 35.3599H30.625V39.2481H42.2024V35.3599Z" stroke="black" stroke-width="1.46484" stroke-miterlimit="10" stroke-linecap="round" stroke-linejoin="round"/>
</svg>
