<svg width="51" height="51" viewBox="0 0 51 51" fill="none" xmlns="http://www.w3.org/2000/svg">
<path d="M35.8804 22.2737C35.8101 22.1611 35.7122 22.0683 35.596 22.0041C35.4798 21.9398 35.3492 21.9062 35.2164 21.9065H26.6226V10.1878C26.6216 10.0128 26.5619 9.84329 26.453 9.70633C26.3442 9.56937 26.1925 9.4729 26.0224 9.43238C25.8522 9.39186 25.6733 9.40963 25.5144 9.48285C25.3555 9.55607 25.2258 9.68049 25.1461 9.83619L15.7711 28.5862C15.7111 28.7051 15.6826 28.8374 15.6882 28.9705C15.6938 29.1035 15.7333 29.2329 15.8029 29.3464C15.8726 29.4599 15.9701 29.5537 16.0862 29.619C16.2023 29.6842 16.3332 29.7186 16.4664 29.719H25.0601V41.4378C25.0607 41.6133 25.1204 41.7835 25.2295 41.921C25.3386 42.0585 25.4909 42.1552 25.6617 42.1956C25.7203 42.211 25.7807 42.2189 25.8414 42.219C25.9857 42.2186 26.127 42.1782 26.2497 42.1023C26.3724 42.0265 26.4718 41.9182 26.5367 41.7893L35.9117 23.0393C35.9722 22.9196 36.0011 22.7864 35.9956 22.6524C35.9901 22.5184 35.9505 22.3881 35.8804 22.2737V22.2737ZM26.6226 38.1253V28.9378C26.6226 28.7306 26.5403 28.5318 26.3938 28.3853C26.2473 28.2388 26.0486 28.1565 25.8414 28.1565H17.732L25.0601 13.5003V22.6878C25.0601 22.895 25.1424 23.0937 25.289 23.2402C25.4355 23.3867 25.6342 23.469 25.8414 23.469H33.9508L26.6226 38.1253Z" fill="black"/>
<path d="M44.9141 12.2031C45.5079 11.4554 45.8065 10.5156 45.7532 9.56221C45.6999 8.60882 45.2985 7.70818 44.625 7.03125L42.4141 4.82031C42.2654 4.67919 42.0683 4.60052 41.8633 4.60052C41.6583 4.60052 41.4612 4.67919 41.3125 4.82031L40.7578 5.375L38.5469 3.16406L37.4453 4.26563L39.6562 6.47656L38.5469 7.58594L36.3359 5.375L35.2344 6.47656L37.4453 8.6875L36.8906 9.24219C36.7451 9.38856 36.6634 9.58657 36.6634 9.79297C36.6634 9.99936 36.7451 10.1974 36.8906 10.3437L39.1016 12.5547C39.6934 13.1514 40.464 13.5385 41.296 13.6569C42.1281 13.7754 42.9761 13.6188 43.7109 13.2109C46.33 16.8899 47.7315 21.2965 47.7187 25.8125C47.7155 29.4022 46.8298 32.936 45.1395 36.1027C43.4492 39.2695 41.0061 41.9721 38.0256 43.9725C35.045 45.973 31.6183 47.2099 28.0472 47.5743C24.4761 47.9388 20.8701 47.4196 17.5469 46.0625L16.9531 47.5078C20.5137 48.9624 24.3773 49.5191 28.2037 49.129C32.0301 48.7388 35.7018 47.4137 38.8955 45.2704C42.0892 43.1272 44.7069 40.2314 46.518 36.8383C48.3291 33.4452 49.278 29.6587 49.2812 25.8125C49.2955 20.9293 47.767 16.1663 44.9141 12.2031V12.2031ZM43.5234 11.4531C43.0807 11.8887 42.4844 12.1329 41.8633 12.1329C41.2421 12.1329 40.6459 11.8887 40.2031 11.4531L38.5469 9.78906L41.8672 6.47656L43.5234 8.13281C43.9624 8.5738 44.2089 9.17072 44.2089 9.79297C44.2089 10.4152 43.9624 11.0121 43.5234 11.4531V11.4531Z" fill="black"/>
<path d="M25.8438 2.37502C19.6302 2.38267 13.6732 4.85443 9.27948 9.24816C4.88576 13.6419 2.414 19.5989 2.40635 25.8125C2.39214 30.6958 3.92056 35.4587 6.77354 39.4219C6.1797 40.1697 5.88109 41.1094 5.93437 42.0628C5.98766 43.0162 6.38914 43.9168 7.0626 44.5938L9.27354 46.8047C9.34474 46.8773 9.42989 46.9349 9.52386 46.9738C9.61783 47.0127 9.7187 47.0323 9.82041 47.0313C9.92329 47.0323 10.0253 47.0128 10.1206 46.9739C10.2158 46.935 10.3024 46.8775 10.3751 46.8047L10.9298 46.25L13.1407 48.461L14.2423 47.3594L12.0313 45.1485L13.1407 44.0391L15.3517 46.25L16.4532 45.1485L14.2423 42.9375L14.797 42.3828C14.9425 42.2365 15.0242 42.0385 15.0242 41.8321C15.0242 41.6257 14.9425 41.4277 14.797 41.2813L12.586 39.0703C11.9908 38.4793 11.2206 38.0962 10.3902 37.978C9.55969 37.8597 8.71323 38.0127 7.97666 38.4141C5.3576 34.7351 3.95611 30.3285 3.96885 25.8125C3.97526 20.0129 6.282 14.4526 10.383 10.3516C14.4839 6.25067 20.0442 3.94393 25.8438 3.93752C28.6899 3.93159 31.5092 4.48642 34.1407 5.57034L34.7345 4.11721C31.9129 2.96243 28.8926 2.3706 25.8438 2.37502V2.37502ZM8.16416 40.1719C8.60693 39.7363 9.20318 39.4922 9.82432 39.4922C10.4455 39.4922 11.0417 39.7363 11.4845 40.1719L13.1407 41.836L9.82041 45.1485L8.16416 43.4922C7.72516 43.0512 7.47869 42.4543 7.47869 41.8321C7.47869 41.2098 7.72516 40.6129 8.16416 40.1719V40.1719Z" fill="black"/>
</svg>
