<svg width="50" height="50" viewBox="0 0 50 50" fill="none" xmlns="http://www.w3.org/2000/svg">
<path d="M44.7266 15.8984C44.6484 11.7188 41.25 8.39844 37.1094 8.39844H12.3438C8.20312 8.39844 4.80469 11.7187 4.72656 15.8594C2.07031 15.8594 0.234375 17.9688 0.234375 20.2734C0.234375 22.0703 1.32812 23.7109 3.00781 24.375V30.4688C3.00781 32.1094 3.78906 33.6328 5 34.5703L3.75 39.8438C3.4375 41.0547 4.17969 42.2656 5.39062 42.5781C6.60156 42.8906 7.8125 42.1094 8.125 40.9375L8.78906 38.3203H40.8594L41.5234 40.9375C41.7969 42.1484 43.0469 42.8906 44.2578 42.6172C45.4688 42.3438 46.2109 41.0938 45.9375 39.8828V39.8438L44.6484 34.5703C45.9375 33.5938 46.6797 32.0703 46.6406 30.4688V24.375C48.9063 23.4766 50 20.9375 49.1406 18.6719C48.4375 16.9531 46.7188 15.7813 44.7266 15.8984ZM6.05469 16.0156C6.05469 12.5391 8.86719 9.72656 12.3438 9.72656H37.1094C40.5859 9.72656 43.3984 12.5391 43.3984 16.0156V16.1719C41.8359 16.7578 40.625 18.125 40.625 19.8438C40.625 20 40.625 19.6875 40.5859 26.3281C39.6094 25.2344 38.2422 24.6484 36.7578 24.6484H29.2969C27.4219 24.6484 25.7422 25.6641 24.8047 27.2656C23.8672 25.6641 22.1875 24.6484 20.3125 24.6484H12.8516C11.4063 24.6484 10 25.2734 9.02344 26.3281C9.02344 26.3281 9.02344 21.6016 9.02344 20.0391C9.02344 19.2969 8.4375 17.7344 7.65625 17.1094C7.14844 16.7188 6.60156 16.3281 6.05469 16.1328V16.0156ZM9.0625 29.5313C9.21875 27.5391 10.8594 25.9766 12.8906 25.9766H20.3125C22.3828 25.9766 24.0625 27.6172 24.1406 29.6484H9.0625V29.5313ZM40.5859 29.6875H25.5078C25.5859 27.6172 27.2656 26.0156 29.3359 26.0156H36.7969C38.8281 25.9766 40.5078 27.6172 40.5859 29.6875ZM6.83594 40.625C6.71875 41.0938 6.21094 41.4063 5.74219 41.2891C5.23437 41.1719 4.96094 40.6641 5.07812 40.1953L6.25 35.2734C6.67969 35.4688 7.10937 35.5859 7.57812 35.625V37.5L6.83594 40.625ZM8.94531 35.7031H40.5859V36.9531H8.94531V35.7031ZM43.9063 41.2891C43.4766 41.3672 42.9297 41.0938 42.8125 40.625L41.9531 37.0703V35.7031C42.4609 35.6641 42.9297 35.5469 43.3984 35.3125C43.3984 35.3125 44.2969 39.0625 44.6094 40.1953C44.6875 40.5859 44.4922 41.1328 43.9063 41.2891ZM45.7422 23.2422C45.4297 23.3203 45.2344 23.5938 45.2344 23.9063V30.4688C45.2344 32.6563 43.4375 34.3359 41.3672 34.3359H8.24219C6.17187 34.3359 4.375 32.6563 4.375 30.4688V23.8672C4.375 23.5547 4.17969 23.2813 3.86719 23.2031C2.22656 22.7734 1.25 21.0938 1.67969 19.4922C2.03125 18.125 3.24219 17.1875 4.64844 17.1875C6.25 17.1875 7.69531 18.4766 7.69531 20.0391V30.3125C7.69531 30.7031 8.00781 30.9766 8.35937 30.9766H41.25C41.6406 30.9766 41.9141 30.6641 41.9141 30.3125V20.1563C41.9141 20.0391 41.9141 19.8828 41.9922 19.6094C42.2656 18.5156 43.0859 17.6172 44.2187 17.3438C44.4531 17.2656 44.7266 17.2656 45 17.2656C46.6797 17.2656 48.0469 18.6328 48.0469 20.3125C48.0469 21.6797 47.1094 22.8906 45.7422 23.2422Z" fill="black"/>
<path d="M13.5938 20.1953C14.1331 20.1953 14.5703 19.7581 14.5703 19.2188C14.5703 18.6794 14.1331 18.2422 13.5938 18.2422C13.0544 18.2422 12.6172 18.6794 12.6172 19.2188C12.6172 19.7581 13.0544 20.1953 13.5938 20.1953Z" fill="black"/>
<path d="M21.0938 20.1953C21.6331 20.1953 22.0703 19.7581 22.0703 19.2188C22.0703 18.6794 21.6331 18.2422 21.0938 18.2422C20.5544 18.2422 20.1172 18.6794 20.1172 19.2188C20.1172 19.7581 20.5544 20.1953 21.0938 20.1953Z" fill="black"/>
<path d="M28.5938 20.1953C29.1331 20.1953 29.5703 19.7581 29.5703 19.2188C29.5703 18.6794 29.1331 18.2422 28.5938 18.2422C28.0544 18.2422 27.6172 18.6794 27.6172 19.2188C27.6172 19.7581 28.0544 20.1953 28.5938 20.1953Z" fill="black"/>
<path d="M36.0938 20.1953C36.6331 20.1953 37.0703 19.7581 37.0703 19.2188C37.0703 18.6794 36.6331 18.2422 36.0938 18.2422C35.5544 18.2422 35.1172 18.6794 35.1172 19.2188C35.1172 19.7581 35.5544 20.1953 36.0938 20.1953Z" fill="black"/>
<path d="M17.5 15.8203C18.0393 15.8203 18.4766 15.3831 18.4766 14.8438C18.4766 14.3044 18.0393 13.8672 17.5 13.8672C16.9607 13.8672 16.5234 14.3044 16.5234 14.8438C16.5234 15.3831 16.9607 15.8203 17.5 15.8203Z" fill="black"/>
<path d="M25.0391 15.8203C25.5784 15.8203 26.0156 15.3831 26.0156 14.8438C26.0156 14.3044 25.5784 13.8672 25.0391 13.8672C24.4997 13.8672 24.0625 14.3044 24.0625 14.8438C24.0625 15.3831 24.4997 15.8203 25.0391 15.8203Z" fill="black"/>
<path d="M32.5391 15.8203C33.0784 15.8203 33.5156 15.3831 33.5156 14.8438C33.5156 14.3044 33.0784 13.8672 32.5391 13.8672C31.9997 13.8672 31.5625 14.3044 31.5625 14.8438C31.5625 15.3831 31.9997 15.8203 32.5391 15.8203Z" fill="black"/>
</svg>
