<svg width="50" height="50" viewBox="0 0 50 50" fill="none" xmlns="http://www.w3.org/2000/svg">
<path d="M48.1683 14.1463C41.6209 11.5209 34.3885 9.06755 26.6717 6.85443C25.5778 6.54066 24.4219 6.54076 23.3284 6.85443C18.3982 8.26842 13.6418 9.78709 9.19112 11.3684C8.80997 11.5038 8.61074 11.9226 8.7461 12.3037C8.88145 12.6849 9.30021 12.8841 9.68146 12.7486C14.1036 11.1774 18.8309 9.66804 23.7322 8.26246C24.5614 8.02456 25.4382 8.02447 26.2678 8.26246C33.9368 10.4619 41.1219 12.8989 47.6232 15.5059C48.2954 15.7754 48.535 16.3789 48.5351 16.8537C48.5352 17.3289 48.2957 17.9329 47.6232 18.2029C44.3568 19.5127 40.9157 20.7799 37.326 21.9962C37.2581 21.9113 37.1719 21.8404 37.0701 21.7919L25.315 16.1929C24.9499 16.0189 24.5128 16.174 24.3388 16.5392C24.1648 16.9045 24.3199 17.3415 24.6851 17.5154L35.4239 22.6304C32.4624 23.6049 29.4069 24.5452 26.2678 25.4455C25.4386 25.6833 24.5618 25.6835 23.7322 25.4455C16.0574 23.2444 8.87247 20.8076 2.37718 18.2031C1.70432 17.933 1.46476 17.329 1.46486 16.8538C1.46496 16.379 1.70461 15.7754 2.37688 15.5059C3.85561 14.9129 5.39 14.3208 6.93739 13.7461C7.31659 13.6053 7.50976 13.1837 7.36893 12.8045C7.22811 12.4253 6.80623 12.232 6.42732 12.3729C4.86812 12.952 3.32182 13.5487 1.83156 14.1462C0.702059 14.5993 0.000293064 15.6366 9.16964e-08 16.8535C-0.00029288 18.0709 0.701473 19.1089 1.83166 19.5627C4.49947 20.6324 7.28387 21.6733 10.1678 22.6819V30.7707C10.1678 31.6522 10.6917 32.4433 11.5024 32.7861C15.3906 34.432 19.7638 35.9483 24.5041 37.294C24.6985 37.348 24.8985 37.3754 25.0986 37.3754C25.2987 37.3754 25.4987 37.348 25.6971 37.2929C29.3778 36.2481 32.8379 35.0991 36.0226 33.8666V36.1617C34.8718 36.4827 34.0247 37.5397 34.0247 38.7914V42.6478C34.0247 43.0523 34.3525 43.3803 34.7571 43.3803H38.7529C39.1575 43.3803 39.4853 43.0523 39.4853 42.6478V38.7914C39.4853 37.5397 38.6382 36.4827 37.4874 36.1617V33.2858C37.8942 33.1206 38.2973 32.9543 38.694 32.7864C39.5058 32.4438 40.0304 31.6526 40.0304 30.7707V29.6106C40.0304 29.2061 39.7026 28.8781 39.298 28.8781C38.8934 28.8781 38.5656 29.2061 38.5656 29.6106V30.7707C38.5656 31.0622 38.3925 31.3237 38.1238 31.437C37.9133 31.5261 37.7008 31.6147 37.4874 31.703V23.4872C37.8485 23.3656 38.2076 23.2432 38.5656 23.1204V26.6808C38.5656 27.0853 38.8934 27.4133 39.298 27.4133C39.7026 27.4133 40.0304 27.0853 40.0304 26.6808V22.6124C42.8439 21.6255 45.562 20.6078 48.1687 19.5626C49.2985 19.1089 50.0003 18.0709 50 16.8535C49.9997 15.6366 49.2979 14.5993 48.1683 14.1463V14.1463ZM38.0205 38.7913V41.9153H35.4896V38.7913C35.4896 38.0936 36.0572 37.5259 36.755 37.5259C37.4529 37.5259 38.0205 38.0936 38.0205 38.7913V38.7913ZM36.0226 32.2944C32.7362 33.5887 29.1399 34.7927 25.301 35.8825C25.1675 35.9196 25.0259 35.9185 24.9002 35.8836C20.2218 34.5555 15.9062 33.0595 12.0732 31.4369C11.8056 31.3238 11.6327 31.0623 11.6327 30.7707V23.1884C15.3782 24.4688 19.2853 25.6941 23.3283 26.8537C23.8753 27.0105 24.4375 27.0889 25 27.0889C25.5624 27.0889 26.1249 27.0105 26.6716 26.8537C29.8784 25.934 32.9991 24.9726 36.0226 23.9756V32.2944Z" fill="black"/>
</svg>
