<svg width="51" height="51" viewBox="0 0 51 51" fill="none" xmlns="http://www.w3.org/2000/svg">
<g clip-path="url(#clip0_23715_49863)">
<path d="M47.7629 9.42334H3.92461C2.22578 9.42334 0.84375 10.8055 0.84375 12.5043V39.1204C0.84375 40.8192 2.22578 42.2013 3.92461 42.2013H47.7628C49.4616 42.2013 50.8437 40.8192 50.8437 39.1204V12.5043C50.8437 10.8055 49.4617 9.42334 47.7629 9.42334V9.42334ZM49.3789 39.1203C49.3789 40.0114 48.654 40.7363 47.7629 40.7363H3.92461C3.0335 40.7363 2.30859 40.0113 2.30859 39.1203V12.5043C2.30859 11.6132 3.0335 10.8883 3.92461 10.8883H47.7628C48.6539 10.8883 49.3788 11.6133 49.3788 12.5043V39.1203H49.3789Z" fill="black"/>
<path d="M17.9633 18.7668C17.9633 17.4996 16.9323 16.4688 15.6652 16.4688C14.3981 16.4688 13.3672 17.4997 13.3672 18.7668C13.3672 20.0339 14.3981 21.0648 15.6652 21.0648C16.9323 21.0648 17.9633 20.034 17.9633 18.7668ZM14.8319 18.7668C14.8319 18.3073 15.2058 17.9336 15.6651 17.9336C16.1245 17.9336 16.4983 18.3074 16.4983 18.7668C16.4983 19.2262 16.1245 19.6 15.6651 19.6C15.2058 19.6 14.8319 19.2263 14.8319 18.7668Z" fill="black"/>
<path d="M17.0103 23.8741L17.7104 25.2745C18.1021 26.0581 18.8897 26.5448 19.7658 26.5448H21.9295C22.334 26.5448 22.6619 26.2169 22.6619 25.8124C22.6619 25.4079 22.334 25.08 21.9295 25.08H19.7658C19.4482 25.08 19.1626 24.9035 19.0206 24.6194L18.3204 23.219C17.9286 22.4354 17.141 21.9487 16.2649 21.9487H11.2472C10.3021 21.9487 9.46455 22.5157 9.11348 23.3933L7.9415 26.3231C7.79121 26.6987 7.97393 27.125 8.34951 27.2752C8.43877 27.3109 8.53076 27.3278 8.62129 27.3278C8.91201 27.3278 9.18701 27.1536 9.30156 26.8673L10.4735 23.9374C10.6009 23.6192 10.9045 23.4136 11.2472 23.4136H12.3022L10.5965 28.5309C10.3583 29.2454 10.2375 29.9896 10.2375 30.7429V33.6407C10.2375 33.6686 10.2149 33.6911 10.1871 33.6911H5.49023C5.08574 33.6911 4.75781 34.019 4.75781 34.4235C4.75781 34.828 5.08574 35.156 5.49023 35.156H10.1872C11.0228 35.156 11.7024 34.4763 11.7024 33.6407V30.7429C11.7024 30.648 11.7058 30.5534 11.7105 30.459H13.72L18.1744 36.8224H5.49023C5.08574 36.8224 4.75781 37.1503 4.75781 37.5548C4.75781 37.9593 5.08574 38.2872 5.49023 38.2872H21.9296C22.3341 38.2872 22.662 37.9593 22.662 37.5548V28.9437C22.662 28.5393 22.3341 28.2113 21.9296 28.2113C21.5251 28.2113 21.1972 28.5393 21.1972 28.9437V36.8224H19.9624L14.9127 29.6085L16.8853 23.6908C16.9339 23.7453 16.9764 23.8064 17.0103 23.8741V23.8741ZM13.5734 28.9941H11.9862V28.994L13.8464 23.4136H15.4336L13.5734 28.9941Z" fill="black"/>
<path d="M21.9295 13.3374H5.49023C5.08574 13.3374 4.75781 13.6653 4.75781 14.0698V31.2919C4.75781 31.6964 5.08574 32.0243 5.49023 32.0243C5.89473 32.0243 6.22266 31.6964 6.22266 31.2919V14.8022H21.1972V22.6808C21.1972 23.0853 21.5251 23.4132 21.9296 23.4132C22.3341 23.4132 22.662 23.0853 22.662 22.6808V14.0698C22.6619 13.6653 22.3341 13.3374 21.9295 13.3374V13.3374Z" fill="black"/>
<path d="M39.2078 17.925C38.774 17.4906 38.1969 17.2515 37.5826 17.2515C36.9685 17.2515 36.3912 17.4906 35.9578 17.9247C35.5236 18.3588 35.2846 18.9358 35.2846 19.5496C35.2846 20.1634 35.5236 20.7403 35.9577 21.1744L36.416 21.6327C36.7021 21.9187 37.1658 21.9187 37.4519 21.6327C37.7379 21.3467 37.7379 20.8829 37.4519 20.5969L36.9936 20.1385C36.8361 19.9811 36.7494 19.7719 36.7494 19.5495C36.7494 19.3271 36.8361 19.1179 36.9938 18.9601C37.1509 18.8028 37.36 18.7162 37.5825 18.7162C37.8052 18.7162 38.0142 18.8028 38.1716 18.9604L44.4342 25.2229C44.5916 25.3804 44.6783 25.5896 44.6783 25.812C44.6783 26.0344 44.5916 26.2437 44.4342 26.4011L38.1713 32.664C38.0143 32.8212 37.8052 32.9078 37.5825 32.9078C37.36 32.9078 37.1509 32.8212 36.9935 32.6637C36.836 32.5062 36.7493 32.297 36.7493 32.0746C36.7493 31.8522 36.836 31.6431 36.9935 31.4855L40.5831 27.8955C40.7926 27.686 40.8552 27.371 40.7418 27.0974C40.6284 26.8236 40.3613 26.6452 40.0651 26.6452H28.1887C27.7292 26.6452 27.3555 26.2714 27.3555 25.812C27.3555 25.3526 27.7293 24.9788 28.1887 24.9788H40.0653C40.4698 24.9788 40.7978 24.6509 40.7978 24.2464C40.7978 23.8419 40.4698 23.514 40.0653 23.514H28.1887C26.9215 23.514 25.8906 24.5449 25.8906 25.812C25.8906 27.0791 26.9216 28.1101 28.1887 28.1101H38.2973L35.9578 30.4497C35.5237 30.8838 35.2846 31.4608 35.2846 32.0746C35.2846 32.6884 35.5236 33.2653 35.9574 33.6991C36.3912 34.1335 36.9684 34.3727 37.5826 34.3727C38.1969 34.3727 38.774 34.1335 39.2075 33.6994L45.4701 27.4368C46.3661 26.5409 46.3661 25.083 45.4701 24.1871L39.2078 17.925Z" fill="black"/>
</g>
<defs>
<clipPath id="clip0_23715_49863">
<rect width="50" height="50" fill="white" transform="translate(0.84375 0.8125)"/>
</clipPath>
</defs>
</svg>
