<svg width="50" height="50" viewBox="0 0 50 50" fill="none" xmlns="http://www.w3.org/2000/svg">
<g clip-path="url(#clip0_24250_47762)">
<mask id="mask0_24250_47762" style="mask-type:luminance" maskUnits="userSpaceOnUse" x="-1" y="-1" width="51" height="51">
<path d="M-0.0234375 -0.0119286H49.9766V49.9883H-0.0234375V-0.0119286Z" fill="white"/>
</mask>
<g mask="url(#mask0_24250_47762)">
<path d="M33.6315 8.15883C33.477 8.05063 33.1499 7.86088 33.0473 7.3974C32.714 5.89232 31.1221 0.721104 24.9801 0.721104C18.8382 0.721104 17.2462 5.89232 16.913 7.3974C16.8121 7.85307 16.4968 8.04115 16.3286 8.15883C16.0346 8.36459 15.8594 8.70112 15.8594 9.0601V10.9054C15.8594 11.3485 16.1251 11.7483 16.5336 11.9199C16.8747 12.0631 17.121 12.3683 17.189 12.7321C17.586 14.8562 17.7916 17.1274 20.1024 19.2771C20.9928 20.1054 22.0274 21.2803 24.0797 21.2803H25.8805C27.9221 21.2803 28.9563 20.1156 29.8577 19.2771C32.1727 17.1237 32.3796 14.8271 32.7712 12.7321C32.8392 12.3683 33.0854 12.0631 33.4267 11.9199C33.8351 11.7483 34.1008 11.3485 34.1008 10.9054V9.0601C34.1008 8.70112 33.9257 8.36459 33.6315 8.15883Z" stroke="black" stroke-width="1.46485" stroke-miterlimit="10" stroke-linecap="round" stroke-linejoin="round"/>
<path d="M30.4278 38.6963C31.7106 34.5364 35.2555 32.5602 35.2555 32.5602H14.6953C14.6953 32.5602 18.2401 34.5364 19.5229 38.6963H30.4278Z" stroke="black" stroke-width="1.46485" stroke-miterlimit="10" stroke-linecap="round" stroke-linejoin="round"/>
<path d="M32.273 38.6956H17.6897C17.1189 38.6956 16.6562 39.1583 16.6562 39.7291V41.8369H33.3065V39.7291C33.3065 39.1583 32.8438 38.6956 32.273 38.6956Z" stroke="black" stroke-width="1.46485" stroke-miterlimit="10" stroke-linecap="round" stroke-linejoin="round"/>
<path d="M26.6853 49.2559H37.9085C38.6621 49.2559 39.2729 48.645 39.2729 47.8915V43.2008C39.2729 42.4472 38.6621 41.8364 37.9085 41.8364H12.044C11.2905 41.8364 10.6797 42.4472 10.6797 43.2008V47.8915C10.6797 48.645 11.2905 49.2559 12.044 49.2559H23.2673" stroke="black" stroke-width="1.46485" stroke-miterlimit="10" stroke-linecap="round" stroke-linejoin="round"/>
<path d="M33.8241 24.8952C32.4816 24.4788 31.3928 24.0114 31.0254 23.5263C30.2224 22.4665 29.3984 21.0052 28.9285 20.1291C28.196 20.7392 27.2726 21.2802 25.8812 21.2802H24.0805C22.686 21.2802 21.7616 20.7377 21.0328 20.1301C20.5628 21.0063 19.739 22.4669 18.9363 23.5263C18.0964 24.6352 13.4874 25.6515 10.6944 26.1776C9.71071 26.3629 9.26394 27.5166 9.86765 28.315L12.0976 31.2643C12.7144 32.0801 13.6781 32.5596 14.7008 32.5596H35.2609C36.2837 32.5596 37.2473 32.0801 37.8641 31.2643L40.0941 28.315C40.6978 27.5166 40.251 26.3629 39.2674 26.1776C38.6345 26.0584 37.9083 25.9138 37.1541 25.749" stroke="black" stroke-width="1.46485" stroke-miterlimit="10" stroke-linecap="round" stroke-linejoin="round"/>
</g>
</g>
<defs>
<clipPath id="clip0_24250_47762">
<rect width="50" height="50.0002" fill="white"/>
</clipPath>
</defs>
</svg>
