<svg width="51" height="51" viewBox="0 0 51 51" fill="none" xmlns="http://www.w3.org/2000/svg">
<path d="M44.1577 19.7265C43.5172 10.7832 36.2833 3.6121 27.3305 3.04599C22.2844 2.72877 17.4783 4.44822 13.8066 7.89544C10.1855 11.2943 8.10938 16.0915 8.10938 21.0565C8.10938 26.886 10.9444 32.3821 15.6916 35.7588C17.2127 36.8399 18.4755 38.2399 19.4444 39.9188L23.3899 46.7565C23.5488 47.0315 23.746 47.2716 23.9688 47.4799H21.1577C20.6977 47.4799 20.3244 47.8532 20.3244 48.3132C20.3244 48.7732 20.6977 49.1466 21.1577 49.1466H31.1577C31.6177 49.1466 31.991 48.7732 31.991 48.3132C31.991 47.8532 31.6177 47.4799 31.1577 47.4799H28.1949C28.4172 47.2721 28.6144 47.0327 28.7727 46.7577L32.6199 40.0943C33.6272 38.3493 34.8894 36.9499 36.3705 35.9327C41.7099 32.2671 44.6216 26.2088 44.1577 19.7265V19.7265ZM35.4277 34.5588C33.7394 35.7171 32.3094 37.2993 31.1772 39.261L27.3294 45.9238C27.0688 46.3749 26.6022 46.6443 26.0816 46.6443H26.081C25.5599 46.6438 25.0944 46.3749 24.8338 45.9232L20.8877 39.0849C19.7988 37.1977 18.3755 35.621 16.6577 34.3993C12.3488 31.3349 9.77604 26.3471 9.77604 21.0554C9.77604 16.4827 11.6127 12.2399 14.9472 9.10933C18.0172 6.2271 21.9594 4.67433 26.1466 4.67433C26.5044 4.67433 26.8644 4.68599 27.2249 4.70877C35.3494 5.22266 41.9144 11.7299 42.4955 19.846C42.916 25.7315 40.2744 31.2315 35.4277 34.5588V34.5588Z" fill="black"/>
<path d="M26.1597 6.36816C18.0419 6.36816 11.4375 12.9726 11.4375 21.0904C11.4375 29.2082 18.0419 35.8126 26.1597 35.8126C34.2775 35.8126 40.8819 29.2082 40.8819 21.0904C40.8819 12.9726 34.2781 6.36816 26.1597 6.36816V6.36816ZM26.1597 34.1459C18.9608 34.1459 13.1042 28.2893 13.1042 21.0904C13.1042 13.8915 18.9608 8.03483 26.1597 8.03483C33.3586 8.03483 39.2153 13.8915 39.2153 21.0904C39.2153 28.2893 33.3586 34.1459 26.1597 34.1459V34.1459Z" fill="black"/>
<path d="M25.4542 11.8159L15.8803 16.8965C15.6081 17.0415 15.4375 17.3248 15.4375 17.6326C15.4375 17.9403 15.6081 18.2237 15.8803 18.3687L18.0669 19.5292V24.4242C18.0669 24.6559 18.1636 24.8765 18.3331 25.0348C19.2975 25.9315 21.9431 27.9953 25.8442 27.9953C25.8953 27.9953 25.9469 27.9948 25.9981 27.9942C29.8269 27.9409 32.4203 25.9065 33.3569 25.0342C33.5264 24.8765 33.6225 24.6559 33.6225 24.4242V19.5292L34.1781 19.2342V26.0909C34.1781 26.5509 34.5514 26.9242 35.0114 26.9242C35.4714 26.9242 35.8447 26.5509 35.8447 26.0909V18.3431C36.0942 18.1926 36.2514 17.9259 36.2514 17.6326C36.2514 17.3242 36.0808 17.0415 35.8086 16.8965L26.2353 11.8153C25.9914 11.6865 25.6981 11.6865 25.4542 11.8159V11.8159ZM31.9558 24.0503C30.9958 24.8692 28.9136 26.2865 25.9747 26.3276C25.9308 26.3281 25.8875 26.3287 25.8436 26.3287C22.8425 26.3287 20.7147 24.887 19.7336 24.0503V20.4137L25.4542 23.4498C25.5764 23.5142 25.7108 23.547 25.8447 23.547C25.9786 23.547 26.1131 23.5142 26.2353 23.4498L31.9558 20.4137V24.0503ZM25.8447 21.7703L18.0492 17.6331L25.8447 13.4953L33.6403 17.6326L25.8447 21.7703Z" fill="black"/>
</svg>
