<svg width="50" height="50" viewBox="0 0 50 50" fill="none" xmlns="http://www.w3.org/2000/svg">
<g clip-path="url(#clip0_23715_49730)">
<path d="M45.3767 22.2704L49.2726 23.961L48.6109 28.445L22.5895 38.2949L20.5312 36.2367" stroke="black" stroke-width="1.46484" stroke-miterlimit="10" stroke-linecap="round" stroke-linejoin="round"/>
<path d="M18.3203 34.0313L20.5254 36.2363L30.5635 30.5938" stroke="black" stroke-width="1.46484" stroke-miterlimit="10" stroke-linecap="round" stroke-linejoin="round"/>
<path d="M40.6698 15.8018L45.375 17.2716V22.2695L33.5469 28.9189" stroke="black" stroke-width="1.46484" stroke-miterlimit="10" stroke-linecap="round" stroke-linejoin="round"/>
<path d="M19.7194 35.428L17.3672 37.7803" stroke="black" stroke-width="1.46484" stroke-miterlimit="10" stroke-linecap="round" stroke-linejoin="round"/>
<path d="M22.5866 38.2942L20.2344 40.6465" stroke="black" stroke-width="1.46484" stroke-miterlimit="10" stroke-linecap="round" stroke-linejoin="round"/>
<path d="M13.7695 29.4736L11.7109 27.4151L17.9541 10.9239" stroke="black" stroke-width="1.46484" stroke-miterlimit="10" stroke-linecap="round" stroke-linejoin="round"/>
<path d="M19.1562 7.72754L21.5538 1.39355L26.0371 0.732422L27.7285 4.62793" stroke="black" stroke-width="1.46484" stroke-miterlimit="10" stroke-linecap="round" stroke-linejoin="round"/>
<path d="M34.2006 9.33261L32.7304 4.62812H27.7319L13.7656 29.4735L15.9708 31.6787" stroke="black" stroke-width="1.46484" stroke-miterlimit="10" stroke-linecap="round" stroke-linejoin="round"/>
<path d="M14.571 30.2825L12.2188 32.6348" stroke="black" stroke-width="1.46484" stroke-miterlimit="10" stroke-linecap="round" stroke-linejoin="round"/>
<path d="M11.7038 27.4153L9.35156 29.7676" stroke="black" stroke-width="1.46484" stroke-miterlimit="10" stroke-linecap="round" stroke-linejoin="round"/>
<path d="M5.82812 30.9436L19.0594 44.1748" stroke="black" stroke-width="1.46484" stroke-miterlimit="10" stroke-linecap="round" stroke-linejoin="round"/>
<path d="M10.9063 40.7256L3.47656 33.2959" stroke="black" stroke-width="1.46484" stroke-miterlimit="10" stroke-linecap="round" stroke-linejoin="round"/>
<path d="M16.7051 46.5273L13.3203 43.1426" stroke="black" stroke-width="1.46484" stroke-miterlimit="10" stroke-linecap="round" stroke-linejoin="round"/>
<path d="M17.1448 32.8552L15.9688 31.679L34.1985 9.33291L39.638 10.362L40.6671 15.8015L18.321 34.0312L17.1448 32.8552Z" stroke="black" stroke-width="1.46484" stroke-miterlimit="10" stroke-linecap="round" stroke-linejoin="round"/>
<path d="M17.149 32.8549L14.7969 35.207" stroke="black" stroke-width="1.46484" stroke-miterlimit="10" stroke-linecap="round" stroke-linejoin="round"/>
<path d="M16.7059 46.5273C13.0522 50.181 7.12837 50.181 3.47466 46.5273C-0.179053 42.8736 -0.179053 36.9498 3.47466 33.296L8.17915 28.5916L21.4104 41.8228L16.7059 46.5273Z" stroke="black" stroke-width="1.46484" stroke-miterlimit="10" stroke-linecap="round" stroke-linejoin="round"/>
</g>
<defs>
<clipPath id="clip0_23715_49730">
<rect width="50" height="50" fill="white"/>
</clipPath>
</defs>
</svg>
