<svg width="50" height="50" viewBox="0 0 50 50" fill="none" xmlns="http://www.w3.org/2000/svg">
<path d="M8 12.5H14.5V37.5H8C6.61929 37.5 5.5 36.3807 5.5 35V15C5.5 13.6193 6.61929 12.5 8 12.5Z" stroke="black"/>
<path d="M4 18.5H5.5V31.5H4C2.61929 31.5 1.5 30.3807 1.5 29V21C1.5 19.6193 2.61929 18.5 4 18.5Z" stroke="black"/>
<path d="M42 12.5H35.5V37.5H42C43.3807 37.5 44.5 36.3807 44.5 35V15C44.5 13.6193 43.3807 12.5 42 12.5Z" stroke="black"/>
<path d="M46 17.5H44.5V30.5H46C47.3807 30.5 48.5 29.3807 48.5 28V20C48.5 18.6193 47.3807 17.5 46 17.5Z" stroke="black"/>
<rect x="14.5" y="18.5" width="21" height="12" stroke="black"/>
</svg>
