<svg id="Capa_1" enable-background="new 0 0 512 512" height="512" viewBox="0 0 512 512" width="512" xmlns="http://www.w3.org/2000/svg"><g><path d="m0 486.4c0 14.139 11.462 25.6 25.6 25.6h51.2c14.138 0 25.6-11.461 25.6-25.6-.019-17.864-9.358-34.424-24.636-43.682 18.44-14.671 21.495-41.513 6.824-59.953s-41.513-21.495-59.953-6.824-21.495 41.513-6.824 59.953c2.009 2.525 4.299 4.815 6.824 6.824-15.277 9.258-24.616 25.818-24.635 43.682zm25.6-76.8c0-14.138 11.462-25.6 25.6-25.6s25.6 11.462 25.6 25.6-11.462 25.6-25.6 25.6-25.6-11.462-25.6-25.6zm25.6 42.667c18.851 0 34.133 15.282 34.133 34.133 0 4.713-3.82 8.533-8.533 8.533h-51.2c-4.713 0-8.533-3.82-8.533-8.533 0-18.851 15.282-34.133 34.133-34.133z"/><path d="m136.533 486.4c0 14.138 11.462 25.6 25.6 25.6h51.2c14.138 0 25.6-11.461 25.6-25.6-.019-17.864-9.358-34.424-24.636-43.682 18.44-14.671 21.495-41.513 6.824-59.953s-41.513-21.495-59.953-6.824-21.495 41.513-6.824 59.953c2.009 2.525 4.299 4.815 6.824 6.824-15.277 9.258-24.616 25.818-24.635 43.682zm25.6-76.8c0-14.138 11.462-25.6 25.6-25.6 14.139 0 25.6 11.462 25.6 25.6s-11.462 25.6-25.6 25.6-25.6-11.462-25.6-25.6zm25.6 42.667c18.851 0 34.133 15.282 34.133 34.133 0 4.713-3.821 8.533-8.533 8.533h-51.2c-4.713 0-8.533-3.82-8.533-8.533 0-18.851 15.282-34.133 34.133-34.133z"/><path d="m273.067 486.4c0 14.138 11.462 25.6 25.6 25.6h51.2c14.138 0 25.6-11.461 25.6-25.6-.019-17.864-9.358-34.424-24.636-43.682 18.44-14.671 21.495-41.513 6.824-59.953s-41.513-21.495-59.953-6.824-21.495 41.513-6.824 59.953c2.009 2.525 4.299 4.815 6.824 6.824-15.277 9.258-24.616 25.818-24.635 43.682zm25.6-76.8c0-14.138 11.462-25.6 25.6-25.6s25.6 11.462 25.6 25.6-11.462 25.6-25.6 25.6c-14.139 0-25.6-11.462-25.6-25.6zm25.6 42.667c18.851 0 34.133 15.282 34.133 34.133 0 4.713-3.821 8.533-8.533 8.533h-51.2c-4.713 0-8.533-3.82-8.533-8.533-.001-18.851 15.281-34.133 34.133-34.133z"/><path d="m487.364 442.718c18.44-14.671 21.495-41.513 6.824-59.953s-41.513-21.495-59.953-6.824-21.495 41.513-6.824 59.953c2.009 2.525 4.299 4.815 6.824 6.824-15.278 9.258-24.617 25.818-24.636 43.682 0 14.138 11.462 25.6 25.6 25.6h51.2c14.138 0 25.6-11.461 25.6-25.6-.018-17.864-9.357-34.424-24.635-43.682zm-52.164-33.118c0-14.138 11.462-25.6 25.6-25.6s25.6 11.462 25.6 25.6-11.462 25.6-25.6 25.6-25.6-11.462-25.6-25.6zm51.2 85.333h-51.2c-4.713 0-8.533-3.82-8.533-8.533 0-18.851 15.282-34.133 34.133-34.133s34.133 15.282 34.133 34.133c0 4.713-3.82 8.533-8.533 8.533z"/><path d="m503.467 332.8h-128v-34.133c0-2.884-.179-5.717-.435-8.533h43.102c18.851 0 34.133-15.282 34.133-34.133v-221.868c0-18.851-15.282-34.133-34.134-34.133h-324.266c-18.852 0-34.134 15.282-34.134 34.133v221.867c0 18.851 15.282 34.133 34.133 34.133h43.102c-.256 2.816-.435 5.649-.435 8.533v34.134h-128c-4.713 0-8.533 3.82-8.533 8.533s3.821 8.533 8.533 8.533h494.933c4.713 0 8.533-3.821 8.533-8.533s-3.819-8.533-8.532-8.533zm-232.798-110.933-4.267 17.067h-20.804l-4.267-17.067zm-23.945 34.133h18.551l6.059 66.202c-1.826 2.022-3.703 4.045-5.692 6.042-2.813 2.706-6.534 4.267-10.436 4.378-3.452-.115-6.685-1.717-8.866-4.395-1.988-1.988-3.849-4.002-5.675-6.025zm39.902 46.02-4.932-53.905 6.485-25.916c7.247.625 14.368 2.283 21.146 4.924-.753 26.543-8.59 52.402-22.699 74.897zm-30.626-97.22c-37.703 0-68.267-30.564-68.267-68.267s30.564-68.266 68.267-68.266 68.267 30.564 68.267 68.267c-.043 37.684-30.582 68.224-68.267 68.266zm-32.179 17.399 6.485 25.916-4.932 53.905c-14.095-22.501-21.928-48.357-22.69-74.897 6.774-2.642 13.892-4.3 21.137-4.924zm102.016 13.79c20.397 14.358 32.541 37.734 32.563 62.677v34.134h-73.66c23.815-26.973 38.235-60.943 41.097-96.811zm-231.97 37.078c-9.426 0-17.067-7.641-17.067-17.067v-221.867c0-9.426 7.641-17.067 17.067-17.067h324.267c9.426 0 17.067 7.641 17.067 17.067v221.867c0 9.426-7.641 17.067-17.067 17.067h-46.302c-7.479-26.111-25.865-47.723-50.441-59.29l-.196-.094c-5.712-2.677-11.682-4.764-17.818-6.229 39.204-26.156 49.781-79.141 23.625-118.345s-79.141-49.781-118.345-23.625-49.781 79.141-23.625 118.345c6.241 9.355 14.27 17.383 23.625 23.625-6.092 1.454-12.022 3.521-17.698 6.17-.171.068-.324.154-.495.239-24.502 11.579-42.829 33.152-50.295 59.204zm59.733 25.6c.021-24.928 12.152-48.293 32.529-62.652 2.622 35.918 17.074 69.954 41.097 96.785h-73.626z"/></g></svg>