<svg width="50" height="50" viewBox="0 0 50 50" fill="none" xmlns="http://www.w3.org/2000/svg">
<g clip-path="url(#clip0_24310_47693)">
<path d="M49.027 22.2212L42.9585 16.1527C44.2467 15.8365 45.4709 15.1851 46.4763 14.179C47.9464 12.7096 48.6848 10.7759 48.6843 8.85029C48.685 6.92461 47.9464 4.99053 46.477 3.52158C45.0074 2.05078 43.0732 1.31309 41.1475 1.31367C39.2214 1.31299 37.2878 2.05156 35.8188 3.52158C34.813 4.52627 34.1613 5.75049 33.8446 7.03819L27.7773 0.970997C27.129 0.323146 26.2714 -0.00165908 25.4239 -0.000975486C24.5757 -0.00165908 23.7171 0.323243 23.0698 0.970997L14.1456 9.89697C13.7844 10.2582 13.7844 10.8425 14.1456 11.2037L15.2145 12.2731C15.4333 12.492 15.7453 12.5869 16.0491 12.5265C16.3381 12.469 16.6316 12.4401 16.9256 12.4401C18.0758 12.4414 19.2167 12.876 20.0969 13.7536C20.9735 14.6307 21.408 15.7718 21.4092 16.9219C21.4081 18.0738 20.9734 19.2174 20.0957 20.0956C19.218 20.9727 18.0758 21.4079 16.9244 21.4085C15.7736 21.4078 14.6308 20.9727 13.7536 20.0956C12.8753 19.2166 12.4408 18.0757 12.4402 16.9249C12.4395 16.6303 12.4685 16.3374 12.5264 16.0503C12.5867 15.7471 12.4913 15.4333 12.2737 15.215L11.2036 14.1456C10.8425 13.785 10.2574 13.785 9.89621 14.1463L0.97149 23.0713C0.323637 23.7185 -0.00116817 24.5765 3.70599e-06 25.4247C-0.00126583 26.2723 0.323637 27.131 0.971978 27.7781L7.03908 33.8452C5.75089 34.1621 4.52726 34.8136 3.5213 35.8201C2.05186 37.2883 1.31329 39.2226 1.31465 41.1482C1.31339 43.0732 2.05118 45.008 3.52198 46.4776C4.99142 47.9478 6.9257 48.6855 8.85188 48.6843C10.7769 48.6855 12.7105 47.9464 14.1788 46.477C15.1847 45.4711 15.8369 44.2469 16.1531 42.9592L22.2202 49.027C22.8687 49.6748 23.726 49.9996 24.5743 49.9989C25.4224 49.9996 26.2798 49.6747 26.927 49.0274L35.8518 40.1026C36.2125 39.7415 36.2125 39.1564 35.8518 38.7952L34.783 37.7258C34.5648 37.5076 34.2529 37.4127 33.949 37.4725C33.6599 37.5304 33.3659 37.5587 33.0713 37.5587C31.9205 37.5575 30.7789 37.1235 29.9011 36.2464C29.0234 35.3681 28.5888 34.2265 28.5882 33.0751C28.5889 31.9243 29.0241 30.7815 29.9011 29.9031C30.7789 29.0261 31.9211 28.5914 33.0731 28.5902C34.2239 28.5914 35.3662 29.0267 36.2445 29.9037C37.1216 30.782 37.5562 31.9236 37.5568 33.0744C37.5575 33.3678 37.5278 33.6619 37.4705 33.9534C37.4113 34.2566 37.5056 34.5661 37.7245 34.7849L38.7933 35.8543C38.9647 36.0263 39.2033 36.1249 39.4473 36.1249C39.6908 36.1249 39.9287 36.0264 40.1014 35.8543L49.0267 26.9283C49.6752 26.2805 49.9993 25.4225 49.9982 24.5749C49.9989 23.7264 49.6741 22.8685 49.027 22.2212ZM47.7188 25.6213L39.448 33.8915L39.3598 33.8033C39.3876 33.5611 39.4067 33.3177 39.4067 33.0729C39.4074 31.4555 38.7866 29.8294 37.5519 28.5948C36.3173 27.3603 34.6906 26.7389 33.0732 26.7396C31.4551 26.7389 29.8286 27.3597 28.5939 28.5943C27.3587 29.8296 26.7379 31.4563 26.7386 33.0743C26.7379 34.6917 27.3587 36.3185 28.5939 37.553C29.828 38.7877 31.4546 39.4083 33.0715 39.4071C33.3156 39.4071 33.5591 39.3893 33.8024 39.3609L33.8906 39.4491L25.6198 47.7193C25.3326 48.0065 24.9585 48.1483 24.5744 48.1496C24.1897 48.1483 23.8156 48.0066 23.5277 47.7193L16.1069 40.298C15.84 40.0311 15.4406 39.9528 15.0929 40.1001C14.7459 40.2462 14.5234 40.5877 14.5283 40.9643C14.5295 41.0358 14.5307 41.0986 14.5307 41.151C14.5295 42.6105 13.9815 44.0579 12.8707 45.1698C11.7581 46.2818 10.309 46.8348 8.85188 46.8353C7.3923 46.8346 5.94191 46.283 4.82921 45.1703C3.71603 44.0571 3.16495 42.6073 3.16378 41.149C3.16495 39.6906 3.71739 38.2408 4.82872 37.1289C5.94074 36.0169 7.38732 35.4702 8.84758 35.4689C8.905 35.4689 8.96291 35.4701 9.02014 35.4721C9.39924 35.4831 9.74631 35.2625 9.8967 34.9142C10.0471 34.5658 9.96946 34.1621 9.70188 33.894L2.27989 26.4727C1.99268 26.1848 1.85089 25.8106 1.84962 25.4267C1.85079 25.042 1.99259 24.6679 2.27921 24.3807L10.5506 16.1099L10.6381 16.1974C10.6104 16.4408 10.5912 16.6844 10.5912 16.9283C10.5906 18.5457 11.2119 20.1718 12.4465 21.4064C13.6806 22.641 15.3072 23.2623 16.9252 23.2611C18.5433 23.2623 20.1699 22.641 21.404 21.4064C22.6398 20.1705 23.2605 18.5426 23.2592 16.9245C23.2604 15.3071 22.6385 13.6823 21.4051 12.4489C20.1693 11.2137 18.5432 10.5924 16.9264 10.5937C16.6823 10.5937 16.4388 10.6121 16.1954 10.6405L16.1073 10.5523L24.3787 2.28096C24.6659 1.99434 25.04 1.85195 25.4247 1.85068C25.8082 1.85186 26.1828 1.99365 26.4707 2.28154L33.8921 9.70293C34.1607 9.97168 34.5701 10.0487 34.9172 9.8959C35.2648 9.74365 35.4854 9.39111 35.4701 9.01143C35.4676 8.96153 35.4665 8.90723 35.4665 8.84873C35.4683 7.38975 36.0157 5.94248 37.1264 4.83047C38.239 3.71846 39.6889 3.16553 41.1472 3.16504C42.605 3.16572 44.0554 3.71729 45.1679 4.83047C46.2804 5.94365 46.8328 7.39287 46.8333 8.85117C46.8326 10.309 46.2804 11.7594 45.1679 12.8719C44.0553 13.9827 42.6086 14.5294 41.149 14.5306C41.0911 14.5306 41.0337 14.5299 40.977 14.5281C40.5979 14.5171 40.2509 14.7377 40.1005 15.086C39.9501 15.4344 40.0271 15.8381 40.2953 16.1062L47.7173 23.5281C48.0045 23.8153 48.1469 24.1895 48.1481 24.5741C48.1485 24.9593 48.0062 25.3334 47.7188 25.6213Z" fill="black"/>
</g>
<defs>
<clipPath id="clip0_24310_47693">
<rect width="50" height="49.9999" fill="white"/>
</clipPath>
</defs>
</svg>
