<svg width="52" height="50" viewBox="0 0 52 50" fill="none" xmlns="http://www.w3.org/2000/svg">
<path d="M1.28125 18.8398H40.7344C40.7344 18.8398 40.6044 34.3073 30.7725 42.0387H11.3732C11.3732 42.0387 1.41123 33.2582 1.28125 18.8398Z" stroke="#121212" stroke-width="2" stroke-linecap="round" stroke-linejoin="round"/>
<path d="M40.5193 21.7139H47.1041C49.5598 21.7139 49.8894 24.5084 49.7292 26.3861C49.4576 29.5613 45.3772 37.0026 35.0625 37.4297" stroke="#121212" stroke-width="2" stroke-linecap="round" stroke-linejoin="round"/>
<path d="M1.28125 42.0381H40.7344C40.7344 42.0381 40.0799 48.7227 29.7234 48.7227H11.2432C11.2432 48.7227 2.72262 47.9359 1.28125 42.0381Z" stroke="#121212" stroke-width="2" stroke-linecap="round" stroke-linejoin="round"/>
<path d="M11.7644 1.27637C11.7644 1.27637 9.79844 3.0775 11.7644 6.56835C13.7303 10.0592 11.328 13.2042 11.328 13.2042" stroke="#121212" stroke-width="2" stroke-miterlimit="10" stroke-linecap="round"/>
<path d="M20.2331 1.27637C20.2331 1.27637 18.2672 3.0775 20.2331 6.56835C22.199 10.0592 19.7968 13.2042 19.7968 13.2042" stroke="#121212" stroke-width="2" stroke-miterlimit="10" stroke-linecap="round"/>
<path d="M28.6941 1.27637C28.6941 1.27637 26.7281 3.0775 28.6941 6.56835C30.66 10.0592 28.2577 13.2042 28.2577 13.2042" stroke="#121212" stroke-width="2" stroke-miterlimit="10" stroke-linecap="round"/>
</svg>
