<svg width="54" height="54" viewBox="0 0 54 54" fill="none" xmlns="http://www.w3.org/2000/svg">
<g clip-path="url(#clip0_24183_47915)">
<path d="M17.7461 15.4261C17.7461 15.4911 17.745 15.5561 17.7417 15.6199C17.639 18.1571 15.5214 20.1833 12.9239 20.1833C10.3263 20.1833 8.20872 18.1571 8.10603 15.6199C8.10268 15.5561 8.10156 15.4911 8.10156 15.4261C8.10156 12.7998 10.2604 10.6689 12.9239 10.6689C15.5873 10.6689 17.7461 12.7998 17.7461 15.4261Z" stroke="#0E1C45" stroke-width="1.59403" stroke-miterlimit="10" stroke-linecap="round"/>
<path d="M22.5299 15.6196H17.7422" stroke="#0E1C45" stroke-width="1.59403" stroke-miterlimit="10" stroke-linecap="round"/>
<path d="M8.10921 15.6196H2.78125" stroke="#0E1C45" stroke-width="1.59403" stroke-miterlimit="10" stroke-linecap="round"/>
<path d="M20.3464 24.4448V34.3996H19.4467C17.8125 32.6234 15.4527 31.5079 12.8295 31.5079C10.2062 31.5079 7.84643 32.6234 6.21221 34.3996H5.3125V24.4448C5.3125 22.0915 7.24588 20.1831 9.63247 20.1831H16.0265C18.4119 20.1831 20.3464 22.0915 20.3464 24.4448Z" stroke="#0E1C45" stroke-width="1.59403" stroke-miterlimit="10" stroke-linecap="round"/>
<path d="M21.7699 40.3234V43.9144H3.89844V40.3234C3.89844 38.0439 4.77583 35.9649 6.21693 34.4001C7.85115 32.6238 10.2109 31.5083 12.8342 31.5083C15.4574 31.5083 17.8172 32.6238 19.4514 34.4001C20.8925 35.9649 21.7699 38.0439 21.7699 40.3234Z" stroke="#0E1C45" stroke-width="1.59403" stroke-miterlimit="10" stroke-linecap="round"/>
<path d="M16.4232 43.9141V50.1722C16.4232 50.7602 15.9399 51.2359 15.3438 51.2359H10.0794C9.48335 51.2359 9 50.7602 9 50.1722V43.9141H16.4232Z" stroke="#0E1C45" stroke-width="1.59403" stroke-miterlimit="10" stroke-linecap="round"/>
<path d="M46.3095 43.9141H33.056C32.4598 43.9141 31.9766 44.3908 31.9766 44.9789V50.1711C31.9766 50.7592 32.4598 51.2359 33.056 51.2359H46.3095C46.9056 51.2359 47.3889 50.7592 47.3889 50.1711V44.9789C47.3889 44.3908 46.9056 43.9141 46.3095 43.9141Z" stroke="#0E1C45" stroke-width="1.59403" stroke-miterlimit="10" stroke-linecap="round"/>
<path d="M50.3667 2.77881H28.7691C28.2969 2.77881 27.9141 3.15647 27.9141 3.62233V24.9284C27.9141 25.3942 28.2969 25.7719 28.7691 25.7719H50.3667C50.839 25.7719 51.2218 25.3942 51.2218 24.9284V3.62233C51.2218 3.15647 50.839 2.77881 50.3667 2.77881Z" stroke="#0E1C45" stroke-width="1.59403" stroke-miterlimit="10" stroke-linecap="round"/>
<path d="M39.5625 25.772V43.9142" stroke="#0E1C45" stroke-width="1.59403" stroke-miterlimit="10" stroke-linecap="round"/>
<path d="M36.6094 20.1847V9.40283H40.4639C42.3559 9.40283 43.8897 10.9159 43.8897 12.7824C43.8897 14.6324 42.3827 16.1378 40.5085 16.162L36.6094 16.2116" stroke="#0E1C45" stroke-width="1.59403" stroke-miterlimit="10" stroke-linecap="round"/>
</g>
<defs>
<clipPath id="clip0_24183_47915">
<rect width="50" height="50" fill="white" transform="translate(2 2)"/>
</clipPath>
</defs>
</svg>
