<svg width="50" height="50" viewBox="0 0 50 50" fill="none" xmlns="http://www.w3.org/2000/svg">
<path d="M39.5938 6H9.90625C8.87063 6.00124 7.87778 6.41319 7.14548 7.14548C6.41319 7.87778 6.00124 8.87063 6 9.90625V39.5938C6.00124 40.6294 6.41319 41.6222 7.14548 42.3545C7.87778 43.0868 8.87063 43.4988 9.90625 43.5H39.5938C40.6294 43.4988 41.6222 43.0868 42.3545 42.3545C43.0868 41.6222 43.4988 40.6294 43.5 39.5938V9.90625C43.4988 8.87063 43.0868 7.87778 42.3545 7.14548C41.6222 6.41319 40.6294 6.00124 39.5938 6ZM41.9375 39.5938C41.9375 40.2154 41.6906 40.8115 41.251 41.251C40.8115 41.6906 40.2154 41.9375 39.5938 41.9375H9.90625C9.28465 41.9375 8.68851 41.6906 8.24897 41.251C7.80943 40.8115 7.5625 40.2154 7.5625 39.5938V9.90625C7.5625 9.28465 7.80943 8.68851 8.24897 8.24897C8.68851 7.80943 9.28465 7.5625 9.90625 7.5625H39.5938C40.2154 7.5625 40.8115 7.80943 41.251 8.24897C41.6906 8.68851 41.9375 9.28465 41.9375 9.90625V39.5938Z" fill="black"/>
<path d="M24.75 10.6875H16.1562C15.949 10.6875 15.7503 10.7698 15.6038 10.9163C15.4573 11.0628 15.375 11.2615 15.375 11.4688V38.8125C15.375 39.0197 15.4573 39.2184 15.6038 39.3649C15.7503 39.5114 15.949 39.5938 16.1562 39.5938H21.625C21.8322 39.5938 22.0309 39.5114 22.1774 39.3649C22.3239 39.2184 22.4062 39.0197 22.4062 38.8125V31H24.75C27.4436 31 30.0269 29.93 31.9316 28.0253C33.8362 26.1206 34.9062 23.5374 34.9062 20.8438C34.9062 18.1501 33.8362 15.5669 31.9316 13.6622C30.0269 11.7575 27.4436 10.6875 24.75 10.6875V10.6875ZM24.75 29.4375H21.625C21.4178 29.4375 21.2191 29.5198 21.0726 29.6663C20.9261 29.8128 20.8438 30.0115 20.8438 30.2188V38.0312H16.9375V12.25H24.75C27.0292 12.25 29.2151 13.1554 30.8267 14.7671C32.4383 16.3787 33.3438 18.5645 33.3438 20.8438C33.3438 23.123 32.4383 25.3088 30.8267 26.9204C29.2151 28.5321 27.0292 29.4375 24.75 29.4375Z" fill="black"/>
<path d="M25.1406 16.5625H21.625C21.4178 16.5625 21.2191 16.6448 21.0726 16.7913C20.9261 16.9378 20.8438 17.1365 20.8438 17.3438V24.375C20.8438 24.5822 20.9261 24.7809 21.0726 24.9274C21.2191 25.0739 21.4178 25.1562 21.625 25.1562H25.1406C26.2802 25.1562 27.3732 24.7035 28.179 23.8977C28.9848 23.0919 29.4375 21.999 29.4375 20.8594C29.4375 19.7198 28.9848 18.6268 28.179 17.821C27.3732 17.0152 26.2802 16.5625 25.1406 16.5625ZM25.1406 23.5938H22.4062V18.125H25.1406C25.8658 18.125 26.5613 18.4131 27.0741 18.9259C27.5869 19.4387 27.875 20.1342 27.875 20.8594C27.875 21.5846 27.5869 22.2801 27.0741 22.7929C26.5613 23.3057 25.8658 23.5938 25.1406 23.5938Z" fill="black"/>
</svg>
