<svg width="50" height="50" viewBox="0 0 50 50" fill="none" xmlns="http://www.w3.org/2000/svg">
<g clip-path="url(#clip0_23715_48673)">
<path d="M27.9956 26.2917C27.6137 25.9099 26.9955 25.9099 26.6146 26.2917C26.2326 26.6727 26.2326 27.2909 26.6146 27.6728C26.9955 28.0547 27.6137 28.0547 27.9956 27.6728C28.3776 27.2909 28.3776 26.6726 27.9956 26.2917Z" fill="black"/>
<path d="M48.0002 1.99847C45.3344 -0.666075 40.9969 -0.666271 38.3308 1.99857C37.699 2.6304 36.5205 4.36829 34.6498 7.15168C32.2101 10.7817 30.9138 12.8935 28.8819 14.6317C27.3885 15.9068 26.552 16.1351 24.0884 17.0923C19.6172 18.8291 14.0528 20.9907 10.2023 24.8412C7.36138 27.6811 3.80328 33.2368 1.74176 38.0518C1.06305 39.6389 0.494305 41.1658 0.0518254 42.59C-0.0129206 42.7984 -0.00608465 43.0225 0.0713566 43.2265C1.24479 46.3173 3.69039 48.7629 6.78121 49.9363C6.9855 50.0139 7.21021 50.0207 7.4191 49.9554C13.6337 48.0144 21.8264 43.4315 25.3091 39.948C29.162 36.095 31.3242 30.5272 33.0615 26.0534C34.014 23.601 34.2499 22.7519 35.5187 21.268C37.0896 19.4275 38.691 18.4356 41.4458 16.5119C45.0493 13.9919 47.277 12.3915 48.0006 11.6679C50.665 9.00197 50.665 4.66448 48.0002 1.99847ZM31.2403 25.3463C29.5693 29.6494 27.4897 35.0046 23.9274 38.5668C20.6891 41.8058 13.0864 46.0688 7.1648 47.9863C4.8441 47.012 2.99459 45.1624 2.02057 42.8416C2.4277 41.575 2.93727 40.2239 3.53756 38.8203C5.48111 34.2807 8.93999 28.8649 11.5833 26.2225C15.1432 22.6626 20.4953 20.5837 24.7956 18.913C25.1308 18.7828 25.4536 18.6573 25.7691 18.5336L31.6162 24.3808C31.4939 24.6938 31.3694 25.0139 31.2403 25.3463ZM32.4199 22.4218L27.7285 17.7304C28.2948 17.4607 28.8683 17.1105 29.4431 16.6824L33.4676 20.7068C33.0404 21.2803 32.6901 21.8538 32.4199 22.4218ZM34.7452 19.2219L30.9276 15.4044C31.3782 14.9643 31.8206 14.4843 32.2519 13.966L36.1836 17.8978C35.6649 18.3289 35.1849 18.7713 34.7452 19.2219ZM38.1553 16.4262L37.7543 16.7059L33.4442 12.3958C33.7887 11.9018 34.157 11.367 34.5706 10.7597L39.3813 15.5704C38.9713 15.8568 38.5612 16.1429 38.1553 16.4262ZM46.619 10.2867C45.9555 10.9502 43.0118 13.0303 41.0077 14.4342L35.6855 9.11203C35.8833 8.81818 36.0791 8.52697 36.2712 8.24113C37.7685 6.0136 39.1825 3.9095 39.712 3.38001C41.6163 1.4765 44.715 1.47669 46.6189 3.37972C48.5223 5.28401 48.5223 8.38254 46.619 10.2867Z" fill="black"/>
<path d="M26.4063 29.7779C25.9202 29.5436 25.3366 29.7473 25.1022 30.2332C24.2226 32.0568 22.5646 34.3999 21.1598 35.8046C20.1464 36.8181 18.5602 37.9892 16.5729 39.1912C16.1113 39.4703 15.9635 40.0709 16.2427 40.5324C16.5219 40.9942 17.1222 41.142 17.584 40.8627C19.7041 39.5804 21.4181 38.3091 22.5413 37.1859C24.1065 35.6205 25.8831 33.1104 26.8618 31.0819C27.0959 30.5961 26.8921 30.0123 26.4063 29.7779Z" fill="black"/>
</g>
<defs>
<clipPath id="clip0_23715_48673">
<rect width="50" height="50" fill="white"/>
</clipPath>
</defs>
</svg>
