<svg width="50" height="50" viewBox="0 0 50 50" fill="none" xmlns="http://www.w3.org/2000/svg">
<path d="M47.6303 19.4507L41.8501 6.44548C41.5163 5.69391 40.7689 5.2085 39.9465 5.2085H10.0507C9.22826 5.2085 8.48087 5.69391 8.14649 6.44548L2.36733 19.4507C1.71993 20.9064 1.85222 22.5731 2.71993 23.9085C3.5142 25.1309 4.81368 25.8944 6.24858 26.0168V43.7502C6.24858 44.3252 6.71524 44.7918 7.29024 44.7918H42.7069C43.2819 44.7918 43.7486 44.3252 43.7486 43.7502V26.0168C45.184 25.8944 46.4829 25.1309 47.2772 23.9085C48.1449 22.5726 48.2772 20.9064 47.6303 19.4507ZM33.5814 7.29183L37.2944 20.6575C37.5142 21.4486 37.3548 22.2767 36.8585 22.9304C36.3616 23.5835 35.6059 23.9585 34.785 23.9585H33.4704C32.1413 23.9585 31.0288 22.9627 30.8819 21.6418L29.2871 7.29183H33.5814ZM21.3397 20.4882L22.8059 7.29183H27.1913L28.6574 20.4882C28.7553 21.3705 28.472 22.2564 27.8798 22.9174C27.2793 23.5892 26.4522 23.9585 25.5517 23.9585H24.446C23.5454 23.9585 22.7184 23.5892 22.1173 22.9174C21.5251 22.2564 21.2418 21.371 21.3397 20.4882V20.4882ZM19.1152 21.6418C18.9684 22.9627 17.8559 23.9585 16.5267 23.9585H15.2121C14.3913 23.9585 13.6356 23.5835 13.1387 22.9299C12.6423 22.2762 12.483 21.4481 12.7027 20.6569L16.4158 7.29183H20.71L19.1152 21.6418ZM4.46681 22.7736C3.97774 22.0205 3.90587 21.1179 4.27097 20.297L10.0507 7.29183H14.2533L12.5673 13.3606L10.1533 22.0512C9.84076 23.1741 8.80951 23.9585 7.64441 23.9585H6.65066C5.75222 23.9585 4.95639 23.5262 4.46681 22.7736ZM20.8319 42.7085H14.5819V31.2502H20.8319V42.7085ZM22.9152 42.7085V30.2085C22.9152 29.6335 22.4486 29.1668 21.8736 29.1668H13.5402C12.9652 29.1668 12.4986 29.6335 12.4986 30.2085V42.7085H8.33191V25.9882C9.58191 25.8012 10.6939 25.1142 11.4272 24.1127C11.446 24.1382 11.4606 24.1658 11.4798 24.1908C12.3741 25.3674 13.7345 26.0418 15.2121 26.0418H16.5267C18.1027 26.0418 19.5059 25.2606 20.358 24.0502C20.4257 24.1366 20.4908 24.2252 20.5647 24.3075C21.5517 25.4095 22.9663 26.0418 24.4454 26.0418H25.5512C27.0309 26.0418 28.4455 25.4095 29.4319 24.3069C29.5059 24.2246 29.5704 24.1361 29.6387 24.0496C30.4908 25.2606 31.8944 26.0418 33.4704 26.0418H34.785C36.2626 26.0418 37.6231 25.3674 38.5173 24.1908C38.5366 24.1658 38.5512 24.1382 38.5699 24.1127C39.3033 25.1142 40.4152 25.8012 41.6652 25.9882V42.7085H22.9152ZM45.5303 22.7736C45.0408 23.5262 44.2449 23.9585 43.347 23.9585H42.3527C41.1876 23.9585 40.1559 23.1741 39.8439 22.0512L37.4298 13.3606L35.7439 7.29183H39.9465L45.7267 20.297C46.0913 21.1174 46.0194 22.02 45.5303 22.7736ZM36.4569 29.1668H27.0819C26.5069 29.1668 26.0402 29.6335 26.0402 30.2085V38.5418C26.0402 39.1168 26.5069 39.5835 27.0819 39.5835H36.4569C37.0319 39.5835 37.4986 39.1168 37.4986 38.5418V30.2085C37.4986 29.6335 37.0319 29.1668 36.4569 29.1668ZM35.4152 37.5002H28.1236V31.2502H35.4152V37.5002Z" fill="black"/>
</svg>
