<svg width="50" height="50" viewBox="0 0 50 50" fill="none" xmlns="http://www.w3.org/2000/svg">
<circle cx="25" cy="25" r="20.25" stroke="black" stroke-width="1.5"/>
<circle cx="25" cy="25" r="11.25" stroke="black" stroke-width="1.5"/>
<path d="M24.9924 32C23.7375 32 22.7559 31.6832 22.0474 31.0497C21.3491 30.4161 21 29.5375 21 28.4138C21 27.5292 21.2277 26.794 21.6831 26.2083C22.1385 25.6225 22.7306 25.2759 23.4592 25.1683V25.5448C22.8014 25.3775 22.2701 25.0129 21.8653 24.451C21.4706 23.8892 21.2732 23.2078 21.2732 22.4069C21.2732 21.343 21.6022 20.5122 22.26 19.9145C22.9279 19.3048 23.8387 19 24.9924 19C26.1562 19 27.067 19.3048 27.7249 19.9145C28.3928 20.5122 28.7268 21.343 28.7268 22.4069C28.7268 23.2078 28.5345 23.8952 28.1499 24.469C27.7755 25.0428 27.2644 25.3954 26.6167 25.5269V25.1683C27.3352 25.2878 27.9121 25.6405 28.3472 26.2262C28.7824 26.8 29 27.5292 29 28.4138C29 29.5375 28.6458 30.4161 27.9374 31.0497C27.2391 31.6832 26.2574 32 24.9924 32ZM24.9924 30.2069C25.7312 30.2069 26.2827 30.0455 26.6471 29.7228C27.0114 29.388 27.1935 28.8979 27.1935 28.2524C27.1935 27.6069 27.0114 27.1228 26.6471 26.8C26.2827 26.4772 25.7312 26.3159 24.9924 26.3159C24.2638 26.3159 23.7122 26.4772 23.3378 26.8C22.9734 27.1228 22.7913 27.6069 22.7913 28.2524C22.7913 28.8979 22.9734 29.388 23.3378 29.7228C23.7122 30.0455 24.2638 30.2069 24.9924 30.2069ZM24.9924 24.5228C25.6199 24.5228 26.0955 24.3554 26.4194 24.0207C26.7533 23.686 26.9203 23.2257 26.9203 22.64C26.9203 22.0662 26.7533 21.6179 26.4194 21.2952C26.0955 20.9605 25.6199 20.7931 24.9924 20.7931C24.3751 20.7931 23.8994 20.9605 23.5655 21.2952C23.2416 21.6179 23.0797 22.0662 23.0797 22.64C23.0797 23.2257 23.2416 23.686 23.5655 24.0207C23.8994 24.3554 24.3751 24.5228 24.9924 24.5228Z" fill="black"/>
</svg>
