<svg width="50" height="51" viewBox="0 0 50 51" fill="none" xmlns="http://www.w3.org/2000/svg">
<g clip-path="url(#clip0_23715_49264)">
<path d="M43.4132 4.42817H40.9777L40.3012 1.1476C40.1521 0.42598 39.5092 -0.0976562 38.7727 -0.0976562H11.2398C10.5028 -0.0976562 9.85996 0.42598 9.71127 1.1476L9.03437 4.42817H6.59889C5.52333 4.42817 4.64844 5.30306 4.64844 6.37862V9.60338C4.64844 10.6789 5.52333 11.5542 6.59889 11.5542H7.55596L8.09832 15.3653C7.93397 15.4601 7.78414 15.5812 7.65686 15.7276C7.33121 16.1033 7.18444 16.601 7.25439 17.0937L10.8751 42.5328C10.9749 43.2346 11.502 43.7911 12.1678 43.9554L12.683 47.5773C12.8798 48.9587 14.08 50.0002 15.4751 50.0002H34.5374C35.9325 50.0002 37.1326 48.9587 37.3295 47.5773L37.8447 43.9554C38.5105 43.7911 39.0376 43.2346 39.1373 42.5328L42.7581 17.0937C42.828 16.601 42.6812 16.1033 42.3556 15.7276C42.2283 15.5812 42.0785 15.4601 41.9138 15.3653L42.4565 11.5542H43.4136C44.4891 11.5542 45.364 10.6789 45.364 9.60338V6.37862C45.3636 5.30306 44.4887 4.42817 43.4132 4.42817ZM41.3034 16.8865L37.6826 42.3257C37.6654 42.4465 37.5607 42.537 37.4392 42.537H30.409C30.0035 42.537 29.6748 42.8657 29.6748 43.2717C29.6748 43.6776 30.0035 44.0063 30.409 44.0063H36.3537L35.8747 47.3706C35.7803 48.0322 35.2055 48.5313 34.537 48.5313H15.4751C14.8066 48.5313 14.2317 48.0322 14.1373 47.3706L13.6588 44.0063H26.9909C27.3968 44.0063 27.7255 43.6776 27.7255 43.2717C27.7255 42.8657 27.3968 42.537 26.9909 42.537H12.5729C12.4514 42.537 12.3467 42.4465 12.3295 42.3257L8.70872 16.8865C8.69496 16.7898 8.73892 16.7222 8.76644 16.6904C8.79281 16.6602 8.85014 16.6121 8.93958 16.6075C8.94952 16.6071 8.95907 16.6063 8.96939 16.6056H41.0427C41.0526 16.6063 41.0626 16.6071 41.0725 16.6075C41.1619 16.6121 41.2193 16.6602 41.2456 16.6904C41.2732 16.7222 41.3171 16.7898 41.3034 16.8865V16.8865ZM9.0401 11.5542H40.9724L40.4625 15.1367H9.54998L9.0401 11.5542ZM43.8948 9.60338C43.8948 9.86902 43.6788 10.085 43.4132 10.085H6.59889C6.33363 10.085 6.11729 9.86902 6.11729 9.60338V6.37862C6.11729 6.11298 6.33363 5.89702 6.59889 5.89702H13.1719C13.5774 5.89702 13.9061 5.56832 13.9061 5.1624C13.9061 4.75687 13.5774 4.42817 13.1719 4.42817H10.5346L11.1499 1.44459C11.1587 1.40216 11.1966 1.3712 11.2398 1.3712H38.7727C38.8159 1.3712 38.8537 1.40216 38.8625 1.44459L39.4779 4.42817H16.59C16.1841 4.42817 15.8554 4.75687 15.8554 5.1624C15.8554 5.56832 16.1841 5.89702 16.59 5.89702H43.4132C43.6788 5.89702 43.8948 6.11298 43.8948 6.37862V9.60338Z" fill="black"/>
<path d="M30.532 23.5248C30.5271 23.5198 30.5217 23.5152 30.5164 23.5103C28.0748 21.0939 23.6269 21.5954 20.5864 24.6363C19.1332 26.0891 18.2067 27.905 17.9774 29.7496C17.7393 31.6622 18.2724 33.3795 19.4783 34.5854C19.4783 34.5857 19.4787 34.5857 19.4791 34.5861C19.481 34.588 19.4829 34.59 19.4848 34.5915C20.5023 35.6055 21.8817 36.1418 23.4354 36.1418C23.7225 36.1418 24.016 36.123 24.3138 36.0863C26.1583 35.857 27.9742 34.9301 29.4274 33.4773C32.4756 30.4288 32.9729 25.9656 30.5355 23.5282C30.5343 23.5267 30.5332 23.5259 30.532 23.5248V23.5248ZM19.4352 29.9307C19.6243 28.4091 20.4022 26.8979 21.6249 25.6748C23.0899 24.2097 24.9242 23.4376 26.5642 23.4376C27.318 23.4376 28.03 23.6016 28.6469 23.9357C27.4135 24.6684 25.4982 26.1097 24.9157 28.2459C24.4089 30.1031 21.6593 32.1606 20.1503 33.1146C19.5357 32.2703 19.2819 31.1619 19.4352 29.9307ZM28.3886 32.4385C27.1655 33.6615 25.6542 34.439 24.1326 34.6282C23.0578 34.762 22.0763 34.5857 21.2824 34.1301C22.7971 33.1303 25.6985 30.9585 26.333 28.6323C26.8509 26.7324 28.8981 25.4531 29.833 24.9558C31.2869 26.8914 30.7014 30.1253 28.3886 32.4385V32.4385Z" fill="black"/>
</g>
<defs>
<clipPath id="clip0_23715_49264">
<rect width="50" height="50.0978" fill="white"/>
</clipPath>
</defs>
</svg>
