<svg width="51" height="51" viewBox="0 0 51 51" fill="none" xmlns="http://www.w3.org/2000/svg">
<g clip-path="url(#clip0_23715_50179)">
<path d="M45.5437 18.121C45.4915 17.7196 45.1241 17.437 44.7228 17.4885C44.3215 17.5404 44.0385 17.9077 44.0904 18.309C44.1922 19.096 44.2441 19.9005 44.2441 20.7001C44.2441 25.0595 42.693 29.2896 39.877 32.6118C39.8625 32.6286 39.8492 32.6462 39.8366 32.6641L26.566 49.2736C26.5256 49.324 26.4745 49.3358 26.439 49.3366C26.4035 49.337 26.352 49.3278 26.3093 49.2794L22.3626 44.7631C22.0964 44.4584 21.6333 44.4275 21.3289 44.6937C21.0241 44.96 20.9928 45.4227 21.259 45.7275L25.2061 50.2437C25.5174 50.5996 25.9633 50.8018 26.4348 50.8018C26.447 50.8018 26.4592 50.8018 26.4714 50.8014C26.9563 50.7907 27.4079 50.5672 27.7108 50.1884L41.01 33.543C41.0149 33.5365 41.0199 33.5304 41.0249 33.5239C44.0461 29.9431 45.7093 25.3906 45.7093 20.7001C45.7093 19.8379 45.6536 18.9701 45.5437 18.121V18.121Z" fill="black"/>
<path d="M12.0481 32.9589C11.963 32.8635 11.8791 32.7674 11.7906 32.664L11.7669 32.6369C11.7601 32.6281 11.7532 32.6197 11.7463 32.6117C8.93034 29.2899 7.37967 25.0594 7.37967 20.7C7.37967 15.7649 9.34347 11.1129 12.9098 7.60109C16.4777 4.087 21.1618 2.19491 26.101 2.26929C30.063 2.32995 33.8208 3.62847 36.9679 6.02448C40.0597 8.37852 42.2948 11.5745 43.4323 15.2675C43.5513 15.6543 43.961 15.871 44.3478 15.7519C44.7346 15.6329 44.9517 15.2228 44.8327 14.836C43.6047 10.8489 41.1919 7.39891 37.8556 4.85871C34.4575 2.27158 30.4006 0.869684 26.1232 0.804071C20.794 0.723199 15.7316 2.7652 11.8814 6.55701C8.0335 10.3465 5.91406 15.3693 5.91406 20.7C5.91406 25.3909 7.57727 29.943 10.5989 33.5242C10.6099 33.5391 10.6218 33.5536 10.634 33.5677L10.6817 33.6222C10.7713 33.7272 10.8625 33.8309 10.9495 33.9286L19.4665 43.6743C19.6115 43.8399 19.8144 43.9246 20.0185 43.9246C20.1898 43.9246 20.3614 43.8651 20.5003 43.7438C20.8051 43.4775 20.8364 43.0148 20.5701 42.71L12.0481 32.9589Z" fill="black"/>
<path d="M29.5641 19.1549C29.5641 17.087 27.8814 15.4043 25.8131 15.4043C23.7452 15.4043 22.0625 17.087 22.0625 19.1549C22.0625 21.2228 23.7452 22.9055 25.8135 22.9055C27.8814 22.9055 29.5641 21.2228 29.5641 19.1549ZM23.5281 19.1549C23.5281 17.8949 24.5531 16.8695 25.8135 16.8695C27.0735 16.8695 28.0989 17.8945 28.0989 19.1549C28.0989 20.4149 27.0735 21.4403 25.8135 21.4403C24.5531 21.4403 23.5281 20.4149 23.5281 19.1549Z" fill="black"/>
<path d="M33.7096 28.6246C34.0015 28.0722 33.9645 27.4081 33.6127 26.892L31.7035 24.0882C32.8242 22.7519 33.501 21.0311 33.501 19.1546C33.501 15.6962 31.2057 12.765 28.0589 11.8014V8.85153C28.4171 8.80385 28.6937 8.49753 28.6937 8.12636C28.6937 7.72162 28.3656 7.39355 27.9613 7.39355H23.6629C23.2581 7.39355 22.9301 7.72162 22.9301 8.12636C22.9301 8.49753 23.2066 8.80385 23.5652 8.85153V11.8014C21.902 12.3092 20.4376 13.3731 19.4366 14.8551C19.21 15.1904 19.2981 15.6459 19.6334 15.8725C19.9687 16.0991 20.4242 16.0109 20.6508 15.6756C21.812 13.9571 23.7411 12.931 25.8121 12.931C29.2438 12.931 32.0357 15.7229 32.0357 19.1546C32.0357 22.0416 30.0594 24.4754 27.3887 25.1754C27.3261 25.1799 27.2632 25.1914 27.2006 25.2127C27.1865 25.2177 27.1728 25.2242 27.1587 25.2299C26.7246 25.326 26.2744 25.3783 25.8121 25.3783C22.3804 25.3783 19.5884 22.5863 19.5884 19.1546C19.5884 18.8369 19.6128 18.5176 19.6601 18.2059C19.7212 17.8058 19.4465 17.4319 19.0467 17.3709C18.6473 17.3098 18.2727 17.5845 18.2117 17.9847C18.1529 18.3696 18.1232 18.7629 18.1232 19.1546C18.1232 21.0315 18.7999 22.7523 19.9211 24.0886L18.0114 26.8916C17.6593 27.4081 17.6223 28.0722 17.9145 28.6246C18.2067 29.177 18.7763 29.5199 19.4011 29.5199H19.4106L18.2487 32.3161C18.0934 32.6899 18.2704 33.1187 18.6439 33.274C18.7358 33.3121 18.8312 33.33 18.9247 33.33C19.2119 33.33 19.4846 33.1603 19.6018 32.8784L20.0771 31.7343H31.5467L32.0224 32.8784C32.1395 33.1603 32.4119 33.33 32.6991 33.33C32.793 33.33 32.8883 33.3121 32.9799 33.274C33.3537 33.1187 33.5307 32.6899 33.3755 32.3161L32.2135 29.5199H32.2227C32.8479 29.5199 33.4174 29.177 33.7096 28.6246V28.6246ZM25.0304 11.5062V8.85878H26.5933V11.505C26.3362 11.4791 26.0757 11.4657 25.8117 11.4657C25.5492 11.4657 25.2887 11.4799 25.0304 11.5062ZM32.4142 27.9395C32.3863 27.9921 32.3306 28.0547 32.223 28.0547H28.9554L28.3847 26.3995C29.211 26.105 29.972 25.6736 30.6415 25.1319L32.4016 27.7167C32.4622 27.8056 32.442 27.8868 32.4142 27.9395ZM26.9584 26.7577L27.4055 28.0547H23.5858L24.1012 26.6494C24.6516 26.7749 25.2239 26.8435 25.8117 26.8435C26.2016 26.8435 26.5842 26.8138 26.9584 26.7577V26.7577ZM19.2096 27.9395C19.1818 27.8868 19.1615 27.8056 19.2222 27.7167L20.9827 25.1319C21.5064 25.5557 22.0867 25.9116 22.71 26.1878L22.0252 28.0547H19.4007C19.2932 28.0547 19.2375 27.9921 19.2096 27.9395ZM30.9379 30.2691H20.6859L20.9972 29.5199H30.6266L30.9379 30.2691Z" fill="black"/>
</g>
<defs>
<clipPath id="clip0_23715_50179">
<rect width="50" height="50" fill="white" transform="translate(0.84375 0.8125)"/>
</clipPath>
</defs>
</svg>
