<svg width="50" height="50" viewBox="0 0 50 50" fill="none" xmlns="http://www.w3.org/2000/svg">
<g clip-path="url(#clip0_24250_47744)">
<path d="M46.7707 48.3873H3.22228V46.7744H1.60938V50.0002H48.3836V46.7744H46.7707V48.3873Z" fill="black"/>
<path d="M50 43.5488H0V45.1617H50V43.5488Z" fill="black"/>
<path d="M11.2926 16.129C11.2926 12.5718 14.1869 9.67742 17.7442 9.67742C21.3015 9.67742 24.1958 12.5718 24.1958 16.129V25H25.8087V16.129C25.8087 12.5718 28.7031 9.67742 32.2603 9.67742C35.8176 9.67742 38.7119 12.5718 38.7119 16.129V16.9355H40.3248V16.129C40.3248 11.6823 36.7071 8.06452 32.2603 8.06452C29.6208 8.06452 27.2805 9.34516 25.8087 11.3105V4.83871C25.8087 3.05968 27.2555 1.6129 29.0345 1.6129C30.8136 1.6129 32.2603 3.05968 32.2603 4.83871H33.8732C33.8732 2.17016 31.7031 0 29.0345 0C27.3523 0 25.87 0.86371 25.0023 2.16935C24.1345 0.86371 22.6523 0 20.97 0C18.3015 0 16.1313 2.17016 16.1313 4.83871H17.7442C17.7442 3.05968 19.191 1.6129 20.97 1.6129C22.749 1.6129 24.1958 3.05968 24.1958 4.83871V11.3105C22.724 9.34516 20.3837 8.06452 17.7442 8.06452C13.2974 8.06452 9.67969 11.6823 9.67969 16.129V16.9355H11.2926V16.129Z" fill="black"/>
<path d="M11.2926 18.5488H9.67969V20.1617H11.2926V18.5488Z" fill="black"/>
<path d="M11.2926 21.7744H9.67969V23.3873H11.2926V21.7744Z" fill="black"/>
<path d="M40.3238 18.5488H38.7109V20.1617H40.3238V18.5488Z" fill="black"/>
<path d="M40.3238 21.7744H38.7109V23.3873H40.3238V21.7744Z" fill="black"/>
<path d="M13.7069 36.2907H19.3521V41.9359H20.965V36.2907H22.5779V41.9359H24.1908V36.2907H25.8037V41.9359H27.4166V36.2907H29.0295V41.9359H30.6424V36.2907H36.2876C39.1255 36.2907 41.4746 34.1834 41.8682 31.452H45.1585V30.6455C45.1585 28.4222 43.3496 26.6133 41.1263 26.6133H8.8682C6.64481 26.6133 4.83594 28.4222 4.83594 30.6455V31.452H8.12626C8.51981 34.1834 10.869 36.2907 13.7069 36.2907ZM36.2876 34.6778H13.7069C11.7601 34.6778 10.1311 33.2899 9.7561 31.452H40.2384C39.8634 33.2899 38.2343 34.6778 36.2876 34.6778ZM8.8682 28.2262H41.1263C42.1779 28.2262 43.0746 28.9004 43.4077 29.8391H6.58674C6.91981 28.9004 7.81658 28.2262 8.8682 28.2262Z" fill="black"/>
<path d="M37.0973 15.3223H35.4844V16.9352H37.0973V15.3223Z" fill="black"/>
<path d="M37.0973 18.5488H35.4844V21.7746H37.0973V18.5488Z" fill="black"/>
<path d="M14.5192 18.5488H12.9062V20.1617H14.5192V18.5488Z" fill="black"/>
<path d="M14.5192 15.3223H12.9062V16.9352H14.5192V15.3223Z" fill="black"/>
<path d="M45.1598 33.0645H43.5469V34.6774H45.1598V33.0645Z" fill="black"/>
<path d="M45.1598 36.29H43.5469V37.9029H45.1598V36.29Z" fill="black"/>
<path d="M6.44884 33.0645H4.83594V34.6774H6.44884V33.0645Z" fill="black"/>
<path d="M6.44884 36.29H4.83594V37.9029H6.44884V36.29Z" fill="black"/>
</g>
<defs>
<clipPath id="clip0_24250_47744">
<rect width="50" height="50" fill="white"/>
</clipPath>
</defs>
</svg>
