<svg width="65" height="65" viewBox="0 0 65 65" fill="none" xmlns="http://www.w3.org/2000/svg">
<path d="M48.1166 13.1405C47.5717 13.0575 47.059 13.4276 46.973 13.9735C46.888 14.5194 47.2601 15.0311 47.806 15.1171C48.5062 15.2265 49.1449 15.5517 49.6517 16.0556C50.1537 16.5546 50.4769 17.1904 50.5872 17.8925C50.6653 18.3857 51.0901 18.7372 51.5745 18.7372C51.6263 18.7372 51.678 18.7333 51.7308 18.7255C52.2767 18.6396 52.6488 18.1278 52.5638 17.5819C52.387 16.4569 51.8685 15.4393 51.0618 14.6366C50.2533 13.8339 49.2347 13.3163 48.1166 13.1405Z" fill="black"/>
<path d="M48.7796 7.7377C48.2249 7.6566 47.722 8.0268 47.637 8.5717C47.552 9.1176 47.9261 9.6293 48.471 9.7143C50.3694 10.0102 52.095 10.8862 53.4612 12.2475C54.8255 13.6088 55.7034 15.3286 55.9993 17.2211C56.0764 17.7143 56.5022 18.0668 56.9866 18.0668C57.0374 18.0668 57.0901 18.0629 57.1419 18.0551C57.6878 17.9692 58.0608 17.4574 57.9759 16.9125C57.6136 14.5971 56.5404 12.4945 54.8734 10.8314C53.2053 9.1684 51.0979 8.099 48.7796 7.7377Z" fill="black"/>
<path d="M58.7484 6.96873C56.0238 4.24903 52.5716 2.49603 48.764 1.90033C48.221 1.82123 47.7074 2.18943 47.6214 2.73433C47.5364 3.27923 47.9095 3.79093 48.4554 3.87693C51.8412 4.40623 54.9125 5.96473 57.3353 8.38563C59.764 10.8036 61.3255 13.8651 61.8529 17.2381C61.93 17.7313 62.3558 18.0838 62.8402 18.0838C62.891 18.0838 62.9437 18.0799 62.9955 18.0721C63.5414 17.9862 63.9144 17.4754 63.8295 16.9295C63.2357 13.1337 61.4789 9.68843 58.7484 6.96873Z" fill="black"/>
<path d="M30.9278 21.4804C29.8399 20.3945 28.0694 20.3945 26.9835 21.4804L10.1133 38.3065C9.58688 38.8309 9.29688 39.5311 9.29688 40.2762C9.29688 41.0223 9.58688 41.7225 10.1133 42.2469L23.3829 55.4872C23.9268 56.0282 24.6407 56.2987 25.3546 56.2987C26.0694 56.2987 26.7833 56.0282 27.3263 55.4862L44.1964 38.6561C44.7237 38.1307 45.0138 37.4305 45.0128 36.6844C45.0128 35.9393 44.7228 35.2401 44.1964 34.7156L30.9278 21.4804ZM42.7842 37.2401L25.9141 54.0702C25.6055 54.3759 25.1036 54.3768 24.795 54.0702L11.5254 40.831C11.3779 40.6845 11.2969 40.4872 11.2969 40.2763C11.2969 40.0663 11.378 39.8691 11.5254 39.7226L28.3965 22.8964C28.5498 22.7421 28.7529 22.665 28.9551 22.665C29.1573 22.665 29.3604 22.7421 29.5137 22.8964C29.5147 22.8964 29.5147 22.8964 29.5147 22.8964L42.7842 36.1327C42.9317 36.2792 43.0127 36.4755 43.0127 36.6854C43.0137 36.8954 42.9317 37.0927 42.7842 37.2401Z" fill="black"/>
<path d="M35.5589 35.592C35.5589 34.1193 34.9876 32.7385 33.9476 31.7014C31.8011 29.5657 28.306 29.5627 26.1576 31.7024L25.704 32.1549C24.8306 31.4609 23.5567 31.5073 22.7504 32.3118L16.643 38.4026C15.7758 39.2678 15.7748 40.6799 16.643 41.553L24.0844 48.9729C24.519 49.4045 25.0883 49.6204 25.6576 49.6204C26.2279 49.6204 26.7982 49.4046 27.2318 48.972L33.3382 42.8812C33.7581 42.4623 33.9896 41.9037 33.9896 41.3089C33.9896 40.7985 33.812 40.3217 33.4997 39.9299L33.9486 39.4818C34.9876 38.4455 35.5589 37.0647 35.5589 35.592ZM31.9261 41.4641L25.8197 47.5549C25.7347 47.6399 25.5824 47.6428 25.4965 47.5559L18.058 40.1399C17.9721 40.053 17.9711 39.9026 18.0551 39.8186L24.1625 33.7278C24.2055 33.6848 24.265 33.6633 24.3236 33.6633C24.3822 33.6633 24.4418 33.6848 24.4847 33.7278L31.9261 41.1497C31.9818 41.2054 31.9896 41.2718 31.9896 41.3079C31.9895 41.3498 31.9788 41.4113 31.9261 41.4641ZM32.5364 38.0656L32.1013 38.4999L27.1376 33.5492L27.5686 33.1193C28.9397 31.7541 31.1672 31.755 32.5364 33.1183C33.1956 33.7765 33.5589 34.6544 33.5589 35.5919C33.5589 36.5294 33.1956 37.4074 32.5364 38.0656Z" fill="black"/>
<path d="M26.2979 38.5371C25.9073 38.1484 25.2745 38.1465 24.8838 38.5391C24.6065 38.8171 24.536 39.2165 24.6542 39.5652L22.958 41.2578C22.5664 41.6484 22.5664 42.2812 22.956 42.6719C23.1513 42.8682 23.4081 42.9658 23.664 42.9658C23.9199 42.9658 24.1747 42.8681 24.3701 42.6738L26.0675 40.9799C26.1728 41.0161 26.2812 41.0429 26.3915 41.0429C26.6474 41.0429 26.9042 40.9452 27.0995 40.749C27.4891 40.3584 27.4891 39.7246 27.0975 39.3349L26.2979 38.5371Z" fill="black"/>
<path d="M21.8799 18.4321L3.05765 37.2065C2.27445 37.9897 1.84275 39.0347 1.84375 40.147C1.84475 41.2574 2.27635 42.2993 3.05855 43.0786L22.5518 62.522C23.3623 63.3325 24.4268 63.7378 25.4922 63.7378C26.5567 63.7378 27.6221 63.3325 28.4336 62.523L47.2559 43.7496C50.6329 40.3814 52.4921 35.8863 52.4921 31.0914C52.4921 26.2955 50.6328 21.8004 47.2559 18.4322C40.2598 11.4575 28.876 11.4575 21.8799 18.4321ZM48.4313 23.2623C49.7678 25.6203 50.4921 28.2945 50.4921 31.0913C50.4921 35.3511 48.8407 39.3433 45.8438 42.3335L27.0215 61.1069C26.1777 61.9477 24.8067 61.9497 23.9649 61.1069L4.47075 41.6626C4.06735 41.2602 3.84475 40.7212 3.84375 40.145C3.84375 39.5679 4.06645 39.0259 4.47075 38.6216L23.2921 19.8482C26.4015 16.7496 30.4845 15.1998 34.5685 15.1998C37.2816 15.1998 39.9884 15.8998 42.4159 17.2681L41.6437 18.0367C40.841 18.8375 40.3996 19.9049 40.4005 21.0416C40.4015 22.1773 40.8429 23.2418 41.6437 24.0377C42.4718 24.8639 43.5596 25.277 44.6485 25.277C45.7364 25.277 46.8244 24.8639 47.6515 24.0387L48.4313 23.2623ZM46.2402 22.6216C45.3603 23.4976 43.9326 23.4966 43.0547 22.6206C42.6328 22.2017 42.4005 21.6401 42.4005 21.0405C42.4005 20.4389 42.6328 19.8745 43.0547 19.4536L44.1264 18.3869C44.722 18.8328 45.3023 19.3083 45.8438 19.8481C46.381 20.3842 46.859 20.9625 47.308 21.5587L46.2402 22.6216Z" fill="black"/>
</svg>
