<svg width="50" height="50" viewBox="0 0 50 50" fill="none" xmlns="http://www.w3.org/2000/svg">
<path d="M29.1641 5H12.4974C12.0372 5 11.6641 5.37312 11.6641 5.83333V15.8333C11.6641 16.2935 12.0372 16.6667 12.4974 16.6667H29.1641C29.6243 16.6667 29.9974 16.2935 29.9974 15.8333V5.83333C29.9974 5.37312 29.6243 5 29.1641 5ZM28.3307 15H13.3307V6.66667H28.3307V15Z" fill="black"/>
<path d="M26.6667 11.6665H25V13.3332H26.6667V11.6665Z" fill="black"/>
<path d="M23.3307 11.6665H21.6641V13.3332H23.3307V11.6665Z" fill="black"/>
<path d="M20.0026 11.6665H18.3359V13.3332H20.0026V11.6665Z" fill="black"/>
<path d="M26.6649 28.3335H23.5724L27.3991 21.2285C27.6175 20.8234 27.4663 20.3179 27.0613 20.0994C26.7812 19.9484 26.4396 19.9699 26.1807 20.1551L14.5141 28.4885C14.1395 28.7558 14.0524 29.2762 14.3198 29.6509C14.4763 29.87 14.729 30.0002 14.9982 30.0001H18.0907L14.2641 37.1051C14.0456 37.5102 14.1969 38.0157 14.6019 38.2342C14.882 38.3852 15.2236 38.3637 15.4824 38.1785L27.1491 29.8451C27.5237 29.5778 27.6107 29.0574 27.3434 28.6827C27.1869 28.4636 26.9342 28.3335 26.6649 28.3335ZM17.4324 34.7376L20.2199 29.5618C20.438 29.1566 20.2864 28.6512 19.8812 28.433C19.7596 28.3676 19.6238 28.3335 19.4857 28.3335H17.5982L24.2307 23.596L21.4432 28.7718C21.2251 29.177 21.3768 29.6824 21.782 29.9006C21.9036 29.966 22.0394 30.0001 22.1774 30.0001H24.0649L17.4324 34.7376Z" fill="black"/>
<path d="M44.9974 4.16667H44.1641V0.833333C44.1641 0.373125 43.7909 0 43.3307 0C42.8705 0 42.4974 0.373125 42.4974 0.833333V4.16667H40.8307V0.833333C40.8307 0.373125 40.4576 0 39.9974 0C39.5372 0 39.1641 0.373125 39.1641 0.833333V4.16667H38.3307C37.8705 4.16667 37.4974 4.53979 37.4974 5V10C37.4999 11.9793 38.8921 13.6847 40.8307 14.0833V38.3333C40.8307 39.0236 40.271 39.5833 39.5807 39.5833C38.8904 39.5833 38.3307 39.0236 38.3307 38.3333V19.7067C38.3289 18.5299 37.6215 17.469 36.5357 17.015L34.1641 16.0958V4.16667C34.1614 1.86667 32.2974 0.00270833 29.9974 0H11.6641C9.36406 0.00270833 7.5001 1.86667 7.4974 4.16667V43.3333H4.9974C4.53719 43.3333 4.16406 43.7065 4.16406 44.1667V49.1667C4.16406 49.6269 4.53719 50 4.9974 50H36.6641C37.1243 50 37.4974 49.6269 37.4974 49.1667V44.1667C37.4974 43.7065 37.1243 43.3333 36.6641 43.3333H34.1641V17.8833L35.9066 18.5583C36.3659 18.7552 36.6639 19.2069 36.6641 19.7067V38.3333C36.6641 39.9442 37.9699 41.25 39.5807 41.25C41.1916 41.25 42.4974 39.9442 42.4974 38.3333V14.0833C44.436 13.6847 45.8282 11.9793 45.8307 10V5C45.8307 4.53979 45.4576 4.16667 44.9974 4.16667ZM9.16406 4.16667C9.16406 2.78594 10.2833 1.66667 11.6641 1.66667H29.9974C31.3781 1.66667 32.4974 2.78594 32.4974 4.16667V43.3333H9.16406V4.16667ZM35.8307 45V48.3333H5.83073V45H35.8307ZM44.1641 10C44.1641 11.3807 43.0448 12.5 41.6641 12.5C40.2833 12.5 39.1641 11.3807 39.1641 10V5.83333H44.1641V10Z" fill="black"/>
</svg>
