<svg width="50" height="50" viewBox="0 0 50 50" fill="none" xmlns="http://www.w3.org/2000/svg">
<path d="M19.5559 20.5926C19.5396 20.7902 19.6866 20.9637 19.8844 20.9801C20.5816 21.0381 21.2499 21.1422 21.8711 21.2904C21.8991 21.2974 21.9273 21.3006 21.9549 21.3006C22.1173 21.3006 22.2646 21.1894 22.3039 21.0246C22.3499 20.8316 22.2308 20.6379 22.0379 20.5919C21.3814 20.4352 20.6769 20.3249 19.9436 20.2644C19.7443 20.2449 19.5723 20.3954 19.5559 20.5926Z" fill="black"/>
<path d="M18.2063 39.6301C18.2121 39.4321 18.0557 39.2665 17.8576 39.261C12.0084 39.0938 7.24992 36.9128 7.24992 34.3988C7.24992 33.26 8.22075 32.1508 9.98558 31.2588C10.8051 31.9278 11.9843 32.4966 13.4578 32.9066C13.4899 32.9156 13.5222 32.92 13.5542 32.92C13.7116 32.92 13.8559 32.816 13.9003 32.6568C13.9534 32.4658 13.8416 32.2678 13.6504 32.2143C12.1723 31.803 11.0096 31.2241 10.2759 30.5655C10.2746 30.5641 10.2733 30.5628 10.2719 30.5615C9.70575 30.052 9.39608 29.4948 9.39608 28.9305C9.39608 27.807 10.6336 26.699 12.7119 25.947C12.9176 26.0705 13.1349 26.1903 13.3777 26.3008C14.7734 26.9358 16.6311 27.2858 18.6084 27.2858C20.5859 27.2858 22.4437 26.9358 23.8396 26.3008C24.0824 26.1903 24.2997 26.0705 24.5052 25.947C26.5834 26.6986 27.8208 27.8071 27.8208 28.9305C27.8208 29.5065 27.5077 30.0576 26.9549 30.5558C26.9474 30.562 26.9409 30.5685 26.9339 30.5753C25.4406 31.902 22.2289 32.8446 18.6083 32.8446C17.5156 32.8446 16.4449 32.762 15.4261 32.5986C15.2298 32.5671 15.0457 32.7008 15.0144 32.8965C14.9831 33.0925 15.1164 33.2765 15.3123 33.3081C16.3689 33.4773 17.4778 33.5635 18.6083 33.5635C22.3429 33.5635 25.5324 32.6473 27.2299 31.2608C28.6214 31.9643 29.5269 32.802 29.8434 33.6956C29.8954 33.843 30.0341 33.935 30.1819 33.935C30.2217 33.935 30.2623 33.9283 30.3018 33.9143C30.4889 33.848 30.5868 33.6426 30.5204 33.4555C30.1601 32.4376 29.2134 31.5056 27.7807 30.7378C28.2697 30.185 28.5389 29.5751 28.5389 28.9305C28.5389 27.5646 27.3311 26.3153 25.2041 25.4463C25.7794 24.937 26.0863 24.358 26.0863 23.7478C26.0863 22.6626 25.0966 21.6608 23.3708 20.9988C23.1863 20.9298 22.9776 21.0203 22.9067 21.2058C22.8357 21.391 22.9284 21.5988 23.1136 21.6701C24.5251 22.2111 25.3679 22.9876 25.3679 23.7478C25.3679 24.4261 24.7022 25.1185 23.5416 25.6466C22.2374 26.2403 20.4854 26.567 18.6083 26.567C16.7314 26.567 14.9794 26.2403 13.6749 25.6466C12.5144 25.1185 11.8486 24.4265 11.8486 23.7478C11.8486 22.3861 14.5647 20.9286 18.6081 20.9286C18.8064 20.9286 18.9672 20.7676 18.9672 20.5693C18.9672 20.371 18.8064 20.21 18.6081 20.21C14.4149 20.21 11.1301 21.7641 11.1301 23.748C11.1301 24.358 11.4369 24.9371 12.0122 25.4465C9.88492 26.3158 8.67708 27.565 8.67708 28.9305C8.67708 29.5661 8.94225 30.1761 9.43558 30.7343C7.55875 31.74 6.53125 33.0293 6.53125 34.3988C6.53125 37.3961 11.3914 39.795 17.8366 39.979C17.8401 39.979 17.8436 39.9793 17.8471 39.9793C18.0413 39.9795 18.2009 39.8251 18.2063 39.6301Z" fill="black"/>
<path d="M34.9708 40.8514C36.2153 38.7972 36.4523 36.6387 36.4644 36.5187C36.4746 36.4194 36.4428 36.3199 36.3768 36.245C36.3109 36.1699 36.2166 36.1257 36.1166 36.123C36.0529 36.1184 34.6594 36.0915 32.9684 36.5632C32.8766 35.0159 32.4956 33.8737 32.4668 33.7897C32.4336 33.693 32.3609 33.615 32.2669 33.5754C32.1729 33.5364 32.0664 33.5379 31.9739 33.5812C31.9119 33.6105 30.5527 34.258 29.2106 35.3874C28.4311 33.8884 27.5444 32.923 27.4884 32.8632C27.4206 32.7904 27.3254 32.749 27.2259 32.749C27.1263 32.749 27.0312 32.7904 26.9634 32.8632C26.8994 32.9319 26.0591 33.85 25.2984 35.2747C23.9664 34.159 22.6834 33.6012 22.6247 33.5762C22.5327 33.5364 22.4287 33.5375 22.3374 33.5782C22.2462 33.6187 22.1759 33.6952 22.1434 33.7899C22.1144 33.8745 21.7283 35.0297 21.6396 36.5919C19.9339 36.1252 18.3671 36.1244 18.3034 36.1229C18.2019 36.1232 18.1054 36.1665 18.0376 36.2422C17.9698 36.3174 17.9368 36.418 17.9471 36.519C17.9594 36.639 18.1964 38.7969 19.4404 40.8509C18.4388 41.5729 17.9062 42.4195 17.9062 43.3182C17.9062 45.8099 22.0026 47.7617 27.2319 47.7617C29.1633 47.7617 31.0126 47.4895 32.5799 46.9754C32.7684 46.9134 32.8711 46.7104 32.8091 46.522C32.7473 46.333 32.5453 46.2312 32.3558 46.2924C30.8599 46.7835 29.0879 47.0427 27.2319 47.0427C22.5663 47.0427 18.6246 45.3372 18.6246 43.318C18.6246 42.525 19.2316 41.8867 19.8372 41.446C20.1774 41.919 20.5743 42.3759 21.0443 42.7864C22.4156 43.985 23.5859 44.5799 24.5849 44.5799C24.9387 44.5799 25.2701 44.5012 25.5824 44.3524C26.0301 44.6582 26.5764 44.8119 27.2258 44.8119C27.8669 44.8119 28.4071 44.661 28.8514 44.363C29.1572 44.5049 29.4814 44.58 29.8269 44.58C30.8261 44.58 31.9961 43.9852 33.3674 42.7865C33.8368 42.3765 34.2329 41.9202 34.5729 41.4479C35.3901 42.0439 35.8391 42.6999 35.8391 43.3182C35.8391 44.1559 35.1374 44.9885 33.8638 45.6634C33.6884 45.7562 33.6214 45.9732 33.7143 46.1487C33.7788 46.2707 33.9033 46.34 34.0321 46.34C34.0886 46.34 34.1462 46.3264 34.1997 46.2979C35.7202 45.4929 36.5576 44.4349 36.5576 43.3182C36.5578 42.4584 35.9936 41.5925 34.9708 40.8514ZM22.7101 34.4145C23.1933 34.6629 24.0838 35.174 24.9676 35.9385C24.4623 37.0434 24.0594 38.3757 24.0594 39.822C24.0594 41.034 24.1966 42.0177 24.4692 42.7844C23.9597 42.321 23.4682 41.5562 22.9839 40.4765C21.9187 38.1025 22.4518 35.4059 22.7101 34.4145ZM21.5173 42.245C19.5573 40.533 18.9081 37.8694 18.7251 36.8555C19.3179 36.8875 20.4591 36.9954 21.6244 37.3355C21.6359 38.4125 21.8101 39.615 22.3283 40.7704C23.0859 42.4594 23.8772 43.4485 24.7852 43.8432C23.9356 43.9447 22.8588 43.4177 21.5173 42.245ZM24.7779 39.822C24.7779 38.3999 25.2168 37.0752 25.7413 35.9995C25.7463 35.9884 25.7536 35.9785 25.7574 35.967C26.2821 34.8994 26.8884 34.0805 27.2264 33.6622C27.7804 34.3455 29.0528 36.0982 29.5074 38.2659C29.5481 38.4604 29.7394 38.5824 29.9328 38.5439C30.1271 38.5034 30.2514 38.3127 30.2108 38.1185C30.0548 37.3745 29.8126 36.6809 29.5358 36.0567C30.4399 35.2714 31.3929 34.7037 31.9039 34.4259C32.1643 35.4254 32.6899 38.106 31.6266 40.4765C31.0418 41.7807 30.4549 42.5099 29.9379 42.9097C30.2414 42.1265 30.3924 41.1 30.3924 39.822C30.3924 39.6237 30.2316 39.4627 30.0333 39.4627C29.8349 39.4627 29.6741 39.6237 29.6741 39.822C29.6741 43.6075 28.3659 44.0929 27.2263 44.0929C26.0861 44.0929 24.7779 43.6075 24.7779 39.822ZM32.8948 42.245C31.6149 43.364 30.5759 43.8962 29.7456 43.855C30.6966 43.4329 31.5488 42.4057 32.2819 40.7704C32.8046 39.605 32.9778 38.3915 32.9866 37.3074C34.1178 36.972 35.1441 36.8752 35.6882 36.85C35.5081 37.8582 34.8633 40.5252 32.8948 42.245Z" fill="black"/>
<path d="M43.5726 11.3323C43.5726 10.8373 43.2628 10.1122 41.7863 9.46817C41.6041 9.38901 41.3928 9.47167 41.3133 9.65417C41.2341 9.83584 41.3171 10.0475 41.4989 10.127C42.3603 10.5023 42.8541 10.9417 42.8541 11.3323C42.8541 11.5042 42.7576 11.6792 42.5911 11.8522C41.6708 11.015 39.8429 10.5902 38.7671 10.4053C38.5739 10.3715 38.3861 10.5028 38.3521 10.6985C38.3186 10.8942 38.4499 11.0797 38.6454 11.1133C40.1798 11.3772 41.3794 11.8053 41.9948 12.2908C40.7233 13.001 38.1486 13.5798 35.0166 13.5798C31.8836 13.5798 29.3084 13.0007 28.0376 12.29C28.7176 11.7577 30.1143 11.2943 31.8499 11.0425C32.0463 11.014 32.1823 10.8317 32.1538 10.6355C32.1253 10.4395 31.9436 10.3007 31.7466 10.3315C29.7349 10.6233 28.2031 11.1692 27.4429 11.8527C27.2763 11.6797 27.1796 11.5045 27.1796 11.3325C27.1796 10.7482 28.3809 9.90117 31.0189 9.42167C31.2141 9.38617 31.3436 9.19901 31.3079 9.00384C31.2726 8.80851 31.0866 8.67984 30.8903 8.71467C28.1794 9.20767 26.5866 10.1115 26.4723 11.2065C26.4691 11.2253 26.4609 11.2425 26.4609 11.2625V25.4233C26.4609 25.6217 26.6218 25.7827 26.8201 25.7827C27.0186 25.7827 27.1793 25.6217 27.1793 25.4233V12.5792C27.2016 12.597 27.2243 12.6147 27.2476 12.6323C27.2478 12.6325 27.2478 12.6327 27.2481 12.6328C27.2484 12.633 27.2488 12.6332 27.2491 12.6335C28.6998 13.7223 31.9294 14.2987 35.0163 14.2987C38.1003 14.2987 41.3268 13.7235 42.7796 12.6367C42.7816 12.6353 42.7839 12.6348 42.7859 12.6333C42.7871 12.6325 42.7876 12.6312 42.7886 12.6302C42.8108 12.6133 42.8321 12.5965 42.8534 12.5797V29.667C42.8534 30.728 39.4923 31.9143 34.9938 31.9143C33.2071 31.9143 31.5166 31.7342 30.1049 31.3935C29.9101 31.3472 29.7178 31.466 29.6713 31.6585C29.6248 31.8515 29.7434 32.0452 29.9361 32.092C31.4023 32.446 33.1511 32.633 34.9938 32.633C39.1523 32.633 43.5718 31.5933 43.5718 29.6668V11.4602C43.5718 11.4485 43.5663 11.4387 43.5651 11.4273C43.5683 11.3957 43.5726 11.3645 43.5726 11.3323Z" fill="black"/>
<path d="M39.1209 9.43947C39.5456 9.5193 39.9488 9.61213 40.3193 9.71513C40.3514 9.72413 40.3839 9.72847 40.4158 9.72847C40.5731 9.72847 40.7174 9.62447 40.7618 9.4653C40.8149 9.2743 40.7031 9.0758 40.5119 9.0228C40.1218 8.91447 39.6986 8.81697 39.2539 8.73313C39.0586 8.6953 38.8709 8.8248 38.8344 9.01997C38.7976 9.21497 38.9259 9.4028 39.1209 9.43947Z" fill="black"/>
<path d="M35.063 18.7586C36.0917 18.7586 37.0984 18.6989 38.055 18.5816C38.252 18.5574 38.392 18.3781 38.3679 18.1812C38.3437 17.9841 38.1642 17.8464 37.9675 17.8682C37.0397 17.9821 36.0625 18.0397 35.063 18.0397C32.853 18.0397 30.798 17.7629 29.2767 17.2597C29.1677 17.2239 29.0469 17.2426 28.9534 17.3096C28.86 17.3771 28.8047 17.4854 28.8047 17.6007V27.9674C28.8047 28.1222 28.904 28.2597 29.051 28.3086C30.6434 28.8352 32.7784 29.1252 35.0632 29.1252C37.4549 29.1252 39.739 28.7954 41.3297 28.2209C41.4722 28.1694 41.5669 28.0342 41.5669 27.8829V17.5157C41.5669 17.3987 41.5097 17.2889 41.414 17.2217C41.3179 17.1539 41.1959 17.1379 41.0854 17.1777C40.6077 17.3507 40.0544 17.5024 39.4405 17.6291C39.2462 17.6692 39.1212 17.8594 39.1614 18.0536C39.2015 18.2481 39.3907 18.3724 39.5859 18.3331C40.038 18.2396 40.4605 18.1327 40.8482 18.0137V27.6266C39.3455 28.1236 37.2569 28.4062 35.063 28.4062C32.9704 28.4062 31.0164 28.1579 29.523 27.7042V18.0864C31.0535 18.5212 32.9972 18.7586 35.063 18.7586Z" fill="black"/>
<path d="M32.8306 10.4867C33.3926 10.9837 34.0637 11.2662 34.8299 11.3298V12.1243C34.8299 12.3227 34.9907 12.4837 35.1891 12.4837C35.3874 12.4837 35.5482 12.3227 35.5482 12.1243V11.3262C36.7569 11.2477 37.6577 10.8265 38.2202 10.0622C39.3242 8.56333 38.6877 6.34066 38.6601 6.24666C38.6214 6.11533 38.5112 6.01699 38.3761 5.99399C38.2406 5.97099 38.1046 6.02633 38.0242 6.13749C38.0089 6.15899 37.9894 6.18499 37.9669 6.21466C37.9966 5.08933 37.6391 3.39749 35.5797 2.21366C35.4439 2.13616 35.2734 2.15433 35.1579 2.25999C35.0426 2.36566 35.0087 2.53399 35.0744 2.67599C35.0944 2.71933 35.5549 3.74249 34.6929 4.40749C34.3099 4.70299 34.0311 4.97666 33.8281 5.21316C33.8314 5.12966 33.8451 5.05716 33.8726 5.00383C33.9482 4.85683 33.9139 4.67749 33.7894 4.56883C33.6652 4.45999 33.4826 4.44999 33.3474 4.54499C33.3147 4.56766 32.5424 5.11566 32.0371 6.16116C31.3152 7.65666 31.6414 9.43533 32.8306 10.4867ZM32.6842 6.47399C32.8267 6.17933 32.9957 5.93099 33.1567 5.73099C33.2092 6.00149 33.2899 6.22016 33.3197 6.29666C33.3761 6.43899 33.5214 6.53566 33.6697 6.52049C33.8227 6.51433 33.9561 6.40816 34.0002 6.26166C34.0017 6.25616 34.1729 5.71666 35.1322 4.97683C35.7499 4.49966 35.9341 3.87133 35.9294 3.32399C37.8576 4.92033 37.1387 7.05533 37.1027 7.15749C37.0511 7.30249 37.0974 7.46466 37.2182 7.56016C37.3389 7.65599 37.5077 7.66299 37.6371 7.57933C37.7934 7.47766 37.9579 7.32366 38.1064 7.16566C38.1902 7.85133 38.1936 8.88899 37.6401 9.63866C37.2161 10.213 36.5116 10.5372 35.5484 10.6085V9.13266C35.5484 8.93433 35.3876 8.77333 35.1892 8.77333C34.9909 8.77333 34.8301 8.93433 34.8301 9.13266V10.5983C34.2471 10.5312 33.7334 10.326 33.3067 9.94883C32.3576 9.10949 32.1017 7.68033 32.6842 6.47399Z" fill="black"/>
<path d="M19.0161 14.7711C18.8855 14.9205 18.901 15.1473 19.0503 15.278C19.1185 15.3376 19.2028 15.3668 19.2865 15.3668C19.3866 15.3668 19.4863 15.3251 19.5571 15.2436C19.578 15.2198 21.6218 12.8295 19.9325 10.2735C18.5555 8.18946 19.8436 6.66996 19.9018 6.60296C20.0328 6.45479 20.0193 6.22829 19.8716 6.09696C19.7231 5.96446 19.4965 5.97846 19.3643 6.12613C19.347 6.14563 17.6426 8.11113 19.333 10.6695C20.717 12.7635 19.0856 14.6905 19.0161 14.7711Z" fill="black"/>
<path d="M17.0235 18.0351C16.8928 18.1845 16.9083 18.4113 17.0577 18.542C17.1258 18.6016 17.2102 18.6308 17.2938 18.6308C17.394 18.6308 17.4937 18.5891 17.5645 18.5076C17.5853 18.4838 19.6292 16.0931 17.9403 13.5371C16.5613 11.4513 17.8541 9.93013 17.91 9.86663C18.0408 9.71847 18.0273 9.49197 17.8797 9.36063C17.7315 9.22813 17.5045 9.24213 17.3725 9.3898C17.355 9.4093 15.6501 11.3755 17.341 13.9331C18.7245 16.0271 17.0931 17.9543 17.0235 18.0351Z" fill="black"/>
</svg>
