<svg width="50" height="50" viewBox="0 0 50 50" fill="none" xmlns="http://www.w3.org/2000/svg">
<path d="M22.8989 11.5517C23.08 11.4224 23.1662 11.2069 23.1317 10.9827L22.9679 10.0172L23.6662 9.33621C23.83 9.18104 23.8817 8.94828 23.8127 8.74138C23.7438 8.52587 23.5627 8.37931 23.3472 8.34483L22.3817 8.2069L21.9507 7.32759C21.8386 7.12069 21.6403 7 21.4162 7C21.192 7 20.9938 7.12931 20.8989 7.32759L20.4679 8.2069L19.5024 8.34483C19.2783 8.37931 19.0972 8.52587 19.0283 8.74138C18.9593 8.9569 19.0196 9.18104 19.1748 9.33621L19.8731 10.0172L19.7093 10.9827C19.6748 11.1982 19.761 11.4224 19.942 11.5517C20.0455 11.6293 20.1662 11.6638 20.2869 11.6638C20.3817 11.6638 20.4679 11.6379 20.5541 11.5948L21.4248 11.1379L22.2955 11.5948C22.4851 11.6982 22.7179 11.681 22.8989 11.5517ZM21.4162 10.3189C21.3558 10.3189 21.2955 10.3362 21.2351 10.362L20.5283 10.7327L20.6662 9.94823C20.6834 9.82759 20.6489 9.69828 20.5541 9.60345L19.9851 9.04311L20.7783 8.93104C20.8989 8.9138 21.011 8.83621 21.0714 8.72414L21.4248 8.00862L21.7783 8.72414C21.83 8.83621 21.942 8.9138 22.0714 8.93104L22.8645 9.04311L22.2955 9.60345C22.2007 9.68966 22.1662 9.81897 22.1834 9.94823L22.3214 10.7327L21.6145 10.362C21.5455 10.3362 21.4765 10.3189 21.4162 10.3189Z" fill="black"/>
<path d="M32.7832 33.7068C32.9815 33.3362 32.7487 33 32.628 32.819L32.5677 32.7327C32.5246 32.6724 32.4987 32.6379 32.4901 32.612C32.447 32.4224 32.4384 32.2156 32.4384 32C32.4298 31.7414 32.4211 31.4655 32.3522 31.1896C32.4987 30.9655 32.447 30.7241 32.4125 30.5948L32.3608 30.362C32.2574 29.9051 32.1625 29.4396 31.947 28.9827C31.9211 28.931 31.9211 28.8448 31.9211 28.7499C31.9125 28.5862 31.9125 28.362 31.7832 28.1379L31.7401 28.0603C31.5505 27.7241 31.4298 27.5086 31.516 27.2499C31.5677 27.0862 31.4987 26.9482 31.4556 26.8793C31.3694 26.5431 31.1108 26.3879 30.9384 26.2844C30.8953 26.2586 30.8608 26.2328 30.8177 26.2069C30.5591 26.0173 30.3953 25.7327 30.2142 25.4224C30.1022 25.2327 29.9815 25.0344 29.8263 24.8362C29.8608 24.6637 29.8522 24.4568 29.6539 24.3189C29.5763 24.2672 29.5246 24.2241 29.4211 24.2499C29.3436 24.1465 29.2315 24.0517 29.0677 23.9741C28.766 23.681 28.4298 23.431 28.0677 23.2155C27.5936 22.9396 27.128 22.6206 26.8608 22.1896C26.628 21.8103 26.3436 21.5689 26.0677 21.3362L25.8608 21.1637C25.7746 21.0948 25.697 21.0344 25.6625 20.9827C25.5849 20.8706 25.5074 20.7672 25.4211 20.6637C25.128 20.3017 24.9901 20.0949 25.0936 19.7673C25.1539 19.5863 25.0763 19.431 25.0332 19.3448C24.8608 18.9741 24.5505 18.7844 24.3005 18.6379C24.2315 18.5948 24.1625 18.5604 24.1022 18.5173C23.7229 18.2587 23.4987 18.0087 23.3694 17.7069C23.2574 17.4483 23.1194 17.1465 22.878 16.8706C22.8522 16.8362 22.8522 16.8017 22.8694 16.7844C23.1108 16.5517 23.2746 16.2155 23.3005 15.8706C23.3263 15.4396 23.3522 15.069 23.5849 14.7673C23.6367 14.7069 23.6625 14.638 23.6798 14.569C23.9125 14.5949 24.1367 14.4655 24.3349 14.181C24.378 14.1206 24.4125 14.0604 24.4556 14C24.5677 13.8276 24.6108 13.7672 24.6711 13.7586C25.1194 13.7155 25.3694 13.4569 25.3867 12.9914C25.3867 12.9138 25.3867 12.8363 25.378 12.75C25.378 12.7156 25.3694 12.6551 25.3694 12.6206C25.4556 12.5258 25.5332 12.4225 25.6194 12.319C25.7315 12.1725 25.8349 12.0432 25.947 11.9397C25.9901 11.8966 26.0849 11.819 26.1367 11.6897C26.7401 11.7328 27.2746 11.4999 27.697 10.9999C27.8005 10.8793 27.8436 10.7587 27.8436 10.6294C28.0246 10.5518 28.0849 10.3965 28.1367 10.3275C28.2056 10.2844 28.3005 10.2241 28.378 10.1206C28.4987 10.1551 28.6798 10.181 28.878 10.0603C29.0936 9.93965 29.1453 9.77585 29.1453 9.66379C29.1539 9.56896 29.128 9.39655 28.8867 9.21551C28.697 9.07758 28.4211 8.86207 27.9901 8.96551C27.5074 9.07758 27.5073 9.07758 27.0677 8.78448C26.8953 8.67241 26.7229 8.70689 26.7056 8.71551C26.6194 8.70689 26.5591 8.66379 26.5505 8.63793C26.4815 8.43103 26.3522 8.15517 25.947 8.0862C25.6798 8.0431 25.6022 7.95689 25.6108 7.67241C25.628 7.31896 25.5074 7.14655 25.3608 7.05172C25.3608 7.03448 25.3694 7.01724 25.3694 7C25.5591 6.97413 25.7142 6.82758 25.8263 6.57758C25.9298 6.36207 26.0591 5.96551 25.8436 5.71551C25.5246 5.34482 24.7832 5.22413 24.3522 5.45689C23.9987 5.06896 23.5505 5.16379 23.266 5.26724C23.2142 5.24138 23.1539 5.21551 23.1022 5.19827C22.9384 5.12931 22.7315 5.0431 22.6798 4.95689C22.5505 4.75862 22.3953 4.57758 22.2487 4.39655L22.1194 4.24138C22.0763 4.16379 21.9125 4.00862 21.7056 4C21.5849 4 21.4125 4.09482 21.3436 4.18965C21.2056 4.37069 20.9815 4.45689 20.7229 4.55172C20.6367 4.5862 20.5505 4.62069 20.4642 4.65517C19.8867 4.90517 19.9556 5.3362 20.0332 5.52586C19.7056 5.50862 19.4298 5.65517 19.2315 5.77586C19.1884 5.70689 19.1367 5.65517 19.0677 5.62069C18.8522 5.49138 18.628 5.5862 18.4901 5.63793C18.2487 5.73276 18.0677 5.91379 17.9556 6.16379C17.8608 6.07758 17.766 5.99138 17.6711 5.89655C17.6022 5.82758 17.4642 5.69827 17.2401 5.72413C17.0591 5.75 16.9556 5.87069 16.8953 5.94827C16.7746 5.77586 16.6367 5.67241 16.447 5.68965C16.3177 5.68965 16.128 5.75 15.9729 6.00862C15.8867 6.15517 15.8005 6.2931 15.7056 6.43103L15.6453 6.56896C15.4901 6.32758 15.2746 6.18965 15.0763 6.06896C14.8436 5.92241 14.4987 5.74138 14.1367 5.85345C13.7746 5.96551 13.5849 6.30172 13.4729 6.5431C13.4642 6.5862 13.447 6.63793 13.4298 6.68965C13.4125 6.74138 13.378 6.81896 13.3608 6.82758C13.2315 6.82758 13.128 6.91379 13.0591 7.01724C12.9901 7.12069 12.9815 7.27586 13.0332 7.39655C13.0505 7.43965 13.0936 7.51724 13.128 7.55172L13.3522 7.80172C13.628 8.11207 13.9039 8.43103 14.1884 8.73276C14.2487 8.7931 14.2832 8.86207 14.3091 9.01724C14.3177 9.37931 14.4729 9.5862 14.7746 9.64655C14.8263 9.65517 14.8867 9.66379 14.9556 9.65517C14.9211 9.78445 14.9211 9.91375 14.9987 10.0431C14.9384 10.112 14.8694 10.1983 14.8263 10.319C14.7918 10.4225 14.8005 10.5431 14.8608 10.6379C14.9039 10.7155 14.9729 10.7758 15.0591 10.8017C15.0677 10.8275 15.0763 10.862 15.0936 10.9051C15.2401 11.3103 15.5332 11.5689 15.7918 11.7931L15.9039 11.8965C16.1194 12.0948 16.5246 12.2241 16.7746 12.0431C16.7918 12.0517 16.8263 12.0949 16.8608 12.1294C16.9298 12.1983 17.1367 12.4138 17.4384 12.3794C17.7315 12.3449 17.8953 12.0862 17.947 11.9999C18.0246 11.8793 18.1711 11.7844 18.3436 11.7499C18.5332 11.7155 18.7142 11.7413 18.8522 11.8362C18.9987 11.9396 19.1367 12.0431 19.2746 12.1465C19.1108 12.2241 18.9815 12.3879 18.9125 12.6034C18.878 12.7068 18.8953 12.8275 18.9556 12.9224C19.016 13.0172 19.1108 13.0862 19.2229 13.1034L19.3436 13.1206C19.447 13.1379 19.5505 13.1551 19.6453 13.1637C19.6108 13.3706 19.6884 13.5 19.7401 13.569C19.8522 13.6983 20.016 13.7499 20.2229 13.7327C20.266 13.7241 20.3177 13.7241 20.3608 13.7241C19.9556 13.8965 19.947 14.1637 19.9815 14.362C19.9642 14.3879 19.878 14.4482 19.8263 14.4827C19.7746 14.5172 19.7229 14.5518 19.6711 14.5863C19.516 14.4311 19.3091 14.362 19.0591 14.3965C18.8694 14.4224 18.6884 14.431 18.4987 14.4482C18.4125 14.4568 18.1625 14.4655 18.0418 14.6896C17.9125 14.9137 18.0332 15.138 18.1022 15.2845C18.1022 15.2932 18.0763 15.3275 17.9729 15.3879C17.878 15.4396 17.7229 15.5172 17.6108 15.7155C17.5505 15.8189 17.5418 15.9397 17.5849 16.0518C17.628 16.1638 17.7229 16.2413 17.8349 16.2758C18.3436 16.431 18.8005 16.6982 19.3349 17.1551C19.7574 17.5172 20.2401 17.7413 20.8091 17.8448C20.8177 17.8448 20.8349 17.8448 20.8436 17.8534C20.8349 17.8706 20.8263 17.8965 20.8177 17.9137C20.6367 18.3965 21.3091 19.1206 21.3177 19.1293C21.4039 19.2155 21.6367 19.4741 21.9642 19.431C21.9642 19.4396 21.9729 19.4483 21.9729 19.4569C22.2746 20.3363 22.8091 21.0431 23.5418 21.5689C23.5591 21.5862 23.5763 21.612 23.6022 21.6293C23.6884 21.7241 23.8005 21.8879 24.0677 21.8793C24.0849 21.8965 24.1022 21.9655 24.1194 21.9999C24.1539 22.0862 24.1884 22.1725 24.2315 22.2673C24.3177 22.4914 24.447 22.5948 24.5763 22.6465C24.5849 22.8448 24.6022 23.0517 24.6194 23.2499C24.6539 23.5862 24.8349 23.9051 25.1022 24.0948C25.2229 24.181 25.3694 24.2155 25.516 24.181C25.5505 24.1724 25.5763 24.1637 25.6022 24.1551C25.7574 24.3448 25.9556 24.4913 26.2229 24.5862C26.2401 24.6034 26.2746 24.6638 26.3005 24.7069C26.3953 24.8707 26.516 24.9999 26.6539 25.0862C26.6367 25.0948 26.628 25.1034 26.6108 25.112C26.1625 25.3706 26.3436 25.7327 26.3694 25.7758C26.3953 25.8275 26.4298 25.8879 26.4556 25.9482C26.5677 26.1982 26.7142 26.4999 27.0418 26.6551C27.1884 26.7241 27.2918 26.8448 27.4298 26.9827L27.4901 27.0431C27.516 27.0948 27.4815 27.2413 27.4815 27.2586C27.3953 27.2844 27.1367 27.362 27.0677 27.612C27.0073 27.8189 27.1108 27.9827 27.197 28.0862C27.1453 28.2155 27.1453 28.3449 27.1539 28.4569V28.5518C27.1625 28.7759 27.1625 28.9655 27.0677 29.112C26.9815 29.2499 26.9211 29.3965 26.8522 29.5431C26.8177 29.6206 26.7832 29.7068 26.7401 29.7844C26.516 30.2155 26.7315 30.4741 26.878 30.5948C26.9039 30.612 26.9298 30.638 26.9298 30.7414C26.9298 30.8535 26.9125 31.112 27.1194 31.3189C27.3522 31.5517 27.3953 31.7931 27.266 32.1293C27.0246 32.7586 27.0073 33.3966 27.2229 34.0173C27.2918 34.2069 27.2487 34.431 27.197 34.6896C27.197 34.6896 27.1884 34.6982 27.1798 34.7155C26.7574 34.5344 26.3953 34.638 26.0849 35.0345C26.0332 35.1035 25.9298 35.2414 25.8867 35.25C25.8436 35.2587 25.8091 35.2587 25.766 35.2673C25.6194 35.2759 25.3349 35.3018 25.1367 35.5345H25.0936C24.9987 35.5345 24.9125 35.5344 24.8177 35.5258C24.6022 35.5086 24.4384 35.5603 24.3177 35.6896C24.197 35.8189 24.1711 35.9913 24.2142 36.1982H24.2056C23.9901 36.1293 23.516 35.9655 23.1711 36.4051C22.9556 36.431 22.8349 36.5344 22.7746 36.6293C22.628 36.8534 22.7315 37.1034 22.7746 37.181L22.8263 37.2845C22.8349 37.2932 22.8349 37.3104 22.8436 37.319C22.7056 37.6638 22.8177 37.9137 22.9815 38.0948C22.9384 38.0862 22.8953 38.0863 22.8694 38.0863H22.697C22.378 38.0863 21.9729 38.0862 21.6453 38.431C21.6194 38.431 21.5505 38.4051 21.4556 38.3706C21.197 38.2327 20.9729 38.25 20.7832 38.4225C20.4987 38.6725 20.5763 38.9655 20.6453 39.1551L20.6194 39.181C20.3867 39.4051 20.3177 39.4396 20.1884 39.4051C20.0505 39.3706 19.9211 39.3879 19.8263 39.3965C19.516 39.4396 19.2574 39.7844 19.1798 39.9482C19.0677 40.181 19.1367 40.3449 19.1798 40.4225L19.4384 40.8363C19.5763 41.0604 19.7401 41.1207 19.8608 41.138C19.9384 41.1466 20.0418 41.1379 20.1539 41.0775C20.2142 41.1551 20.3091 41.25 20.4384 41.3018C20.0936 41.6121 20.0591 42.069 20.0418 42.4225C20.0246 42.7414 20.0074 43.0603 19.9901 43.3793L19.9729 43.7931C19.9729 43.8362 19.9642 43.8793 19.9556 43.931C19.9298 44.0948 19.8953 44.3103 19.9901 44.4913C19.9815 44.5086 19.9729 44.5258 19.9729 44.5431C19.9125 44.6034 19.8263 44.7156 19.8263 44.888C19.8263 45 19.9211 45.1637 19.9987 45.2327C20.1194 45.3362 20.266 45.388 20.4298 45.388C20.516 45.388 20.6108 45.3706 20.697 45.3448C20.7487 45.3275 20.8091 45.3104 20.8694 45.3018C21.1108 45.25 21.4901 45.1638 21.6711 44.75C21.6798 44.75 21.6798 44.7413 21.6884 44.7413C21.9384 44.612 22.1108 44.4051 22.1884 44.1465C22.2142 44.0689 22.266 43.9828 22.4729 43.888C22.878 43.6983 23.2574 43.5172 23.6625 43.4051C23.9556 43.3275 24.1022 43.112 24.197 42.9827C24.2142 42.9568 24.2487 42.9137 24.2487 42.9051C24.2746 42.8879 24.3177 42.8534 24.3608 42.8103C24.6022 42.8965 24.8694 42.8363 25.0849 42.638C25.3177 42.4311 25.4039 42.1638 25.3349 41.9225C25.3694 41.9052 25.4039 41.8793 25.4384 41.8448C25.5936 41.7068 25.6108 41.5517 25.6108 41.4741C25.6108 41.4396 25.6022 41.3965 25.5936 41.3706C25.7746 41.181 25.8867 41.0173 25.8436 40.8018C25.8349 40.7587 25.8263 40.7241 25.8091 40.6896C25.8091 40.681 25.8177 40.6811 25.8177 40.6725C25.8522 40.6294 25.8694 40.5775 25.8867 40.5258C25.9125 40.5258 25.9384 40.5172 25.9642 40.5086C25.9987 40.4999 26.0418 40.4827 26.0763 40.4482L26.1108 40.4827C26.2315 40.5862 26.378 40.6121 26.5677 40.5518C27.1022 40.388 27.6539 40.2242 28.1453 39.8535C28.3177 39.7242 28.3867 39.6982 28.3694 39.6982C28.9642 39.8017 29.0936 39.3362 29.1367 39.181C29.1711 39.0689 29.2056 39.069 29.2574 39.069C29.628 39.0949 29.9901 38.9051 30.2487 38.5431C30.3005 38.4655 30.4039 38.4224 30.5677 38.362C30.7142 38.3017 30.9125 38.2241 31.0677 38.0775C31.2142 38.0948 31.3349 38.069 31.447 38C31.6884 37.8535 31.7142 37.5775 31.7401 37.362C31.7487 37.2672 31.7574 37.2413 31.7832 37.2413C32.0246 37.1724 32.2056 36.9999 32.266 36.7758C32.3005 36.6551 32.2918 36.5344 32.2573 36.4137C32.3522 36.3275 32.4039 36.1982 32.3867 36.0775C32.3867 36.0086 32.3867 35.8879 32.3177 35.7586C32.2315 35.6206 32.2401 35.4568 32.266 35.1982C32.266 35.1551 32.2746 35.112 32.2746 35.0603C32.3608 35.0172 32.4384 34.9397 32.4815 34.819C32.5074 34.7328 32.5074 34.6637 32.4901 34.5948C32.6108 34.5948 32.7487 34.5344 32.8177 34.431C32.9384 34.2586 33.016 34.0258 32.7832 33.7068ZM32.0246 33.4482C31.5505 33.6465 31.5246 34.0086 31.5505 34.2155C31.5591 34.3017 31.5591 34.4051 31.6022 34.5258C31.5418 34.6034 31.5073 34.7155 31.516 34.8706C31.516 34.9482 31.5074 35.0344 31.4987 35.112C31.4815 35.3017 31.4642 35.5172 31.516 35.7413C31.4987 35.7586 31.4815 35.7758 31.4642 35.7931C31.3694 35.9137 31.197 36.1982 31.447 36.5258C31.0591 36.7068 31.016 37.0689 30.9901 37.2413C30.8436 37.2413 30.6798 37.3017 30.5849 37.4482C30.5418 37.5172 30.4556 37.5603 30.2918 37.6206C30.0849 37.7068 29.8177 37.8103 29.628 38.0775C29.5936 38.1293 29.4642 38.2931 29.3263 38.2758C28.878 38.2413 28.5505 38.4827 28.4211 38.9051C28.1798 38.9224 27.9125 39.0517 27.7056 39.2068C27.3867 39.4482 27.0074 39.5862 26.5849 39.7155C26.5677 39.7068 26.5591 39.6896 26.5418 39.681C26.5418 39.681 26.5418 39.6724 26.5332 39.6637C26.3867 39.3017 26.1539 39.2499 25.9815 39.2758C25.8953 39.2844 25.7487 39.3275 25.6539 39.4568C25.5505 39.3706 25.4039 39.3534 25.2746 39.3965C25.1108 39.4568 25.016 39.6206 25.0332 39.7931C25.0418 39.9137 25.0849 40.0258 25.1194 40.1293C25.128 40.1465 25.128 40.1637 25.1367 40.181C25.128 40.181 25.128 40.181 25.1194 40.181C25.0074 40.1896 24.8953 40.2327 24.8349 40.3275C24.766 40.4224 24.7401 40.5259 24.7746 40.638C24.7918 40.7414 24.8522 40.8535 24.9384 40.9225C24.9125 40.9397 24.8867 40.9655 24.8608 40.9913L24.8005 40.9482C24.6625 40.8448 24.516 40.7413 24.3177 40.6637C24.1539 40.6034 23.9642 40.6637 23.8694 40.8103C23.7746 40.9568 23.7832 41.1466 23.8953 41.2845L24.4039 41.862C24.3867 41.8448 24.3694 41.8276 24.3522 41.819C24.1022 41.5432 23.8349 41.6551 23.7574 41.6982C23.6798 41.7413 23.6194 41.8189 23.5849 41.8965C23.5677 41.931 23.5591 41.9828 23.5505 42.0173C23.5246 42.1811 23.5849 42.3017 23.6711 42.3965C23.6367 42.4396 23.6022 42.4913 23.5763 42.5258C23.5418 42.5689 23.4987 42.6294 23.4815 42.638C23.0074 42.7673 22.5763 42.9742 22.1539 43.1725C21.7918 43.3449 21.5677 43.5775 21.4729 43.8965C21.4556 43.9655 21.4211 44.0086 21.3436 44.0431C21.2487 44.0948 21.0591 44.1896 20.9901 44.3965C20.9729 44.4568 20.9642 44.4742 20.8005 44.5173C20.8177 44.388 20.7832 44.2586 20.7056 44.1465C20.7056 44.112 20.7142 44.0776 20.7229 44.0518C20.7315 43.9742 20.7487 43.8965 20.7487 43.8275L20.766 43.4137C20.7832 43.1034 20.7918 42.7844 20.8177 42.4137C20.8436 42.0258 20.8694 41.9052 21.0418 41.819C21.3263 41.6725 21.4642 41.3621 21.3608 41.069C21.2574 40.7587 21.0246 40.5775 20.7401 40.5775C20.7401 40.5775 20.7401 40.5776 20.7401 40.569C20.5936 40.3018 20.4039 40.2327 20.266 40.2155C20.1884 40.2068 20.0849 40.2155 19.9815 40.2586L19.9384 40.1896C19.9384 40.181 19.9384 40.1725 19.9298 40.1725C19.9556 40.1725 19.9815 40.1637 19.9987 40.1637C20.5591 40.3103 20.9211 39.9656 21.1539 39.75L21.2401 39.638C21.3436 39.5432 21.447 39.3879 21.4384 39.181C21.6539 39.2327 21.9384 39.2242 22.2315 38.9225C22.2832 38.8621 22.516 38.862 22.6711 38.862C22.6884 38.8879 22.7056 38.9224 22.7229 38.9655C22.766 39.0517 22.8694 39.2673 23.128 39.3018C23.2401 39.319 23.3436 39.2844 23.4298 39.2413C23.4642 39.2672 23.5074 39.2845 23.5505 39.3018C23.5849 39.3104 23.6108 39.3363 23.6539 39.3535L23.7574 39.4137C23.8694 39.4741 24.0074 39.4741 24.1194 39.4137C24.2315 39.3534 24.3091 39.2413 24.3177 39.112C24.3349 38.9655 24.3005 38.8448 24.266 38.6896C24.3091 38.612 24.3349 38.5 24.3263 38.4225C24.3005 38.2242 24.1625 38.1206 24.0936 38.0603L23.947 37.9396C23.8694 37.8706 23.7832 37.8017 23.6625 37.7068C23.6108 37.6724 23.5418 37.612 23.5591 37.5948C23.6539 37.4224 23.6194 37.2499 23.5763 37.112C23.6367 37.0775 23.6884 37.0258 23.7315 36.9482C23.7487 36.9137 23.766 36.8966 23.766 36.888C23.8091 36.888 23.8953 36.9224 23.947 36.9396C24.0591 36.9741 24.1798 37.0172 24.3263 37.0258C24.3608 37.0258 24.4039 37.0344 24.4384 37.0431L24.5332 37.0603C24.7315 37.1034 24.9211 36.9742 24.9729 36.7845C25.016 36.6121 25.0246 36.4568 25.0074 36.3103H25.0936H25.2056C25.3177 36.3103 25.6108 36.319 25.6884 36.0518C25.7056 36.0432 25.7746 36.0345 25.8177 36.0345C25.8867 36.0259 25.9642 36.0172 26.0332 36.0086C26.3522 35.9396 26.5418 35.6896 26.697 35.4913C26.7487 35.4224 26.7746 35.4051 26.7746 35.4051C26.7832 35.4051 26.8177 35.4051 26.9125 35.4568C27.0763 35.5431 27.2746 35.5344 27.4642 35.4482C27.7056 35.3362 27.8867 35.1035 27.9384 34.8363C27.9987 34.5173 28.0677 34.1637 27.9384 33.7758C27.7832 33.3189 27.7918 32.8706 27.9729 32.4051C28.2056 31.7931 28.0936 31.2242 27.6884 30.7673C27.697 30.4914 27.6108 30.2586 27.447 30.0775C27.4815 29.9999 27.516 29.9224 27.5505 29.8448C27.5936 29.7327 27.6367 29.6293 27.697 29.5344C27.9211 29.1896 27.9039 28.8275 27.9039 28.5431V28.4569C27.9039 28.4569 27.9039 28.4224 27.9039 28.3965C28.016 28.2758 28.0418 28.1466 28.0332 28.0518C28.0332 27.9656 28.0074 27.8965 27.9729 27.8275C28.0849 27.7155 28.1711 27.5689 28.2142 27.3965C28.3005 27.0689 28.2401 26.7413 28.0591 26.5431L27.9901 26.4655C27.8349 26.2931 27.6539 26.0948 27.3694 25.9655C27.2918 25.931 27.2315 25.8017 27.1711 25.6724C27.2315 25.6379 27.2832 25.6034 27.3436 25.5689C27.5849 25.4224 27.7142 25.1379 27.6798 24.8448C27.6539 24.6465 27.5418 24.5431 27.4815 24.4999C27.3349 24.3965 27.1798 24.4224 27.0763 24.4482C27.0418 24.431 27.0074 24.3965 26.9556 24.3103C26.878 24.1724 26.7574 23.9655 26.4901 23.862C26.2574 23.7758 26.1453 23.6551 26.0849 23.4137C26.0505 23.2586 25.9211 23.1465 25.766 23.1206C25.628 23.1034 25.4901 23.1552 25.4039 23.2673C25.3953 23.2328 25.378 23.1982 25.378 23.1551C25.3522 22.931 25.3436 22.6982 25.3349 22.4655C25.3349 22.3793 25.3263 22.1637 25.1539 22.0086C25.1022 21.9655 25.0246 21.9137 24.9125 21.8879C24.9039 21.8706 24.8953 21.8534 24.8867 21.8362C24.8608 21.8017 24.8522 21.7586 24.8349 21.7155C24.766 21.5344 24.6367 21.1724 24.1798 21.1034C24.1798 21.1034 24.1711 21.0948 24.1625 21.0862C24.1108 21.0344 24.0591 20.9655 23.9815 20.9137C23.3694 20.4741 22.947 19.9051 22.6884 19.1637C22.5418 18.7327 22.2746 18.5517 21.9125 18.6206C21.7918 18.5086 21.6022 18.2327 21.5505 18.0948C21.6539 17.8275 21.7142 17.612 21.5936 17.3965C21.4642 17.1637 21.2056 17.112 20.9298 17.0603C20.4987 16.9827 20.1453 16.8189 19.8177 16.5431C19.5418 16.3103 19.1625 16.0087 18.6711 15.7673C18.8177 15.5949 18.878 15.3879 18.8436 15.1637C18.9384 15.1551 19.0332 15.1379 19.1194 15.112C19.2401 15.2672 19.4039 15.3621 19.5849 15.3794C19.766 15.3966 19.9556 15.3275 20.1108 15.1896C20.1453 15.1551 20.197 15.1294 20.2401 15.0949C20.4039 14.9828 20.7229 14.7758 20.7401 14.362C21.1108 14.1896 21.2574 13.862 21.128 13.4827C21.016 13.1465 20.7574 12.9482 20.4211 12.9224C20.4039 12.8275 20.378 12.7499 20.3263 12.6724C20.266 12.5862 20.1884 12.5172 20.1022 12.4741C20.128 12.4224 20.1453 12.3707 20.1711 12.3104C20.2142 12.2069 20.3263 11.8534 19.8694 11.6206C19.6798 11.4655 19.4815 11.3189 19.2746 11.181C18.9729 10.9655 18.5677 10.888 18.1711 10.9742C17.8349 11.0432 17.5505 11.2155 17.3263 11.4999C17.1711 11.3534 16.8867 11.1466 16.5074 11.3449C16.4815 11.3449 16.4298 11.3275 16.4125 11.3103L16.2918 11.1982C16.0763 11.0086 15.8867 10.8448 15.8005 10.5862C15.7832 10.5258 15.7487 10.4482 15.7056 10.362C15.8608 10.112 15.8349 9.90515 15.7401 9.73275C15.7487 9.71555 15.7574 9.69825 15.766 9.68103L15.8177 9.57758C15.8694 9.46551 15.9642 9.25862 15.8522 9.03448C15.8177 8.95689 15.7401 8.87069 15.6108 8.81034C15.6022 8.77586 15.5936 8.75 15.5763 8.71551C15.4901 8.52586 15.2401 8.45689 15.0418 8.53448C15.0332 8.5431 15.016 8.5431 14.9987 8.55172C14.9384 8.41379 14.8608 8.2931 14.766 8.18103C14.4987 7.88793 14.2315 7.59482 13.9729 7.30172C14.0763 7.17241 14.128 7.03448 14.1625 6.93965L14.2056 6.8362C14.3005 6.61207 14.3694 6.5862 14.378 6.5862C14.378 6.5862 14.4556 6.56896 14.7142 6.73276C14.8867 6.8362 14.9815 6.90517 15.0418 7.01724C15.1539 7.23276 15.3608 7.37069 15.6022 7.37931C15.8522 7.39655 16.1108 7.25862 16.2574 7.03448L16.378 6.84482C16.4211 6.78448 16.4642 6.71551 16.5074 6.64655C16.6539 6.80172 16.8005 6.89655 16.9901 6.87931C17.1625 6.86207 17.2746 6.77586 17.3694 6.64655C17.4642 6.73276 17.5591 6.82758 17.6625 6.91379L17.8953 7.12931C17.9901 7.22414 18.1367 7.25 18.2574 7.21551C18.3867 7.18103 18.4901 7.07758 18.5246 6.94827L18.5677 6.78448C18.6022 6.67241 18.628 6.56896 18.6625 6.47413C18.6711 6.45689 18.6711 6.43965 18.6798 6.43103C18.7315 6.5 18.7918 6.55172 18.8694 6.5862C19.0418 6.67241 19.2487 6.65517 19.4384 6.5431C19.4987 6.50862 19.5505 6.47413 19.6022 6.43965C19.8005 6.31034 19.8867 6.25 20.0418 6.28448C20.2487 6.31896 20.4901 6.22414 20.6453 6.03448C20.8005 5.84482 20.8522 5.60345 20.7746 5.34482C20.8436 5.31034 20.9211 5.28448 20.9901 5.25862C21.2229 5.17241 21.4729 5.07758 21.697 4.89655C21.8177 5.03448 21.9384 5.18103 22.0418 5.3362C22.2229 5.62069 22.5332 5.75 22.8177 5.86207C22.9125 5.89655 22.9987 5.93965 23.0849 5.98276C23.1884 6.03448 23.3694 6.01724 23.4729 5.97413C23.7487 5.85345 23.766 5.88793 23.8349 5.98276C23.9556 6.15517 24.2229 6.38793 24.7315 6.0862C24.8091 6.0431 25.0332 6.06034 25.1798 6.11207C25.1711 6.14655 25.1539 6.17241 25.1453 6.19827C24.9384 6.24138 24.6625 6.40517 24.6022 6.89655C24.5763 7.00862 24.516 7.20689 24.6367 7.41379C24.6884 7.5 24.7574 7.56034 24.8436 7.61207C24.8177 8.25862 25.1798 8.68965 25.8177 8.80172C25.9211 9.14655 26.2574 9.38793 26.6625 9.41379H26.7401C27.0936 9.64655 27.2746 9.74135 27.5418 9.74135C27.516 9.76725 27.4815 9.80175 27.4556 9.84485C27.2487 9.86205 26.7918 9.92245 26.6884 10.4827C26.6711 10.5775 26.7056 10.6637 26.7574 10.7327C26.5591 10.8448 26.3349 10.8793 26.0849 10.8362C25.9729 10.8189 25.7401 10.7758 25.5591 10.9482C25.4642 11.0431 25.4125 11.1638 25.4125 11.319C25.2487 11.4656 25.128 11.6294 25.0074 11.7845C24.9298 11.888 24.8522 11.9913 24.766 12.0775C24.5763 12.2758 24.5936 12.5432 24.6108 12.7414C24.6108 12.7932 24.6194 12.8448 24.6194 12.8879V12.931C24.6194 12.931 24.6108 12.931 24.6022 12.931C24.1539 12.9741 23.947 13.3104 23.8091 13.5259C23.7832 13.569 23.7574 13.612 23.697 13.6982C23.5591 13.6465 23.4125 13.6637 23.2832 13.7241C23.1108 13.8103 22.9901 13.9827 22.9556 14.1896C22.947 14.2155 22.947 14.2499 22.947 14.2931C22.6194 14.7586 22.5849 15.2672 22.5418 15.7931C22.5332 15.8706 22.4729 16.0517 22.3522 16.1637C22.0418 16.4655 22.0246 16.9656 22.3091 17.3018C22.4815 17.5087 22.5936 17.7413 22.6798 17.9482C22.8694 18.3965 23.1884 18.7586 23.6884 19.0948C23.766 19.1465 23.8522 19.1983 23.9298 19.2414C24.1194 19.3535 24.2487 19.431 24.3436 19.5862C24.1798 20.2586 24.5591 20.7327 24.8349 21.0775C24.9039 21.1637 24.9815 21.2586 25.0418 21.3534C25.1453 21.5086 25.2832 21.6121 25.3953 21.7069L25.5849 21.8706C25.8349 22.0862 26.0591 22.2758 26.2229 22.5431C26.5763 23.112 27.1367 23.4999 27.697 23.8275C28.0074 24.0086 28.2918 24.2327 28.5591 24.4827C28.628 24.5517 28.7056 24.5948 28.7746 24.6293C28.7746 24.7672 28.8436 24.9051 28.9556 24.9741C29.0074 25.0086 29.0505 25.0345 29.0936 25.0518C29.1194 25.1121 29.1539 25.1637 29.2056 25.2241C29.3349 25.3879 29.447 25.569 29.5677 25.7673C29.766 26.1121 29.9987 26.4913 30.378 26.7758C30.4384 26.8189 30.4987 26.8534 30.5591 26.8879C30.6884 26.9655 30.7229 26.9913 30.7315 27.0344C30.7401 27.0689 30.7487 27.1034 30.7574 27.1293C30.6625 27.6465 30.8953 28.0603 31.0936 28.3965L31.1367 28.4655C31.1711 28.5172 31.1711 28.5948 31.1711 28.7155C31.1798 28.862 31.1798 29.0518 31.2746 29.2414C31.447 29.6207 31.5332 30.0259 31.628 30.4569L31.6798 30.6982C31.6798 30.6982 31.6884 30.7156 31.6884 30.7414C31.5936 30.8621 31.5418 31.0517 31.5936 31.2241C31.6625 31.4482 31.6711 31.6896 31.6798 31.9568C31.6884 32.1982 31.6884 32.4568 31.7487 32.7155C31.7918 32.9051 31.8867 33.0344 31.9556 33.1293L32.0418 33.25C32.0591 33.2673 32.0763 33.2932 32.0849 33.319C32.0591 33.4052 32.0418 33.4224 32.0246 33.4482Z" fill="black"/>
<path d="M38 36.9361H38.2636" stroke="black" stroke-width="0.5" stroke-linecap="round"/>
<path d="M42.6926 34.1416L42.7454 34.3525" stroke="black" stroke-width="0.5" stroke-linecap="round"/>
<path d="M39.3616 33.6895C39.3858 33.7447 39.4464 33.7765 39.4718 33.8272" stroke="black" stroke-width="0.7" stroke-linecap="round"/>
<path d="M40.4275 34.6341C40.4688 34.7313 40.5457 34.8193 40.5782 34.9166" stroke="black" stroke-width="0.7" stroke-linecap="round"/>
<path d="M40.9651 36.4917C40.9988 36.4973 41.1642 36.421 41.1222 36.4" stroke="black" stroke-width="0.7" stroke-linecap="round"/>
<path d="M35.3962 18.9417C35.4413 19.0393 35.5777 19.0898 35.6124 19.1939" stroke="black" stroke-width="0.5" stroke-linecap="round"/>
<path d="M35.3603 20.2569C35.2993 20.3533 35.1285 20.5452 35 20.5452" stroke="black" stroke-width="0.5" stroke-linecap="round"/>
<path d="M37.3962 18.6895C37.4275 18.7059 37.4565 18.7248 37.4863 18.7435" stroke="black" stroke-width="0.7" stroke-linecap="round"/>
<path d="M37.6327 20.288C37.6392 20.4496 37.6521 20.6103 37.6521 20.772C37.6521 20.8445 37.6539 20.8558 37.6037 20.9117C37.567 20.9526 37.5281 20.9909 37.4899 21.0304C37.4553 21.066 37.3972 21.1107 37.3813 21.1582" stroke="black" stroke-width="0.7" stroke-linecap="round"/>
<path d="M36.3992 21.0789C36.2482 21.1374 36.0906 21.1757 35.9419 21.2412C35.826 21.2922 35.6864 21.365 35.6211 21.4817C35.5955 21.5273 35.5961 21.6154 35.592 21.6645C35.5891 21.6986 35.5891 21.7327 35.5875 21.7669C35.5871 21.7739 35.578 21.801 35.5821 21.8075C35.5874 21.8158 35.6018 21.8246 35.5952 21.8312" stroke="black" stroke-width="0.7" stroke-linecap="round"/>
<path d="M17 42.0972C17.0151 42.2177 17.0842 42.3187 17.1096 42.4358C17.1375 42.5635 17.1527 42.7244 17.1346 42.8551C17.1193 42.9662 17.0818 43.0597 17.0433 43.16C17.0352 43.1811 17.0184 43.1923 17.0096 43.2128C17.0009 43.2333 17.1423 43.1812 17.1596 43.1705C17.429 43.0054 17.5771 42.7132 17.7453 42.4608C17.7933 42.3888 17.8141 42.2967 17.8396 42.2155C17.8651 42.1343 17.9156 42.0252 17.9156 41.9366C17.9156 41.8885 17.8183 41.8388 17.7867 41.8203C17.7048 41.7723 17.5996 41.6487 17.502 41.7029C17.3939 41.763 17.4644 41.9354 17.502 42.0107" stroke="black" stroke-width="0.7" stroke-linecap="round"/>
</svg>
