<svg width="50" height="50" viewBox="0 0 50 50" fill="none" xmlns="http://www.w3.org/2000/svg">
<g clip-path="url(#clip0_23715_48933)">
<path d="M25 0C11.25 0 0 11.25 0 25C0 38.75 11.25 50 25 50C38.75 50 50 38.75 50 25C50 11.25 38.75 0 25 0ZM12.5 25C12.5 18.125 18.125 12.5 25 12.5C31.875 12.5 37.5 18.125 37.5 25C37.5 31.875 31.875 37.5 25 37.5C18.125 37.5 12.5 31.875 12.5 25ZM39.375 30.625C40.3125 29.0625 40.625 26.875 40.625 25C40.625 23.125 40.3125 20.9375 39.375 19.375L44.0625 14.6875C45.9375 17.8125 46.875 21.25 46.875 25C46.875 28.75 45.9375 32.1875 44.375 35.3125L39.375 30.625ZM35.3125 5.625L30.625 10.625C29.0625 9.6875 26.875 9.375 25 9.375C23.125 9.375 20.9375 9.6875 19.375 10.625L14.6875 5.625C17.8125 4.0625 21.25 3.125 25 3.125C28.75 3.125 32.1875 4.0625 35.3125 5.625ZM5.625 14.6875L10.3125 19.375C9.6875 20.9375 9.375 23.125 9.375 25C9.375 26.875 9.6875 29.0625 10.625 30.625L5.9375 35.3125C4.0625 32.1875 3.125 28.75 3.125 25C3.125 21.25 4.0625 17.8125 5.625 14.6875ZM14.6875 44.375L19.375 39.6875C20.9375 40.3125 23.125 40.625 25 40.625C26.875 40.625 29.0625 40.3125 30.625 39.375L35.3125 44.0625C32.1875 45.9375 28.75 46.875 25 46.875C21.25 46.875 17.8125 45.9375 14.6875 44.375Z" fill="#444444"/>
</g>
<defs>
<clipPath id="clip0_23715_48933">
<rect width="50" height="50" fill="white"/>
</clipPath>
</defs>
</svg>
