<svg width="50" height="50" viewBox="0 0 50 50" fill="none" xmlns="http://www.w3.org/2000/svg">
<g clip-path="url(#clip0_24310_47772)">
<path fill-rule="evenodd" clip-rule="evenodd" d="M28.1133 22.7529C28.0156 22.7529 27.8203 22.6553 27.7227 22.6553L24.5977 20.9951C24.4023 20.8975 24.3047 20.6045 24.3047 20.4092V13.9639C24.3047 13.5732 24.5977 13.2803 24.9883 13.2803H31.3359C31.7266 13.2803 32.0195 13.5732 32.0195 13.9639V20.4092C32.0195 20.6045 31.8242 20.8975 31.6289 20.9951L28.4062 22.6553C28.3086 22.6553 28.2109 22.7529 28.1133 22.7529ZM25.6719 19.9209L28.1133 21.2881L30.6523 19.9209V14.6475H25.6719V19.9209Z" fill="black"/>
<path fill-rule="evenodd" clip-rule="evenodd" d="M31.3359 17.2842H24.9883C24.5977 17.2842 24.3047 16.9912 24.3047 16.6006C24.3047 16.21 24.5977 15.917 24.9883 15.917H31.3359C31.7266 15.917 32.0195 16.21 32.0195 16.6006C32.0195 16.9912 31.7266 17.2842 31.3359 17.2842Z" fill="black"/>
<path fill-rule="evenodd" clip-rule="evenodd" d="M22.8321 41.5035H10.6251C10.2344 41.5035 9.94146 41.2105 9.94146 40.8199V17.5777L7.20708 20.7027C7.01177 20.9957 6.62114 20.9957 6.32818 20.8003L0.273488 16.1128C-0.0194806 15.9175 -0.117137 15.5269 0.0781756 15.2339C0.273488 14.941 0.664113 14.2574 1.25005 13.3785C2.42193 11.3277 4.27739 8.20269 6.03521 5.66363C9.06255 1.17144 10.0391 0.780814 10.7227 0.87847H15.1172C15.5079 0.87847 15.8008 1.17144 15.8008 1.56206C15.8008 1.95269 15.5079 2.24566 15.1172 2.24566H10.6251C10.6251 2.24566 10.6251 2.24566 10.5274 2.24566C10.3321 2.34331 9.45318 2.92925 6.91411 6.73784C5.25396 9.27691 3.49614 12.2066 2.42193 14.0621C2.0313 14.648 1.73833 15.0386 1.54302 15.4293L6.62114 19.3355L10.1368 15.3316C10.3321 15.1363 10.6251 15.0386 10.8204 15.1363C11.1133 15.2339 11.3086 15.5269 11.3086 15.8199V40.2339H22.8321C23.2227 40.2339 23.5157 40.5269 23.5157 40.9175C23.5157 41.2105 23.2227 41.5035 22.8321 41.5035ZM35.6251 27.9292C35.2344 27.9292 34.9415 27.5386 34.9415 27.2457V15.8199C34.9415 15.5269 35.0391 15.2339 35.3321 15.1363C35.6251 15.0386 35.918 15.1363 36.1133 15.3316L39.629 19.3355L44.6094 15.4293C44.4141 15.0386 44.1211 14.648 43.8282 14.0621C42.6563 12.2066 40.8985 9.27691 39.2383 6.8355C36.6993 2.92925 35.8204 2.34331 35.6251 2.24566H31.0352C30.6446 2.24566 30.3516 1.95269 30.3516 1.56206C30.3516 1.17144 30.6446 0.87847 31.0352 0.87847H35.5274C36.6993 0.683157 38.5547 2.73394 45.0001 13.3785C45.4883 14.2574 45.9766 14.941 46.0743 15.2339C46.2696 15.5269 46.2696 15.9175 45.9766 16.1128L39.9219 20.8003C39.629 20.9957 39.2383 20.9957 38.9454 20.7027L36.3086 17.5777V27.2457C36.3086 27.5386 36.0157 27.9292 35.6251 27.9292Z" fill="black"/>
<path fill-rule="evenodd" clip-rule="evenodd" d="M8.37896 18.9437C8.18364 18.9437 8.08599 18.8461 7.98833 18.7484L1.64068 13.8656C1.34771 13.6703 1.25005 13.182 1.44536 12.8891C1.73833 12.5961 2.12896 12.5961 2.42193 12.7914L8.76958 17.6742C9.06255 17.8695 9.16021 18.3578 8.86724 18.6508C8.76958 18.8461 8.57427 18.9437 8.37896 18.9437Z" fill="black"/>
<path fill-rule="evenodd" clip-rule="evenodd" d="M37.7767 18.9437C37.5814 18.9437 37.2885 18.8461 37.1908 18.6508C36.9955 18.3578 36.9955 17.8695 37.2885 17.6742L43.7338 12.7914C44.0267 12.5961 44.515 12.5961 44.7103 12.8891C44.9057 13.2797 44.9057 13.6703 44.6127 13.8656L38.1674 18.7484C38.0697 18.8461 37.8744 18.9437 37.7767 18.9437Z" fill="black"/>
<path fill-rule="evenodd" clip-rule="evenodd" d="M23.1289 9.56934C18.5391 9.56934 14.7305 6.05371 14.4375 1.56152C14.4375 1.1709 14.6328 0.87793 15.0234 0.87793C15.4141 0.87793 15.8047 1.07324 15.8047 1.46387C16.0977 5.27246 19.3203 8.20215 23.1289 8.20215C26.9375 8.20215 30.0625 5.27246 30.3555 1.46387C30.3555 1.07324 30.6484 0.87793 31.0391 0.87793C31.4297 0.87793 31.7227 1.1709 31.7227 1.56152C31.5273 3.70996 30.5508 5.76074 28.9883 7.22559C27.4258 8.69043 25.2773 9.56934 23.1289 9.56934Z" fill="black"/>
<path fill-rule="evenodd" clip-rule="evenodd" d="M23.1289 7.42029C21.4688 7.42029 19.9062 6.83436 18.7344 5.76014C17.4648 4.68592 16.7812 3.22108 16.5859 1.65858C16.5859 1.26795 16.7812 0.877326 17.1719 0.877326C17.5625 0.779669 17.9531 1.07264 17.9531 1.46326C18.2461 4.09998 20.3945 6.05311 23.1289 6.05311C25.7656 6.05311 28.0117 4.09998 28.3047 1.46326C28.3047 1.07264 28.6953 0.779669 29.0859 0.877326C29.3789 0.877326 29.6719 1.26795 29.6719 1.65858C29.4766 3.22108 28.6953 4.68592 27.5234 5.76014C26.2539 6.83436 24.6914 7.42029 23.1289 7.42029Z" fill="black"/>
<path fill-rule="evenodd" clip-rule="evenodd" d="M17.2695 2.24512H15.1211C14.7305 2.24512 14.4375 1.95215 14.4375 1.56152C14.4375 1.1709 14.7305 0.87793 15.1211 0.87793H17.2695C17.6602 0.87793 17.9531 1.1709 17.9531 1.56152C17.9531 1.95215 17.6602 2.24512 17.2695 2.24512Z" fill="black"/>
<path fill-rule="evenodd" clip-rule="evenodd" d="M31.0391 2.24512H28.9883C28.5977 2.24512 28.3047 1.95215 28.3047 1.56152C28.3047 1.1709 28.5977 0.87793 28.9883 0.87793H31.0391C31.4297 0.87793 31.7227 1.1709 31.7227 1.56152C31.7227 1.95215 31.4297 2.24512 31.0391 2.24512Z" fill="black"/>
<path fill-rule="evenodd" clip-rule="evenodd" d="M21.665 41.5029C21.4697 41.5029 21.2744 41.5029 21.1768 41.3076L10.1416 30.2725C9.84863 30.0771 9.84863 29.5889 10.1416 29.3936C10.4346 29.1006 10.8252 29.1006 11.1182 29.3936L22.1533 40.3311C22.3486 40.624 22.3486 41.1123 22.1533 41.3076C21.958 41.5029 21.8604 41.5029 21.665 41.5029Z" fill="black"/>
<path fill-rule="evenodd" clip-rule="evenodd" d="M23.3252 38.9639C23.1299 38.9639 22.9346 38.9639 22.8369 38.7686L10.1416 26.0732C9.84863 25.8779 9.84863 25.3896 10.1416 25.1943C10.4346 24.9014 10.8252 24.9014 11.1182 25.1943L23.8135 37.792C24.0088 38.085 24.0088 38.5732 23.8135 38.7686C23.6182 38.9639 23.5205 38.9639 23.3252 38.9639Z" fill="black"/>
<path fill-rule="evenodd" clip-rule="evenodd" d="M24.0088 35.1553C23.8135 35.1553 23.6182 35.1553 23.5205 34.96L10.1416 21.6787C9.84863 21.3857 9.84863 20.8975 10.1416 20.7021C10.4346 20.4092 10.8252 20.4092 11.1182 20.7021L24.4971 33.9834C24.6924 34.2764 24.6924 34.7646 24.4971 34.96C24.3018 35.1553 24.2041 35.1553 24.0088 35.1553Z" fill="black"/>
<path fill-rule="evenodd" clip-rule="evenodd" d="M24.8877 30.8584C24.6924 30.8584 24.4971 30.7607 24.3994 30.5654L10.1416 16.3076C9.84863 16.0146 9.84863 15.5264 10.1416 15.3311C10.4346 15.0381 10.8252 15.0381 11.1182 15.3311L25.376 29.6865C25.5713 29.8818 25.5713 30.3701 25.376 30.5654C25.1807 30.7607 25.083 30.8584 24.8877 30.8584Z" fill="black"/>
<path fill-rule="evenodd" clip-rule="evenodd" d="M28.9883 2.24512H17.2695C16.8789 2.24512 16.5859 1.95215 16.5859 1.56152C16.5859 1.1709 16.8789 0.87793 17.2695 0.87793H28.9883C29.3789 0.87793 29.6719 1.1709 29.6719 1.56152C29.6719 1.95215 29.3789 2.24512 28.9883 2.24512Z" fill="black"/>
<path fill-rule="evenodd" clip-rule="evenodd" d="M46.4755 49.1201H39.7373C39.5419 49.1201 39.3466 49.0225 39.1513 48.9248L35.6357 44.4326L31.9248 48.9248C31.8271 49.0225 31.6318 49.1201 31.4365 49.1201H24.6982C23.624 49.1201 22.6474 48.7295 21.9638 47.8506C21.3779 47.167 21.0849 46.3857 21.1826 45.5068L24.9912 25.4873C24.9912 25.292 25.1865 25.0967 25.2841 24.999C25.4794 24.9014 25.6748 24.9014 25.8701 24.999C32.1201 26.9521 38.4677 26.9521 45.3037 24.999C45.499 24.9014 45.6943 24.9014 45.7919 24.999C45.9873 25.0967 46.0849 25.292 46.1826 25.4873L49.9912 45.5068C50.0888 46.2881 49.8935 47.0693 49.3076 47.7529C48.624 48.6318 47.5498 49.1201 46.4755 49.1201ZM40.0302 47.7529H46.4755C47.0615 47.7529 47.8427 47.46 48.2334 46.874C48.4287 46.6787 48.7216 46.2881 48.624 45.7998L44.913 26.4639C38.3701 28.3193 32.2177 28.3193 26.163 26.5615L22.5498 45.7998C22.4521 46.1904 22.6474 46.5811 22.9404 46.9717C23.4287 47.46 24.0146 47.7529 24.6982 47.7529H31.0458L35.0498 42.9678C35.2451 42.7725 35.4404 42.6748 35.6357 42.6748C35.831 42.6748 36.0263 42.7725 36.124 42.9678L40.0302 47.7529Z" fill="black"/>
<path fill-rule="evenodd" clip-rule="evenodd" d="M35.2514 31.8354C32.0288 31.8354 28.7085 31.3472 24.8022 30.2729C24.4116 30.1753 24.2163 29.7847 24.3139 29.4917C24.4116 29.1011 24.8022 28.9057 25.1929 29.0034C33.2983 31.1518 38.5718 30.7612 45.9936 29.0034C46.3843 28.9057 46.7749 29.1011 46.7749 29.4917C46.8725 29.8823 46.6772 30.1753 46.2866 30.2729C42.2827 31.2495 38.8647 31.8354 35.2514 31.8354Z" fill="black"/>
<path fill-rule="evenodd" clip-rule="evenodd" d="M34.4648 34.667C34.0742 34.667 33.7812 34.374 33.7812 33.9834V27.2451C33.7812 26.8545 34.0742 26.5615 34.4648 26.5615C34.8555 26.5615 35.1484 26.8545 35.1484 27.2451V33.9834C35.1484 34.374 34.8555 34.667 34.4648 34.667Z" fill="black"/>
<path fill-rule="evenodd" clip-rule="evenodd" d="M36.7148 32.1279C36.3242 32.1279 36.0312 31.835 36.0312 31.542V27.2451C36.0312 26.8545 36.3242 26.5615 36.7148 26.5615C37.1055 26.5615 37.3984 26.8545 37.3984 27.2451V31.542C37.3984 31.835 37.1055 32.1279 36.7148 32.1279Z" fill="black"/>
</g>
<defs>
<clipPath id="clip0_24310_47772">
<rect width="50" height="50" fill="white"/>
</clipPath>
</defs>
</svg>
