<svg width="51" height="51" viewBox="0 0 51 51" fill="none" xmlns="http://www.w3.org/2000/svg">
<g clip-path="url(#clip0_23715_50304)">
<path d="M12.1719 5.69531H18.0312V11.5547H12.1719V5.69531Z" fill="black"/>
<path d="M21.9375 5.69531H27.7969V11.5547H21.9375V5.69531Z" fill="black"/>
<path d="M12.1719 15.4609H18.0312V21.3203H12.1719V15.4609Z" fill="black"/>
<path d="M21.9375 15.4609H27.7969V21.3203H21.9375V15.4609Z" fill="black"/>
<path d="M12.1719 25.2266H18.0312V31.0859H12.1719V25.2266Z" fill="black"/>
<path d="M21.9375 25.2266H27.7969V31.0859H21.9375V25.2266Z" fill="black"/>
<path d="M35.6094 39.0938C37.2274 39.0938 38.5391 37.7821 38.5391 36.1641C38.5391 34.546 37.2274 33.2344 35.6094 33.2344C33.9914 33.2344 32.6797 34.546 32.6797 36.1641C32.6797 37.7821 33.9914 39.0938 35.6094 39.0938Z" fill="black"/>
<path d="M35.6094 27.375C34.5825 27.375 33.5965 27.5526 32.6797 27.8777V1.78906C32.6797 1.24971 32.2425 0.8125 31.7031 0.8125H8.26562C7.72627 0.8125 7.28906 1.24971 7.28906 1.78906V42.8047C7.28906 43.344 7.72627 43.7812 8.26562 43.7812H17.0547C17.594 43.7812 18.0312 43.344 18.0312 42.8047V35.9688H21.9375V42.8047C21.9375 43.344 22.3747 43.7812 22.9141 43.7812H29.5648C31.8354 47.4167 34.7201 50.3277 34.9188 50.5265C35.1096 50.7172 35.3595 50.8125 35.6094 50.8125C35.8593 50.8125 36.1093 50.7172 36.2999 50.5265C36.6306 50.1958 44.3984 42.3567 44.3984 36.1641C44.3984 31.3178 40.4557 27.375 35.6094 27.375ZM23.8906 41.8281V34.9922C23.8906 34.4528 23.4534 34.0156 22.9141 34.0156H17.0547C16.5153 34.0156 16.0781 34.4528 16.0781 34.9922V41.8281H9.24219V2.76562H30.7266V28.8598C28.3728 30.4384 26.8203 33.1232 26.8203 36.1641C26.8203 37.9873 27.4939 39.9531 28.4525 41.8281H23.8906ZM35.6094 48.4157C34.5896 47.3058 32.634 45.0537 31.0749 42.5205C31.0272 42.3638 30.9414 42.2237 30.828 42.1113C29.6617 40.1371 28.7734 38.0232 28.7734 36.1641C28.7734 32.3947 31.84 29.3281 35.6094 29.3281C39.3787 29.3281 42.4453 32.3947 42.4453 36.1641C42.4453 40.5642 37.4699 46.3908 35.6094 48.4157Z" fill="black"/>
</g>
<defs>
<clipPath id="clip0_23715_50304">
<rect width="50" height="50" fill="white" transform="translate(0.84375 0.8125)"/>
</clipPath>
</defs>
</svg>
