<svg width="51" height="51" viewBox="0 0 51 51" fill="none" xmlns="http://www.w3.org/2000/svg">
<g clip-path="url(#clip0_23715_49928)">
<path d="M25.837 4.68506C14.1923 4.68506 4.71875 14.1587 4.71875 25.8034C4.71875 37.4481 14.1924 46.9216 25.837 46.9216C37.4815 46.9216 46.9552 37.4479 46.9552 25.8034C46.9553 14.1587 37.4816 4.68506 25.837 4.68506ZM25.837 44.9984C15.2527 44.9984 6.64192 36.3875 6.64192 25.8034C6.64192 15.2192 15.2529 6.60823 25.837 6.60823C36.4212 6.60823 45.032 15.2192 45.032 25.8034C45.0321 36.3875 36.4212 44.9984 25.837 44.9984Z" fill="black"/>
<path d="M41.9069 28.1542H36.7363V23.4517H41.9069C42.4381 23.4517 42.8685 23.0212 42.8685 22.4901C42.8685 21.959 42.4381 21.5285 41.9069 21.5285H36.7363V16.827H38.8872C39.4184 16.827 39.8488 16.3965 39.8488 15.8654C39.8488 15.3344 39.4184 14.9038 38.8872 14.9038H36.7363V12.7527C36.7363 12.2217 36.3059 11.7911 35.7747 11.7911C35.2435 11.7911 34.8131 12.2217 34.8131 12.7527V14.9037H30.1106V9.73307C30.1106 9.20202 29.6802 8.77148 29.149 8.77148C28.6178 8.77148 28.1874 9.20202 28.1874 9.73307V14.9037H23.4849V9.73307C23.4849 9.20202 23.0544 8.77148 22.5233 8.77148C21.9923 8.77148 21.5617 9.20202 21.5617 9.73307V14.9037H16.8602V12.7517C16.8602 12.2206 16.4297 11.7901 15.8986 11.7901C15.3676 11.7901 14.937 12.2206 14.937 12.7517V14.9037H12.7849C12.2538 14.9037 11.8233 15.3342 11.8233 15.8653C11.8233 16.3963 12.2538 16.8269 12.7849 16.8269H14.9369V21.5284H9.76627C9.23522 21.5284 8.80469 21.9589 8.80469 22.49C8.80469 23.021 9.23522 23.4516 9.76627 23.4516H14.9369V28.1541H9.76627C9.23522 28.1541 8.80469 28.5846 8.80469 29.1157C8.80469 29.6467 9.23522 30.0773 9.76627 30.0773H14.9369V34.7798H12.7849C12.2538 34.7798 11.8233 35.2103 11.8233 35.7414C11.8233 36.2724 12.2538 36.703 12.7849 36.703H14.9369V38.855C14.9369 39.3861 15.3674 39.8166 15.8985 39.8166C16.4295 39.8166 16.8601 39.3861 16.8601 38.855V36.703H21.5616V41.8736C21.5616 42.4047 21.9921 42.8352 22.5232 42.8352C23.0542 42.8352 23.4848 42.4047 23.4848 41.8736V36.703H28.1873V41.8736C28.1873 42.4047 28.6177 42.8352 29.1489 42.8352C29.6801 42.8352 30.1105 42.4047 30.1105 41.8736V36.703H34.8131V38.854C34.8131 39.385 35.2435 39.8156 35.7747 39.8156C36.3059 39.8156 36.7363 39.385 36.7363 38.854V36.703H38.8872C39.4184 36.703 39.8488 36.2724 39.8488 35.7414C39.8488 35.2103 39.4184 34.7798 38.8872 34.7798H36.7363V30.0773H41.9069C42.4381 30.0773 42.8685 29.6467 42.8685 29.1157C42.8685 28.5846 42.4381 28.1542 41.9069 28.1542ZM34.8131 28.1542H30.1106V23.4517H34.8133V28.1542H34.8131ZM28.1874 28.1542H23.4849V23.4517H28.1874V28.1542ZM34.8131 16.8269V21.5284H30.1106V16.8269H34.8131ZM28.1874 16.8269V21.5284H23.4849V16.8269C23.4849 16.8269 28.1874 16.8269 28.1874 16.8269ZM16.8601 16.8269H21.5616V21.5284H16.8601V16.8269V16.8269ZM16.8601 23.4516H21.5616V28.1541H16.8601V23.4516V23.4516ZM16.8601 34.7799V30.0774H21.5616V34.7799H16.8601ZM23.4848 34.7799V30.0774H28.1873V34.7799H23.4848ZM34.8131 34.7799H30.1106V30.0774H34.8133V34.7799H34.8131Z" fill="black"/>
<path d="M46.0153 40.5427C49.0443 36.407 50.8359 31.3107 50.8359 25.8033C50.8359 20.2956 49.0442 15.1992 46.0149 11.0633L47.8652 9.21312C48.2407 8.83759 48.2407 8.22871 47.8652 7.85331L43.7856 3.77362C43.4101 3.39809 42.8013 3.39809 42.4257 3.77362L40.5754 5.62384C36.4396 2.59472 31.3435 0.803223 25.8359 0.803223C20.3283 0.803223 15.2322 2.59485 11.0964 5.62384L9.24609 3.7735C8.87056 3.39796 8.26168 3.39796 7.88628 3.7735L3.8066 7.85318C3.43106 8.22871 3.43106 8.83759 3.8066 9.21299L5.65681 11.0632C2.62756 15.1992 0.835938 20.2956 0.835938 25.8033C0.835938 31.3109 2.62744 36.407 5.65656 40.5427L3.8066 42.3926C3.6262 42.5728 3.52491 42.8174 3.52491 43.0725C3.52491 43.3275 3.6262 43.5721 3.8066 43.7524L7.88628 47.8321C8.07398 48.0199 8.32015 48.1137 8.56619 48.1137C8.81222 48.1137 9.05839 48.0199 9.24609 47.8321L11.0959 45.9822C15.2318 49.0115 20.3282 50.8032 25.8359 50.8032C31.3436 50.8032 36.44 49.0115 40.5758 45.9822L42.4257 47.8319C42.6134 48.0198 42.8595 48.1136 43.1056 48.1136C43.3516 48.1136 43.5978 48.0198 43.7856 47.8319L47.8652 43.7522C48.2407 43.3767 48.2407 42.7678 47.8652 42.3924L46.0153 40.5427ZM43.1056 5.81334L45.8253 8.53321L44.8122 9.54634C43.9762 8.57193 43.0668 7.66253 42.0924 6.82659L43.1056 5.81334ZM5.84644 8.53321L8.56619 5.81347L9.57931 6.82659C8.60491 7.66253 7.6955 8.57193 6.85944 9.54634L5.84644 8.53321ZM8.56619 45.7922L5.84644 43.0725L6.85918 42.0597C7.69512 43.0341 8.60452 43.9435 9.57893 44.7796L8.56619 45.7922ZM2.75911 25.8033C2.75911 13.0787 13.1113 2.72639 25.8359 2.72639C38.5606 2.72639 48.9128 13.0787 48.9128 25.8033C48.9128 38.5279 38.5606 48.8801 25.8359 48.8801C13.1113 48.8801 2.75911 38.5279 2.75911 25.8033ZM43.1056 45.7922L42.0928 44.7796C43.0672 43.9437 43.9766 43.0343 44.8126 42.0597L45.8253 43.0723L43.1056 45.7922Z" fill="black"/>
</g>
<defs>
<clipPath id="clip0_23715_49928">
<rect width="50" height="50" fill="white" transform="translate(0.84375 0.8125)"/>
</clipPath>
</defs>
</svg>
