<svg width="50" height="50" viewBox="0 0 50 50" fill="none" xmlns="http://www.w3.org/2000/svg">
<g clip-path="url(#clip0_23715_50509)">
<path d="M47.9179 47.9168H46.8762V20.8335C47.7469 20.7212 48.5461 20.2933 49.1221 19.6309C49.6982 18.9684 50.011 18.1175 50.0012 17.2397C50.0012 14.771 48.0221 13.9585 45.8346 12.5314V4.16681C45.8346 3.89054 45.7248 3.62559 45.5295 3.43024C45.3341 3.23489 45.0692 3.12514 44.7929 3.12514H38.5429C38.2666 3.12514 38.0017 3.23489 37.8063 3.43024C37.611 3.62559 37.5012 3.89054 37.5012 4.16681V7.14598L27.845 0.843892C26.999 0.292555 26.011 -0.000976563 25.0012 -0.000976562C23.9915 -0.000976563 23.0035 0.292555 22.1575 0.843892L1.65748 14.2085C1.03808 14.6165 0.556976 15.2027 0.277688 15.8899C-0.00159864 16.577 -0.0659361 17.3326 0.0931702 18.0571C0.252276 18.7815 0.627345 19.4407 1.16886 19.9475C1.71037 20.4544 2.39286 20.7851 3.12623 20.896V47.9168H2.08457C1.8083 47.9168 1.54335 48.0266 1.348 48.2219C1.15265 48.4173 1.0429 48.6822 1.0429 48.9585C1.0429 49.2347 1.15265 49.4997 1.348 49.695C1.54335 49.8904 1.8083 50.0001 2.08457 50.0001H47.9179C48.1942 50.0001 48.4591 49.8904 48.6545 49.695C48.8498 49.4997 48.9596 49.2347 48.9596 48.9585C48.9596 48.6822 48.8498 48.4173 48.6545 48.2219C48.4591 48.0266 48.1942 47.9168 47.9179 47.9168ZM39.5846 5.20848H43.7512V11.2189L39.5846 8.50014V5.20848ZM2.08457 17.2814C2.08457 16.0626 1.20957 17.0001 23.2929 2.59389C23.8009 2.26222 24.3945 2.08561 25.0012 2.08561C25.6079 2.08561 26.2015 2.26222 26.7096 2.59389L47.1992 15.9585C47.5486 16.1864 47.7933 16.5438 47.8792 16.9521C47.9652 17.3604 47.8854 17.7861 47.6575 18.1356C47.4296 18.485 47.0722 18.7297 46.6639 18.8156C46.2556 18.9016 45.8299 18.8218 45.4804 18.5939L25.5742 5.61473C24.7408 5.07306 25.97 4.57306 4.52207 18.5939C4.28501 18.7499 4.01018 18.8388 3.72669 18.8513C3.4432 18.8638 3.16161 18.7993 2.91176 18.6648C2.66192 18.5303 2.45312 18.3307 2.30749 18.0871C2.16186 17.8436 2.08483 17.5652 2.08457 17.2814V17.2814ZM5.20957 47.9168C5.20957 17.5522 5.01165 20.7606 5.65748 20.3439L25.0012 7.72931L44.345 20.3439C44.9804 20.7606 44.7929 17.5001 44.7929 47.9168H5.20957Z" fill="black"/>
<path d="M38.346 20.2809C37.6272 20.1351 37.523 20.4476 34.971 22.9893L33.6689 22.5622L33.2418 21.2601C35.7626 18.7289 36.0959 18.6039 35.9501 17.8747C35.6584 16.5205 31.0022 15.7289 28.096 18.6351C27.371 19.3596 26.8214 20.2403 26.4892 21.2098C26.157 22.1793 26.051 23.212 26.1793 24.2289C26.2085 24.5632 26.1619 24.8999 26.0429 25.2138C25.9238 25.5276 25.7354 25.8105 25.4918 26.0414C19.6376 31.8955 19.3251 32.5934 17.9605 32.4268C16.8044 32.2839 15.631 32.4437 14.5551 32.8904C13.4792 33.3371 12.5377 34.0554 11.8228 34.9751C11.1078 35.8948 10.6438 36.9844 10.4762 38.1372C10.3087 39.29 10.4432 40.4666 10.8668 41.5518C10.93 41.713 11.0325 41.856 11.1649 41.9676C11.2973 42.0793 11.4555 42.1562 11.6251 42.1914C11.7947 42.2266 11.9704 42.2189 12.1363 42.169C12.3021 42.1192 12.453 42.0288 12.5751 41.9059L15.0022 39.4893L16.3043 39.9164L16.7314 41.2184L14.3147 43.6455C14.1916 43.767 14.1007 43.9171 14.0501 44.0824C13.9996 44.2478 13.991 44.4231 14.0251 44.5926C14.0592 44.7621 14.1349 44.9204 14.2455 45.0533C14.3561 45.1862 14.498 45.2895 14.6585 45.3539C15.7323 45.777 16.897 45.9164 18.0403 45.7587C19.1836 45.6009 20.2671 45.1512 21.1861 44.453C22.1052 43.7548 22.8289 42.8317 23.2874 41.7725C23.746 40.7133 23.924 39.5539 23.8043 38.4059C23.7672 38.0515 23.8086 37.6932 23.9257 37.3565C24.0427 37.0198 24.2324 36.7131 24.4814 36.458C30.346 30.5934 30.5647 29.9268 32.1585 30.083C33.3056 30.1997 34.4635 30.0197 35.521 29.5602C36.5786 29.1007 37.5004 28.3772 38.1979 27.459C38.8954 26.5409 39.3453 25.4589 39.5043 24.3168C39.6634 23.1748 39.5264 22.011 39.1064 20.9372C39.0452 20.7726 38.9434 20.6261 38.8105 20.5114C38.6775 20.3966 38.5177 20.3174 38.346 20.2809ZM32.3668 27.9893C31.7012 27.9165 31.0278 27.9927 30.3954 28.2125C29.763 28.4324 29.1874 28.7902 28.7105 29.2601L23.0022 34.9684C22.5323 35.4454 22.1744 36.0209 21.9546 36.6533C21.7348 37.2857 21.6585 37.9591 21.7314 38.6247C21.7996 39.2672 21.7328 39.9168 21.5353 40.532C21.3377 41.1471 21.0137 41.7142 20.5841 42.1967C20.1545 42.6793 19.6288 43.0667 19.0406 43.3342C18.4525 43.6016 17.8149 43.7432 17.1689 43.7497C18.7314 42.1872 19.1689 41.9476 18.9189 41.1872C18.0751 38.6664 18.096 38.3226 17.4501 38.1143C13.8668 36.9268 14.773 36.7705 12.4918 39.0518C12.5001 38.3992 12.6459 37.7558 12.9195 37.1633C13.1932 36.5709 13.5885 36.0427 14.0799 35.6132C14.5713 35.1838 15.1476 34.8626 15.7714 34.6708C16.3951 34.4789 17.0523 34.4206 17.7001 34.4997C18.3518 34.5781 19.0127 34.5041 19.6309 34.2836C20.2491 34.0631 20.8077 33.702 21.2626 33.2289L26.9709 27.5205C29.5855 24.9059 26.8876 22.7914 29.5647 20.1039C30.4245 19.2504 31.5825 18.7648 32.7939 18.7497C30.5022 21.0518 30.7105 20.2184 31.8564 23.708C32.0751 24.3643 32.471 24.3539 34.9814 25.1768C35.7522 25.4372 36.023 24.9476 37.5439 23.4268C37.5365 24.0772 37.3926 24.7189 37.1214 25.3102C36.8503 25.9015 36.4581 26.4293 35.97 26.8594C35.482 27.2895 34.9091 27.6123 34.2884 27.807C33.6677 28.0016 33.013 28.0637 32.3668 27.9893V27.9893Z" fill="black"/>
</g>
<defs>
<clipPath id="clip0_23715_50509">
<rect width="50" height="50" fill="white"/>
</clipPath>
</defs>
</svg>
