<svg width="51" height="51" viewBox="0 0 51 51" fill="none" xmlns="http://www.w3.org/2000/svg">
<g clip-path="url(#clip0_23715_49915)">
<path d="M42.0161 22.946C41.8295 22.7593 41.5569 22.6876 41.3024 22.7581L36.969 23.9601C36.5793 24.0683 36.3509 24.4719 36.4591 24.8617C36.5672 25.2515 36.9709 25.48 37.3606 25.3717L39.0675 24.8982L25.3239 38.6419C25.0379 38.9279 25.0379 39.3917 25.3239 39.6776C25.4669 39.8206 25.6544 39.8922 25.8418 39.8922C26.0292 39.8922 26.2167 39.8207 26.3596 39.6776L40.0336 26.0037L39.5904 27.6015C39.4823 27.9913 39.7106 28.3949 40.1004 28.503C40.1659 28.5212 40.2317 28.5299 40.2966 28.5299C40.6175 28.5299 40.912 28.3174 41.0019 27.9931L42.204 23.6597C42.2746 23.4053 42.2028 23.1326 42.0161 22.946Z" fill="black"/>
<path d="M50.1113 17.2517H46.4476C47.2309 16.4195 47.7124 15.3003 47.7124 14.0699C47.7124 11.5078 45.6279 9.42334 43.0658 9.42334H39.2075C36.9195 9.42334 34.7696 10.3142 33.154 11.9313L12.1765 32.9081H8.62158C6.05947 32.9081 3.975 34.9926 3.975 37.5547C3.975 38.785 4.45654 39.9043 5.23994 40.7364H1.57617C1.17168 40.7364 0.84375 41.0644 0.84375 41.4688C0.84375 41.8733 1.17168 42.2013 1.57617 42.2013H14.6942C15.5172 42.2013 16.2909 41.8808 16.8728 41.2988L38.9817 19.1898C39.287 18.8846 39.6929 18.7165 40.1245 18.7165H50.1113C50.5158 18.7165 50.8438 18.3886 50.8438 17.9841C50.8438 17.5796 50.5158 17.2517 50.1113 17.2517ZM43.0658 17.2518H40.1244C39.3017 17.2517 38.528 17.5721 37.946 18.154L15.8369 40.2631C15.5317 40.5684 15.1259 40.7364 14.6942 40.7364H8.62158C7.41543 40.7364 6.36387 40.0617 5.82441 39.07H15.6111C16.0156 39.07 16.3436 38.7421 16.3436 38.3376V35.715H18.9661C19.3706 35.715 19.6985 35.3871 19.6985 34.9826V32.3601H22.321C22.7255 32.3601 23.0534 32.0321 23.0534 31.6276V29.0051H25.676C26.0805 29.0051 26.4084 28.6771 26.4084 28.2727V25.6502H29.031C29.4354 25.6502 29.7634 25.3223 29.7634 24.9178V22.2952H32.3858C32.7903 22.2952 33.1183 21.9673 33.1183 21.5628V18.9402H35.7408C36.1453 18.9402 36.4732 18.6123 36.4732 18.2078V15.5854H45.863C45.3235 16.5771 44.272 17.2518 43.0658 17.2518ZM46.2463 14.1203H35.7409C35.3364 14.1203 35.0085 14.4482 35.0085 14.8527V17.4752H32.3859C31.9814 17.4752 31.6535 17.8031 31.6535 18.2076V20.8302H29.0311C28.6266 20.8302 28.2986 21.1581 28.2986 21.5626V24.1852H25.6761C25.2716 24.1852 24.9437 24.5131 24.9437 24.9176V27.54H22.3211C21.9166 27.54 21.5887 27.868 21.5887 28.2725V30.895H18.9662C18.5617 30.895 18.2338 31.223 18.2338 31.6274V34.25H15.6112C15.2067 34.25 14.8788 34.5779 14.8788 34.9824V37.605H5.44131C5.44102 37.5881 5.44004 37.5715 5.44004 37.5545C5.43984 35.8003 6.86719 34.373 8.62158 34.373H12.4799C12.6741 34.373 12.8604 34.2958 12.9978 34.1584L34.1901 12.9669C35.5292 11.6264 37.3111 10.8882 39.2075 10.8882H43.0658C44.8202 10.8882 46.2476 12.3155 46.2476 14.0699C46.2476 14.0868 46.2466 14.1035 46.2463 14.1203Z" fill="black"/>
</g>
<defs>
<clipPath id="clip0_23715_49915">
<rect width="50" height="50" fill="white" transform="translate(0.84375 0.8125)"/>
</clipPath>
</defs>
</svg>
