<svg width="50" height="50" viewBox="0 0 50 50" fill="none" xmlns="http://www.w3.org/2000/svg">
<g clip-path="url(#clip0_23715_49062)">
<path d="M37.1662 19.8771L40.1039 19.691C40.1088 19.6906 40.1142 19.6902 40.1195 19.6898C42.213 19.5132 44.0922 18.4165 45.2755 16.68L47.5979 13.2727C49.6193 10.3064 50.4024 6.72363 49.8024 3.18473C49.6845 2.48969 49.329 1.8492 48.8018 1.3819C48.2742 0.914214 47.596 0.638029 46.8918 0.60446C43.3052 0.432798 39.8433 1.64015 37.141 4.0026L34.0366 6.71676C32.4546 8.09959 31.591 10.0966 31.6665 12.1966C31.6669 12.2015 31.6669 12.2069 31.6673 12.2122L31.8347 15.1507C31.9 16.2963 31.48 17.4266 30.6846 18.2498L6.43147 43.1651C5.7822 43.8422 5.44689 44.7711 5.48771 45.7809C5.53272 46.8925 6.04275 47.9843 6.85223 48.7018C7.58351 49.3499 8.58868 49.7192 9.59348 49.7192C9.70105 49.7192 9.80863 49.715 9.91582 49.7062C10.9233 49.6257 11.8056 49.1817 12.403 48.4516L34.2258 21.3923C34.9495 20.502 36.0214 19.9496 37.1662 19.8771ZM33.0608 20.4493L11.2399 47.5063C10.9065 47.9137 10.3938 48.1647 9.79642 48.2124C9.08574 48.2692 8.35713 48.0327 7.84672 47.5803C7.33631 47.1275 7.01435 46.4324 6.98574 45.7202C6.96133 45.1217 7.14863 44.5827 7.5095 44.2066L31.7607 19.2931C32.8479 18.1681 33.4201 16.6274 33.3316 15.0656L33.1642 12.1348C33.1073 10.491 33.7844 8.92815 35.0231 7.84515L38.1275 5.13099C40.5369 3.02489 43.6245 1.94953 46.8204 2.10135C47.1844 2.1189 47.5345 2.26157 47.8073 2.50342C48.0801 2.74489 48.2635 3.07601 48.3246 3.43497C48.8594 6.59012 48.1613 9.78379 46.3592 12.4281L44.0368 15.8358C43.1103 17.1954 41.6397 18.0548 40.0009 18.1956L37.0712 18.381C35.5102 18.4802 34.0492 19.2332 33.0608 20.4493Z" fill="black"/>
<path d="M48.6144 42.9756L32.3527 28.1643C32.0467 27.8854 31.573 27.9075 31.2937 28.2135C31.0152 28.5194 31.0374 28.9936 31.3433 29.2724L47.6008 44.0804C47.9876 44.4378 48.207 44.9646 48.2188 45.5635C48.2329 46.2761 47.9533 46.9891 47.4707 47.4716C46.9886 47.9538 46.2767 48.2342 45.5626 48.2197C44.9637 48.2079 44.4369 47.9885 44.0833 47.6059L29.5927 31.6971C29.3139 31.3907 28.8397 31.369 28.5338 31.6475C28.2278 31.9263 28.2057 32.4005 28.4846 32.7064L42.9785 48.6191C43.6156 49.308 44.5227 49.6987 45.5333 49.7185C45.5596 49.7189 45.5855 49.7193 45.6118 49.7193C46.6979 49.7193 47.7839 49.2787 48.5305 48.5317C49.2957 47.7665 49.7394 46.6461 49.7172 45.5341C49.6974 44.5236 49.3071 43.6165 48.6144 42.9756V42.9756Z" fill="black"/>
<path d="M9.04385 19.7351C10.2844 20.878 11.8961 21.5295 13.5822 21.57C13.5875 21.5703 13.5929 21.5703 13.5978 21.5703L16.5413 21.5795C17.6887 21.5829 18.7916 22.0701 19.5656 22.9135L20.8622 24.3368C21.0102 24.4993 21.2128 24.5817 21.4165 24.5817C21.5965 24.5817 21.7773 24.5172 21.9208 24.3864C22.2271 24.1075 22.2492 23.6333 21.9704 23.3274L20.6718 21.9022C19.6144 20.7494 18.1106 20.0857 16.5462 20.0803L13.6108 20.0712C12.3066 20.038 11.0595 19.5386 10.0933 18.6639L1.56321 8.52367C1.47623 8.41991 1.48272 8.26961 1.57847 8.17386C1.64408 8.10787 1.72114 8.09833 1.76119 8.09833C1.80125 8.09833 1.8783 8.10787 1.9443 8.17386L9.70875 15.9387C10.4763 16.7062 11.7252 16.7062 12.4927 15.9383L13.4052 15.0262L15.0253 13.4057L15.0261 13.405L15.9382 12.4929C16.7057 11.7254 16.7057 10.4764 15.9382 9.7089L8.17371 1.94445C8.07301 1.84374 8.07301 1.67933 8.17371 1.57862C8.26946 1.48287 8.41976 1.47638 8.52352 1.56336L18.6638 10.0938C19.5389 11.0597 20.0382 12.3071 20.0714 13.611L20.0802 16.5468C20.0855 18.1108 20.7497 19.6145 21.904 20.6743L23.2933 21.9396C23.5996 22.2185 24.0734 22.1963 24.3523 21.8904C24.6307 21.5841 24.6086 21.1103 24.3027 20.8314L22.9156 19.568C22.0699 18.7921 21.5832 17.6889 21.5794 16.5418L21.5702 13.5984C21.5702 13.593 21.5702 13.5877 21.5698 13.5824C21.5294 11.8963 20.8778 10.2845 19.7349 9.044C19.7136 9.02073 19.6907 8.9986 19.6663 8.978L9.48826 0.416277C8.78483 -0.175765 7.76401 -0.131514 7.11399 0.518512C6.42849 1.20401 6.42849 2.31905 7.11399 3.00417L14.8784 10.769C15.0615 10.9521 15.0615 11.25 14.8784 11.4331L14.4958 11.8154L5.84217 3.1621C5.54958 2.86913 5.07503 2.86913 4.78244 3.1621C4.48985 3.45469 4.48985 3.92924 4.78244 4.22183L13.4361 12.8755L12.8753 13.4359L4.22168 4.78259C3.92909 4.49 3.45454 4.49 3.16195 4.78259C2.86898 5.07518 2.86898 5.54973 3.16195 5.84232L11.8152 14.496L11.433 14.8786C11.2499 15.0617 10.952 15.0617 10.7689 14.8786L3.00402 7.11414C2.67214 6.78226 2.23078 6.59915 1.76119 6.59915C1.2916 6.59915 0.85024 6.78226 0.518361 7.11414C-0.131665 7.76417 -0.175535 8.78498 0.416127 9.48879L8.97824 19.6664C8.99845 19.6908 9.02058 19.7137 9.04385 19.7351Z" fill="black"/>
</g>
<defs>
<clipPath id="clip0_23715_49062">
<rect width="50" height="49.9025" fill="white"/>
</clipPath>
</defs>
</svg>
