<svg width="51" height="51" viewBox="0 0 51 51" fill="none" xmlns="http://www.w3.org/2000/svg">
<g clip-path="url(#clip0_23715_49788)">
<path d="M47.7214 48.7292H44.5964V1.8542C44.5964 1.2792 44.1297 0.8125 43.5547 0.8125H8.13809C7.56309 0.8125 7.09639 1.2792 7.09639 1.8542V48.7292H3.97139C3.39639 48.7292 2.92969 49.1959 2.92969 49.7709C2.92969 50.3458 3.39639 50.8125 3.97139 50.8125H47.7214C48.2964 50.8125 48.7631 50.3458 48.7631 49.7708C48.7631 49.1958 48.2964 48.7292 47.7214 48.7292ZM30.0131 48.7292H21.6798V40.3959H30.0131V48.7292ZM42.5131 48.7292H32.0964V39.3542C32.0964 38.7792 31.6297 38.3125 31.0547 38.3125H20.6381C20.0631 38.3125 19.5964 38.7792 19.5964 39.3542V48.7292H9.17969V2.8958H42.513V48.7292H42.5131Z" fill="black"/>
<path d="M12.3073 15.3958H18.5573C19.1323 15.3958 19.599 14.9291 19.599 14.3541V8.1041C19.599 7.5292 19.1323 7.0625 18.5573 7.0625H12.3073C11.7323 7.0625 11.2656 7.5292 11.2656 8.1042V14.3542C11.2657 14.9292 11.7323 15.3958 12.3073 15.3958ZM13.349 9.1458H17.5157V13.3125H13.349V9.1458Z" fill="black"/>
<path d="M33.1354 15.3959H39.3854C39.9604 15.3959 40.4271 14.9292 40.4271 14.3542V8.1042C40.4271 7.5292 39.9604 7.0625 39.3854 7.0625H33.1354C32.5604 7.0626 32.0938 7.5293 32.0938 8.1043V14.3543C32.0938 14.9293 32.5604 15.3959 33.1354 15.3959ZM34.1771 9.1459H38.3438V13.3126H34.1771V9.1459V9.1459Z" fill="black"/>
<path d="M22.7214 15.3958H28.9714C29.5464 15.3958 30.0131 14.9291 30.0131 14.3541V8.1041C30.0131 7.5292 29.5464 7.0625 28.9714 7.0625H22.7214C22.1464 7.0625 21.6797 7.5292 21.6797 8.1042V14.3542C21.6797 14.9292 22.1464 15.3958 22.7214 15.3958ZM23.7631 9.1458H27.9298V13.3125H23.7631V9.1458Z" fill="black"/>
<path d="M12.3073 25.8129H18.5573C19.1323 25.8129 19.599 25.3462 19.599 24.7712V18.5212C19.599 17.9462 19.1323 17.4795 18.5573 17.4795H12.3073C11.7323 17.4795 11.2656 17.9462 11.2656 18.5212V24.7712C11.2657 25.3462 11.7323 25.8129 12.3073 25.8129ZM13.349 19.5629H17.5157V23.7296H13.349V19.5629Z" fill="black"/>
<path d="M33.1354 25.8129H39.3854C39.9604 25.8129 40.4271 25.3462 40.4271 24.7712V18.5212C40.4271 17.9462 39.9604 17.4795 39.3854 17.4795H33.1354C32.5604 17.4795 32.0938 17.9462 32.0938 18.5212V24.7712C32.0938 25.3462 32.5604 25.8129 33.1354 25.8129ZM34.1771 19.5629H38.3438V23.7296H34.1771V19.5629V19.5629Z" fill="black"/>
<path d="M22.7214 25.8129H28.9714C29.5464 25.8129 30.0131 25.3462 30.0131 24.7712V18.5212C30.0131 17.9462 29.5464 17.4795 28.9714 17.4795H22.7214C22.1464 17.4795 21.6797 17.9462 21.6797 18.5212V24.7712C21.6797 25.3462 22.1464 25.8129 22.7214 25.8129ZM23.7631 19.5629H27.9298V23.7296H23.7631V19.5629Z" fill="black"/>
<path d="M12.3073 36.2289H18.5573C19.1323 36.2289 19.599 35.7622 19.599 35.1872V28.9372C19.599 28.3622 19.1323 27.8955 18.5573 27.8955H12.3073C11.7323 27.8955 11.2656 28.3622 11.2656 28.9372V35.1872C11.2657 35.7622 11.7323 36.2289 12.3073 36.2289ZM13.349 29.9789H17.5157V34.1456H13.349V29.9789Z" fill="black"/>
<path d="M33.1354 36.2289H39.3854C39.9604 36.2289 40.4271 35.7622 40.4271 35.1872V28.9372C40.4271 28.3622 39.9604 27.8955 39.3854 27.8955H33.1354C32.5604 27.8955 32.0938 28.3622 32.0938 28.9372V35.1872C32.0938 35.7622 32.5604 36.2289 33.1354 36.2289ZM34.1771 29.9789H38.3438V34.1456H34.1771V29.9789V29.9789Z" fill="black"/>
<path d="M22.7214 36.2289H28.9714C29.5464 36.2289 30.0131 35.7622 30.0131 35.1872V28.9372C30.0131 28.3622 29.5464 27.8955 28.9714 27.8955H22.7214C22.1464 27.8955 21.6797 28.3622 21.6797 28.9372V35.1872C21.6797 35.7622 22.1464 36.2289 22.7214 36.2289ZM23.7631 29.9789H27.9298V34.1456H23.7631V29.9789Z" fill="black"/>
<path d="M4 50H47.5" stroke="#303035" stroke-width="2" stroke-linecap="round"/>
<path d="M8 50V2H43V50" stroke="#303035" stroke-width="2" stroke-linecap="round"/>
</g>
<defs>
<clipPath id="clip0_23715_49788">
<rect width="50" height="50" fill="white" transform="translate(0.84375 0.8125)"/>
</clipPath>
</defs>
</svg>
