<svg width="50" height="50" viewBox="0 0 50 50" fill="none" xmlns="http://www.w3.org/2000/svg">
<g clip-path="url(#clip0_24310_47879)">
<path d="M50.0003 14.1664C49.9967 10.9462 47.3871 8.33672 44.167 8.33304H19.167C18.6553 8.33122 18.146 8.40107 17.6537 8.54054C17.342 8.61554 9.11033 11.7189 4.23117 13.5614H4.2245C3.27353 13.8268 2.40814 14.3354 1.71367 15.0372C0.610493 16.1272 -0.00709848 17.6156 0.000332684 19.1664C0.001716 21.2165 1.08016 23.1152 2.84033 24.1664C1.0809 25.2183 0.00271213 27.1165 0.000332684 29.1664C0.00358875 31.2171 1.08346 33.1155 2.8445 34.1664C0.590835 35.5096 -0.487395 38.1932 0.210435 40.7222C0.908266 43.2513 3.21008 45.0023 5.83367 44.9997H30.8337C31.6958 44.999 32.5469 44.8054 33.3245 44.433C33.3306 44.4334 33.3367 44.4334 33.3428 44.433L46.7503 39.3972C48.6651 38.4539 49.9099 36.5382 49.9938 34.4053C50.0778 32.2725 48.9875 30.2648 47.1528 29.1739C47.5687 28.9329 47.9497 28.6362 48.2853 28.2922C49.3883 27.2033 50.0064 25.7163 50.0003 24.1664C49.993 22.1187 48.9151 20.224 47.1587 19.1714C47.5727 18.9305 47.9522 18.6348 48.287 18.2922C49.3894 17.2031 50.0069 15.716 50.0003 14.1664ZM18.1128 10.1422C18.456 10.0463 18.8107 9.99835 19.167 9.99971H44.167C46.4671 10.0025 48.3309 11.8663 48.3337 14.1664C48.3388 15.2723 47.8981 16.3335 47.1112 17.1105C46.828 17.4052 46.4966 17.6493 46.1312 17.8322C46.0862 17.8564 46.0478 17.8789 46.0053 17.9005C44.8812 18.3172 42.902 19.0605 39.8345 20.2122L36.1312 21.603C36.9637 19.7975 36.8185 17.6922 35.7461 16.018C34.6737 14.3438 32.8219 13.3317 30.8337 13.333H9.56033C13.7095 11.7705 17.7737 10.2497 18.1128 10.1422ZM1.667 19.1664C1.66225 18.0585 2.10449 16.9956 2.89367 16.218C3.39737 15.7066 4.02905 15.3397 4.72283 15.1555C4.74367 15.1489 4.76783 15.1414 4.792 15.1322C5.13202 15.0431 5.48217 14.9986 5.83367 14.9997H30.8337C33.1337 15.0025 34.9976 16.8663 35.0003 19.1664C34.9943 20.7254 34.1242 22.1526 32.7412 22.8722C32.7168 22.8816 32.6928 22.8921 32.6695 22.9039C32.0997 23.1889 31.4708 23.336 30.8337 23.333H5.83367C3.53362 23.3303 1.66975 21.4664 1.667 19.1664ZM1.667 29.1664C1.67113 26.8669 3.53419 25.0038 5.83367 24.9997H30.8337C33.1337 25.0025 34.9976 26.8663 35.0003 29.1664C34.9943 30.7254 34.1242 32.1526 32.7412 32.8722C32.7168 32.8816 32.6928 32.8921 32.6695 32.9039C32.0997 33.1889 31.4708 33.336 30.8337 33.333H5.83367C3.53362 33.3303 1.66975 31.4664 1.667 29.1664ZM5.83367 43.333C3.53248 43.333 1.667 41.4676 1.667 39.1664C1.667 36.8652 3.53248 34.9997 5.83367 34.9997H30.8337C33.1349 34.9997 35.0003 36.8652 35.0003 39.1664C35.0003 41.4676 33.1349 43.333 30.8337 43.333H5.83367ZM48.3337 34.1664C48.3387 35.2721 47.8984 36.3332 47.112 37.1105C46.8124 37.4139 46.4681 37.6696 46.0912 37.8689L36.1253 41.6064C37.3672 38.9376 36.414 35.7619 33.9078 34.218L44.9078 30.0914C46.8841 30.444 48.3258 32.1589 48.3337 34.1664ZM48.3337 24.1664C48.3388 25.2723 47.8981 26.3335 47.1112 27.1105C46.828 27.4052 46.4966 27.6493 46.1312 27.8322C46.0853 27.8572 46.042 27.8797 46.0037 27.9014L36.1303 31.6039C37.3646 28.9342 36.4104 25.7633 33.9078 24.218L40.417 21.773C42.3187 21.0589 43.7962 20.5039 44.917 20.0847C46.8898 20.4457 48.3255 22.1609 48.3337 24.1664Z" fill="black"/>
<path d="M32.4974 19.1663C32.4974 18.7061 32.1243 18.333 31.6641 18.333H4.9974C4.53716 18.333 4.16406 18.7061 4.16406 19.1663C4.16406 19.6266 4.53716 19.9997 4.9974 19.9997H31.6641C32.1243 19.9997 32.4974 19.6266 32.4974 19.1663Z" fill="black"/>
<path d="M32.4974 29.1663C32.4974 28.7061 32.1243 28.333 31.6641 28.333H4.9974C4.53716 28.333 4.16406 28.7061 4.16406 29.1663C4.16406 29.6266 4.53716 29.9997 4.9974 29.9997H31.6641C32.1243 29.9997 32.4974 29.6266 32.4974 29.1663Z" fill="black"/>
<path d="M31.6641 38.333H4.9974C4.53716 38.333 4.16406 38.7061 4.16406 39.1663C4.16406 39.6266 4.53716 39.9997 4.9974 39.9997H31.6641C32.1243 39.9997 32.4974 39.6266 32.4974 39.1663C32.4974 38.7061 32.1243 38.333 31.6641 38.333Z" fill="black"/>
<path d="M8.33333 1.66602C7.8731 1.66602 7.5 2.03911 7.5 2.49935V4.16602C7.5 4.62625 7.8731 4.99935 8.33333 4.99935C8.79357 4.99935 9.16667 4.62625 9.16667 4.16602V2.49935C9.16667 2.03911 8.79357 1.66602 8.33333 1.66602Z" fill="black"/>
<path d="M7.5 9.16602C7.5 9.62625 7.8731 9.99935 8.33333 9.99935C8.79357 9.99935 9.16667 9.62625 9.16667 9.16602V7.49935C9.16667 7.03911 8.79357 6.66602 8.33333 6.66602C7.8731 6.66602 7.5 7.03911 7.5 7.49935V9.16602Z" fill="black"/>
<path d="M6.66406 4.99902H4.9974C4.53716 4.99902 4.16406 5.37212 4.16406 5.83236C4.16406 6.29259 4.53716 6.66569 4.9974 6.66569H6.66406C7.1243 6.66569 7.4974 6.29259 7.4974 5.83236C7.4974 5.37212 7.1243 4.99902 6.66406 4.99902Z" fill="black"/>
<path d="M9.9974 6.66569H11.6641C12.1243 6.66569 12.4974 6.29259 12.4974 5.83236C12.4974 5.37212 12.1243 4.99902 11.6641 4.99902H9.9974C9.53716 4.99902 9.16406 5.37212 9.16406 5.83236C9.16406 6.29259 9.53716 6.66569 9.9974 6.66569Z" fill="black"/>
<path d="M48.506 45.6597C48.179 45.3439 47.6593 45.3484 47.3378 45.6699C47.0164 45.9913 47.0119 46.5111 47.3277 46.838L48.5777 48.088C48.9047 48.4039 49.4244 48.3993 49.7459 48.0779C50.0673 47.7564 50.0718 47.2367 49.756 46.9097L48.506 45.6597Z" fill="black"/>
<path d="M44.8277 44.339C45.1547 44.6548 45.6744 44.6503 45.9959 44.3289C46.3173 44.0074 46.3218 43.4877 46.006 43.1607L44.756 41.9107C44.429 41.5949 43.9093 41.5994 43.5878 41.9208C43.2664 42.2423 43.2619 42.762 43.5777 43.089L44.8277 44.339Z" fill="black"/>
<path d="M43.5799 48.088C43.9053 48.4134 44.4328 48.4134 44.7583 48.088L46.0083 46.838C46.3241 46.5111 46.3196 45.9913 45.9981 45.6699C45.6767 45.3484 45.1569 45.3439 44.8299 45.6597L43.5799 46.9097C43.2546 47.2351 43.2546 47.7626 43.5799 48.088Z" fill="black"/>
<path d="M48.5747 41.9107L47.3247 43.1607C47.1081 43.3699 47.0212 43.6798 47.0975 43.9711C47.1738 44.2625 47.4013 44.49 47.6927 44.5663C47.984 44.6425 48.2938 44.5557 48.5031 44.339L49.7531 43.089C50.0689 42.762 50.0644 42.2423 49.7429 41.9208C49.4215 41.5994 48.9017 41.5949 48.5747 41.9107Z" fill="black"/>
</g>
<defs>
<clipPath id="clip0_24310_47879">
<rect width="50" height="50" fill="white"/>
</clipPath>
</defs>
</svg>
