<svg width="50" height="50" viewBox="0 0 50 50" fill="none" xmlns="http://www.w3.org/2000/svg">
<path d="M43.75 2.34375H34.375H15.625H6.25C5.81875 2.34375 5.46875 2.69375 5.46875 3.125V46.875C5.46875 47.3062 5.81875 47.6562 6.25 47.6562H15.625H34.375H43.75C44.1812 47.6562 44.5312 47.3062 44.5312 46.875V3.125C44.5312 2.69375 44.1812 2.34375 43.75 2.34375ZM33.5938 3.90625V11.7188H16.4062V3.90625H33.5938ZM14.8438 3.90625V12.5C14.8438 12.9312 15.1938 13.2812 15.625 13.2812H34.375C34.8062 13.2812 35.1562 12.9312 35.1562 12.5V3.90625H42.9688V24.2188H31.9516C31.5578 20.7125 28.6094 17.9688 25 17.9688C21.3906 17.9688 18.4422 20.7125 18.0484 24.2188H7.03125V3.90625H14.8438ZM30.4688 25C30.4688 28.0156 28.0156 30.4688 25 30.4688C21.9844 30.4688 19.5312 28.0156 19.5312 25C19.5312 21.9844 21.9844 19.5312 25 19.5312C28.0156 19.5312 30.4688 21.9844 30.4688 25ZM16.4062 46.0938V38.2812H33.5938V46.0938H16.4062ZM35.1562 46.0938V37.5C35.1562 37.0688 34.8062 36.7188 34.375 36.7188H15.625C15.1938 36.7188 14.8438 37.0688 14.8438 37.5V46.0938H7.03125V25.7812H18.0484C18.4422 29.2875 21.3906 32.0312 25 32.0312C28.6094 32.0312 31.5578 29.2875 31.9516 25.7812H42.9688V46.0938H35.1562Z" fill="black"/>
</svg>
