<svg width="50" height="50" viewBox="0 0 50 50" fill="none" xmlns="http://www.w3.org/2000/svg">
<path d="M39.8438 6.25H10.1562C9.12063 6.25124 8.12778 6.66319 7.39548 7.39548C6.66319 8.12778 6.25124 9.12063 6.25 10.1562V39.8438C6.25124 40.8794 6.66319 41.8722 7.39548 42.6045C8.12778 43.3368 9.12063 43.7488 10.1562 43.75H39.8438C40.8794 43.7488 41.8722 43.3368 42.6045 42.6045C43.3368 41.8722 43.7488 40.8794 43.75 39.8438V10.1562C43.7488 9.12063 43.3368 8.12778 42.6045 7.39548C41.8722 6.66319 40.8794 6.25124 39.8438 6.25ZM42.1875 39.8438C42.1875 40.4654 41.9406 41.0615 41.501 41.501C41.0615 41.9406 40.4654 42.1875 39.8438 42.1875H10.1562C9.53465 42.1875 8.93851 41.9406 8.49897 41.501C8.05943 41.0615 7.8125 40.4654 7.8125 39.8438V10.1562C7.8125 9.53465 8.05943 8.93851 8.49897 8.49897C8.93851 8.05943 9.53465 7.8125 10.1562 7.8125H39.8438C40.4654 7.8125 41.0615 8.05943 41.501 8.49897C41.9406 8.93851 42.1875 9.53465 42.1875 10.1562V39.8438Z" fill="black"/>
<path d="M25 10.9375H16.4062C16.199 10.9375 16.0003 11.0198 15.8538 11.1663C15.7073 11.3128 15.625 11.5115 15.625 11.7188V39.0625C15.625 39.2697 15.7073 39.4684 15.8538 39.6149C16.0003 39.7614 16.199 39.8438 16.4062 39.8438H21.875C22.0822 39.8438 22.2809 39.7614 22.4274 39.6149C22.5739 39.4684 22.6562 39.2697 22.6562 39.0625V31.25H25C27.6936 31.25 30.2769 30.18 32.1816 28.2753C34.0862 26.3706 35.1562 23.7874 35.1562 21.0938C35.1562 18.4001 34.0862 15.8169 32.1816 13.9122C30.2769 12.0075 27.6936 10.9375 25 10.9375V10.9375ZM25 29.6875H21.875C21.6678 29.6875 21.4691 29.7698 21.3226 29.9163C21.1761 30.0628 21.0938 30.2615 21.0938 30.4688V38.2812H17.1875V12.5H25C27.2792 12.5 29.4651 13.4054 31.0767 15.0171C32.6883 16.6287 33.5938 18.8145 33.5938 21.0938C33.5938 23.373 32.6883 25.5588 31.0767 27.1704C29.4651 28.7821 27.2792 29.6875 25 29.6875Z" fill="black"/>
<path d="M25.3906 16.7969H21.875C21.6678 16.7969 21.4691 16.8792 21.3226 17.0257C21.1761 17.1722 21.0938 17.3709 21.0938 17.5781V24.6094C21.0938 24.8166 21.1761 25.0153 21.3226 25.1618C21.4691 25.3083 21.6678 25.3906 21.875 25.3906H25.3906C26.5302 25.3906 27.6232 24.9379 28.429 24.1321C29.2348 23.3263 29.6875 22.2334 29.6875 21.0938C29.6875 19.9541 29.2348 18.8612 28.429 18.0554C27.6232 17.2496 26.5302 16.7969 25.3906 16.7969ZM25.3906 23.8281H22.6562V18.3594H25.3906C26.1158 18.3594 26.8113 18.6475 27.3241 19.1603C27.8369 19.673 28.125 20.3685 28.125 21.0938C28.125 21.819 27.8369 22.5145 27.3241 23.0272C26.8113 23.54 26.1158 23.8281 25.3906 23.8281Z" fill="black"/>
</svg>
