<svg width="50" height="50" viewBox="0 0 50 50" fill="none" xmlns="http://www.w3.org/2000/svg">
<path d="M32.7715 47.9734H30.7851C30.6059 47.9734 30.434 47.9022 30.3073 47.7755C30.1806 47.6488 30.1094 47.4769 30.1094 47.2977C30.1094 47.1185 30.1806 46.9467 30.3073 46.82C30.434 46.6933 30.6059 46.6221 30.7851 46.6221H32.7715C32.9507 46.6221 33.1226 46.6933 33.2493 46.82C33.376 46.9467 33.4472 47.1185 33.4472 47.2977C33.4472 47.4769 33.376 47.6488 33.2493 47.7755C33.1226 47.9022 32.9507 47.9734 32.7715 47.9734Z" fill="black"/>
<path d="M26.0543 47.9734H2.70291C2.34451 47.9734 2.00079 47.831 1.74736 47.5776C1.49394 47.3242 1.35156 46.9805 1.35156 46.6221V22.2977C1.35156 22.1185 1.42275 21.9467 1.54946 21.82C1.67618 21.6933 1.84804 21.6221 2.02724 21.6221C2.20644 21.6221 2.3783 21.6933 2.50501 21.82C2.63173 21.9467 2.70291 22.1185 2.70291 22.2977V46.6221H26.0543C26.2335 46.6221 26.4053 46.6933 26.532 46.82C26.6588 46.9467 26.7299 47.1185 26.7299 47.2977C26.7299 47.4769 26.6588 47.6488 26.532 47.7755C26.4053 47.9022 26.2335 47.9734 26.0543 47.9734Z" fill="black"/>
<path d="M47.2939 47.9734H44.2128C44.0336 47.9734 43.8618 47.9022 43.7351 47.7755C43.6083 47.6488 43.5372 47.4769 43.5372 47.2977C43.5372 47.1185 43.6083 46.9467 43.7351 46.82C43.8618 46.6933 44.0336 46.6221 44.2128 46.6221H47.2939V22.9734H29.0507C28.8715 22.9734 28.6996 22.9022 28.5729 22.7755C28.4462 22.6488 28.375 22.4769 28.375 22.2977C28.375 22.1185 28.4462 21.9467 28.5729 21.82C28.6996 21.6933 28.8715 21.6221 29.0507 21.6221H47.2939C47.6523 21.6221 47.996 21.7644 48.2495 22.0179C48.5029 22.2713 48.6453 22.615 48.6453 22.9734V46.6221C48.6453 46.9805 48.5029 47.3242 48.2495 47.5776C47.996 47.831 47.6523 47.9734 47.2939 47.9734Z" fill="black"/>
<path d="M39.4835 47.9734H37.5038C37.3246 47.9734 37.1527 47.9022 37.026 47.7755C36.8993 47.6488 36.8281 47.4769 36.8281 47.2977C36.8281 47.1185 36.8993 46.9467 37.026 46.82C37.1527 46.6933 37.3246 46.6221 37.5038 46.6221H39.4835C39.6627 46.6221 39.8346 46.6933 39.9613 46.82C40.088 46.9467 40.1592 47.1185 40.1592 47.2977C40.1592 47.4769 40.088 47.6488 39.9613 47.7755C39.8346 47.9022 39.6627 47.9734 39.4835 47.9734Z" fill="black"/>
<path d="M43.9206 22.9725H36.4882C36.309 22.9725 36.1371 22.9013 36.0104 22.7746C35.8837 22.6479 35.8125 22.476 35.8125 22.2968V4.05361C35.8125 3.87441 35.8837 3.70254 36.0104 3.57583C36.1371 3.44912 36.309 3.37793 36.4882 3.37793H43.9206C44.0998 3.37793 44.2717 3.44912 44.3984 3.57583C44.5251 3.70254 44.5963 3.87441 44.5963 4.05361V22.2968C44.5963 22.476 44.5251 22.6479 44.3984 22.7746C44.2717 22.9013 44.0998 22.9725 43.9206 22.9725ZM37.1639 21.6212H43.2449V4.72928H37.1639V21.6212Z" fill="black"/>
<path d="M43.9206 8.78397H36.4882C36.309 8.78397 36.1371 8.71278 36.0104 8.58607C35.8837 8.45935 35.8125 8.28749 35.8125 8.10829C35.8125 7.92909 35.8837 7.75723 36.0104 7.63052C36.1371 7.5038 36.309 7.43262 36.4882 7.43262H43.9206C44.0998 7.43262 44.2717 7.5038 44.3984 7.63052C44.5251 7.75723 44.5963 7.92909 44.5963 8.10829C44.5963 8.28749 44.5251 8.45935 44.3984 8.58607C44.2717 8.71278 44.0998 8.78397 43.9206 8.78397Z" fill="black"/>
<path d="M15.5436 22.9734C15.3883 22.9736 15.2376 22.9202 15.117 22.8223C14.9963 22.7243 14.9132 22.5878 14.8814 22.4357C14.8497 22.2836 14.8713 22.1253 14.9427 21.9873C15.0141 21.8493 15.1309 21.7401 15.2733 21.6781L28.7869 15.822C28.8897 15.7771 29.0021 15.7586 29.1139 15.768C29.2258 15.7775 29.3335 15.8146 29.4273 15.8761C29.5212 15.9376 29.5983 16.0215 29.6516 16.1202C29.705 16.2189 29.7329 16.3294 29.7328 16.4416V22.2977C29.7328 22.4769 29.6616 22.6488 29.5349 22.7755C29.4082 22.9022 29.2363 22.9734 29.0571 22.9734C28.8779 22.9734 28.7061 22.9022 28.5794 22.7755C28.4526 22.6488 28.3815 22.4769 28.3815 22.2977V17.4707L15.8139 22.9173C15.7288 22.9549 15.6367 22.974 15.5436 22.9734Z" fill="black"/>
<path d="M2.02799 22.9734C1.87263 22.9736 1.72195 22.9202 1.60134 22.8223C1.48072 22.7243 1.39754 22.5878 1.36581 22.4357C1.33407 22.2836 1.35572 22.1253 1.42711 21.9873C1.49849 21.8493 1.61525 21.7401 1.75772 21.6781L15.2712 15.822C15.3741 15.7771 15.4865 15.7586 15.5983 15.768C15.7101 15.7775 15.8179 15.8146 15.9117 15.8761C16.0056 15.9376 16.0827 16.0215 16.136 16.1202C16.1893 16.2189 16.2172 16.3294 16.2172 16.4416V22.2977C16.2172 22.4769 16.146 22.6488 16.0193 22.7755C15.8926 22.9022 15.7207 22.9734 15.5415 22.9734C15.3623 22.9734 15.1904 22.9022 15.0637 22.7755C14.937 22.6488 14.8658 22.4769 14.8658 22.2977V17.4707L2.29826 22.9173C2.21315 22.9549 2.12103 22.974 2.02799 22.9734Z" fill="black"/>
<path d="M17.5648 47.9725H8.10536C7.92616 47.9725 7.7543 47.9013 7.62759 47.7746C7.50087 47.6479 7.42969 47.476 7.42969 47.2968V35.1347C7.42969 34.9555 7.50087 34.7836 7.62759 34.6569C7.7543 34.5302 7.92616 34.459 8.10536 34.459H17.5648C17.744 34.459 17.9159 34.5302 18.0426 34.6569C18.1693 34.7836 18.2405 34.9555 18.2405 35.1347V47.2968C18.2405 47.476 18.1693 47.6479 18.0426 47.7746C17.9159 47.9013 17.744 47.9725 17.5648 47.9725ZM8.78104 46.6211H16.8891V35.8103H8.78104V46.6211Z" fill="black"/>
<path d="M43.24 33.1081H39.6366C39.4574 33.1081 39.2856 33.0369 39.1588 32.9101C39.0321 32.7834 38.9609 32.6116 38.9609 32.4324V28.829C38.9609 28.6498 39.0321 28.4779 39.1588 28.3512C39.2856 28.2245 39.4574 28.1533 39.6366 28.1533H43.24C43.4192 28.1533 43.5911 28.2245 43.7178 28.3512C43.8445 28.4779 43.9157 28.6498 43.9157 28.829V32.4324C43.9157 32.6116 43.8445 32.7834 43.7178 32.9101C43.5911 33.0369 43.4192 33.1081 43.24 33.1081ZM40.3123 31.7567H42.5643V29.5047H40.3123V31.7567Z" fill="black"/>
<path d="M35.5844 33.1081H31.9804C31.8012 33.1081 31.6293 33.0369 31.5026 32.9101C31.3759 32.7834 31.3047 32.6116 31.3047 32.4324V28.829C31.3047 28.6498 31.3759 28.4779 31.5026 28.3512C31.6293 28.2245 31.8012 28.1533 31.9804 28.1533H35.5844C35.7636 28.1533 35.9355 28.2245 36.0622 28.3512C36.1889 28.4779 36.2601 28.6498 36.2601 28.829V32.4324C36.2601 32.6116 36.1889 32.7834 36.0622 32.9101C35.9355 33.0369 35.7636 33.1081 35.5844 33.1081ZM32.656 31.7567H34.9087V29.5047H32.656V31.7567Z" fill="black"/>
<path d="M27.9275 33.1081H24.3241C24.1449 33.1081 23.9731 33.0369 23.8463 32.9101C23.7196 32.7834 23.6484 32.6116 23.6484 32.4324V28.829C23.6484 28.6498 23.7196 28.4779 23.8463 28.3512C23.9731 28.2245 24.1449 28.1533 24.3241 28.1533H27.9275C28.1067 28.1533 28.2786 28.2245 28.4053 28.3512C28.532 28.4779 28.6032 28.6498 28.6032 28.829V32.4324C28.6032 32.6116 28.532 32.7834 28.4053 32.9101C28.2786 33.0369 28.1067 33.1081 27.9275 33.1081ZM24.9998 31.7567H27.2518V29.5047H24.9998V31.7567Z" fill="black"/>
<path d="M43.24 40.7653H39.6366C39.4574 40.7653 39.2856 40.6941 39.1588 40.5674C39.0321 40.4407 38.9609 40.2688 38.9609 40.0896V36.4862C38.9609 36.307 39.0321 36.1352 39.1588 36.0084C39.2856 35.8817 39.4574 35.8105 39.6366 35.8105H43.24C43.4192 35.8105 43.5911 35.8817 43.7178 36.0084C43.8445 36.1352 43.9157 36.307 43.9157 36.4862V40.0896C43.9157 40.2688 43.8445 40.4407 43.7178 40.5674C43.5911 40.6941 43.4192 40.7653 43.24 40.7653ZM40.3123 39.4139H42.5643V37.1619H40.3123V39.4139Z" fill="black"/>
<path d="M35.5844 40.7653H31.9804C31.8012 40.7653 31.6293 40.6941 31.5026 40.5674C31.3759 40.4407 31.3047 40.2688 31.3047 40.0896V36.4862C31.3047 36.307 31.3759 36.1352 31.5026 36.0084C31.6293 35.8817 31.8012 35.8105 31.9804 35.8105H35.5844C35.7636 35.8105 35.9355 35.8817 36.0622 36.0084C36.1889 36.1352 36.2601 36.307 36.2601 36.4862V40.0896C36.2601 40.2688 36.1889 40.4407 36.0622 40.5674C35.9355 40.6941 35.7636 40.7653 35.5844 40.7653ZM32.656 39.4139H34.9087V37.1619H32.656V39.4139Z" fill="black"/>
<path d="M27.9275 40.7653H24.3241C24.1449 40.7653 23.9731 40.6941 23.8463 40.5674C23.7196 40.4407 23.6484 40.2688 23.6484 40.0896V36.4862C23.6484 36.307 23.7196 36.1352 23.8463 36.0084C23.9731 35.8817 24.1449 35.8105 24.3241 35.8105H27.9275C28.1067 35.8105 28.2786 35.8817 28.4053 36.0084C28.532 36.1352 28.6032 36.307 28.6032 36.4862V40.0896C28.6032 40.2688 28.532 40.4407 28.4053 40.5674C28.2786 40.6941 28.1067 40.7653 27.9275 40.7653ZM24.9998 39.4139H27.2518V37.1619H24.9998V39.4139Z" fill="black"/>
</svg>
