<svg width="51" height="51" viewBox="0 0 51 51" fill="none" xmlns="http://www.w3.org/2000/svg">
<g clip-path="url(#clip0_23715_50101)">
<path d="M43.2138 0.811523H33.0038C32.5473 0.811523 32.1772 1.18154 32.1772 1.63809V1.95293H30.7632C28.6784 1.95293 26.8495 3.06885 25.8416 4.73458C24.8339 3.06885 23.0049 1.95293 20.9201 1.95293H19.5061V1.63809C19.5061 1.18145 19.136 0.811523 18.6795 0.811523H12.728C12.2716 0.811523 11.9015 1.18154 11.9015 1.63809C11.9015 2.09453 12.2716 2.46465 12.728 2.46465H17.853V4.15714H13.9404H6.08936C6.43223 3.17286 7.36954 2.46465 8.46925 2.46465C8.92569 2.46465 9.29581 2.09453 9.29581 1.63809C9.29581 1.18145 8.92569 0.811523 8.46925 0.811523C6.16866 0.811523 4.29688 2.68311 4.29688 4.9838C4.29688 7.26271 6.64532 9.11672 9.53185 9.11672C12.06 9.11672 14.1751 7.69454 14.6614 5.81036H18.6792C19.1357 5.81036 19.5058 5.44034 19.5058 4.9838V3.60616H20.9198C23.1778 3.60616 25.0147 5.44317 25.0147 7.70109V46.1827H20.4123C18.3158 46.1827 16.6101 47.8885 16.6101 49.985C16.6101 50.4416 16.9802 50.8115 17.4366 50.8115H27.413C27.8695 50.8115 28.2396 50.4415 28.2396 49.985C28.2396 49.5283 27.8695 49.1584 27.413 49.1584H18.4285C18.7531 48.3824 19.52 47.8358 20.4123 47.8358H31.2704C32.1627 47.8358 32.9296 48.3823 33.2542 49.1584H30.7195C30.263 49.1584 29.8929 49.5284 29.8929 49.985C29.8929 50.4416 30.263 50.8115 30.7195 50.8115H34.2462C34.7027 50.8115 35.0728 50.4415 35.0728 49.985C35.0728 47.8885 33.367 46.1827 31.2706 46.1827H26.6681V7.70119C26.6681 5.44317 28.5052 3.60626 30.763 3.60626H32.177V4.98389C32.177 5.44054 32.5471 5.81046 33.0036 5.81046H37.0214C37.5077 7.69464 39.6228 9.11681 42.151 9.11681C45.0375 9.11681 47.3859 7.2629 47.3859 4.98389C47.386 2.68311 45.5144 0.811523 43.2138 0.811523ZM9.53194 7.46349C8.00665 7.46349 6.66709 6.76271 6.16299 5.81036H12.9008C12.3967 6.76261 11.0573 7.46349 9.53194 7.46349ZM42.151 7.46349C40.6258 7.46349 39.2862 6.76271 38.7821 5.81036H45.5199C45.0159 6.76261 43.6765 7.46349 42.151 7.46349ZM37.7426 4.15714H33.8301V2.46465H43.2137C44.3135 2.46465 45.2507 3.17286 45.5935 4.15714H37.7426Z" fill="black"/>
</g>
<defs>
<clipPath id="clip0_23715_50101">
<rect width="50" height="50" fill="white" transform="translate(0.84375 0.8125)"/>
</clipPath>
</defs>
</svg>
