<svg id="Capa_1" enable-background="new 0 0 512 512" height="512" viewBox="0 0 512 512" width="512" xmlns="http://www.w3.org/2000/svg"><g><path d="m146.166 175.363h-108.511c-4.162 0-7.534 3.373-7.534 7.534v262.409c0 4.161 3.373 7.534 7.534 7.534h436.69c4.162 0 7.534-3.373 7.534-7.534v-262.409c0-4.161-3.373-7.534-7.534-7.534h-298.041c-4.162 0-7.534 3.373-7.534 7.534s3.373 7.534 7.534 7.534h290.507v247.34h-421.622v-247.34h100.977c4.162 0 7.534-3.373 7.534-7.534.001-4.161-3.372-7.534-7.534-7.534z"/><path d="m484.374 145.314h-33.169l-164.379-81.19c.374-1.864.573-3.79.573-5.762 0-16.13-13.122-29.253-29.252-29.253s-29.253 13.123-29.253 29.253c0 1.972.199 3.899.573 5.762l-164.379 81.19h-37.462c-15.233 0-27.626 12.393-27.626 27.626v282.325c0 15.233 12.393 27.626 27.626 27.626h320.839c4.161 0 7.534-3.373 7.534-7.534s-3.373-7.534-7.534-7.534h-320.839c-6.924 0-12.557-5.633-12.557-12.557v-282.326c0-6.924 5.633-12.557 12.557-12.557h287.734c4.162 0 7.534-3.373 7.534-7.534s-3.373-7.534-7.534-7.534h-216.244l137.044-67.689c5.365 6.117 13.23 9.99 21.987 9.99s16.622-3.873 21.987-9.99l137.044 67.689h-71.68c-4.161 0-7.534 3.373-7.534 7.534s3.373 7.534 7.534 7.534h138.876c6.924 0 12.557 5.633 12.557 12.557v282.325c0 6.924-5.633 12.557-12.557 12.557h-105.772c-4.162 0-7.534 3.373-7.534 7.534s3.373 7.534 7.534 7.534h105.772c15.233 0 27.626-12.393 27.626-27.626v-282.324c0-15.233-12.392-27.626-27.626-27.626zm-226.227-72.767c-7.821 0-14.184-6.363-14.184-14.184s6.363-14.184 14.184-14.184 14.184 6.363 14.184 14.184c-.001 7.821-6.364 14.184-14.184 14.184z"/><path d="m128.328 275.838c4.161 0 7.534-3.373 7.534-7.534s-3.373-7.534-7.534-7.534h-32.356c-4.162 0-7.534 3.373-7.534 7.534v80.557c0 .008.001.015.001.023s-.001.015-.001.023c0 4.161 3.373 7.534 7.534 7.534h32.356c4.161 0 7.534-3.373 7.534-7.534s-3.373-7.534-7.534-7.534h-24.822v-25.233h24.822c4.161 0 7.534-3.373 7.534-7.534s-3.373-7.534-7.534-7.534h-24.822v-25.232h24.822z"/><path d="m234.118 356.44h32.357c4.161 0 7.534-3.373 7.534-7.534s-3.373-7.534-7.534-7.534h-24.823v-25.233h24.823c4.161 0 7.534-3.373 7.534-7.534s-3.373-7.534-7.534-7.534h-24.823v-25.232h24.823c4.161 0 7.534-3.373 7.534-7.534s-3.373-7.534-7.534-7.534h-32.357c-4.161 0-7.534 3.373-7.534 7.534v80.557c0 .008.001.015.001.023s-.001.015-.001.023c0 4.159 3.372 7.532 7.534 7.532z"/><path d="m145.434 270.326 21.12 75.791c1.72 6.175 7.183 10.323 13.593 10.323 6.409 0 11.872-4.149 13.592-10.323l21.12-75.791c1.117-4.008-1.227-8.163-5.235-9.28-4.012-1.118-8.164 1.228-9.281 5.235l-20.197 72.479-20.198-72.479c-1.116-4.008-5.267-6.351-9.281-5.235-4.005 1.117-6.35 5.272-5.233 9.28z"/><path d="m304.812 348.86v-51.777l31.206 55.515c1.762 3.133 5.617 4.601 9.019 3.432 3.008-1.033 5.083-3.945 5.083-7.125v-80.602c0-4.161-3.373-7.534-7.534-7.534s-7.534 3.373-7.534 7.534v51.823l-31.206-55.515c-1.68-2.987-5.164-4.464-8.476-3.597-3.315.868-5.626 3.862-5.626 7.289v80.557c0 4.161 3.373 7.534 7.534 7.534 4.162.001 7.534-3.373 7.534-7.534z"/><path d="m394.312 356.44c4.162 0 7.534-3.373 7.534-7.534v-73.022h18.476c4.162 0 7.534-3.373 7.534-7.534s-3.373-7.534-7.534-7.534h-52.02c-4.162 0-7.534 3.373-7.534 7.534s3.373 7.534 7.534 7.534h18.476v73.022c0 4.161 3.373 7.534 7.534 7.534z"/></g></svg>