<svg width="50" height="50" viewBox="0 0 50 50" fill="none" xmlns="http://www.w3.org/2000/svg">
<g clip-path="url(#clip0_23715_49679)">
<path d="M29.193 14.1309L30.482 2.85156C30.6578 1.32813 29.4664 0 27.943 0C26.6246 0 25.5113 1.02539 25.4039 2.34375L24.6031 11.9141C24.525 12.8418 23.9879 13.6426 23.1578 14.0723L19.1051 16.1426C18.2653 16.5723 17.2399 16.5137 16.4391 15.9961L7.87463 10.4395C6.33166 9.44336 4.29064 10.1953 3.75353 11.9434C3.39221 13.1152 3.86096 14.4043 4.90588 15.0684L13.7731 20.6934C17.9332 23.3398 20.0719 27.959 20.0035 32.832C19.9742 35.5273 19.5348 38.2813 18.7242 41.0254C18.4703 41.8555 17.5524 42.2461 16.7906 41.8164C15.0817 40.8594 13.236 39.4238 11.1656 37.4219C10.2086 36.5039 8.65588 36.5332 7.75744 37.5879L4.49572 41.4941C3.67541 42.4707 3.7926 43.9258 4.76916 44.7559C5.57971 45.4492 6.859 45.4688 7.68908 44.834L9.05627 43.7891C9.48595 43.4668 10.0621 43.4473 10.4918 43.7207C12.3863 46.2988 14.5738 48.2227 16.9762 49.4238C18.7047 50.2734 20.7555 49.9609 22.1324 48.6523C22.484 48.9648 22.8551 49.2285 23.2164 49.4434C24.857 50.4102 27.025 50.0977 28.3629 48.6816C34.193 42.5684 32.5719 30.957 29.8473 23.0566C28.9 20.2734 28.6656 17.1973 29.193 14.1309V14.1309ZM27.6207 47.9785C26.6051 49.043 24.984 49.2871 23.7633 48.5547C23.4508 48.3691 23.1383 48.1348 22.816 47.8613C25.1988 44.2676 26.2633 39.7363 25.482 34.9609C25.4332 34.6777 25.1695 34.4824 24.8863 34.5313C24.6031 34.5801 24.4078 34.8438 24.4567 35.127C25.4137 40.957 22.7477 51.084 17.4547 48.4961C13.4508 46.5137 11.527 43.1641 11.1754 42.9004C10.3551 42.3145 9.25158 42.334 8.44103 42.9492L7.05431 43.9941C6.6051 44.3359 5.89221 44.3262 5.45275 43.9551C4.91564 43.4961 4.84728 42.6855 5.2965 42.1484L8.55822 38.2422C9.0465 37.666 9.90588 37.6367 10.443 38.1641C12.5817 40.2441 14.4957 41.7285 16.2926 42.7246C17.6305 43.4668 19.2906 42.7832 19.7399 41.3184C20.5797 38.4766 21.0289 35.625 21.0582 32.832C21.1266 27.6465 18.8414 22.666 14.3395 19.8242L5.47228 14.1992C4.82775 13.7891 4.52502 12.998 4.74963 12.2656C5.08166 11.1816 6.36095 10.7129 7.29845 11.3379L15.8727 16.8848C16.9762 17.6074 18.3922 17.6758 19.5738 17.0801L23.6266 15.0098C24.7789 14.4238 25.5309 13.3105 25.6481 12.0117L26.4488 2.44141C26.5172 1.65039 27.1715 1.05469 27.9625 1.05469C28.8707 1.05469 29.5641 1.8457 29.4664 2.73438L28.1871 13.9941C27.6305 17.207 27.8844 20.4687 28.9 23.4277C31.4684 30.918 33.1285 42.2168 27.6207 47.9785V47.9785Z" fill="black" stroke="black" stroke-width="0.4"/>
<path d="M18.2363 14.1504C21.0195 14.1504 23.2949 11.8848 23.2949 9.0918C23.2949 6.29883 21.0293 4.0332 18.2363 4.0332C15.4434 4.0332 13.1875 6.29883 13.1875 9.0918C13.1875 11.8848 15.4531 14.1504 18.2363 14.1504ZM18.2363 5.08789C20.4434 5.08789 22.25 6.89453 22.25 9.10156C22.25 11.3086 20.4434 13.1152 18.2363 13.1152C16.0293 13.1152 14.2227 11.3086 14.2227 9.10156C14.2227 6.88477 16.0195 5.08789 18.2363 5.08789V5.08789Z" fill="black"/>
<path d="M45.7142 7.15861C45.6849 6.72893 45.4213 6.38713 45.0209 6.24065C44.6302 6.09416 44.1908 6.20158 43.9076 6.50432L37.0033 13.8188C36.6322 14.2094 36.6224 14.8246 36.9838 15.2348C39.2298 17.8129 42.0912 18.8383 45.4798 18.2914C46.017 18.2035 46.3978 17.7348 46.3685 17.1879L45.7142 7.15861ZM41.4271 10.6645C42.5111 11.3676 43.6927 11.7875 44.9818 11.9535L45.1673 14.8246C42.9994 14.9418 41.0755 14.2582 39.4642 12.7641L41.4271 10.6645ZM44.6791 7.21721L44.9134 10.8793C43.9271 10.7328 43.0091 10.4008 42.1595 9.88322L44.6791 7.21721ZM45.3041 17.266C42.267 17.7543 39.806 16.8754 37.765 14.5317L38.7416 13.4965C40.6361 15.2348 42.8724 15.977 45.2357 15.85L45.3236 17.2465C45.3138 17.2563 45.3138 17.266 45.3041 17.266Z" fill="black" stroke="black" stroke-width="0.4"/>
<path d="M43.4673 35.4591L39.6782 36.1817C39.2974 36.2501 38.9849 36.5333 38.8775 36.9141L37.6275 41.211C37.2564 41.045 36.7779 40.9766 36.2505 41.045C35.1275 41.2012 34.356 41.8848 34.4536 42.6466C34.5708 43.5157 35.645 43.838 36.6118 43.711C37.6568 43.5645 38.3989 42.9591 38.4087 42.2657L39.8638 37.1973L43.6529 36.4747C43.9361 36.4259 44.1216 36.1524 44.0728 35.8692C44.0239 35.586 43.7505 35.4005 43.4673 35.4591ZM36.4849 42.6759C35.9087 42.754 35.5376 42.5782 35.4986 42.5098C35.5181 42.4219 35.8208 42.1485 36.397 42.0606C36.69 42.0216 37.2271 42.0509 37.3833 42.2364C37.3345 42.3536 37.0318 42.5977 36.4849 42.6759Z" fill="black" stroke="black" stroke-width="0.4"/>
<path d="M44.3908 22.9788L40.5431 22.8323C40.172 22.8128 39.7912 23.0276 39.6154 23.3596L37.4474 27.2756C37.1154 27.0315 36.6662 26.8557 36.1291 26.8069C34.9963 26.7092 34.0881 27.1975 34.0197 27.969C33.9513 28.7405 34.7521 29.385 35.8849 29.4924C36.7541 29.5706 37.7599 29.2678 37.965 28.4768L40.5041 23.8674L44.342 23.9846L42.6232 27.0999C42.2521 26.8557 41.7345 26.7288 41.1388 26.7581C40.006 26.8069 39.1759 27.4221 39.215 28.1936C39.2345 28.6135 39.508 28.9749 39.967 29.1995C40.2892 29.3655 40.7091 29.4534 41.1291 29.4534H41.2756C42.0763 29.4143 43.0138 29.0432 43.1798 28.262L45.2697 24.5022C45.4455 24.1897 45.4455 23.8088 45.2697 23.4963C45.0939 23.1838 44.7423 23.0081 44.3908 22.9788ZM35.9631 28.4768C35.3869 28.428 35.0646 28.1643 35.0451 28.1057C35.133 27.9104 35.6994 27.842 36.0314 27.8713C36.5881 27.9202 36.9005 28.1643 36.9494 28.2522C36.881 28.3401 36.5197 28.5159 35.9631 28.4768ZM41.217 28.428C40.631 28.4573 40.2892 28.2424 40.2502 28.1741C40.3088 27.969 40.8849 27.8128 41.2853 27.8128C41.7834 27.8128 42.0959 27.9983 42.1447 28.0764C42.0959 28.1741 41.7736 28.3987 41.217 28.428V28.428Z" fill="black" stroke="black" stroke-width="0.4"/>
</g>
<defs>
<clipPath id="clip0_23715_49679">
<rect width="50" height="50" fill="white"/>
</clipPath>
</defs>
</svg>
