<svg width="50" height="50" viewBox="0 0 50 50" fill="none" xmlns="http://www.w3.org/2000/svg">
<path d="M2.05808 23.3092C0.587487 33.5298 10.3669 39.4121 17.7198 34.8533C18.014 34.6327 18.3816 34.3386 18.3081 33.971C18.2345 33.6768 17.9404 33.4562 17.6463 33.3827C19.0434 32.1327 20.2934 30.368 21.1022 28.1621C21.911 28.3092 22.7198 28.5298 23.4551 28.6768V28.8974C22.5728 40.5151 32.5728 45.7357 39.6316 41.3239C39.9257 41.1033 40.2934 40.8092 40.2198 40.4415C40.1463 40.0739 39.7787 39.7798 39.1169 39.9268C40.8816 38.4562 42.3522 36.3239 43.3816 33.8239C44.1904 34.0445 45.0728 34.1915 45.8816 34.3386C46.1022 34.4857 46.3228 34.5592 46.5434 34.5592C48.8228 34.5592 50.0728 28.0151 47.4993 28.0886L44.6316 27.3533C44.7787 21.9857 42.6463 17.7945 39.9257 15.6621C34.8522 11.5445 27.2787 14.2651 24.3375 22.868C23.5287 22.721 22.7934 22.5739 21.9845 22.4268C22.0581 17.6474 20.1463 13.6033 17.1316 11.9857C13.5287 8.75036 6.17572 9.8533 2.8669 18.971C1.91102 19.0445 1.10219 19.7062 0.808075 20.5886C0.587487 21.8386 1.46984 23.1621 2.05808 23.3092ZM2.71984 28.6768C3.16102 30.0004 3.67572 31.1033 4.41102 32.0592C3.52866 30.8827 3.01396 29.8533 2.71984 28.6768ZM16.0287 21.1033C14.9993 21.3974 14.1169 22.2798 13.7493 23.3827C13.7493 23.4562 13.161 24.7062 14.5581 26.5445C14.7787 26.7651 14.9993 26.7651 15.514 26.9121C13.3081 28.8974 10.5875 26.5445 10.9551 23.0151C11.3963 18.8974 15.3669 17.5004 16.6904 21.1768C16.3228 21.1033 16.1757 21.0298 16.0287 21.1033ZM15.2934 25.7357C14.9257 25.1474 14.5581 24.3386 14.7787 23.6768C14.9993 23.0151 15.514 22.4268 16.1757 22.2062C18.9698 22.9415 21.6169 23.4562 24.1904 23.8974C23.6757 25.6621 23.6022 26.618 23.5287 27.6474C22.6463 27.4268 15.2198 25.7357 15.2934 25.7357ZM38.3816 31.6915C38.6757 32.7945 39.5581 33.6033 40.514 33.8974C39.0434 36.2504 36.8375 37.3533 35.3669 35.1474C33.5287 32.4268 34.264 26.471 36.8375 23.4562C39.1904 20.7357 41.6169 21.9857 42.2051 25.5886C39.3375 25.0739 37.6463 29.2651 38.3816 31.6915ZM39.6316 31.8386C39.1169 30.8827 39.264 29.7062 39.6316 28.7504C39.8522 28.0886 40.2198 27.3533 40.8081 26.9857C40.8081 27.2798 40.9551 27.5004 41.1757 27.5739L46.3228 28.971C45.514 30.0739 45.0728 31.8386 45.2934 33.2357C40.4404 32.1327 40.1463 31.618 39.6316 31.8386ZM47.7934 31.471C47.4993 32.7945 46.8375 33.4562 46.6169 33.4562C46.4698 33.3827 46.1757 32.5004 46.4698 31.1768C46.764 30.0004 47.2787 29.3386 47.4993 29.1915H47.6463C47.9404 29.4121 48.0875 30.221 47.7934 31.471ZM43.6757 26.9857L43.3816 26.9121C43.2346 20.9562 39.1169 19.118 36.0287 22.7945C31.911 27.6474 32.4993 37.5004 37.2787 37.5004C39.0434 37.5004 40.8081 36.0298 41.9846 33.5298C42.1316 33.5298 42.2787 33.6033 42.3522 33.6033C40.8816 37.1327 38.4551 39.7062 35.7345 40.8092C32.8669 41.471 27.7934 37.6474 27.6463 30.8827C27.5728 27.3533 28.3816 24.118 30.1463 21.0298C31.1022 19.2651 32.9404 17.9415 33.8963 17.2798C35.2198 16.3239 38.014 16.0298 39.4846 16.618C42.1316 18.6768 43.7493 22.6474 43.6757 26.9857ZM37.0581 15.1474C35.661 15.221 34.1904 15.6621 33.2346 16.2504C32.2051 16.9857 30.2934 18.4562 29.1904 20.368C24.264 28.971 26.6904 38.2357 32.4257 41.1768C32.3522 41.1768 32.2787 41.1768 32.2051 41.1768C26.5434 40.4415 22.7934 32.0592 25.4404 23.6033C27.2051 18.0886 31.911 13.5298 37.0581 15.1474ZM21.1022 22.2062C20.1463 21.9857 19.0434 21.7651 17.9404 21.471C17.1316 18.0886 14.1169 16.9857 11.911 18.8239C8.38161 21.6915 9.63161 28.7504 13.8228 28.7504C14.9257 28.7504 15.9551 28.1621 16.764 27.2062L20.0728 27.9415C17.3522 35.0739 10.514 36.7651 7.27866 30.4415C3.3816 22.868 8.3816 11.3974 14.9993 12.2062C18.5287 12.7945 21.1022 16.9857 21.1022 22.2062ZM12.3522 11.471C8.74925 12.5739 5.66102 16.8386 4.92572 22.2062C4.33749 26.5445 5.51396 31.618 8.82278 34.118C4.33749 32.5004 1.17572 25.5886 4.77866 17.868C6.24925 14.5592 8.74925 11.7651 12.3522 11.471ZM2.71984 20.221C2.42572 21.1033 2.42572 21.471 2.27866 22.0592C2.05808 21.7651 1.98455 20.6621 2.71984 20.221Z" fill="black"/>
<path d="M32.2067 8.45501C31.9126 8.52854 31.7655 8.89619 31.8391 9.19031L32.7214 11.6903C32.7949 11.9109 33.0155 12.058 33.2361 12.058C33.6038 12.058 33.8979 11.6903 33.7508 11.3227L32.8685 8.82266C32.7949 8.52854 32.5008 8.30795 32.2067 8.45501Z" fill="black"/>
<path d="M35.8042 7.05859C35.5101 7.05859 35.216 7.27918 35.216 7.5733L34.9219 10.9557C34.9219 11.2498 35.1425 11.5439 35.4366 11.5439C35.8042 11.5439 36.0248 11.3233 36.0248 11.0292L36.3189 7.64683C36.3925 7.35271 36.1719 7.13212 35.8042 7.05859Z" fill="black"/>
<path d="M39.1933 9.70477L38.0168 11.3224C37.7227 11.6901 38.0168 12.2048 38.458 12.2048C38.6051 12.2048 38.8257 12.1312 38.8992 11.9842L40.0757 10.3665C40.2227 10.1459 40.2227 9.7783 39.9286 9.63124C39.708 9.41065 39.3404 9.48418 39.1933 9.70477Z" fill="black"/>
</svg>
