<svg id="Layer_21" enable-background="new 0 0 2000 2000" viewBox="0 0 2000 2000" xmlns="http://www.w3.org/2000/svg"><path d="m1814.185 1252.096c0 14.615 11.849 26.464 26.464 26.464s26.464-11.849 26.464-26.464c0-106.989 23.017-150.335 41.508-185.166 12.182-22.946 23.689-44.616 23.689-75.635 0-71.477-62.819-163.283-69.981-173.517-8.38-11.969-24.861-14.873-36.84-6.506-11.972 8.373-14.892 24.868-6.528 36.846 16.808 24.064 60.422 96.694 60.422 143.176 0 17.839-6.965 30.958-17.509 50.812-20.127 37.908-47.689 89.821-47.689 209.99zm-153.11 0c0 14.615 11.849 26.464 26.464 26.464s26.464-11.849 26.464-26.464c0-106.989 23.017-150.335 41.508-185.166 12.182-22.946 23.689-44.616 23.689-75.635 0-71.477-62.819-163.283-69.981-173.517-8.376-11.969-24.862-14.873-36.84-6.506-11.972 8.373-14.892 24.868-6.529 36.846 16.808 24.064 60.422 96.694 60.422 143.176 0 17.839-6.965 30.958-17.509 50.812-20.126 37.908-47.688 89.821-47.688 209.99zm-1528.187 0c0 14.615 11.849 26.464 26.463 26.464 14.615 0 26.464-11.849 26.464-26.464 0-120.169-27.565-172.082-47.691-209.989-10.544-19.854-17.509-32.973-17.509-50.812 0-46.483 43.617-119.113 60.426-143.176 8.37-11.972 5.456-28.463-6.513-36.843-11.972-8.38-28.476-5.469-36.856 6.503-7.162 10.234-69.984 102.037-69.984 173.517 0 31.019 11.507 52.689 23.689 75.635 18.493 34.829 41.511 78.176 41.511 185.165zm153.11 0c0 14.615 11.849 26.464 26.463 26.464 14.615 0 26.464-11.849 26.464-26.464 0-120.169-27.565-172.082-47.691-209.989-10.544-19.854-17.509-32.973-17.509-50.812 0-46.483 43.617-119.113 60.425-143.176 8.37-11.972 5.457-28.463-6.512-36.843-11.972-8.38-28.477-5.469-36.856 6.503-7.162 10.234-69.984 102.037-69.984 173.517 0 31.019 11.507 52.689 23.689 75.635 18.494 34.829 41.511 78.176 41.511 185.165zm1687.538 76.203h-425.406c23.936-32.671 31.773-76.86 16.968-117.536l-135.139-374.754c-43.87-120.521-159.516-201.499-287.775-201.499h-284.37c-128.262 0-243.908 80.977-287.8 201.573l-135.091 374.606c-14.822 40.726-6.991 84.933 16.944 117.611h-425.404c-14.615 0-26.463 11.849-26.463 26.464s11.849 26.464 26.463 26.464h722.176v302.854c0 76.545 62.276 138.822 138.822 138.822 46.271 0 87.3-22.776 112.539-57.684 25.239 34.908 66.266 57.684 112.536 57.684 76.548 0 138.825-62.276 138.825-138.822v-302.854h722.176c14.615 0 26.464-11.849 26.464-26.464s-11.85-26.465-26.465-26.465zm-1227.409 0h-98.133c7.037-9.47 12.757-20.013 16.918-31.445.055-.155.11-.307.161-.462l81.908-238.665zm227.232 355.782c0 47.361-38.533 85.894-85.898 85.894-47.362 0-85.894-38.533-85.894-85.894v-329.583c0-47.362 38.533-85.894 85.894-85.894 47.365 0 85.898 38.533 85.898 85.894zm225.074 0c0 47.361-38.533 85.894-85.898 85.894-47.362 0-85.894-38.533-85.894-85.894v-329.583c0-47.362 38.533-85.894 85.894-85.894 47.365 0 85.898 38.533 85.898 85.894zm54.251-355.782-.109-271.855 82.347 239.948c.052.155.107.307.161.462 4.161 11.432 9.881 21.975 16.918 31.445zm224.084-8.716c-17.78 7.204-37.199 6.884-54.682-.888-17.415-7.75-30.615-21.851-37.186-39.725l-133.82-389.944c-4.196-12.237-16.614-19.66-29.391-17.512-12.76 2.132-22.109 13.173-22.103 26.112l.138 348.952c-23.85-19.305-54.185-30.902-87.189-30.902-46.27 0-87.296 22.776-112.536 57.684-25.239-34.908-66.268-57.684-112.539-57.684-33.442 0-64.158 11.89-88.15 31.66l1.103-349.636c.042-12.951-9.297-24.028-22.067-26.18-12.789-2.138-25.224 5.256-29.426 17.506l-133.821 389.937c-6.571 17.877-19.77 31.981-37.189 39.731-17.477 7.776-36.898 8.092-54.685.888-34.417-13.93-51.716-54.659-38.539-90.866l135.091-374.605c36.284-99.695 131.944-166.675 238.038-166.675h284.37c106.091 0 201.751 66.98 238.013 166.6l135.139 374.754c13.151 36.134-4.149 76.863-38.569 90.793zm-476.768-716.777c117.368 0 212.854-95.486 212.854-212.854s-95.486-212.854-212.854-212.854-212.854 95.486-212.854 212.854 95.486 212.854 212.854 212.854zm0-372.781c88.185 0 159.926 71.742 159.926 159.926s-71.741 159.927-159.926 159.927-159.926-71.742-159.926-159.926 71.741-159.927 159.926-159.927z"/><g/><g/><g/><g/><g/><g/><g/><g/><g/><g/><g/><g/><g/><g/><g/></svg>